<?xml version="1.0" encoding="utf-8" standalone="no"?>
<!DOCTYPE svg PUBLIC "-//W3C//DTD SVG 1.1//EN"
  "http://www.w3.org/Graphics/SVG/1.1/DTD/svg11.dtd">
<svg xmlns:xlink="http://www.w3.org/1999/xlink" width="606.1425pt" height="334.438125pt" viewBox="0 0 606.1425 334.438125" xmlns="http://www.w3.org/2000/svg" version="1.1">
 <metadata>
  <rdf:RDF xmlns:dc="http://purl.org/dc/elements/1.1/" xmlns:cc="http://creativecommons.org/ns#" xmlns:rdf="http://www.w3.org/1999/02/22-rdf-syntax-ns#">
   <cc:Work>
    <dc:type rdf:resource="http://purl.org/dc/dcmitype/StillImage"/>
    <dc:date>2026-07-10T22:40:00.572106</dc:date>
    <dc:format>image/svg+xml</dc:format>
    <dc:creator>
     <cc:Agent>
      <dc:title>Matplotlib v3.7.1, https://matplotlib.org/</dc:title>
     </cc:Agent>
    </dc:creator>
   </cc:Work>
  </rdf:RDF>
 </metadata>
 <defs>
  <style type="text/css">*{stroke-linejoin: round; stroke-linecap: butt}</style>
 </defs>
 <g id="figure_1">
  <g id="patch_1">
   <path d="M 0 334.438125 
L 606.1425 334.438125 
L 606.1425 0 
L 0 0 
z
" style="fill: #ffffff"/>
  </g>
  <g id="axes_1">
   <g id="patch_2">
    <path d="M 82.10325 147.770925 
L 252.85125 147.770925 
Q 256.86885 147.770925 256.86885 144.286125 
L 256.86885 65.878125 
Q 256.86885 62.393325 252.85125 62.393325 
L 82.10325 62.393325 
Q 78.08565 62.393325 78.08565 65.878125 
L 78.08565 144.286125 
Q 78.08565 147.770925 82.10325 147.770925 
z
" clip-path="url(#p65b1056496)" style="fill: #ffffff; stroke: #2563eb; stroke-width: 1.5; stroke-linejoin: miter"/>
   </g>
   <g id="patch_3">
    <path d="M 353.29125 147.770925 
L 524.03925 147.770925 
Q 528.05685 147.770925 528.05685 144.286125 
L 528.05685 65.878125 
Q 528.05685 62.393325 524.03925 62.393325 
L 353.29125 62.393325 
Q 349.27365 62.393325 349.27365 65.878125 
L 349.27365 144.286125 
Q 349.27365 147.770925 353.29125 147.770925 
z
" clip-path="url(#p65b1056496)" style="fill: #ffffff; stroke: #d97706; stroke-width: 1.5; stroke-linejoin: miter"/>
   </g>
   <g id="patch_4">
    <path d="M 254.852816 92.014125 
Q 303.073169 92.014125 349.616471 92.014125 
" clip-path="url(#p65b1056496)" style="fill: none; stroke: #495057; stroke-width: 1.5; stroke-linecap: round"/>
    <path d="M 342.416471 88.414125 
L 349.616471 92.014125 
L 342.416471 95.614125 
z
" clip-path="url(#p65b1056496)" style="fill: #495057; stroke: #495057; stroke-width: 1.5; stroke-linecap: round"/>
   </g>
   <g id="patch_5">
    <path d="M 351.289684 126.862125 
Q 303.069331 126.862125 256.526029 126.862125 
" clip-path="url(#p65b1056496)" style="fill: none; stroke: #495057; stroke-width: 1.5; stroke-linecap: round"/>
    <path d="M 263.726029 130.462125 
L 256.526029 126.862125 
L 263.726029 123.262125 
z
" clip-path="url(#p65b1056496)" style="fill: #495057; stroke: #495057; stroke-width: 1.5; stroke-linecap: round"/>
   </g>
   <g id="patch_6">
    <path d="M 207.65325 226.178925 
L 398.48925 226.178925 
Q 402.50685 226.178925 402.50685 222.694125 
L 402.50685 179.134125 
Q 402.50685 175.649325 398.48925 175.649325 
L 207.65325 175.649325 
Q 203.63565 175.649325 203.63565 179.134125 
L 203.63565 222.694125 
Q 203.63565 226.178925 207.65325 226.178925 
z
" clip-path="url(#p65b1056496)" style="fill: #ffffff; stroke: #059669; stroke-width: 1.5; stroke-linejoin: miter"/>
   </g>
   <g id="patch_7">
    <path d="M 169.209693 145.28792 
Q 197.609144 161.710064 224.847156 177.460599 
" clip-path="url(#p65b1056496)" style="fill: none; stroke: #059669; stroke-width: 1.2; stroke-linecap: round"/>
    <path d="M 221.400962 172.233387 
L 224.847156 177.460599 
L 218.59767 177.081228 
z
" clip-path="url(#p65b1056496)" style="fill: #059669; stroke: #059669; stroke-width: 1.2; stroke-linecap: round"/>
   </g>
   <g id="patch_8">
    <path d="M 436.932807 145.28792 
Q 408.533356 161.710064 381.295344 177.460599 
" clip-path="url(#p65b1056496)" style="fill: none; stroke: #059669; stroke-width: 1.2; stroke-linecap: round"/>
    <path d="M 387.54483 177.081228 
L 381.295344 177.460599 
L 384.741538 172.233387 
z
" clip-path="url(#p65b1056496)" style="fill: #059669; stroke: #059669; stroke-width: 1.2; stroke-linecap: round"/>
   </g>
   <g id="patch_9">
    <path d="M 207.65325 304.586925 
L 398.48925 304.586925 
Q 402.50685 304.586925 402.50685 301.102125 
L 402.50685 257.542125 
Q 402.50685 254.057325 398.48925 254.057325 
L 207.65325 254.057325 
Q 203.63565 254.057325 203.63565 257.542125 
L 203.63565 301.102125 
Q 203.63565 304.586925 207.65325 304.586925 
z
" clip-path="url(#p65b1056496)" style="fill: #ffffff; stroke: #7c3aed; stroke-width: 1.5; stroke-linejoin: miter"/>
   </g>
   <g id="patch_10">
    <path d="M 437.458946 145.886391 
Q 395.977433 200.915208 355.168919 255.051235 
" clip-path="url(#p65b1056496)" style="fill: none; stroke-dasharray: 3.7,1.6; stroke-dashoffset: 0; stroke: #6c757d; stroke-linecap: round"/>
    <path d="M 360.775725 252.264889 
L 355.168919 255.051235 
L 356.303925 248.893983 
z
" clip-path="url(#p65b1056496)" style="fill: #6c757d; stroke-dasharray: 3.7,1.6; stroke-dashoffset: 0; stroke: #6c757d; stroke-linecap: round"/>
   </g>
   <g id="text_1">
    <!-- LOCAL  $\pi_\theta$ -->
    <g style="fill: #212529" transform="translate(142.57725 91.033687) scale(0.1 -0.1)">
     <defs>
      <path id="DejaVuSans-4c" d="M 628 4666 
L 1259 4666 
L 1259 531 
L 3531 531 
L 3531 0 
L 628 0 
L 628 4666 
z
" transform="scale(0.015625)"/>
      <path id="DejaVuSans-4f" d="M 2522 4238 
Q 1834 4238 1429 3725 
Q 1025 3213 1025 2328 
Q 1025 1447 1429 934 
Q 1834 422 2522 422 
Q 3209 422 3611 934 
Q 4013 1447 4013 2328 
Q 4013 3213 3611 3725 
Q 3209 4238 2522 4238 
z
M 2522 4750 
Q 3503 4750 4090 4092 
Q 4678 3434 4678 2328 
Q 4678 1225 4090 567 
Q 3503 -91 2522 -91 
Q 1538 -91 948 565 
Q 359 1222 359 2328 
Q 359 3434 948 4092 
Q 1538 4750 2522 4750 
z
" transform="scale(0.015625)"/>
      <path id="DejaVuSans-43" d="M 4122 4306 
L 4122 3641 
Q 3803 3938 3442 4084 
Q 3081 4231 2675 4231 
Q 1875 4231 1450 3742 
Q 1025 3253 1025 2328 
Q 1025 1406 1450 917 
Q 1875 428 2675 428 
Q 3081 428 3442 575 
Q 3803 722 4122 1019 
L 4122 359 
Q 3791 134 3420 21 
Q 3050 -91 2638 -91 
Q 1578 -91 968 557 
Q 359 1206 359 2328 
Q 359 3453 968 4101 
Q 1578 4750 2638 4750 
Q 3056 4750 3426 4639 
Q 3797 4528 4122 4306 
z
" transform="scale(0.015625)"/>
      <path id="DejaVuSans-41" d="M 2188 4044 
L 1331 1722 
L 3047 1722 
L 2188 4044 
z
M 1831 4666 
L 2547 4666 
L 4325 0 
L 3669 0 
L 3244 1197 
L 1141 1197 
L 716 0 
L 50 0 
L 1831 4666 
z
" transform="scale(0.015625)"/>
      <path id="DejaVuSans-20" transform="scale(0.015625)"/>
      <path id="DejaVuSans-Oblique-3c0" d="M 584 3500 
L 3938 3500 
L 3825 2925 
L 3384 2925 
L 2966 775 
Q 2922 550 2981 450 
Q 3038 353 3209 353 
Q 3256 353 3325 363 
Q 3397 369 3419 372 
L 3338 -44 
Q 3222 -84 3103 -103 
Q 2981 -122 2866 -122 
Q 2491 -122 2388 81 
Q 2284 288 2391 838 
L 2797 2925 
L 1506 2925 
L 938 0 
L 350 0 
L 919 2925 
L 472 2925 
L 584 3500 
z
" transform="scale(0.015625)"/>
      <path id="DejaVuSans-Oblique-3b8" d="M 2913 2219 
L 925 2219 
Q 791 1284 928 888 
Q 1100 400 1566 400 
Q 2034 400 2391 891 
Q 2703 1322 2913 2219 
z
M 3009 2750 
Q 3094 3638 2984 3950 
Q 2813 4444 2353 4444 
Q 1875 4444 1525 3956 
Q 1250 3563 1034 2750 
L 3009 2750 
z
M 2444 4913 
Q 3194 4913 3494 4250 
Q 3794 3591 3566 2422 
Q 3341 1256 2781 594 
Q 2225 -72 1475 -72 
Q 722 -72 425 594 
Q 128 1256 353 2422 
Q 581 3591 1134 4250 
Q 1691 4913 2444 4913 
z
" transform="scale(0.015625)"/>
     </defs>
     <use xlink:href="#DejaVuSans-4c" transform="translate(0 0.78125)"/>
     <use xlink:href="#DejaVuSans-4f" transform="translate(55.712891 0.78125)"/>
     <use xlink:href="#DejaVuSans-43" transform="translate(134.423828 0.78125)"/>
     <use xlink:href="#DejaVuSans-41" transform="translate(204.248047 0.78125)"/>
     <use xlink:href="#DejaVuSans-4c" transform="translate(272.65625 0.78125)"/>
     <use xlink:href="#DejaVuSans-20" transform="translate(328.369141 0.78125)"/>
     <use xlink:href="#DejaVuSans-20" transform="translate(360.15625 0.78125)"/>
     <use xlink:href="#DejaVuSans-Oblique-3c0" transform="translate(391.943359 0.78125)"/>
     <use xlink:href="#DejaVuSans-Oblique-3b8" transform="translate(452.148438 -15.625) scale(0.7)"/>
    </g>
    <!-- max current-task lead -->
    <g style="fill: #212529" transform="translate(112.338969 102.2315) scale(0.1 -0.1)">
     <defs>
      <path id="DejaVuSans-6d" d="M 3328 2828 
Q 3544 3216 3844 3400 
Q 4144 3584 4550 3584 
Q 5097 3584 5394 3201 
Q 5691 2819 5691 2113 
L 5691 0 
L 5113 0 
L 5113 2094 
Q 5113 2597 4934 2840 
Q 4756 3084 4391 3084 
Q 3944 3084 3684 2787 
Q 3425 2491 3425 1978 
L 3425 0 
L 2847 0 
L 2847 2094 
Q 2847 2600 2669 2842 
Q 2491 3084 2119 3084 
Q 1678 3084 1418 2786 
Q 1159 2488 1159 1978 
L 1159 0 
L 581 0 
L 581 3500 
L 1159 3500 
L 1159 2956 
Q 1356 3278 1631 3431 
Q 1906 3584 2284 3584 
Q 2666 3584 2933 3390 
Q 3200 3197 3328 2828 
z
" transform="scale(0.015625)"/>
      <path id="DejaVuSans-61" d="M 2194 1759 
Q 1497 1759 1228 1600 
Q 959 1441 959 1056 
Q 959 750 1161 570 
Q 1363 391 1709 391 
Q 2188 391 2477 730 
Q 2766 1069 2766 1631 
L 2766 1759 
L 2194 1759 
z
M 3341 1997 
L 3341 0 
L 2766 0 
L 2766 531 
Q 2569 213 2275 61 
Q 1981 -91 1556 -91 
Q 1019 -91 701 211 
Q 384 513 384 1019 
Q 384 1609 779 1909 
Q 1175 2209 1959 2209 
L 2766 2209 
L 2766 2266 
Q 2766 2663 2505 2880 
Q 2244 3097 1772 3097 
Q 1472 3097 1187 3025 
Q 903 2953 641 2809 
L 641 3341 
Q 956 3463 1253 3523 
Q 1550 3584 1831 3584 
Q 2591 3584 2966 3190 
Q 3341 2797 3341 1997 
z
" transform="scale(0.015625)"/>
      <path id="DejaVuSans-78" d="M 3513 3500 
L 2247 1797 
L 3578 0 
L 2900 0 
L 1881 1375 
L 863 0 
L 184 0 
L 1544 1831 
L 300 3500 
L 978 3500 
L 1906 2253 
L 2834 3500 
L 3513 3500 
z
" transform="scale(0.015625)"/>
      <path id="DejaVuSans-63" d="M 3122 3366 
L 3122 2828 
Q 2878 2963 2633 3030 
Q 2388 3097 2138 3097 
Q 1578 3097 1268 2742 
Q 959 2388 959 1747 
Q 959 1106 1268 751 
Q 1578 397 2138 397 
Q 2388 397 2633 464 
Q 2878 531 3122 666 
L 3122 134 
Q 2881 22 2623 -34 
Q 2366 -91 2075 -91 
Q 1284 -91 818 406 
Q 353 903 353 1747 
Q 353 2603 823 3093 
Q 1294 3584 2113 3584 
Q 2378 3584 2631 3529 
Q 2884 3475 3122 3366 
z
" transform="scale(0.015625)"/>
      <path id="DejaVuSans-75" d="M 544 1381 
L 544 3500 
L 1119 3500 
L 1119 1403 
Q 1119 906 1312 657 
Q 1506 409 1894 409 
Q 2359 409 2629 706 
Q 2900 1003 2900 1516 
L 2900 3500 
L 3475 3500 
L 3475 0 
L 2900 0 
L 2900 538 
Q 2691 219 2414 64 
Q 2138 -91 1772 -91 
Q 1169 -91 856 284 
Q 544 659 544 1381 
z
M 1991 3584 
L 1991 3584 
z
" transform="scale(0.015625)"/>
      <path id="DejaVuSans-72" d="M 2631 2963 
Q 2534 3019 2420 3045 
Q 2306 3072 2169 3072 
Q 1681 3072 1420 2755 
Q 1159 2438 1159 1844 
L 1159 0 
L 581 0 
L 581 3500 
L 1159 3500 
L 1159 2956 
Q 1341 3275 1631 3429 
Q 1922 3584 2338 3584 
Q 2397 3584 2469 3576 
Q 2541 3569 2628 3553 
L 2631 2963 
z
" transform="scale(0.015625)"/>
      <path id="DejaVuSans-65" d="M 3597 1894 
L 3597 1613 
L 953 1613 
Q 991 1019 1311 708 
Q 1631 397 2203 397 
Q 2534 397 2845 478 
Q 3156 559 3463 722 
L 3463 178 
Q 3153 47 2828 -22 
Q 2503 -91 2169 -91 
Q 1331 -91 842 396 
Q 353 884 353 1716 
Q 353 2575 817 3079 
Q 1281 3584 2069 3584 
Q 2775 3584 3186 3129 
Q 3597 2675 3597 1894 
z
M 3022 2063 
Q 3016 2534 2758 2815 
Q 2500 3097 2075 3097 
Q 1594 3097 1305 2825 
Q 1016 2553 972 2059 
L 3022 2063 
z
" transform="scale(0.015625)"/>
      <path id="DejaVuSans-6e" d="M 3513 2113 
L 3513 0 
L 2938 0 
L 2938 2094 
Q 2938 2591 2744 2837 
Q 2550 3084 2163 3084 
Q 1697 3084 1428 2787 
Q 1159 2491 1159 1978 
L 1159 0 
L 581 0 
L 581 3500 
L 1159 3500 
L 1159 2956 
Q 1366 3272 1645 3428 
Q 1925 3584 2291 3584 
Q 2894 3584 3203 3211 
Q 3513 2838 3513 2113 
z
" transform="scale(0.015625)"/>
      <path id="DejaVuSans-74" d="M 1172 4494 
L 1172 3500 
L 2356 3500 
L 2356 3053 
L 1172 3053 
L 1172 1153 
Q 1172 725 1289 603 
Q 1406 481 1766 481 
L 2356 481 
L 2356 0 
L 1766 0 
Q 1100 0 847 248 
Q 594 497 594 1153 
L 594 3053 
L 172 3053 
L 172 3500 
L 594 3500 
L 594 4494 
L 1172 4494 
z
" transform="scale(0.015625)"/>
      <path id="DejaVuSans-2d" d="M 313 2009 
L 1997 2009 
L 1997 1497 
L 313 1497 
L 313 2009 
z
" transform="scale(0.015625)"/>
      <path id="DejaVuSans-73" d="M 2834 3397 
L 2834 2853 
Q 2591 2978 2328 3040 
Q 2066 3103 1784 3103 
Q 1356 3103 1142 2972 
Q 928 2841 928 2578 
Q 928 2378 1081 2264 
Q 1234 2150 1697 2047 
L 1894 2003 
Q 2506 1872 2764 1633 
Q 3022 1394 3022 966 
Q 3022 478 2636 193 
Q 2250 -91 1575 -91 
Q 1294 -91 989 -36 
Q 684 19 347 128 
L 347 722 
Q 666 556 975 473 
Q 1284 391 1588 391 
Q 1994 391 2212 530 
Q 2431 669 2431 922 
Q 2431 1156 2273 1281 
Q 2116 1406 1581 1522 
L 1381 1569 
Q 847 1681 609 1914 
Q 372 2147 372 2553 
Q 372 3047 722 3315 
Q 1072 3584 1716 3584 
Q 2034 3584 2315 3537 
Q 2597 3491 2834 3397 
z
" transform="scale(0.015625)"/>
      <path id="DejaVuSans-6b" d="M 581 4863 
L 1159 4863 
L 1159 1991 
L 2875 3500 
L 3609 3500 
L 1753 1863 
L 3688 0 
L 2938 0 
L 1159 1709 
L 1159 0 
L 581 0 
L 581 4863 
z
" transform="scale(0.015625)"/>
      <path id="DejaVuSans-6c" d="M 603 4863 
L 1178 4863 
L 1178 0 
L 603 0 
L 603 4863 
z
" transform="scale(0.015625)"/>
      <path id="DejaVuSans-64" d="M 2906 2969 
L 2906 4863 
L 3481 4863 
L 3481 0 
L 2906 0 
L 2906 525 
Q 2725 213 2448 61 
Q 2172 -91 1784 -91 
Q 1150 -91 751 415 
Q 353 922 353 1747 
Q 353 2572 751 3078 
Q 1150 3584 1784 3584 
Q 2172 3584 2448 3432 
Q 2725 3281 2906 2969 
z
M 947 1747 
Q 947 1113 1208 752 
Q 1469 391 1925 391 
Q 2381 391 2643 752 
Q 2906 1113 2906 1747 
Q 2906 2381 2643 2742 
Q 2381 3103 1925 3103 
Q 1469 3103 1208 2742 
Q 947 2381 947 1747 
z
" transform="scale(0.015625)"/>
     </defs>
     <use xlink:href="#DejaVuSans-6d"/>
     <use xlink:href="#DejaVuSans-61" x="97.412109"/>
     <use xlink:href="#DejaVuSans-78" x="158.691406"/>
     <use xlink:href="#DejaVuSans-20" x="217.871094"/>
     <use xlink:href="#DejaVuSans-63" x="249.658203"/>
     <use xlink:href="#DejaVuSans-75" x="304.638672"/>
     <use xlink:href="#DejaVuSans-72" x="368.017578"/>
     <use xlink:href="#DejaVuSans-72" x="407.380859"/>
     <use xlink:href="#DejaVuSans-65" x="446.244141"/>
     <use xlink:href="#DejaVuSans-6e" x="507.767578"/>
     <use xlink:href="#DejaVuSans-74" x="571.146484"/>
     <use xlink:href="#DejaVuSans-2d" x="610.355469"/>
     <use xlink:href="#DejaVuSans-74" x="646.439453"/>
     <use xlink:href="#DejaVuSans-61" x="685.648438"/>
     <use xlink:href="#DejaVuSans-73" x="746.927734"/>
     <use xlink:href="#DejaVuSans-6b" x="799.027344"/>
     <use xlink:href="#DejaVuSans-20" x="856.9375"/>
     <use xlink:href="#DejaVuSans-6c" x="888.724609"/>
     <use xlink:href="#DejaVuSans-65" x="916.507812"/>
     <use xlink:href="#DejaVuSans-61" x="978.03125"/>
     <use xlink:href="#DejaVuSans-64" x="1039.310547"/>
    </g>
    <!-- s.t. per-task $\lambda_i$ hold -->
    <g style="fill: #212529" transform="translate(119.42725 113.431187) scale(0.1 -0.1)">
     <defs>
      <path id="DejaVuSans-2e" d="M 684 794 
L 1344 794 
L 1344 0 
L 684 0 
L 684 794 
z
" transform="scale(0.015625)"/>
      <path id="DejaVuSans-70" d="M 1159 525 
L 1159 -1331 
L 581 -1331 
L 581 3500 
L 1159 3500 
L 1159 2969 
Q 1341 3281 1617 3432 
Q 1894 3584 2278 3584 
Q 2916 3584 3314 3078 
Q 3713 2572 3713 1747 
Q 3713 922 3314 415 
Q 2916 -91 2278 -91 
Q 1894 -91 1617 61 
Q 1341 213 1159 525 
z
M 3116 1747 
Q 3116 2381 2855 2742 
Q 2594 3103 2138 3103 
Q 1681 3103 1420 2742 
Q 1159 2381 1159 1747 
Q 1159 1113 1420 752 
Q 1681 391 2138 391 
Q 2594 391 2855 752 
Q 3116 1113 3116 1747 
z
" transform="scale(0.015625)"/>
      <path id="DejaVuSans-Oblique-3bb" d="M 2350 4316 
L 3125 0 
L 2516 0 
L 2038 2588 
L 328 0 
L -281 0 
L 1903 3356 
L 1794 3975 
Q 1725 4369 1391 4369 
L 1091 4369 
L 1184 4863 
L 1550 4856 
Q 2253 4847 2350 4316 
z
" transform="scale(0.015625)"/>
      <path id="DejaVuSans-Oblique-69" d="M 1172 4863 
L 1747 4863 
L 1606 4134 
L 1031 4134 
L 1172 4863 
z
M 909 3500 
L 1484 3500 
L 800 0 
L 225 0 
L 909 3500 
z
" transform="scale(0.015625)"/>
      <path id="DejaVuSans-68" d="M 3513 2113 
L 3513 0 
L 2938 0 
L 2938 2094 
Q 2938 2591 2744 2837 
Q 2550 3084 2163 3084 
Q 1697 3084 1428 2787 
Q 1159 2491 1159 1978 
L 1159 0 
L 581 0 
L 581 4863 
L 1159 4863 
L 1159 2956 
Q 1366 3272 1645 3428 
Q 1925 3584 2291 3584 
Q 2894 3584 3203 3211 
Q 3513 2838 3513 2113 
z
" transform="scale(0.015625)"/>
      <path id="DejaVuSans-6f" d="M 1959 3097 
Q 1497 3097 1228 2736 
Q 959 2375 959 1747 
Q 959 1119 1226 758 
Q 1494 397 1959 397 
Q 2419 397 2687 759 
Q 2956 1122 2956 1747 
Q 2956 2369 2687 2733 
Q 2419 3097 1959 3097 
z
M 1959 3584 
Q 2709 3584 3137 3096 
Q 3566 2609 3566 1747 
Q 3566 888 3137 398 
Q 2709 -91 1959 -91 
Q 1206 -91 779 398 
Q 353 888 353 1747 
Q 353 2609 779 3096 
Q 1206 3584 1959 3584 
z
" transform="scale(0.015625)"/>
     </defs>
     <use xlink:href="#DejaVuSans-73" transform="translate(0 0.015625)"/>
     <use xlink:href="#DejaVuSans-2e" transform="translate(52.099609 0.015625)"/>
     <use xlink:href="#DejaVuSans-74" transform="translate(83.886719 0.015625)"/>
     <use xlink:href="#DejaVuSans-2e" transform="translate(123.095703 0.015625)"/>
     <use xlink:href="#DejaVuSans-20" transform="translate(154.882812 0.015625)"/>
     <use xlink:href="#DejaVuSans-70" transform="translate(186.669922 0.015625)"/>
     <use xlink:href="#DejaVuSans-65" transform="translate(250.146484 0.015625)"/>
     <use xlink:href="#DejaVuSans-72" transform="translate(311.669922 0.015625)"/>
     <use xlink:href="#DejaVuSans-2d" transform="translate(352.783203 0.015625)"/>
     <use xlink:href="#DejaVuSans-74" transform="translate(388.867188 0.015625)"/>
     <use xlink:href="#DejaVuSans-61" transform="translate(428.076172 0.015625)"/>
     <use xlink:href="#DejaVuSans-73" transform="translate(489.355469 0.015625)"/>
     <use xlink:href="#DejaVuSans-6b" transform="translate(541.455078 0.015625)"/>
     <use xlink:href="#DejaVuSans-20" transform="translate(599.365234 0.015625)"/>
     <use xlink:href="#DejaVuSans-Oblique-3bb" transform="translate(631.152344 0.015625)"/>
     <use xlink:href="#DejaVuSans-Oblique-69" transform="translate(690.332031 -16.390625) scale(0.7)"/>
     <use xlink:href="#DejaVuSans-20" transform="translate(712.514648 0.015625)"/>
     <use xlink:href="#DejaVuSans-68" transform="translate(744.301758 0.015625)"/>
     <use xlink:href="#DejaVuSans-6f" transform="translate(807.680664 0.015625)"/>
     <use xlink:href="#DejaVuSans-6c" transform="translate(868.862305 0.015625)"/>
     <use xlink:href="#DejaVuSans-64" transform="translate(896.645508 0.015625)"/>
    </g>
    <!-- past tasks (squared hinge) -->
    <g style="fill: #212529" transform="translate(100.693656 124.649312) scale(0.1 -0.1)">
     <defs>
      <path id="DejaVuSans-28" d="M 1984 4856 
Q 1566 4138 1362 3434 
Q 1159 2731 1159 2009 
Q 1159 1288 1364 580 
Q 1569 -128 1984 -844 
L 1484 -844 
Q 1016 -109 783 600 
Q 550 1309 550 2009 
Q 550 2706 781 3412 
Q 1013 4119 1484 4856 
L 1984 4856 
z
" transform="scale(0.015625)"/>
      <path id="DejaVuSans-71" d="M 947 1747 
Q 947 1113 1208 752 
Q 1469 391 1925 391 
Q 2381 391 2643 752 
Q 2906 1113 2906 1747 
Q 2906 2381 2643 2742 
Q 2381 3103 1925 3103 
Q 1469 3103 1208 2742 
Q 947 2381 947 1747 
z
M 2906 525 
Q 2725 213 2448 61 
Q 2172 -91 1784 -91 
Q 1150 -91 751 415 
Q 353 922 353 1747 
Q 353 2572 751 3078 
Q 1150 3584 1784 3584 
Q 2172 3584 2448 3432 
Q 2725 3281 2906 2969 
L 2906 3500 
L 3481 3500 
L 3481 -1331 
L 2906 -1331 
L 2906 525 
z
" transform="scale(0.015625)"/>
      <path id="DejaVuSans-69" d="M 603 3500 
L 1178 3500 
L 1178 0 
L 603 0 
L 603 3500 
z
M 603 4863 
L 1178 4863 
L 1178 4134 
L 603 4134 
L 603 4863 
z
" transform="scale(0.015625)"/>
      <path id="DejaVuSans-67" d="M 2906 1791 
Q 2906 2416 2648 2759 
Q 2391 3103 1925 3103 
Q 1463 3103 1205 2759 
Q 947 2416 947 1791 
Q 947 1169 1205 825 
Q 1463 481 1925 481 
Q 2391 481 2648 825 
Q 2906 1169 2906 1791 
z
M 3481 434 
Q 3481 -459 3084 -895 
Q 2688 -1331 1869 -1331 
Q 1566 -1331 1297 -1286 
Q 1028 -1241 775 -1147 
L 775 -588 
Q 1028 -725 1275 -790 
Q 1522 -856 1778 -856 
Q 2344 -856 2625 -561 
Q 2906 -266 2906 331 
L 2906 616 
Q 2728 306 2450 153 
Q 2172 0 1784 0 
Q 1141 0 747 490 
Q 353 981 353 1791 
Q 353 2603 747 3093 
Q 1141 3584 1784 3584 
Q 2172 3584 2450 3431 
Q 2728 3278 2906 2969 
L 2906 3500 
L 3481 3500 
L 3481 434 
z
" transform="scale(0.015625)"/>
      <path id="DejaVuSans-29" d="M 513 4856 
L 1013 4856 
Q 1481 4119 1714 3412 
Q 1947 2706 1947 2009 
Q 1947 1309 1714 600 
Q 1481 -109 1013 -844 
L 513 -844 
Q 928 -128 1133 580 
Q 1338 1288 1338 2009 
Q 1338 2731 1133 3434 
Q 928 4138 513 4856 
z
" transform="scale(0.015625)"/>
     </defs>
     <use xlink:href="#DejaVuSans-70"/>
     <use xlink:href="#DejaVuSans-61" x="63.476562"/>
     <use xlink:href="#DejaVuSans-73" x="124.755859"/>
     <use xlink:href="#DejaVuSans-74" x="176.855469"/>
     <use xlink:href="#DejaVuSans-20" x="216.064453"/>
     <use xlink:href="#DejaVuSans-74" x="247.851562"/>
     <use xlink:href="#DejaVuSans-61" x="287.060547"/>
     <use xlink:href="#DejaVuSans-73" x="348.339844"/>
     <use xlink:href="#DejaVuSans-6b" x="400.439453"/>
     <use xlink:href="#DejaVuSans-73" x="458.349609"/>
     <use xlink:href="#DejaVuSans-20" x="510.449219"/>
     <use xlink:href="#DejaVuSans-28" x="542.236328"/>
     <use xlink:href="#DejaVuSans-73" x="581.25"/>
     <use xlink:href="#DejaVuSans-71" x="633.349609"/>
     <use xlink:href="#DejaVuSans-75" x="696.826172"/>
     <use xlink:href="#DejaVuSans-61" x="760.205078"/>
     <use xlink:href="#DejaVuSans-72" x="821.484375"/>
     <use xlink:href="#DejaVuSans-65" x="860.347656"/>
     <use xlink:href="#DejaVuSans-64" x="921.871094"/>
     <use xlink:href="#DejaVuSans-20" x="985.347656"/>
     <use xlink:href="#DejaVuSans-68" x="1017.134766"/>
     <use xlink:href="#DejaVuSans-69" x="1080.513672"/>
     <use xlink:href="#DejaVuSans-6e" x="1108.296875"/>
     <use xlink:href="#DejaVuSans-67" x="1171.675781"/>
     <use xlink:href="#DejaVuSans-65" x="1235.152344"/>
     <use xlink:href="#DejaVuSans-29" x="1296.675781"/>
    </g>
   </g>
   <g id="text_2">
    <!-- GLOBAL  $\pi_\phi$ -->
    <g style="fill: #212529" transform="translate(409.76525 90.474312) scale(0.1 -0.1)">
     <defs>
      <path id="DejaVuSans-47" d="M 3809 666 
L 3809 1919 
L 2778 1919 
L 2778 2438 
L 4434 2438 
L 4434 434 
Q 4069 175 3628 42 
Q 3188 -91 2688 -91 
Q 1594 -91 976 548 
Q 359 1188 359 2328 
Q 359 3472 976 4111 
Q 1594 4750 2688 4750 
Q 3144 4750 3555 4637 
Q 3966 4525 4313 4306 
L 4313 3634 
Q 3963 3931 3569 4081 
Q 3175 4231 2741 4231 
Q 1884 4231 1454 3753 
Q 1025 3275 1025 2328 
Q 1025 1384 1454 906 
Q 1884 428 2741 428 
Q 3075 428 3337 486 
Q 3600 544 3809 666 
z
" transform="scale(0.015625)"/>
      <path id="DejaVuSans-42" d="M 1259 2228 
L 1259 519 
L 2272 519 
Q 2781 519 3026 730 
Q 3272 941 3272 1375 
Q 3272 1813 3026 2020 
Q 2781 2228 2272 2228 
L 1259 2228 
z
M 1259 4147 
L 1259 2741 
L 2194 2741 
Q 2656 2741 2882 2914 
Q 3109 3088 3109 3444 
Q 3109 3797 2882 3972 
Q 2656 4147 2194 4147 
L 1259 4147 
z
M 628 4666 
L 2241 4666 
Q 2963 4666 3353 4366 
Q 3744 4066 3744 3513 
Q 3744 3084 3544 2831 
Q 3344 2578 2956 2516 
Q 3422 2416 3680 2098 
Q 3938 1781 3938 1306 
Q 3938 681 3513 340 
Q 3088 0 2303 0 
L 628 0 
L 628 4666 
z
" transform="scale(0.015625)"/>
      <path id="DejaVuSans-Oblique-3d5" d="M 2991 4863 
L 2738 3572 
Q 3363 3572 3684 3094 
Q 4016 2606 3850 1747 
Q 3681 888 3159 400 
Q 2653 -78 2028 -78 
L 1784 -1331 
L 1213 -1331 
L 1456 -78 
Q 834 -78 509 400 
Q 178 888 347 1747 
Q 513 2606 1034 3094 
Q 1544 3572 2166 3572 
L 2419 4863 
L 2991 4863 
z
M 2128 434 
Q 2481 434 2784 756 
Q 3116 1116 3244 1747 
Q 3369 2372 3169 2738 
Q 2991 3059 2638 3059 
L 2128 434 
z
M 1556 434 
L 2066 3059 
Q 1716 3059 1413 2738 
Q 1072 2372 953 1747 
Q 834 1116 1028 756 
Q 1203 434 1556 434 
z
" transform="scale(0.015625)"/>
     </defs>
     <use xlink:href="#DejaVuSans-47" transform="translate(0 0.78125)"/>
     <use xlink:href="#DejaVuSans-4c" transform="translate(77.490234 0.78125)"/>
     <use xlink:href="#DejaVuSans-4f" transform="translate(133.203125 0.78125)"/>
     <use xlink:href="#DejaVuSans-42" transform="translate(211.914062 0.78125)"/>
     <use xlink:href="#DejaVuSans-41" transform="translate(280.517578 0.78125)"/>
     <use xlink:href="#DejaVuSans-4c" transform="translate(348.925781 0.78125)"/>
     <use xlink:href="#DejaVuSans-20" transform="translate(404.638672 0.78125)"/>
     <use xlink:href="#DejaVuSans-20" transform="translate(436.425781 0.78125)"/>
     <use xlink:href="#DejaVuSans-Oblique-3c0" transform="translate(468.212891 0.78125)"/>
     <use xlink:href="#DejaVuSans-Oblique-3d5" transform="translate(528.417969 -15.625) scale(0.7)"/>
    </g>
    <!-- max past-task lead -->
    <g style="fill: #212529" transform="translate(390.758219 102.692437) scale(0.1 -0.1)">
     <use xlink:href="#DejaVuSans-6d"/>
     <use xlink:href="#DejaVuSans-61" x="97.412109"/>
     <use xlink:href="#DejaVuSans-78" x="158.691406"/>
     <use xlink:href="#DejaVuSans-20" x="217.871094"/>
     <use xlink:href="#DejaVuSans-70" x="249.658203"/>
     <use xlink:href="#DejaVuSans-61" x="313.134766"/>
     <use xlink:href="#DejaVuSans-73" x="374.414062"/>
     <use xlink:href="#DejaVuSans-74" x="426.513672"/>
     <use xlink:href="#DejaVuSans-2d" x="465.722656"/>
     <use xlink:href="#DejaVuSans-74" x="501.806641"/>
     <use xlink:href="#DejaVuSans-61" x="541.015625"/>
     <use xlink:href="#DejaVuSans-73" x="602.294922"/>
     <use xlink:href="#DejaVuSans-6b" x="654.394531"/>
     <use xlink:href="#DejaVuSans-20" x="712.304688"/>
     <use xlink:href="#DejaVuSans-6c" x="744.091797"/>
     <use xlink:href="#DejaVuSans-65" x="771.875"/>
     <use xlink:href="#DejaVuSans-61" x="833.398438"/>
     <use xlink:href="#DejaVuSans-64" x="894.677734"/>
    </g>
    <!-- s.t. $\mu$ holds the -->
    <g style="fill: #212529" transform="translate(401.36525 113.892125) scale(0.1 -0.1)">
     <defs>
      <path id="DejaVuSans-Oblique-3bc" d="M -84 -1331 
L 856 3500 
L 1434 3500 
L 1009 1322 
Q 997 1256 987 1175 
Q 978 1094 978 1013 
Q 978 722 1161 565 
Q 1344 409 1684 409 
Q 2147 409 2431 671 
Q 2716 934 2816 1459 
L 3213 3500 
L 3788 3500 
L 3266 809 
Q 3253 750 3248 706 
Q 3244 663 3244 628 
Q 3244 531 3283 486 
Q 3322 441 3406 441 
Q 3438 441 3492 456 
Q 3547 472 3647 513 
L 3559 50 
Q 3422 -19 3297 -55 
Q 3172 -91 3053 -91 
Q 2847 -91 2730 40 
Q 2613 172 2613 403 
Q 2438 153 2195 31 
Q 1953 -91 1625 -91 
Q 1334 -91 1117 43 
Q 900 178 831 397 
L 494 -1331 
L -84 -1331 
z
" transform="scale(0.015625)"/>
     </defs>
     <use xlink:href="#DejaVuSans-73" transform="translate(0 0.015625)"/>
     <use xlink:href="#DejaVuSans-2e" transform="translate(52.099609 0.015625)"/>
     <use xlink:href="#DejaVuSans-74" transform="translate(83.886719 0.015625)"/>
     <use xlink:href="#DejaVuSans-2e" transform="translate(123.095703 0.015625)"/>
     <use xlink:href="#DejaVuSans-20" transform="translate(154.882812 0.015625)"/>
     <use xlink:href="#DejaVuSans-Oblique-3bc" transform="translate(186.669922 0.015625)"/>
     <use xlink:href="#DejaVuSans-20" transform="translate(250.292969 0.015625)"/>
     <use xlink:href="#DejaVuSans-68" transform="translate(282.080078 0.015625)"/>
     <use xlink:href="#DejaVuSans-6f" transform="translate(345.458984 0.015625)"/>
     <use xlink:href="#DejaVuSans-6c" transform="translate(406.640625 0.015625)"/>
     <use xlink:href="#DejaVuSans-64" transform="translate(434.423828 0.015625)"/>
     <use xlink:href="#DejaVuSans-73" transform="translate(497.900391 0.015625)"/>
     <use xlink:href="#DejaVuSans-20" transform="translate(550 0.015625)"/>
     <use xlink:href="#DejaVuSans-74" transform="translate(581.787109 0.015625)"/>
     <use xlink:href="#DejaVuSans-68" transform="translate(620.996094 0.015625)"/>
     <use xlink:href="#DejaVuSans-65" transform="translate(684.375 0.015625)"/>
    </g>
    <!-- current task -->
    <g style="fill: #212529" transform="translate(408.517594 125.11025) scale(0.1 -0.1)">
     <use xlink:href="#DejaVuSans-63"/>
     <use xlink:href="#DejaVuSans-75" x="54.980469"/>
     <use xlink:href="#DejaVuSans-72" x="118.359375"/>
     <use xlink:href="#DejaVuSans-72" x="157.722656"/>
     <use xlink:href="#DejaVuSans-65" x="196.585938"/>
     <use xlink:href="#DejaVuSans-6e" x="258.109375"/>
     <use xlink:href="#DejaVuSans-74" x="321.488281"/>
     <use xlink:href="#DejaVuSans-20" x="360.697266"/>
     <use xlink:href="#DejaVuSans-74" x="392.484375"/>
     <use xlink:href="#DejaVuSans-61" x="431.693359"/>
     <use xlink:href="#DejaVuSans-73" x="492.972656"/>
     <use xlink:href="#DejaVuSans-6b" x="545.072266"/>
    </g>
   </g>
   <g id="text_3">
    <!-- freeze local, -->
    <g style="fill: #6c757d" transform="translate(277.243203 69.427984) scale(0.085 -0.085)">
     <defs>
      <path id="DejaVuSans-66" d="M 2375 4863 
L 2375 4384 
L 1825 4384 
Q 1516 4384 1395 4259 
Q 1275 4134 1275 3809 
L 1275 3500 
L 2222 3500 
L 2222 3053 
L 1275 3053 
L 1275 0 
L 697 0 
L 697 3053 
L 147 3053 
L 147 3500 
L 697 3500 
L 697 3744 
Q 697 4328 969 4595 
Q 1241 4863 1831 4863 
L 2375 4863 
z
" transform="scale(0.015625)"/>
      <path id="DejaVuSans-7a" d="M 353 3500 
L 3084 3500 
L 3084 2975 
L 922 459 
L 3084 459 
L 3084 0 
L 275 0 
L 275 525 
L 2438 3041 
L 353 3041 
L 353 3500 
z
" transform="scale(0.015625)"/>
      <path id="DejaVuSans-2c" d="M 750 794 
L 1409 794 
L 1409 256 
L 897 -744 
L 494 -744 
L 750 256 
L 750 794 
z
" transform="scale(0.015625)"/>
     </defs>
     <use xlink:href="#DejaVuSans-66"/>
     <use xlink:href="#DejaVuSans-72" x="35.205078"/>
     <use xlink:href="#DejaVuSans-65" x="74.068359"/>
     <use xlink:href="#DejaVuSans-65" x="135.591797"/>
     <use xlink:href="#DejaVuSans-7a" x="197.115234"/>
     <use xlink:href="#DejaVuSans-65" x="249.605469"/>
     <use xlink:href="#DejaVuSans-20" x="311.128906"/>
     <use xlink:href="#DejaVuSans-6c" x="342.916016"/>
     <use xlink:href="#DejaVuSans-6f" x="370.699219"/>
     <use xlink:href="#DejaVuSans-63" x="431.880859"/>
     <use xlink:href="#DejaVuSans-61" x="486.861328"/>
     <use xlink:href="#DejaVuSans-6c" x="548.140625"/>
     <use xlink:href="#DejaVuSans-2c" x="575.923828"/>
    </g>
    <!-- train global -->
    <g style="fill: #6c757d" transform="translate(278.866172 78.946125) scale(0.085 -0.085)">
     <defs>
      <path id="DejaVuSans-62" d="M 3116 1747 
Q 3116 2381 2855 2742 
Q 2594 3103 2138 3103 
Q 1681 3103 1420 2742 
Q 1159 2381 1159 1747 
Q 1159 1113 1420 752 
Q 1681 391 2138 391 
Q 2594 391 2855 752 
Q 3116 1113 3116 1747 
z
M 1159 2969 
Q 1341 3281 1617 3432 
Q 1894 3584 2278 3584 
Q 2916 3584 3314 3078 
Q 3713 2572 3713 1747 
Q 3713 922 3314 415 
Q 2916 -91 2278 -91 
Q 1894 -91 1617 61 
Q 1341 213 1159 525 
L 1159 0 
L 581 0 
L 581 4863 
L 1159 4863 
L 1159 2969 
z
" transform="scale(0.015625)"/>
     </defs>
     <use xlink:href="#DejaVuSans-74"/>
     <use xlink:href="#DejaVuSans-72" x="39.208984"/>
     <use xlink:href="#DejaVuSans-61" x="80.322266"/>
     <use xlink:href="#DejaVuSans-69" x="141.601562"/>
     <use xlink:href="#DejaVuSans-6e" x="169.384766"/>
     <use xlink:href="#DejaVuSans-20" x="232.763672"/>
     <use xlink:href="#DejaVuSans-67" x="264.550781"/>
     <use xlink:href="#DejaVuSans-6c" x="328.027344"/>
     <use xlink:href="#DejaVuSans-6f" x="355.810547"/>
     <use xlink:href="#DejaVuSans-62" x="416.992188"/>
     <use xlink:href="#DejaVuSans-61" x="480.46875"/>
     <use xlink:href="#DejaVuSans-6c" x="541.748047"/>
    </g>
   </g>
   <g id="text_4">
    <!-- freeze global, -->
    <g style="fill: #6c757d" transform="translate(274.183867 141.846391) scale(0.085 -0.085)">
     <use xlink:href="#DejaVuSans-66"/>
     <use xlink:href="#DejaVuSans-72" x="35.205078"/>
     <use xlink:href="#DejaVuSans-65" x="74.068359"/>
     <use xlink:href="#DejaVuSans-65" x="135.591797"/>
     <use xlink:href="#DejaVuSans-7a" x="197.115234"/>
     <use xlink:href="#DejaVuSans-65" x="249.605469"/>
     <use xlink:href="#DejaVuSans-20" x="311.128906"/>
     <use xlink:href="#DejaVuSans-67" x="342.916016"/>
     <use xlink:href="#DejaVuSans-6c" x="406.392578"/>
     <use xlink:href="#DejaVuSans-6f" x="434.175781"/>
     <use xlink:href="#DejaVuSans-62" x="495.357422"/>
     <use xlink:href="#DejaVuSans-61" x="558.833984"/>
     <use xlink:href="#DejaVuSans-6c" x="620.113281"/>
     <use xlink:href="#DejaVuSans-2c" x="647.896484"/>
    </g>
    <!-- train local ($\theta^{(0)}=\phi$) -->
    <g style="fill: #6c757d" transform="translate(261.97375 152.998125) scale(0.085 -0.085)">
     <defs>
      <path id="DejaVuSans-30" d="M 2034 4250 
Q 1547 4250 1301 3770 
Q 1056 3291 1056 2328 
Q 1056 1369 1301 889 
Q 1547 409 2034 409 
Q 2525 409 2770 889 
Q 3016 1369 3016 2328 
Q 3016 3291 2770 3770 
Q 2525 4250 2034 4250 
z
M 2034 4750 
Q 2819 4750 3233 4129 
Q 3647 3509 3647 2328 
Q 3647 1150 3233 529 
Q 2819 -91 2034 -91 
Q 1250 -91 836 529 
Q 422 1150 422 2328 
Q 422 3509 836 4129 
Q 1250 4750 2034 4750 
z
" transform="scale(0.015625)"/>
      <path id="DejaVuSans-3d" d="M 678 2906 
L 4684 2906 
L 4684 2381 
L 678 2381 
L 678 2906 
z
M 678 1631 
L 4684 1631 
L 4684 1100 
L 678 1100 
L 678 1631 
z
" transform="scale(0.015625)"/>
     </defs>
     <use xlink:href="#DejaVuSans-74" transform="translate(0 0.60625)"/>
     <use xlink:href="#DejaVuSans-72" transform="translate(39.208984 0.60625)"/>
     <use xlink:href="#DejaVuSans-61" transform="translate(80.322266 0.60625)"/>
     <use xlink:href="#DejaVuSans-69" transform="translate(141.601562 0.60625)"/>
     <use xlink:href="#DejaVuSans-6e" transform="translate(169.384766 0.60625)"/>
     <use xlink:href="#DejaVuSans-20" transform="translate(232.763672 0.60625)"/>
     <use xlink:href="#DejaVuSans-6c" transform="translate(264.550781 0.60625)"/>
     <use xlink:href="#DejaVuSans-6f" transform="translate(292.333984 0.60625)"/>
     <use xlink:href="#DejaVuSans-63" transform="translate(353.515625 0.60625)"/>
     <use xlink:href="#DejaVuSans-61" transform="translate(408.496094 0.60625)"/>
     <use xlink:href="#DejaVuSans-6c" transform="translate(469.775391 0.60625)"/>
     <use xlink:href="#DejaVuSans-20" transform="translate(497.558594 0.60625)"/>
     <use xlink:href="#DejaVuSans-28" transform="translate(529.345703 0.60625)"/>
     <use xlink:href="#DejaVuSans-Oblique-3b8" transform="translate(568.359375 0.60625)"/>
     <use xlink:href="#DejaVuSans-28" transform="translate(637.098099 38.8875) scale(0.7)"/>
     <use xlink:href="#DejaVuSans-30" transform="translate(664.407669 38.8875) scale(0.7)"/>
     <use xlink:href="#DejaVuSans-29" transform="translate(708.943802 38.8875) scale(0.7)"/>
     <use xlink:href="#DejaVuSans-3d" transform="translate(758.470169 0.60625)"/>
     <use xlink:href="#DejaVuSans-Oblique-3d5" transform="translate(861.741654 0.60625)"/>
     <use xlink:href="#DejaVuSans-29" transform="translate(927.708451 0.60625)"/>
    </g>
   </g>
   <g id="text_5">
    <!-- one-sided squared constraint -->
    <g style="fill: #212529" transform="translate(229.980625 197.341469) scale(0.1 -0.1)">
     <use xlink:href="#DejaVuSans-6f"/>
     <use xlink:href="#DejaVuSans-6e" x="61.181641"/>
     <use xlink:href="#DejaVuSans-65" x="124.560547"/>
     <use xlink:href="#DejaVuSans-2d" x="186.083984"/>
     <use xlink:href="#DejaVuSans-73" x="222.167969"/>
     <use xlink:href="#DejaVuSans-69" x="274.267578"/>
     <use xlink:href="#DejaVuSans-64" x="302.050781"/>
     <use xlink:href="#DejaVuSans-65" x="365.527344"/>
     <use xlink:href="#DejaVuSans-64" x="427.050781"/>
     <use xlink:href="#DejaVuSans-20" x="490.527344"/>
     <use xlink:href="#DejaVuSans-73" x="522.314453"/>
     <use xlink:href="#DejaVuSans-71" x="574.414062"/>
     <use xlink:href="#DejaVuSans-75" x="637.890625"/>
     <use xlink:href="#DejaVuSans-61" x="701.269531"/>
     <use xlink:href="#DejaVuSans-72" x="762.548828"/>
     <use xlink:href="#DejaVuSans-65" x="801.412109"/>
     <use xlink:href="#DejaVuSans-64" x="862.935547"/>
     <use xlink:href="#DejaVuSans-20" x="926.412109"/>
     <use xlink:href="#DejaVuSans-63" x="958.199219"/>
     <use xlink:href="#DejaVuSans-6f" x="1013.179688"/>
     <use xlink:href="#DejaVuSans-6e" x="1074.361328"/>
     <use xlink:href="#DejaVuSans-73" x="1137.740234"/>
     <use xlink:href="#DejaVuSans-74" x="1189.839844"/>
     <use xlink:href="#DejaVuSans-72" x="1229.048828"/>
     <use xlink:href="#DejaVuSans-61" x="1270.162109"/>
     <use xlink:href="#DejaVuSans-69" x="1331.441406"/>
     <use xlink:href="#DejaVuSans-6e" x="1359.224609"/>
     <use xlink:href="#DejaVuSans-74" x="1422.603516"/>
    </g>
    <!-- $F=\max(0, V_{ref}-V)^2 \leq \epsilon$ -->
    <g style="fill: #212529" transform="translate(244.32125 210.005531) scale(0.1 -0.1)">
     <defs>
      <path id="DejaVuSans-Oblique-46" d="M 1081 4666 
L 3756 4666 
L 3653 4134 
L 1606 4134 
L 1338 2759 
L 3188 2759 
L 3084 2228 
L 1234 2228 
L 800 0 
L 172 0 
L 1081 4666 
z
" transform="scale(0.015625)"/>
      <path id="DejaVuSans-Oblique-56" d="M 1319 0 
L 500 4666 
L 1119 4666 
L 1797 653 
L 4063 4666 
L 4750 4666 
L 2053 0 
L 1319 0 
z
" transform="scale(0.015625)"/>
      <path id="DejaVuSans-Oblique-72" d="M 2853 2969 
Q 2766 3016 2653 3041 
Q 2541 3066 2413 3066 
Q 1953 3066 1609 2717 
Q 1266 2369 1153 1784 
L 800 0 
L 225 0 
L 909 3500 
L 1484 3500 
L 1375 2956 
Q 1603 3259 1920 3421 
Q 2238 3584 2597 3584 
Q 2691 3584 2781 3573 
Q 2872 3563 2963 3538 
L 2853 2969 
z
" transform="scale(0.015625)"/>
      <path id="DejaVuSans-Oblique-65" d="M 3078 2063 
Q 3088 2113 3092 2166 
Q 3097 2219 3097 2272 
Q 3097 2653 2873 2875 
Q 2650 3097 2266 3097 
Q 1838 3097 1509 2826 
Q 1181 2556 1013 2059 
L 3078 2063 
z
M 3578 1613 
L 903 1613 
Q 884 1494 878 1425 
Q 872 1356 872 1306 
Q 872 872 1139 634 
Q 1406 397 1894 397 
Q 2269 397 2603 481 
Q 2938 566 3225 728 
L 3116 159 
Q 2806 34 2476 -28 
Q 2147 -91 1806 -91 
Q 1078 -91 686 257 
Q 294 606 294 1247 
Q 294 1794 489 2264 
Q 684 2734 1063 3103 
Q 1306 3334 1642 3459 
Q 1978 3584 2356 3584 
Q 2950 3584 3301 3228 
Q 3653 2872 3653 2272 
Q 3653 2128 3634 1964 
Q 3616 1800 3578 1613 
z
" transform="scale(0.015625)"/>
      <path id="DejaVuSans-Oblique-66" d="M 3059 4863 
L 2969 4384 
L 2419 4384 
Q 2106 4384 1964 4261 
Q 1822 4138 1753 3809 
L 1691 3500 
L 2638 3500 
L 2553 3053 
L 1606 3053 
L 1013 0 
L 434 0 
L 1031 3053 
L 481 3053 
L 563 3500 
L 1113 3500 
L 1159 3744 
Q 1278 4363 1576 4613 
Q 1875 4863 2516 4863 
L 3059 4863 
z
" transform="scale(0.015625)"/>
      <path id="DejaVuSans-2212" d="M 678 2272 
L 4684 2272 
L 4684 1741 
L 678 1741 
L 678 2272 
z
" transform="scale(0.015625)"/>
      <path id="DejaVuSans-32" d="M 1228 531 
L 3431 531 
L 3431 0 
L 469 0 
L 469 531 
Q 828 903 1448 1529 
Q 2069 2156 2228 2338 
Q 2531 2678 2651 2914 
Q 2772 3150 2772 3378 
Q 2772 3750 2511 3984 
Q 2250 4219 1831 4219 
Q 1534 4219 1204 4116 
Q 875 4013 500 3803 
L 500 4441 
Q 881 4594 1212 4672 
Q 1544 4750 1819 4750 
Q 2544 4750 2975 4387 
Q 3406 4025 3406 3419 
Q 3406 3131 3298 2873 
Q 3191 2616 2906 2266 
Q 2828 2175 2409 1742 
Q 1991 1309 1228 531 
z
" transform="scale(0.015625)"/>
      <path id="DejaVuSans-2264" d="M 4684 3175 
L 1684 2309 
L 4684 1453 
L 4684 897 
L 678 2047 
L 678 2578 
L 4684 3725 
L 4684 3175 
z
M 678 531 
L 4684 531 
L 4684 0 
L 678 0 
L 678 531 
z
" transform="scale(0.015625)"/>
      <path id="DejaVuSans-Oblique-3b5" d="M 1263 1888 
Q 925 1963 778 2166 
Q 669 2309 669 2503 
Q 669 3034 1175 3344 
Q 1575 3588 2188 3588 
Q 2425 3588 2684 3550 
Q 2944 3513 3234 3438 
L 3134 2916 
Q 2847 3006 2606 3047 
Q 2359 3088 2138 3088 
Q 1766 3088 1522 2944 
Q 1228 2772 1228 2522 
Q 1228 2356 1381 2241 
Q 1563 2103 1925 2103 
L 2409 2103 
L 2319 1628 
L 1856 1628 
Q 1425 1628 1172 1469 
Q 828 1253 828 916 
Q 828 703 1013 563 
Q 1244 388 1716 388 
Q 2006 388 2284 444 
Q 2563 503 2806 619 
L 2700 84 
Q 2403 -3 2131 -47 
Q 1859 -91 1609 -91 
Q 866 -91 516 194 
Q 250 413 250 781 
Q 250 1278 600 1584 
Q 859 1813 1263 1888 
z
" transform="scale(0.015625)"/>
     </defs>
     <use xlink:href="#DejaVuSans-Oblique-46" transform="translate(0 0.765625)"/>
     <use xlink:href="#DejaVuSans-3d" transform="translate(77.001953 0.765625)"/>
     <use xlink:href="#DejaVuSans-6d" transform="translate(180.273438 0.765625)"/>
     <use xlink:href="#DejaVuSans-61" transform="translate(277.685547 0.765625)"/>
     <use xlink:href="#DejaVuSans-78" transform="translate(338.964844 0.765625)"/>
     <use xlink:href="#DejaVuSans-28" transform="translate(398.144531 0.765625)"/>
     <use xlink:href="#DejaVuSans-30" transform="translate(437.158203 0.765625)"/>
     <use xlink:href="#DejaVuSans-2c" transform="translate(500.78125 0.765625)"/>
     <use xlink:href="#DejaVuSans-Oblique-56" transform="translate(552.050781 0.765625)"/>
     <use xlink:href="#DejaVuSans-Oblique-72" transform="translate(620.458984 -15.640625) scale(0.7)"/>
     <use xlink:href="#DejaVuSans-Oblique-65" transform="translate(649.238281 -15.640625) scale(0.7)"/>
     <use xlink:href="#DejaVuSans-Oblique-66" transform="translate(692.304688 -15.640625) scale(0.7)"/>
     <use xlink:href="#DejaVuSans-2212" transform="translate(739.165039 0.765625)"/>
     <use xlink:href="#DejaVuSans-Oblique-56" transform="translate(842.436523 0.765625)"/>
     <use xlink:href="#DejaVuSans-29" transform="translate(910.844727 0.765625)"/>
     <use xlink:href="#DejaVuSans-32" transform="translate(950.81543 39.046875) scale(0.7)"/>
     <use xlink:href="#DejaVuSans-2264" transform="translate(1017.568359 0.765625)"/>
     <use xlink:href="#DejaVuSans-Oblique-3b5" transform="translate(1120.839844 0.765625)"/>
    </g>
   </g>
   <g id="text_6">
    <!-- deploy GLOBAL $\pi_\phi$ -->
    <g style="fill: #212529" transform="translate(257.37125 275.973219) scale(0.1 -0.1)">
     <defs>
      <path id="DejaVuSans-79" d="M 2059 -325 
Q 1816 -950 1584 -1140 
Q 1353 -1331 966 -1331 
L 506 -1331 
L 506 -850 
L 844 -850 
Q 1081 -850 1212 -737 
Q 1344 -625 1503 -206 
L 1606 56 
L 191 3500 
L 800 3500 
L 1894 763 
L 2988 3500 
L 3597 3500 
L 2059 -325 
z
" transform="scale(0.015625)"/>
     </defs>
     <use xlink:href="#DejaVuSans-64" transform="translate(0 0.015625)"/>
     <use xlink:href="#DejaVuSans-65" transform="translate(63.476562 0.015625)"/>
     <use xlink:href="#DejaVuSans-70" transform="translate(125 0.015625)"/>
     <use xlink:href="#DejaVuSans-6c" transform="translate(188.476562 0.015625)"/>
     <use xlink:href="#DejaVuSans-6f" transform="translate(216.259766 0.015625)"/>
     <use xlink:href="#DejaVuSans-79" transform="translate(277.441406 0.015625)"/>
     <use xlink:href="#DejaVuSans-20" transform="translate(336.621094 0.015625)"/>
     <use xlink:href="#DejaVuSans-47" transform="translate(368.408203 0.015625)"/>
     <use xlink:href="#DejaVuSans-4c" transform="translate(445.898438 0.015625)"/>
     <use xlink:href="#DejaVuSans-4f" transform="translate(501.611328 0.015625)"/>
     <use xlink:href="#DejaVuSans-42" transform="translate(580.322266 0.015625)"/>
     <use xlink:href="#DejaVuSans-41" transform="translate(648.925781 0.015625)"/>
     <use xlink:href="#DejaVuSans-4c" transform="translate(717.333984 0.015625)"/>
     <use xlink:href="#DejaVuSans-20" transform="translate(773.046875 0.015625)"/>
     <use xlink:href="#DejaVuSans-Oblique-3c0" transform="translate(804.833984 0.015625)"/>
     <use xlink:href="#DejaVuSans-Oblique-3d5" transform="translate(865.039062 -16.390625) scale(0.7)"/>
    </g>
    <!-- (consolidates all tasks) -->
    <g style="fill: #212529" transform="translate(245.72125 288.191344) scale(0.1 -0.1)">
     <use xlink:href="#DejaVuSans-28"/>
     <use xlink:href="#DejaVuSans-63" x="39.013672"/>
     <use xlink:href="#DejaVuSans-6f" x="93.994141"/>
     <use xlink:href="#DejaVuSans-6e" x="155.175781"/>
     <use xlink:href="#DejaVuSans-73" x="218.554688"/>
     <use xlink:href="#DejaVuSans-6f" x="270.654297"/>
     <use xlink:href="#DejaVuSans-6c" x="331.835938"/>
     <use xlink:href="#DejaVuSans-69" x="359.619141"/>
     <use xlink:href="#DejaVuSans-64" x="387.402344"/>
     <use xlink:href="#DejaVuSans-61" x="450.878906"/>
     <use xlink:href="#DejaVuSans-74" x="512.158203"/>
     <use xlink:href="#DejaVuSans-65" x="551.367188"/>
     <use xlink:href="#DejaVuSans-73" x="612.890625"/>
     <use xlink:href="#DejaVuSans-20" x="664.990234"/>
     <use xlink:href="#DejaVuSans-61" x="696.777344"/>
     <use xlink:href="#DejaVuSans-6c" x="758.056641"/>
     <use xlink:href="#DejaVuSans-6c" x="785.839844"/>
     <use xlink:href="#DejaVuSans-20" x="813.623047"/>
     <use xlink:href="#DejaVuSans-74" x="845.410156"/>
     <use xlink:href="#DejaVuSans-61" x="884.619141"/>
     <use xlink:href="#DejaVuSans-73" x="945.898438"/>
     <use xlink:href="#DejaVuSans-6b" x="997.998047"/>
     <use xlink:href="#DejaVuSans-73" x="1055.908203"/>
     <use xlink:href="#DejaVuSans-29" x="1108.007812"/>
    </g>
   </g>
   <g id="text_7">
    <!-- Method: alternating local/global primal-dual updates under a min-max value constraint -->
    <g style="fill: #212529" transform="translate(7.2 16.318125) scale(0.12 -0.12)">
     <defs>
      <path id="DejaVuSans-Bold-4d" d="M 588 4666 
L 2119 4666 
L 3181 2169 
L 4250 4666 
L 5778 4666 
L 5778 0 
L 4641 0 
L 4641 3413 
L 3566 897 
L 2803 897 
L 1728 3413 
L 1728 0 
L 588 0 
L 588 4666 
z
" transform="scale(0.015625)"/>
      <path id="DejaVuSans-Bold-65" d="M 4031 1759 
L 4031 1441 
L 1416 1441 
Q 1456 1047 1700 850 
Q 1944 653 2381 653 
Q 2734 653 3104 758 
Q 3475 863 3866 1075 
L 3866 213 
Q 3469 63 3072 -14 
Q 2675 -91 2278 -91 
Q 1328 -91 801 392 
Q 275 875 275 1747 
Q 275 2603 792 3093 
Q 1309 3584 2216 3584 
Q 3041 3584 3536 3087 
Q 4031 2591 4031 1759 
z
M 2881 2131 
Q 2881 2450 2695 2645 
Q 2509 2841 2209 2841 
Q 1884 2841 1681 2658 
Q 1478 2475 1428 2131 
L 2881 2131 
z
" transform="scale(0.015625)"/>
      <path id="DejaVuSans-Bold-74" d="M 1759 4494 
L 1759 3500 
L 2913 3500 
L 2913 2700 
L 1759 2700 
L 1759 1216 
Q 1759 972 1856 886 
Q 1953 800 2241 800 
L 2816 800 
L 2816 0 
L 1856 0 
Q 1194 0 917 276 
Q 641 553 641 1216 
L 641 2700 
L 84 2700 
L 84 3500 
L 641 3500 
L 641 4494 
L 1759 4494 
z
" transform="scale(0.015625)"/>
      <path id="DejaVuSans-Bold-68" d="M 4056 2131 
L 4056 0 
L 2931 0 
L 2931 347 
L 2931 1625 
Q 2931 2084 2911 2256 
Q 2891 2428 2841 2509 
Q 2775 2619 2662 2680 
Q 2550 2741 2406 2741 
Q 2056 2741 1856 2470 
Q 1656 2200 1656 1722 
L 1656 0 
L 538 0 
L 538 4863 
L 1656 4863 
L 1656 2988 
Q 1909 3294 2193 3439 
Q 2478 3584 2822 3584 
Q 3428 3584 3742 3212 
Q 4056 2841 4056 2131 
z
" transform="scale(0.015625)"/>
      <path id="DejaVuSans-Bold-6f" d="M 2203 2784 
Q 1831 2784 1636 2517 
Q 1441 2250 1441 1747 
Q 1441 1244 1636 976 
Q 1831 709 2203 709 
Q 2569 709 2762 976 
Q 2956 1244 2956 1747 
Q 2956 2250 2762 2517 
Q 2569 2784 2203 2784 
z
M 2203 3584 
Q 3106 3584 3614 3096 
Q 4122 2609 4122 1747 
Q 4122 884 3614 396 
Q 3106 -91 2203 -91 
Q 1297 -91 786 396 
Q 275 884 275 1747 
Q 275 2609 786 3096 
Q 1297 3584 2203 3584 
z
" transform="scale(0.015625)"/>
      <path id="DejaVuSans-Bold-64" d="M 2919 2988 
L 2919 4863 
L 4044 4863 
L 4044 0 
L 2919 0 
L 2919 506 
Q 2688 197 2409 53 
Q 2131 -91 1766 -91 
Q 1119 -91 703 423 
Q 288 938 288 1747 
Q 288 2556 703 3070 
Q 1119 3584 1766 3584 
Q 2128 3584 2408 3439 
Q 2688 3294 2919 2988 
z
M 2181 722 
Q 2541 722 2730 984 
Q 2919 1247 2919 1747 
Q 2919 2247 2730 2509 
Q 2541 2772 2181 2772 
Q 1825 2772 1636 2509 
Q 1447 2247 1447 1747 
Q 1447 1247 1636 984 
Q 1825 722 2181 722 
z
" transform="scale(0.015625)"/>
      <path id="DejaVuSans-Bold-3a" d="M 716 3500 
L 1844 3500 
L 1844 2291 
L 716 2291 
L 716 3500 
z
M 716 1209 
L 1844 1209 
L 1844 0 
L 716 0 
L 716 1209 
z
" transform="scale(0.015625)"/>
      <path id="DejaVuSans-Bold-20" transform="scale(0.015625)"/>
      <path id="DejaVuSans-Bold-61" d="M 2106 1575 
Q 1756 1575 1579 1456 
Q 1403 1338 1403 1106 
Q 1403 894 1545 773 
Q 1688 653 1941 653 
Q 2256 653 2472 879 
Q 2688 1106 2688 1447 
L 2688 1575 
L 2106 1575 
z
M 3816 1997 
L 3816 0 
L 2688 0 
L 2688 519 
Q 2463 200 2181 54 
Q 1900 -91 1497 -91 
Q 953 -91 614 226 
Q 275 544 275 1050 
Q 275 1666 698 1953 
Q 1122 2241 2028 2241 
L 2688 2241 
L 2688 2328 
Q 2688 2594 2478 2717 
Q 2269 2841 1825 2841 
Q 1466 2841 1156 2769 
Q 847 2697 581 2553 
L 581 3406 
Q 941 3494 1303 3539 
Q 1666 3584 2028 3584 
Q 2975 3584 3395 3211 
Q 3816 2838 3816 1997 
z
" transform="scale(0.015625)"/>
      <path id="DejaVuSans-Bold-6c" d="M 538 4863 
L 1656 4863 
L 1656 0 
L 538 0 
L 538 4863 
z
" transform="scale(0.015625)"/>
      <path id="DejaVuSans-Bold-72" d="M 3138 2547 
Q 2991 2616 2845 2648 
Q 2700 2681 2553 2681 
Q 2122 2681 1889 2404 
Q 1656 2128 1656 1613 
L 1656 0 
L 538 0 
L 538 3500 
L 1656 3500 
L 1656 2925 
Q 1872 3269 2151 3426 
Q 2431 3584 2822 3584 
Q 2878 3584 2943 3579 
Q 3009 3575 3134 3559 
L 3138 2547 
z
" transform="scale(0.015625)"/>
      <path id="DejaVuSans-Bold-6e" d="M 4056 2131 
L 4056 0 
L 2931 0 
L 2931 347 
L 2931 1631 
Q 2931 2084 2911 2256 
Q 2891 2428 2841 2509 
Q 2775 2619 2662 2680 
Q 2550 2741 2406 2741 
Q 2056 2741 1856 2470 
Q 1656 2200 1656 1722 
L 1656 0 
L 538 0 
L 538 3500 
L 1656 3500 
L 1656 2988 
Q 1909 3294 2193 3439 
Q 2478 3584 2822 3584 
Q 3428 3584 3742 3212 
Q 4056 2841 4056 2131 
z
" transform="scale(0.015625)"/>
      <path id="DejaVuSans-Bold-69" d="M 538 3500 
L 1656 3500 
L 1656 0 
L 538 0 
L 538 3500 
z
M 538 4863 
L 1656 4863 
L 1656 3950 
L 538 3950 
L 538 4863 
z
" transform="scale(0.015625)"/>
      <path id="DejaVuSans-Bold-67" d="M 2919 594 
Q 2688 288 2409 144 
Q 2131 0 1766 0 
Q 1125 0 706 504 
Q 288 1009 288 1791 
Q 288 2575 706 3076 
Q 1125 3578 1766 3578 
Q 2131 3578 2409 3434 
Q 2688 3291 2919 2981 
L 2919 3500 
L 4044 3500 
L 4044 353 
Q 4044 -491 3511 -936 
Q 2978 -1381 1966 -1381 
Q 1638 -1381 1331 -1331 
Q 1025 -1281 716 -1178 
L 716 -306 
Q 1009 -475 1290 -558 
Q 1572 -641 1856 -641 
Q 2406 -641 2662 -400 
Q 2919 -159 2919 353 
L 2919 594 
z
M 2181 2772 
Q 1834 2772 1640 2515 
Q 1447 2259 1447 1791 
Q 1447 1309 1634 1061 
Q 1822 813 2181 813 
Q 2531 813 2725 1069 
Q 2919 1325 2919 1791 
Q 2919 2259 2725 2515 
Q 2531 2772 2181 2772 
z
" transform="scale(0.015625)"/>
      <path id="DejaVuSans-Bold-63" d="M 3366 3391 
L 3366 2478 
Q 3138 2634 2908 2709 
Q 2678 2784 2431 2784 
Q 1963 2784 1702 2511 
Q 1441 2238 1441 1747 
Q 1441 1256 1702 982 
Q 1963 709 2431 709 
Q 2694 709 2930 787 
Q 3166 866 3366 1019 
L 3366 103 
Q 3103 6 2833 -42 
Q 2563 -91 2291 -91 
Q 1344 -91 809 395 
Q 275 881 275 1747 
Q 275 2613 809 3098 
Q 1344 3584 2291 3584 
Q 2566 3584 2833 3536 
Q 3100 3488 3366 3391 
z
" transform="scale(0.015625)"/>
      <path id="DejaVuSans-Bold-2f" d="M 1644 4666 
L 2338 4666 
L 691 -594 
L 0 -594 
L 1644 4666 
z
" transform="scale(0.015625)"/>
      <path id="DejaVuSans-Bold-62" d="M 2400 722 
Q 2759 722 2948 984 
Q 3138 1247 3138 1747 
Q 3138 2247 2948 2509 
Q 2759 2772 2400 2772 
Q 2041 2772 1848 2508 
Q 1656 2244 1656 1747 
Q 1656 1250 1848 986 
Q 2041 722 2400 722 
z
M 1656 2988 
Q 1888 3294 2169 3439 
Q 2450 3584 2816 3584 
Q 3463 3584 3878 3070 
Q 4294 2556 4294 1747 
Q 4294 938 3878 423 
Q 3463 -91 2816 -91 
Q 2450 -91 2169 54 
Q 1888 200 1656 506 
L 1656 0 
L 538 0 
L 538 4863 
L 1656 4863 
L 1656 2988 
z
" transform="scale(0.015625)"/>
      <path id="DejaVuSans-Bold-70" d="M 1656 506 
L 1656 -1331 
L 538 -1331 
L 538 3500 
L 1656 3500 
L 1656 2988 
Q 1888 3294 2169 3439 
Q 2450 3584 2816 3584 
Q 3463 3584 3878 3070 
Q 4294 2556 4294 1747 
Q 4294 938 3878 423 
Q 3463 -91 2816 -91 
Q 2450 -91 2169 54 
Q 1888 200 1656 506 
z
M 2400 2772 
Q 2041 2772 1848 2508 
Q 1656 2244 1656 1747 
Q 1656 1250 1848 986 
Q 2041 722 2400 722 
Q 2759 722 2948 984 
Q 3138 1247 3138 1747 
Q 3138 2247 2948 2509 
Q 2759 2772 2400 2772 
z
" transform="scale(0.015625)"/>
      <path id="DejaVuSans-Bold-6d" d="M 3781 2919 
Q 3994 3244 4286 3414 
Q 4578 3584 4928 3584 
Q 5531 3584 5847 3212 
Q 6163 2841 6163 2131 
L 6163 0 
L 5038 0 
L 5038 1825 
Q 5041 1866 5042 1909 
Q 5044 1953 5044 2034 
Q 5044 2406 4934 2573 
Q 4825 2741 4581 2741 
Q 4263 2741 4089 2478 
Q 3916 2216 3909 1719 
L 3909 0 
L 2784 0 
L 2784 1825 
Q 2784 2406 2684 2573 
Q 2584 2741 2328 2741 
Q 2006 2741 1831 2477 
Q 1656 2213 1656 1722 
L 1656 0 
L 531 0 
L 531 3500 
L 1656 3500 
L 1656 2988 
Q 1863 3284 2130 3434 
Q 2397 3584 2719 3584 
Q 3081 3584 3359 3409 
Q 3638 3234 3781 2919 
z
" transform="scale(0.015625)"/>
      <path id="DejaVuSans-Bold-2d" d="M 347 2297 
L 2309 2297 
L 2309 1388 
L 347 1388 
L 347 2297 
z
" transform="scale(0.015625)"/>
      <path id="DejaVuSans-Bold-75" d="M 500 1363 
L 500 3500 
L 1625 3500 
L 1625 3150 
Q 1625 2866 1622 2436 
Q 1619 2006 1619 1863 
Q 1619 1441 1641 1255 
Q 1663 1069 1716 984 
Q 1784 875 1895 815 
Q 2006 756 2150 756 
Q 2500 756 2700 1025 
Q 2900 1294 2900 1772 
L 2900 3500 
L 4019 3500 
L 4019 0 
L 2900 0 
L 2900 506 
Q 2647 200 2364 54 
Q 2081 -91 1741 -91 
Q 1134 -91 817 281 
Q 500 653 500 1363 
z
" transform="scale(0.015625)"/>
      <path id="DejaVuSans-Bold-73" d="M 3272 3391 
L 3272 2541 
Q 2913 2691 2578 2766 
Q 2244 2841 1947 2841 
Q 1628 2841 1473 2761 
Q 1319 2681 1319 2516 
Q 1319 2381 1436 2309 
Q 1553 2238 1856 2203 
L 2053 2175 
Q 2913 2066 3209 1816 
Q 3506 1566 3506 1031 
Q 3506 472 3093 190 
Q 2681 -91 1863 -91 
Q 1516 -91 1145 -36 
Q 775 19 384 128 
L 384 978 
Q 719 816 1070 734 
Q 1422 653 1784 653 
Q 2113 653 2278 743 
Q 2444 834 2444 1013 
Q 2444 1163 2330 1236 
Q 2216 1309 1875 1350 
L 1678 1375 
Q 931 1469 631 1722 
Q 331 1975 331 2491 
Q 331 3047 712 3315 
Q 1094 3584 1881 3584 
Q 2191 3584 2531 3537 
Q 2872 3491 3272 3391 
z
" transform="scale(0.015625)"/>
      <path id="DejaVuSans-Bold-78" d="M 1422 1791 
L 159 3500 
L 1344 3500 
L 2059 2463 
L 2784 3500 
L 3969 3500 
L 2706 1797 
L 4031 0 
L 2847 0 
L 2059 1106 
L 1281 0 
L 97 0 
L 1422 1791 
z
" transform="scale(0.015625)"/>
      <path id="DejaVuSans-Bold-76" d="M 97 3500 
L 1216 3500 
L 2088 1081 
L 2956 3500 
L 4078 3500 
L 2700 0 
L 1472 0 
L 97 3500 
z
" transform="scale(0.015625)"/>
     </defs>
     <use xlink:href="#DejaVuSans-Bold-4d"/>
     <use xlink:href="#DejaVuSans-Bold-65" x="99.511719"/>
     <use xlink:href="#DejaVuSans-Bold-74" x="167.333984"/>
     <use xlink:href="#DejaVuSans-Bold-68" x="215.136719"/>
     <use xlink:href="#DejaVuSans-Bold-6f" x="286.328125"/>
     <use xlink:href="#DejaVuSans-Bold-64" x="355.029297"/>
     <use xlink:href="#DejaVuSans-Bold-3a" x="426.611328"/>
     <use xlink:href="#DejaVuSans-Bold-20" x="466.601562"/>
     <use xlink:href="#DejaVuSans-Bold-61" x="501.416016"/>
     <use xlink:href="#DejaVuSans-Bold-6c" x="568.896484"/>
     <use xlink:href="#DejaVuSans-Bold-74" x="603.173828"/>
     <use xlink:href="#DejaVuSans-Bold-65" x="650.976562"/>
     <use xlink:href="#DejaVuSans-Bold-72" x="718.798828"/>
     <use xlink:href="#DejaVuSans-Bold-6e" x="768.115234"/>
     <use xlink:href="#DejaVuSans-Bold-61" x="839.306641"/>
     <use xlink:href="#DejaVuSans-Bold-74" x="906.787109"/>
     <use xlink:href="#DejaVuSans-Bold-69" x="954.589844"/>
     <use xlink:href="#DejaVuSans-Bold-6e" x="988.867188"/>
     <use xlink:href="#DejaVuSans-Bold-67" x="1060.058594"/>
     <use xlink:href="#DejaVuSans-Bold-20" x="1131.640625"/>
     <use xlink:href="#DejaVuSans-Bold-6c" x="1166.455078"/>
     <use xlink:href="#DejaVuSans-Bold-6f" x="1200.732422"/>
     <use xlink:href="#DejaVuSans-Bold-63" x="1269.433594"/>
     <use xlink:href="#DejaVuSans-Bold-61" x="1328.710938"/>
     <use xlink:href="#DejaVuSans-Bold-6c" x="1396.191406"/>
     <use xlink:href="#DejaVuSans-Bold-2f" x="1430.46875"/>
     <use xlink:href="#DejaVuSans-Bold-67" x="1466.992188"/>
     <use xlink:href="#DejaVuSans-Bold-6c" x="1538.574219"/>
     <use xlink:href="#DejaVuSans-Bold-6f" x="1572.851562"/>
     <use xlink:href="#DejaVuSans-Bold-62" x="1641.552734"/>
     <use xlink:href="#DejaVuSans-Bold-61" x="1713.134766"/>
     <use xlink:href="#DejaVuSans-Bold-6c" x="1780.615234"/>
     <use xlink:href="#DejaVuSans-Bold-20" x="1814.892578"/>
     <use xlink:href="#DejaVuSans-Bold-70" x="1849.707031"/>
     <use xlink:href="#DejaVuSans-Bold-72" x="1921.289062"/>
     <use xlink:href="#DejaVuSans-Bold-69" x="1970.605469"/>
     <use xlink:href="#DejaVuSans-Bold-6d" x="2004.882812"/>
     <use xlink:href="#DejaVuSans-Bold-61" x="2109.082031"/>
     <use xlink:href="#DejaVuSans-Bold-6c" x="2176.5625"/>
     <use xlink:href="#DejaVuSans-Bold-2d" x="2210.839844"/>
     <use xlink:href="#DejaVuSans-Bold-64" x="2252.34375"/>
     <use xlink:href="#DejaVuSans-Bold-75" x="2323.925781"/>
     <use xlink:href="#DejaVuSans-Bold-61" x="2395.117188"/>
     <use xlink:href="#DejaVuSans-Bold-6c" x="2462.597656"/>
     <use xlink:href="#DejaVuSans-Bold-20" x="2496.875"/>
     <use xlink:href="#DejaVuSans-Bold-75" x="2531.689453"/>
     <use xlink:href="#DejaVuSans-Bold-70" x="2602.880859"/>
     <use xlink:href="#DejaVuSans-Bold-64" x="2674.462891"/>
     <use xlink:href="#DejaVuSans-Bold-61" x="2746.044922"/>
     <use xlink:href="#DejaVuSans-Bold-74" x="2813.525391"/>
     <use xlink:href="#DejaVuSans-Bold-65" x="2861.328125"/>
     <use xlink:href="#DejaVuSans-Bold-73" x="2929.150391"/>
     <use xlink:href="#DejaVuSans-Bold-20" x="2988.671875"/>
     <use xlink:href="#DejaVuSans-Bold-75" x="3023.486328"/>
     <use xlink:href="#DejaVuSans-Bold-6e" x="3094.677734"/>
     <use xlink:href="#DejaVuSans-Bold-64" x="3165.869141"/>
     <use xlink:href="#DejaVuSans-Bold-65" x="3237.451172"/>
     <use xlink:href="#DejaVuSans-Bold-72" x="3305.273438"/>
     <use xlink:href="#DejaVuSans-Bold-20" x="3354.589844"/>
     <use xlink:href="#DejaVuSans-Bold-61" x="3389.404297"/>
     <use xlink:href="#DejaVuSans-Bold-20" x="3456.884766"/>
     <use xlink:href="#DejaVuSans-Bold-6d" x="3491.699219"/>
     <use xlink:href="#DejaVuSans-Bold-69" x="3595.898438"/>
     <use xlink:href="#DejaVuSans-Bold-6e" x="3630.175781"/>
     <use xlink:href="#DejaVuSans-Bold-2d" x="3701.367188"/>
     <use xlink:href="#DejaVuSans-Bold-6d" x="3742.871094"/>
     <use xlink:href="#DejaVuSans-Bold-61" x="3847.070312"/>
     <use xlink:href="#DejaVuSans-Bold-78" x="3914.550781"/>
     <use xlink:href="#DejaVuSans-Bold-20" x="3979.052734"/>
     <use xlink:href="#DejaVuSans-Bold-76" x="4013.867188"/>
     <use xlink:href="#DejaVuSans-Bold-61" x="4079.052734"/>
     <use xlink:href="#DejaVuSans-Bold-6c" x="4146.533203"/>
     <use xlink:href="#DejaVuSans-Bold-75" x="4180.810547"/>
     <use xlink:href="#DejaVuSans-Bold-65" x="4252.001953"/>
     <use xlink:href="#DejaVuSans-Bold-20" x="4319.824219"/>
     <use xlink:href="#DejaVuSans-Bold-63" x="4354.638672"/>
     <use xlink:href="#DejaVuSans-Bold-6f" x="4413.916016"/>
     <use xlink:href="#DejaVuSans-Bold-6e" x="4482.617188"/>
     <use xlink:href="#DejaVuSans-Bold-73" x="4553.808594"/>
     <use xlink:href="#DejaVuSans-Bold-74" x="4613.330078"/>
     <use xlink:href="#DejaVuSans-Bold-72" x="4661.132812"/>
     <use xlink:href="#DejaVuSans-Bold-61" x="4710.449219"/>
     <use xlink:href="#DejaVuSans-Bold-69" x="4777.929688"/>
     <use xlink:href="#DejaVuSans-Bold-6e" x="4812.207031"/>
     <use xlink:href="#DejaVuSans-Bold-74" x="4883.398438"/>
    </g>
   </g>
  </g>
 </g>
 <defs>
  <clipPath id="p65b1056496">
   <rect x="51.97125" y="22.318125" width="502.2" height="304.92"/>
  </clipPath>
 </defs>
</svg>
