<?xml version="1.0" encoding="utf-8" standalone="no"?>
<!DOCTYPE svg PUBLIC "-//W3C//DTD SVG 1.1//EN"
  "http://www.w3.org/Graphics/SVG/1.1/DTD/svg11.dtd">
<svg xmlns:xlink="http://www.w3.org/1999/xlink" width="804.28125pt" height="361.18419pt" viewBox="0 0 804.28125 361.18419" xmlns="http://www.w3.org/2000/svg" version="1.1">
 <metadata>
  <rdf:RDF xmlns:dc="http://purl.org/dc/elements/1.1/" xmlns:cc="http://creativecommons.org/ns#" xmlns:rdf="http://www.w3.org/1999/02/22-rdf-syntax-ns#">
   <cc:Work>
    <dc:type rdf:resource="http://purl.org/dc/dcmitype/StillImage"/>
    <dc:date>2026-07-10T22:34:28.712028</dc:date>
    <dc:format>image/svg+xml</dc:format>
    <dc:creator>
     <cc:Agent>
      <dc:title>Matplotlib v3.7.1, https://matplotlib.org/</dc:title>
     </cc:Agent>
    </dc:creator>
   </cc:Work>
  </rdf:RDF>
 </metadata>
 <defs>
  <style type="text/css">*{stroke-linejoin: round; stroke-linecap: butt}</style>
 </defs>
 <g id="figure_1">
  <g id="patch_1">
   <path d="M 0 361.18419 
L 804.28125 361.18419 
L 804.28125 0 
L 0 0 
z
" style="fill: #ffffff"/>
  </g>
  <g id="axes_1">
   <g id="patch_2">
    <path d="M 43.78125 288.430125 
L 797.08125 288.430125 
L 797.08125 22.318125 
L 43.78125 22.318125 
z
" style="fill: #ffffff"/>
   </g>
   <g id="matplotlib.axis_1">
    <g id="xtick_1">
     <g id="line2d_1">
      <path d="M 105.973922 288.430125 
L 105.973922 22.318125 
" clip-path="url(#p5966ad2fcb)" style="fill: none; stroke: #e9ecef; stroke-width: 0.7; stroke-linecap: square"/>
     </g>
     <g id="line2d_2">
      <defs>
       <path id="m97bb5a1578" d="M 0 0 
L 0 3.5 
" style="stroke: #6c757d; stroke-width: 0.8"/>
      </defs>
      <g>
       <use xlink:href="#m97bb5a1578" x="105.973922" y="288.430125" style="fill: #6c757d; stroke: #6c757d; stroke-width: 0.8"/>
      </g>
     </g>
     <g id="text_1">
      <!-- T1 -->
      <g style="fill: #6c757d" transform="translate(99.738765 303.028562) scale(0.1 -0.1)">
       <defs>
        <path id="DejaVuSans-54" d="M -19 4666 
L 3928 4666 
L 3928 4134 
L 2272 4134 
L 2272 0 
L 1638 0 
L 1638 4134 
L -19 4134 
L -19 4666 
z
" transform="scale(0.015625)"/>
        <path id="DejaVuSans-31" d="M 794 531 
L 1825 531 
L 1825 4091 
L 703 3866 
L 703 4441 
L 1819 4666 
L 2450 4666 
L 2450 531 
L 3481 531 
L 3481 0 
L 794 0 
L 794 531 
z
" transform="scale(0.015625)"/>
       </defs>
       <use xlink:href="#DejaVuSans-54"/>
       <use xlink:href="#DejaVuSans-31" x="61.083984"/>
      </g>
     </g>
    </g>
    <g id="xtick_2">
     <g id="line2d_3">
      <path d="M 175.853328 288.430125 
L 175.853328 22.318125 
" clip-path="url(#p5966ad2fcb)" style="fill: none; stroke: #e9ecef; stroke-width: 0.7; stroke-linecap: square"/>
     </g>
     <g id="line2d_4">
      <g>
       <use xlink:href="#m97bb5a1578" x="175.853328" y="288.430125" style="fill: #6c757d; stroke: #6c757d; stroke-width: 0.8"/>
      </g>
     </g>
     <g id="text_2">
      <!-- T2 -->
      <g style="fill: #6c757d" transform="translate(169.618172 303.028562) scale(0.1 -0.1)">
       <defs>
        <path id="DejaVuSans-32" d="M 1228 531 
L 3431 531 
L 3431 0 
L 469 0 
L 469 531 
Q 828 903 1448 1529 
Q 2069 2156 2228 2338 
Q 2531 2678 2651 2914 
Q 2772 3150 2772 3378 
Q 2772 3750 2511 3984 
Q 2250 4219 1831 4219 
Q 1534 4219 1204 4116 
Q 875 4013 500 3803 
L 500 4441 
Q 881 4594 1212 4672 
Q 1544 4750 1819 4750 
Q 2544 4750 2975 4387 
Q 3406 4025 3406 3419 
Q 3406 3131 3298 2873 
Q 3191 2616 2906 2266 
Q 2828 2175 2409 1742 
Q 1991 1309 1228 531 
z
" transform="scale(0.015625)"/>
       </defs>
       <use xlink:href="#DejaVuSans-54"/>
       <use xlink:href="#DejaVuSans-32" x="61.083984"/>
      </g>
     </g>
    </g>
    <g id="xtick_3">
     <g id="line2d_5">
      <path d="M 245.732734 288.430125 
L 245.732734 22.318125 
" clip-path="url(#p5966ad2fcb)" style="fill: none; stroke: #e9ecef; stroke-width: 0.7; stroke-linecap: square"/>
     </g>
     <g id="line2d_6">
      <g>
       <use xlink:href="#m97bb5a1578" x="245.732734" y="288.430125" style="fill: #6c757d; stroke: #6c757d; stroke-width: 0.8"/>
      </g>
     </g>
     <g id="text_3">
      <!-- T3 -->
      <g style="fill: #6c757d" transform="translate(239.497578 303.028562) scale(0.1 -0.1)">
       <defs>
        <path id="DejaVuSans-33" d="M 2597 2516 
Q 3050 2419 3304 2112 
Q 3559 1806 3559 1356 
Q 3559 666 3084 287 
Q 2609 -91 1734 -91 
Q 1441 -91 1130 -33 
Q 819 25 488 141 
L 488 750 
Q 750 597 1062 519 
Q 1375 441 1716 441 
Q 2309 441 2620 675 
Q 2931 909 2931 1356 
Q 2931 1769 2642 2001 
Q 2353 2234 1838 2234 
L 1294 2234 
L 1294 2753 
L 1863 2753 
Q 2328 2753 2575 2939 
Q 2822 3125 2822 3475 
Q 2822 3834 2567 4026 
Q 2313 4219 1838 4219 
Q 1578 4219 1281 4162 
Q 984 4106 628 3988 
L 628 4550 
Q 988 4650 1302 4700 
Q 1616 4750 1894 4750 
Q 2613 4750 3031 4423 
Q 3450 4097 3450 3541 
Q 3450 3153 3228 2886 
Q 3006 2619 2597 2516 
z
" transform="scale(0.015625)"/>
       </defs>
       <use xlink:href="#DejaVuSans-54"/>
       <use xlink:href="#DejaVuSans-33" x="61.083984"/>
      </g>
     </g>
    </g>
    <g id="xtick_4">
     <g id="line2d_7">
      <path d="M 315.612141 288.430125 
L 315.612141 22.318125 
" clip-path="url(#p5966ad2fcb)" style="fill: none; stroke: #e9ecef; stroke-width: 0.7; stroke-linecap: square"/>
     </g>
     <g id="line2d_8">
      <g>
       <use xlink:href="#m97bb5a1578" x="315.612141" y="288.430125" style="fill: #6c757d; stroke: #6c757d; stroke-width: 0.8"/>
      </g>
     </g>
     <g id="text_4">
      <!-- T4 -->
      <g style="fill: #6c757d" transform="translate(309.376984 303.028562) scale(0.1 -0.1)">
       <defs>
        <path id="DejaVuSans-34" d="M 2419 4116 
L 825 1625 
L 2419 1625 
L 2419 4116 
z
M 2253 4666 
L 3047 4666 
L 3047 1625 
L 3713 1625 
L 3713 1100 
L 3047 1100 
L 3047 0 
L 2419 0 
L 2419 1100 
L 313 1100 
L 313 1709 
L 2253 4666 
z
" transform="scale(0.015625)"/>
       </defs>
       <use xlink:href="#DejaVuSans-54"/>
       <use xlink:href="#DejaVuSans-34" x="61.083984"/>
      </g>
     </g>
    </g>
    <g id="xtick_5">
     <g id="line2d_9">
      <path d="M 385.491547 288.430125 
L 385.491547 22.318125 
" clip-path="url(#p5966ad2fcb)" style="fill: none; stroke: #e9ecef; stroke-width: 0.7; stroke-linecap: square"/>
     </g>
     <g id="line2d_10">
      <g>
       <use xlink:href="#m97bb5a1578" x="385.491547" y="288.430125" style="fill: #6c757d; stroke: #6c757d; stroke-width: 0.8"/>
      </g>
     </g>
     <g id="text_5">
      <!-- T5 -->
      <g style="fill: #6c757d" transform="translate(379.256391 303.028562) scale(0.1 -0.1)">
       <defs>
        <path id="DejaVuSans-35" d="M 691 4666 
L 3169 4666 
L 3169 4134 
L 1269 4134 
L 1269 2991 
Q 1406 3038 1543 3061 
Q 1681 3084 1819 3084 
Q 2600 3084 3056 2656 
Q 3513 2228 3513 1497 
Q 3513 744 3044 326 
Q 2575 -91 1722 -91 
Q 1428 -91 1123 -41 
Q 819 9 494 109 
L 494 744 
Q 775 591 1075 516 
Q 1375 441 1709 441 
Q 2250 441 2565 725 
Q 2881 1009 2881 1497 
Q 2881 1984 2565 2268 
Q 2250 2553 1709 2553 
Q 1456 2553 1204 2497 
Q 953 2441 691 2322 
L 691 4666 
z
" transform="scale(0.015625)"/>
       </defs>
       <use xlink:href="#DejaVuSans-54"/>
       <use xlink:href="#DejaVuSans-35" x="61.083984"/>
      </g>
     </g>
    </g>
    <g id="xtick_6">
     <g id="line2d_11">
      <path d="M 455.370953 288.430125 
L 455.370953 22.318125 
" clip-path="url(#p5966ad2fcb)" style="fill: none; stroke: #e9ecef; stroke-width: 0.7; stroke-linecap: square"/>
     </g>
     <g id="line2d_12">
      <g>
       <use xlink:href="#m97bb5a1578" x="455.370953" y="288.430125" style="fill: #6c757d; stroke: #6c757d; stroke-width: 0.8"/>
      </g>
     </g>
     <g id="text_6">
      <!-- T6 -->
      <g style="fill: #6c757d" transform="translate(449.135797 303.028562) scale(0.1 -0.1)">
       <defs>
        <path id="DejaVuSans-36" d="M 2113 2584 
Q 1688 2584 1439 2293 
Q 1191 2003 1191 1497 
Q 1191 994 1439 701 
Q 1688 409 2113 409 
Q 2538 409 2786 701 
Q 3034 994 3034 1497 
Q 3034 2003 2786 2293 
Q 2538 2584 2113 2584 
z
M 3366 4563 
L 3366 3988 
Q 3128 4100 2886 4159 
Q 2644 4219 2406 4219 
Q 1781 4219 1451 3797 
Q 1122 3375 1075 2522 
Q 1259 2794 1537 2939 
Q 1816 3084 2150 3084 
Q 2853 3084 3261 2657 
Q 3669 2231 3669 1497 
Q 3669 778 3244 343 
Q 2819 -91 2113 -91 
Q 1303 -91 875 529 
Q 447 1150 447 2328 
Q 447 3434 972 4092 
Q 1497 4750 2381 4750 
Q 2619 4750 2861 4703 
Q 3103 4656 3366 4563 
z
" transform="scale(0.015625)"/>
       </defs>
       <use xlink:href="#DejaVuSans-54"/>
       <use xlink:href="#DejaVuSans-36" x="61.083984"/>
      </g>
     </g>
    </g>
    <g id="xtick_7">
     <g id="line2d_13">
      <path d="M 525.250359 288.430125 
L 525.250359 22.318125 
" clip-path="url(#p5966ad2fcb)" style="fill: none; stroke: #e9ecef; stroke-width: 0.7; stroke-linecap: square"/>
     </g>
     <g id="line2d_14">
      <g>
       <use xlink:href="#m97bb5a1578" x="525.250359" y="288.430125" style="fill: #6c757d; stroke: #6c757d; stroke-width: 0.8"/>
      </g>
     </g>
     <g id="text_7">
      <!-- T7 -->
      <g style="fill: #6c757d" transform="translate(519.015203 303.028562) scale(0.1 -0.1)">
       <defs>
        <path id="DejaVuSans-37" d="M 525 4666 
L 3525 4666 
L 3525 4397 
L 1831 0 
L 1172 0 
L 2766 4134 
L 525 4134 
L 525 4666 
z
" transform="scale(0.015625)"/>
       </defs>
       <use xlink:href="#DejaVuSans-54"/>
       <use xlink:href="#DejaVuSans-37" x="61.083984"/>
      </g>
     </g>
    </g>
    <g id="xtick_8">
     <g id="line2d_15">
      <path d="M 595.129766 288.430125 
L 595.129766 22.318125 
" clip-path="url(#p5966ad2fcb)" style="fill: none; stroke: #e9ecef; stroke-width: 0.7; stroke-linecap: square"/>
     </g>
     <g id="line2d_16">
      <g>
       <use xlink:href="#m97bb5a1578" x="595.129766" y="288.430125" style="fill: #6c757d; stroke: #6c757d; stroke-width: 0.8"/>
      </g>
     </g>
     <g id="text_8">
      <!-- T8 -->
      <g style="fill: #6c757d" transform="translate(588.89461 303.028562) scale(0.1 -0.1)">
       <defs>
        <path id="DejaVuSans-38" d="M 2034 2216 
Q 1584 2216 1326 1975 
Q 1069 1734 1069 1313 
Q 1069 891 1326 650 
Q 1584 409 2034 409 
Q 2484 409 2743 651 
Q 3003 894 3003 1313 
Q 3003 1734 2745 1975 
Q 2488 2216 2034 2216 
z
M 1403 2484 
Q 997 2584 770 2862 
Q 544 3141 544 3541 
Q 544 4100 942 4425 
Q 1341 4750 2034 4750 
Q 2731 4750 3128 4425 
Q 3525 4100 3525 3541 
Q 3525 3141 3298 2862 
Q 3072 2584 2669 2484 
Q 3125 2378 3379 2068 
Q 3634 1759 3634 1313 
Q 3634 634 3220 271 
Q 2806 -91 2034 -91 
Q 1263 -91 848 271 
Q 434 634 434 1313 
Q 434 1759 690 2068 
Q 947 2378 1403 2484 
z
M 1172 3481 
Q 1172 3119 1398 2916 
Q 1625 2713 2034 2713 
Q 2441 2713 2670 2916 
Q 2900 3119 2900 3481 
Q 2900 3844 2670 4047 
Q 2441 4250 2034 4250 
Q 1625 4250 1398 4047 
Q 1172 3844 1172 3481 
z
" transform="scale(0.015625)"/>
       </defs>
       <use xlink:href="#DejaVuSans-54"/>
       <use xlink:href="#DejaVuSans-38" x="61.083984"/>
      </g>
     </g>
    </g>
    <g id="xtick_9">
     <g id="line2d_17">
      <path d="M 665.009172 288.430125 
L 665.009172 22.318125 
" clip-path="url(#p5966ad2fcb)" style="fill: none; stroke: #e9ecef; stroke-width: 0.7; stroke-linecap: square"/>
     </g>
     <g id="line2d_18">
      <g>
       <use xlink:href="#m97bb5a1578" x="665.009172" y="288.430125" style="fill: #6c757d; stroke: #6c757d; stroke-width: 0.8"/>
      </g>
     </g>
     <g id="text_9">
      <!-- T9 -->
      <g style="fill: #6c757d" transform="translate(658.774016 303.028562) scale(0.1 -0.1)">
       <defs>
        <path id="DejaVuSans-39" d="M 703 97 
L 703 672 
Q 941 559 1184 500 
Q 1428 441 1663 441 
Q 2288 441 2617 861 
Q 2947 1281 2994 2138 
Q 2813 1869 2534 1725 
Q 2256 1581 1919 1581 
Q 1219 1581 811 2004 
Q 403 2428 403 3163 
Q 403 3881 828 4315 
Q 1253 4750 1959 4750 
Q 2769 4750 3195 4129 
Q 3622 3509 3622 2328 
Q 3622 1225 3098 567 
Q 2575 -91 1691 -91 
Q 1453 -91 1209 -44 
Q 966 3 703 97 
z
M 1959 2075 
Q 2384 2075 2632 2365 
Q 2881 2656 2881 3163 
Q 2881 3666 2632 3958 
Q 2384 4250 1959 4250 
Q 1534 4250 1286 3958 
Q 1038 3666 1038 3163 
Q 1038 2656 1286 2365 
Q 1534 2075 1959 2075 
z
" transform="scale(0.015625)"/>
       </defs>
       <use xlink:href="#DejaVuSans-54"/>
       <use xlink:href="#DejaVuSans-39" x="61.083984"/>
      </g>
     </g>
    </g>
    <g id="xtick_10">
     <g id="line2d_19">
      <path d="M 734.888578 288.430125 
L 734.888578 22.318125 
" clip-path="url(#p5966ad2fcb)" style="fill: none; stroke: #e9ecef; stroke-width: 0.7; stroke-linecap: square"/>
     </g>
     <g id="line2d_20">
      <g>
       <use xlink:href="#m97bb5a1578" x="734.888578" y="288.430125" style="fill: #6c757d; stroke: #6c757d; stroke-width: 0.8"/>
      </g>
     </g>
     <g id="text_10">
      <!-- T10 -->
      <g style="fill: #6c757d" transform="translate(725.472172 303.028562) scale(0.1 -0.1)">
       <defs>
        <path id="DejaVuSans-30" d="M 2034 4250 
Q 1547 4250 1301 3770 
Q 1056 3291 1056 2328 
Q 1056 1369 1301 889 
Q 1547 409 2034 409 
Q 2525 409 2770 889 
Q 3016 1369 3016 2328 
Q 3016 3291 2770 3770 
Q 2525 4250 2034 4250 
z
M 2034 4750 
Q 2819 4750 3233 4129 
Q 3647 3509 3647 2328 
Q 3647 1150 3233 529 
Q 2819 -91 2034 -91 
Q 1250 -91 836 529 
Q 422 1150 422 2328 
Q 422 3509 836 4129 
Q 1250 4750 2034 4750 
z
" transform="scale(0.015625)"/>
       </defs>
       <use xlink:href="#DejaVuSans-54"/>
       <use xlink:href="#DejaVuSans-31" x="61.083984"/>
       <use xlink:href="#DejaVuSans-30" x="124.707031"/>
      </g>
     </g>
    </g>
   </g>
   <g id="matplotlib.axis_2">
    <g id="ytick_1">
     <g id="line2d_21">
      <path d="M 43.78125 288.430125 
L 797.08125 288.430125 
" clip-path="url(#p5966ad2fcb)" style="fill: none; stroke: #e9ecef; stroke-width: 0.7; stroke-linecap: square"/>
     </g>
     <g id="line2d_22">
      <defs>
       <path id="m171df04df4" d="M 0 0 
L -3.5 0 
" style="stroke: #6c757d; stroke-width: 0.8"/>
      </defs>
      <g>
       <use xlink:href="#m171df04df4" x="43.78125" y="288.430125" style="fill: #6c757d; stroke: #6c757d; stroke-width: 0.8"/>
      </g>
     </g>
     <g id="text_11">
      <!-- 0.0 -->
      <g style="fill: #6c757d" transform="translate(20.878125 292.229344) scale(0.1 -0.1)">
       <defs>
        <path id="DejaVuSans-2e" d="M 684 794 
L 1344 794 
L 1344 0 
L 684 0 
L 684 794 
z
" transform="scale(0.015625)"/>
       </defs>
       <use xlink:href="#DejaVuSans-30"/>
       <use xlink:href="#DejaVuSans-2e" x="63.623047"/>
       <use xlink:href="#DejaVuSans-30" x="95.410156"/>
      </g>
     </g>
    </g>
    <g id="ytick_2">
     <g id="line2d_23">
      <path d="M 43.78125 238.537648 
L 797.08125 238.537648 
" clip-path="url(#p5966ad2fcb)" style="fill: none; stroke: #e9ecef; stroke-width: 0.7; stroke-linecap: square"/>
     </g>
     <g id="line2d_24">
      <g>
       <use xlink:href="#m171df04df4" x="43.78125" y="238.537648" style="fill: #6c757d; stroke: #6c757d; stroke-width: 0.8"/>
      </g>
     </g>
     <g id="text_12">
      <!-- 0.2 -->
      <g style="fill: #6c757d" transform="translate(20.878125 242.336867) scale(0.1 -0.1)">
       <use xlink:href="#DejaVuSans-30"/>
       <use xlink:href="#DejaVuSans-2e" x="63.623047"/>
       <use xlink:href="#DejaVuSans-32" x="95.410156"/>
      </g>
     </g>
    </g>
    <g id="ytick_3">
     <g id="line2d_25">
      <path d="M 43.78125 188.645171 
L 797.08125 188.645171 
" clip-path="url(#p5966ad2fcb)" style="fill: none; stroke: #e9ecef; stroke-width: 0.7; stroke-linecap: square"/>
     </g>
     <g id="line2d_26">
      <g>
       <use xlink:href="#m171df04df4" x="43.78125" y="188.645171" style="fill: #6c757d; stroke: #6c757d; stroke-width: 0.8"/>
      </g>
     </g>
     <g id="text_13">
      <!-- 0.4 -->
      <g style="fill: #6c757d" transform="translate(20.878125 192.44439) scale(0.1 -0.1)">
       <use xlink:href="#DejaVuSans-30"/>
       <use xlink:href="#DejaVuSans-2e" x="63.623047"/>
       <use xlink:href="#DejaVuSans-34" x="95.410156"/>
      </g>
     </g>
    </g>
    <g id="ytick_4">
     <g id="line2d_27">
      <path d="M 43.78125 138.752694 
L 797.08125 138.752694 
" clip-path="url(#p5966ad2fcb)" style="fill: none; stroke: #e9ecef; stroke-width: 0.7; stroke-linecap: square"/>
     </g>
     <g id="line2d_28">
      <g>
       <use xlink:href="#m171df04df4" x="43.78125" y="138.752694" style="fill: #6c757d; stroke: #6c757d; stroke-width: 0.8"/>
      </g>
     </g>
     <g id="text_14">
      <!-- 0.6 -->
      <g style="fill: #6c757d" transform="translate(20.878125 142.551913) scale(0.1 -0.1)">
       <use xlink:href="#DejaVuSans-30"/>
       <use xlink:href="#DejaVuSans-2e" x="63.623047"/>
       <use xlink:href="#DejaVuSans-36" x="95.410156"/>
      </g>
     </g>
    </g>
    <g id="ytick_5">
     <g id="line2d_29">
      <path d="M 43.78125 88.860217 
L 797.08125 88.860217 
" clip-path="url(#p5966ad2fcb)" style="fill: none; stroke: #e9ecef; stroke-width: 0.7; stroke-linecap: square"/>
     </g>
     <g id="line2d_30">
      <g>
       <use xlink:href="#m171df04df4" x="43.78125" y="88.860217" style="fill: #6c757d; stroke: #6c757d; stroke-width: 0.8"/>
      </g>
     </g>
     <g id="text_15">
      <!-- 0.8 -->
      <g style="fill: #6c757d" transform="translate(20.878125 92.659436) scale(0.1 -0.1)">
       <use xlink:href="#DejaVuSans-30"/>
       <use xlink:href="#DejaVuSans-2e" x="63.623047"/>
       <use xlink:href="#DejaVuSans-38" x="95.410156"/>
      </g>
     </g>
    </g>
    <g id="ytick_6">
     <g id="line2d_31">
      <path d="M 43.78125 38.96774 
L 797.08125 38.96774 
" clip-path="url(#p5966ad2fcb)" style="fill: none; stroke: #e9ecef; stroke-width: 0.7; stroke-linecap: square"/>
     </g>
     <g id="line2d_32">
      <g>
       <use xlink:href="#m171df04df4" x="43.78125" y="38.96774" style="fill: #6c757d; stroke: #6c757d; stroke-width: 0.8"/>
      </g>
     </g>
     <g id="text_16">
      <!-- 1.0 -->
      <g style="fill: #6c757d" transform="translate(20.878125 42.766959) scale(0.1 -0.1)">
       <use xlink:href="#DejaVuSans-31"/>
       <use xlink:href="#DejaVuSans-2e" x="63.623047"/>
       <use xlink:href="#DejaVuSans-30" x="95.410156"/>
      </g>
     </g>
    </g>
    <g id="text_17">
     <!-- Final value (end of sequence) -->
     <g style="fill: #212529" transform="translate(14.798438 229.148344) rotate(-90) scale(0.1 -0.1)">
      <defs>
       <path id="DejaVuSans-46" d="M 628 4666 
L 3309 4666 
L 3309 4134 
L 1259 4134 
L 1259 2759 
L 3109 2759 
L 3109 2228 
L 1259 2228 
L 1259 0 
L 628 0 
L 628 4666 
z
" transform="scale(0.015625)"/>
       <path id="DejaVuSans-69" d="M 603 3500 
L 1178 3500 
L 1178 0 
L 603 0 
L 603 3500 
z
M 603 4863 
L 1178 4863 
L 1178 4134 
L 603 4134 
L 603 4863 
z
" transform="scale(0.015625)"/>
       <path id="DejaVuSans-6e" d="M 3513 2113 
L 3513 0 
L 2938 0 
L 2938 2094 
Q 2938 2591 2744 2837 
Q 2550 3084 2163 3084 
Q 1697 3084 1428 2787 
Q 1159 2491 1159 1978 
L 1159 0 
L 581 0 
L 581 3500 
L 1159 3500 
L 1159 2956 
Q 1366 3272 1645 3428 
Q 1925 3584 2291 3584 
Q 2894 3584 3203 3211 
Q 3513 2838 3513 2113 
z
" transform="scale(0.015625)"/>
       <path id="DejaVuSans-61" d="M 2194 1759 
Q 1497 1759 1228 1600 
Q 959 1441 959 1056 
Q 959 750 1161 570 
Q 1363 391 1709 391 
Q 2188 391 2477 730 
Q 2766 1069 2766 1631 
L 2766 1759 
L 2194 1759 
z
M 3341 1997 
L 3341 0 
L 2766 0 
L 2766 531 
Q 2569 213 2275 61 
Q 1981 -91 1556 -91 
Q 1019 -91 701 211 
Q 384 513 384 1019 
Q 384 1609 779 1909 
Q 1175 2209 1959 2209 
L 2766 2209 
L 2766 2266 
Q 2766 2663 2505 2880 
Q 2244 3097 1772 3097 
Q 1472 3097 1187 3025 
Q 903 2953 641 2809 
L 641 3341 
Q 956 3463 1253 3523 
Q 1550 3584 1831 3584 
Q 2591 3584 2966 3190 
Q 3341 2797 3341 1997 
z
" transform="scale(0.015625)"/>
       <path id="DejaVuSans-6c" d="M 603 4863 
L 1178 4863 
L 1178 0 
L 603 0 
L 603 4863 
z
" transform="scale(0.015625)"/>
       <path id="DejaVuSans-20" transform="scale(0.015625)"/>
       <path id="DejaVuSans-76" d="M 191 3500 
L 800 3500 
L 1894 563 
L 2988 3500 
L 3597 3500 
L 2284 0 
L 1503 0 
L 191 3500 
z
" transform="scale(0.015625)"/>
       <path id="DejaVuSans-75" d="M 544 1381 
L 544 3500 
L 1119 3500 
L 1119 1403 
Q 1119 906 1312 657 
Q 1506 409 1894 409 
Q 2359 409 2629 706 
Q 2900 1003 2900 1516 
L 2900 3500 
L 3475 3500 
L 3475 0 
L 2900 0 
L 2900 538 
Q 2691 219 2414 64 
Q 2138 -91 1772 -91 
Q 1169 -91 856 284 
Q 544 659 544 1381 
z
M 1991 3584 
L 1991 3584 
z
" transform="scale(0.015625)"/>
       <path id="DejaVuSans-65" d="M 3597 1894 
L 3597 1613 
L 953 1613 
Q 991 1019 1311 708 
Q 1631 397 2203 397 
Q 2534 397 2845 478 
Q 3156 559 3463 722 
L 3463 178 
Q 3153 47 2828 -22 
Q 2503 -91 2169 -91 
Q 1331 -91 842 396 
Q 353 884 353 1716 
Q 353 2575 817 3079 
Q 1281 3584 2069 3584 
Q 2775 3584 3186 3129 
Q 3597 2675 3597 1894 
z
M 3022 2063 
Q 3016 2534 2758 2815 
Q 2500 3097 2075 3097 
Q 1594 3097 1305 2825 
Q 1016 2553 972 2059 
L 3022 2063 
z
" transform="scale(0.015625)"/>
       <path id="DejaVuSans-28" d="M 1984 4856 
Q 1566 4138 1362 3434 
Q 1159 2731 1159 2009 
Q 1159 1288 1364 580 
Q 1569 -128 1984 -844 
L 1484 -844 
Q 1016 -109 783 600 
Q 550 1309 550 2009 
Q 550 2706 781 3412 
Q 1013 4119 1484 4856 
L 1984 4856 
z
" transform="scale(0.015625)"/>
       <path id="DejaVuSans-64" d="M 2906 2969 
L 2906 4863 
L 3481 4863 
L 3481 0 
L 2906 0 
L 2906 525 
Q 2725 213 2448 61 
Q 2172 -91 1784 -91 
Q 1150 -91 751 415 
Q 353 922 353 1747 
Q 353 2572 751 3078 
Q 1150 3584 1784 3584 
Q 2172 3584 2448 3432 
Q 2725 3281 2906 2969 
z
M 947 1747 
Q 947 1113 1208 752 
Q 1469 391 1925 391 
Q 2381 391 2643 752 
Q 2906 1113 2906 1747 
Q 2906 2381 2643 2742 
Q 2381 3103 1925 3103 
Q 1469 3103 1208 2742 
Q 947 2381 947 1747 
z
" transform="scale(0.015625)"/>
       <path id="DejaVuSans-6f" d="M 1959 3097 
Q 1497 3097 1228 2736 
Q 959 2375 959 1747 
Q 959 1119 1226 758 
Q 1494 397 1959 397 
Q 2419 397 2687 759 
Q 2956 1122 2956 1747 
Q 2956 2369 2687 2733 
Q 2419 3097 1959 3097 
z
M 1959 3584 
Q 2709 3584 3137 3096 
Q 3566 2609 3566 1747 
Q 3566 888 3137 398 
Q 2709 -91 1959 -91 
Q 1206 -91 779 398 
Q 353 888 353 1747 
Q 353 2609 779 3096 
Q 1206 3584 1959 3584 
z
" transform="scale(0.015625)"/>
       <path id="DejaVuSans-66" d="M 2375 4863 
L 2375 4384 
L 1825 4384 
Q 1516 4384 1395 4259 
Q 1275 4134 1275 3809 
L 1275 3500 
L 2222 3500 
L 2222 3053 
L 1275 3053 
L 1275 0 
L 697 0 
L 697 3053 
L 147 3053 
L 147 3500 
L 697 3500 
L 697 3744 
Q 697 4328 969 4595 
Q 1241 4863 1831 4863 
L 2375 4863 
z
" transform="scale(0.015625)"/>
       <path id="DejaVuSans-73" d="M 2834 3397 
L 2834 2853 
Q 2591 2978 2328 3040 
Q 2066 3103 1784 3103 
Q 1356 3103 1142 2972 
Q 928 2841 928 2578 
Q 928 2378 1081 2264 
Q 1234 2150 1697 2047 
L 1894 2003 
Q 2506 1872 2764 1633 
Q 3022 1394 3022 966 
Q 3022 478 2636 193 
Q 2250 -91 1575 -91 
Q 1294 -91 989 -36 
Q 684 19 347 128 
L 347 722 
Q 666 556 975 473 
Q 1284 391 1588 391 
Q 1994 391 2212 530 
Q 2431 669 2431 922 
Q 2431 1156 2273 1281 
Q 2116 1406 1581 1522 
L 1381 1569 
Q 847 1681 609 1914 
Q 372 2147 372 2553 
Q 372 3047 722 3315 
Q 1072 3584 1716 3584 
Q 2034 3584 2315 3537 
Q 2597 3491 2834 3397 
z
" transform="scale(0.015625)"/>
       <path id="DejaVuSans-71" d="M 947 1747 
Q 947 1113 1208 752 
Q 1469 391 1925 391 
Q 2381 391 2643 752 
Q 2906 1113 2906 1747 
Q 2906 2381 2643 2742 
Q 2381 3103 1925 3103 
Q 1469 3103 1208 2742 
Q 947 2381 947 1747 
z
M 2906 525 
Q 2725 213 2448 61 
Q 2172 -91 1784 -91 
Q 1150 -91 751 415 
Q 353 922 353 1747 
Q 353 2572 751 3078 
Q 1150 3584 1784 3584 
Q 2172 3584 2448 3432 
Q 2725 3281 2906 2969 
L 2906 3500 
L 3481 3500 
L 3481 -1331 
L 2906 -1331 
L 2906 525 
z
" transform="scale(0.015625)"/>
       <path id="DejaVuSans-63" d="M 3122 3366 
L 3122 2828 
Q 2878 2963 2633 3030 
Q 2388 3097 2138 3097 
Q 1578 3097 1268 2742 
Q 959 2388 959 1747 
Q 959 1106 1268 751 
Q 1578 397 2138 397 
Q 2388 397 2633 464 
Q 2878 531 3122 666 
L 3122 134 
Q 2881 22 2623 -34 
Q 2366 -91 2075 -91 
Q 1284 -91 818 406 
Q 353 903 353 1747 
Q 353 2603 823 3093 
Q 1294 3584 2113 3584 
Q 2378 3584 2631 3529 
Q 2884 3475 3122 3366 
z
" transform="scale(0.015625)"/>
       <path id="DejaVuSans-29" d="M 513 4856 
L 1013 4856 
Q 1481 4119 1714 3412 
Q 1947 2706 1947 2009 
Q 1947 1309 1714 600 
Q 1481 -109 1013 -844 
L 513 -844 
Q 928 -128 1133 580 
Q 1338 1288 1338 2009 
Q 1338 2731 1133 3434 
Q 928 4138 513 4856 
z
" transform="scale(0.015625)"/>
      </defs>
      <use xlink:href="#DejaVuSans-46"/>
      <use xlink:href="#DejaVuSans-69" x="50.269531"/>
      <use xlink:href="#DejaVuSans-6e" x="78.052734"/>
      <use xlink:href="#DejaVuSans-61" x="141.431641"/>
      <use xlink:href="#DejaVuSans-6c" x="202.710938"/>
      <use xlink:href="#DejaVuSans-20" x="230.494141"/>
      <use xlink:href="#DejaVuSans-76" x="262.28125"/>
      <use xlink:href="#DejaVuSans-61" x="321.460938"/>
      <use xlink:href="#DejaVuSans-6c" x="382.740234"/>
      <use xlink:href="#DejaVuSans-75" x="410.523438"/>
      <use xlink:href="#DejaVuSans-65" x="473.902344"/>
      <use xlink:href="#DejaVuSans-20" x="535.425781"/>
      <use xlink:href="#DejaVuSans-28" x="567.212891"/>
      <use xlink:href="#DejaVuSans-65" x="606.226562"/>
      <use xlink:href="#DejaVuSans-6e" x="667.75"/>
      <use xlink:href="#DejaVuSans-64" x="731.128906"/>
      <use xlink:href="#DejaVuSans-20" x="794.605469"/>
      <use xlink:href="#DejaVuSans-6f" x="826.392578"/>
      <use xlink:href="#DejaVuSans-66" x="887.574219"/>
      <use xlink:href="#DejaVuSans-20" x="922.779297"/>
      <use xlink:href="#DejaVuSans-73" x="954.566406"/>
      <use xlink:href="#DejaVuSans-65" x="1006.666016"/>
      <use xlink:href="#DejaVuSans-71" x="1068.189453"/>
      <use xlink:href="#DejaVuSans-75" x="1131.666016"/>
      <use xlink:href="#DejaVuSans-65" x="1195.044922"/>
      <use xlink:href="#DejaVuSans-6e" x="1256.568359"/>
      <use xlink:href="#DejaVuSans-63" x="1319.947266"/>
      <use xlink:href="#DejaVuSans-65" x="1374.927734"/>
      <use xlink:href="#DejaVuSans-29" x="1436.451172"/>
     </g>
    </g>
   </g>
   <g id="patch_3">
    <path d="M 78.022159 288.430125 
L 91.99804 288.430125 
L 91.99804 76.352843 
L 78.022159 76.352843 
z
" clip-path="url(#p5966ad2fcb)" style="fill: #059669"/>
   </g>
   <g id="patch_4">
    <path d="M 147.901565 288.430125 
L 161.877447 288.430125 
L 161.877447 74.345612 
L 147.901565 74.345612 
z
" clip-path="url(#p5966ad2fcb)" style="fill: #059669"/>
   </g>
   <g id="patch_5">
    <path d="M 217.780972 288.430125 
L 231.756853 288.430125 
L 231.756853 76.893154 
L 217.780972 76.893154 
z
" clip-path="url(#p5966ad2fcb)" style="fill: #059669"/>
   </g>
   <g id="patch_6">
    <path d="M 287.660378 288.430125 
L 301.636259 288.430125 
L 301.636259 77.293621 
L 287.660378 77.293621 
z
" clip-path="url(#p5966ad2fcb)" style="fill: #059669"/>
   </g>
   <g id="patch_7">
    <path d="M 357.539784 288.430125 
L 371.515666 288.430125 
L 371.515666 79.977787 
L 357.539784 79.977787 
z
" clip-path="url(#p5966ad2fcb)" style="fill: #059669"/>
   </g>
   <g id="patch_8">
    <path d="M 427.419191 288.430125 
L 441.395072 288.430125 
L 441.395072 88.824627 
L 427.419191 88.824627 
z
" clip-path="url(#p5966ad2fcb)" style="fill: #059669"/>
   </g>
   <g id="patch_9">
    <path d="M 497.298597 288.430125 
L 511.274478 288.430125 
L 511.274478 76.866496 
L 497.298597 76.866496 
z
" clip-path="url(#p5966ad2fcb)" style="fill: #059669"/>
   </g>
   <g id="patch_10">
    <path d="M 567.178003 288.430125 
L 581.153885 288.430125 
L 581.153885 81.482344 
L 567.178003 81.482344 
z
" clip-path="url(#p5966ad2fcb)" style="fill: #059669"/>
   </g>
   <g id="patch_11">
    <path d="M 637.05741 288.430125 
L 651.033291 288.430125 
L 651.033291 65.988629 
L 637.05741 65.988629 
z
" clip-path="url(#p5966ad2fcb)" style="fill: #059669"/>
   </g>
   <g id="patch_12">
    <path d="M 706.936816 288.430125 
L 720.912697 288.430125 
L 720.912697 71.003181 
L 706.936816 71.003181 
z
" clip-path="url(#p5966ad2fcb)" style="fill: #059669"/>
   </g>
   <g id="patch_13">
    <path d="M 91.99804 288.430125 
L 105.973922 288.430125 
L 105.973922 82.266773 
L 91.99804 82.266773 
z
" clip-path="url(#p5966ad2fcb)" style="fill: #d97706"/>
   </g>
   <g id="patch_14">
    <path d="M 161.877447 288.430125 
L 175.853328 288.430125 
L 175.853328 78.637111 
L 161.877447 78.637111 
z
" clip-path="url(#p5966ad2fcb)" style="fill: #d97706"/>
   </g>
   <g id="patch_15">
    <path d="M 231.756853 288.430125 
L 245.732734 288.430125 
L 245.732734 77.287312 
L 231.756853 77.287312 
z
" clip-path="url(#p5966ad2fcb)" style="fill: #d97706"/>
   </g>
   <g id="patch_16">
    <path d="M 301.636259 288.430125 
L 315.612141 288.430125 
L 315.612141 80.0552 
L 301.636259 80.0552 
z
" clip-path="url(#p5966ad2fcb)" style="fill: #d97706"/>
   </g>
   <g id="patch_17">
    <path d="M 371.515666 288.430125 
L 385.491547 288.430125 
L 385.491547 134.613589 
L 371.515666 134.613589 
z
" clip-path="url(#p5966ad2fcb)" style="fill: #d97706"/>
   </g>
   <g id="patch_18">
    <path d="M 441.395072 288.430125 
L 455.370953 288.430125 
L 455.370953 86.377493 
L 441.395072 86.377493 
z
" clip-path="url(#p5966ad2fcb)" style="fill: #d97706"/>
   </g>
   <g id="patch_19">
    <path d="M 511.274478 288.430125 
L 525.250359 288.430125 
L 525.250359 71.032182 
L 511.274478 71.032182 
z
" clip-path="url(#p5966ad2fcb)" style="fill: #d97706"/>
   </g>
   <g id="patch_20">
    <path d="M 581.153885 288.430125 
L 595.129766 288.430125 
L 595.129766 69.921759 
L 581.153885 69.921759 
z
" clip-path="url(#p5966ad2fcb)" style="fill: #d97706"/>
   </g>
   <g id="patch_21">
    <path d="M 651.033291 288.430125 
L 665.009172 288.430125 
L 665.009172 89.338629 
L 651.033291 89.338629 
z
" clip-path="url(#p5966ad2fcb)" style="fill: #d97706"/>
   </g>
   <g id="patch_22">
    <path d="M 720.912697 288.430125 
L 734.888578 288.430125 
L 734.888578 222.136059 
L 720.912697 222.136059 
z
" clip-path="url(#p5966ad2fcb)" style="fill: #d97706"/>
   </g>
   <g id="patch_23">
    <path d="M 105.973922 288.430125 
L 119.949803 288.430125 
L 119.949803 191.692216 
L 105.973922 191.692216 
z
" clip-path="url(#p5966ad2fcb)" style="fill: #dc2626"/>
   </g>
   <g id="patch_24">
    <path d="M 175.853328 288.430125 
L 189.829209 288.430125 
L 189.829209 176.069277 
L 175.853328 176.069277 
z
" clip-path="url(#p5966ad2fcb)" style="fill: #dc2626"/>
   </g>
   <g id="patch_25">
    <path d="M 245.732734 288.430125 
L 259.708615 288.430125 
L 259.708615 147.142208 
L 245.732734 147.142208 
z
" clip-path="url(#p5966ad2fcb)" style="fill: #dc2626"/>
   </g>
   <g id="patch_26">
    <path d="M 315.612141 288.430125 
L 329.588022 288.430125 
L 329.588022 126.748939 
L 315.612141 126.748939 
z
" clip-path="url(#p5966ad2fcb)" style="fill: #dc2626"/>
   </g>
   <g id="patch_27">
    <path d="M 385.491547 288.430125 
L 399.467428 288.430125 
L 399.467428 221.030774 
L 385.491547 221.030774 
z
" clip-path="url(#p5966ad2fcb)" style="fill: #dc2626"/>
   </g>
   <g id="patch_28">
    <path d="M 455.370953 288.430125 
L 469.346834 288.430125 
L 469.346834 171.012752 
L 455.370953 171.012752 
z
" clip-path="url(#p5966ad2fcb)" style="fill: #dc2626"/>
   </g>
   <g id="patch_29">
    <path d="M 525.250359 288.430125 
L 539.226241 288.430125 
L 539.226241 125.866908 
L 525.250359 125.866908 
z
" clip-path="url(#p5966ad2fcb)" style="fill: #dc2626"/>
   </g>
   <g id="patch_30">
    <path d="M 595.129766 288.430125 
L 609.105647 288.430125 
L 609.105647 176.840683 
L 595.129766 176.840683 
z
" clip-path="url(#p5966ad2fcb)" style="fill: #dc2626"/>
   </g>
   <g id="patch_31">
    <path d="M 665.009172 288.430125 
L 678.985053 288.430125 
L 678.985053 111.664625 
L 665.009172 111.664625 
z
" clip-path="url(#p5966ad2fcb)" style="fill: #dc2626"/>
   </g>
   <g id="patch_32">
    <path d="M 734.888578 288.430125 
L 748.86446 288.430125 
L 748.86446 84.842007 
L 734.888578 84.842007 
z
" clip-path="url(#p5966ad2fcb)" style="fill: #dc2626"/>
   </g>
   <g id="patch_33">
    <path d="M 119.949803 288.430125 
L 133.925684 288.430125 
L 133.925684 75.689408 
L 119.949803 75.689408 
z
" clip-path="url(#p5966ad2fcb)" style="fill: #7c3aed"/>
   </g>
   <g id="patch_34">
    <path d="M 189.829209 288.430125 
L 203.80509 288.430125 
L 203.80509 75.536936 
L 189.829209 75.536936 
z
" clip-path="url(#p5966ad2fcb)" style="fill: #7c3aed"/>
   </g>
   <g id="patch_35">
    <path d="M 259.708615 288.430125 
L 273.684497 288.430125 
L 273.684497 78.642728 
L 259.708615 78.642728 
z
" clip-path="url(#p5966ad2fcb)" style="fill: #7c3aed"/>
   </g>
   <g id="patch_36">
    <path d="M 329.588022 288.430125 
L 343.563903 288.430125 
L 343.563903 73.752555 
L 329.588022 73.752555 
z
" clip-path="url(#p5966ad2fcb)" style="fill: #7c3aed"/>
   </g>
   <g id="patch_37">
    <path d="M 399.467428 288.430125 
L 413.443309 288.430125 
L 413.443309 61.119395 
L 399.467428 61.119395 
z
" clip-path="url(#p5966ad2fcb)" style="fill: #7c3aed"/>
   </g>
   <g id="patch_38">
    <path d="M 469.346834 288.430125 
L 483.322716 288.430125 
L 483.322716 67.502666 
L 469.346834 67.502666 
z
" clip-path="url(#p5966ad2fcb)" style="fill: #7c3aed"/>
   </g>
   <g id="patch_39">
    <path d="M 539.226241 288.430125 
L 553.202122 288.430125 
L 553.202122 68.506402 
L 539.226241 68.506402 
z
" clip-path="url(#p5966ad2fcb)" style="fill: #7c3aed"/>
   </g>
   <g id="patch_40">
    <path d="M 609.105647 288.430125 
L 623.081528 288.430125 
L 623.081528 67.640007 
L 609.105647 67.640007 
z
" clip-path="url(#p5966ad2fcb)" style="fill: #7c3aed"/>
   </g>
   <g id="patch_41">
    <path d="M 678.985053 288.430125 
L 692.960935 288.430125 
L 692.960935 67.172778 
L 678.985053 67.172778 
z
" clip-path="url(#p5966ad2fcb)" style="fill: #7c3aed"/>
   </g>
   <g id="patch_42">
    <path d="M 748.86446 288.430125 
L 762.840341 288.430125 
L 762.840341 64.020118 
L 748.86446 64.020118 
z
" clip-path="url(#p5966ad2fcb)" style="fill: #7c3aed"/>
   </g>
   <g id="LineCollection_1">
    <path d="M 85.0101 81.50631 
L 85.0101 71.199376 
" clip-path="url(#p5966ad2fcb)" style="fill: none; stroke: #495057"/>
    <path d="M 154.889506 76.069075 
L 154.889506 72.622148 
" clip-path="url(#p5966ad2fcb)" style="fill: none; stroke: #495057"/>
    <path d="M 224.768912 83.036062 
L 224.768912 70.750246 
" clip-path="url(#p5966ad2fcb)" style="fill: none; stroke: #495057"/>
    <path d="M 294.648319 80.00631 
L 294.648319 74.580932 
" clip-path="url(#p5966ad2fcb)" style="fill: none; stroke: #495057"/>
    <path d="M 364.527725 111.802454 
L 364.527725 48.15312 
" clip-path="url(#p5966ad2fcb)" style="fill: none; stroke: #495057"/>
    <path d="M 434.407131 134.232628 
L 434.407131 43.416625 
" clip-path="url(#p5966ad2fcb)" style="fill: none; stroke: #495057"/>
    <path d="M 504.286538 88.219317 
L 504.286538 65.513676 
" clip-path="url(#p5966ad2fcb)" style="fill: none; stroke: #495057"/>
    <path d="M 574.165944 110.368898 
L 574.165944 52.59579 
" clip-path="url(#p5966ad2fcb)" style="fill: none; stroke: #495057"/>
    <path d="M 644.04535 69.55565 
L 644.04535 62.421608 
" clip-path="url(#p5966ad2fcb)" style="fill: none; stroke: #495057"/>
    <path d="M 713.924756 79.702098 
L 713.924756 62.304264 
" clip-path="url(#p5966ad2fcb)" style="fill: none; stroke: #495057"/>
   </g>
   <g id="line2d_33">
    <defs>
     <path id="m959ef079ed" d="M 2.5 0 
L -2.5 -0 
" style="stroke: #495057"/>
    </defs>
    <g clip-path="url(#p5966ad2fcb)">
     <use xlink:href="#m959ef079ed" x="85.0101" y="81.50631" style="fill: #495057; stroke: #495057"/>
     <use xlink:href="#m959ef079ed" x="154.889506" y="76.069075" style="fill: #495057; stroke: #495057"/>
     <use xlink:href="#m959ef079ed" x="224.768912" y="83.036062" style="fill: #495057; stroke: #495057"/>
     <use xlink:href="#m959ef079ed" x="294.648319" y="80.00631" style="fill: #495057; stroke: #495057"/>
     <use xlink:href="#m959ef079ed" x="364.527725" y="111.802454" style="fill: #495057; stroke: #495057"/>
     <use xlink:href="#m959ef079ed" x="434.407131" y="134.232628" style="fill: #495057; stroke: #495057"/>
     <use xlink:href="#m959ef079ed" x="504.286538" y="88.219317" style="fill: #495057; stroke: #495057"/>
     <use xlink:href="#m959ef079ed" x="574.165944" y="110.368898" style="fill: #495057; stroke: #495057"/>
     <use xlink:href="#m959ef079ed" x="644.04535" y="69.55565" style="fill: #495057; stroke: #495057"/>
     <use xlink:href="#m959ef079ed" x="713.924756" y="79.702098" style="fill: #495057; stroke: #495057"/>
    </g>
   </g>
   <g id="line2d_34">
    <g clip-path="url(#p5966ad2fcb)">
     <use xlink:href="#m959ef079ed" x="85.0101" y="71.199376" style="fill: #495057; stroke: #495057"/>
     <use xlink:href="#m959ef079ed" x="154.889506" y="72.622148" style="fill: #495057; stroke: #495057"/>
     <use xlink:href="#m959ef079ed" x="224.768912" y="70.750246" style="fill: #495057; stroke: #495057"/>
     <use xlink:href="#m959ef079ed" x="294.648319" y="74.580932" style="fill: #495057; stroke: #495057"/>
     <use xlink:href="#m959ef079ed" x="364.527725" y="48.15312" style="fill: #495057; stroke: #495057"/>
     <use xlink:href="#m959ef079ed" x="434.407131" y="43.416625" style="fill: #495057; stroke: #495057"/>
     <use xlink:href="#m959ef079ed" x="504.286538" y="65.513676" style="fill: #495057; stroke: #495057"/>
     <use xlink:href="#m959ef079ed" x="574.165944" y="52.59579" style="fill: #495057; stroke: #495057"/>
     <use xlink:href="#m959ef079ed" x="644.04535" y="62.421608" style="fill: #495057; stroke: #495057"/>
     <use xlink:href="#m959ef079ed" x="713.924756" y="62.304264" style="fill: #495057; stroke: #495057"/>
    </g>
   </g>
   <g id="LineCollection_2">
    <path d="M 98.985981 95.594834 
L 98.985981 68.938712 
" clip-path="url(#p5966ad2fcb)" style="fill: none; stroke: #495057"/>
    <path d="M 168.865387 86.183083 
L 168.865387 71.091138 
" clip-path="url(#p5966ad2fcb)" style="fill: none; stroke: #495057"/>
    <path d="M 238.744794 80.529811 
L 238.744794 74.044813 
" clip-path="url(#p5966ad2fcb)" style="fill: none; stroke: #495057"/>
    <path d="M 308.6242 87.196694 
L 308.6242 72.913706 
" clip-path="url(#p5966ad2fcb)" style="fill: none; stroke: #495057"/>
    <path d="M 378.503606 233.597171 
L 378.503606 35.630007 
" clip-path="url(#p5966ad2fcb)" style="fill: none; stroke: #495057"/>
    <path d="M 448.383013 136.494467 
L 448.383013 36.260518 
" clip-path="url(#p5966ad2fcb)" style="fill: none; stroke: #495057"/>
    <path d="M 518.262419 80.940881 
L 518.262419 61.123484 
" clip-path="url(#p5966ad2fcb)" style="fill: none; stroke: #495057"/>
    <path d="M 588.141825 76.951525 
L 588.141825 62.891993 
" clip-path="url(#p5966ad2fcb)" style="fill: none; stroke: #495057"/>
    <path d="M 658.021231 126.11577 
L 658.021231 52.561488 
" clip-path="url(#p5966ad2fcb)" style="fill: none; stroke: #495057"/>
    <path d="M 727.900638 237.337011 
L 727.900638 206.935107 
" clip-path="url(#p5966ad2fcb)" style="fill: none; stroke: #495057"/>
   </g>
   <g id="line2d_35">
    <g clip-path="url(#p5966ad2fcb)">
     <use xlink:href="#m959ef079ed" x="98.985981" y="95.594834" style="fill: #495057; stroke: #495057"/>
     <use xlink:href="#m959ef079ed" x="168.865387" y="86.183083" style="fill: #495057; stroke: #495057"/>
     <use xlink:href="#m959ef079ed" x="238.744794" y="80.529811" style="fill: #495057; stroke: #495057"/>
     <use xlink:href="#m959ef079ed" x="308.6242" y="87.196694" style="fill: #495057; stroke: #495057"/>
     <use xlink:href="#m959ef079ed" x="378.503606" y="233.597171" style="fill: #495057; stroke: #495057"/>
     <use xlink:href="#m959ef079ed" x="448.383013" y="136.494467" style="fill: #495057; stroke: #495057"/>
     <use xlink:href="#m959ef079ed" x="518.262419" y="80.940881" style="fill: #495057; stroke: #495057"/>
     <use xlink:href="#m959ef079ed" x="588.141825" y="76.951525" style="fill: #495057; stroke: #495057"/>
     <use xlink:href="#m959ef079ed" x="658.021231" y="126.11577" style="fill: #495057; stroke: #495057"/>
     <use xlink:href="#m959ef079ed" x="727.900638" y="237.337011" style="fill: #495057; stroke: #495057"/>
    </g>
   </g>
   <g id="line2d_36">
    <g clip-path="url(#p5966ad2fcb)">
     <use xlink:href="#m959ef079ed" x="98.985981" y="68.938712" style="fill: #495057; stroke: #495057"/>
     <use xlink:href="#m959ef079ed" x="168.865387" y="71.091138" style="fill: #495057; stroke: #495057"/>
     <use xlink:href="#m959ef079ed" x="238.744794" y="74.044813" style="fill: #495057; stroke: #495057"/>
     <use xlink:href="#m959ef079ed" x="308.6242" y="72.913706" style="fill: #495057; stroke: #495057"/>
     <use xlink:href="#m959ef079ed" x="378.503606" y="35.630007" style="fill: #495057; stroke: #495057"/>
     <use xlink:href="#m959ef079ed" x="448.383013" y="36.260518" style="fill: #495057; stroke: #495057"/>
     <use xlink:href="#m959ef079ed" x="518.262419" y="61.123484" style="fill: #495057; stroke: #495057"/>
     <use xlink:href="#m959ef079ed" x="588.141825" y="62.891993" style="fill: #495057; stroke: #495057"/>
     <use xlink:href="#m959ef079ed" x="658.021231" y="52.561488" style="fill: #495057; stroke: #495057"/>
     <use xlink:href="#m959ef079ed" x="727.900638" y="206.935107" style="fill: #495057; stroke: #495057"/>
    </g>
   </g>
   <g id="LineCollection_3">
    <path d="M 112.961862 269.583602 
L 112.961862 113.800829 
" clip-path="url(#p5966ad2fcb)" style="fill: none; stroke: #495057"/>
    <path d="M 182.841269 301.867656 
L 182.841269 50.270899 
" clip-path="url(#p5966ad2fcb)" style="fill: none; stroke: #495057"/>
    <path d="M 252.720675 244.122825 
L 252.720675 50.16159 
" clip-path="url(#p5966ad2fcb)" style="fill: none; stroke: #495057"/>
    <path d="M 322.600081 190.237695 
L 322.600081 63.260182 
" clip-path="url(#p5966ad2fcb)" style="fill: none; stroke: #495057"/>
    <path d="M 392.479487 251.993561 
L 392.479487 190.067988 
" clip-path="url(#p5966ad2fcb)" style="fill: none; stroke: #495057"/>
    <path d="M 462.358894 216.870072 
L 462.358894 125.155432 
" clip-path="url(#p5966ad2fcb)" style="fill: none; stroke: #495057"/>
    <path d="M 532.2383 179.564156 
L 532.2383 72.169659 
" clip-path="url(#p5966ad2fcb)" style="fill: none; stroke: #495057"/>
    <path d="M 602.117706 275.907165 
L 602.117706 77.7742 
" clip-path="url(#p5966ad2fcb)" style="fill: none; stroke: #495057"/>
    <path d="M 671.997113 170.595474 
L 671.997113 52.733775 
" clip-path="url(#p5966ad2fcb)" style="fill: none; stroke: #495057"/>
    <path d="M 741.876519 116.848343 
L 741.876519 52.835671 
" clip-path="url(#p5966ad2fcb)" style="fill: none; stroke: #495057"/>
   </g>
   <g id="line2d_37">
    <g clip-path="url(#p5966ad2fcb)">
     <use xlink:href="#m959ef079ed" x="112.961862" y="269.583602" style="fill: #495057; stroke: #495057"/>
     <use xlink:href="#m959ef079ed" x="182.841269" y="301.867656" style="fill: #495057; stroke: #495057"/>
     <use xlink:href="#m959ef079ed" x="252.720675" y="244.122825" style="fill: #495057; stroke: #495057"/>
     <use xlink:href="#m959ef079ed" x="322.600081" y="190.237695" style="fill: #495057; stroke: #495057"/>
     <use xlink:href="#m959ef079ed" x="392.479487" y="251.993561" style="fill: #495057; stroke: #495057"/>
     <use xlink:href="#m959ef079ed" x="462.358894" y="216.870072" style="fill: #495057; stroke: #495057"/>
     <use xlink:href="#m959ef079ed" x="532.2383" y="179.564156" style="fill: #495057; stroke: #495057"/>
     <use xlink:href="#m959ef079ed" x="602.117706" y="275.907165" style="fill: #495057; stroke: #495057"/>
     <use xlink:href="#m959ef079ed" x="671.997113" y="170.595474" style="fill: #495057; stroke: #495057"/>
     <use xlink:href="#m959ef079ed" x="741.876519" y="116.848343" style="fill: #495057; stroke: #495057"/>
    </g>
   </g>
   <g id="line2d_38">
    <g clip-path="url(#p5966ad2fcb)">
     <use xlink:href="#m959ef079ed" x="112.961862" y="113.800829" style="fill: #495057; stroke: #495057"/>
     <use xlink:href="#m959ef079ed" x="182.841269" y="50.270899" style="fill: #495057; stroke: #495057"/>
     <use xlink:href="#m959ef079ed" x="252.720675" y="50.16159" style="fill: #495057; stroke: #495057"/>
     <use xlink:href="#m959ef079ed" x="322.600081" y="63.260182" style="fill: #495057; stroke: #495057"/>
     <use xlink:href="#m959ef079ed" x="392.479487" y="190.067988" style="fill: #495057; stroke: #495057"/>
     <use xlink:href="#m959ef079ed" x="462.358894" y="125.155432" style="fill: #495057; stroke: #495057"/>
     <use xlink:href="#m959ef079ed" x="532.2383" y="72.169659" style="fill: #495057; stroke: #495057"/>
     <use xlink:href="#m959ef079ed" x="602.117706" y="77.7742" style="fill: #495057; stroke: #495057"/>
     <use xlink:href="#m959ef079ed" x="671.997113" y="52.733775" style="fill: #495057; stroke: #495057"/>
     <use xlink:href="#m959ef079ed" x="741.876519" y="52.835671" style="fill: #495057; stroke: #495057"/>
    </g>
   </g>
   <g id="LineCollection_4">
    <path d="M 126.937744 79.798373 
L 126.937744 71.580443 
" clip-path="url(#p5966ad2fcb)" style="fill: none; stroke: #495057"/>
    <path d="M 196.81715 78.351392 
L 196.81715 72.72248 
" clip-path="url(#p5966ad2fcb)" style="fill: none; stroke: #495057"/>
    <path d="M 266.696556 83.521581 
L 266.696556 73.763874 
" clip-path="url(#p5966ad2fcb)" style="fill: none; stroke: #495057"/>
    <path d="M 336.575962 79.147239 
L 336.575962 68.357871 
" clip-path="url(#p5966ad2fcb)" style="fill: none; stroke: #495057"/>
    <path d="M 406.455369 65.133262 
L 406.455369 57.105527 
" clip-path="url(#p5966ad2fcb)" style="fill: none; stroke: #495057"/>
    <path d="M 476.334775 69.95331 
L 476.334775 65.052022 
" clip-path="url(#p5966ad2fcb)" style="fill: none; stroke: #495057"/>
    <path d="M 546.214181 70.602636 
L 546.214181 66.410169 
" clip-path="url(#p5966ad2fcb)" style="fill: none; stroke: #495057"/>
    <path d="M 616.093588 69.583804 
L 616.093588 65.696209 
" clip-path="url(#p5966ad2fcb)" style="fill: none; stroke: #495057"/>
    <path d="M 685.972994 69.424138 
L 685.972994 64.921418 
" clip-path="url(#p5966ad2fcb)" style="fill: none; stroke: #495057"/>
    <path d="M 755.8524 67.992331 
L 755.8524 60.047904 
" clip-path="url(#p5966ad2fcb)" style="fill: none; stroke: #495057"/>
   </g>
   <g id="line2d_39">
    <g clip-path="url(#p5966ad2fcb)">
     <use xlink:href="#m959ef079ed" x="126.937744" y="79.798373" style="fill: #495057; stroke: #495057"/>
     <use xlink:href="#m959ef079ed" x="196.81715" y="78.351392" style="fill: #495057; stroke: #495057"/>
     <use xlink:href="#m959ef079ed" x="266.696556" y="83.521581" style="fill: #495057; stroke: #495057"/>
     <use xlink:href="#m959ef079ed" x="336.575962" y="79.147239" style="fill: #495057; stroke: #495057"/>
     <use xlink:href="#m959ef079ed" x="406.455369" y="65.133262" style="fill: #495057; stroke: #495057"/>
     <use xlink:href="#m959ef079ed" x="476.334775" y="69.95331" style="fill: #495057; stroke: #495057"/>
     <use xlink:href="#m959ef079ed" x="546.214181" y="70.602636" style="fill: #495057; stroke: #495057"/>
     <use xlink:href="#m959ef079ed" x="616.093588" y="69.583804" style="fill: #495057; stroke: #495057"/>
     <use xlink:href="#m959ef079ed" x="685.972994" y="69.424138" style="fill: #495057; stroke: #495057"/>
     <use xlink:href="#m959ef079ed" x="755.8524" y="67.992331" style="fill: #495057; stroke: #495057"/>
    </g>
   </g>
   <g id="line2d_40">
    <g clip-path="url(#p5966ad2fcb)">
     <use xlink:href="#m959ef079ed" x="126.937744" y="71.580443" style="fill: #495057; stroke: #495057"/>
     <use xlink:href="#m959ef079ed" x="196.81715" y="72.72248" style="fill: #495057; stroke: #495057"/>
     <use xlink:href="#m959ef079ed" x="266.696556" y="73.763874" style="fill: #495057; stroke: #495057"/>
     <use xlink:href="#m959ef079ed" x="336.575962" y="68.357871" style="fill: #495057; stroke: #495057"/>
     <use xlink:href="#m959ef079ed" x="406.455369" y="57.105527" style="fill: #495057; stroke: #495057"/>
     <use xlink:href="#m959ef079ed" x="476.334775" y="65.052022" style="fill: #495057; stroke: #495057"/>
     <use xlink:href="#m959ef079ed" x="546.214181" y="66.410169" style="fill: #495057; stroke: #495057"/>
     <use xlink:href="#m959ef079ed" x="616.093588" y="65.696209" style="fill: #495057; stroke: #495057"/>
     <use xlink:href="#m959ef079ed" x="685.972994" y="64.921418" style="fill: #495057; stroke: #495057"/>
     <use xlink:href="#m959ef079ed" x="755.8524" y="60.047904" style="fill: #495057; stroke: #495057"/>
    </g>
   </g>
   <g id="patch_43">
    <path d="M 43.78125 288.430125 
L 43.78125 22.318125 
" style="fill: none; stroke: #495057; stroke-width: 0.8; stroke-linejoin: miter; stroke-linecap: square"/>
   </g>
   <g id="patch_44">
    <path d="M 43.78125 288.430125 
L 797.08125 288.430125 
" style="fill: none; stroke: #495057; stroke-width: 0.8; stroke-linejoin: miter; stroke-linecap: square"/>
   </g>
   <g id="text_18">
    <!-- Final retained value per task  (mean ± 95% CI, 5 seeds) -->
    <g style="fill: #212529" transform="translate(43.78125 16.318125) scale(0.12 -0.12)">
     <defs>
      <path id="DejaVuSans-Bold-46" d="M 588 4666 
L 3834 4666 
L 3834 3756 
L 1791 3756 
L 1791 2888 
L 3713 2888 
L 3713 1978 
L 1791 1978 
L 1791 0 
L 588 0 
L 588 4666 
z
" transform="scale(0.015625)"/>
      <path id="DejaVuSans-Bold-69" d="M 538 3500 
L 1656 3500 
L 1656 0 
L 538 0 
L 538 3500 
z
M 538 4863 
L 1656 4863 
L 1656 3950 
L 538 3950 
L 538 4863 
z
" transform="scale(0.015625)"/>
      <path id="DejaVuSans-Bold-6e" d="M 4056 2131 
L 4056 0 
L 2931 0 
L 2931 347 
L 2931 1631 
Q 2931 2084 2911 2256 
Q 2891 2428 2841 2509 
Q 2775 2619 2662 2680 
Q 2550 2741 2406 2741 
Q 2056 2741 1856 2470 
Q 1656 2200 1656 1722 
L 1656 0 
L 538 0 
L 538 3500 
L 1656 3500 
L 1656 2988 
Q 1909 3294 2193 3439 
Q 2478 3584 2822 3584 
Q 3428 3584 3742 3212 
Q 4056 2841 4056 2131 
z
" transform="scale(0.015625)"/>
      <path id="DejaVuSans-Bold-61" d="M 2106 1575 
Q 1756 1575 1579 1456 
Q 1403 1338 1403 1106 
Q 1403 894 1545 773 
Q 1688 653 1941 653 
Q 2256 653 2472 879 
Q 2688 1106 2688 1447 
L 2688 1575 
L 2106 1575 
z
M 3816 1997 
L 3816 0 
L 2688 0 
L 2688 519 
Q 2463 200 2181 54 
Q 1900 -91 1497 -91 
Q 953 -91 614 226 
Q 275 544 275 1050 
Q 275 1666 698 1953 
Q 1122 2241 2028 2241 
L 2688 2241 
L 2688 2328 
Q 2688 2594 2478 2717 
Q 2269 2841 1825 2841 
Q 1466 2841 1156 2769 
Q 847 2697 581 2553 
L 581 3406 
Q 941 3494 1303 3539 
Q 1666 3584 2028 3584 
Q 2975 3584 3395 3211 
Q 3816 2838 3816 1997 
z
" transform="scale(0.015625)"/>
      <path id="DejaVuSans-Bold-6c" d="M 538 4863 
L 1656 4863 
L 1656 0 
L 538 0 
L 538 4863 
z
" transform="scale(0.015625)"/>
      <path id="DejaVuSans-Bold-20" transform="scale(0.015625)"/>
      <path id="DejaVuSans-Bold-72" d="M 3138 2547 
Q 2991 2616 2845 2648 
Q 2700 2681 2553 2681 
Q 2122 2681 1889 2404 
Q 1656 2128 1656 1613 
L 1656 0 
L 538 0 
L 538 3500 
L 1656 3500 
L 1656 2925 
Q 1872 3269 2151 3426 
Q 2431 3584 2822 3584 
Q 2878 3584 2943 3579 
Q 3009 3575 3134 3559 
L 3138 2547 
z
" transform="scale(0.015625)"/>
      <path id="DejaVuSans-Bold-65" d="M 4031 1759 
L 4031 1441 
L 1416 1441 
Q 1456 1047 1700 850 
Q 1944 653 2381 653 
Q 2734 653 3104 758 
Q 3475 863 3866 1075 
L 3866 213 
Q 3469 63 3072 -14 
Q 2675 -91 2278 -91 
Q 1328 -91 801 392 
Q 275 875 275 1747 
Q 275 2603 792 3093 
Q 1309 3584 2216 3584 
Q 3041 3584 3536 3087 
Q 4031 2591 4031 1759 
z
M 2881 2131 
Q 2881 2450 2695 2645 
Q 2509 2841 2209 2841 
Q 1884 2841 1681 2658 
Q 1478 2475 1428 2131 
L 2881 2131 
z
" transform="scale(0.015625)"/>
      <path id="DejaVuSans-Bold-74" d="M 1759 4494 
L 1759 3500 
L 2913 3500 
L 2913 2700 
L 1759 2700 
L 1759 1216 
Q 1759 972 1856 886 
Q 1953 800 2241 800 
L 2816 800 
L 2816 0 
L 1856 0 
Q 1194 0 917 276 
Q 641 553 641 1216 
L 641 2700 
L 84 2700 
L 84 3500 
L 641 3500 
L 641 4494 
L 1759 4494 
z
" transform="scale(0.015625)"/>
      <path id="DejaVuSans-Bold-64" d="M 2919 2988 
L 2919 4863 
L 4044 4863 
L 4044 0 
L 2919 0 
L 2919 506 
Q 2688 197 2409 53 
Q 2131 -91 1766 -91 
Q 1119 -91 703 423 
Q 288 938 288 1747 
Q 288 2556 703 3070 
Q 1119 3584 1766 3584 
Q 2128 3584 2408 3439 
Q 2688 3294 2919 2988 
z
M 2181 722 
Q 2541 722 2730 984 
Q 2919 1247 2919 1747 
Q 2919 2247 2730 2509 
Q 2541 2772 2181 2772 
Q 1825 2772 1636 2509 
Q 1447 2247 1447 1747 
Q 1447 1247 1636 984 
Q 1825 722 2181 722 
z
" transform="scale(0.015625)"/>
      <path id="DejaVuSans-Bold-76" d="M 97 3500 
L 1216 3500 
L 2088 1081 
L 2956 3500 
L 4078 3500 
L 2700 0 
L 1472 0 
L 97 3500 
z
" transform="scale(0.015625)"/>
      <path id="DejaVuSans-Bold-75" d="M 500 1363 
L 500 3500 
L 1625 3500 
L 1625 3150 
Q 1625 2866 1622 2436 
Q 1619 2006 1619 1863 
Q 1619 1441 1641 1255 
Q 1663 1069 1716 984 
Q 1784 875 1895 815 
Q 2006 756 2150 756 
Q 2500 756 2700 1025 
Q 2900 1294 2900 1772 
L 2900 3500 
L 4019 3500 
L 4019 0 
L 2900 0 
L 2900 506 
Q 2647 200 2364 54 
Q 2081 -91 1741 -91 
Q 1134 -91 817 281 
Q 500 653 500 1363 
z
" transform="scale(0.015625)"/>
      <path id="DejaVuSans-Bold-70" d="M 1656 506 
L 1656 -1331 
L 538 -1331 
L 538 3500 
L 1656 3500 
L 1656 2988 
Q 1888 3294 2169 3439 
Q 2450 3584 2816 3584 
Q 3463 3584 3878 3070 
Q 4294 2556 4294 1747 
Q 4294 938 3878 423 
Q 3463 -91 2816 -91 
Q 2450 -91 2169 54 
Q 1888 200 1656 506 
z
M 2400 2772 
Q 2041 2772 1848 2508 
Q 1656 2244 1656 1747 
Q 1656 1250 1848 986 
Q 2041 722 2400 722 
Q 2759 722 2948 984 
Q 3138 1247 3138 1747 
Q 3138 2247 2948 2509 
Q 2759 2772 2400 2772 
z
" transform="scale(0.015625)"/>
      <path id="DejaVuSans-Bold-73" d="M 3272 3391 
L 3272 2541 
Q 2913 2691 2578 2766 
Q 2244 2841 1947 2841 
Q 1628 2841 1473 2761 
Q 1319 2681 1319 2516 
Q 1319 2381 1436 2309 
Q 1553 2238 1856 2203 
L 2053 2175 
Q 2913 2066 3209 1816 
Q 3506 1566 3506 1031 
Q 3506 472 3093 190 
Q 2681 -91 1863 -91 
Q 1516 -91 1145 -36 
Q 775 19 384 128 
L 384 978 
Q 719 816 1070 734 
Q 1422 653 1784 653 
Q 2113 653 2278 743 
Q 2444 834 2444 1013 
Q 2444 1163 2330 1236 
Q 2216 1309 1875 1350 
L 1678 1375 
Q 931 1469 631 1722 
Q 331 1975 331 2491 
Q 331 3047 712 3315 
Q 1094 3584 1881 3584 
Q 2191 3584 2531 3537 
Q 2872 3491 3272 3391 
z
" transform="scale(0.015625)"/>
      <path id="DejaVuSans-Bold-6b" d="M 538 4863 
L 1656 4863 
L 1656 2216 
L 2944 3500 
L 4244 3500 
L 2534 1894 
L 4378 0 
L 3022 0 
L 1656 1459 
L 1656 0 
L 538 0 
L 538 4863 
z
" transform="scale(0.015625)"/>
      <path id="DejaVuSans-Bold-28" d="M 2413 -844 
L 1484 -844 
Q 1006 -72 778 623 
Q 550 1319 550 2003 
Q 550 2688 779 3389 
Q 1009 4091 1484 4856 
L 2413 4856 
Q 2013 4116 1813 3408 
Q 1613 2700 1613 2009 
Q 1613 1319 1811 609 
Q 2009 -100 2413 -844 
z
" transform="scale(0.015625)"/>
      <path id="DejaVuSans-Bold-6d" d="M 3781 2919 
Q 3994 3244 4286 3414 
Q 4578 3584 4928 3584 
Q 5531 3584 5847 3212 
Q 6163 2841 6163 2131 
L 6163 0 
L 5038 0 
L 5038 1825 
Q 5041 1866 5042 1909 
Q 5044 1953 5044 2034 
Q 5044 2406 4934 2573 
Q 4825 2741 4581 2741 
Q 4263 2741 4089 2478 
Q 3916 2216 3909 1719 
L 3909 0 
L 2784 0 
L 2784 1825 
Q 2784 2406 2684 2573 
Q 2584 2741 2328 2741 
Q 2006 2741 1831 2477 
Q 1656 2213 1656 1722 
L 1656 0 
L 531 0 
L 531 3500 
L 1656 3500 
L 1656 2988 
Q 1863 3284 2130 3434 
Q 2397 3584 2719 3584 
Q 3081 3584 3359 3409 
Q 3638 3234 3781 2919 
z
" transform="scale(0.015625)"/>
      <path id="DejaVuSans-Bold-b1" d="M 3053 4013 
L 3053 2906 
L 4684 2906 
L 4684 2169 
L 3053 2169 
L 3053 1063 
L 2309 1063 
L 2309 2169 
L 678 2169 
L 678 2906 
L 2309 2906 
L 2309 4013 
L 3053 4013 
z
M 678 744 
L 4684 744 
L 4684 0 
L 678 0 
L 678 744 
z
" transform="scale(0.015625)"/>
      <path id="DejaVuSans-Bold-39" d="M 641 103 
L 641 966 
Q 928 831 1190 764 
Q 1453 697 1709 697 
Q 2247 697 2547 995 
Q 2847 1294 2900 1881 
Q 2688 1725 2447 1647 
Q 2206 1569 1925 1569 
Q 1209 1569 770 1986 
Q 331 2403 331 3084 
Q 331 3838 820 4291 
Q 1309 4744 2131 4744 
Q 3044 4744 3544 4128 
Q 4044 3513 4044 2388 
Q 4044 1231 3459 570 
Q 2875 -91 1856 -91 
Q 1528 -91 1228 -42 
Q 928 6 641 103 
z
M 2125 2350 
Q 2441 2350 2600 2554 
Q 2759 2759 2759 3169 
Q 2759 3575 2600 3781 
Q 2441 3988 2125 3988 
Q 1809 3988 1650 3781 
Q 1491 3575 1491 3169 
Q 1491 2759 1650 2554 
Q 1809 2350 2125 2350 
z
" transform="scale(0.015625)"/>
      <path id="DejaVuSans-Bold-35" d="M 678 4666 
L 3669 4666 
L 3669 3781 
L 1638 3781 
L 1638 3059 
Q 1775 3097 1914 3117 
Q 2053 3138 2203 3138 
Q 3056 3138 3531 2711 
Q 4006 2284 4006 1522 
Q 4006 766 3489 337 
Q 2972 -91 2053 -91 
Q 1656 -91 1267 -14 
Q 878 63 494 219 
L 494 1166 
Q 875 947 1217 837 
Q 1559 728 1863 728 
Q 2300 728 2551 942 
Q 2803 1156 2803 1522 
Q 2803 1891 2551 2103 
Q 2300 2316 1863 2316 
Q 1603 2316 1309 2248 
Q 1016 2181 678 2041 
L 678 4666 
z
" transform="scale(0.015625)"/>
      <path id="DejaVuSans-Bold-25" d="M 4959 1925 
Q 4738 1925 4616 1733 
Q 4494 1541 4494 1184 
Q 4494 825 4614 633 
Q 4734 441 4959 441 
Q 5184 441 5303 633 
Q 5422 825 5422 1184 
Q 5422 1541 5301 1733 
Q 5181 1925 4959 1925 
z
M 4959 2450 
Q 5541 2450 5875 2112 
Q 6209 1775 6209 1184 
Q 6209 594 5875 251 
Q 5541 -91 4959 -91 
Q 4378 -91 4042 251 
Q 3706 594 3706 1184 
Q 3706 1772 4042 2111 
Q 4378 2450 4959 2450 
z
M 2094 -91 
L 1403 -91 
L 4319 4750 
L 5013 4750 
L 2094 -91 
z
M 1453 4750 
Q 2034 4750 2367 4411 
Q 2700 4072 2700 3481 
Q 2700 2891 2367 2550 
Q 2034 2209 1453 2209 
Q 872 2209 539 2550 
Q 206 2891 206 3481 
Q 206 4072 539 4411 
Q 872 4750 1453 4750 
z
M 1453 4225 
Q 1228 4225 1106 4031 
Q 984 3838 984 3481 
Q 984 3122 1106 2926 
Q 1228 2731 1453 2731 
Q 1678 2731 1798 2926 
Q 1919 3122 1919 3481 
Q 1919 3838 1797 4031 
Q 1675 4225 1453 4225 
z
" transform="scale(0.015625)"/>
      <path id="DejaVuSans-Bold-43" d="M 4288 256 
Q 3956 84 3597 -3 
Q 3238 -91 2847 -91 
Q 1681 -91 1000 561 
Q 319 1213 319 2328 
Q 319 3447 1000 4098 
Q 1681 4750 2847 4750 
Q 3238 4750 3597 4662 
Q 3956 4575 4288 4403 
L 4288 3438 
Q 3953 3666 3628 3772 
Q 3303 3878 2944 3878 
Q 2300 3878 1931 3465 
Q 1563 3053 1563 2328 
Q 1563 1606 1931 1193 
Q 2300 781 2944 781 
Q 3303 781 3628 887 
Q 3953 994 4288 1222 
L 4288 256 
z
" transform="scale(0.015625)"/>
      <path id="DejaVuSans-Bold-49" d="M 588 4666 
L 1791 4666 
L 1791 0 
L 588 0 
L 588 4666 
z
" transform="scale(0.015625)"/>
      <path id="DejaVuSans-Bold-2c" d="M 653 1209 
L 1778 1209 
L 1778 256 
L 1006 -909 
L 341 -909 
L 653 256 
L 653 1209 
z
" transform="scale(0.015625)"/>
      <path id="DejaVuSans-Bold-29" d="M 513 -844 
Q 913 -100 1113 609 
Q 1313 1319 1313 2009 
Q 1313 2700 1113 3408 
Q 913 4116 513 4856 
L 1441 4856 
Q 1916 4091 2145 3389 
Q 2375 2688 2375 2003 
Q 2375 1319 2147 623 
Q 1919 -72 1441 -844 
L 513 -844 
z
" transform="scale(0.015625)"/>
     </defs>
     <use xlink:href="#DejaVuSans-Bold-46"/>
     <use xlink:href="#DejaVuSans-Bold-69" x="68.310547"/>
     <use xlink:href="#DejaVuSans-Bold-6e" x="102.587891"/>
     <use xlink:href="#DejaVuSans-Bold-61" x="173.779297"/>
     <use xlink:href="#DejaVuSans-Bold-6c" x="241.259766"/>
     <use xlink:href="#DejaVuSans-Bold-20" x="275.537109"/>
     <use xlink:href="#DejaVuSans-Bold-72" x="310.351562"/>
     <use xlink:href="#DejaVuSans-Bold-65" x="359.667969"/>
     <use xlink:href="#DejaVuSans-Bold-74" x="427.490234"/>
     <use xlink:href="#DejaVuSans-Bold-61" x="475.292969"/>
     <use xlink:href="#DejaVuSans-Bold-69" x="542.773438"/>
     <use xlink:href="#DejaVuSans-Bold-6e" x="577.050781"/>
     <use xlink:href="#DejaVuSans-Bold-65" x="648.242188"/>
     <use xlink:href="#DejaVuSans-Bold-64" x="716.064453"/>
     <use xlink:href="#DejaVuSans-Bold-20" x="787.646484"/>
     <use xlink:href="#DejaVuSans-Bold-76" x="822.460938"/>
     <use xlink:href="#DejaVuSans-Bold-61" x="887.646484"/>
     <use xlink:href="#DejaVuSans-Bold-6c" x="955.126953"/>
     <use xlink:href="#DejaVuSans-Bold-75" x="989.404297"/>
     <use xlink:href="#DejaVuSans-Bold-65" x="1060.595703"/>
     <use xlink:href="#DejaVuSans-Bold-20" x="1128.417969"/>
     <use xlink:href="#DejaVuSans-Bold-70" x="1163.232422"/>
     <use xlink:href="#DejaVuSans-Bold-65" x="1234.814453"/>
     <use xlink:href="#DejaVuSans-Bold-72" x="1302.636719"/>
     <use xlink:href="#DejaVuSans-Bold-20" x="1351.953125"/>
     <use xlink:href="#DejaVuSans-Bold-74" x="1386.767578"/>
     <use xlink:href="#DejaVuSans-Bold-61" x="1434.570312"/>
     <use xlink:href="#DejaVuSans-Bold-73" x="1502.050781"/>
     <use xlink:href="#DejaVuSans-Bold-6b" x="1561.572266"/>
     <use xlink:href="#DejaVuSans-Bold-20" x="1628.076172"/>
     <use xlink:href="#DejaVuSans-Bold-20" x="1662.890625"/>
     <use xlink:href="#DejaVuSans-Bold-28" x="1697.705078"/>
     <use xlink:href="#DejaVuSans-Bold-6d" x="1743.408203"/>
     <use xlink:href="#DejaVuSans-Bold-65" x="1847.607422"/>
     <use xlink:href="#DejaVuSans-Bold-61" x="1915.429688"/>
     <use xlink:href="#DejaVuSans-Bold-6e" x="1982.910156"/>
     <use xlink:href="#DejaVuSans-Bold-20" x="2054.101562"/>
     <use xlink:href="#DejaVuSans-Bold-b1" x="2088.916016"/>
     <use xlink:href="#DejaVuSans-Bold-20" x="2172.705078"/>
     <use xlink:href="#DejaVuSans-Bold-39" x="2207.519531"/>
     <use xlink:href="#DejaVuSans-Bold-35" x="2277.099609"/>
     <use xlink:href="#DejaVuSans-Bold-25" x="2346.679688"/>
     <use xlink:href="#DejaVuSans-Bold-20" x="2446.875"/>
     <use xlink:href="#DejaVuSans-Bold-43" x="2481.689453"/>
     <use xlink:href="#DejaVuSans-Bold-49" x="2555.078125"/>
     <use xlink:href="#DejaVuSans-Bold-2c" x="2592.285156"/>
     <use xlink:href="#DejaVuSans-Bold-20" x="2630.273438"/>
     <use xlink:href="#DejaVuSans-Bold-35" x="2665.087891"/>
     <use xlink:href="#DejaVuSans-Bold-20" x="2734.667969"/>
     <use xlink:href="#DejaVuSans-Bold-73" x="2769.482422"/>
     <use xlink:href="#DejaVuSans-Bold-65" x="2829.003906"/>
     <use xlink:href="#DejaVuSans-Bold-65" x="2896.826172"/>
     <use xlink:href="#DejaVuSans-Bold-64" x="2964.648438"/>
     <use xlink:href="#DejaVuSans-Bold-73" x="3036.230469"/>
     <use xlink:href="#DejaVuSans-Bold-29" x="3095.751953"/>
    </g>
   </g>
   <g id="legend_1">
    <g id="patch_45">
     <path d="M 241.8375 335.302159 
L 259.8375 335.302159 
L 259.8375 329.002159 
L 241.8375 329.002159 
z
" style="fill: #059669"/>
    </g>
    <g id="text_19">
     <!-- Constrained min-max (ours) -->
     <g style="fill: #212529" transform="translate(267.0375 335.302159) scale(0.09 -0.09)">
      <defs>
       <path id="DejaVuSans-43" d="M 4122 4306 
L 4122 3641 
Q 3803 3938 3442 4084 
Q 3081 4231 2675 4231 
Q 1875 4231 1450 3742 
Q 1025 3253 1025 2328 
Q 1025 1406 1450 917 
Q 1875 428 2675 428 
Q 3081 428 3442 575 
Q 3803 722 4122 1019 
L 4122 359 
Q 3791 134 3420 21 
Q 3050 -91 2638 -91 
Q 1578 -91 968 557 
Q 359 1206 359 2328 
Q 359 3453 968 4101 
Q 1578 4750 2638 4750 
Q 3056 4750 3426 4639 
Q 3797 4528 4122 4306 
z
" transform="scale(0.015625)"/>
       <path id="DejaVuSans-74" d="M 1172 4494 
L 1172 3500 
L 2356 3500 
L 2356 3053 
L 1172 3053 
L 1172 1153 
Q 1172 725 1289 603 
Q 1406 481 1766 481 
L 2356 481 
L 2356 0 
L 1766 0 
Q 1100 0 847 248 
Q 594 497 594 1153 
L 594 3053 
L 172 3053 
L 172 3500 
L 594 3500 
L 594 4494 
L 1172 4494 
z
" transform="scale(0.015625)"/>
       <path id="DejaVuSans-72" d="M 2631 2963 
Q 2534 3019 2420 3045 
Q 2306 3072 2169 3072 
Q 1681 3072 1420 2755 
Q 1159 2438 1159 1844 
L 1159 0 
L 581 0 
L 581 3500 
L 1159 3500 
L 1159 2956 
Q 1341 3275 1631 3429 
Q 1922 3584 2338 3584 
Q 2397 3584 2469 3576 
Q 2541 3569 2628 3553 
L 2631 2963 
z
" transform="scale(0.015625)"/>
       <path id="DejaVuSans-6d" d="M 3328 2828 
Q 3544 3216 3844 3400 
Q 4144 3584 4550 3584 
Q 5097 3584 5394 3201 
Q 5691 2819 5691 2113 
L 5691 0 
L 5113 0 
L 5113 2094 
Q 5113 2597 4934 2840 
Q 4756 3084 4391 3084 
Q 3944 3084 3684 2787 
Q 3425 2491 3425 1978 
L 3425 0 
L 2847 0 
L 2847 2094 
Q 2847 2600 2669 2842 
Q 2491 3084 2119 3084 
Q 1678 3084 1418 2786 
Q 1159 2488 1159 1978 
L 1159 0 
L 581 0 
L 581 3500 
L 1159 3500 
L 1159 2956 
Q 1356 3278 1631 3431 
Q 1906 3584 2284 3584 
Q 2666 3584 2933 3390 
Q 3200 3197 3328 2828 
z
" transform="scale(0.015625)"/>
       <path id="DejaVuSans-2d" d="M 313 2009 
L 1997 2009 
L 1997 1497 
L 313 1497 
L 313 2009 
z
" transform="scale(0.015625)"/>
       <path id="DejaVuSans-78" d="M 3513 3500 
L 2247 1797 
L 3578 0 
L 2900 0 
L 1881 1375 
L 863 0 
L 184 0 
L 1544 1831 
L 300 3500 
L 978 3500 
L 1906 2253 
L 2834 3500 
L 3513 3500 
z
" transform="scale(0.015625)"/>
      </defs>
      <use xlink:href="#DejaVuSans-43"/>
      <use xlink:href="#DejaVuSans-6f" x="69.824219"/>
      <use xlink:href="#DejaVuSans-6e" x="131.005859"/>
      <use xlink:href="#DejaVuSans-73" x="194.384766"/>
      <use xlink:href="#DejaVuSans-74" x="246.484375"/>
      <use xlink:href="#DejaVuSans-72" x="285.693359"/>
      <use xlink:href="#DejaVuSans-61" x="326.806641"/>
      <use xlink:href="#DejaVuSans-69" x="388.085938"/>
      <use xlink:href="#DejaVuSans-6e" x="415.869141"/>
      <use xlink:href="#DejaVuSans-65" x="479.248047"/>
      <use xlink:href="#DejaVuSans-64" x="540.771484"/>
      <use xlink:href="#DejaVuSans-20" x="604.248047"/>
      <use xlink:href="#DejaVuSans-6d" x="636.035156"/>
      <use xlink:href="#DejaVuSans-69" x="733.447266"/>
      <use xlink:href="#DejaVuSans-6e" x="761.230469"/>
      <use xlink:href="#DejaVuSans-2d" x="824.609375"/>
      <use xlink:href="#DejaVuSans-6d" x="860.693359"/>
      <use xlink:href="#DejaVuSans-61" x="958.105469"/>
      <use xlink:href="#DejaVuSans-78" x="1019.384766"/>
      <use xlink:href="#DejaVuSans-20" x="1078.564453"/>
      <use xlink:href="#DejaVuSans-28" x="1110.351562"/>
      <use xlink:href="#DejaVuSans-6f" x="1149.365234"/>
      <use xlink:href="#DejaVuSans-75" x="1210.546875"/>
      <use xlink:href="#DejaVuSans-72" x="1273.925781"/>
      <use xlink:href="#DejaVuSans-73" x="1315.039062"/>
      <use xlink:href="#DejaVuSans-29" x="1367.138672"/>
     </g>
    </g>
    <g id="patch_46">
     <path d="M 241.8375 348.512471 
L 259.8375 348.512471 
L 259.8375 342.212471 
L 241.8375 342.212471 
z
" style="fill: #d97706"/>
    </g>
    <g id="text_20">
     <!-- Unconstrained ablation (duals off) -->
     <g style="fill: #212529" transform="translate(267.0375 348.512471) scale(0.09 -0.09)">
      <defs>
       <path id="DejaVuSans-55" d="M 556 4666 
L 1191 4666 
L 1191 1831 
Q 1191 1081 1462 751 
Q 1734 422 2344 422 
Q 2950 422 3222 751 
Q 3494 1081 3494 1831 
L 3494 4666 
L 4128 4666 
L 4128 1753 
Q 4128 841 3676 375 
Q 3225 -91 2344 -91 
Q 1459 -91 1007 375 
Q 556 841 556 1753 
L 556 4666 
z
" transform="scale(0.015625)"/>
       <path id="DejaVuSans-62" d="M 3116 1747 
Q 3116 2381 2855 2742 
Q 2594 3103 2138 3103 
Q 1681 3103 1420 2742 
Q 1159 2381 1159 1747 
Q 1159 1113 1420 752 
Q 1681 391 2138 391 
Q 2594 391 2855 752 
Q 3116 1113 3116 1747 
z
M 1159 2969 
Q 1341 3281 1617 3432 
Q 1894 3584 2278 3584 
Q 2916 3584 3314 3078 
Q 3713 2572 3713 1747 
Q 3713 922 3314 415 
Q 2916 -91 2278 -91 
Q 1894 -91 1617 61 
Q 1341 213 1159 525 
L 1159 0 
L 581 0 
L 581 4863 
L 1159 4863 
L 1159 2969 
z
" transform="scale(0.015625)"/>
      </defs>
      <use xlink:href="#DejaVuSans-55"/>
      <use xlink:href="#DejaVuSans-6e" x="73.193359"/>
      <use xlink:href="#DejaVuSans-63" x="136.572266"/>
      <use xlink:href="#DejaVuSans-6f" x="191.552734"/>
      <use xlink:href="#DejaVuSans-6e" x="252.734375"/>
      <use xlink:href="#DejaVuSans-73" x="316.113281"/>
      <use xlink:href="#DejaVuSans-74" x="368.212891"/>
      <use xlink:href="#DejaVuSans-72" x="407.421875"/>
      <use xlink:href="#DejaVuSans-61" x="448.535156"/>
      <use xlink:href="#DejaVuSans-69" x="509.814453"/>
      <use xlink:href="#DejaVuSans-6e" x="537.597656"/>
      <use xlink:href="#DejaVuSans-65" x="600.976562"/>
      <use xlink:href="#DejaVuSans-64" x="662.5"/>
      <use xlink:href="#DejaVuSans-20" x="725.976562"/>
      <use xlink:href="#DejaVuSans-61" x="757.763672"/>
      <use xlink:href="#DejaVuSans-62" x="819.042969"/>
      <use xlink:href="#DejaVuSans-6c" x="882.519531"/>
      <use xlink:href="#DejaVuSans-61" x="910.302734"/>
      <use xlink:href="#DejaVuSans-74" x="971.582031"/>
      <use xlink:href="#DejaVuSans-69" x="1010.791016"/>
      <use xlink:href="#DejaVuSans-6f" x="1038.574219"/>
      <use xlink:href="#DejaVuSans-6e" x="1099.755859"/>
      <use xlink:href="#DejaVuSans-20" x="1163.134766"/>
      <use xlink:href="#DejaVuSans-28" x="1194.921875"/>
      <use xlink:href="#DejaVuSans-64" x="1233.935547"/>
      <use xlink:href="#DejaVuSans-75" x="1297.412109"/>
      <use xlink:href="#DejaVuSans-61" x="1360.791016"/>
      <use xlink:href="#DejaVuSans-6c" x="1422.070312"/>
      <use xlink:href="#DejaVuSans-73" x="1449.853516"/>
      <use xlink:href="#DejaVuSans-20" x="1501.953125"/>
      <use xlink:href="#DejaVuSans-6f" x="1533.740234"/>
      <use xlink:href="#DejaVuSans-66" x="1594.921875"/>
      <use xlink:href="#DejaVuSans-66" x="1630.126953"/>
      <use xlink:href="#DejaVuSans-29" x="1665.332031"/>
     </g>
    </g>
    <g id="patch_47">
     <path d="M 438.427031 335.302159 
L 456.427031 335.302159 
L 456.427031 329.002159 
L 438.427031 329.002159 
z
" style="fill: #dc2626"/>
    </g>
    <g id="text_21">
     <!-- Naive fine-tuning (single net) -->
     <g style="fill: #212529" transform="translate(463.627031 335.302159) scale(0.09 -0.09)">
      <defs>
       <path id="DejaVuSans-4e" d="M 628 4666 
L 1478 4666 
L 3547 763 
L 3547 4666 
L 4159 4666 
L 4159 0 
L 3309 0 
L 1241 3903 
L 1241 0 
L 628 0 
L 628 4666 
z
" transform="scale(0.015625)"/>
       <path id="DejaVuSans-67" d="M 2906 1791 
Q 2906 2416 2648 2759 
Q 2391 3103 1925 3103 
Q 1463 3103 1205 2759 
Q 947 2416 947 1791 
Q 947 1169 1205 825 
Q 1463 481 1925 481 
Q 2391 481 2648 825 
Q 2906 1169 2906 1791 
z
M 3481 434 
Q 3481 -459 3084 -895 
Q 2688 -1331 1869 -1331 
Q 1566 -1331 1297 -1286 
Q 1028 -1241 775 -1147 
L 775 -588 
Q 1028 -725 1275 -790 
Q 1522 -856 1778 -856 
Q 2344 -856 2625 -561 
Q 2906 -266 2906 331 
L 2906 616 
Q 2728 306 2450 153 
Q 2172 0 1784 0 
Q 1141 0 747 490 
Q 353 981 353 1791 
Q 353 2603 747 3093 
Q 1141 3584 1784 3584 
Q 2172 3584 2450 3431 
Q 2728 3278 2906 2969 
L 2906 3500 
L 3481 3500 
L 3481 434 
z
" transform="scale(0.015625)"/>
      </defs>
      <use xlink:href="#DejaVuSans-4e"/>
      <use xlink:href="#DejaVuSans-61" x="74.804688"/>
      <use xlink:href="#DejaVuSans-69" x="136.083984"/>
      <use xlink:href="#DejaVuSans-76" x="163.867188"/>
      <use xlink:href="#DejaVuSans-65" x="223.046875"/>
      <use xlink:href="#DejaVuSans-20" x="284.570312"/>
      <use xlink:href="#DejaVuSans-66" x="316.357422"/>
      <use xlink:href="#DejaVuSans-69" x="351.5625"/>
      <use xlink:href="#DejaVuSans-6e" x="379.345703"/>
      <use xlink:href="#DejaVuSans-65" x="442.724609"/>
      <use xlink:href="#DejaVuSans-2d" x="504.248047"/>
      <use xlink:href="#DejaVuSans-74" x="540.332031"/>
      <use xlink:href="#DejaVuSans-75" x="579.541016"/>
      <use xlink:href="#DejaVuSans-6e" x="642.919922"/>
      <use xlink:href="#DejaVuSans-69" x="706.298828"/>
      <use xlink:href="#DejaVuSans-6e" x="734.082031"/>
      <use xlink:href="#DejaVuSans-67" x="797.460938"/>
      <use xlink:href="#DejaVuSans-20" x="860.9375"/>
      <use xlink:href="#DejaVuSans-28" x="892.724609"/>
      <use xlink:href="#DejaVuSans-73" x="931.738281"/>
      <use xlink:href="#DejaVuSans-69" x="983.837891"/>
      <use xlink:href="#DejaVuSans-6e" x="1011.621094"/>
      <use xlink:href="#DejaVuSans-67" x="1075"/>
      <use xlink:href="#DejaVuSans-6c" x="1138.476562"/>
      <use xlink:href="#DejaVuSans-65" x="1166.259766"/>
      <use xlink:href="#DejaVuSans-20" x="1227.783203"/>
      <use xlink:href="#DejaVuSans-6e" x="1259.570312"/>
      <use xlink:href="#DejaVuSans-65" x="1322.949219"/>
      <use xlink:href="#DejaVuSans-74" x="1384.472656"/>
      <use xlink:href="#DejaVuSans-29" x="1423.681641"/>
     </g>
    </g>
    <g id="patch_48">
     <path d="M 438.427031 348.512471 
L 456.427031 348.512471 
L 456.427031 342.212471 
L 438.427031 342.212471 
z
" style="fill: #7c3aed"/>
    </g>
    <g id="text_22">
     <!-- Joint multi-task (upper bound) -->
     <g style="fill: #212529" transform="translate(463.627031 348.512471) scale(0.09 -0.09)">
      <defs>
       <path id="DejaVuSans-4a" d="M 628 4666 
L 1259 4666 
L 1259 325 
Q 1259 -519 939 -900 
Q 619 -1281 -91 -1281 
L -331 -1281 
L -331 -750 
L -134 -750 
Q 284 -750 456 -515 
Q 628 -281 628 325 
L 628 4666 
z
" transform="scale(0.015625)"/>
       <path id="DejaVuSans-6b" d="M 581 4863 
L 1159 4863 
L 1159 1991 
L 2875 3500 
L 3609 3500 
L 1753 1863 
L 3688 0 
L 2938 0 
L 1159 1709 
L 1159 0 
L 581 0 
L 581 4863 
z
" transform="scale(0.015625)"/>
       <path id="DejaVuSans-70" d="M 1159 525 
L 1159 -1331 
L 581 -1331 
L 581 3500 
L 1159 3500 
L 1159 2969 
Q 1341 3281 1617 3432 
Q 1894 3584 2278 3584 
Q 2916 3584 3314 3078 
Q 3713 2572 3713 1747 
Q 3713 922 3314 415 
Q 2916 -91 2278 -91 
Q 1894 -91 1617 61 
Q 1341 213 1159 525 
z
M 3116 1747 
Q 3116 2381 2855 2742 
Q 2594 3103 2138 3103 
Q 1681 3103 1420 2742 
Q 1159 2381 1159 1747 
Q 1159 1113 1420 752 
Q 1681 391 2138 391 
Q 2594 391 2855 752 
Q 3116 1113 3116 1747 
z
" transform="scale(0.015625)"/>
      </defs>
      <use xlink:href="#DejaVuSans-4a"/>
      <use xlink:href="#DejaVuSans-6f" x="29.492188"/>
      <use xlink:href="#DejaVuSans-69" x="90.673828"/>
      <use xlink:href="#DejaVuSans-6e" x="118.457031"/>
      <use xlink:href="#DejaVuSans-74" x="181.835938"/>
      <use xlink:href="#DejaVuSans-20" x="221.044922"/>
      <use xlink:href="#DejaVuSans-6d" x="252.832031"/>
      <use xlink:href="#DejaVuSans-75" x="350.244141"/>
      <use xlink:href="#DejaVuSans-6c" x="413.623047"/>
      <use xlink:href="#DejaVuSans-74" x="441.40625"/>
      <use xlink:href="#DejaVuSans-69" x="480.615234"/>
      <use xlink:href="#DejaVuSans-2d" x="508.398438"/>
      <use xlink:href="#DejaVuSans-74" x="544.482422"/>
      <use xlink:href="#DejaVuSans-61" x="583.691406"/>
      <use xlink:href="#DejaVuSans-73" x="644.970703"/>
      <use xlink:href="#DejaVuSans-6b" x="697.070312"/>
      <use xlink:href="#DejaVuSans-20" x="754.980469"/>
      <use xlink:href="#DejaVuSans-28" x="786.767578"/>
      <use xlink:href="#DejaVuSans-75" x="825.78125"/>
      <use xlink:href="#DejaVuSans-70" x="889.160156"/>
      <use xlink:href="#DejaVuSans-70" x="952.636719"/>
      <use xlink:href="#DejaVuSans-65" x="1016.113281"/>
      <use xlink:href="#DejaVuSans-72" x="1077.636719"/>
      <use xlink:href="#DejaVuSans-20" x="1118.75"/>
      <use xlink:href="#DejaVuSans-62" x="1150.537109"/>
      <use xlink:href="#DejaVuSans-6f" x="1214.013672"/>
      <use xlink:href="#DejaVuSans-75" x="1275.195312"/>
      <use xlink:href="#DejaVuSans-6e" x="1338.574219"/>
      <use xlink:href="#DejaVuSans-64" x="1401.953125"/>
      <use xlink:href="#DejaVuSans-29" x="1465.429688"/>
     </g>
    </g>
   </g>
  </g>
 </g>
 <defs>
  <clipPath id="p5966ad2fcb">
   <rect x="43.78125" y="22.318125" width="753.3" height="266.112"/>
  </clipPath>
 </defs>
</svg>
