<svg xmlns="http://www.w3.org/2000/svg" viewBox="0 0 160 210" width="1280" height="1680" shape-rendering="crispEdges" role="img" aria-label="Atari 2600 Space Invaders - mid-game state">
<title>Atari 2600 Space Invaders - mid-game state</title>
<rect x="0" y="0" width="160" height="210" fill="#000000"/>
<g fill="#86861D"><rect x="45" y="31" width="1" height="1"/><rect x="61" y="31" width="1" height="1"/><rect x="77" y="31" width="1" height="1"/><rect x="93" y="31" width="1" height="1"/><rect x="109" y="31" width="1" height="1"/><rect x="125" y="31" width="1" height="1"/><rect x="39" y="32" width="1" height="1"/><rect x="44" y="32" width="1" height="1"/><rect x="55" y="32" width="1" height="1"/><rect x="60" y="32" width="1" height="1"/><rect x="71" y="32" width="1" height="1"/><rect x="76" y="32" width="1" height="1"/><rect x="87" y="32" width="1" height="1"/><rect x="92" y="32" width="1" height="1"/><rect x="103" y="32" width="1" height="1"/><rect x="108" y="32" width="1" height="1"/><rect x="119" y="32" width="1" height="1"/><rect x="124" y="32" width="1" height="1"/><rect x="40" y="33" width="1" height="1"/><rect x="43" y="33" width="1" height="1"/><rect x="56" y="33" width="1" height="1"/><rect x="59" y="33" width="1" height="1"/><rect x="72" y="33" width="1" height="1"/><rect x="75" y="33" width="1" height="1"/><rect x="88" y="33" width="1" height="1"/><rect x="91" y="33" width="1" height="1"/><rect x="104" y="33" width="1" height="1"/><rect x="107" y="33" width="1" height="1"/><rect x="120" y="33" width="1" height="1"/><rect x="123" y="33" width="1" height="1"/><rect x="38" y="33" width="1" height="2"/><rect x="41" y="34" width="2" height="1"/><rect x="54" y="33" width="1" height="2"/><rect x="57" y="34" width="2" height="1"/><rect x="70" y="33" width="1" height="2"/><rect x="73" y="34" width="2" height="1"/><rect x="86" y="33" width="1" height="2"/><rect x="89" y="34" width="2" height="1"/><rect x="102" y="33" width="1" height="2"/><rect x="105" y="34" width="2" height="1"/><rect x="118" y="33" width="1" height="2"/><rect x="121" y="34" width="2" height="1"/><rect x="40" y="35" width="5" height="1"/><rect x="56" y="35" width="5" height="1"/><rect x="72" y="35" width="5" height="1"/><rect x="88" y="35" width="5" height="1"/><rect x="104" y="35" width="5" height="1"/><rect x="120" y="35" width="5" height="1"/><rect x="39" y="36" width="2" height="1"/><rect x="42" y="36" width="1" height="1"/><rect x="44" y="36" width="2" height="1"/><rect x="55" y="36" width="2" height="1"/><rect x="58" y="36" width="1" height="1"/><rect x="60" y="36" width="2" height="1"/><rect x="71" y="36" width="2" height="1"/><rect x="74" y="36" width="1" height="1"/><rect x="76" y="36" width="2" height="1"/><rect x="87" y="36" width="2" height="1"/><rect x="90" y="36" width="1" height="1"/><rect x="92" y="36" width="2" height="1"/><rect x="103" y="36" width="2" height="1"/><rect x="106" y="36" width="1" height="1"/><rect x="108" y="36" width="2" height="1"/><rect x="119" y="36" width="2" height="1"/><rect x="122" y="36" width="1" height="1"/><rect x="124" y="36" width="2" height="1"/><rect x="39" y="37" width="6" height="2"/><rect x="55" y="37" width="6" height="2"/><rect x="71" y="37" width="6" height="2"/><rect x="87" y="37" width="6" height="2"/><rect x="103" y="37" width="6" height="2"/><rect x="119" y="37" width="6" height="2"/><rect x="39" y="39" width="1" height="1"/><rect x="44" y="39" width="1" height="1"/><rect x="55" y="39" width="1" height="1"/><rect x="60" y="39" width="1" height="1"/><rect x="71" y="39" width="1" height="1"/><rect x="76" y="39" width="1" height="1"/><rect x="87" y="39" width="1" height="1"/><rect x="92" y="39" width="1" height="1"/><rect x="103" y="39" width="1" height="1"/><rect x="108" y="39" width="1" height="1"/><rect x="119" y="39" width="1" height="1"/><rect x="124" y="39" width="1" height="1"/><rect x="38" y="40" width="3" height="1"/><rect x="43" y="40" width="3" height="1"/><rect x="54" y="40" width="3" height="1"/><rect x="59" y="40" width="3" height="1"/><rect x="70" y="40" width="3" height="1"/><rect x="75" y="40" width="3" height="1"/><rect x="86" y="40" width="3" height="1"/><rect x="91" y="40" width="3" height="1"/><rect x="102" y="40" width="3" height="1"/><rect x="107" y="40" width="3" height="1"/><rect x="118" y="40" width="3" height="1"/><rect x="123" y="40" width="3" height="1"/><rect x="40" y="49" width="4" height="1"/><rect x="56" y="49" width="4" height="1"/><rect x="72" y="49" width="4" height="1"/><rect x="88" y="49" width="4" height="1"/><rect x="104" y="49" width="4" height="1"/><rect x="120" y="49" width="4" height="1"/><rect x="39" y="50" width="6" height="1"/><rect x="55" y="50" width="6" height="1"/><rect x="71" y="50" width="6" height="1"/><rect x="87" y="50" width="6" height="1"/><rect x="103" y="50" width="6" height="1"/><rect x="119" y="50" width="6" height="1"/><rect x="39" y="51" width="1" height="1"/><rect x="41" y="51" width="2" height="1"/><rect x="44" y="51" width="1" height="1"/><rect x="55" y="51" width="1" height="1"/><rect x="57" y="51" width="2" height="1"/><rect x="60" y="51" width="1" height="1"/><rect x="71" y="51" width="1" height="1"/><rect x="73" y="51" width="2" height="1"/><rect x="76" y="51" width="1" height="1"/><rect x="87" y="51" width="1" height="1"/><rect x="89" y="51" width="2" height="1"/><rect x="92" y="51" width="1" height="1"/><rect x="103" y="51" width="1" height="1"/><rect x="105" y="51" width="2" height="1"/><rect x="108" y="51" width="1" height="1"/><rect x="119" y="51" width="1" height="1"/><rect x="121" y="51" width="2" height="1"/><rect x="124" y="51" width="1" height="1"/><rect x="38" y="52" width="8" height="1"/><rect x="54" y="52" width="8" height="1"/><rect x="70" y="52" width="8" height="1"/><rect x="86" y="52" width="8" height="1"/><rect x="102" y="52" width="8" height="1"/><rect x="118" y="52" width="8" height="1"/><rect x="40" y="53" width="1" height="1"/><rect x="43" y="53" width="1" height="1"/><rect x="56" y="53" width="1" height="1"/><rect x="59" y="53" width="1" height="1"/><rect x="72" y="53" width="1" height="1"/><rect x="75" y="53" width="1" height="1"/><rect x="88" y="53" width="1" height="1"/><rect x="91" y="53" width="1" height="1"/><rect x="104" y="53" width="1" height="1"/><rect x="107" y="53" width="1" height="1"/><rect x="120" y="53" width="1" height="1"/><rect x="123" y="53" width="1" height="1"/><rect x="41" y="54" width="2" height="2"/><rect x="57" y="54" width="2" height="2"/><rect x="73" y="54" width="2" height="2"/><rect x="89" y="54" width="2" height="2"/><rect x="105" y="54" width="2" height="2"/><rect x="121" y="54" width="2" height="2"/><rect x="38" y="53" width="1" height="6"/><rect x="40" y="56" width="1" height="3"/><rect x="43" y="56" width="1" height="3"/><rect x="45" y="53" width="1" height="6"/><rect x="54" y="53" width="1" height="6"/><rect x="56" y="56" width="1" height="3"/><rect x="59" y="56" width="1" height="3"/><rect x="61" y="53" width="1" height="6"/><rect x="70" y="53" width="1" height="6"/><rect x="72" y="56" width="1" height="3"/><rect x="75" y="56" width="1" height="3"/><rect x="77" y="53" width="1" height="6"/><rect x="86" y="53" width="1" height="6"/><rect x="88" y="56" width="1" height="3"/><rect x="91" y="56" width="1" height="3"/><rect x="93" y="53" width="1" height="6"/><rect x="102" y="53" width="1" height="6"/><rect x="104" y="56" width="1" height="3"/><rect x="107" y="56" width="1" height="3"/><rect x="109" y="53" width="1" height="6"/><rect x="118" y="53" width="1" height="6"/><rect x="120" y="56" width="1" height="3"/><rect x="123" y="56" width="1" height="3"/><rect x="125" y="53" width="1" height="6"/><rect x="40" y="69" width="1" height="1"/><rect x="43" y="69" width="1" height="1"/><rect x="56" y="69" width="1" height="1"/><rect x="59" y="69" width="1" height="1"/><rect x="72" y="69" width="1" height="1"/><rect x="75" y="69" width="1" height="1"/><rect x="88" y="69" width="1" height="1"/><rect x="91" y="69" width="1" height="1"/><rect x="104" y="69" width="1" height="1"/><rect x="107" y="69" width="1" height="1"/><rect x="120" y="69" width="1" height="1"/><rect x="123" y="69" width="1" height="1"/><rect x="38" y="67" width="1" height="4"/><rect x="40" y="70" width="4" height="1"/><rect x="45" y="67" width="1" height="4"/><rect x="54" y="67" width="1" height="4"/><rect x="56" y="70" width="4" height="1"/><rect x="61" y="67" width="1" height="4"/><rect x="70" y="67" width="1" height="4"/><rect x="72" y="70" width="4" height="1"/><rect x="77" y="67" width="1" height="4"/><rect x="86" y="67" width="1" height="4"/><rect x="88" y="70" width="4" height="1"/><rect x="93" y="67" width="1" height="4"/><rect x="102" y="67" width="1" height="4"/><rect x="104" y="70" width="4" height="1"/><rect x="109" y="67" width="1" height="4"/><rect x="118" y="67" width="1" height="4"/><rect x="120" y="70" width="4" height="1"/><rect x="125" y="67" width="1" height="4"/><rect x="39" y="71" width="1" height="1"/><rect x="44" y="71" width="1" height="1"/><rect x="55" y="71" width="1" height="1"/><rect x="60" y="71" width="1" height="1"/><rect x="71" y="71" width="1" height="1"/><rect x="76" y="71" width="1" height="1"/><rect x="87" y="71" width="1" height="1"/><rect x="92" y="71" width="1" height="1"/><rect x="103" y="71" width="1" height="1"/><rect x="108" y="71" width="1" height="1"/><rect x="119" y="71" width="1" height="1"/><rect x="124" y="71" width="1" height="1"/><rect x="41" y="71" width="2" height="4"/><rect x="57" y="71" width="2" height="4"/><rect x="73" y="71" width="2" height="4"/><rect x="89" y="71" width="2" height="4"/><rect x="105" y="71" width="2" height="4"/><rect x="121" y="71" width="2" height="4"/><rect x="40" y="75" width="1" height="1"/><rect x="43" y="75" width="1" height="1"/><rect x="56" y="75" width="1" height="1"/><rect x="59" y="75" width="1" height="1"/><rect x="72" y="75" width="1" height="1"/><rect x="75" y="75" width="1" height="1"/><rect x="88" y="75" width="1" height="1"/><rect x="91" y="75" width="1" height="1"/><rect x="104" y="75" width="1" height="1"/><rect x="107" y="75" width="1" height="1"/><rect x="120" y="75" width="1" height="1"/><rect x="123" y="75" width="1" height="1"/><rect x="38" y="76" width="2" height="1"/><rect x="44" y="76" width="2" height="1"/><rect x="54" y="76" width="2" height="1"/><rect x="60" y="76" width="2" height="1"/><rect x="70" y="76" width="2" height="1"/><rect x="76" y="76" width="2" height="1"/><rect x="86" y="76" width="2" height="1"/><rect x="92" y="76" width="2" height="1"/><rect x="102" y="76" width="2" height="1"/><rect x="108" y="76" width="2" height="1"/><rect x="118" y="76" width="2" height="1"/><rect x="124" y="76" width="2" height="1"/><rect x="40" y="85" width="4" height="1"/><rect x="56" y="85" width="4" height="1"/><rect x="72" y="85" width="4" height="1"/><rect x="88" y="85" width="4" height="1"/><rect x="104" y="85" width="4" height="1"/><rect x="120" y="85" width="4" height="1"/><rect x="39" y="86" width="6" height="1"/><rect x="55" y="86" width="6" height="1"/><rect x="71" y="86" width="6" height="1"/><rect x="87" y="86" width="6" height="1"/><rect x="103" y="86" width="6" height="1"/><rect x="119" y="86" width="6" height="1"/><rect x="38" y="87" width="3" height="1"/><rect x="42" y="87" width="1" height="1"/><rect x="44" y="87" width="2" height="1"/><rect x="54" y="87" width="3" height="1"/><rect x="58" y="87" width="1" height="1"/><rect x="60" y="87" width="2" height="1"/><rect x="70" y="87" width="3" height="1"/><rect x="74" y="87" width="1" height="1"/><rect x="76" y="87" width="2" height="1"/><rect x="86" y="87" width="3" height="1"/><rect x="90" y="87" width="1" height="1"/><rect x="92" y="87" width="2" height="1"/><rect x="102" y="87" width="3" height="1"/><rect x="106" y="87" width="1" height="1"/><rect x="108" y="87" width="2" height="1"/><rect x="118" y="87" width="3" height="1"/><rect x="122" y="87" width="1" height="1"/><rect x="124" y="87" width="2" height="1"/><rect x="39" y="88" width="6" height="1"/><rect x="55" y="88" width="6" height="1"/><rect x="71" y="88" width="6" height="1"/><rect x="87" y="88" width="6" height="1"/><rect x="103" y="88" width="6" height="1"/><rect x="119" y="88" width="6" height="1"/><rect x="40" y="89" width="4" height="1"/><rect x="56" y="89" width="4" height="1"/><rect x="72" y="89" width="4" height="1"/><rect x="88" y="89" width="4" height="1"/><rect x="104" y="89" width="4" height="1"/><rect x="120" y="89" width="4" height="1"/><rect x="40" y="90" width="1" height="2"/><rect x="43" y="90" width="1" height="2"/><rect x="56" y="90" width="1" height="2"/><rect x="59" y="90" width="1" height="2"/><rect x="72" y="90" width="1" height="2"/><rect x="75" y="90" width="1" height="2"/><rect x="88" y="90" width="1" height="2"/><rect x="91" y="90" width="1" height="2"/><rect x="104" y="90" width="1" height="2"/><rect x="107" y="90" width="1" height="2"/><rect x="120" y="90" width="1" height="2"/><rect x="123" y="90" width="1" height="2"/><rect x="39" y="92" width="1" height="2"/><rect x="44" y="92" width="1" height="2"/><rect x="55" y="92" width="1" height="2"/><rect x="60" y="92" width="1" height="2"/><rect x="71" y="92" width="1" height="2"/><rect x="76" y="92" width="1" height="2"/><rect x="87" y="92" width="1" height="2"/><rect x="92" y="92" width="1" height="2"/><rect x="103" y="92" width="1" height="2"/><rect x="108" y="92" width="1" height="2"/><rect x="119" y="92" width="1" height="2"/><rect x="124" y="92" width="1" height="2"/><rect x="38" y="94" width="1" height="1"/><rect x="45" y="94" width="1" height="1"/><rect x="54" y="94" width="1" height="1"/><rect x="61" y="94" width="1" height="1"/><rect x="70" y="94" width="1" height="1"/><rect x="77" y="94" width="1" height="1"/><rect x="86" y="94" width="1" height="1"/><rect x="93" y="94" width="1" height="1"/><rect x="102" y="94" width="1" height="1"/><rect x="109" y="94" width="1" height="1"/><rect x="118" y="94" width="1" height="1"/><rect x="125" y="94" width="1" height="1"/><rect x="56" y="103" width="4" height="1"/><rect x="72" y="103" width="4" height="1"/><rect x="88" y="103" width="4" height="1"/><rect x="104" y="103" width="4" height="1"/><rect x="120" y="103" width="4" height="1"/><rect x="55" y="104" width="6" height="1"/><rect x="71" y="104" width="6" height="1"/><rect x="87" y="104" width="6" height="1"/><rect x="103" y="104" width="6" height="1"/><rect x="119" y="104" width="6" height="1"/><rect x="54" y="105" width="4" height="2"/><rect x="60" y="105" width="2" height="2"/><rect x="70" y="105" width="4" height="2"/><rect x="76" y="105" width="2" height="2"/><rect x="86" y="105" width="4" height="2"/><rect x="92" y="105" width="2" height="2"/><rect x="102" y="105" width="4" height="2"/><rect x="108" y="105" width="2" height="2"/><rect x="118" y="105" width="4" height="2"/><rect x="124" y="105" width="2" height="2"/><rect x="54" y="107" width="8" height="1"/><rect x="70" y="107" width="8" height="1"/><rect x="86" y="107" width="8" height="1"/><rect x="102" y="107" width="8" height="1"/><rect x="118" y="107" width="8" height="1"/><rect x="57" y="108" width="3" height="1"/><rect x="73" y="108" width="3" height="1"/><rect x="89" y="108" width="3" height="1"/><rect x="105" y="108" width="3" height="1"/><rect x="121" y="108" width="3" height="1"/><rect x="55" y="108" width="1" height="4"/><rect x="59" y="109" width="1" height="3"/><rect x="71" y="108" width="1" height="4"/><rect x="75" y="109" width="1" height="3"/><rect x="87" y="108" width="1" height="4"/><rect x="91" y="109" width="1" height="3"/><rect x="103" y="108" width="1" height="4"/><rect x="107" y="109" width="1" height="3"/><rect x="119" y="108" width="1" height="4"/><rect x="123" y="109" width="1" height="3"/><rect x="55" y="112" width="3" height="1"/><rect x="59" y="112" width="3" height="1"/><rect x="71" y="112" width="3" height="1"/><rect x="75" y="112" width="3" height="1"/><rect x="87" y="112" width="3" height="1"/><rect x="91" y="112" width="3" height="1"/><rect x="103" y="112" width="3" height="1"/><rect x="107" y="112" width="3" height="1"/><rect x="119" y="112" width="3" height="1"/><rect x="123" y="112" width="3" height="1"/><rect x="71" y="122" width="1" height="1"/><rect x="76" y="122" width="1" height="1"/><rect x="87" y="122" width="1" height="1"/><rect x="92" y="122" width="1" height="1"/><rect x="103" y="122" width="1" height="1"/><rect x="108" y="122" width="1" height="1"/><rect x="119" y="122" width="1" height="1"/><rect x="124" y="122" width="1" height="1"/><rect x="70" y="123" width="2" height="1"/><rect x="73" y="121" width="2" height="3"/><rect x="76" y="123" width="2" height="1"/><rect x="86" y="123" width="2" height="1"/><rect x="89" y="121" width="2" height="3"/><rect x="92" y="123" width="2" height="1"/><rect x="102" y="123" width="2" height="1"/><rect x="105" y="121" width="2" height="3"/><rect x="108" y="123" width="2" height="1"/><rect x="118" y="123" width="2" height="1"/><rect x="121" y="121" width="2" height="3"/><rect x="124" y="123" width="2" height="1"/><rect x="70" y="124" width="8" height="1"/><rect x="86" y="124" width="8" height="1"/><rect x="102" y="124" width="8" height="1"/><rect x="118" y="124" width="8" height="1"/><rect x="76" y="125" width="1" height="2"/><rect x="92" y="125" width="1" height="2"/><rect x="108" y="125" width="1" height="2"/><rect x="124" y="125" width="1" height="2"/><rect x="71" y="125" width="1" height="3"/><rect x="75" y="127" width="1" height="1"/><rect x="87" y="125" width="1" height="3"/><rect x="91" y="127" width="1" height="1"/><rect x="103" y="125" width="1" height="3"/><rect x="107" y="127" width="1" height="1"/><rect x="119" y="125" width="1" height="3"/><rect x="123" y="127" width="1" height="1"/><rect x="74" y="128" width="1" height="2"/><rect x="90" y="128" width="1" height="2"/><rect x="106" y="128" width="1" height="2"/><rect x="122" y="128" width="1" height="2"/><rect x="70" y="128" width="1" height="3"/><rect x="73" y="130" width="1" height="1"/><rect x="86" y="128" width="1" height="3"/><rect x="89" y="130" width="1" height="1"/><rect x="102" y="128" width="1" height="3"/><rect x="105" y="130" width="1" height="1"/><rect x="118" y="128" width="1" height="3"/><rect x="121" y="130" width="1" height="1"/></g>
<g fill="#328432"><rect x="4" y="10" width="12" height="1"/><rect x="52" y="10" width="12" height="1"/><rect x="20" y="11" width="12" height="1"/><rect x="36" y="11" width="12" height="1"/><rect x="4" y="12" width="4" height="1"/><rect x="12" y="12" width="4" height="1"/><rect x="52" y="12" width="4" height="1"/><rect x="60" y="12" width="4" height="1"/><rect x="20" y="13" width="4" height="1"/><rect x="28" y="13" width="4" height="1"/><rect x="44" y="13" width="4" height="1"/><rect x="4" y="14" width="4" height="1"/><rect x="12" y="14" width="4" height="1"/><rect x="52" y="14" width="4" height="1"/><rect x="60" y="14" width="4" height="1"/><rect x="20" y="15" width="4" height="1"/><rect x="28" y="15" width="4" height="1"/><rect x="36" y="15" width="12" height="1"/><rect x="4" y="16" width="4" height="1"/><rect x="12" y="16" width="4" height="1"/><rect x="52" y="16" width="4" height="1"/><rect x="60" y="16" width="4" height="1"/><rect x="20" y="17" width="4" height="1"/><rect x="28" y="17" width="4" height="1"/><rect x="36" y="17" width="4" height="1"/><rect x="4" y="18" width="12" height="1"/><rect x="52" y="18" width="12" height="1"/><rect x="20" y="19" width="12" height="1"/><rect x="36" y="19" width="12" height="1"/><rect x="36" y="185" width="1" height="1"/><rect x="38" y="185" width="1" height="1"/><rect x="37" y="186" width="1" height="1"/><rect x="39" y="186" width="1" height="1"/><rect x="35" y="187" width="1" height="1"/><rect x="38" y="187" width="2" height="1"/><rect x="36" y="188" width="4" height="1"/><rect x="35" y="189" width="2" height="1"/><rect x="40" y="189" width="2" height="1"/><rect x="35" y="190" width="1" height="1"/><rect x="37" y="190" width="2" height="1"/><rect x="41" y="190" width="1" height="1"/><rect x="35" y="191" width="2" height="1"/><rect x="38" y="191" width="1" height="1"/><rect x="40" y="191" width="2" height="1"/><rect x="35" y="192" width="1" height="1"/><rect x="37" y="192" width="3" height="1"/><rect x="41" y="192" width="1" height="1"/><rect x="36" y="193" width="5" height="1"/><rect x="34" y="193" width="1" height="2"/><rect x="36" y="194" width="2" height="1"/><rect x="39" y="194" width="2" height="1"/><rect x="33" y="196" width="2" height="5"/></g>
<g fill="#A28638"><rect x="84" y="10" width="12" height="1"/><rect x="132" y="10" width="12" height="1"/><rect x="100" y="11" width="12" height="1"/><rect x="116" y="11" width="12" height="1"/><rect x="84" y="12" width="4" height="1"/><rect x="92" y="12" width="4" height="1"/><rect x="132" y="12" width="4" height="1"/><rect x="140" y="12" width="4" height="1"/><rect x="100" y="13" width="4" height="1"/><rect x="108" y="13" width="4" height="1"/><rect x="116" y="13" width="4" height="1"/><rect x="124" y="13" width="4" height="1"/><rect x="84" y="14" width="4" height="1"/><rect x="92" y="14" width="4" height="1"/><rect x="132" y="14" width="4" height="1"/><rect x="140" y="14" width="4" height="1"/><rect x="100" y="15" width="4" height="1"/><rect x="108" y="15" width="4" height="1"/><rect x="116" y="15" width="4" height="1"/><rect x="124" y="15" width="4" height="1"/><rect x="84" y="16" width="4" height="1"/><rect x="92" y="16" width="4" height="1"/><rect x="132" y="16" width="4" height="1"/><rect x="140" y="16" width="4" height="1"/><rect x="100" y="17" width="4" height="1"/><rect x="108" y="17" width="4" height="1"/><rect x="116" y="17" width="4" height="1"/><rect x="124" y="17" width="4" height="1"/><rect x="84" y="18" width="12" height="1"/><rect x="132" y="18" width="12" height="1"/><rect x="100" y="19" width="12" height="1"/><rect x="116" y="19" width="12" height="1"/><rect x="122" y="196" width="2" height="5"/></g>
<g fill="#B55328"><rect x="45" y="157" width="2" height="2"/><rect x="76" y="157" width="1" height="2"/><rect x="78" y="157" width="2" height="2"/><rect x="108" y="157" width="4" height="2"/><rect x="48" y="159" width="1" height="2"/><rect x="75" y="159" width="2" height="2"/><rect x="79" y="159" width="2" height="2"/><rect x="45" y="161" width="1" height="2"/><rect x="43" y="163" width="1" height="2"/><rect x="45" y="163" width="2" height="2"/><rect x="43" y="165" width="4" height="2"/><rect x="48" y="165" width="1" height="2"/><rect x="75" y="161" width="6" height="6"/><rect x="107" y="159" width="6" height="8"/><rect x="42" y="167" width="5" height="2"/><rect x="48" y="167" width="2" height="2"/><rect x="107" y="167" width="7" height="4"/><rect x="45" y="169" width="1" height="4"/><rect x="74" y="167" width="8" height="6"/><rect x="106" y="171" width="8" height="2"/><rect x="42" y="169" width="2" height="6"/><rect x="49" y="169" width="1" height="6"/><rect x="74" y="173" width="2" height="2"/><rect x="80" y="173" width="2" height="2"/><rect x="106" y="173" width="2" height="2"/><rect x="112" y="173" width="2" height="2"/></g>
<g fill="#505916"><rect x="10" y="195" width="150" height="1"/><rect x="8" y="196" width="25" height="1"/><rect x="0" y="197" width="33" height="4"/><rect x="35" y="196" width="87" height="5"/><rect x="124" y="196" width="36" height="5"/><rect x="0" y="201" width="160" height="9"/></g>
</svg>
