<?xml version="1.0" encoding="utf-8" standalone="no"?>
<!DOCTYPE svg PUBLIC "-//W3C//DTD SVG 1.1//EN"
  "http://www.w3.org/Graphics/SVG/1.1/DTD/svg11.dtd">
<svg xmlns:xlink="http://www.w3.org/1999/xlink" width="887.98125pt" height="288.40425pt" viewBox="0 0 887.98125 288.40425" xmlns="http://www.w3.org/2000/svg" version="1.1">
 <metadata>
  <rdf:RDF xmlns:dc="http://purl.org/dc/elements/1.1/" xmlns:cc="http://creativecommons.org/ns#" xmlns:rdf="http://www.w3.org/1999/02/22-rdf-syntax-ns#">
   <cc:Work>
    <dc:type rdf:resource="http://purl.org/dc/dcmitype/StillImage"/>
    <dc:date>2026-07-17T00:45:41.072821</dc:date>
    <dc:format>image/svg+xml</dc:format>
    <dc:creator>
     <cc:Agent>
      <dc:title>Matplotlib v3.7.1, https://matplotlib.org/</dc:title>
     </cc:Agent>
    </dc:creator>
   </cc:Work>
  </rdf:RDF>
 </metadata>
 <defs>
  <style type="text/css">*{stroke-linejoin: round; stroke-linecap: butt}</style>
 </defs>
 <g id="figure_1">
  <g id="patch_1">
   <path d="M 0 288.40425 
L 887.98125 288.40425 
L 887.98125 0 
L 0 0 
z
" style="fill: #ffffff"/>
  </g>
  <g id="axes_1">
   <g id="patch_2">
    <path d="M 43.78125 250.848 
L 225.737772 250.848 
L 225.737772 51.264 
L 43.78125 51.264 
z
" style="fill: #ffffff"/>
   </g>
   <g id="matplotlib.axis_1">
    <g id="xtick_1">
     <g id="line2d_1">
      <defs>
       <path id="mc2c6f6ec52" d="M 0 0 
L 0 3.5 
" style="stroke: #000000; stroke-width: 0.8"/>
      </defs>
      <g>
       <use xlink:href="#mc2c6f6ec52" x="52.052001" y="250.848" style="stroke: #000000; stroke-width: 0.8"/>
      </g>
     </g>
     <g id="text_1">
      <!-- 1 -->
      <g transform="translate(48.870751 265.446438) scale(0.1 -0.1)">
       <defs>
        <path id="DejaVuSans-31" d="M 794 531 
L 1825 531 
L 1825 4091 
L 703 3866 
L 703 4441 
L 1819 4666 
L 2450 4666 
L 2450 531 
L 3481 531 
L 3481 0 
L 794 0 
L 794 531 
z
" transform="scale(0.015625)"/>
       </defs>
       <use xlink:href="#DejaVuSans-31"/>
      </g>
     </g>
    </g>
    <g id="xtick_2">
     <g id="line2d_2">
      <g>
       <use xlink:href="#mc2c6f6ec52" x="107.190341" y="250.848" style="stroke: #000000; stroke-width: 0.8"/>
      </g>
     </g>
     <g id="text_2">
      <!-- 2 -->
      <g transform="translate(104.009091 265.446438) scale(0.1 -0.1)">
       <defs>
        <path id="DejaVuSans-32" d="M 1228 531 
L 3431 531 
L 3431 0 
L 469 0 
L 469 531 
Q 828 903 1448 1529 
Q 2069 2156 2228 2338 
Q 2531 2678 2651 2914 
Q 2772 3150 2772 3378 
Q 2772 3750 2511 3984 
Q 2250 4219 1831 4219 
Q 1534 4219 1204 4116 
Q 875 4013 500 3803 
L 500 4441 
Q 881 4594 1212 4672 
Q 1544 4750 1819 4750 
Q 2544 4750 2975 4387 
Q 3406 4025 3406 3419 
Q 3406 3131 3298 2873 
Q 3191 2616 2906 2266 
Q 2828 2175 2409 1742 
Q 1991 1309 1228 531 
z
" transform="scale(0.015625)"/>
       </defs>
       <use xlink:href="#DejaVuSans-32"/>
      </g>
     </g>
    </g>
    <g id="xtick_3">
     <g id="line2d_3">
      <g>
       <use xlink:href="#mc2c6f6ec52" x="162.328681" y="250.848" style="stroke: #000000; stroke-width: 0.8"/>
      </g>
     </g>
     <g id="text_3">
      <!-- 3 -->
      <g transform="translate(159.147431 265.446438) scale(0.1 -0.1)">
       <defs>
        <path id="DejaVuSans-33" d="M 2597 2516 
Q 3050 2419 3304 2112 
Q 3559 1806 3559 1356 
Q 3559 666 3084 287 
Q 2609 -91 1734 -91 
Q 1441 -91 1130 -33 
Q 819 25 488 141 
L 488 750 
Q 750 597 1062 519 
Q 1375 441 1716 441 
Q 2309 441 2620 675 
Q 2931 909 2931 1356 
Q 2931 1769 2642 2001 
Q 2353 2234 1838 2234 
L 1294 2234 
L 1294 2753 
L 1863 2753 
Q 2328 2753 2575 2939 
Q 2822 3125 2822 3475 
Q 2822 3834 2567 4026 
Q 2313 4219 1838 4219 
Q 1578 4219 1281 4162 
Q 984 4106 628 3988 
L 628 4550 
Q 988 4650 1302 4700 
Q 1616 4750 1894 4750 
Q 2613 4750 3031 4423 
Q 3450 4097 3450 3541 
Q 3450 3153 3228 2886 
Q 3006 2619 2597 2516 
z
" transform="scale(0.015625)"/>
       </defs>
       <use xlink:href="#DejaVuSans-33"/>
      </g>
     </g>
    </g>
    <g id="xtick_4">
     <g id="line2d_4">
      <g>
       <use xlink:href="#mc2c6f6ec52" x="217.467021" y="250.848" style="stroke: #000000; stroke-width: 0.8"/>
      </g>
     </g>
     <g id="text_4">
      <!-- 4 -->
      <g transform="translate(214.285771 265.446438) scale(0.1 -0.1)">
       <defs>
        <path id="DejaVuSans-34" d="M 2419 4116 
L 825 1625 
L 2419 1625 
L 2419 4116 
z
M 2253 4666 
L 3047 4666 
L 3047 1625 
L 3713 1625 
L 3713 1100 
L 3047 1100 
L 3047 0 
L 2419 0 
L 2419 1100 
L 313 1100 
L 313 1709 
L 2253 4666 
z
" transform="scale(0.015625)"/>
       </defs>
       <use xlink:href="#DejaVuSans-34"/>
      </g>
     </g>
    </g>
    <g id="text_5">
     <!-- after task i -->
     <g transform="translate(107.839198 279.124563) scale(0.1 -0.1)">
      <defs>
       <path id="DejaVuSans-61" d="M 2194 1759 
Q 1497 1759 1228 1600 
Q 959 1441 959 1056 
Q 959 750 1161 570 
Q 1363 391 1709 391 
Q 2188 391 2477 730 
Q 2766 1069 2766 1631 
L 2766 1759 
L 2194 1759 
z
M 3341 1997 
L 3341 0 
L 2766 0 
L 2766 531 
Q 2569 213 2275 61 
Q 1981 -91 1556 -91 
Q 1019 -91 701 211 
Q 384 513 384 1019 
Q 384 1609 779 1909 
Q 1175 2209 1959 2209 
L 2766 2209 
L 2766 2266 
Q 2766 2663 2505 2880 
Q 2244 3097 1772 3097 
Q 1472 3097 1187 3025 
Q 903 2953 641 2809 
L 641 3341 
Q 956 3463 1253 3523 
Q 1550 3584 1831 3584 
Q 2591 3584 2966 3190 
Q 3341 2797 3341 1997 
z
" transform="scale(0.015625)"/>
       <path id="DejaVuSans-66" d="M 2375 4863 
L 2375 4384 
L 1825 4384 
Q 1516 4384 1395 4259 
Q 1275 4134 1275 3809 
L 1275 3500 
L 2222 3500 
L 2222 3053 
L 1275 3053 
L 1275 0 
L 697 0 
L 697 3053 
L 147 3053 
L 147 3500 
L 697 3500 
L 697 3744 
Q 697 4328 969 4595 
Q 1241 4863 1831 4863 
L 2375 4863 
z
" transform="scale(0.015625)"/>
       <path id="DejaVuSans-74" d="M 1172 4494 
L 1172 3500 
L 2356 3500 
L 2356 3053 
L 1172 3053 
L 1172 1153 
Q 1172 725 1289 603 
Q 1406 481 1766 481 
L 2356 481 
L 2356 0 
L 1766 0 
Q 1100 0 847 248 
Q 594 497 594 1153 
L 594 3053 
L 172 3053 
L 172 3500 
L 594 3500 
L 594 4494 
L 1172 4494 
z
" transform="scale(0.015625)"/>
       <path id="DejaVuSans-65" d="M 3597 1894 
L 3597 1613 
L 953 1613 
Q 991 1019 1311 708 
Q 1631 397 2203 397 
Q 2534 397 2845 478 
Q 3156 559 3463 722 
L 3463 178 
Q 3153 47 2828 -22 
Q 2503 -91 2169 -91 
Q 1331 -91 842 396 
Q 353 884 353 1716 
Q 353 2575 817 3079 
Q 1281 3584 2069 3584 
Q 2775 3584 3186 3129 
Q 3597 2675 3597 1894 
z
M 3022 2063 
Q 3016 2534 2758 2815 
Q 2500 3097 2075 3097 
Q 1594 3097 1305 2825 
Q 1016 2553 972 2059 
L 3022 2063 
z
" transform="scale(0.015625)"/>
       <path id="DejaVuSans-72" d="M 2631 2963 
Q 2534 3019 2420 3045 
Q 2306 3072 2169 3072 
Q 1681 3072 1420 2755 
Q 1159 2438 1159 1844 
L 1159 0 
L 581 0 
L 581 3500 
L 1159 3500 
L 1159 2956 
Q 1341 3275 1631 3429 
Q 1922 3584 2338 3584 
Q 2397 3584 2469 3576 
Q 2541 3569 2628 3553 
L 2631 2963 
z
" transform="scale(0.015625)"/>
       <path id="DejaVuSans-20" transform="scale(0.015625)"/>
       <path id="DejaVuSans-73" d="M 2834 3397 
L 2834 2853 
Q 2591 2978 2328 3040 
Q 2066 3103 1784 3103 
Q 1356 3103 1142 2972 
Q 928 2841 928 2578 
Q 928 2378 1081 2264 
Q 1234 2150 1697 2047 
L 1894 2003 
Q 2506 1872 2764 1633 
Q 3022 1394 3022 966 
Q 3022 478 2636 193 
Q 2250 -91 1575 -91 
Q 1294 -91 989 -36 
Q 684 19 347 128 
L 347 722 
Q 666 556 975 473 
Q 1284 391 1588 391 
Q 1994 391 2212 530 
Q 2431 669 2431 922 
Q 2431 1156 2273 1281 
Q 2116 1406 1581 1522 
L 1381 1569 
Q 847 1681 609 1914 
Q 372 2147 372 2553 
Q 372 3047 722 3315 
Q 1072 3584 1716 3584 
Q 2034 3584 2315 3537 
Q 2597 3491 2834 3397 
z
" transform="scale(0.015625)"/>
       <path id="DejaVuSans-6b" d="M 581 4863 
L 1159 4863 
L 1159 1991 
L 2875 3500 
L 3609 3500 
L 1753 1863 
L 3688 0 
L 2938 0 
L 1159 1709 
L 1159 0 
L 581 0 
L 581 4863 
z
" transform="scale(0.015625)"/>
       <path id="DejaVuSans-69" d="M 603 3500 
L 1178 3500 
L 1178 0 
L 603 0 
L 603 3500 
z
M 603 4863 
L 1178 4863 
L 1178 4134 
L 603 4134 
L 603 4863 
z
" transform="scale(0.015625)"/>
      </defs>
      <use xlink:href="#DejaVuSans-61"/>
      <use xlink:href="#DejaVuSans-66" x="61.279297"/>
      <use xlink:href="#DejaVuSans-74" x="94.734375"/>
      <use xlink:href="#DejaVuSans-65" x="133.943359"/>
      <use xlink:href="#DejaVuSans-72" x="195.466797"/>
      <use xlink:href="#DejaVuSans-20" x="236.580078"/>
      <use xlink:href="#DejaVuSans-74" x="268.367188"/>
      <use xlink:href="#DejaVuSans-61" x="307.576172"/>
      <use xlink:href="#DejaVuSans-73" x="368.855469"/>
      <use xlink:href="#DejaVuSans-6b" x="420.955078"/>
      <use xlink:href="#DejaVuSans-20" x="478.865234"/>
      <use xlink:href="#DejaVuSans-69" x="510.652344"/>
     </g>
    </g>
   </g>
   <g id="matplotlib.axis_2">
    <g id="ytick_1">
     <g id="line2d_5">
      <defs>
       <path id="m21cc26875d" d="M 0 0 
L -3.5 0 
" style="stroke: #000000; stroke-width: 0.8"/>
      </defs>
      <g>
       <use xlink:href="#m21cc26875d" x="43.78125" y="241.129622" style="stroke: #000000; stroke-width: 0.8"/>
      </g>
     </g>
     <g id="text_6">
      <!-- 0.0 -->
      <g transform="translate(20.878125 244.928841) scale(0.1 -0.1)">
       <defs>
        <path id="DejaVuSans-30" d="M 2034 4250 
Q 1547 4250 1301 3770 
Q 1056 3291 1056 2328 
Q 1056 1369 1301 889 
Q 1547 409 2034 409 
Q 2525 409 2770 889 
Q 3016 1369 3016 2328 
Q 3016 3291 2770 3770 
Q 2525 4250 2034 4250 
z
M 2034 4750 
Q 2819 4750 3233 4129 
Q 3647 3509 3647 2328 
Q 3647 1150 3233 529 
Q 2819 -91 2034 -91 
Q 1250 -91 836 529 
Q 422 1150 422 2328 
Q 422 3509 836 4129 
Q 1250 4750 2034 4750 
z
" transform="scale(0.015625)"/>
        <path id="DejaVuSans-2e" d="M 684 794 
L 1344 794 
L 1344 0 
L 684 0 
L 684 794 
z
" transform="scale(0.015625)"/>
       </defs>
       <use xlink:href="#DejaVuSans-30"/>
       <use xlink:href="#DejaVuSans-2e" x="63.623047"/>
       <use xlink:href="#DejaVuSans-30" x="95.410156"/>
      </g>
     </g>
    </g>
    <g id="ytick_2">
     <g id="line2d_6">
      <g>
       <use xlink:href="#m21cc26875d" x="43.78125" y="199.438234" style="stroke: #000000; stroke-width: 0.8"/>
      </g>
     </g>
     <g id="text_7">
      <!-- 0.5 -->
      <g transform="translate(20.878125 203.237453) scale(0.1 -0.1)">
       <defs>
        <path id="DejaVuSans-35" d="M 691 4666 
L 3169 4666 
L 3169 4134 
L 1269 4134 
L 1269 2991 
Q 1406 3038 1543 3061 
Q 1681 3084 1819 3084 
Q 2600 3084 3056 2656 
Q 3513 2228 3513 1497 
Q 3513 744 3044 326 
Q 2575 -91 1722 -91 
Q 1428 -91 1123 -41 
Q 819 9 494 109 
L 494 744 
Q 775 591 1075 516 
Q 1375 441 1709 441 
Q 2250 441 2565 725 
Q 2881 1009 2881 1497 
Q 2881 1984 2565 2268 
Q 2250 2553 1709 2553 
Q 1456 2553 1204 2497 
Q 953 2441 691 2322 
L 691 4666 
z
" transform="scale(0.015625)"/>
       </defs>
       <use xlink:href="#DejaVuSans-30"/>
       <use xlink:href="#DejaVuSans-2e" x="63.623047"/>
       <use xlink:href="#DejaVuSans-35" x="95.410156"/>
      </g>
     </g>
    </g>
    <g id="ytick_3">
     <g id="line2d_7">
      <g>
       <use xlink:href="#m21cc26875d" x="43.78125" y="157.746846" style="stroke: #000000; stroke-width: 0.8"/>
      </g>
     </g>
     <g id="text_8">
      <!-- 1.0 -->
      <g transform="translate(20.878125 161.546065) scale(0.1 -0.1)">
       <use xlink:href="#DejaVuSans-31"/>
       <use xlink:href="#DejaVuSans-2e" x="63.623047"/>
       <use xlink:href="#DejaVuSans-30" x="95.410156"/>
      </g>
     </g>
    </g>
    <g id="ytick_4">
     <g id="line2d_8">
      <g>
       <use xlink:href="#m21cc26875d" x="43.78125" y="116.055458" style="stroke: #000000; stroke-width: 0.8"/>
      </g>
     </g>
     <g id="text_9">
      <!-- 1.5 -->
      <g transform="translate(20.878125 119.854677) scale(0.1 -0.1)">
       <use xlink:href="#DejaVuSans-31"/>
       <use xlink:href="#DejaVuSans-2e" x="63.623047"/>
       <use xlink:href="#DejaVuSans-35" x="95.410156"/>
      </g>
     </g>
    </g>
    <g id="ytick_5">
     <g id="line2d_9">
      <g>
       <use xlink:href="#m21cc26875d" x="43.78125" y="74.36407" style="stroke: #000000; stroke-width: 0.8"/>
      </g>
     </g>
     <g id="text_10">
      <!-- 2.0 -->
      <g transform="translate(20.878125 78.163289) scale(0.1 -0.1)">
       <use xlink:href="#DejaVuSans-32"/>
       <use xlink:href="#DejaVuSans-2e" x="63.623047"/>
       <use xlink:href="#DejaVuSans-30" x="95.410156"/>
      </g>
     </g>
    </g>
    <g id="text_11">
     <!-- normalized score -->
     <g transform="translate(14.798438 193.861469) rotate(-90) scale(0.1 -0.1)">
      <defs>
       <path id="DejaVuSans-6e" d="M 3513 2113 
L 3513 0 
L 2938 0 
L 2938 2094 
Q 2938 2591 2744 2837 
Q 2550 3084 2163 3084 
Q 1697 3084 1428 2787 
Q 1159 2491 1159 1978 
L 1159 0 
L 581 0 
L 581 3500 
L 1159 3500 
L 1159 2956 
Q 1366 3272 1645 3428 
Q 1925 3584 2291 3584 
Q 2894 3584 3203 3211 
Q 3513 2838 3513 2113 
z
" transform="scale(0.015625)"/>
       <path id="DejaVuSans-6f" d="M 1959 3097 
Q 1497 3097 1228 2736 
Q 959 2375 959 1747 
Q 959 1119 1226 758 
Q 1494 397 1959 397 
Q 2419 397 2687 759 
Q 2956 1122 2956 1747 
Q 2956 2369 2687 2733 
Q 2419 3097 1959 3097 
z
M 1959 3584 
Q 2709 3584 3137 3096 
Q 3566 2609 3566 1747 
Q 3566 888 3137 398 
Q 2709 -91 1959 -91 
Q 1206 -91 779 398 
Q 353 888 353 1747 
Q 353 2609 779 3096 
Q 1206 3584 1959 3584 
z
" transform="scale(0.015625)"/>
       <path id="DejaVuSans-6d" d="M 3328 2828 
Q 3544 3216 3844 3400 
Q 4144 3584 4550 3584 
Q 5097 3584 5394 3201 
Q 5691 2819 5691 2113 
L 5691 0 
L 5113 0 
L 5113 2094 
Q 5113 2597 4934 2840 
Q 4756 3084 4391 3084 
Q 3944 3084 3684 2787 
Q 3425 2491 3425 1978 
L 3425 0 
L 2847 0 
L 2847 2094 
Q 2847 2600 2669 2842 
Q 2491 3084 2119 3084 
Q 1678 3084 1418 2786 
Q 1159 2488 1159 1978 
L 1159 0 
L 581 0 
L 581 3500 
L 1159 3500 
L 1159 2956 
Q 1356 3278 1631 3431 
Q 1906 3584 2284 3584 
Q 2666 3584 2933 3390 
Q 3200 3197 3328 2828 
z
" transform="scale(0.015625)"/>
       <path id="DejaVuSans-6c" d="M 603 4863 
L 1178 4863 
L 1178 0 
L 603 0 
L 603 4863 
z
" transform="scale(0.015625)"/>
       <path id="DejaVuSans-7a" d="M 353 3500 
L 3084 3500 
L 3084 2975 
L 922 459 
L 3084 459 
L 3084 0 
L 275 0 
L 275 525 
L 2438 3041 
L 353 3041 
L 353 3500 
z
" transform="scale(0.015625)"/>
       <path id="DejaVuSans-64" d="M 2906 2969 
L 2906 4863 
L 3481 4863 
L 3481 0 
L 2906 0 
L 2906 525 
Q 2725 213 2448 61 
Q 2172 -91 1784 -91 
Q 1150 -91 751 415 
Q 353 922 353 1747 
Q 353 2572 751 3078 
Q 1150 3584 1784 3584 
Q 2172 3584 2448 3432 
Q 2725 3281 2906 2969 
z
M 947 1747 
Q 947 1113 1208 752 
Q 1469 391 1925 391 
Q 2381 391 2643 752 
Q 2906 1113 2906 1747 
Q 2906 2381 2643 2742 
Q 2381 3103 1925 3103 
Q 1469 3103 1208 2742 
Q 947 2381 947 1747 
z
" transform="scale(0.015625)"/>
       <path id="DejaVuSans-63" d="M 3122 3366 
L 3122 2828 
Q 2878 2963 2633 3030 
Q 2388 3097 2138 3097 
Q 1578 3097 1268 2742 
Q 959 2388 959 1747 
Q 959 1106 1268 751 
Q 1578 397 2138 397 
Q 2388 397 2633 464 
Q 2878 531 3122 666 
L 3122 134 
Q 2881 22 2623 -34 
Q 2366 -91 2075 -91 
Q 1284 -91 818 406 
Q 353 903 353 1747 
Q 353 2603 823 3093 
Q 1294 3584 2113 3584 
Q 2378 3584 2631 3529 
Q 2884 3475 3122 3366 
z
" transform="scale(0.015625)"/>
      </defs>
      <use xlink:href="#DejaVuSans-6e"/>
      <use xlink:href="#DejaVuSans-6f" x="63.378906"/>
      <use xlink:href="#DejaVuSans-72" x="124.560547"/>
      <use xlink:href="#DejaVuSans-6d" x="163.923828"/>
      <use xlink:href="#DejaVuSans-61" x="261.335938"/>
      <use xlink:href="#DejaVuSans-6c" x="322.615234"/>
      <use xlink:href="#DejaVuSans-69" x="350.398438"/>
      <use xlink:href="#DejaVuSans-7a" x="378.181641"/>
      <use xlink:href="#DejaVuSans-65" x="430.671875"/>
      <use xlink:href="#DejaVuSans-64" x="492.195312"/>
      <use xlink:href="#DejaVuSans-20" x="555.671875"/>
      <use xlink:href="#DejaVuSans-73" x="587.458984"/>
      <use xlink:href="#DejaVuSans-63" x="639.558594"/>
      <use xlink:href="#DejaVuSans-6f" x="694.539062"/>
      <use xlink:href="#DejaVuSans-72" x="755.720703"/>
      <use xlink:href="#DejaVuSans-65" x="794.583984"/>
     </g>
    </g>
   </g>
   <g id="LineCollection_1">
    <path d="M 52.052001 177.224373 
L 52.052001 160.720183 
" clip-path="url(#p28ad7076a2)" style="fill: none; stroke: #1b9e77; stroke-width: 1.5"/>
    <path d="M 107.190341 160.246174 
L 107.190341 154.040946 
" clip-path="url(#p28ad7076a2)" style="fill: none; stroke: #1b9e77; stroke-width: 1.5"/>
    <path d="M 162.328681 230.48593 
L 162.328681 170.02803 
" clip-path="url(#p28ad7076a2)" style="fill: none; stroke: #1b9e77; stroke-width: 1.5"/>
    <path d="M 217.467021 155.29061 
L 217.467021 153.437659 
" clip-path="url(#p28ad7076a2)" style="fill: none; stroke: #1b9e77; stroke-width: 1.5"/>
   </g>
   <g id="line2d_10">
    <defs>
     <path id="m7f389c4ecf" d="M 3 0 
L -3 -0 
" style="stroke: #1b9e77"/>
    </defs>
    <g clip-path="url(#p28ad7076a2)">
     <use xlink:href="#m7f389c4ecf" x="52.052001" y="177.224373" style="fill: #1b9e77; stroke: #1b9e77"/>
     <use xlink:href="#m7f389c4ecf" x="107.190341" y="160.246174" style="fill: #1b9e77; stroke: #1b9e77"/>
     <use xlink:href="#m7f389c4ecf" x="162.328681" y="230.48593" style="fill: #1b9e77; stroke: #1b9e77"/>
     <use xlink:href="#m7f389c4ecf" x="217.467021" y="155.29061" style="fill: #1b9e77; stroke: #1b9e77"/>
    </g>
   </g>
   <g id="line2d_11">
    <g clip-path="url(#p28ad7076a2)">
     <use xlink:href="#m7f389c4ecf" x="52.052001" y="160.720183" style="fill: #1b9e77; stroke: #1b9e77"/>
     <use xlink:href="#m7f389c4ecf" x="107.190341" y="154.040946" style="fill: #1b9e77; stroke: #1b9e77"/>
     <use xlink:href="#m7f389c4ecf" x="162.328681" y="170.02803" style="fill: #1b9e77; stroke: #1b9e77"/>
     <use xlink:href="#m7f389c4ecf" x="217.467021" y="153.437659" style="fill: #1b9e77; stroke: #1b9e77"/>
    </g>
   </g>
   <g id="LineCollection_2">
    <path d="M 52.052001 177.224373 
L 52.052001 160.720183 
" clip-path="url(#p28ad7076a2)" style="fill: none; stroke: #d95f02; stroke-width: 1.5"/>
    <path d="M 107.190341 241.776 
L 107.190341 241.776 
" clip-path="url(#p28ad7076a2)" style="fill: none; stroke: #d95f02; stroke-width: 1.5"/>
    <path d="M 162.328681 241.776 
L 162.328681 241.776 
" clip-path="url(#p28ad7076a2)" style="fill: none; stroke: #d95f02; stroke-width: 1.5"/>
    <path d="M 217.467021 241.776 
L 217.467021 241.776 
" clip-path="url(#p28ad7076a2)" style="fill: none; stroke: #d95f02; stroke-width: 1.5"/>
   </g>
   <g id="line2d_12">
    <defs>
     <path id="meee6369195" d="M 3 0 
L -3 -0 
" style="stroke: #d95f02"/>
    </defs>
    <g clip-path="url(#p28ad7076a2)">
     <use xlink:href="#meee6369195" x="52.052001" y="177.224373" style="fill: #d95f02; stroke: #d95f02"/>
     <use xlink:href="#meee6369195" x="107.190341" y="241.776" style="fill: #d95f02; stroke: #d95f02"/>
     <use xlink:href="#meee6369195" x="162.328681" y="241.776" style="fill: #d95f02; stroke: #d95f02"/>
     <use xlink:href="#meee6369195" x="217.467021" y="241.776" style="fill: #d95f02; stroke: #d95f02"/>
    </g>
   </g>
   <g id="line2d_13">
    <g clip-path="url(#p28ad7076a2)">
     <use xlink:href="#meee6369195" x="52.052001" y="160.720183" style="fill: #d95f02; stroke: #d95f02"/>
     <use xlink:href="#meee6369195" x="107.190341" y="241.776" style="fill: #d95f02; stroke: #d95f02"/>
     <use xlink:href="#meee6369195" x="162.328681" y="241.776" style="fill: #d95f02; stroke: #d95f02"/>
     <use xlink:href="#meee6369195" x="217.467021" y="241.776" style="fill: #d95f02; stroke: #d95f02"/>
    </g>
   </g>
   <g id="line2d_14">
    <path d="M 43.78125 241.129622 
L 225.737772 241.129622 
" clip-path="url(#p28ad7076a2)" style="fill: none; stroke-dasharray: 0.8,1.32; stroke-dashoffset: 0; stroke: #999999; stroke-width: 0.8"/>
   </g>
   <g id="line2d_15">
    <path d="M 43.78125 157.746846 
L 225.737772 157.746846 
" clip-path="url(#p28ad7076a2)" style="fill: none; stroke-dasharray: 2.96,1.28; stroke-dashoffset: 0; stroke: #999999; stroke-width: 0.8"/>
   </g>
   <g id="line2d_16">
    <path d="M 52.052001 168.972278 
L 107.190341 157.14356 
L 162.328681 200.25698 
L 217.467021 154.364135 
" clip-path="url(#p28ad7076a2)" style="fill: none; stroke: #1b9e77; stroke-width: 1.5; stroke-linecap: square"/>
    <defs>
     <path id="ma14a5c9def" d="M 0 3 
C 0.795609 3 1.55874 2.683901 2.12132 2.12132 
C 2.683901 1.55874 3 0.795609 3 0 
C 3 -0.795609 2.683901 -1.55874 2.12132 -2.12132 
C 1.55874 -2.683901 0.795609 -3 0 -3 
C -0.795609 -3 -1.55874 -2.683901 -2.12132 -2.12132 
C -2.683901 -1.55874 -3 -0.795609 -3 0 
C -3 0.795609 -2.683901 1.55874 -2.12132 2.12132 
C -1.55874 2.683901 -0.795609 3 0 3 
z
" style="stroke: #1b9e77"/>
    </defs>
    <g clip-path="url(#p28ad7076a2)">
     <use xlink:href="#ma14a5c9def" x="52.052001" y="168.972278" style="fill: #1b9e77; stroke: #1b9e77"/>
     <use xlink:href="#ma14a5c9def" x="107.190341" y="157.14356" style="fill: #1b9e77; stroke: #1b9e77"/>
     <use xlink:href="#ma14a5c9def" x="162.328681" y="200.25698" style="fill: #1b9e77; stroke: #1b9e77"/>
     <use xlink:href="#ma14a5c9def" x="217.467021" y="154.364135" style="fill: #1b9e77; stroke: #1b9e77"/>
    </g>
   </g>
   <g id="line2d_17">
    <path d="M 52.052001 168.972278 
L 107.190341 241.776 
L 162.328681 241.776 
L 217.467021 241.776 
" clip-path="url(#p28ad7076a2)" style="fill: none; stroke: #d95f02; stroke-width: 1.5; stroke-linecap: square"/>
    <defs>
     <path id="m32818fc0ea" d="M 0 3 
C 0.795609 3 1.55874 2.683901 2.12132 2.12132 
C 2.683901 1.55874 3 0.795609 3 0 
C 3 -0.795609 2.683901 -1.55874 2.12132 -2.12132 
C 1.55874 -2.683901 0.795609 -3 0 -3 
C -0.795609 -3 -1.55874 -2.683901 -2.12132 -2.12132 
C -2.683901 -1.55874 -3 -0.795609 -3 0 
C -3 0.795609 -2.683901 1.55874 -2.12132 2.12132 
C -1.55874 2.683901 -0.795609 3 0 3 
z
" style="stroke: #d95f02"/>
    </defs>
    <g clip-path="url(#p28ad7076a2)">
     <use xlink:href="#m32818fc0ea" x="52.052001" y="168.972278" style="fill: #d95f02; stroke: #d95f02"/>
     <use xlink:href="#m32818fc0ea" x="107.190341" y="241.776" style="fill: #d95f02; stroke: #d95f02"/>
     <use xlink:href="#m32818fc0ea" x="162.328681" y="241.776" style="fill: #d95f02; stroke: #d95f02"/>
     <use xlink:href="#m32818fc0ea" x="217.467021" y="241.776" style="fill: #d95f02; stroke: #d95f02"/>
    </g>
   </g>
   <g id="patch_3">
    <path d="M 43.78125 250.848 
L 43.78125 51.264 
" style="fill: none; stroke: #000000; stroke-width: 0.8; stroke-linejoin: miter; stroke-linecap: square"/>
   </g>
   <g id="patch_4">
    <path d="M 225.737772 250.848 
L 225.737772 51.264 
" style="fill: none; stroke: #000000; stroke-width: 0.8; stroke-linejoin: miter; stroke-linecap: square"/>
   </g>
   <g id="patch_5">
    <path d="M 43.78125 250.848 
L 225.737772 250.848 
" style="fill: none; stroke: #000000; stroke-width: 0.8; stroke-linejoin: miter; stroke-linecap: square"/>
   </g>
   <g id="patch_6">
    <path d="M 43.78125 51.264 
L 225.737772 51.264 
" style="fill: none; stroke: #000000; stroke-width: 0.8; stroke-linejoin: miter; stroke-linecap: square"/>
   </g>
   <g id="text_12">
    <!-- T1: Pong -->
    <g transform="translate(104.917948 45.264) scale(0.12 -0.12)">
     <defs>
      <path id="DejaVuSans-Bold-54" d="M 31 4666 
L 4331 4666 
L 4331 3756 
L 2784 3756 
L 2784 0 
L 1581 0 
L 1581 3756 
L 31 3756 
L 31 4666 
z
" transform="scale(0.015625)"/>
      <path id="DejaVuSans-Bold-31" d="M 750 831 
L 1813 831 
L 1813 3847 
L 722 3622 
L 722 4441 
L 1806 4666 
L 2950 4666 
L 2950 831 
L 4013 831 
L 4013 0 
L 750 0 
L 750 831 
z
" transform="scale(0.015625)"/>
      <path id="DejaVuSans-Bold-3a" d="M 716 3500 
L 1844 3500 
L 1844 2291 
L 716 2291 
L 716 3500 
z
M 716 1209 
L 1844 1209 
L 1844 0 
L 716 0 
L 716 1209 
z
" transform="scale(0.015625)"/>
      <path id="DejaVuSans-Bold-20" transform="scale(0.015625)"/>
      <path id="DejaVuSans-Bold-50" d="M 588 4666 
L 2584 4666 
Q 3475 4666 3951 4270 
Q 4428 3875 4428 3144 
Q 4428 2409 3951 2014 
Q 3475 1619 2584 1619 
L 1791 1619 
L 1791 0 
L 588 0 
L 588 4666 
z
M 1791 3794 
L 1791 2491 
L 2456 2491 
Q 2806 2491 2997 2661 
Q 3188 2831 3188 3144 
Q 3188 3456 2997 3625 
Q 2806 3794 2456 3794 
L 1791 3794 
z
" transform="scale(0.015625)"/>
      <path id="DejaVuSans-Bold-6f" d="M 2203 2784 
Q 1831 2784 1636 2517 
Q 1441 2250 1441 1747 
Q 1441 1244 1636 976 
Q 1831 709 2203 709 
Q 2569 709 2762 976 
Q 2956 1244 2956 1747 
Q 2956 2250 2762 2517 
Q 2569 2784 2203 2784 
z
M 2203 3584 
Q 3106 3584 3614 3096 
Q 4122 2609 4122 1747 
Q 4122 884 3614 396 
Q 3106 -91 2203 -91 
Q 1297 -91 786 396 
Q 275 884 275 1747 
Q 275 2609 786 3096 
Q 1297 3584 2203 3584 
z
" transform="scale(0.015625)"/>
      <path id="DejaVuSans-Bold-6e" d="M 4056 2131 
L 4056 0 
L 2931 0 
L 2931 347 
L 2931 1631 
Q 2931 2084 2911 2256 
Q 2891 2428 2841 2509 
Q 2775 2619 2662 2680 
Q 2550 2741 2406 2741 
Q 2056 2741 1856 2470 
Q 1656 2200 1656 1722 
L 1656 0 
L 538 0 
L 538 3500 
L 1656 3500 
L 1656 2988 
Q 1909 3294 2193 3439 
Q 2478 3584 2822 3584 
Q 3428 3584 3742 3212 
Q 4056 2841 4056 2131 
z
" transform="scale(0.015625)"/>
      <path id="DejaVuSans-Bold-67" d="M 2919 594 
Q 2688 288 2409 144 
Q 2131 0 1766 0 
Q 1125 0 706 504 
Q 288 1009 288 1791 
Q 288 2575 706 3076 
Q 1125 3578 1766 3578 
Q 2131 3578 2409 3434 
Q 2688 3291 2919 2981 
L 2919 3500 
L 4044 3500 
L 4044 353 
Q 4044 -491 3511 -936 
Q 2978 -1381 1966 -1381 
Q 1638 -1381 1331 -1331 
Q 1025 -1281 716 -1178 
L 716 -306 
Q 1009 -475 1290 -558 
Q 1572 -641 1856 -641 
Q 2406 -641 2662 -400 
Q 2919 -159 2919 353 
L 2919 594 
z
M 2181 2772 
Q 1834 2772 1640 2515 
Q 1447 2259 1447 1791 
Q 1447 1309 1634 1061 
Q 1822 813 2181 813 
Q 2531 813 2725 1069 
Q 2919 1325 2919 1791 
Q 2919 2259 2725 2515 
Q 2531 2772 2181 2772 
z
" transform="scale(0.015625)"/>
     </defs>
     <use xlink:href="#DejaVuSans-Bold-54"/>
     <use xlink:href="#DejaVuSans-Bold-31" x="68.212891"/>
     <use xlink:href="#DejaVuSans-Bold-3a" x="137.792969"/>
     <use xlink:href="#DejaVuSans-Bold-20" x="177.783203"/>
     <use xlink:href="#DejaVuSans-Bold-50" x="212.597656"/>
     <use xlink:href="#DejaVuSans-Bold-6f" x="285.888672"/>
     <use xlink:href="#DejaVuSans-Bold-6e" x="354.589844"/>
     <use xlink:href="#DejaVuSans-Bold-67" x="425.78125"/>
    </g>
   </g>
  </g>
  <g id="axes_2">
   <g id="patch_7">
    <path d="M 262.129076 250.848 
L 444.085598 250.848 
L 444.085598 51.264 
L 262.129076 51.264 
z
" style="fill: #ffffff"/>
   </g>
   <g id="matplotlib.axis_3">
    <g id="xtick_5">
     <g id="line2d_18">
      <g>
       <use xlink:href="#mc2c6f6ec52" x="262.129076" y="250.848" style="stroke: #000000; stroke-width: 0.8"/>
      </g>
     </g>
     <g id="text_13">
      <!-- 1 -->
      <g transform="translate(258.947826 265.446438) scale(0.1 -0.1)">
       <use xlink:href="#DejaVuSans-31"/>
      </g>
     </g>
    </g>
    <g id="xtick_6">
     <g id="line2d_19">
      <g>
       <use xlink:href="#mc2c6f6ec52" x="320.824728" y="250.848" style="stroke: #000000; stroke-width: 0.8"/>
      </g>
     </g>
     <g id="text_14">
      <!-- 2 -->
      <g transform="translate(317.643478 265.446438) scale(0.1 -0.1)">
       <use xlink:href="#DejaVuSans-32"/>
      </g>
     </g>
    </g>
    <g id="xtick_7">
     <g id="line2d_20">
      <g>
       <use xlink:href="#mc2c6f6ec52" x="379.52038" y="250.848" style="stroke: #000000; stroke-width: 0.8"/>
      </g>
     </g>
     <g id="text_15">
      <!-- 3 -->
      <g transform="translate(376.33913 265.446438) scale(0.1 -0.1)">
       <use xlink:href="#DejaVuSans-33"/>
      </g>
     </g>
    </g>
    <g id="xtick_8">
     <g id="line2d_21">
      <g>
       <use xlink:href="#mc2c6f6ec52" x="438.216033" y="250.848" style="stroke: #000000; stroke-width: 0.8"/>
      </g>
     </g>
     <g id="text_16">
      <!-- 4 -->
      <g transform="translate(435.034783 265.446438) scale(0.1 -0.1)">
       <use xlink:href="#DejaVuSans-34"/>
      </g>
     </g>
    </g>
    <g id="text_17">
     <!-- after task i -->
     <g transform="translate(326.187024 279.124563) scale(0.1 -0.1)">
      <use xlink:href="#DejaVuSans-61"/>
      <use xlink:href="#DejaVuSans-66" x="61.279297"/>
      <use xlink:href="#DejaVuSans-74" x="94.734375"/>
      <use xlink:href="#DejaVuSans-65" x="133.943359"/>
      <use xlink:href="#DejaVuSans-72" x="195.466797"/>
      <use xlink:href="#DejaVuSans-20" x="236.580078"/>
      <use xlink:href="#DejaVuSans-74" x="268.367188"/>
      <use xlink:href="#DejaVuSans-61" x="307.576172"/>
      <use xlink:href="#DejaVuSans-73" x="368.855469"/>
      <use xlink:href="#DejaVuSans-6b" x="420.955078"/>
      <use xlink:href="#DejaVuSans-20" x="478.865234"/>
      <use xlink:href="#DejaVuSans-69" x="510.652344"/>
     </g>
    </g>
   </g>
   <g id="matplotlib.axis_4">
    <g id="ytick_6">
     <g id="line2d_22">
      <g>
       <use xlink:href="#m21cc26875d" x="262.129076" y="241.129622" style="stroke: #000000; stroke-width: 0.8"/>
      </g>
     </g>
    </g>
    <g id="ytick_7">
     <g id="line2d_23">
      <g>
       <use xlink:href="#m21cc26875d" x="262.129076" y="199.438234" style="stroke: #000000; stroke-width: 0.8"/>
      </g>
     </g>
    </g>
    <g id="ytick_8">
     <g id="line2d_24">
      <g>
       <use xlink:href="#m21cc26875d" x="262.129076" y="157.746846" style="stroke: #000000; stroke-width: 0.8"/>
      </g>
     </g>
    </g>
    <g id="ytick_9">
     <g id="line2d_25">
      <g>
       <use xlink:href="#m21cc26875d" x="262.129076" y="116.055458" style="stroke: #000000; stroke-width: 0.8"/>
      </g>
     </g>
    </g>
    <g id="ytick_10">
     <g id="line2d_26">
      <g>
       <use xlink:href="#m21cc26875d" x="262.129076" y="74.36407" style="stroke: #000000; stroke-width: 0.8"/>
      </g>
     </g>
    </g>
   </g>
   <g id="LineCollection_3">
    <path d="M 320.824728 205.601307 
L 320.824728 205.359619 
" clip-path="url(#p6fe03a8f00)" style="fill: none; stroke: #1b9e77; stroke-width: 1.5"/>
    <path d="M 379.52038 239.64496 
L 379.52038 213.749689 
" clip-path="url(#p6fe03a8f00)" style="fill: none; stroke: #1b9e77; stroke-width: 1.5"/>
    <path d="M 438.216033 213.853269 
L 438.216033 192.688199 
" clip-path="url(#p6fe03a8f00)" style="fill: none; stroke: #1b9e77; stroke-width: 1.5"/>
   </g>
   <g id="line2d_27">
    <g clip-path="url(#p6fe03a8f00)">
     <use xlink:href="#m7f389c4ecf" x="320.824728" y="205.601307" style="fill: #1b9e77; stroke: #1b9e77"/>
     <use xlink:href="#m7f389c4ecf" x="379.52038" y="239.64496" style="fill: #1b9e77; stroke: #1b9e77"/>
     <use xlink:href="#m7f389c4ecf" x="438.216033" y="213.853269" style="fill: #1b9e77; stroke: #1b9e77"/>
    </g>
   </g>
   <g id="line2d_28">
    <g clip-path="url(#p6fe03a8f00)">
     <use xlink:href="#m7f389c4ecf" x="320.824728" y="205.359619" style="fill: #1b9e77; stroke: #1b9e77"/>
     <use xlink:href="#m7f389c4ecf" x="379.52038" y="213.749689" style="fill: #1b9e77; stroke: #1b9e77"/>
     <use xlink:href="#m7f389c4ecf" x="438.216033" y="192.688199" style="fill: #1b9e77; stroke: #1b9e77"/>
    </g>
   </g>
   <g id="LineCollection_4">
    <path d="M 320.824728 176.149752 
L 320.824728 169.451507 
" clip-path="url(#p6fe03a8f00)" style="fill: none; stroke: #d95f02; stroke-width: 1.5"/>
    <path d="M 379.52038 241.509419 
L 379.52038 240.162865 
" clip-path="url(#p6fe03a8f00)" style="fill: none; stroke: #d95f02; stroke-width: 1.5"/>
    <path d="M 438.216033 240.749825 
L 438.216033 236.951852 
" clip-path="url(#p6fe03a8f00)" style="fill: none; stroke: #d95f02; stroke-width: 1.5"/>
   </g>
   <g id="line2d_29">
    <g clip-path="url(#p6fe03a8f00)">
     <use xlink:href="#meee6369195" x="320.824728" y="176.149752" style="fill: #d95f02; stroke: #d95f02"/>
     <use xlink:href="#meee6369195" x="379.52038" y="241.509419" style="fill: #d95f02; stroke: #d95f02"/>
     <use xlink:href="#meee6369195" x="438.216033" y="240.749825" style="fill: #d95f02; stroke: #d95f02"/>
    </g>
   </g>
   <g id="line2d_30">
    <g clip-path="url(#p6fe03a8f00)">
     <use xlink:href="#meee6369195" x="320.824728" y="169.451507" style="fill: #d95f02; stroke: #d95f02"/>
     <use xlink:href="#meee6369195" x="379.52038" y="240.162865" style="fill: #d95f02; stroke: #d95f02"/>
     <use xlink:href="#meee6369195" x="438.216033" y="236.951852" style="fill: #d95f02; stroke: #d95f02"/>
    </g>
   </g>
   <g id="line2d_31">
    <path d="M 262.129076 241.129622 
L 444.085598 241.129622 
" clip-path="url(#p6fe03a8f00)" style="fill: none; stroke-dasharray: 0.8,1.32; stroke-dashoffset: 0; stroke: #999999; stroke-width: 0.8"/>
   </g>
   <g id="line2d_32">
    <path d="M 262.129076 157.746846 
L 444.085598 157.746846 
" clip-path="url(#p6fe03a8f00)" style="fill: none; stroke-dasharray: 2.96,1.28; stroke-dashoffset: 0; stroke: #999999; stroke-width: 0.8"/>
   </g>
   <g id="line2d_33">
    <path d="M 320.824728 205.480463 
L 379.52038 226.697324 
L 438.216033 203.270734 
" clip-path="url(#p6fe03a8f00)" style="fill: none; stroke: #1b9e77; stroke-width: 1.5; stroke-linecap: square"/>
    <g clip-path="url(#p6fe03a8f00)">
     <use xlink:href="#ma14a5c9def" x="320.824728" y="205.480463" style="fill: #1b9e77; stroke: #1b9e77"/>
     <use xlink:href="#ma14a5c9def" x="379.52038" y="226.697324" style="fill: #1b9e77; stroke: #1b9e77"/>
     <use xlink:href="#ma14a5c9def" x="438.216033" y="203.270734" style="fill: #1b9e77; stroke: #1b9e77"/>
    </g>
   </g>
   <g id="line2d_34">
    <path d="M 320.824728 172.80063 
L 379.52038 240.836142 
L 438.216033 238.850838 
" clip-path="url(#p6fe03a8f00)" style="fill: none; stroke: #d95f02; stroke-width: 1.5; stroke-linecap: square"/>
    <g clip-path="url(#p6fe03a8f00)">
     <use xlink:href="#m32818fc0ea" x="320.824728" y="172.80063" style="fill: #d95f02; stroke: #d95f02"/>
     <use xlink:href="#m32818fc0ea" x="379.52038" y="240.836142" style="fill: #d95f02; stroke: #d95f02"/>
     <use xlink:href="#m32818fc0ea" x="438.216033" y="238.850838" style="fill: #d95f02; stroke: #d95f02"/>
    </g>
   </g>
   <g id="patch_8">
    <path d="M 262.129076 250.848 
L 262.129076 51.264 
" style="fill: none; stroke: #000000; stroke-width: 0.8; stroke-linejoin: miter; stroke-linecap: square"/>
   </g>
   <g id="patch_9">
    <path d="M 444.085598 250.848 
L 444.085598 51.264 
" style="fill: none; stroke: #000000; stroke-width: 0.8; stroke-linejoin: miter; stroke-linecap: square"/>
   </g>
   <g id="patch_10">
    <path d="M 262.129076 250.848 
L 444.085598 250.848 
" style="fill: none; stroke: #000000; stroke-width: 0.8; stroke-linejoin: miter; stroke-linecap: square"/>
   </g>
   <g id="patch_11">
    <path d="M 262.129076 51.264 
L 444.085598 51.264 
" style="fill: none; stroke: #000000; stroke-width: 0.8; stroke-linejoin: miter; stroke-linecap: square"/>
   </g>
   <g id="text_18">
    <!-- T2: Breakout -->
    <g transform="translate(309.607337 45.264) scale(0.12 -0.12)">
     <defs>
      <path id="DejaVuSans-Bold-32" d="M 1844 884 
L 3897 884 
L 3897 0 
L 506 0 
L 506 884 
L 2209 2388 
Q 2438 2594 2547 2791 
Q 2656 2988 2656 3200 
Q 2656 3528 2436 3728 
Q 2216 3928 1850 3928 
Q 1569 3928 1234 3808 
Q 900 3688 519 3450 
L 519 4475 
Q 925 4609 1322 4679 
Q 1719 4750 2100 4750 
Q 2938 4750 3402 4381 
Q 3866 4013 3866 3353 
Q 3866 2972 3669 2642 
Q 3472 2313 2841 1759 
L 1844 884 
z
" transform="scale(0.015625)"/>
      <path id="DejaVuSans-Bold-42" d="M 2456 2859 
Q 2741 2859 2887 2984 
Q 3034 3109 3034 3353 
Q 3034 3594 2887 3720 
Q 2741 3847 2456 3847 
L 1791 3847 
L 1791 2859 
L 2456 2859 
z
M 2497 819 
Q 2859 819 3042 972 
Q 3225 1125 3225 1434 
Q 3225 1738 3044 1889 
Q 2863 2041 2497 2041 
L 1791 2041 
L 1791 819 
L 2497 819 
z
M 3616 2497 
Q 4003 2384 4215 2081 
Q 4428 1778 4428 1338 
Q 4428 663 3972 331 
Q 3516 0 2584 0 
L 588 0 
L 588 4666 
L 2394 4666 
Q 3366 4666 3802 4372 
Q 4238 4078 4238 3431 
Q 4238 3091 4078 2852 
Q 3919 2613 3616 2497 
z
" transform="scale(0.015625)"/>
      <path id="DejaVuSans-Bold-72" d="M 3138 2547 
Q 2991 2616 2845 2648 
Q 2700 2681 2553 2681 
Q 2122 2681 1889 2404 
Q 1656 2128 1656 1613 
L 1656 0 
L 538 0 
L 538 3500 
L 1656 3500 
L 1656 2925 
Q 1872 3269 2151 3426 
Q 2431 3584 2822 3584 
Q 2878 3584 2943 3579 
Q 3009 3575 3134 3559 
L 3138 2547 
z
" transform="scale(0.015625)"/>
      <path id="DejaVuSans-Bold-65" d="M 4031 1759 
L 4031 1441 
L 1416 1441 
Q 1456 1047 1700 850 
Q 1944 653 2381 653 
Q 2734 653 3104 758 
Q 3475 863 3866 1075 
L 3866 213 
Q 3469 63 3072 -14 
Q 2675 -91 2278 -91 
Q 1328 -91 801 392 
Q 275 875 275 1747 
Q 275 2603 792 3093 
Q 1309 3584 2216 3584 
Q 3041 3584 3536 3087 
Q 4031 2591 4031 1759 
z
M 2881 2131 
Q 2881 2450 2695 2645 
Q 2509 2841 2209 2841 
Q 1884 2841 1681 2658 
Q 1478 2475 1428 2131 
L 2881 2131 
z
" transform="scale(0.015625)"/>
      <path id="DejaVuSans-Bold-61" d="M 2106 1575 
Q 1756 1575 1579 1456 
Q 1403 1338 1403 1106 
Q 1403 894 1545 773 
Q 1688 653 1941 653 
Q 2256 653 2472 879 
Q 2688 1106 2688 1447 
L 2688 1575 
L 2106 1575 
z
M 3816 1997 
L 3816 0 
L 2688 0 
L 2688 519 
Q 2463 200 2181 54 
Q 1900 -91 1497 -91 
Q 953 -91 614 226 
Q 275 544 275 1050 
Q 275 1666 698 1953 
Q 1122 2241 2028 2241 
L 2688 2241 
L 2688 2328 
Q 2688 2594 2478 2717 
Q 2269 2841 1825 2841 
Q 1466 2841 1156 2769 
Q 847 2697 581 2553 
L 581 3406 
Q 941 3494 1303 3539 
Q 1666 3584 2028 3584 
Q 2975 3584 3395 3211 
Q 3816 2838 3816 1997 
z
" transform="scale(0.015625)"/>
      <path id="DejaVuSans-Bold-6b" d="M 538 4863 
L 1656 4863 
L 1656 2216 
L 2944 3500 
L 4244 3500 
L 2534 1894 
L 4378 0 
L 3022 0 
L 1656 1459 
L 1656 0 
L 538 0 
L 538 4863 
z
" transform="scale(0.015625)"/>
      <path id="DejaVuSans-Bold-75" d="M 500 1363 
L 500 3500 
L 1625 3500 
L 1625 3150 
Q 1625 2866 1622 2436 
Q 1619 2006 1619 1863 
Q 1619 1441 1641 1255 
Q 1663 1069 1716 984 
Q 1784 875 1895 815 
Q 2006 756 2150 756 
Q 2500 756 2700 1025 
Q 2900 1294 2900 1772 
L 2900 3500 
L 4019 3500 
L 4019 0 
L 2900 0 
L 2900 506 
Q 2647 200 2364 54 
Q 2081 -91 1741 -91 
Q 1134 -91 817 281 
Q 500 653 500 1363 
z
" transform="scale(0.015625)"/>
      <path id="DejaVuSans-Bold-74" d="M 1759 4494 
L 1759 3500 
L 2913 3500 
L 2913 2700 
L 1759 2700 
L 1759 1216 
Q 1759 972 1856 886 
Q 1953 800 2241 800 
L 2816 800 
L 2816 0 
L 1856 0 
Q 1194 0 917 276 
Q 641 553 641 1216 
L 641 2700 
L 84 2700 
L 84 3500 
L 641 3500 
L 641 4494 
L 1759 4494 
z
" transform="scale(0.015625)"/>
     </defs>
     <use xlink:href="#DejaVuSans-Bold-54"/>
     <use xlink:href="#DejaVuSans-Bold-32" x="68.212891"/>
     <use xlink:href="#DejaVuSans-Bold-3a" x="137.792969"/>
     <use xlink:href="#DejaVuSans-Bold-20" x="177.783203"/>
     <use xlink:href="#DejaVuSans-Bold-42" x="212.597656"/>
     <use xlink:href="#DejaVuSans-Bold-72" x="288.818359"/>
     <use xlink:href="#DejaVuSans-Bold-65" x="338.134766"/>
     <use xlink:href="#DejaVuSans-Bold-61" x="405.957031"/>
     <use xlink:href="#DejaVuSans-Bold-6b" x="473.4375"/>
     <use xlink:href="#DejaVuSans-Bold-6f" x="537.316406"/>
     <use xlink:href="#DejaVuSans-Bold-75" x="606.017578"/>
     <use xlink:href="#DejaVuSans-Bold-74" x="677.208984"/>
    </g>
   </g>
  </g>
  <g id="axes_3">
   <g id="patch_12">
    <path d="M 480.476902 250.848 
L 662.433424 250.848 
L 662.433424 51.264 
L 480.476902 51.264 
z
" style="fill: #ffffff"/>
   </g>
   <g id="matplotlib.axis_5">
    <g id="xtick_9">
     <g id="line2d_35">
      <g>
       <use xlink:href="#mc2c6f6ec52" x="480.476902" y="250.848" style="stroke: #000000; stroke-width: 0.8"/>
      </g>
     </g>
     <g id="text_19">
      <!-- 1 -->
      <g transform="translate(477.295652 265.446438) scale(0.1 -0.1)">
       <use xlink:href="#DejaVuSans-31"/>
      </g>
     </g>
    </g>
    <g id="xtick_10">
     <g id="line2d_36">
      <g>
       <use xlink:href="#mc2c6f6ec52" x="540.134778" y="250.848" style="stroke: #000000; stroke-width: 0.8"/>
      </g>
     </g>
     <g id="text_20">
      <!-- 2 -->
      <g transform="translate(536.953528 265.446438) scale(0.1 -0.1)">
       <use xlink:href="#DejaVuSans-32"/>
      </g>
     </g>
    </g>
    <g id="xtick_11">
     <g id="line2d_37">
      <g>
       <use xlink:href="#mc2c6f6ec52" x="599.792654" y="250.848" style="stroke: #000000; stroke-width: 0.8"/>
      </g>
     </g>
     <g id="text_21">
      <!-- 3 -->
      <g transform="translate(596.611404 265.446438) scale(0.1 -0.1)">
       <use xlink:href="#DejaVuSans-33"/>
      </g>
     </g>
    </g>
    <g id="xtick_12">
     <g id="line2d_38">
      <g>
       <use xlink:href="#mc2c6f6ec52" x="659.45053" y="250.848" style="stroke: #000000; stroke-width: 0.8"/>
      </g>
     </g>
     <g id="text_22">
      <!-- 4 -->
      <g transform="translate(656.26928 265.446438) scale(0.1 -0.1)">
       <use xlink:href="#DejaVuSans-34"/>
      </g>
     </g>
    </g>
    <g id="text_23">
     <!-- after task i -->
     <g transform="translate(544.534851 279.124563) scale(0.1 -0.1)">
      <use xlink:href="#DejaVuSans-61"/>
      <use xlink:href="#DejaVuSans-66" x="61.279297"/>
      <use xlink:href="#DejaVuSans-74" x="94.734375"/>
      <use xlink:href="#DejaVuSans-65" x="133.943359"/>
      <use xlink:href="#DejaVuSans-72" x="195.466797"/>
      <use xlink:href="#DejaVuSans-20" x="236.580078"/>
      <use xlink:href="#DejaVuSans-74" x="268.367188"/>
      <use xlink:href="#DejaVuSans-61" x="307.576172"/>
      <use xlink:href="#DejaVuSans-73" x="368.855469"/>
      <use xlink:href="#DejaVuSans-6b" x="420.955078"/>
      <use xlink:href="#DejaVuSans-20" x="478.865234"/>
      <use xlink:href="#DejaVuSans-69" x="510.652344"/>
     </g>
    </g>
   </g>
   <g id="matplotlib.axis_6">
    <g id="ytick_11">
     <g id="line2d_39">
      <g>
       <use xlink:href="#m21cc26875d" x="480.476902" y="241.129622" style="stroke: #000000; stroke-width: 0.8"/>
      </g>
     </g>
    </g>
    <g id="ytick_12">
     <g id="line2d_40">
      <g>
       <use xlink:href="#m21cc26875d" x="480.476902" y="199.438234" style="stroke: #000000; stroke-width: 0.8"/>
      </g>
     </g>
    </g>
    <g id="ytick_13">
     <g id="line2d_41">
      <g>
       <use xlink:href="#m21cc26875d" x="480.476902" y="157.746846" style="stroke: #000000; stroke-width: 0.8"/>
      </g>
     </g>
    </g>
    <g id="ytick_14">
     <g id="line2d_42">
      <g>
       <use xlink:href="#m21cc26875d" x="480.476902" y="116.055458" style="stroke: #000000; stroke-width: 0.8"/>
      </g>
     </g>
    </g>
    <g id="ytick_15">
     <g id="line2d_43">
      <g>
       <use xlink:href="#m21cc26875d" x="480.476902" y="74.36407" style="stroke: #000000; stroke-width: 0.8"/>
      </g>
     </g>
    </g>
   </g>
   <g id="LineCollection_5">
    <path d="M 599.792654 233.783775 
L 599.792654 180.748994 
" clip-path="url(#p3fad8ab9d5)" style="fill: none; stroke: #1b9e77; stroke-width: 1.5"/>
    <path d="M 659.45053 237.178447 
L 659.45053 232.98612 
" clip-path="url(#p3fad8ab9d5)" style="fill: none; stroke: #1b9e77; stroke-width: 1.5"/>
   </g>
   <g id="line2d_44">
    <g clip-path="url(#p3fad8ab9d5)">
     <use xlink:href="#m7f389c4ecf" x="599.792654" y="233.783775" style="fill: #1b9e77; stroke: #1b9e77"/>
     <use xlink:href="#m7f389c4ecf" x="659.45053" y="237.178447" style="fill: #1b9e77; stroke: #1b9e77"/>
    </g>
   </g>
   <g id="line2d_45">
    <g clip-path="url(#p3fad8ab9d5)">
     <use xlink:href="#m7f389c4ecf" x="599.792654" y="180.748994" style="fill: #1b9e77; stroke: #1b9e77"/>
     <use xlink:href="#m7f389c4ecf" x="659.45053" y="232.98612" style="fill: #1b9e77; stroke: #1b9e77"/>
    </g>
   </g>
   <g id="LineCollection_6">
    <path d="M 599.792654 197.815099 
L 599.792654 179.914237 
" clip-path="url(#p3fad8ab9d5)" style="fill: none; stroke: #d95f02; stroke-width: 1.5"/>
    <path d="M 659.45053 237.104246 
L 659.45053 215.771611 
" clip-path="url(#p3fad8ab9d5)" style="fill: none; stroke: #d95f02; stroke-width: 1.5"/>
   </g>
   <g id="line2d_46">
    <g clip-path="url(#p3fad8ab9d5)">
     <use xlink:href="#meee6369195" x="599.792654" y="197.815099" style="fill: #d95f02; stroke: #d95f02"/>
     <use xlink:href="#meee6369195" x="659.45053" y="237.104246" style="fill: #d95f02; stroke: #d95f02"/>
    </g>
   </g>
   <g id="line2d_47">
    <g clip-path="url(#p3fad8ab9d5)">
     <use xlink:href="#meee6369195" x="599.792654" y="179.914237" style="fill: #d95f02; stroke: #d95f02"/>
     <use xlink:href="#meee6369195" x="659.45053" y="215.771611" style="fill: #d95f02; stroke: #d95f02"/>
    </g>
   </g>
   <g id="line2d_48">
    <path d="M 480.476902 241.129622 
L 662.433424 241.129622 
" clip-path="url(#p3fad8ab9d5)" style="fill: none; stroke-dasharray: 0.8,1.32; stroke-dashoffset: 0; stroke: #999999; stroke-width: 0.8"/>
   </g>
   <g id="line2d_49">
    <path d="M 480.476902 157.746846 
L 662.433424 157.746846 
" clip-path="url(#p3fad8ab9d5)" style="fill: none; stroke-dasharray: 2.96,1.28; stroke-dashoffset: 0; stroke: #999999; stroke-width: 0.8"/>
   </g>
   <g id="line2d_50">
    <path d="M 599.792654 207.266385 
L 659.45053 235.082284 
" clip-path="url(#p3fad8ab9d5)" style="fill: none; stroke: #1b9e77; stroke-width: 1.5; stroke-linecap: square"/>
    <g clip-path="url(#p3fad8ab9d5)">
     <use xlink:href="#ma14a5c9def" x="599.792654" y="207.266385" style="fill: #1b9e77; stroke: #1b9e77"/>
     <use xlink:href="#ma14a5c9def" x="659.45053" y="235.082284" style="fill: #1b9e77; stroke: #1b9e77"/>
    </g>
   </g>
   <g id="line2d_51">
    <path d="M 599.792654 188.864668 
L 659.45053 226.437929 
" clip-path="url(#p3fad8ab9d5)" style="fill: none; stroke: #d95f02; stroke-width: 1.5; stroke-linecap: square"/>
    <g clip-path="url(#p3fad8ab9d5)">
     <use xlink:href="#m32818fc0ea" x="599.792654" y="188.864668" style="fill: #d95f02; stroke: #d95f02"/>
     <use xlink:href="#m32818fc0ea" x="659.45053" y="226.437929" style="fill: #d95f02; stroke: #d95f02"/>
    </g>
   </g>
   <g id="patch_13">
    <path d="M 480.476902 250.848 
L 480.476902 51.264 
" style="fill: none; stroke: #000000; stroke-width: 0.8; stroke-linejoin: miter; stroke-linecap: square"/>
   </g>
   <g id="patch_14">
    <path d="M 662.433424 250.848 
L 662.433424 51.264 
" style="fill: none; stroke: #000000; stroke-width: 0.8; stroke-linejoin: miter; stroke-linecap: square"/>
   </g>
   <g id="patch_15">
    <path d="M 480.476902 250.848 
L 662.433424 250.848 
" style="fill: none; stroke: #000000; stroke-width: 0.8; stroke-linejoin: miter; stroke-linecap: square"/>
   </g>
   <g id="patch_16">
    <path d="M 480.476902 51.264 
L 662.433424 51.264 
" style="fill: none; stroke: #000000; stroke-width: 0.8; stroke-linejoin: miter; stroke-linecap: square"/>
   </g>
   <g id="text_24">
    <!-- T3: Boxing -->
    <g transform="translate(535.511413 45.264) scale(0.12 -0.12)">
     <defs>
      <path id="DejaVuSans-Bold-33" d="M 2981 2516 
Q 3453 2394 3698 2092 
Q 3944 1791 3944 1325 
Q 3944 631 3412 270 
Q 2881 -91 1863 -91 
Q 1503 -91 1142 -33 
Q 781 25 428 141 
L 428 1069 
Q 766 900 1098 814 
Q 1431 728 1753 728 
Q 2231 728 2486 893 
Q 2741 1059 2741 1369 
Q 2741 1688 2480 1852 
Q 2219 2016 1709 2016 
L 1228 2016 
L 1228 2791 
L 1734 2791 
Q 2188 2791 2409 2933 
Q 2631 3075 2631 3366 
Q 2631 3634 2415 3781 
Q 2200 3928 1806 3928 
Q 1516 3928 1219 3862 
Q 922 3797 628 3669 
L 628 4550 
Q 984 4650 1334 4700 
Q 1684 4750 2022 4750 
Q 2931 4750 3382 4451 
Q 3834 4153 3834 3553 
Q 3834 3144 3618 2883 
Q 3403 2622 2981 2516 
z
" transform="scale(0.015625)"/>
      <path id="DejaVuSans-Bold-78" d="M 1422 1791 
L 159 3500 
L 1344 3500 
L 2059 2463 
L 2784 3500 
L 3969 3500 
L 2706 1797 
L 4031 0 
L 2847 0 
L 2059 1106 
L 1281 0 
L 97 0 
L 1422 1791 
z
" transform="scale(0.015625)"/>
      <path id="DejaVuSans-Bold-69" d="M 538 3500 
L 1656 3500 
L 1656 0 
L 538 0 
L 538 3500 
z
M 538 4863 
L 1656 4863 
L 1656 3950 
L 538 3950 
L 538 4863 
z
" transform="scale(0.015625)"/>
     </defs>
     <use xlink:href="#DejaVuSans-Bold-54"/>
     <use xlink:href="#DejaVuSans-Bold-33" x="68.212891"/>
     <use xlink:href="#DejaVuSans-Bold-3a" x="137.792969"/>
     <use xlink:href="#DejaVuSans-Bold-20" x="177.783203"/>
     <use xlink:href="#DejaVuSans-Bold-42" x="212.597656"/>
     <use xlink:href="#DejaVuSans-Bold-6f" x="288.818359"/>
     <use xlink:href="#DejaVuSans-Bold-78" x="357.519531"/>
     <use xlink:href="#DejaVuSans-Bold-69" x="422.021484"/>
     <use xlink:href="#DejaVuSans-Bold-6e" x="456.298828"/>
     <use xlink:href="#DejaVuSans-Bold-67" x="527.490234"/>
    </g>
   </g>
  </g>
  <g id="axes_4">
   <g id="patch_17">
    <path d="M 698.824728 250.848 
L 880.78125 250.848 
L 880.78125 51.264 
L 698.824728 51.264 
z
" style="fill: #ffffff"/>
   </g>
   <g id="matplotlib.axis_7">
    <g id="xtick_13">
     <g id="line2d_52">
      <g>
       <use xlink:href="#mc2c6f6ec52" x="698.824728" y="250.848" style="stroke: #000000; stroke-width: 0.8"/>
      </g>
     </g>
     <g id="text_25">
      <!-- 1 -->
      <g transform="translate(695.643478 265.446438) scale(0.1 -0.1)">
       <use xlink:href="#DejaVuSans-31"/>
      </g>
     </g>
    </g>
    <g id="xtick_14">
     <g id="line2d_53">
      <g>
       <use xlink:href="#mc2c6f6ec52" x="755.332965" y="250.848" style="stroke: #000000; stroke-width: 0.8"/>
      </g>
     </g>
     <g id="text_26">
      <!-- 2 -->
      <g transform="translate(752.151715 265.446438) scale(0.1 -0.1)">
       <use xlink:href="#DejaVuSans-32"/>
      </g>
     </g>
    </g>
    <g id="xtick_15">
     <g id="line2d_54">
      <g>
       <use xlink:href="#mc2c6f6ec52" x="811.841201" y="250.848" style="stroke: #000000; stroke-width: 0.8"/>
      </g>
     </g>
     <g id="text_27">
      <!-- 3 -->
      <g transform="translate(808.659951 265.446438) scale(0.1 -0.1)">
       <use xlink:href="#DejaVuSans-33"/>
      </g>
     </g>
    </g>
    <g id="xtick_16">
     <g id="line2d_55">
      <g>
       <use xlink:href="#mc2c6f6ec52" x="868.349438" y="250.848" style="stroke: #000000; stroke-width: 0.8"/>
      </g>
     </g>
     <g id="text_28">
      <!-- 4 -->
      <g transform="translate(865.168188 265.446438) scale(0.1 -0.1)">
       <use xlink:href="#DejaVuSans-34"/>
      </g>
     </g>
    </g>
    <g id="text_29">
     <!-- after task i -->
     <g transform="translate(762.882677 279.124563) scale(0.1 -0.1)">
      <use xlink:href="#DejaVuSans-61"/>
      <use xlink:href="#DejaVuSans-66" x="61.279297"/>
      <use xlink:href="#DejaVuSans-74" x="94.734375"/>
      <use xlink:href="#DejaVuSans-65" x="133.943359"/>
      <use xlink:href="#DejaVuSans-72" x="195.466797"/>
      <use xlink:href="#DejaVuSans-20" x="236.580078"/>
      <use xlink:href="#DejaVuSans-74" x="268.367188"/>
      <use xlink:href="#DejaVuSans-61" x="307.576172"/>
      <use xlink:href="#DejaVuSans-73" x="368.855469"/>
      <use xlink:href="#DejaVuSans-6b" x="420.955078"/>
      <use xlink:href="#DejaVuSans-20" x="478.865234"/>
      <use xlink:href="#DejaVuSans-69" x="510.652344"/>
     </g>
    </g>
   </g>
   <g id="matplotlib.axis_8">
    <g id="ytick_16">
     <g id="line2d_56">
      <g>
       <use xlink:href="#m21cc26875d" x="698.824728" y="241.129622" style="stroke: #000000; stroke-width: 0.8"/>
      </g>
     </g>
    </g>
    <g id="ytick_17">
     <g id="line2d_57">
      <g>
       <use xlink:href="#m21cc26875d" x="698.824728" y="199.438234" style="stroke: #000000; stroke-width: 0.8"/>
      </g>
     </g>
    </g>
    <g id="ytick_18">
     <g id="line2d_58">
      <g>
       <use xlink:href="#m21cc26875d" x="698.824728" y="157.746846" style="stroke: #000000; stroke-width: 0.8"/>
      </g>
     </g>
    </g>
    <g id="ytick_19">
     <g id="line2d_59">
      <g>
       <use xlink:href="#m21cc26875d" x="698.824728" y="116.055458" style="stroke: #000000; stroke-width: 0.8"/>
      </g>
     </g>
    </g>
    <g id="ytick_20">
     <g id="line2d_60">
      <g>
       <use xlink:href="#m21cc26875d" x="698.824728" y="74.36407" style="stroke: #000000; stroke-width: 0.8"/>
      </g>
     </g>
    </g>
   </g>
   <g id="LineCollection_7">
    <path d="M 868.349438 226.18421 
L 868.349438 222.664703 
" clip-path="url(#pd366b978c8)" style="fill: none; stroke: #1b9e77; stroke-width: 1.5"/>
   </g>
   <g id="line2d_61">
    <g clip-path="url(#pd366b978c8)">
     <use xlink:href="#m7f389c4ecf" x="868.349438" y="226.18421" style="fill: #1b9e77; stroke: #1b9e77"/>
    </g>
   </g>
   <g id="line2d_62">
    <g clip-path="url(#pd366b978c8)">
     <use xlink:href="#m7f389c4ecf" x="868.349438" y="222.664703" style="fill: #1b9e77; stroke: #1b9e77"/>
    </g>
   </g>
   <g id="LineCollection_8">
    <path d="M 868.349438 139.127523 
L 868.349438 60.336 
" clip-path="url(#pd366b978c8)" style="fill: none; stroke: #d95f02; stroke-width: 1.5"/>
   </g>
   <g id="line2d_63">
    <g clip-path="url(#pd366b978c8)">
     <use xlink:href="#meee6369195" x="868.349438" y="139.127523" style="fill: #d95f02; stroke: #d95f02"/>
    </g>
   </g>
   <g id="line2d_64">
    <g clip-path="url(#pd366b978c8)">
     <use xlink:href="#meee6369195" x="868.349438" y="60.336" style="fill: #d95f02; stroke: #d95f02"/>
    </g>
   </g>
   <g id="line2d_65">
    <path d="M 698.824728 241.129622 
L 880.78125 241.129622 
" clip-path="url(#pd366b978c8)" style="fill: none; stroke-dasharray: 0.8,1.32; stroke-dashoffset: 0; stroke: #999999; stroke-width: 0.8"/>
   </g>
   <g id="line2d_66">
    <path d="M 698.824728 157.746846 
L 880.78125 157.746846 
" clip-path="url(#pd366b978c8)" style="fill: none; stroke-dasharray: 2.96,1.28; stroke-dashoffset: 0; stroke: #999999; stroke-width: 0.8"/>
   </g>
   <g id="line2d_67">
    <path d="M 868.349438 224.424457 
" clip-path="url(#pd366b978c8)" style="fill: none; stroke: #1b9e77; stroke-width: 1.5; stroke-linecap: square"/>
    <g clip-path="url(#pd366b978c8)">
     <use xlink:href="#ma14a5c9def" x="868.349438" y="224.424457" style="fill: #1b9e77; stroke: #1b9e77"/>
    </g>
   </g>
   <g id="line2d_68">
    <path d="M 868.349438 99.731762 
" clip-path="url(#pd366b978c8)" style="fill: none; stroke: #d95f02; stroke-width: 1.5; stroke-linecap: square"/>
    <g clip-path="url(#pd366b978c8)">
     <use xlink:href="#m32818fc0ea" x="868.349438" y="99.731762" style="fill: #d95f02; stroke: #d95f02"/>
    </g>
   </g>
   <g id="patch_18">
    <path d="M 698.824728 250.848 
L 698.824728 51.264 
" style="fill: none; stroke: #000000; stroke-width: 0.8; stroke-linejoin: miter; stroke-linecap: square"/>
   </g>
   <g id="patch_19">
    <path d="M 880.78125 250.848 
L 880.78125 51.264 
" style="fill: none; stroke: #000000; stroke-width: 0.8; stroke-linejoin: miter; stroke-linecap: square"/>
   </g>
   <g id="patch_20">
    <path d="M 698.824728 250.848 
L 880.78125 250.848 
" style="fill: none; stroke: #000000; stroke-width: 0.8; stroke-linejoin: miter; stroke-linecap: square"/>
   </g>
   <g id="patch_21">
    <path d="M 698.824728 51.264 
L 880.78125 51.264 
" style="fill: none; stroke: #000000; stroke-width: 0.8; stroke-linejoin: miter; stroke-linecap: square"/>
   </g>
   <g id="text_30">
    <!-- T4: Qbert -->
    <g transform="translate(757.755489 45.264) scale(0.12 -0.12)">
     <defs>
      <path id="DejaVuSans-Bold-34" d="M 2356 3675 
L 1038 1722 
L 2356 1722 
L 2356 3675 
z
M 2156 4666 
L 3494 4666 
L 3494 1722 
L 4159 1722 
L 4159 850 
L 3494 850 
L 3494 0 
L 2356 0 
L 2356 850 
L 288 850 
L 288 1881 
L 2156 4666 
z
" transform="scale(0.015625)"/>
      <path id="DejaVuSans-Bold-51" d="M 2847 -84 
L 2753 -84 
Q 1600 -84 959 553 
Q 319 1191 319 2328 
Q 319 3463 958 4106 
Q 1597 4750 2719 4750 
Q 3853 4750 4486 4112 
Q 5119 3475 5119 2328 
Q 5119 1541 4783 972 
Q 4447 403 3816 116 
L 4756 -934 
L 3609 -934 
L 2847 -84 
z
M 2719 3878 
Q 2169 3878 1866 3472 
Q 1563 3066 1563 2328 
Q 1563 1578 1859 1179 
Q 2156 781 2719 781 
Q 3272 781 3575 1187 
Q 3878 1594 3878 2328 
Q 3878 3066 3575 3472 
Q 3272 3878 2719 3878 
z
" transform="scale(0.015625)"/>
      <path id="DejaVuSans-Bold-62" d="M 2400 722 
Q 2759 722 2948 984 
Q 3138 1247 3138 1747 
Q 3138 2247 2948 2509 
Q 2759 2772 2400 2772 
Q 2041 2772 1848 2508 
Q 1656 2244 1656 1747 
Q 1656 1250 1848 986 
Q 2041 722 2400 722 
z
M 1656 2988 
Q 1888 3294 2169 3439 
Q 2450 3584 2816 3584 
Q 3463 3584 3878 3070 
Q 4294 2556 4294 1747 
Q 4294 938 3878 423 
Q 3463 -91 2816 -91 
Q 2450 -91 2169 54 
Q 1888 200 1656 506 
L 1656 0 
L 538 0 
L 538 4863 
L 1656 4863 
L 1656 2988 
z
" transform="scale(0.015625)"/>
     </defs>
     <use xlink:href="#DejaVuSans-Bold-54"/>
     <use xlink:href="#DejaVuSans-Bold-34" x="68.212891"/>
     <use xlink:href="#DejaVuSans-Bold-3a" x="137.792969"/>
     <use xlink:href="#DejaVuSans-Bold-20" x="177.783203"/>
     <use xlink:href="#DejaVuSans-Bold-51" x="212.597656"/>
     <use xlink:href="#DejaVuSans-Bold-62" x="297.607422"/>
     <use xlink:href="#DejaVuSans-Bold-65" x="369.189453"/>
     <use xlink:href="#DejaVuSans-Bold-72" x="437.011719"/>
     <use xlink:href="#DejaVuSans-Bold-74" x="486.328125"/>
    </g>
   </g>
   <g id="legend_1">
    <g id="patch_22">
     <path d="M 704.424728 81.149 
L 765.425978 81.149 
Q 767.025978 81.149 767.025978 79.549 
L 767.025978 56.864 
Q 767.025978 55.264 765.425978 55.264 
L 704.424728 55.264 
Q 702.824728 55.264 702.824728 56.864 
L 702.824728 79.549 
Q 702.824728 81.149 704.424728 81.149 
z
" style="fill: #ffffff; opacity: 0.8; stroke: #cccccc; stroke-linejoin: miter"/>
    </g>
    <g id="LineCollection_9">
     <path d="M 714.024728 65.74275 
L 714.024728 57.74275 
" style="fill: none; stroke: #1b9e77; stroke-width: 1.5"/>
    </g>
    <g id="line2d_69">
     <g>
      <use xlink:href="#m7f389c4ecf" x="714.024728" y="65.74275" style="fill: #1b9e77; stroke: #1b9e77"/>
     </g>
    </g>
    <g id="line2d_70">
     <g>
      <use xlink:href="#m7f389c4ecf" x="714.024728" y="57.74275" style="fill: #1b9e77; stroke: #1b9e77"/>
     </g>
    </g>
    <g id="line2d_71">
     <path d="M 706.024728 61.74275 
L 722.024728 61.74275 
" style="fill: none; stroke: #1b9e77; stroke-width: 1.5; stroke-linecap: square"/>
    </g>
    <g id="line2d_72">
     <g>
      <use xlink:href="#ma14a5c9def" x="714.024728" y="61.74275" style="fill: #1b9e77; stroke: #1b9e77"/>
     </g>
    </g>
    <g id="text_31">
     <!-- min-max -->
     <g transform="translate(728.424728 64.54275) scale(0.08 -0.08)">
      <defs>
       <path id="DejaVuSans-2d" d="M 313 2009 
L 1997 2009 
L 1997 1497 
L 313 1497 
L 313 2009 
z
" transform="scale(0.015625)"/>
       <path id="DejaVuSans-78" d="M 3513 3500 
L 2247 1797 
L 3578 0 
L 2900 0 
L 1881 1375 
L 863 0 
L 184 0 
L 1544 1831 
L 300 3500 
L 978 3500 
L 1906 2253 
L 2834 3500 
L 3513 3500 
z
" transform="scale(0.015625)"/>
      </defs>
      <use xlink:href="#DejaVuSans-6d"/>
      <use xlink:href="#DejaVuSans-69" x="97.412109"/>
      <use xlink:href="#DejaVuSans-6e" x="125.195312"/>
      <use xlink:href="#DejaVuSans-2d" x="188.574219"/>
      <use xlink:href="#DejaVuSans-6d" x="224.658203"/>
      <use xlink:href="#DejaVuSans-61" x="322.070312"/>
      <use xlink:href="#DejaVuSans-78" x="383.349609"/>
     </g>
    </g>
    <g id="LineCollection_10">
     <path d="M 714.024728 77.48525 
L 714.024728 69.48525 
" style="fill: none; stroke: #d95f02; stroke-width: 1.5"/>
    </g>
    <g id="line2d_73">
     <g>
      <use xlink:href="#meee6369195" x="714.024728" y="77.48525" style="fill: #d95f02; stroke: #d95f02"/>
     </g>
    </g>
    <g id="line2d_74">
     <g>
      <use xlink:href="#meee6369195" x="714.024728" y="69.48525" style="fill: #d95f02; stroke: #d95f02"/>
     </g>
    </g>
    <g id="line2d_75">
     <path d="M 706.024728 73.48525 
L 722.024728 73.48525 
" style="fill: none; stroke: #d95f02; stroke-width: 1.5; stroke-linecap: square"/>
    </g>
    <g id="line2d_76">
     <g>
      <use xlink:href="#m32818fc0ea" x="714.024728" y="73.48525" style="fill: #d95f02; stroke: #d95f02"/>
     </g>
    </g>
    <g id="text_32">
     <!-- finetune -->
     <g transform="translate(728.424728 76.28525) scale(0.08 -0.08)">
      <defs>
       <path id="DejaVuSans-75" d="M 544 1381 
L 544 3500 
L 1119 3500 
L 1119 1403 
Q 1119 906 1312 657 
Q 1506 409 1894 409 
Q 2359 409 2629 706 
Q 2900 1003 2900 1516 
L 2900 3500 
L 3475 3500 
L 3475 0 
L 2900 0 
L 2900 538 
Q 2691 219 2414 64 
Q 2138 -91 1772 -91 
Q 1169 -91 856 284 
Q 544 659 544 1381 
z
M 1991 3584 
L 1991 3584 
z
" transform="scale(0.015625)"/>
      </defs>
      <use xlink:href="#DejaVuSans-66"/>
      <use xlink:href="#DejaVuSans-69" x="35.205078"/>
      <use xlink:href="#DejaVuSans-6e" x="62.988281"/>
      <use xlink:href="#DejaVuSans-65" x="126.367188"/>
      <use xlink:href="#DejaVuSans-74" x="187.890625"/>
      <use xlink:href="#DejaVuSans-75" x="227.099609"/>
      <use xlink:href="#DejaVuSans-6e" x="290.478516"/>
      <use xlink:href="#DejaVuSans-65" x="353.857422"/>
     </g>
    </g>
   </g>
  </g>
  <g id="text_33">
   <!-- Retention of each game as later tasks are learned (normalized, mean±std, seeds 0/4) -->
   <g transform="translate(158.449688 16.318125) scale(0.12 -0.12)">
    <defs>
     <path id="DejaVuSans-Bold-52" d="M 2297 2597 
Q 2675 2597 2839 2737 
Q 3003 2878 3003 3200 
Q 3003 3519 2839 3656 
Q 2675 3794 2297 3794 
L 1791 3794 
L 1791 2597 
L 2297 2597 
z
M 1791 1766 
L 1791 0 
L 588 0 
L 588 4666 
L 2425 4666 
Q 3347 4666 3776 4356 
Q 4206 4047 4206 3378 
Q 4206 2916 3982 2619 
Q 3759 2322 3309 2181 
Q 3556 2125 3751 1926 
Q 3947 1728 4147 1325 
L 4800 0 
L 3519 0 
L 2950 1159 
Q 2778 1509 2601 1637 
Q 2425 1766 2131 1766 
L 1791 1766 
z
" transform="scale(0.015625)"/>
     <path id="DejaVuSans-Bold-66" d="M 2841 4863 
L 2841 4128 
L 2222 4128 
Q 1984 4128 1890 4042 
Q 1797 3956 1797 3744 
L 1797 3500 
L 2753 3500 
L 2753 2700 
L 1797 2700 
L 1797 0 
L 678 0 
L 678 2700 
L 122 2700 
L 122 3500 
L 678 3500 
L 678 3744 
Q 678 4316 997 4589 
Q 1316 4863 1984 4863 
L 2841 4863 
z
" transform="scale(0.015625)"/>
     <path id="DejaVuSans-Bold-63" d="M 3366 3391 
L 3366 2478 
Q 3138 2634 2908 2709 
Q 2678 2784 2431 2784 
Q 1963 2784 1702 2511 
Q 1441 2238 1441 1747 
Q 1441 1256 1702 982 
Q 1963 709 2431 709 
Q 2694 709 2930 787 
Q 3166 866 3366 1019 
L 3366 103 
Q 3103 6 2833 -42 
Q 2563 -91 2291 -91 
Q 1344 -91 809 395 
Q 275 881 275 1747 
Q 275 2613 809 3098 
Q 1344 3584 2291 3584 
Q 2566 3584 2833 3536 
Q 3100 3488 3366 3391 
z
" transform="scale(0.015625)"/>
     <path id="DejaVuSans-Bold-68" d="M 4056 2131 
L 4056 0 
L 2931 0 
L 2931 347 
L 2931 1625 
Q 2931 2084 2911 2256 
Q 2891 2428 2841 2509 
Q 2775 2619 2662 2680 
Q 2550 2741 2406 2741 
Q 2056 2741 1856 2470 
Q 1656 2200 1656 1722 
L 1656 0 
L 538 0 
L 538 4863 
L 1656 4863 
L 1656 2988 
Q 1909 3294 2193 3439 
Q 2478 3584 2822 3584 
Q 3428 3584 3742 3212 
Q 4056 2841 4056 2131 
z
" transform="scale(0.015625)"/>
     <path id="DejaVuSans-Bold-6d" d="M 3781 2919 
Q 3994 3244 4286 3414 
Q 4578 3584 4928 3584 
Q 5531 3584 5847 3212 
Q 6163 2841 6163 2131 
L 6163 0 
L 5038 0 
L 5038 1825 
Q 5041 1866 5042 1909 
Q 5044 1953 5044 2034 
Q 5044 2406 4934 2573 
Q 4825 2741 4581 2741 
Q 4263 2741 4089 2478 
Q 3916 2216 3909 1719 
L 3909 0 
L 2784 0 
L 2784 1825 
Q 2784 2406 2684 2573 
Q 2584 2741 2328 2741 
Q 2006 2741 1831 2477 
Q 1656 2213 1656 1722 
L 1656 0 
L 531 0 
L 531 3500 
L 1656 3500 
L 1656 2988 
Q 1863 3284 2130 3434 
Q 2397 3584 2719 3584 
Q 3081 3584 3359 3409 
Q 3638 3234 3781 2919 
z
" transform="scale(0.015625)"/>
     <path id="DejaVuSans-Bold-73" d="M 3272 3391 
L 3272 2541 
Q 2913 2691 2578 2766 
Q 2244 2841 1947 2841 
Q 1628 2841 1473 2761 
Q 1319 2681 1319 2516 
Q 1319 2381 1436 2309 
Q 1553 2238 1856 2203 
L 2053 2175 
Q 2913 2066 3209 1816 
Q 3506 1566 3506 1031 
Q 3506 472 3093 190 
Q 2681 -91 1863 -91 
Q 1516 -91 1145 -36 
Q 775 19 384 128 
L 384 978 
Q 719 816 1070 734 
Q 1422 653 1784 653 
Q 2113 653 2278 743 
Q 2444 834 2444 1013 
Q 2444 1163 2330 1236 
Q 2216 1309 1875 1350 
L 1678 1375 
Q 931 1469 631 1722 
Q 331 1975 331 2491 
Q 331 3047 712 3315 
Q 1094 3584 1881 3584 
Q 2191 3584 2531 3537 
Q 2872 3491 3272 3391 
z
" transform="scale(0.015625)"/>
     <path id="DejaVuSans-Bold-6c" d="M 538 4863 
L 1656 4863 
L 1656 0 
L 538 0 
L 538 4863 
z
" transform="scale(0.015625)"/>
     <path id="DejaVuSans-Bold-64" d="M 2919 2988 
L 2919 4863 
L 4044 4863 
L 4044 0 
L 2919 0 
L 2919 506 
Q 2688 197 2409 53 
Q 2131 -91 1766 -91 
Q 1119 -91 703 423 
Q 288 938 288 1747 
Q 288 2556 703 3070 
Q 1119 3584 1766 3584 
Q 2128 3584 2408 3439 
Q 2688 3294 2919 2988 
z
M 2181 722 
Q 2541 722 2730 984 
Q 2919 1247 2919 1747 
Q 2919 2247 2730 2509 
Q 2541 2772 2181 2772 
Q 1825 2772 1636 2509 
Q 1447 2247 1447 1747 
Q 1447 1247 1636 984 
Q 1825 722 2181 722 
z
" transform="scale(0.015625)"/>
     <path id="DejaVuSans-Bold-28" d="M 2413 -844 
L 1484 -844 
Q 1006 -72 778 623 
Q 550 1319 550 2003 
Q 550 2688 779 3389 
Q 1009 4091 1484 4856 
L 2413 4856 
Q 2013 4116 1813 3408 
Q 1613 2700 1613 2009 
Q 1613 1319 1811 609 
Q 2009 -100 2413 -844 
z
" transform="scale(0.015625)"/>
     <path id="DejaVuSans-Bold-7a" d="M 366 3500 
L 3419 3500 
L 3419 2719 
L 1575 800 
L 3419 800 
L 3419 0 
L 288 0 
L 288 781 
L 2131 2700 
L 366 2700 
L 366 3500 
z
" transform="scale(0.015625)"/>
     <path id="DejaVuSans-Bold-2c" d="M 653 1209 
L 1778 1209 
L 1778 256 
L 1006 -909 
L 341 -909 
L 653 256 
L 653 1209 
z
" transform="scale(0.015625)"/>
     <path id="DejaVuSans-Bold-b1" d="M 3053 4013 
L 3053 2906 
L 4684 2906 
L 4684 2169 
L 3053 2169 
L 3053 1063 
L 2309 1063 
L 2309 2169 
L 678 2169 
L 678 2906 
L 2309 2906 
L 2309 4013 
L 3053 4013 
z
M 678 744 
L 4684 744 
L 4684 0 
L 678 0 
L 678 744 
z
" transform="scale(0.015625)"/>
     <path id="DejaVuSans-Bold-30" d="M 2944 2338 
Q 2944 3213 2780 3570 
Q 2616 3928 2228 3928 
Q 1841 3928 1675 3570 
Q 1509 3213 1509 2338 
Q 1509 1453 1675 1090 
Q 1841 728 2228 728 
Q 2613 728 2778 1090 
Q 2944 1453 2944 2338 
z
M 4147 2328 
Q 4147 1169 3647 539 
Q 3147 -91 2228 -91 
Q 1306 -91 806 539 
Q 306 1169 306 2328 
Q 306 3491 806 4120 
Q 1306 4750 2228 4750 
Q 3147 4750 3647 4120 
Q 4147 3491 4147 2328 
z
" transform="scale(0.015625)"/>
     <path id="DejaVuSans-Bold-2f" d="M 1644 4666 
L 2338 4666 
L 691 -594 
L 0 -594 
L 1644 4666 
z
" transform="scale(0.015625)"/>
     <path id="DejaVuSans-Bold-29" d="M 513 -844 
Q 913 -100 1113 609 
Q 1313 1319 1313 2009 
Q 1313 2700 1113 3408 
Q 913 4116 513 4856 
L 1441 4856 
Q 1916 4091 2145 3389 
Q 2375 2688 2375 2003 
Q 2375 1319 2147 623 
Q 1919 -72 1441 -844 
L 513 -844 
z
" transform="scale(0.015625)"/>
    </defs>
    <use xlink:href="#DejaVuSans-Bold-52"/>
    <use xlink:href="#DejaVuSans-Bold-65" x="77.001953"/>
    <use xlink:href="#DejaVuSans-Bold-74" x="144.824219"/>
    <use xlink:href="#DejaVuSans-Bold-65" x="192.626953"/>
    <use xlink:href="#DejaVuSans-Bold-6e" x="260.449219"/>
    <use xlink:href="#DejaVuSans-Bold-74" x="331.640625"/>
    <use xlink:href="#DejaVuSans-Bold-69" x="379.443359"/>
    <use xlink:href="#DejaVuSans-Bold-6f" x="413.720703"/>
    <use xlink:href="#DejaVuSans-Bold-6e" x="482.421875"/>
    <use xlink:href="#DejaVuSans-Bold-20" x="553.613281"/>
    <use xlink:href="#DejaVuSans-Bold-6f" x="588.427734"/>
    <use xlink:href="#DejaVuSans-Bold-66" x="657.128906"/>
    <use xlink:href="#DejaVuSans-Bold-20" x="700.634766"/>
    <use xlink:href="#DejaVuSans-Bold-65" x="735.449219"/>
    <use xlink:href="#DejaVuSans-Bold-61" x="803.271484"/>
    <use xlink:href="#DejaVuSans-Bold-63" x="870.751953"/>
    <use xlink:href="#DejaVuSans-Bold-68" x="930.029297"/>
    <use xlink:href="#DejaVuSans-Bold-20" x="1001.220703"/>
    <use xlink:href="#DejaVuSans-Bold-67" x="1036.035156"/>
    <use xlink:href="#DejaVuSans-Bold-61" x="1107.617188"/>
    <use xlink:href="#DejaVuSans-Bold-6d" x="1175.097656"/>
    <use xlink:href="#DejaVuSans-Bold-65" x="1279.296875"/>
    <use xlink:href="#DejaVuSans-Bold-20" x="1347.119141"/>
    <use xlink:href="#DejaVuSans-Bold-61" x="1381.933594"/>
    <use xlink:href="#DejaVuSans-Bold-73" x="1449.414062"/>
    <use xlink:href="#DejaVuSans-Bold-20" x="1508.935547"/>
    <use xlink:href="#DejaVuSans-Bold-6c" x="1543.75"/>
    <use xlink:href="#DejaVuSans-Bold-61" x="1578.027344"/>
    <use xlink:href="#DejaVuSans-Bold-74" x="1645.507812"/>
    <use xlink:href="#DejaVuSans-Bold-65" x="1693.310547"/>
    <use xlink:href="#DejaVuSans-Bold-72" x="1761.132812"/>
    <use xlink:href="#DejaVuSans-Bold-20" x="1810.449219"/>
    <use xlink:href="#DejaVuSans-Bold-74" x="1845.263672"/>
    <use xlink:href="#DejaVuSans-Bold-61" x="1893.066406"/>
    <use xlink:href="#DejaVuSans-Bold-73" x="1960.546875"/>
    <use xlink:href="#DejaVuSans-Bold-6b" x="2020.068359"/>
    <use xlink:href="#DejaVuSans-Bold-73" x="2086.572266"/>
    <use xlink:href="#DejaVuSans-Bold-20" x="2146.09375"/>
    <use xlink:href="#DejaVuSans-Bold-61" x="2180.908203"/>
    <use xlink:href="#DejaVuSans-Bold-72" x="2248.388672"/>
    <use xlink:href="#DejaVuSans-Bold-65" x="2297.705078"/>
    <use xlink:href="#DejaVuSans-Bold-20" x="2365.527344"/>
    <use xlink:href="#DejaVuSans-Bold-6c" x="2400.341797"/>
    <use xlink:href="#DejaVuSans-Bold-65" x="2434.619141"/>
    <use xlink:href="#DejaVuSans-Bold-61" x="2502.441406"/>
    <use xlink:href="#DejaVuSans-Bold-72" x="2569.921875"/>
    <use xlink:href="#DejaVuSans-Bold-6e" x="2619.238281"/>
    <use xlink:href="#DejaVuSans-Bold-65" x="2690.429688"/>
    <use xlink:href="#DejaVuSans-Bold-64" x="2758.251953"/>
    <use xlink:href="#DejaVuSans-Bold-20" x="2829.833984"/>
    <use xlink:href="#DejaVuSans-Bold-28" x="2864.648438"/>
    <use xlink:href="#DejaVuSans-Bold-6e" x="2910.351562"/>
    <use xlink:href="#DejaVuSans-Bold-6f" x="2981.542969"/>
    <use xlink:href="#DejaVuSans-Bold-72" x="3050.244141"/>
    <use xlink:href="#DejaVuSans-Bold-6d" x="3099.560547"/>
    <use xlink:href="#DejaVuSans-Bold-61" x="3203.759766"/>
    <use xlink:href="#DejaVuSans-Bold-6c" x="3271.240234"/>
    <use xlink:href="#DejaVuSans-Bold-69" x="3305.517578"/>
    <use xlink:href="#DejaVuSans-Bold-7a" x="3339.794922"/>
    <use xlink:href="#DejaVuSans-Bold-65" x="3397.998047"/>
    <use xlink:href="#DejaVuSans-Bold-64" x="3465.820312"/>
    <use xlink:href="#DejaVuSans-Bold-2c" x="3537.402344"/>
    <use xlink:href="#DejaVuSans-Bold-20" x="3575.390625"/>
    <use xlink:href="#DejaVuSans-Bold-6d" x="3610.205078"/>
    <use xlink:href="#DejaVuSans-Bold-65" x="3714.404297"/>
    <use xlink:href="#DejaVuSans-Bold-61" x="3782.226562"/>
    <use xlink:href="#DejaVuSans-Bold-6e" x="3849.707031"/>
    <use xlink:href="#DejaVuSans-Bold-b1" x="3920.898438"/>
    <use xlink:href="#DejaVuSans-Bold-73" x="4004.6875"/>
    <use xlink:href="#DejaVuSans-Bold-74" x="4064.208984"/>
    <use xlink:href="#DejaVuSans-Bold-64" x="4112.011719"/>
    <use xlink:href="#DejaVuSans-Bold-2c" x="4183.59375"/>
    <use xlink:href="#DejaVuSans-Bold-20" x="4221.582031"/>
    <use xlink:href="#DejaVuSans-Bold-73" x="4256.396484"/>
    <use xlink:href="#DejaVuSans-Bold-65" x="4315.917969"/>
    <use xlink:href="#DejaVuSans-Bold-65" x="4383.740234"/>
    <use xlink:href="#DejaVuSans-Bold-64" x="4451.5625"/>
    <use xlink:href="#DejaVuSans-Bold-73" x="4523.144531"/>
    <use xlink:href="#DejaVuSans-Bold-20" x="4582.666016"/>
    <use xlink:href="#DejaVuSans-Bold-30" x="4617.480469"/>
    <use xlink:href="#DejaVuSans-Bold-2f" x="4687.060547"/>
    <use xlink:href="#DejaVuSans-Bold-34" x="4723.583984"/>
    <use xlink:href="#DejaVuSans-Bold-29" x="4793.164062"/>
   </g>
   <!-- dotted=random(0), dashed=threshold(1) -->
   <g transform="translate(309.540938 29.84925) scale(0.12 -0.12)">
    <defs>
     <path id="DejaVuSans-Bold-3d" d="M 678 3084 
L 4684 3084 
L 4684 2350 
L 678 2350 
L 678 3084 
z
M 678 1663 
L 4684 1663 
L 4684 922 
L 678 922 
L 678 1663 
z
" transform="scale(0.015625)"/>
    </defs>
    <use xlink:href="#DejaVuSans-Bold-64"/>
    <use xlink:href="#DejaVuSans-Bold-6f" x="71.582031"/>
    <use xlink:href="#DejaVuSans-Bold-74" x="140.283203"/>
    <use xlink:href="#DejaVuSans-Bold-74" x="188.085938"/>
    <use xlink:href="#DejaVuSans-Bold-65" x="235.888672"/>
    <use xlink:href="#DejaVuSans-Bold-64" x="303.710938"/>
    <use xlink:href="#DejaVuSans-Bold-3d" x="375.292969"/>
    <use xlink:href="#DejaVuSans-Bold-72" x="459.082031"/>
    <use xlink:href="#DejaVuSans-Bold-61" x="508.398438"/>
    <use xlink:href="#DejaVuSans-Bold-6e" x="575.878906"/>
    <use xlink:href="#DejaVuSans-Bold-64" x="647.070312"/>
    <use xlink:href="#DejaVuSans-Bold-6f" x="718.652344"/>
    <use xlink:href="#DejaVuSans-Bold-6d" x="787.353516"/>
    <use xlink:href="#DejaVuSans-Bold-28" x="891.552734"/>
    <use xlink:href="#DejaVuSans-Bold-30" x="937.255859"/>
    <use xlink:href="#DejaVuSans-Bold-29" x="1006.835938"/>
    <use xlink:href="#DejaVuSans-Bold-2c" x="1052.539062"/>
    <use xlink:href="#DejaVuSans-Bold-20" x="1090.527344"/>
    <use xlink:href="#DejaVuSans-Bold-64" x="1125.341797"/>
    <use xlink:href="#DejaVuSans-Bold-61" x="1196.923828"/>
    <use xlink:href="#DejaVuSans-Bold-73" x="1264.404297"/>
    <use xlink:href="#DejaVuSans-Bold-68" x="1323.925781"/>
    <use xlink:href="#DejaVuSans-Bold-65" x="1395.117188"/>
    <use xlink:href="#DejaVuSans-Bold-64" x="1462.939453"/>
    <use xlink:href="#DejaVuSans-Bold-3d" x="1534.521484"/>
    <use xlink:href="#DejaVuSans-Bold-74" x="1618.310547"/>
    <use xlink:href="#DejaVuSans-Bold-68" x="1666.113281"/>
    <use xlink:href="#DejaVuSans-Bold-72" x="1737.304688"/>
    <use xlink:href="#DejaVuSans-Bold-65" x="1786.621094"/>
    <use xlink:href="#DejaVuSans-Bold-73" x="1854.443359"/>
    <use xlink:href="#DejaVuSans-Bold-68" x="1913.964844"/>
    <use xlink:href="#DejaVuSans-Bold-6f" x="1985.15625"/>
    <use xlink:href="#DejaVuSans-Bold-6c" x="2053.857422"/>
    <use xlink:href="#DejaVuSans-Bold-64" x="2088.134766"/>
    <use xlink:href="#DejaVuSans-Bold-28" x="2159.716797"/>
    <use xlink:href="#DejaVuSans-Bold-31" x="2205.419922"/>
    <use xlink:href="#DejaVuSans-Bold-29" x="2275"/>
   </g>
  </g>
 </g>
 <defs>
  <clipPath id="p28ad7076a2">
   <rect x="43.78125" y="51.264" width="181.956522" height="199.584"/>
  </clipPath>
  <clipPath id="p6fe03a8f00">
   <rect x="262.129076" y="51.264" width="181.956522" height="199.584"/>
  </clipPath>
  <clipPath id="p3fad8ab9d5">
   <rect x="480.476902" y="51.264" width="181.956522" height="199.584"/>
  </clipPath>
  <clipPath id="pd366b978c8">
   <rect x="698.824728" y="51.264" width="181.956522" height="199.584"/>
  </clipPath>
 </defs>
</svg>
