<?xml version="1.0" encoding="utf-8" standalone="no"?>
<!DOCTYPE svg PUBLIC "-//W3C//DTD SVG 1.1//EN"
  "http://www.w3.org/Graphics/SVG/1.1/DTD/svg11.dtd">
<svg xmlns:xlink="http://www.w3.org/1999/xlink" width="681.180625pt" height="420.234375pt" viewBox="0 0 681.180625 420.234375" xmlns="http://www.w3.org/2000/svg" version="1.1">
 <metadata>
  <rdf:RDF xmlns:dc="http://purl.org/dc/elements/1.1/" xmlns:cc="http://creativecommons.org/ns#" xmlns:rdf="http://www.w3.org/1999/02/22-rdf-syntax-ns#">
   <cc:Work>
    <dc:type rdf:resource="http://purl.org/dc/dcmitype/StillImage"/>
    <dc:date>2026-07-17T00:45:41.921360</dc:date>
    <dc:format>image/svg+xml</dc:format>
    <dc:creator>
     <cc:Agent>
      <dc:title>Matplotlib v3.7.1, https://matplotlib.org/</dc:title>
     </cc:Agent>
    </dc:creator>
   </cc:Work>
  </rdf:RDF>
 </metadata>
 <defs>
  <style type="text/css">*{stroke-linejoin: round; stroke-linecap: butt}</style>
 </defs>
 <g id="figure_1">
  <g id="patch_1">
   <path d="M 0 420.234375 
L 681.180625 420.234375 
L 681.180625 0 
L 0 0 
z
" style="fill: #ffffff"/>
  </g>
  <g id="axes_1">
   <g id="patch_2">
    <path d="M 60.180625 186.118125 
L 673.980625 186.118125 
L 673.980625 22.318125 
L 60.180625 22.318125 
z
" style="fill: #ffffff"/>
   </g>
   <g id="matplotlib.axis_1">
    <g id="xtick_1">
     <g id="line2d_1">
      <defs>
       <path id="mabf45fecbe" d="M 0 0 
L 0 3.5 
" style="stroke: #000000; stroke-width: 0.8"/>
      </defs>
      <g>
       <use xlink:href="#mabf45fecbe" x="86.200698" y="186.118125" style="stroke: #000000; stroke-width: 0.8"/>
      </g>
     </g>
    </g>
    <g id="xtick_2">
     <g id="line2d_2">
      <g>
       <use xlink:href="#mabf45fecbe" x="161.397787" y="186.118125" style="stroke: #000000; stroke-width: 0.8"/>
      </g>
     </g>
    </g>
    <g id="xtick_3">
     <g id="line2d_3">
      <g>
       <use xlink:href="#mabf45fecbe" x="236.594876" y="186.118125" style="stroke: #000000; stroke-width: 0.8"/>
      </g>
     </g>
    </g>
    <g id="xtick_4">
     <g id="line2d_4">
      <g>
       <use xlink:href="#mabf45fecbe" x="311.791965" y="186.118125" style="stroke: #000000; stroke-width: 0.8"/>
      </g>
     </g>
    </g>
    <g id="xtick_5">
     <g id="line2d_5">
      <g>
       <use xlink:href="#mabf45fecbe" x="386.989054" y="186.118125" style="stroke: #000000; stroke-width: 0.8"/>
      </g>
     </g>
    </g>
    <g id="xtick_6">
     <g id="line2d_6">
      <g>
       <use xlink:href="#mabf45fecbe" x="462.186143" y="186.118125" style="stroke: #000000; stroke-width: 0.8"/>
      </g>
     </g>
    </g>
    <g id="xtick_7">
     <g id="line2d_7">
      <g>
       <use xlink:href="#mabf45fecbe" x="537.383233" y="186.118125" style="stroke: #000000; stroke-width: 0.8"/>
      </g>
     </g>
    </g>
    <g id="xtick_8">
     <g id="line2d_8">
      <g>
       <use xlink:href="#mabf45fecbe" x="612.580322" y="186.118125" style="stroke: #000000; stroke-width: 0.8"/>
      </g>
     </g>
    </g>
   </g>
   <g id="matplotlib.axis_2">
    <g id="ytick_1">
     <g id="line2d_9">
      <defs>
       <path id="ma472fac392" d="M 0 0 
L -3.5 0 
" style="stroke: #000000; stroke-width: 0.8"/>
      </defs>
      <g>
       <use xlink:href="#ma472fac392" x="60.180625" y="176.899943" style="stroke: #000000; stroke-width: 0.8"/>
      </g>
     </g>
     <g id="text_1">
      <!-- −20 -->
      <g transform="translate(32.075937 180.699162) scale(0.1 -0.1)">
       <defs>
        <path id="DejaVuSans-2212" d="M 678 2272 
L 4684 2272 
L 4684 1741 
L 678 1741 
L 678 2272 
z
" transform="scale(0.015625)"/>
        <path id="DejaVuSans-32" d="M 1228 531 
L 3431 531 
L 3431 0 
L 469 0 
L 469 531 
Q 828 903 1448 1529 
Q 2069 2156 2228 2338 
Q 2531 2678 2651 2914 
Q 2772 3150 2772 3378 
Q 2772 3750 2511 3984 
Q 2250 4219 1831 4219 
Q 1534 4219 1204 4116 
Q 875 4013 500 3803 
L 500 4441 
Q 881 4594 1212 4672 
Q 1544 4750 1819 4750 
Q 2544 4750 2975 4387 
Q 3406 4025 3406 3419 
Q 3406 3131 3298 2873 
Q 3191 2616 2906 2266 
Q 2828 2175 2409 1742 
Q 1991 1309 1228 531 
z
" transform="scale(0.015625)"/>
        <path id="DejaVuSans-30" d="M 2034 4250 
Q 1547 4250 1301 3770 
Q 1056 3291 1056 2328 
Q 1056 1369 1301 889 
Q 1547 409 2034 409 
Q 2525 409 2770 889 
Q 3016 1369 3016 2328 
Q 3016 3291 2770 3770 
Q 2525 4250 2034 4250 
z
M 2034 4750 
Q 2819 4750 3233 4129 
Q 3647 3509 3647 2328 
Q 3647 1150 3233 529 
Q 2819 -91 2034 -91 
Q 1250 -91 836 529 
Q 422 1150 422 2328 
Q 422 3509 836 4129 
Q 1250 4750 2034 4750 
z
" transform="scale(0.015625)"/>
       </defs>
       <use xlink:href="#DejaVuSans-2212"/>
       <use xlink:href="#DejaVuSans-32" x="83.789062"/>
       <use xlink:href="#DejaVuSans-30" x="147.412109"/>
      </g>
     </g>
    </g>
    <g id="ytick_2">
     <g id="line2d_10">
      <g>
       <use xlink:href="#ma472fac392" x="60.180625" y="141.445398" style="stroke: #000000; stroke-width: 0.8"/>
      </g>
     </g>
     <g id="text_2">
      <!-- 0 -->
      <g transform="translate(46.818125 145.244616) scale(0.1 -0.1)">
       <use xlink:href="#DejaVuSans-30"/>
      </g>
     </g>
    </g>
    <g id="ytick_3">
     <g id="line2d_11">
      <g>
       <use xlink:href="#ma472fac392" x="60.180625" y="105.990852" style="stroke: #000000; stroke-width: 0.8"/>
      </g>
     </g>
     <g id="text_3">
      <!-- 20 -->
      <g transform="translate(40.455625 109.790071) scale(0.1 -0.1)">
       <use xlink:href="#DejaVuSans-32"/>
       <use xlink:href="#DejaVuSans-30" x="63.623047"/>
      </g>
     </g>
    </g>
    <g id="ytick_4">
     <g id="line2d_12">
      <g>
       <use xlink:href="#ma472fac392" x="60.180625" y="70.536307" style="stroke: #000000; stroke-width: 0.8"/>
      </g>
     </g>
     <g id="text_4">
      <!-- 40 -->
      <g transform="translate(40.455625 74.335526) scale(0.1 -0.1)">
       <defs>
        <path id="DejaVuSans-34" d="M 2419 4116 
L 825 1625 
L 2419 1625 
L 2419 4116 
z
M 2253 4666 
L 3047 4666 
L 3047 1625 
L 3713 1625 
L 3713 1100 
L 3047 1100 
L 3047 0 
L 2419 0 
L 2419 1100 
L 313 1100 
L 313 1709 
L 2253 4666 
z
" transform="scale(0.015625)"/>
       </defs>
       <use xlink:href="#DejaVuSans-34"/>
       <use xlink:href="#DejaVuSans-30" x="63.623047"/>
      </g>
     </g>
    </g>
    <g id="ytick_5">
     <g id="line2d_13">
      <g>
       <use xlink:href="#ma472fac392" x="60.180625" y="35.081761" style="stroke: #000000; stroke-width: 0.8"/>
      </g>
     </g>
     <g id="text_5">
      <!-- 60 -->
      <g transform="translate(40.455625 38.88098) scale(0.1 -0.1)">
       <defs>
        <path id="DejaVuSans-36" d="M 2113 2584 
Q 1688 2584 1439 2293 
Q 1191 2003 1191 1497 
Q 1191 994 1439 701 
Q 1688 409 2113 409 
Q 2538 409 2786 701 
Q 3034 994 3034 1497 
Q 3034 2003 2786 2293 
Q 2538 2584 2113 2584 
z
M 3366 4563 
L 3366 3988 
Q 3128 4100 2886 4159 
Q 2644 4219 2406 4219 
Q 1781 4219 1451 3797 
Q 1122 3375 1075 2522 
Q 1259 2794 1537 2939 
Q 1816 3084 2150 3084 
Q 2853 3084 3261 2657 
Q 3669 2231 3669 1497 
Q 3669 778 3244 343 
Q 2819 -91 2113 -91 
Q 1303 -91 875 529 
Q 447 1150 447 2328 
Q 447 3434 972 4092 
Q 1497 4750 2381 4750 
Q 2619 4750 2861 4703 
Q 3103 4656 3366 4563 
z
" transform="scale(0.015625)"/>
       </defs>
       <use xlink:href="#DejaVuSans-36"/>
       <use xlink:href="#DejaVuSans-30" x="63.623047"/>
      </g>
     </g>
    </g>
    <g id="text_6">
     <!-- clipped episode -->
     <g transform="translate(14.798437 143.488437) rotate(-90) scale(0.1 -0.1)">
      <defs>
       <path id="DejaVuSans-63" d="M 3122 3366 
L 3122 2828 
Q 2878 2963 2633 3030 
Q 2388 3097 2138 3097 
Q 1578 3097 1268 2742 
Q 959 2388 959 1747 
Q 959 1106 1268 751 
Q 1578 397 2138 397 
Q 2388 397 2633 464 
Q 2878 531 3122 666 
L 3122 134 
Q 2881 22 2623 -34 
Q 2366 -91 2075 -91 
Q 1284 -91 818 406 
Q 353 903 353 1747 
Q 353 2603 823 3093 
Q 1294 3584 2113 3584 
Q 2378 3584 2631 3529 
Q 2884 3475 3122 3366 
z
" transform="scale(0.015625)"/>
       <path id="DejaVuSans-6c" d="M 603 4863 
L 1178 4863 
L 1178 0 
L 603 0 
L 603 4863 
z
" transform="scale(0.015625)"/>
       <path id="DejaVuSans-69" d="M 603 3500 
L 1178 3500 
L 1178 0 
L 603 0 
L 603 3500 
z
M 603 4863 
L 1178 4863 
L 1178 4134 
L 603 4134 
L 603 4863 
z
" transform="scale(0.015625)"/>
       <path id="DejaVuSans-70" d="M 1159 525 
L 1159 -1331 
L 581 -1331 
L 581 3500 
L 1159 3500 
L 1159 2969 
Q 1341 3281 1617 3432 
Q 1894 3584 2278 3584 
Q 2916 3584 3314 3078 
Q 3713 2572 3713 1747 
Q 3713 922 3314 415 
Q 2916 -91 2278 -91 
Q 1894 -91 1617 61 
Q 1341 213 1159 525 
z
M 3116 1747 
Q 3116 2381 2855 2742 
Q 2594 3103 2138 3103 
Q 1681 3103 1420 2742 
Q 1159 2381 1159 1747 
Q 1159 1113 1420 752 
Q 1681 391 2138 391 
Q 2594 391 2855 752 
Q 3116 1113 3116 1747 
z
" transform="scale(0.015625)"/>
       <path id="DejaVuSans-65" d="M 3597 1894 
L 3597 1613 
L 953 1613 
Q 991 1019 1311 708 
Q 1631 397 2203 397 
Q 2534 397 2845 478 
Q 3156 559 3463 722 
L 3463 178 
Q 3153 47 2828 -22 
Q 2503 -91 2169 -91 
Q 1331 -91 842 396 
Q 353 884 353 1716 
Q 353 2575 817 3079 
Q 1281 3584 2069 3584 
Q 2775 3584 3186 3129 
Q 3597 2675 3597 1894 
z
M 3022 2063 
Q 3016 2534 2758 2815 
Q 2500 3097 2075 3097 
Q 1594 3097 1305 2825 
Q 1016 2553 972 2059 
L 3022 2063 
z
" transform="scale(0.015625)"/>
       <path id="DejaVuSans-64" d="M 2906 2969 
L 2906 4863 
L 3481 4863 
L 3481 0 
L 2906 0 
L 2906 525 
Q 2725 213 2448 61 
Q 2172 -91 1784 -91 
Q 1150 -91 751 415 
Q 353 922 353 1747 
Q 353 2572 751 3078 
Q 1150 3584 1784 3584 
Q 2172 3584 2448 3432 
Q 2725 3281 2906 2969 
z
M 947 1747 
Q 947 1113 1208 752 
Q 1469 391 1925 391 
Q 2381 391 2643 752 
Q 2906 1113 2906 1747 
Q 2906 2381 2643 2742 
Q 2381 3103 1925 3103 
Q 1469 3103 1208 2742 
Q 947 2381 947 1747 
z
" transform="scale(0.015625)"/>
       <path id="DejaVuSans-20" transform="scale(0.015625)"/>
       <path id="DejaVuSans-73" d="M 2834 3397 
L 2834 2853 
Q 2591 2978 2328 3040 
Q 2066 3103 1784 3103 
Q 1356 3103 1142 2972 
Q 928 2841 928 2578 
Q 928 2378 1081 2264 
Q 1234 2150 1697 2047 
L 1894 2003 
Q 2506 1872 2764 1633 
Q 3022 1394 3022 966 
Q 3022 478 2636 193 
Q 2250 -91 1575 -91 
Q 1294 -91 989 -36 
Q 684 19 347 128 
L 347 722 
Q 666 556 975 473 
Q 1284 391 1588 391 
Q 1994 391 2212 530 
Q 2431 669 2431 922 
Q 2431 1156 2273 1281 
Q 2116 1406 1581 1522 
L 1381 1569 
Q 847 1681 609 1914 
Q 372 2147 372 2553 
Q 372 3047 722 3315 
Q 1072 3584 1716 3584 
Q 2034 3584 2315 3537 
Q 2597 3491 2834 3397 
z
" transform="scale(0.015625)"/>
       <path id="DejaVuSans-6f" d="M 1959 3097 
Q 1497 3097 1228 2736 
Q 959 2375 959 1747 
Q 959 1119 1226 758 
Q 1494 397 1959 397 
Q 2419 397 2687 759 
Q 2956 1122 2956 1747 
Q 2956 2369 2687 2733 
Q 2419 3097 1959 3097 
z
M 1959 3584 
Q 2709 3584 3137 3096 
Q 3566 2609 3566 1747 
Q 3566 888 3137 398 
Q 2709 -91 1959 -91 
Q 1206 -91 779 398 
Q 353 888 353 1747 
Q 353 2609 779 3096 
Q 1206 3584 1959 3584 
z
" transform="scale(0.015625)"/>
      </defs>
      <use xlink:href="#DejaVuSans-63"/>
      <use xlink:href="#DejaVuSans-6c" x="54.980469"/>
      <use xlink:href="#DejaVuSans-69" x="82.763672"/>
      <use xlink:href="#DejaVuSans-70" x="110.546875"/>
      <use xlink:href="#DejaVuSans-70" x="174.023438"/>
      <use xlink:href="#DejaVuSans-65" x="237.5"/>
      <use xlink:href="#DejaVuSans-64" x="299.023438"/>
      <use xlink:href="#DejaVuSans-20" x="362.5"/>
      <use xlink:href="#DejaVuSans-65" x="394.287109"/>
      <use xlink:href="#DejaVuSans-70" x="455.810547"/>
      <use xlink:href="#DejaVuSans-69" x="519.287109"/>
      <use xlink:href="#DejaVuSans-73" x="547.070312"/>
      <use xlink:href="#DejaVuSans-6f" x="599.169922"/>
      <use xlink:href="#DejaVuSans-64" x="660.351562"/>
      <use xlink:href="#DejaVuSans-65" x="723.828125"/>
     </g>
     <!-- return (per iter) -->
     <g transform="translate(25.99625 143.370469) rotate(-90) scale(0.1 -0.1)">
      <defs>
       <path id="DejaVuSans-72" d="M 2631 2963 
Q 2534 3019 2420 3045 
Q 2306 3072 2169 3072 
Q 1681 3072 1420 2755 
Q 1159 2438 1159 1844 
L 1159 0 
L 581 0 
L 581 3500 
L 1159 3500 
L 1159 2956 
Q 1341 3275 1631 3429 
Q 1922 3584 2338 3584 
Q 2397 3584 2469 3576 
Q 2541 3569 2628 3553 
L 2631 2963 
z
" transform="scale(0.015625)"/>
       <path id="DejaVuSans-74" d="M 1172 4494 
L 1172 3500 
L 2356 3500 
L 2356 3053 
L 1172 3053 
L 1172 1153 
Q 1172 725 1289 603 
Q 1406 481 1766 481 
L 2356 481 
L 2356 0 
L 1766 0 
Q 1100 0 847 248 
Q 594 497 594 1153 
L 594 3053 
L 172 3053 
L 172 3500 
L 594 3500 
L 594 4494 
L 1172 4494 
z
" transform="scale(0.015625)"/>
       <path id="DejaVuSans-75" d="M 544 1381 
L 544 3500 
L 1119 3500 
L 1119 1403 
Q 1119 906 1312 657 
Q 1506 409 1894 409 
Q 2359 409 2629 706 
Q 2900 1003 2900 1516 
L 2900 3500 
L 3475 3500 
L 3475 0 
L 2900 0 
L 2900 538 
Q 2691 219 2414 64 
Q 2138 -91 1772 -91 
Q 1169 -91 856 284 
Q 544 659 544 1381 
z
M 1991 3584 
L 1991 3584 
z
" transform="scale(0.015625)"/>
       <path id="DejaVuSans-6e" d="M 3513 2113 
L 3513 0 
L 2938 0 
L 2938 2094 
Q 2938 2591 2744 2837 
Q 2550 3084 2163 3084 
Q 1697 3084 1428 2787 
Q 1159 2491 1159 1978 
L 1159 0 
L 581 0 
L 581 3500 
L 1159 3500 
L 1159 2956 
Q 1366 3272 1645 3428 
Q 1925 3584 2291 3584 
Q 2894 3584 3203 3211 
Q 3513 2838 3513 2113 
z
" transform="scale(0.015625)"/>
       <path id="DejaVuSans-28" d="M 1984 4856 
Q 1566 4138 1362 3434 
Q 1159 2731 1159 2009 
Q 1159 1288 1364 580 
Q 1569 -128 1984 -844 
L 1484 -844 
Q 1016 -109 783 600 
Q 550 1309 550 2009 
Q 550 2706 781 3412 
Q 1013 4119 1484 4856 
L 1984 4856 
z
" transform="scale(0.015625)"/>
       <path id="DejaVuSans-29" d="M 513 4856 
L 1013 4856 
Q 1481 4119 1714 3412 
Q 1947 2706 1947 2009 
Q 1947 1309 1714 600 
Q 1481 -109 1013 -844 
L 513 -844 
Q 928 -128 1133 580 
Q 1338 1288 1338 2009 
Q 1338 2731 1133 3434 
Q 928 4138 513 4856 
z
" transform="scale(0.015625)"/>
      </defs>
      <use xlink:href="#DejaVuSans-72"/>
      <use xlink:href="#DejaVuSans-65" x="38.863281"/>
      <use xlink:href="#DejaVuSans-74" x="100.386719"/>
      <use xlink:href="#DejaVuSans-75" x="139.595703"/>
      <use xlink:href="#DejaVuSans-72" x="202.974609"/>
      <use xlink:href="#DejaVuSans-6e" x="242.337891"/>
      <use xlink:href="#DejaVuSans-20" x="305.716797"/>
      <use xlink:href="#DejaVuSans-28" x="337.503906"/>
      <use xlink:href="#DejaVuSans-70" x="376.517578"/>
      <use xlink:href="#DejaVuSans-65" x="439.994141"/>
      <use xlink:href="#DejaVuSans-72" x="501.517578"/>
      <use xlink:href="#DejaVuSans-20" x="542.630859"/>
      <use xlink:href="#DejaVuSans-69" x="574.417969"/>
      <use xlink:href="#DejaVuSans-74" x="602.201172"/>
      <use xlink:href="#DejaVuSans-65" x="641.410156"/>
      <use xlink:href="#DejaVuSans-72" x="702.933594"/>
      <use xlink:href="#DejaVuSans-29" x="744.046875"/>
     </g>
    </g>
   </g>
   <g id="line2d_14">
    <path d="M 88.080625 176.899943 
L 89.020589 176.899943 
M 90.900516 177.786307 
L 91.840479 178.67267 
L 92.780443 176.899943 
L 93.720407 178.67267 
L 94.66037 177.490852 
M 97.480261 177.786307 
L 98.420225 178.67267 
L 99.32259 173.354489 
L 99.360188 176.899943 
L 100.300152 174.240852 
L 101.202517 176.899943 
L 101.240116 176.01358 
M 103.120043 164.490852 
L 104.99997 175.127216 
L 105.939934 160.059034 
L 106.842299 157.399943 
L 106.879897 165.377216 
L 107.819861 148.536307 
M 110.602153 154.740852 
L 110.639752 171.581761 
L 111.579715 157.399943 
L 112.48208 153.854489 
M 126.619133 120.17267 
L 127.521498 139.67267 
L 127.559097 132.581761 
M 131.318951 136.127216 
L 132.258915 105.990852 
M 136.921134 107.76358 
L 136.958733 136.127216 
M 138.801062 127.26358 
L 138.83866 143.218125 
L 139.778624 148.536307 
M 157.637932 109.536307 
L 158.577896 131.399943 
M 170.797423 113.081761 
L 171.737387 105.990852 
M 176.437205 121.945398 
L 177.377168 130.809034 
M 180.159461 130.809034 
L 182.039388 141.445398 
L 182.979352 139.67267 
L 183.919315 138.343125 
L 184.859279 138.343125 
L 185.799242 135.684034 
L 186.739206 131.990852 
L 187.67917 133.76358 
L 188.619133 134.354489 
L 189.559097 133.341502 
L 191.439024 128.149943 
L 192.378988 128.681761 
L 193.281353 127.26358 
L 193.318951 127.97267 
L 194.258915 123.718125 
L 195.16128 130.809034 
L 195.198878 127.26358 
L 196.138842 130.809034 
L 197.041207 126.820398 
L 197.078806 121.945398 
L 198.018769 131.695398 
L 198.921134 125.136307 
M 199.898697 126.377216 
L 200.801062 123.718125 
L 200.83866 125.934034 
M 202.680989 123.718125 
L 202.718587 130.809034 
L 203.658551 121.945398 
L 204.560916 123.127216 
L 204.598515 116.627216 
L 205.538478 129.036307 
L 206.440843 125.490852 
L 206.478442 119.729489 
L 207.418405 116.036307 
L 208.320771 125.490852 
L 208.358369 123.718125 
L 209.298333 121.945398 
L 210.200698 116.036307 
L 210.238296 111.309034 
L 211.17826 118.399943 
L 212.080625 110.42267 
L 212.118224 116.627216 
M 213.998151 114.854489 
L 214.938114 114.854489 
L 215.840479 111.309034 
L 215.878078 105.990852 
L 216.818042 113.081761 
L 217.720407 134.354489 
L 217.758005 115.209034 
L 218.697969 115.445398 
M 219.637932 116.981761 
L 220.577896 120.17267 
L 221.480261 113.081761 
L 221.51786 105.990852 
L 222.457823 113.081761 
M 223.397787 105.990852 
L 224.337751 110.42267 
L 225.240116 97.127216 
L 225.277714 110.42267 
M 227.120043 105.990852 
L 227.157641 105.990852 
L 228.097605 109.536307 
L 228.99997 109.536307 
L 229.037569 104.218125 
M 230.879897 98.899943 
L 230.917496 109.536307 
L 231.857459 105.990852 
L 232.759825 105.104489 
L 232.797423 105.990852 
M 234.639752 95.354489 
L 234.67735 108.649943 
L 235.617314 116.627216 
L 236.519679 112.195398 
L 236.557278 97.127216 
L 237.497241 110.127216 
L 238.399606 113.081761 
L 238.437205 108.649943 
M 240.279533 114.854489 
L 240.317132 104.218125 
L 241.257096 116.627216 
L 242.159461 107.76358 
L 242.197059 105.990852 
L 243.137023 116.627216 
M 245.919315 106.877216 
L 245.956914 109.536307 
L 246.896877 111.309034 
M 247.836841 104.218125 
L 248.776805 91.809034 
M 249.716768 108.354489 
L 250.656732 113.968125 
L 251.559097 104.218125 
L 251.596695 109.536307 
L 252.536659 110.42267 
L 253.439024 107.76358 
L 253.476623 111.309034 
L 254.416586 97.127216 
L 255.318951 105.990852 
L 255.35655 111.309034 
L 256.296513 95.354489 
M 430.979352 123.718125 
L 431.919315 123.127216 
L 432.859279 124.309034 
L 433.799242 121.354489 
L 434.739206 116.627216 
L 435.67917 121.945398 
L 436.619133 120.17267 
L 437.559097 117.51358 
L 438.49906 121.059034 
L 439.439024 115.740852 
L 440.378988 109.536307 
L 441.281353 116.184034 
L 441.318951 120.17267 
L 442.258915 113.968125 
L 443.16128 116.627216 
L 443.198878 115.56358 
L 444.138842 115.740852 
L 445.041207 116.627216 
L 445.078806 113.081761 
L 446.921134 111.309034 
L 446.958733 110.42267 
L 447.898697 109.536307 
L 448.801062 111.309034 
L 448.83866 109.536307 
L 449.778624 109.536307 
L 450.680989 111.899943 
L 450.718587 111.309034 
L 451.658551 112.490852 
L 452.560916 116.036307 
L 452.598515 109.536307 
L 454.440843 111.309034 
L 454.478442 109.536307 
L 455.418405 108.945398 
L 456.320771 107.76358 
L 456.358369 110.127216 
L 457.298333 111.309034 
L 458.238296 110.718125 
L 459.17826 111.309034 
L 460.080625 107.17267 
L 460.118224 109.536307 
L 461.058187 110.42267 
L 461.960552 106.877216 
M 462.938114 109.536307 
L 463.840479 110.127216 
L 463.878078 105.990852 
L 464.818042 113.081761 
L 465.720407 105.990852 
L 465.758005 104.218125 
L 466.697969 116.627216 
L 467.600334 73.195398 
L 467.637932 105.399943 
L 468.577896 109.093125 
L 469.480261 141.445398 
L 469.51786 104.218125 
L 470.457823 109.536307 
L 471.360188 102.445398 
L 471.397787 106.877216 
M 473.240116 105.990852 
L 473.277714 29.76358 
L 474.217678 105.990852 
M 526.780443 111.309034 
L 527.720407 122.240852 
L 528.66037 137.899943 
L 529.600334 117.218125 
L 530.540298 122.536307 
L 531.480261 114.854489 
M 533.360188 132.581761 
L 534.300152 102.445398 
M 535.240116 116.036307 
L 536.180079 97.127216 
L 537.082444 130.809034 
L 537.120043 104.218125 
L 538.060006 110.42267 
L 538.962372 122.831761 
L 538.99997 117.51358 
L 539.939934 114.854489 
L 540.842299 98.01358 
L 540.879897 102.445398 
L 541.819861 94.468125 
L 542.722226 114.854489 
L 542.759825 94.024943 
L 543.699788 114.854489 
L 544.602153 94.468125 
L 544.639752 105.990852 
L 545.579715 107.76358 
L 546.48208 97.127216 
L 546.519679 100.67267 
L 547.459643 97.127216 
L 548.362008 102.445398 
L 548.399606 90.92267 
L 549.33957 110.42267 
L 550.241935 98.899943 
L 550.279533 108.649943 
L 551.219497 120.17267 
L 552.121862 82.945398 
L 552.159461 89.149943 
L 553.099424 112.195398 
L 554.001789 100.081761 
M 555.919315 86.490852 
L 556.859279 88.26358 
L 557.761644 88.26358 
L 557.799242 94.468125 
L 558.739206 98.899943 
L 559.641571 101.559034 
L 559.67917 88.854489 
L 560.619133 95.354489 
M 563.401425 85.899943 
L 563.439024 91.809034 
M 565.281353 82.945398 
L 565.318951 91.809034 
L 566.258915 85.781761 
L 567.16128 89.149943 
L 567.198878 87.377216 
L 568.138842 81.17267 
L 569.041207 79.399943 
L 569.078806 84.718125 
M 572.83866 104.218125 
L 573.778624 94.468125 
L 574.680989 90.036307 
L 574.718587 82.945398 
L 575.658551 84.718125 
L 576.560916 82.945398 
L 576.598515 91.809034 
L 577.538478 82.354489 
L 578.440843 84.718125 
L 578.478442 107.76358 
L 579.418405 81.17267 
L 580.358369 91.809034 
L 581.298333 93.581761 
L 582.200698 86.490852 
L 582.238296 97.127216 
L 583.17826 88.26358 
L 584.080625 91.809034 
L 584.118224 88.26358 
M 585.960552 91.809034 
L 585.998151 81.17267 
L 586.938114 82.945398 
L 587.840479 85.604489 
L 587.878078 101.559034 
L 588.818042 86.490852 
M 589.758005 87.67267 
L 590.697969 92.695398 
M 593.480261 100.67267 
L 593.51786 92.695398 
L 594.457823 84.718125 
L 595.360188 80.286307 
M 596.337751 82.945398 
L 597.240116 87.377216 
L 597.277714 82.945398 
L 598.217678 88.26358 
L 599.120043 90.036307 
L 599.120043 90.036307 
" clip-path="url(#p7122f52c7c)" style="fill: none; stroke: #555555; stroke-linecap: square"/>
   </g>
   <g id="line2d_15">
    <path d="M 86.200698 186.118125 
L 86.200698 22.318125 
" clip-path="url(#p7122f52c7c)" style="fill: none; stroke: #bbbbbb; stroke-width: 0.7; stroke-linecap: square"/>
   </g>
   <g id="line2d_16">
    <path d="M 182.039388 186.118125 
L 182.039388 22.318125 
" clip-path="url(#p7122f52c7c)" style="fill: none; stroke: #bbbbbb; stroke-width: 0.7; stroke-linecap: square"/>
   </g>
   <g id="line2d_17">
    <path d="M 306.039388 186.118125 
L 306.039388 22.318125 
" clip-path="url(#p7122f52c7c)" style="fill: none; stroke: #bbbbbb; stroke-width: 0.7; stroke-linecap: square"/>
   </g>
   <g id="line2d_18">
    <path d="M 430.039388 186.118125 
L 430.039388 22.318125 
" clip-path="url(#p7122f52c7c)" style="fill: none; stroke: #bbbbbb; stroke-width: 0.7; stroke-linecap: square"/>
   </g>
   <g id="line2d_19">
    <path d="M 523.960552 186.118125 
L 523.960552 22.318125 
" clip-path="url(#p7122f52c7c)" style="fill: none; stroke: #bbbbbb; stroke-width: 0.7; stroke-linecap: square"/>
   </g>
   <g id="patch_3">
    <path d="M 60.180625 186.118125 
L 60.180625 22.318125 
" style="fill: none; stroke: #000000; stroke-width: 0.8; stroke-linejoin: miter; stroke-linecap: square"/>
   </g>
   <g id="patch_4">
    <path d="M 673.980625 186.118125 
L 673.980625 22.318125 
" style="fill: none; stroke: #000000; stroke-width: 0.8; stroke-linejoin: miter; stroke-linecap: square"/>
   </g>
   <g id="patch_5">
    <path d="M 60.180625 186.118125 
L 673.980625 186.118125 
" style="fill: none; stroke: #000000; stroke-width: 0.8; stroke-linejoin: miter; stroke-linecap: square"/>
   </g>
   <g id="patch_6">
    <path d="M 60.180625 22.318125 
L 673.980625 22.318125 
" style="fill: none; stroke: #000000; stroke-width: 0.8; stroke-linejoin: miter; stroke-linecap: square"/>
   </g>
   <g id="text_7">
    <!--  T1:Pong -->
    <g style="fill: #333333" transform="translate(91.519604 52.760469) rotate(-90) scale(0.07 -0.07)">
     <defs>
      <path id="DejaVuSans-54" d="M -19 4666 
L 3928 4666 
L 3928 4134 
L 2272 4134 
L 2272 0 
L 1638 0 
L 1638 4134 
L -19 4134 
L -19 4666 
z
" transform="scale(0.015625)"/>
      <path id="DejaVuSans-31" d="M 794 531 
L 1825 531 
L 1825 4091 
L 703 3866 
L 703 4441 
L 1819 4666 
L 2450 4666 
L 2450 531 
L 3481 531 
L 3481 0 
L 794 0 
L 794 531 
z
" transform="scale(0.015625)"/>
      <path id="DejaVuSans-3a" d="M 750 794 
L 1409 794 
L 1409 0 
L 750 0 
L 750 794 
z
M 750 3309 
L 1409 3309 
L 1409 2516 
L 750 2516 
L 750 3309 
z
" transform="scale(0.015625)"/>
      <path id="DejaVuSans-50" d="M 1259 4147 
L 1259 2394 
L 2053 2394 
Q 2494 2394 2734 2622 
Q 2975 2850 2975 3272 
Q 2975 3691 2734 3919 
Q 2494 4147 2053 4147 
L 1259 4147 
z
M 628 4666 
L 2053 4666 
Q 2838 4666 3239 4311 
Q 3641 3956 3641 3272 
Q 3641 2581 3239 2228 
Q 2838 1875 2053 1875 
L 1259 1875 
L 1259 0 
L 628 0 
L 628 4666 
z
" transform="scale(0.015625)"/>
      <path id="DejaVuSans-67" d="M 2906 1791 
Q 2906 2416 2648 2759 
Q 2391 3103 1925 3103 
Q 1463 3103 1205 2759 
Q 947 2416 947 1791 
Q 947 1169 1205 825 
Q 1463 481 1925 481 
Q 2391 481 2648 825 
Q 2906 1169 2906 1791 
z
M 3481 434 
Q 3481 -459 3084 -895 
Q 2688 -1331 1869 -1331 
Q 1566 -1331 1297 -1286 
Q 1028 -1241 775 -1147 
L 775 -588 
Q 1028 -725 1275 -790 
Q 1522 -856 1778 -856 
Q 2344 -856 2625 -561 
Q 2906 -266 2906 331 
L 2906 616 
Q 2728 306 2450 153 
Q 2172 0 1784 0 
Q 1141 0 747 490 
Q 353 981 353 1791 
Q 353 2603 747 3093 
Q 1141 3584 1784 3584 
Q 2172 3584 2450 3431 
Q 2728 3278 2906 2969 
L 2906 3500 
L 3481 3500 
L 3481 434 
z
" transform="scale(0.015625)"/>
     </defs>
     <use xlink:href="#DejaVuSans-20"/>
     <use xlink:href="#DejaVuSans-54" x="31.787109"/>
     <use xlink:href="#DejaVuSans-31" x="92.871094"/>
     <use xlink:href="#DejaVuSans-3a" x="156.494141"/>
     <use xlink:href="#DejaVuSans-50" x="190.185547"/>
     <use xlink:href="#DejaVuSans-6f" x="246.863281"/>
     <use xlink:href="#DejaVuSans-6e" x="308.044922"/>
     <use xlink:href="#DejaVuSans-67" x="371.423828"/>
    </g>
   </g>
   <g id="text_8">
    <!--  T2:Breakout -->
    <g style="fill: #333333" transform="translate(187.358294 67.013125) rotate(-90) scale(0.07 -0.07)">
     <defs>
      <path id="DejaVuSans-42" d="M 1259 2228 
L 1259 519 
L 2272 519 
Q 2781 519 3026 730 
Q 3272 941 3272 1375 
Q 3272 1813 3026 2020 
Q 2781 2228 2272 2228 
L 1259 2228 
z
M 1259 4147 
L 1259 2741 
L 2194 2741 
Q 2656 2741 2882 2914 
Q 3109 3088 3109 3444 
Q 3109 3797 2882 3972 
Q 2656 4147 2194 4147 
L 1259 4147 
z
M 628 4666 
L 2241 4666 
Q 2963 4666 3353 4366 
Q 3744 4066 3744 3513 
Q 3744 3084 3544 2831 
Q 3344 2578 2956 2516 
Q 3422 2416 3680 2098 
Q 3938 1781 3938 1306 
Q 3938 681 3513 340 
Q 3088 0 2303 0 
L 628 0 
L 628 4666 
z
" transform="scale(0.015625)"/>
      <path id="DejaVuSans-61" d="M 2194 1759 
Q 1497 1759 1228 1600 
Q 959 1441 959 1056 
Q 959 750 1161 570 
Q 1363 391 1709 391 
Q 2188 391 2477 730 
Q 2766 1069 2766 1631 
L 2766 1759 
L 2194 1759 
z
M 3341 1997 
L 3341 0 
L 2766 0 
L 2766 531 
Q 2569 213 2275 61 
Q 1981 -91 1556 -91 
Q 1019 -91 701 211 
Q 384 513 384 1019 
Q 384 1609 779 1909 
Q 1175 2209 1959 2209 
L 2766 2209 
L 2766 2266 
Q 2766 2663 2505 2880 
Q 2244 3097 1772 3097 
Q 1472 3097 1187 3025 
Q 903 2953 641 2809 
L 641 3341 
Q 956 3463 1253 3523 
Q 1550 3584 1831 3584 
Q 2591 3584 2966 3190 
Q 3341 2797 3341 1997 
z
" transform="scale(0.015625)"/>
      <path id="DejaVuSans-6b" d="M 581 4863 
L 1159 4863 
L 1159 1991 
L 2875 3500 
L 3609 3500 
L 1753 1863 
L 3688 0 
L 2938 0 
L 1159 1709 
L 1159 0 
L 581 0 
L 581 4863 
z
" transform="scale(0.015625)"/>
     </defs>
     <use xlink:href="#DejaVuSans-20"/>
     <use xlink:href="#DejaVuSans-54" x="31.787109"/>
     <use xlink:href="#DejaVuSans-32" x="92.871094"/>
     <use xlink:href="#DejaVuSans-3a" x="156.494141"/>
     <use xlink:href="#DejaVuSans-42" x="190.185547"/>
     <use xlink:href="#DejaVuSans-72" x="258.789062"/>
     <use xlink:href="#DejaVuSans-65" x="297.652344"/>
     <use xlink:href="#DejaVuSans-61" x="359.175781"/>
     <use xlink:href="#DejaVuSans-6b" x="420.455078"/>
     <use xlink:href="#DejaVuSans-6f" x="474.740234"/>
     <use xlink:href="#DejaVuSans-75" x="535.921875"/>
     <use xlink:href="#DejaVuSans-74" x="599.300781"/>
    </g>
   </g>
   <g id="text_9">
    <!--  T3:Boxing -->
    <g style="fill: #333333" transform="translate(311.358294 59.465156) rotate(-90) scale(0.07 -0.07)">
     <defs>
      <path id="DejaVuSans-33" d="M 2597 2516 
Q 3050 2419 3304 2112 
Q 3559 1806 3559 1356 
Q 3559 666 3084 287 
Q 2609 -91 1734 -91 
Q 1441 -91 1130 -33 
Q 819 25 488 141 
L 488 750 
Q 750 597 1062 519 
Q 1375 441 1716 441 
Q 2309 441 2620 675 
Q 2931 909 2931 1356 
Q 2931 1769 2642 2001 
Q 2353 2234 1838 2234 
L 1294 2234 
L 1294 2753 
L 1863 2753 
Q 2328 2753 2575 2939 
Q 2822 3125 2822 3475 
Q 2822 3834 2567 4026 
Q 2313 4219 1838 4219 
Q 1578 4219 1281 4162 
Q 984 4106 628 3988 
L 628 4550 
Q 988 4650 1302 4700 
Q 1616 4750 1894 4750 
Q 2613 4750 3031 4423 
Q 3450 4097 3450 3541 
Q 3450 3153 3228 2886 
Q 3006 2619 2597 2516 
z
" transform="scale(0.015625)"/>
      <path id="DejaVuSans-78" d="M 3513 3500 
L 2247 1797 
L 3578 0 
L 2900 0 
L 1881 1375 
L 863 0 
L 184 0 
L 1544 1831 
L 300 3500 
L 978 3500 
L 1906 2253 
L 2834 3500 
L 3513 3500 
z
" transform="scale(0.015625)"/>
     </defs>
     <use xlink:href="#DejaVuSans-20"/>
     <use xlink:href="#DejaVuSans-54" x="31.787109"/>
     <use xlink:href="#DejaVuSans-33" x="92.871094"/>
     <use xlink:href="#DejaVuSans-3a" x="156.494141"/>
     <use xlink:href="#DejaVuSans-42" x="190.185547"/>
     <use xlink:href="#DejaVuSans-6f" x="258.789062"/>
     <use xlink:href="#DejaVuSans-78" x="316.845703"/>
     <use xlink:href="#DejaVuSans-69" x="376.025391"/>
     <use xlink:href="#DejaVuSans-6e" x="403.808594"/>
     <use xlink:href="#DejaVuSans-67" x="467.1875"/>
    </g>
   </g>
   <g id="text_10">
    <!--  T4:Qbert -->
    <g style="fill: #333333" transform="translate(435.358294 55.513437) rotate(-90) scale(0.07 -0.07)">
     <defs>
      <path id="DejaVuSans-51" d="M 2522 4238 
Q 1834 4238 1429 3725 
Q 1025 3213 1025 2328 
Q 1025 1447 1429 934 
Q 1834 422 2522 422 
Q 3209 422 3611 934 
Q 4013 1447 4013 2328 
Q 4013 3213 3611 3725 
Q 3209 4238 2522 4238 
z
M 3406 84 
L 4238 -825 
L 3475 -825 
L 2784 -78 
Q 2681 -84 2626 -87 
Q 2572 -91 2522 -91 
Q 1538 -91 948 567 
Q 359 1225 359 2328 
Q 359 3434 948 4092 
Q 1538 4750 2522 4750 
Q 3503 4750 4090 4092 
Q 4678 3434 4678 2328 
Q 4678 1516 4351 937 
Q 4025 359 3406 84 
z
" transform="scale(0.015625)"/>
      <path id="DejaVuSans-62" d="M 3116 1747 
Q 3116 2381 2855 2742 
Q 2594 3103 2138 3103 
Q 1681 3103 1420 2742 
Q 1159 2381 1159 1747 
Q 1159 1113 1420 752 
Q 1681 391 2138 391 
Q 2594 391 2855 752 
Q 3116 1113 3116 1747 
z
M 1159 2969 
Q 1341 3281 1617 3432 
Q 1894 3584 2278 3584 
Q 2916 3584 3314 3078 
Q 3713 2572 3713 1747 
Q 3713 922 3314 415 
Q 2916 -91 2278 -91 
Q 1894 -91 1617 61 
Q 1341 213 1159 525 
L 1159 0 
L 581 0 
L 581 4863 
L 1159 4863 
L 1159 2969 
z
" transform="scale(0.015625)"/>
     </defs>
     <use xlink:href="#DejaVuSans-20"/>
     <use xlink:href="#DejaVuSans-54" x="31.787109"/>
     <use xlink:href="#DejaVuSans-34" x="92.871094"/>
     <use xlink:href="#DejaVuSans-3a" x="156.494141"/>
     <use xlink:href="#DejaVuSans-51" x="190.185547"/>
     <use xlink:href="#DejaVuSans-62" x="268.896484"/>
     <use xlink:href="#DejaVuSans-65" x="332.373047"/>
     <use xlink:href="#DejaVuSans-72" x="393.896484"/>
     <use xlink:href="#DejaVuSans-74" x="435.009766"/>
    </g>
   </g>
   <g id="text_11">
    <!--  T5:SpaceInvaders -->
    <g style="fill: #333333" transform="translate(529.279458 87.173125) rotate(-90) scale(0.07 -0.07)">
     <defs>
      <path id="DejaVuSans-35" d="M 691 4666 
L 3169 4666 
L 3169 4134 
L 1269 4134 
L 1269 2991 
Q 1406 3038 1543 3061 
Q 1681 3084 1819 3084 
Q 2600 3084 3056 2656 
Q 3513 2228 3513 1497 
Q 3513 744 3044 326 
Q 2575 -91 1722 -91 
Q 1428 -91 1123 -41 
Q 819 9 494 109 
L 494 744 
Q 775 591 1075 516 
Q 1375 441 1709 441 
Q 2250 441 2565 725 
Q 2881 1009 2881 1497 
Q 2881 1984 2565 2268 
Q 2250 2553 1709 2553 
Q 1456 2553 1204 2497 
Q 953 2441 691 2322 
L 691 4666 
z
" transform="scale(0.015625)"/>
      <path id="DejaVuSans-53" d="M 3425 4513 
L 3425 3897 
Q 3066 4069 2747 4153 
Q 2428 4238 2131 4238 
Q 1616 4238 1336 4038 
Q 1056 3838 1056 3469 
Q 1056 3159 1242 3001 
Q 1428 2844 1947 2747 
L 2328 2669 
Q 3034 2534 3370 2195 
Q 3706 1856 3706 1288 
Q 3706 609 3251 259 
Q 2797 -91 1919 -91 
Q 1588 -91 1214 -16 
Q 841 59 441 206 
L 441 856 
Q 825 641 1194 531 
Q 1563 422 1919 422 
Q 2459 422 2753 634 
Q 3047 847 3047 1241 
Q 3047 1584 2836 1778 
Q 2625 1972 2144 2069 
L 1759 2144 
Q 1053 2284 737 2584 
Q 422 2884 422 3419 
Q 422 4038 858 4394 
Q 1294 4750 2059 4750 
Q 2388 4750 2728 4690 
Q 3069 4631 3425 4513 
z
" transform="scale(0.015625)"/>
      <path id="DejaVuSans-49" d="M 628 4666 
L 1259 4666 
L 1259 0 
L 628 0 
L 628 4666 
z
" transform="scale(0.015625)"/>
      <path id="DejaVuSans-76" d="M 191 3500 
L 800 3500 
L 1894 563 
L 2988 3500 
L 3597 3500 
L 2284 0 
L 1503 0 
L 191 3500 
z
" transform="scale(0.015625)"/>
     </defs>
     <use xlink:href="#DejaVuSans-20"/>
     <use xlink:href="#DejaVuSans-54" x="31.787109"/>
     <use xlink:href="#DejaVuSans-35" x="92.871094"/>
     <use xlink:href="#DejaVuSans-3a" x="156.494141"/>
     <use xlink:href="#DejaVuSans-53" x="190.185547"/>
     <use xlink:href="#DejaVuSans-70" x="253.662109"/>
     <use xlink:href="#DejaVuSans-61" x="317.138672"/>
     <use xlink:href="#DejaVuSans-63" x="378.417969"/>
     <use xlink:href="#DejaVuSans-65" x="433.398438"/>
     <use xlink:href="#DejaVuSans-49" x="494.921875"/>
     <use xlink:href="#DejaVuSans-6e" x="524.414062"/>
     <use xlink:href="#DejaVuSans-76" x="587.792969"/>
     <use xlink:href="#DejaVuSans-61" x="646.972656"/>
     <use xlink:href="#DejaVuSans-64" x="708.251953"/>
     <use xlink:href="#DejaVuSans-65" x="771.728516"/>
     <use xlink:href="#DejaVuSans-72" x="833.251953"/>
     <use xlink:href="#DejaVuSans-73" x="874.365234"/>
    </g>
   </g>
   <g id="text_12">
    <!--  T1:Pong -->
    <g style="fill: #333333" transform="translate(91.519604 52.760469) rotate(-90) scale(0.07 -0.07)">
     <use xlink:href="#DejaVuSans-20"/>
     <use xlink:href="#DejaVuSans-54" x="31.787109"/>
     <use xlink:href="#DejaVuSans-31" x="92.871094"/>
     <use xlink:href="#DejaVuSans-3a" x="156.494141"/>
     <use xlink:href="#DejaVuSans-50" x="190.185547"/>
     <use xlink:href="#DejaVuSans-6f" x="246.863281"/>
     <use xlink:href="#DejaVuSans-6e" x="308.044922"/>
     <use xlink:href="#DejaVuSans-67" x="371.423828"/>
    </g>
   </g>
   <g id="text_13">
    <!--  T2:Breakout -->
    <g style="fill: #333333" transform="translate(187.358294 67.013125) rotate(-90) scale(0.07 -0.07)">
     <use xlink:href="#DejaVuSans-20"/>
     <use xlink:href="#DejaVuSans-54" x="31.787109"/>
     <use xlink:href="#DejaVuSans-32" x="92.871094"/>
     <use xlink:href="#DejaVuSans-3a" x="156.494141"/>
     <use xlink:href="#DejaVuSans-42" x="190.185547"/>
     <use xlink:href="#DejaVuSans-72" x="258.789062"/>
     <use xlink:href="#DejaVuSans-65" x="297.652344"/>
     <use xlink:href="#DejaVuSans-61" x="359.175781"/>
     <use xlink:href="#DejaVuSans-6b" x="420.455078"/>
     <use xlink:href="#DejaVuSans-6f" x="474.740234"/>
     <use xlink:href="#DejaVuSans-75" x="535.921875"/>
     <use xlink:href="#DejaVuSans-74" x="599.300781"/>
    </g>
   </g>
   <g id="text_14">
    <!--  T3:Boxing -->
    <g style="fill: #333333" transform="translate(311.358294 59.465156) rotate(-90) scale(0.07 -0.07)">
     <use xlink:href="#DejaVuSans-20"/>
     <use xlink:href="#DejaVuSans-54" x="31.787109"/>
     <use xlink:href="#DejaVuSans-33" x="92.871094"/>
     <use xlink:href="#DejaVuSans-3a" x="156.494141"/>
     <use xlink:href="#DejaVuSans-42" x="190.185547"/>
     <use xlink:href="#DejaVuSans-6f" x="258.789062"/>
     <use xlink:href="#DejaVuSans-78" x="316.845703"/>
     <use xlink:href="#DejaVuSans-69" x="376.025391"/>
     <use xlink:href="#DejaVuSans-6e" x="403.808594"/>
     <use xlink:href="#DejaVuSans-67" x="467.1875"/>
    </g>
   </g>
   <g id="text_15">
    <!--  T4:Qbert -->
    <g style="fill: #333333" transform="translate(435.358294 55.513437) rotate(-90) scale(0.07 -0.07)">
     <use xlink:href="#DejaVuSans-20"/>
     <use xlink:href="#DejaVuSans-54" x="31.787109"/>
     <use xlink:href="#DejaVuSans-34" x="92.871094"/>
     <use xlink:href="#DejaVuSans-3a" x="156.494141"/>
     <use xlink:href="#DejaVuSans-51" x="190.185547"/>
     <use xlink:href="#DejaVuSans-62" x="268.896484"/>
     <use xlink:href="#DejaVuSans-65" x="332.373047"/>
     <use xlink:href="#DejaVuSans-72" x="393.896484"/>
     <use xlink:href="#DejaVuSans-74" x="435.009766"/>
    </g>
   </g>
   <g id="text_16">
    <!--  T5:SpaceInvaders -->
    <g style="fill: #333333" transform="translate(529.279458 87.173125) rotate(-90) scale(0.07 -0.07)">
     <use xlink:href="#DejaVuSans-20"/>
     <use xlink:href="#DejaVuSans-54" x="31.787109"/>
     <use xlink:href="#DejaVuSans-35" x="92.871094"/>
     <use xlink:href="#DejaVuSans-3a" x="156.494141"/>
     <use xlink:href="#DejaVuSans-53" x="190.185547"/>
     <use xlink:href="#DejaVuSans-70" x="253.662109"/>
     <use xlink:href="#DejaVuSans-61" x="317.138672"/>
     <use xlink:href="#DejaVuSans-63" x="378.417969"/>
     <use xlink:href="#DejaVuSans-65" x="433.398438"/>
     <use xlink:href="#DejaVuSans-49" x="494.921875"/>
     <use xlink:href="#DejaVuSans-6e" x="524.414062"/>
     <use xlink:href="#DejaVuSans-76" x="587.792969"/>
     <use xlink:href="#DejaVuSans-61" x="646.972656"/>
     <use xlink:href="#DejaVuSans-64" x="708.251953"/>
     <use xlink:href="#DejaVuSans-65" x="771.728516"/>
     <use xlink:href="#DejaVuSans-72" x="833.251953"/>
     <use xlink:href="#DejaVuSans-73" x="874.365234"/>
    </g>
   </g>
   <g id="text_17">
    <!-- Training reward per iteration — constrained seed 0 -->
    <g transform="translate(194.280625 16.318125) scale(0.12 -0.12)">
     <defs>
      <path id="DejaVuSans-Bold-54" d="M 31 4666 
L 4331 4666 
L 4331 3756 
L 2784 3756 
L 2784 0 
L 1581 0 
L 1581 3756 
L 31 3756 
L 31 4666 
z
" transform="scale(0.015625)"/>
      <path id="DejaVuSans-Bold-72" d="M 3138 2547 
Q 2991 2616 2845 2648 
Q 2700 2681 2553 2681 
Q 2122 2681 1889 2404 
Q 1656 2128 1656 1613 
L 1656 0 
L 538 0 
L 538 3500 
L 1656 3500 
L 1656 2925 
Q 1872 3269 2151 3426 
Q 2431 3584 2822 3584 
Q 2878 3584 2943 3579 
Q 3009 3575 3134 3559 
L 3138 2547 
z
" transform="scale(0.015625)"/>
      <path id="DejaVuSans-Bold-61" d="M 2106 1575 
Q 1756 1575 1579 1456 
Q 1403 1338 1403 1106 
Q 1403 894 1545 773 
Q 1688 653 1941 653 
Q 2256 653 2472 879 
Q 2688 1106 2688 1447 
L 2688 1575 
L 2106 1575 
z
M 3816 1997 
L 3816 0 
L 2688 0 
L 2688 519 
Q 2463 200 2181 54 
Q 1900 -91 1497 -91 
Q 953 -91 614 226 
Q 275 544 275 1050 
Q 275 1666 698 1953 
Q 1122 2241 2028 2241 
L 2688 2241 
L 2688 2328 
Q 2688 2594 2478 2717 
Q 2269 2841 1825 2841 
Q 1466 2841 1156 2769 
Q 847 2697 581 2553 
L 581 3406 
Q 941 3494 1303 3539 
Q 1666 3584 2028 3584 
Q 2975 3584 3395 3211 
Q 3816 2838 3816 1997 
z
" transform="scale(0.015625)"/>
      <path id="DejaVuSans-Bold-69" d="M 538 3500 
L 1656 3500 
L 1656 0 
L 538 0 
L 538 3500 
z
M 538 4863 
L 1656 4863 
L 1656 3950 
L 538 3950 
L 538 4863 
z
" transform="scale(0.015625)"/>
      <path id="DejaVuSans-Bold-6e" d="M 4056 2131 
L 4056 0 
L 2931 0 
L 2931 347 
L 2931 1631 
Q 2931 2084 2911 2256 
Q 2891 2428 2841 2509 
Q 2775 2619 2662 2680 
Q 2550 2741 2406 2741 
Q 2056 2741 1856 2470 
Q 1656 2200 1656 1722 
L 1656 0 
L 538 0 
L 538 3500 
L 1656 3500 
L 1656 2988 
Q 1909 3294 2193 3439 
Q 2478 3584 2822 3584 
Q 3428 3584 3742 3212 
Q 4056 2841 4056 2131 
z
" transform="scale(0.015625)"/>
      <path id="DejaVuSans-Bold-67" d="M 2919 594 
Q 2688 288 2409 144 
Q 2131 0 1766 0 
Q 1125 0 706 504 
Q 288 1009 288 1791 
Q 288 2575 706 3076 
Q 1125 3578 1766 3578 
Q 2131 3578 2409 3434 
Q 2688 3291 2919 2981 
L 2919 3500 
L 4044 3500 
L 4044 353 
Q 4044 -491 3511 -936 
Q 2978 -1381 1966 -1381 
Q 1638 -1381 1331 -1331 
Q 1025 -1281 716 -1178 
L 716 -306 
Q 1009 -475 1290 -558 
Q 1572 -641 1856 -641 
Q 2406 -641 2662 -400 
Q 2919 -159 2919 353 
L 2919 594 
z
M 2181 2772 
Q 1834 2772 1640 2515 
Q 1447 2259 1447 1791 
Q 1447 1309 1634 1061 
Q 1822 813 2181 813 
Q 2531 813 2725 1069 
Q 2919 1325 2919 1791 
Q 2919 2259 2725 2515 
Q 2531 2772 2181 2772 
z
" transform="scale(0.015625)"/>
      <path id="DejaVuSans-Bold-20" transform="scale(0.015625)"/>
      <path id="DejaVuSans-Bold-65" d="M 4031 1759 
L 4031 1441 
L 1416 1441 
Q 1456 1047 1700 850 
Q 1944 653 2381 653 
Q 2734 653 3104 758 
Q 3475 863 3866 1075 
L 3866 213 
Q 3469 63 3072 -14 
Q 2675 -91 2278 -91 
Q 1328 -91 801 392 
Q 275 875 275 1747 
Q 275 2603 792 3093 
Q 1309 3584 2216 3584 
Q 3041 3584 3536 3087 
Q 4031 2591 4031 1759 
z
M 2881 2131 
Q 2881 2450 2695 2645 
Q 2509 2841 2209 2841 
Q 1884 2841 1681 2658 
Q 1478 2475 1428 2131 
L 2881 2131 
z
" transform="scale(0.015625)"/>
      <path id="DejaVuSans-Bold-77" d="M 225 3500 
L 1313 3500 
L 1900 1088 
L 2491 3500 
L 3425 3500 
L 4013 1113 
L 4603 3500 
L 5691 3500 
L 4769 0 
L 3547 0 
L 2956 2406 
L 2369 0 
L 1147 0 
L 225 3500 
z
" transform="scale(0.015625)"/>
      <path id="DejaVuSans-Bold-64" d="M 2919 2988 
L 2919 4863 
L 4044 4863 
L 4044 0 
L 2919 0 
L 2919 506 
Q 2688 197 2409 53 
Q 2131 -91 1766 -91 
Q 1119 -91 703 423 
Q 288 938 288 1747 
Q 288 2556 703 3070 
Q 1119 3584 1766 3584 
Q 2128 3584 2408 3439 
Q 2688 3294 2919 2988 
z
M 2181 722 
Q 2541 722 2730 984 
Q 2919 1247 2919 1747 
Q 2919 2247 2730 2509 
Q 2541 2772 2181 2772 
Q 1825 2772 1636 2509 
Q 1447 2247 1447 1747 
Q 1447 1247 1636 984 
Q 1825 722 2181 722 
z
" transform="scale(0.015625)"/>
      <path id="DejaVuSans-Bold-70" d="M 1656 506 
L 1656 -1331 
L 538 -1331 
L 538 3500 
L 1656 3500 
L 1656 2988 
Q 1888 3294 2169 3439 
Q 2450 3584 2816 3584 
Q 3463 3584 3878 3070 
Q 4294 2556 4294 1747 
Q 4294 938 3878 423 
Q 3463 -91 2816 -91 
Q 2450 -91 2169 54 
Q 1888 200 1656 506 
z
M 2400 2772 
Q 2041 2772 1848 2508 
Q 1656 2244 1656 1747 
Q 1656 1250 1848 986 
Q 2041 722 2400 722 
Q 2759 722 2948 984 
Q 3138 1247 3138 1747 
Q 3138 2247 2948 2509 
Q 2759 2772 2400 2772 
z
" transform="scale(0.015625)"/>
      <path id="DejaVuSans-Bold-74" d="M 1759 4494 
L 1759 3500 
L 2913 3500 
L 2913 2700 
L 1759 2700 
L 1759 1216 
Q 1759 972 1856 886 
Q 1953 800 2241 800 
L 2816 800 
L 2816 0 
L 1856 0 
Q 1194 0 917 276 
Q 641 553 641 1216 
L 641 2700 
L 84 2700 
L 84 3500 
L 641 3500 
L 641 4494 
L 1759 4494 
z
" transform="scale(0.015625)"/>
      <path id="DejaVuSans-Bold-6f" d="M 2203 2784 
Q 1831 2784 1636 2517 
Q 1441 2250 1441 1747 
Q 1441 1244 1636 976 
Q 1831 709 2203 709 
Q 2569 709 2762 976 
Q 2956 1244 2956 1747 
Q 2956 2250 2762 2517 
Q 2569 2784 2203 2784 
z
M 2203 3584 
Q 3106 3584 3614 3096 
Q 4122 2609 4122 1747 
Q 4122 884 3614 396 
Q 3106 -91 2203 -91 
Q 1297 -91 786 396 
Q 275 884 275 1747 
Q 275 2609 786 3096 
Q 1297 3584 2203 3584 
z
" transform="scale(0.015625)"/>
      <path id="DejaVuSans-Bold-2014" d="M 344 2156 
L 6056 2156 
L 6056 1350 
L 344 1350 
L 344 2156 
z
" transform="scale(0.015625)"/>
      <path id="DejaVuSans-Bold-63" d="M 3366 3391 
L 3366 2478 
Q 3138 2634 2908 2709 
Q 2678 2784 2431 2784 
Q 1963 2784 1702 2511 
Q 1441 2238 1441 1747 
Q 1441 1256 1702 982 
Q 1963 709 2431 709 
Q 2694 709 2930 787 
Q 3166 866 3366 1019 
L 3366 103 
Q 3103 6 2833 -42 
Q 2563 -91 2291 -91 
Q 1344 -91 809 395 
Q 275 881 275 1747 
Q 275 2613 809 3098 
Q 1344 3584 2291 3584 
Q 2566 3584 2833 3536 
Q 3100 3488 3366 3391 
z
" transform="scale(0.015625)"/>
      <path id="DejaVuSans-Bold-73" d="M 3272 3391 
L 3272 2541 
Q 2913 2691 2578 2766 
Q 2244 2841 1947 2841 
Q 1628 2841 1473 2761 
Q 1319 2681 1319 2516 
Q 1319 2381 1436 2309 
Q 1553 2238 1856 2203 
L 2053 2175 
Q 2913 2066 3209 1816 
Q 3506 1566 3506 1031 
Q 3506 472 3093 190 
Q 2681 -91 1863 -91 
Q 1516 -91 1145 -36 
Q 775 19 384 128 
L 384 978 
Q 719 816 1070 734 
Q 1422 653 1784 653 
Q 2113 653 2278 743 
Q 2444 834 2444 1013 
Q 2444 1163 2330 1236 
Q 2216 1309 1875 1350 
L 1678 1375 
Q 931 1469 631 1722 
Q 331 1975 331 2491 
Q 331 3047 712 3315 
Q 1094 3584 1881 3584 
Q 2191 3584 2531 3537 
Q 2872 3491 3272 3391 
z
" transform="scale(0.015625)"/>
      <path id="DejaVuSans-Bold-30" d="M 2944 2338 
Q 2944 3213 2780 3570 
Q 2616 3928 2228 3928 
Q 1841 3928 1675 3570 
Q 1509 3213 1509 2338 
Q 1509 1453 1675 1090 
Q 1841 728 2228 728 
Q 2613 728 2778 1090 
Q 2944 1453 2944 2338 
z
M 4147 2328 
Q 4147 1169 3647 539 
Q 3147 -91 2228 -91 
Q 1306 -91 806 539 
Q 306 1169 306 2328 
Q 306 3491 806 4120 
Q 1306 4750 2228 4750 
Q 3147 4750 3647 4120 
Q 4147 3491 4147 2328 
z
" transform="scale(0.015625)"/>
     </defs>
     <use xlink:href="#DejaVuSans-Bold-54"/>
     <use xlink:href="#DejaVuSans-Bold-72" x="57.212891"/>
     <use xlink:href="#DejaVuSans-Bold-61" x="106.529297"/>
     <use xlink:href="#DejaVuSans-Bold-69" x="174.009766"/>
     <use xlink:href="#DejaVuSans-Bold-6e" x="208.287109"/>
     <use xlink:href="#DejaVuSans-Bold-69" x="279.478516"/>
     <use xlink:href="#DejaVuSans-Bold-6e" x="313.755859"/>
     <use xlink:href="#DejaVuSans-Bold-67" x="384.947266"/>
     <use xlink:href="#DejaVuSans-Bold-20" x="456.529297"/>
     <use xlink:href="#DejaVuSans-Bold-72" x="491.34375"/>
     <use xlink:href="#DejaVuSans-Bold-65" x="540.660156"/>
     <use xlink:href="#DejaVuSans-Bold-77" x="608.482422"/>
     <use xlink:href="#DejaVuSans-Bold-61" x="700.865234"/>
     <use xlink:href="#DejaVuSans-Bold-72" x="768.345703"/>
     <use xlink:href="#DejaVuSans-Bold-64" x="817.662109"/>
     <use xlink:href="#DejaVuSans-Bold-20" x="889.244141"/>
     <use xlink:href="#DejaVuSans-Bold-70" x="924.058594"/>
     <use xlink:href="#DejaVuSans-Bold-65" x="995.640625"/>
     <use xlink:href="#DejaVuSans-Bold-72" x="1063.462891"/>
     <use xlink:href="#DejaVuSans-Bold-20" x="1112.779297"/>
     <use xlink:href="#DejaVuSans-Bold-69" x="1147.59375"/>
     <use xlink:href="#DejaVuSans-Bold-74" x="1181.871094"/>
     <use xlink:href="#DejaVuSans-Bold-65" x="1229.673828"/>
     <use xlink:href="#DejaVuSans-Bold-72" x="1297.496094"/>
     <use xlink:href="#DejaVuSans-Bold-61" x="1346.8125"/>
     <use xlink:href="#DejaVuSans-Bold-74" x="1414.292969"/>
     <use xlink:href="#DejaVuSans-Bold-69" x="1462.095703"/>
     <use xlink:href="#DejaVuSans-Bold-6f" x="1496.373047"/>
     <use xlink:href="#DejaVuSans-Bold-6e" x="1565.074219"/>
     <use xlink:href="#DejaVuSans-Bold-20" x="1636.265625"/>
     <use xlink:href="#DejaVuSans-Bold-2014" x="1671.080078"/>
     <use xlink:href="#DejaVuSans-Bold-20" x="1771.080078"/>
     <use xlink:href="#DejaVuSans-Bold-63" x="1805.894531"/>
     <use xlink:href="#DejaVuSans-Bold-6f" x="1865.171875"/>
     <use xlink:href="#DejaVuSans-Bold-6e" x="1933.873047"/>
     <use xlink:href="#DejaVuSans-Bold-73" x="2005.064453"/>
     <use xlink:href="#DejaVuSans-Bold-74" x="2064.585938"/>
     <use xlink:href="#DejaVuSans-Bold-72" x="2112.388672"/>
     <use xlink:href="#DejaVuSans-Bold-61" x="2161.705078"/>
     <use xlink:href="#DejaVuSans-Bold-69" x="2229.185547"/>
     <use xlink:href="#DejaVuSans-Bold-6e" x="2263.462891"/>
     <use xlink:href="#DejaVuSans-Bold-65" x="2334.654297"/>
     <use xlink:href="#DejaVuSans-Bold-64" x="2402.476562"/>
     <use xlink:href="#DejaVuSans-Bold-20" x="2474.058594"/>
     <use xlink:href="#DejaVuSans-Bold-73" x="2508.873047"/>
     <use xlink:href="#DejaVuSans-Bold-65" x="2568.394531"/>
     <use xlink:href="#DejaVuSans-Bold-65" x="2636.216797"/>
     <use xlink:href="#DejaVuSans-Bold-64" x="2704.039062"/>
     <use xlink:href="#DejaVuSans-Bold-20" x="2775.621094"/>
     <use xlink:href="#DejaVuSans-Bold-30" x="2810.435547"/>
    </g>
   </g>
  </g>
  <g id="axes_2">
   <g id="patch_7">
    <path d="M 60.180625 382.678125 
L 673.980625 382.678125 
L 673.980625 218.878125 
L 60.180625 218.878125 
z
" style="fill: #ffffff"/>
   </g>
   <g id="matplotlib.axis_3">
    <g id="xtick_9">
     <g id="line2d_20">
      <g>
       <use xlink:href="#mabf45fecbe" x="86.200698" y="382.678125" style="stroke: #000000; stroke-width: 0.8"/>
      </g>
     </g>
     <g id="text_18">
      <!-- 0 -->
      <g transform="translate(83.019448 397.276562) scale(0.1 -0.1)">
       <use xlink:href="#DejaVuSans-30"/>
      </g>
     </g>
    </g>
    <g id="xtick_10">
     <g id="line2d_21">
      <g>
       <use xlink:href="#mabf45fecbe" x="161.397787" y="382.678125" style="stroke: #000000; stroke-width: 0.8"/>
      </g>
     </g>
     <g id="text_19">
      <!-- 2000 -->
      <g transform="translate(148.672787 397.276562) scale(0.1 -0.1)">
       <use xlink:href="#DejaVuSans-32"/>
       <use xlink:href="#DejaVuSans-30" x="63.623047"/>
       <use xlink:href="#DejaVuSans-30" x="127.246094"/>
       <use xlink:href="#DejaVuSans-30" x="190.869141"/>
      </g>
     </g>
    </g>
    <g id="xtick_11">
     <g id="line2d_22">
      <g>
       <use xlink:href="#mabf45fecbe" x="236.594876" y="382.678125" style="stroke: #000000; stroke-width: 0.8"/>
      </g>
     </g>
     <g id="text_20">
      <!-- 4000 -->
      <g transform="translate(223.869876 397.276562) scale(0.1 -0.1)">
       <use xlink:href="#DejaVuSans-34"/>
       <use xlink:href="#DejaVuSans-30" x="63.623047"/>
       <use xlink:href="#DejaVuSans-30" x="127.246094"/>
       <use xlink:href="#DejaVuSans-30" x="190.869141"/>
      </g>
     </g>
    </g>
    <g id="xtick_12">
     <g id="line2d_23">
      <g>
       <use xlink:href="#mabf45fecbe" x="311.791965" y="382.678125" style="stroke: #000000; stroke-width: 0.8"/>
      </g>
     </g>
     <g id="text_21">
      <!-- 6000 -->
      <g transform="translate(299.066965 397.276562) scale(0.1 -0.1)">
       <use xlink:href="#DejaVuSans-36"/>
       <use xlink:href="#DejaVuSans-30" x="63.623047"/>
       <use xlink:href="#DejaVuSans-30" x="127.246094"/>
       <use xlink:href="#DejaVuSans-30" x="190.869141"/>
      </g>
     </g>
    </g>
    <g id="xtick_13">
     <g id="line2d_24">
      <g>
       <use xlink:href="#mabf45fecbe" x="386.989054" y="382.678125" style="stroke: #000000; stroke-width: 0.8"/>
      </g>
     </g>
     <g id="text_22">
      <!-- 8000 -->
      <g transform="translate(374.264054 397.276562) scale(0.1 -0.1)">
       <defs>
        <path id="DejaVuSans-38" d="M 2034 2216 
Q 1584 2216 1326 1975 
Q 1069 1734 1069 1313 
Q 1069 891 1326 650 
Q 1584 409 2034 409 
Q 2484 409 2743 651 
Q 3003 894 3003 1313 
Q 3003 1734 2745 1975 
Q 2488 2216 2034 2216 
z
M 1403 2484 
Q 997 2584 770 2862 
Q 544 3141 544 3541 
Q 544 4100 942 4425 
Q 1341 4750 2034 4750 
Q 2731 4750 3128 4425 
Q 3525 4100 3525 3541 
Q 3525 3141 3298 2862 
Q 3072 2584 2669 2484 
Q 3125 2378 3379 2068 
Q 3634 1759 3634 1313 
Q 3634 634 3220 271 
Q 2806 -91 2034 -91 
Q 1263 -91 848 271 
Q 434 634 434 1313 
Q 434 1759 690 2068 
Q 947 2378 1403 2484 
z
M 1172 3481 
Q 1172 3119 1398 2916 
Q 1625 2713 2034 2713 
Q 2441 2713 2670 2916 
Q 2900 3119 2900 3481 
Q 2900 3844 2670 4047 
Q 2441 4250 2034 4250 
Q 1625 4250 1398 4047 
Q 1172 3844 1172 3481 
z
" transform="scale(0.015625)"/>
       </defs>
       <use xlink:href="#DejaVuSans-38"/>
       <use xlink:href="#DejaVuSans-30" x="63.623047"/>
       <use xlink:href="#DejaVuSans-30" x="127.246094"/>
       <use xlink:href="#DejaVuSans-30" x="190.869141"/>
      </g>
     </g>
    </g>
    <g id="xtick_14">
     <g id="line2d_25">
      <g>
       <use xlink:href="#mabf45fecbe" x="462.186143" y="382.678125" style="stroke: #000000; stroke-width: 0.8"/>
      </g>
     </g>
     <g id="text_23">
      <!-- 10000 -->
      <g transform="translate(446.279893 397.276562) scale(0.1 -0.1)">
       <use xlink:href="#DejaVuSans-31"/>
       <use xlink:href="#DejaVuSans-30" x="63.623047"/>
       <use xlink:href="#DejaVuSans-30" x="127.246094"/>
       <use xlink:href="#DejaVuSans-30" x="190.869141"/>
       <use xlink:href="#DejaVuSans-30" x="254.492188"/>
      </g>
     </g>
    </g>
    <g id="xtick_15">
     <g id="line2d_26">
      <g>
       <use xlink:href="#mabf45fecbe" x="537.383233" y="382.678125" style="stroke: #000000; stroke-width: 0.8"/>
      </g>
     </g>
     <g id="text_24">
      <!-- 12000 -->
      <g transform="translate(521.476983 397.276562) scale(0.1 -0.1)">
       <use xlink:href="#DejaVuSans-31"/>
       <use xlink:href="#DejaVuSans-32" x="63.623047"/>
       <use xlink:href="#DejaVuSans-30" x="127.246094"/>
       <use xlink:href="#DejaVuSans-30" x="190.869141"/>
       <use xlink:href="#DejaVuSans-30" x="254.492188"/>
      </g>
     </g>
    </g>
    <g id="xtick_16">
     <g id="line2d_27">
      <g>
       <use xlink:href="#mabf45fecbe" x="612.580322" y="382.678125" style="stroke: #000000; stroke-width: 0.8"/>
      </g>
     </g>
     <g id="text_25">
      <!-- 14000 -->
      <g transform="translate(596.674072 397.276562) scale(0.1 -0.1)">
       <use xlink:href="#DejaVuSans-31"/>
       <use xlink:href="#DejaVuSans-34" x="63.623047"/>
       <use xlink:href="#DejaVuSans-30" x="127.246094"/>
       <use xlink:href="#DejaVuSans-30" x="190.869141"/>
       <use xlink:href="#DejaVuSans-30" x="254.492188"/>
      </g>
     </g>
    </g>
    <g id="text_26">
     <!-- cumulative PPO iteration -->
     <g transform="translate(305.018906 410.954687) scale(0.1 -0.1)">
      <defs>
       <path id="DejaVuSans-6d" d="M 3328 2828 
Q 3544 3216 3844 3400 
Q 4144 3584 4550 3584 
Q 5097 3584 5394 3201 
Q 5691 2819 5691 2113 
L 5691 0 
L 5113 0 
L 5113 2094 
Q 5113 2597 4934 2840 
Q 4756 3084 4391 3084 
Q 3944 3084 3684 2787 
Q 3425 2491 3425 1978 
L 3425 0 
L 2847 0 
L 2847 2094 
Q 2847 2600 2669 2842 
Q 2491 3084 2119 3084 
Q 1678 3084 1418 2786 
Q 1159 2488 1159 1978 
L 1159 0 
L 581 0 
L 581 3500 
L 1159 3500 
L 1159 2956 
Q 1356 3278 1631 3431 
Q 1906 3584 2284 3584 
Q 2666 3584 2933 3390 
Q 3200 3197 3328 2828 
z
" transform="scale(0.015625)"/>
       <path id="DejaVuSans-4f" d="M 2522 4238 
Q 1834 4238 1429 3725 
Q 1025 3213 1025 2328 
Q 1025 1447 1429 934 
Q 1834 422 2522 422 
Q 3209 422 3611 934 
Q 4013 1447 4013 2328 
Q 4013 3213 3611 3725 
Q 3209 4238 2522 4238 
z
M 2522 4750 
Q 3503 4750 4090 4092 
Q 4678 3434 4678 2328 
Q 4678 1225 4090 567 
Q 3503 -91 2522 -91 
Q 1538 -91 948 565 
Q 359 1222 359 2328 
Q 359 3434 948 4092 
Q 1538 4750 2522 4750 
z
" transform="scale(0.015625)"/>
      </defs>
      <use xlink:href="#DejaVuSans-63"/>
      <use xlink:href="#DejaVuSans-75" x="54.980469"/>
      <use xlink:href="#DejaVuSans-6d" x="118.359375"/>
      <use xlink:href="#DejaVuSans-75" x="215.771484"/>
      <use xlink:href="#DejaVuSans-6c" x="279.150391"/>
      <use xlink:href="#DejaVuSans-61" x="306.933594"/>
      <use xlink:href="#DejaVuSans-74" x="368.212891"/>
      <use xlink:href="#DejaVuSans-69" x="407.421875"/>
      <use xlink:href="#DejaVuSans-76" x="435.205078"/>
      <use xlink:href="#DejaVuSans-65" x="494.384766"/>
      <use xlink:href="#DejaVuSans-20" x="555.908203"/>
      <use xlink:href="#DejaVuSans-50" x="587.695312"/>
      <use xlink:href="#DejaVuSans-50" x="647.998047"/>
      <use xlink:href="#DejaVuSans-4f" x="708.300781"/>
      <use xlink:href="#DejaVuSans-20" x="787.011719"/>
      <use xlink:href="#DejaVuSans-69" x="818.798828"/>
      <use xlink:href="#DejaVuSans-74" x="846.582031"/>
      <use xlink:href="#DejaVuSans-65" x="885.791016"/>
      <use xlink:href="#DejaVuSans-72" x="947.314453"/>
      <use xlink:href="#DejaVuSans-61" x="988.427734"/>
      <use xlink:href="#DejaVuSans-74" x="1049.707031"/>
      <use xlink:href="#DejaVuSans-69" x="1088.916016"/>
      <use xlink:href="#DejaVuSans-6f" x="1116.699219"/>
      <use xlink:href="#DejaVuSans-6e" x="1177.880859"/>
     </g>
    </g>
   </g>
   <g id="matplotlib.axis_4">
    <g id="ytick_6">
     <g id="line2d_28">
      <g>
       <use xlink:href="#ma472fac392" x="60.180625" y="368.731373" style="stroke: #000000; stroke-width: 0.8"/>
      </g>
     </g>
     <g id="text_27">
      <!-- 0.0 -->
      <g transform="translate(37.2775 372.530592) scale(0.1 -0.1)">
       <defs>
        <path id="DejaVuSans-2e" d="M 684 794 
L 1344 794 
L 1344 0 
L 684 0 
L 684 794 
z
" transform="scale(0.015625)"/>
       </defs>
       <use xlink:href="#DejaVuSans-30"/>
       <use xlink:href="#DejaVuSans-2e" x="63.623047"/>
       <use xlink:href="#DejaVuSans-30" x="95.410156"/>
      </g>
     </g>
    </g>
    <g id="ytick_7">
     <g id="line2d_29">
      <g>
       <use xlink:href="#ma472fac392" x="60.180625" y="336.617823" style="stroke: #000000; stroke-width: 0.8"/>
      </g>
     </g>
     <g id="text_28">
      <!-- 0.5 -->
      <g transform="translate(37.2775 340.417042) scale(0.1 -0.1)">
       <use xlink:href="#DejaVuSans-30"/>
       <use xlink:href="#DejaVuSans-2e" x="63.623047"/>
       <use xlink:href="#DejaVuSans-35" x="95.410156"/>
      </g>
     </g>
    </g>
    <g id="ytick_8">
     <g id="line2d_30">
      <g>
       <use xlink:href="#ma472fac392" x="60.180625" y="304.504272" style="stroke: #000000; stroke-width: 0.8"/>
      </g>
     </g>
     <g id="text_29">
      <!-- 1.0 -->
      <g transform="translate(37.2775 308.303491) scale(0.1 -0.1)">
       <use xlink:href="#DejaVuSans-31"/>
       <use xlink:href="#DejaVuSans-2e" x="63.623047"/>
       <use xlink:href="#DejaVuSans-30" x="95.410156"/>
      </g>
     </g>
    </g>
    <g id="ytick_9">
     <g id="line2d_31">
      <g>
       <use xlink:href="#ma472fac392" x="60.180625" y="272.390722" style="stroke: #000000; stroke-width: 0.8"/>
      </g>
     </g>
     <g id="text_30">
      <!-- 1.5 -->
      <g transform="translate(37.2775 276.189941) scale(0.1 -0.1)">
       <use xlink:href="#DejaVuSans-31"/>
       <use xlink:href="#DejaVuSans-2e" x="63.623047"/>
       <use xlink:href="#DejaVuSans-35" x="95.410156"/>
      </g>
     </g>
    </g>
    <g id="ytick_10">
     <g id="line2d_32">
      <g>
       <use xlink:href="#ma472fac392" x="60.180625" y="240.277172" style="stroke: #000000; stroke-width: 0.8"/>
      </g>
     </g>
     <g id="text_31">
      <!-- 2.0 -->
      <g transform="translate(37.2775 244.07639) scale(0.1 -0.1)">
       <use xlink:href="#DejaVuSans-32"/>
       <use xlink:href="#DejaVuSans-2e" x="63.623047"/>
       <use xlink:href="#DejaVuSans-30" x="95.410156"/>
      </g>
     </g>
    </g>
    <g id="text_32">
     <!-- normalized greedy -->
     <g transform="translate(20 347.554687) rotate(-90) scale(0.1 -0.1)">
      <defs>
       <path id="DejaVuSans-7a" d="M 353 3500 
L 3084 3500 
L 3084 2975 
L 922 459 
L 3084 459 
L 3084 0 
L 275 0 
L 275 525 
L 2438 3041 
L 353 3041 
L 353 3500 
z
" transform="scale(0.015625)"/>
       <path id="DejaVuSans-79" d="M 2059 -325 
Q 1816 -950 1584 -1140 
Q 1353 -1331 966 -1331 
L 506 -1331 
L 506 -850 
L 844 -850 
Q 1081 -850 1212 -737 
Q 1344 -625 1503 -206 
L 1606 56 
L 191 3500 
L 800 3500 
L 1894 763 
L 2988 3500 
L 3597 3500 
L 2059 -325 
z
" transform="scale(0.015625)"/>
      </defs>
      <use xlink:href="#DejaVuSans-6e"/>
      <use xlink:href="#DejaVuSans-6f" x="63.378906"/>
      <use xlink:href="#DejaVuSans-72" x="124.560547"/>
      <use xlink:href="#DejaVuSans-6d" x="163.923828"/>
      <use xlink:href="#DejaVuSans-61" x="261.335938"/>
      <use xlink:href="#DejaVuSans-6c" x="322.615234"/>
      <use xlink:href="#DejaVuSans-69" x="350.398438"/>
      <use xlink:href="#DejaVuSans-7a" x="378.181641"/>
      <use xlink:href="#DejaVuSans-65" x="430.671875"/>
      <use xlink:href="#DejaVuSans-64" x="492.195312"/>
      <use xlink:href="#DejaVuSans-20" x="555.671875"/>
      <use xlink:href="#DejaVuSans-67" x="587.458984"/>
      <use xlink:href="#DejaVuSans-72" x="650.935547"/>
      <use xlink:href="#DejaVuSans-65" x="689.798828"/>
      <use xlink:href="#DejaVuSans-65" x="751.322266"/>
      <use xlink:href="#DejaVuSans-64" x="812.845703"/>
      <use xlink:href="#DejaVuSans-79" x="876.322266"/>
     </g>
     <!-- score (current game) -->
     <g transform="translate(31.197812 353.510156) rotate(-90) scale(0.1 -0.1)">
      <use xlink:href="#DejaVuSans-73"/>
      <use xlink:href="#DejaVuSans-63" x="52.099609"/>
      <use xlink:href="#DejaVuSans-6f" x="107.080078"/>
      <use xlink:href="#DejaVuSans-72" x="168.261719"/>
      <use xlink:href="#DejaVuSans-65" x="207.125"/>
      <use xlink:href="#DejaVuSans-20" x="268.648438"/>
      <use xlink:href="#DejaVuSans-28" x="300.435547"/>
      <use xlink:href="#DejaVuSans-63" x="339.449219"/>
      <use xlink:href="#DejaVuSans-75" x="394.429688"/>
      <use xlink:href="#DejaVuSans-72" x="457.808594"/>
      <use xlink:href="#DejaVuSans-72" x="497.171875"/>
      <use xlink:href="#DejaVuSans-65" x="536.035156"/>
      <use xlink:href="#DejaVuSans-6e" x="597.558594"/>
      <use xlink:href="#DejaVuSans-74" x="660.9375"/>
      <use xlink:href="#DejaVuSans-20" x="700.146484"/>
      <use xlink:href="#DejaVuSans-67" x="731.933594"/>
      <use xlink:href="#DejaVuSans-61" x="795.410156"/>
      <use xlink:href="#DejaVuSans-6d" x="856.689453"/>
      <use xlink:href="#DejaVuSans-65" x="954.101562"/>
      <use xlink:href="#DejaVuSans-29" x="1015.625"/>
     </g>
    </g>
   </g>
   <g id="line2d_33">
    <path d="M 97.442663 369.229258 
L 101.202517 369.229258 
L 103.082444 353.296953 
L 104.962372 355.509774 
L 106.842299 351.637338 
L 108.722226 351.526697 
L 110.602153 348.096826 
L 112.48208 351.526697 
L 114.362008 348.318108 
L 116.241935 342.675418 
L 118.121862 335.041189 
L 120.001789 318.555679 
L 121.881717 319.551448 
L 123.761644 321.653628 
L 125.641571 325.636703 
L 127.521498 314.793885 
L 129.401425 310.368246 
L 131.281353 309.81504 
L 133.16128 309.81504 
L 135.041207 307.823502 
L 136.921134 312.691707 
L 138.801062 314.351322 
L 140.680989 312.470425 
L 142.560916 312.470425 
L 144.440843 309.81504 
L 146.320771 308.487348 
L 148.200698 309.593758 
L 150.080625 317.117347 
L 151.960552 306.827733 
L 153.840479 311.474655 
L 155.720407 307.491578 
L 157.600334 317.117347 
L 159.480261 309.81504 
L 161.360188 308.708631 
L 163.240116 311.585296 
L 165.120043 313.576834 
L 166.99997 315.789655 
L 168.879897 312.802348 
L 170.759825 317.781193 
L 172.639752 314.683244 
L 174.519679 318.998244 
L 176.399606 319.994012 
L 178.279533 313.13427 
L 180.159461 316.010937 
L 193.281353 362.658831 
L 195.16128 366.293492 
L 197.041207 357.694418 
L 200.801062 346.258536 
L 202.680989 350.425099 
L 204.560916 352.552704 
L 206.440843 353.793807 
L 208.320771 351.1343 
L 210.200698 346.081236 
L 212.080625 343.776329 
L 213.960552 339.077867 
L 215.840479 347.58829 
L 217.720407 351.1343 
L 219.600334 349.006695 
L 221.480261 345.726635 
L 223.360188 339.077867 
L 225.240116 324.893827 
L 227.120043 343.599029 
L 228.99997 313.103347 
L 230.879897 346.613137 
L 232.759825 340.318969 
L 234.639752 338.368666 
L 236.519679 317.358559 
L 238.399606 333.936153 
L 240.279533 339.432468 
L 242.159461 321.79107 
L 244.039388 323.032175 
L 245.919315 319.663466 
L 247.799242 332.7837 
L 249.67917 338.014065 
L 251.559097 327.641988 
L 253.439024 324.273274 
L 255.318951 306.72053 
L 257.198878 313.457947 
L 270.320771 348.208842 
L 272.200698 357.694418 
L 274.080625 360.974477 
L 275.960552 362.924782 
L 277.840479 363.633984 
L 279.720407 349.006695 
L 281.600334 354.946261 
L 283.480261 352.198103 
L 285.360188 350.779699 
L 287.240116 352.286753 
L 289.120043 353.971108 
L 290.99997 351.1343 
L 292.879897 357.428468 
L 294.759825 350.070497 
L 296.639752 352.818654 
L 298.519679 341.471423 
L 300.399606 346.790437 
L 302.279533 337.216213 
L 304.159461 338.634615 
L 317.281353 362.325333 
L 319.16128 368.707559 
L 321.041207 366.326131 
L 322.921134 368.136016 
L 324.801062 368.374159 
L 326.680989 366.945303 
L 328.560916 367.183445 
L 330.440843 367.135817 
L 332.320771 365.897475 
L 334.200698 375.23267 
L 336.080625 371.612901 
L 337.960552 366.802417 
L 339.840479 367.37396 
L 341.720407 368.088388 
L 343.600334 359.753391 
L 345.480261 358.896077 
L 347.360188 356.181251 
L 349.240116 357.038564 
L 351.120043 354.609508 
L 352.99997 355.228679 
L 354.879897 350.227681 
L 356.759825 351.466024 
L 358.639752 350.513452 
L 360.519679 345.988741 
L 362.399606 346.083998 
L 364.279533 340.082799 
L 366.159461 337.606114 
L 368.039388 336.939317 
L 369.919315 330.89049 
L 371.799242 328.890092 
L 373.67917 325.175064 
L 375.559097 329.699776 
L 377.439024 329.60452 
L 379.318951 326.984949 
L 381.198878 318.459438 
L 394.320771 371.517643 
L 396.200698 368.136016 
L 398.080625 366.850045 
L 399.960552 369.850644 
L 401.840479 364.182847 
L 403.720407 364.754389 
L 405.600334 368.421788 
L 407.480261 367.897874 
L 409.360188 362.515847 
L 411.240116 365.992732 
L 413.120043 366.516646 
L 414.99997 364.897275 
L 416.879897 362.563476 
L 418.759825 358.229278 
L 420.639752 363.944704 
L 422.519679 362.992133 
L 426.279533 361.801419 
L 428.159461 362.944504 
L 441.281353 353.651419 
L 443.16128 365.71958 
L 445.041207 357.149437 
L 446.921134 359.598049 
L 448.801062 341.233457 
L 450.680989 356.624734 
L 452.560916 341.233457 
L 454.440843 341.116857 
L 456.320771 359.598049 
L 458.200698 359.83125 
L 460.080625 344.731475 
L 461.960552 357.557539 
L 463.840479 357.965642 
L 465.720407 297.741441 
L 467.600334 277.511234 
L 469.480261 315.931128 
L 471.360188 262.702962 
L 473.240116 226.32358 
L 475.120043 301.356057 
L 488.241935 357.324338 
L 490.121862 350.386604 
L 492.001789 351.027906 
L 493.881717 341.175156 
L 495.761644 363.79567 
L 497.641571 360.647455 
L 499.521498 351.377708 
L 501.401425 352.543713 
L 503.281353 351.027906 
L 505.16128 357.032836 
L 507.041207 352.310513 
L 508.921134 355.575329 
L 510.801062 349.978501 
L 512.680989 358.432043 
L 514.560916 355.225527 
L 516.440843 356.449834 
L 518.320771 344.848075 
L 520.200698 356.857935 
L 522.080625 359.364849 
L 535.202517 347.03815 
L 537.082444 360.205652 
L 538.962372 353.148251 
L 540.842299 340.359669 
L 542.722226 335.528427 
L 544.602153 345.048815 
L 546.48208 334.865312 
L 548.362008 334.865312 
L 550.241935 339.791287 
L 552.121862 346.422402 
L 554.001789 319.234823 
L 555.881717 357.269014 
L 557.761644 345.001449 
L 559.641571 337.801952 
L 561.521498 310.188087 
L 563.401425 313.551013 
L 565.281353 304.220082 
L 567.16128 326.339591 
L 569.041207 328.281563 
L 570.921134 331.218199 
L 572.801062 319.9453 
L 574.680989 326.386957 
L 576.560916 311.182754 
L 578.440843 322.645111 
L 580.320771 328.328926 
L 582.200698 337.896681 
L 584.080625 319.282189 
L 585.960552 317.719141 
L 587.840479 339.791287 
L 589.720407 313.45628 
L 591.600334 326.955339 
L 593.480261 319.992666 
L 595.360188 315.019329 
L 597.240116 296.594295 
L 599.120043 327.097434 
L 612.241935 365.321085 
L 614.121862 347.653894 
L 616.001789 371.28909 
L 617.881717 346.801322 
L 619.761644 346.896055 
L 621.641571 362.621273 
L 623.521498 343.343671 
L 625.401425 358.737334 
L 627.281353 336.996742 
L 629.16128 350.164248 
L 631.041207 360.158288 
L 632.921134 350.779992 
L 634.801062 330.03407 
L 636.680989 332.023405 
L 638.560916 319.471651 
L 640.440843 313.787833 
L 642.320771 316.250825 
L 644.200698 333.870645 
L 646.080625 323.308226 
L 646.080625 323.308226 
" clip-path="url(#p4633950bbe)" style="fill: none; stroke: #1b9e77; stroke-width: 1.2; stroke-linecap: square"/>
    <defs>
     <path id="m019f822169" d="M 0 0.75 
C 0.198902 0.75 0.389685 0.670975 0.53033 0.53033 
C 0.670975 0.389685 0.75 0.198902 0.75 0 
C 0.75 -0.198902 0.670975 -0.389685 0.53033 -0.53033 
C 0.389685 -0.670975 0.198902 -0.75 0 -0.75 
C -0.198902 -0.75 -0.389685 -0.670975 -0.53033 -0.53033 
C -0.670975 -0.389685 -0.75 -0.198902 -0.75 0 
C -0.75 0.198902 -0.670975 0.389685 -0.53033 0.53033 
C -0.389685 0.670975 -0.198902 0.75 0 0.75 
z
" style="stroke: #1b9e77"/>
    </defs>
    <g clip-path="url(#p4633950bbe)">
     <use xlink:href="#m019f822169" x="97.442663" y="369.229258" style="fill: #1b9e77; stroke: #1b9e77"/>
     <use xlink:href="#m019f822169" x="99.32259" y="369.229258" style="fill: #1b9e77; stroke: #1b9e77"/>
     <use xlink:href="#m019f822169" x="101.202517" y="369.229258" style="fill: #1b9e77; stroke: #1b9e77"/>
     <use xlink:href="#m019f822169" x="103.082444" y="353.296953" style="fill: #1b9e77; stroke: #1b9e77"/>
     <use xlink:href="#m019f822169" x="104.962372" y="355.509774" style="fill: #1b9e77; stroke: #1b9e77"/>
     <use xlink:href="#m019f822169" x="106.842299" y="351.637338" style="fill: #1b9e77; stroke: #1b9e77"/>
     <use xlink:href="#m019f822169" x="108.722226" y="351.526697" style="fill: #1b9e77; stroke: #1b9e77"/>
     <use xlink:href="#m019f822169" x="110.602153" y="348.096826" style="fill: #1b9e77; stroke: #1b9e77"/>
     <use xlink:href="#m019f822169" x="112.48208" y="351.526697" style="fill: #1b9e77; stroke: #1b9e77"/>
     <use xlink:href="#m019f822169" x="114.362008" y="348.318108" style="fill: #1b9e77; stroke: #1b9e77"/>
     <use xlink:href="#m019f822169" x="116.241935" y="342.675418" style="fill: #1b9e77; stroke: #1b9e77"/>
     <use xlink:href="#m019f822169" x="118.121862" y="335.041189" style="fill: #1b9e77; stroke: #1b9e77"/>
     <use xlink:href="#m019f822169" x="120.001789" y="318.555679" style="fill: #1b9e77; stroke: #1b9e77"/>
     <use xlink:href="#m019f822169" x="121.881717" y="319.551448" style="fill: #1b9e77; stroke: #1b9e77"/>
     <use xlink:href="#m019f822169" x="123.761644" y="321.653628" style="fill: #1b9e77; stroke: #1b9e77"/>
     <use xlink:href="#m019f822169" x="125.641571" y="325.636703" style="fill: #1b9e77; stroke: #1b9e77"/>
     <use xlink:href="#m019f822169" x="127.521498" y="314.793885" style="fill: #1b9e77; stroke: #1b9e77"/>
     <use xlink:href="#m019f822169" x="129.401425" y="310.368246" style="fill: #1b9e77; stroke: #1b9e77"/>
     <use xlink:href="#m019f822169" x="131.281353" y="309.81504" style="fill: #1b9e77; stroke: #1b9e77"/>
     <use xlink:href="#m019f822169" x="133.16128" y="309.81504" style="fill: #1b9e77; stroke: #1b9e77"/>
     <use xlink:href="#m019f822169" x="135.041207" y="307.823502" style="fill: #1b9e77; stroke: #1b9e77"/>
     <use xlink:href="#m019f822169" x="136.921134" y="312.691707" style="fill: #1b9e77; stroke: #1b9e77"/>
     <use xlink:href="#m019f822169" x="138.801062" y="314.351322" style="fill: #1b9e77; stroke: #1b9e77"/>
     <use xlink:href="#m019f822169" x="140.680989" y="312.470425" style="fill: #1b9e77; stroke: #1b9e77"/>
     <use xlink:href="#m019f822169" x="142.560916" y="312.470425" style="fill: #1b9e77; stroke: #1b9e77"/>
     <use xlink:href="#m019f822169" x="144.440843" y="309.81504" style="fill: #1b9e77; stroke: #1b9e77"/>
     <use xlink:href="#m019f822169" x="146.320771" y="308.487348" style="fill: #1b9e77; stroke: #1b9e77"/>
     <use xlink:href="#m019f822169" x="148.200698" y="309.593758" style="fill: #1b9e77; stroke: #1b9e77"/>
     <use xlink:href="#m019f822169" x="150.080625" y="317.117347" style="fill: #1b9e77; stroke: #1b9e77"/>
     <use xlink:href="#m019f822169" x="151.960552" y="306.827733" style="fill: #1b9e77; stroke: #1b9e77"/>
     <use xlink:href="#m019f822169" x="153.840479" y="311.474655" style="fill: #1b9e77; stroke: #1b9e77"/>
     <use xlink:href="#m019f822169" x="155.720407" y="307.491578" style="fill: #1b9e77; stroke: #1b9e77"/>
     <use xlink:href="#m019f822169" x="157.600334" y="317.117347" style="fill: #1b9e77; stroke: #1b9e77"/>
     <use xlink:href="#m019f822169" x="159.480261" y="309.81504" style="fill: #1b9e77; stroke: #1b9e77"/>
     <use xlink:href="#m019f822169" x="161.360188" y="308.708631" style="fill: #1b9e77; stroke: #1b9e77"/>
     <use xlink:href="#m019f822169" x="163.240116" y="311.585296" style="fill: #1b9e77; stroke: #1b9e77"/>
     <use xlink:href="#m019f822169" x="165.120043" y="313.576834" style="fill: #1b9e77; stroke: #1b9e77"/>
     <use xlink:href="#m019f822169" x="166.99997" y="315.789655" style="fill: #1b9e77; stroke: #1b9e77"/>
     <use xlink:href="#m019f822169" x="168.879897" y="312.802348" style="fill: #1b9e77; stroke: #1b9e77"/>
     <use xlink:href="#m019f822169" x="170.759825" y="317.781193" style="fill: #1b9e77; stroke: #1b9e77"/>
     <use xlink:href="#m019f822169" x="172.639752" y="314.683244" style="fill: #1b9e77; stroke: #1b9e77"/>
     <use xlink:href="#m019f822169" x="174.519679" y="318.998244" style="fill: #1b9e77; stroke: #1b9e77"/>
     <use xlink:href="#m019f822169" x="176.399606" y="319.994012" style="fill: #1b9e77; stroke: #1b9e77"/>
     <use xlink:href="#m019f822169" x="178.279533" y="313.13427" style="fill: #1b9e77; stroke: #1b9e77"/>
     <use xlink:href="#m019f822169" x="180.159461" y="316.010937" style="fill: #1b9e77; stroke: #1b9e77"/>
     <use xlink:href="#m019f822169" x="193.281353" y="362.658831" style="fill: #1b9e77; stroke: #1b9e77"/>
     <use xlink:href="#m019f822169" x="195.16128" y="366.293492" style="fill: #1b9e77; stroke: #1b9e77"/>
     <use xlink:href="#m019f822169" x="197.041207" y="357.694418" style="fill: #1b9e77; stroke: #1b9e77"/>
     <use xlink:href="#m019f822169" x="198.921134" y="351.932153" style="fill: #1b9e77; stroke: #1b9e77"/>
     <use xlink:href="#m019f822169" x="200.801062" y="346.258536" style="fill: #1b9e77; stroke: #1b9e77"/>
     <use xlink:href="#m019f822169" x="202.680989" y="350.425099" style="fill: #1b9e77; stroke: #1b9e77"/>
     <use xlink:href="#m019f822169" x="204.560916" y="352.552704" style="fill: #1b9e77; stroke: #1b9e77"/>
     <use xlink:href="#m019f822169" x="206.440843" y="353.793807" style="fill: #1b9e77; stroke: #1b9e77"/>
     <use xlink:href="#m019f822169" x="208.320771" y="351.1343" style="fill: #1b9e77; stroke: #1b9e77"/>
     <use xlink:href="#m019f822169" x="210.200698" y="346.081236" style="fill: #1b9e77; stroke: #1b9e77"/>
     <use xlink:href="#m019f822169" x="212.080625" y="343.776329" style="fill: #1b9e77; stroke: #1b9e77"/>
     <use xlink:href="#m019f822169" x="213.960552" y="339.077867" style="fill: #1b9e77; stroke: #1b9e77"/>
     <use xlink:href="#m019f822169" x="215.840479" y="347.58829" style="fill: #1b9e77; stroke: #1b9e77"/>
     <use xlink:href="#m019f822169" x="217.720407" y="351.1343" style="fill: #1b9e77; stroke: #1b9e77"/>
     <use xlink:href="#m019f822169" x="219.600334" y="349.006695" style="fill: #1b9e77; stroke: #1b9e77"/>
     <use xlink:href="#m019f822169" x="221.480261" y="345.726635" style="fill: #1b9e77; stroke: #1b9e77"/>
     <use xlink:href="#m019f822169" x="223.360188" y="339.077867" style="fill: #1b9e77; stroke: #1b9e77"/>
     <use xlink:href="#m019f822169" x="225.240116" y="324.893827" style="fill: #1b9e77; stroke: #1b9e77"/>
     <use xlink:href="#m019f822169" x="227.120043" y="343.599029" style="fill: #1b9e77; stroke: #1b9e77"/>
     <use xlink:href="#m019f822169" x="228.99997" y="313.103347" style="fill: #1b9e77; stroke: #1b9e77"/>
     <use xlink:href="#m019f822169" x="230.879897" y="346.613137" style="fill: #1b9e77; stroke: #1b9e77"/>
     <use xlink:href="#m019f822169" x="232.759825" y="340.318969" style="fill: #1b9e77; stroke: #1b9e77"/>
     <use xlink:href="#m019f822169" x="234.639752" y="338.368666" style="fill: #1b9e77; stroke: #1b9e77"/>
     <use xlink:href="#m019f822169" x="236.519679" y="317.358559" style="fill: #1b9e77; stroke: #1b9e77"/>
     <use xlink:href="#m019f822169" x="238.399606" y="333.936153" style="fill: #1b9e77; stroke: #1b9e77"/>
     <use xlink:href="#m019f822169" x="240.279533" y="339.432468" style="fill: #1b9e77; stroke: #1b9e77"/>
     <use xlink:href="#m019f822169" x="242.159461" y="321.79107" style="fill: #1b9e77; stroke: #1b9e77"/>
     <use xlink:href="#m019f822169" x="244.039388" y="323.032175" style="fill: #1b9e77; stroke: #1b9e77"/>
     <use xlink:href="#m019f822169" x="245.919315" y="319.663466" style="fill: #1b9e77; stroke: #1b9e77"/>
     <use xlink:href="#m019f822169" x="247.799242" y="332.7837" style="fill: #1b9e77; stroke: #1b9e77"/>
     <use xlink:href="#m019f822169" x="249.67917" y="338.014065" style="fill: #1b9e77; stroke: #1b9e77"/>
     <use xlink:href="#m019f822169" x="251.559097" y="327.641988" style="fill: #1b9e77; stroke: #1b9e77"/>
     <use xlink:href="#m019f822169" x="253.439024" y="324.273274" style="fill: #1b9e77; stroke: #1b9e77"/>
     <use xlink:href="#m019f822169" x="255.318951" y="306.72053" style="fill: #1b9e77; stroke: #1b9e77"/>
     <use xlink:href="#m019f822169" x="257.198878" y="313.457947" style="fill: #1b9e77; stroke: #1b9e77"/>
     <use xlink:href="#m019f822169" x="270.320771" y="348.208842" style="fill: #1b9e77; stroke: #1b9e77"/>
     <use xlink:href="#m019f822169" x="272.200698" y="357.694418" style="fill: #1b9e77; stroke: #1b9e77"/>
     <use xlink:href="#m019f822169" x="274.080625" y="360.974477" style="fill: #1b9e77; stroke: #1b9e77"/>
     <use xlink:href="#m019f822169" x="275.960552" y="362.924782" style="fill: #1b9e77; stroke: #1b9e77"/>
     <use xlink:href="#m019f822169" x="277.840479" y="363.633984" style="fill: #1b9e77; stroke: #1b9e77"/>
     <use xlink:href="#m019f822169" x="279.720407" y="349.006695" style="fill: #1b9e77; stroke: #1b9e77"/>
     <use xlink:href="#m019f822169" x="281.600334" y="354.946261" style="fill: #1b9e77; stroke: #1b9e77"/>
     <use xlink:href="#m019f822169" x="283.480261" y="352.198103" style="fill: #1b9e77; stroke: #1b9e77"/>
     <use xlink:href="#m019f822169" x="285.360188" y="350.779699" style="fill: #1b9e77; stroke: #1b9e77"/>
     <use xlink:href="#m019f822169" x="287.240116" y="352.286753" style="fill: #1b9e77; stroke: #1b9e77"/>
     <use xlink:href="#m019f822169" x="289.120043" y="353.971108" style="fill: #1b9e77; stroke: #1b9e77"/>
     <use xlink:href="#m019f822169" x="290.99997" y="351.1343" style="fill: #1b9e77; stroke: #1b9e77"/>
     <use xlink:href="#m019f822169" x="292.879897" y="357.428468" style="fill: #1b9e77; stroke: #1b9e77"/>
     <use xlink:href="#m019f822169" x="294.759825" y="350.070497" style="fill: #1b9e77; stroke: #1b9e77"/>
     <use xlink:href="#m019f822169" x="296.639752" y="352.818654" style="fill: #1b9e77; stroke: #1b9e77"/>
     <use xlink:href="#m019f822169" x="298.519679" y="341.471423" style="fill: #1b9e77; stroke: #1b9e77"/>
     <use xlink:href="#m019f822169" x="300.399606" y="346.790437" style="fill: #1b9e77; stroke: #1b9e77"/>
     <use xlink:href="#m019f822169" x="302.279533" y="337.216213" style="fill: #1b9e77; stroke: #1b9e77"/>
     <use xlink:href="#m019f822169" x="304.159461" y="338.634615" style="fill: #1b9e77; stroke: #1b9e77"/>
     <use xlink:href="#m019f822169" x="317.281353" y="362.325333" style="fill: #1b9e77; stroke: #1b9e77"/>
     <use xlink:href="#m019f822169" x="319.16128" y="368.707559" style="fill: #1b9e77; stroke: #1b9e77"/>
     <use xlink:href="#m019f822169" x="321.041207" y="366.326131" style="fill: #1b9e77; stroke: #1b9e77"/>
     <use xlink:href="#m019f822169" x="322.921134" y="368.136016" style="fill: #1b9e77; stroke: #1b9e77"/>
     <use xlink:href="#m019f822169" x="324.801062" y="368.374159" style="fill: #1b9e77; stroke: #1b9e77"/>
     <use xlink:href="#m019f822169" x="326.680989" y="366.945303" style="fill: #1b9e77; stroke: #1b9e77"/>
     <use xlink:href="#m019f822169" x="328.560916" y="367.183445" style="fill: #1b9e77; stroke: #1b9e77"/>
     <use xlink:href="#m019f822169" x="330.440843" y="367.135817" style="fill: #1b9e77; stroke: #1b9e77"/>
     <use xlink:href="#m019f822169" x="332.320771" y="365.897475" style="fill: #1b9e77; stroke: #1b9e77"/>
     <use xlink:href="#m019f822169" x="334.200698" y="375.23267" style="fill: #1b9e77; stroke: #1b9e77"/>
     <use xlink:href="#m019f822169" x="336.080625" y="371.612901" style="fill: #1b9e77; stroke: #1b9e77"/>
     <use xlink:href="#m019f822169" x="337.960552" y="366.802417" style="fill: #1b9e77; stroke: #1b9e77"/>
     <use xlink:href="#m019f822169" x="339.840479" y="367.37396" style="fill: #1b9e77; stroke: #1b9e77"/>
     <use xlink:href="#m019f822169" x="341.720407" y="368.088388" style="fill: #1b9e77; stroke: #1b9e77"/>
     <use xlink:href="#m019f822169" x="343.600334" y="359.753391" style="fill: #1b9e77; stroke: #1b9e77"/>
     <use xlink:href="#m019f822169" x="345.480261" y="358.896077" style="fill: #1b9e77; stroke: #1b9e77"/>
     <use xlink:href="#m019f822169" x="347.360188" y="356.181251" style="fill: #1b9e77; stroke: #1b9e77"/>
     <use xlink:href="#m019f822169" x="349.240116" y="357.038564" style="fill: #1b9e77; stroke: #1b9e77"/>
     <use xlink:href="#m019f822169" x="351.120043" y="354.609508" style="fill: #1b9e77; stroke: #1b9e77"/>
     <use xlink:href="#m019f822169" x="352.99997" y="355.228679" style="fill: #1b9e77; stroke: #1b9e77"/>
     <use xlink:href="#m019f822169" x="354.879897" y="350.227681" style="fill: #1b9e77; stroke: #1b9e77"/>
     <use xlink:href="#m019f822169" x="356.759825" y="351.466024" style="fill: #1b9e77; stroke: #1b9e77"/>
     <use xlink:href="#m019f822169" x="358.639752" y="350.513452" style="fill: #1b9e77; stroke: #1b9e77"/>
     <use xlink:href="#m019f822169" x="360.519679" y="345.988741" style="fill: #1b9e77; stroke: #1b9e77"/>
     <use xlink:href="#m019f822169" x="362.399606" y="346.083998" style="fill: #1b9e77; stroke: #1b9e77"/>
     <use xlink:href="#m019f822169" x="364.279533" y="340.082799" style="fill: #1b9e77; stroke: #1b9e77"/>
     <use xlink:href="#m019f822169" x="366.159461" y="337.606114" style="fill: #1b9e77; stroke: #1b9e77"/>
     <use xlink:href="#m019f822169" x="368.039388" y="336.939317" style="fill: #1b9e77; stroke: #1b9e77"/>
     <use xlink:href="#m019f822169" x="369.919315" y="330.89049" style="fill: #1b9e77; stroke: #1b9e77"/>
     <use xlink:href="#m019f822169" x="371.799242" y="328.890092" style="fill: #1b9e77; stroke: #1b9e77"/>
     <use xlink:href="#m019f822169" x="373.67917" y="325.175064" style="fill: #1b9e77; stroke: #1b9e77"/>
     <use xlink:href="#m019f822169" x="375.559097" y="329.699776" style="fill: #1b9e77; stroke: #1b9e77"/>
     <use xlink:href="#m019f822169" x="377.439024" y="329.60452" style="fill: #1b9e77; stroke: #1b9e77"/>
     <use xlink:href="#m019f822169" x="379.318951" y="326.984949" style="fill: #1b9e77; stroke: #1b9e77"/>
     <use xlink:href="#m019f822169" x="381.198878" y="318.459438" style="fill: #1b9e77; stroke: #1b9e77"/>
     <use xlink:href="#m019f822169" x="394.320771" y="371.517643" style="fill: #1b9e77; stroke: #1b9e77"/>
     <use xlink:href="#m019f822169" x="396.200698" y="368.136016" style="fill: #1b9e77; stroke: #1b9e77"/>
     <use xlink:href="#m019f822169" x="398.080625" y="366.850045" style="fill: #1b9e77; stroke: #1b9e77"/>
     <use xlink:href="#m019f822169" x="399.960552" y="369.850644" style="fill: #1b9e77; stroke: #1b9e77"/>
     <use xlink:href="#m019f822169" x="401.840479" y="364.182847" style="fill: #1b9e77; stroke: #1b9e77"/>
     <use xlink:href="#m019f822169" x="403.720407" y="364.754389" style="fill: #1b9e77; stroke: #1b9e77"/>
     <use xlink:href="#m019f822169" x="405.600334" y="368.421788" style="fill: #1b9e77; stroke: #1b9e77"/>
     <use xlink:href="#m019f822169" x="407.480261" y="367.897874" style="fill: #1b9e77; stroke: #1b9e77"/>
     <use xlink:href="#m019f822169" x="409.360188" y="362.515847" style="fill: #1b9e77; stroke: #1b9e77"/>
     <use xlink:href="#m019f822169" x="411.240116" y="365.992732" style="fill: #1b9e77; stroke: #1b9e77"/>
     <use xlink:href="#m019f822169" x="413.120043" y="366.516646" style="fill: #1b9e77; stroke: #1b9e77"/>
     <use xlink:href="#m019f822169" x="414.99997" y="364.897275" style="fill: #1b9e77; stroke: #1b9e77"/>
     <use xlink:href="#m019f822169" x="416.879897" y="362.563476" style="fill: #1b9e77; stroke: #1b9e77"/>
     <use xlink:href="#m019f822169" x="418.759825" y="358.229278" style="fill: #1b9e77; stroke: #1b9e77"/>
     <use xlink:href="#m019f822169" x="420.639752" y="363.944704" style="fill: #1b9e77; stroke: #1b9e77"/>
     <use xlink:href="#m019f822169" x="422.519679" y="362.992133" style="fill: #1b9e77; stroke: #1b9e77"/>
     <use xlink:href="#m019f822169" x="424.399606" y="362.372962" style="fill: #1b9e77; stroke: #1b9e77"/>
     <use xlink:href="#m019f822169" x="426.279533" y="361.801419" style="fill: #1b9e77; stroke: #1b9e77"/>
     <use xlink:href="#m019f822169" x="428.159461" y="362.944504" style="fill: #1b9e77; stroke: #1b9e77"/>
     <use xlink:href="#m019f822169" x="441.281353" y="353.651419" style="fill: #1b9e77; stroke: #1b9e77"/>
     <use xlink:href="#m019f822169" x="443.16128" y="365.71958" style="fill: #1b9e77; stroke: #1b9e77"/>
     <use xlink:href="#m019f822169" x="445.041207" y="357.149437" style="fill: #1b9e77; stroke: #1b9e77"/>
     <use xlink:href="#m019f822169" x="446.921134" y="359.598049" style="fill: #1b9e77; stroke: #1b9e77"/>
     <use xlink:href="#m019f822169" x="448.801062" y="341.233457" style="fill: #1b9e77; stroke: #1b9e77"/>
     <use xlink:href="#m019f822169" x="450.680989" y="356.624734" style="fill: #1b9e77; stroke: #1b9e77"/>
     <use xlink:href="#m019f822169" x="452.560916" y="341.233457" style="fill: #1b9e77; stroke: #1b9e77"/>
     <use xlink:href="#m019f822169" x="454.440843" y="341.116857" style="fill: #1b9e77; stroke: #1b9e77"/>
     <use xlink:href="#m019f822169" x="456.320771" y="359.598049" style="fill: #1b9e77; stroke: #1b9e77"/>
     <use xlink:href="#m019f822169" x="458.200698" y="359.83125" style="fill: #1b9e77; stroke: #1b9e77"/>
     <use xlink:href="#m019f822169" x="460.080625" y="344.731475" style="fill: #1b9e77; stroke: #1b9e77"/>
     <use xlink:href="#m019f822169" x="461.960552" y="357.557539" style="fill: #1b9e77; stroke: #1b9e77"/>
     <use xlink:href="#m019f822169" x="463.840479" y="357.965642" style="fill: #1b9e77; stroke: #1b9e77"/>
     <use xlink:href="#m019f822169" x="465.720407" y="297.741441" style="fill: #1b9e77; stroke: #1b9e77"/>
     <use xlink:href="#m019f822169" x="467.600334" y="277.511234" style="fill: #1b9e77; stroke: #1b9e77"/>
     <use xlink:href="#m019f822169" x="469.480261" y="315.931128" style="fill: #1b9e77; stroke: #1b9e77"/>
     <use xlink:href="#m019f822169" x="471.360188" y="262.702962" style="fill: #1b9e77; stroke: #1b9e77"/>
     <use xlink:href="#m019f822169" x="473.240116" y="226.32358" style="fill: #1b9e77; stroke: #1b9e77"/>
     <use xlink:href="#m019f822169" x="475.120043" y="301.356057" style="fill: #1b9e77; stroke: #1b9e77"/>
     <use xlink:href="#m019f822169" x="488.241935" y="357.324338" style="fill: #1b9e77; stroke: #1b9e77"/>
     <use xlink:href="#m019f822169" x="490.121862" y="350.386604" style="fill: #1b9e77; stroke: #1b9e77"/>
     <use xlink:href="#m019f822169" x="492.001789" y="351.027906" style="fill: #1b9e77; stroke: #1b9e77"/>
     <use xlink:href="#m019f822169" x="493.881717" y="341.175156" style="fill: #1b9e77; stroke: #1b9e77"/>
     <use xlink:href="#m019f822169" x="495.761644" y="363.79567" style="fill: #1b9e77; stroke: #1b9e77"/>
     <use xlink:href="#m019f822169" x="497.641571" y="360.647455" style="fill: #1b9e77; stroke: #1b9e77"/>
     <use xlink:href="#m019f822169" x="499.521498" y="351.377708" style="fill: #1b9e77; stroke: #1b9e77"/>
     <use xlink:href="#m019f822169" x="501.401425" y="352.543713" style="fill: #1b9e77; stroke: #1b9e77"/>
     <use xlink:href="#m019f822169" x="503.281353" y="351.027906" style="fill: #1b9e77; stroke: #1b9e77"/>
     <use xlink:href="#m019f822169" x="505.16128" y="357.032836" style="fill: #1b9e77; stroke: #1b9e77"/>
     <use xlink:href="#m019f822169" x="507.041207" y="352.310513" style="fill: #1b9e77; stroke: #1b9e77"/>
     <use xlink:href="#m019f822169" x="508.921134" y="355.575329" style="fill: #1b9e77; stroke: #1b9e77"/>
     <use xlink:href="#m019f822169" x="510.801062" y="349.978501" style="fill: #1b9e77; stroke: #1b9e77"/>
     <use xlink:href="#m019f822169" x="512.680989" y="358.432043" style="fill: #1b9e77; stroke: #1b9e77"/>
     <use xlink:href="#m019f822169" x="514.560916" y="355.225527" style="fill: #1b9e77; stroke: #1b9e77"/>
     <use xlink:href="#m019f822169" x="516.440843" y="356.449834" style="fill: #1b9e77; stroke: #1b9e77"/>
     <use xlink:href="#m019f822169" x="518.320771" y="344.848075" style="fill: #1b9e77; stroke: #1b9e77"/>
     <use xlink:href="#m019f822169" x="520.200698" y="356.857935" style="fill: #1b9e77; stroke: #1b9e77"/>
     <use xlink:href="#m019f822169" x="522.080625" y="359.364849" style="fill: #1b9e77; stroke: #1b9e77"/>
     <use xlink:href="#m019f822169" x="535.202517" y="347.03815" style="fill: #1b9e77; stroke: #1b9e77"/>
     <use xlink:href="#m019f822169" x="537.082444" y="360.205652" style="fill: #1b9e77; stroke: #1b9e77"/>
     <use xlink:href="#m019f822169" x="538.962372" y="353.148251" style="fill: #1b9e77; stroke: #1b9e77"/>
     <use xlink:href="#m019f822169" x="540.842299" y="340.359669" style="fill: #1b9e77; stroke: #1b9e77"/>
     <use xlink:href="#m019f822169" x="542.722226" y="335.528427" style="fill: #1b9e77; stroke: #1b9e77"/>
     <use xlink:href="#m019f822169" x="544.602153" y="345.048815" style="fill: #1b9e77; stroke: #1b9e77"/>
     <use xlink:href="#m019f822169" x="546.48208" y="334.865312" style="fill: #1b9e77; stroke: #1b9e77"/>
     <use xlink:href="#m019f822169" x="548.362008" y="334.865312" style="fill: #1b9e77; stroke: #1b9e77"/>
     <use xlink:href="#m019f822169" x="550.241935" y="339.791287" style="fill: #1b9e77; stroke: #1b9e77"/>
     <use xlink:href="#m019f822169" x="552.121862" y="346.422402" style="fill: #1b9e77; stroke: #1b9e77"/>
     <use xlink:href="#m019f822169" x="554.001789" y="319.234823" style="fill: #1b9e77; stroke: #1b9e77"/>
     <use xlink:href="#m019f822169" x="555.881717" y="357.269014" style="fill: #1b9e77; stroke: #1b9e77"/>
     <use xlink:href="#m019f822169" x="557.761644" y="345.001449" style="fill: #1b9e77; stroke: #1b9e77"/>
     <use xlink:href="#m019f822169" x="559.641571" y="337.801952" style="fill: #1b9e77; stroke: #1b9e77"/>
     <use xlink:href="#m019f822169" x="561.521498" y="310.188087" style="fill: #1b9e77; stroke: #1b9e77"/>
     <use xlink:href="#m019f822169" x="563.401425" y="313.551013" style="fill: #1b9e77; stroke: #1b9e77"/>
     <use xlink:href="#m019f822169" x="565.281353" y="304.220082" style="fill: #1b9e77; stroke: #1b9e77"/>
     <use xlink:href="#m019f822169" x="567.16128" y="326.339591" style="fill: #1b9e77; stroke: #1b9e77"/>
     <use xlink:href="#m019f822169" x="569.041207" y="328.281563" style="fill: #1b9e77; stroke: #1b9e77"/>
     <use xlink:href="#m019f822169" x="570.921134" y="331.218199" style="fill: #1b9e77; stroke: #1b9e77"/>
     <use xlink:href="#m019f822169" x="572.801062" y="319.9453" style="fill: #1b9e77; stroke: #1b9e77"/>
     <use xlink:href="#m019f822169" x="574.680989" y="326.386957" style="fill: #1b9e77; stroke: #1b9e77"/>
     <use xlink:href="#m019f822169" x="576.560916" y="311.182754" style="fill: #1b9e77; stroke: #1b9e77"/>
     <use xlink:href="#m019f822169" x="578.440843" y="322.645111" style="fill: #1b9e77; stroke: #1b9e77"/>
     <use xlink:href="#m019f822169" x="580.320771" y="328.328926" style="fill: #1b9e77; stroke: #1b9e77"/>
     <use xlink:href="#m019f822169" x="582.200698" y="337.896681" style="fill: #1b9e77; stroke: #1b9e77"/>
     <use xlink:href="#m019f822169" x="584.080625" y="319.282189" style="fill: #1b9e77; stroke: #1b9e77"/>
     <use xlink:href="#m019f822169" x="585.960552" y="317.719141" style="fill: #1b9e77; stroke: #1b9e77"/>
     <use xlink:href="#m019f822169" x="587.840479" y="339.791287" style="fill: #1b9e77; stroke: #1b9e77"/>
     <use xlink:href="#m019f822169" x="589.720407" y="313.45628" style="fill: #1b9e77; stroke: #1b9e77"/>
     <use xlink:href="#m019f822169" x="591.600334" y="326.955339" style="fill: #1b9e77; stroke: #1b9e77"/>
     <use xlink:href="#m019f822169" x="593.480261" y="319.992666" style="fill: #1b9e77; stroke: #1b9e77"/>
     <use xlink:href="#m019f822169" x="595.360188" y="315.019329" style="fill: #1b9e77; stroke: #1b9e77"/>
     <use xlink:href="#m019f822169" x="597.240116" y="296.594295" style="fill: #1b9e77; stroke: #1b9e77"/>
     <use xlink:href="#m019f822169" x="599.120043" y="327.097434" style="fill: #1b9e77; stroke: #1b9e77"/>
     <use xlink:href="#m019f822169" x="612.241935" y="365.321085" style="fill: #1b9e77; stroke: #1b9e77"/>
     <use xlink:href="#m019f822169" x="614.121862" y="347.653894" style="fill: #1b9e77; stroke: #1b9e77"/>
     <use xlink:href="#m019f822169" x="616.001789" y="371.28909" style="fill: #1b9e77; stroke: #1b9e77"/>
     <use xlink:href="#m019f822169" x="617.881717" y="346.801322" style="fill: #1b9e77; stroke: #1b9e77"/>
     <use xlink:href="#m019f822169" x="619.761644" y="346.896055" style="fill: #1b9e77; stroke: #1b9e77"/>
     <use xlink:href="#m019f822169" x="621.641571" y="362.621273" style="fill: #1b9e77; stroke: #1b9e77"/>
     <use xlink:href="#m019f822169" x="623.521498" y="343.343671" style="fill: #1b9e77; stroke: #1b9e77"/>
     <use xlink:href="#m019f822169" x="625.401425" y="358.737334" style="fill: #1b9e77; stroke: #1b9e77"/>
     <use xlink:href="#m019f822169" x="627.281353" y="336.996742" style="fill: #1b9e77; stroke: #1b9e77"/>
     <use xlink:href="#m019f822169" x="629.16128" y="350.164248" style="fill: #1b9e77; stroke: #1b9e77"/>
     <use xlink:href="#m019f822169" x="631.041207" y="360.158288" style="fill: #1b9e77; stroke: #1b9e77"/>
     <use xlink:href="#m019f822169" x="632.921134" y="350.779992" style="fill: #1b9e77; stroke: #1b9e77"/>
     <use xlink:href="#m019f822169" x="634.801062" y="330.03407" style="fill: #1b9e77; stroke: #1b9e77"/>
     <use xlink:href="#m019f822169" x="636.680989" y="332.023405" style="fill: #1b9e77; stroke: #1b9e77"/>
     <use xlink:href="#m019f822169" x="638.560916" y="319.471651" style="fill: #1b9e77; stroke: #1b9e77"/>
     <use xlink:href="#m019f822169" x="640.440843" y="313.787833" style="fill: #1b9e77; stroke: #1b9e77"/>
     <use xlink:href="#m019f822169" x="642.320771" y="316.250825" style="fill: #1b9e77; stroke: #1b9e77"/>
     <use xlink:href="#m019f822169" x="644.200698" y="333.870645" style="fill: #1b9e77; stroke: #1b9e77"/>
     <use xlink:href="#m019f822169" x="646.080625" y="323.308226" style="fill: #1b9e77; stroke: #1b9e77"/>
    </g>
   </g>
   <g id="line2d_34">
    <path d="M 60.180625 304.504272 
L 673.980625 304.504272 
" clip-path="url(#p4633950bbe)" style="fill: none; stroke-dasharray: 2.96,1.28; stroke-dashoffset: 0; stroke: #999999; stroke-width: 0.8"/>
   </g>
   <g id="line2d_35">
    <path d="M 60.180625 368.731373 
L 673.980625 368.731373 
" clip-path="url(#p4633950bbe)" style="fill: none; stroke-dasharray: 0.8,1.32; stroke-dashoffset: 0; stroke: #999999; stroke-width: 0.8"/>
   </g>
   <g id="line2d_36">
    <path d="M 86.200698 382.678125 
L 86.200698 218.878125 
" clip-path="url(#p4633950bbe)" style="fill: none; stroke: #bbbbbb; stroke-width: 0.7; stroke-linecap: square"/>
   </g>
   <g id="line2d_37">
    <path d="M 182.039388 382.678125 
L 182.039388 218.878125 
" clip-path="url(#p4633950bbe)" style="fill: none; stroke: #bbbbbb; stroke-width: 0.7; stroke-linecap: square"/>
   </g>
   <g id="line2d_38">
    <path d="M 306.039388 382.678125 
L 306.039388 218.878125 
" clip-path="url(#p4633950bbe)" style="fill: none; stroke: #bbbbbb; stroke-width: 0.7; stroke-linecap: square"/>
   </g>
   <g id="line2d_39">
    <path d="M 430.039388 382.678125 
L 430.039388 218.878125 
" clip-path="url(#p4633950bbe)" style="fill: none; stroke: #bbbbbb; stroke-width: 0.7; stroke-linecap: square"/>
   </g>
   <g id="line2d_40">
    <path d="M 523.960552 382.678125 
L 523.960552 218.878125 
" clip-path="url(#p4633950bbe)" style="fill: none; stroke: #bbbbbb; stroke-width: 0.7; stroke-linecap: square"/>
   </g>
   <g id="patch_8">
    <path d="M 60.180625 382.678125 
L 60.180625 218.878125 
" style="fill: none; stroke: #000000; stroke-width: 0.8; stroke-linejoin: miter; stroke-linecap: square"/>
   </g>
   <g id="patch_9">
    <path d="M 673.980625 382.678125 
L 673.980625 218.878125 
" style="fill: none; stroke: #000000; stroke-width: 0.8; stroke-linejoin: miter; stroke-linecap: square"/>
   </g>
   <g id="patch_10">
    <path d="M 60.180625 382.678125 
L 673.980625 382.678125 
" style="fill: none; stroke: #000000; stroke-width: 0.8; stroke-linejoin: miter; stroke-linecap: square"/>
   </g>
   <g id="patch_11">
    <path d="M 60.180625 218.878125 
L 673.980625 218.878125 
" style="fill: none; stroke: #000000; stroke-width: 0.8; stroke-linejoin: miter; stroke-linecap: square"/>
   </g>
  </g>
 </g>
 <defs>
  <clipPath id="p7122f52c7c">
   <rect x="60.180625" y="22.318125" width="613.8" height="163.8"/>
  </clipPath>
  <clipPath id="p4633950bbe">
   <rect x="60.180625" y="218.878125" width="613.8" height="163.8"/>
  </clipPath>
 </defs>
</svg>
