<?xml version="1.0" encoding="utf-8" standalone="no"?>
<!DOCTYPE svg PUBLIC "-//W3C//DTD SVG 1.1//EN"
  "http://www.w3.org/Graphics/SVG/1.1/DTD/svg11.dtd">
<svg xmlns:xlink="http://www.w3.org/1999/xlink" width="681.180625pt" height="420.234375pt" viewBox="0 0 681.180625 420.234375" xmlns="http://www.w3.org/2000/svg" version="1.1">
 <metadata>
  <rdf:RDF xmlns:dc="http://purl.org/dc/elements/1.1/" xmlns:cc="http://creativecommons.org/ns#" xmlns:rdf="http://www.w3.org/1999/02/22-rdf-syntax-ns#">
   <cc:Work>
    <dc:type rdf:resource="http://purl.org/dc/dcmitype/StillImage"/>
    <dc:date>2026-07-17T00:45:42.477486</dc:date>
    <dc:format>image/svg+xml</dc:format>
    <dc:creator>
     <cc:Agent>
      <dc:title>Matplotlib v3.7.1, https://matplotlib.org/</dc:title>
     </cc:Agent>
    </dc:creator>
   </cc:Work>
  </rdf:RDF>
 </metadata>
 <defs>
  <style type="text/css">*{stroke-linejoin: round; stroke-linecap: butt}</style>
 </defs>
 <g id="figure_1">
  <g id="patch_1">
   <path d="M 0 420.234375 
L 681.180625 420.234375 
L 681.180625 0 
L 0 0 
z
" style="fill: #ffffff"/>
  </g>
  <g id="axes_1">
   <g id="patch_2">
    <path d="M 60.180625 186.118125 
L 673.980625 186.118125 
L 673.980625 22.318125 
L 60.180625 22.318125 
z
" style="fill: #ffffff"/>
   </g>
   <g id="matplotlib.axis_1">
    <g id="xtick_1">
     <g id="line2d_1">
      <defs>
       <path id="m120d5f7abb" d="M 0 0 
L 0 3.5 
" style="stroke: #000000; stroke-width: 0.8"/>
      </defs>
      <g>
       <use xlink:href="#m120d5f7abb" x="86.175017" y="186.118125" style="stroke: #000000; stroke-width: 0.8"/>
      </g>
     </g>
    </g>
    <g id="xtick_2">
     <g id="line2d_2">
      <g>
       <use xlink:href="#m120d5f7abb" x="162.399319" y="186.118125" style="stroke: #000000; stroke-width: 0.8"/>
      </g>
     </g>
    </g>
    <g id="xtick_3">
     <g id="line2d_3">
      <g>
       <use xlink:href="#m120d5f7abb" x="238.623621" y="186.118125" style="stroke: #000000; stroke-width: 0.8"/>
      </g>
     </g>
    </g>
    <g id="xtick_4">
     <g id="line2d_4">
      <g>
       <use xlink:href="#m120d5f7abb" x="314.847922" y="186.118125" style="stroke: #000000; stroke-width: 0.8"/>
      </g>
     </g>
    </g>
    <g id="xtick_5">
     <g id="line2d_5">
      <g>
       <use xlink:href="#m120d5f7abb" x="391.072224" y="186.118125" style="stroke: #000000; stroke-width: 0.8"/>
      </g>
     </g>
    </g>
    <g id="xtick_6">
     <g id="line2d_6">
      <g>
       <use xlink:href="#m120d5f7abb" x="467.296526" y="186.118125" style="stroke: #000000; stroke-width: 0.8"/>
      </g>
     </g>
    </g>
    <g id="xtick_7">
     <g id="line2d_7">
      <g>
       <use xlink:href="#m120d5f7abb" x="543.520827" y="186.118125" style="stroke: #000000; stroke-width: 0.8"/>
      </g>
     </g>
    </g>
    <g id="xtick_8">
     <g id="line2d_8">
      <g>
       <use xlink:href="#m120d5f7abb" x="619.745129" y="186.118125" style="stroke: #000000; stroke-width: 0.8"/>
      </g>
     </g>
    </g>
   </g>
   <g id="matplotlib.axis_2">
    <g id="ytick_1">
     <g id="line2d_9">
      <defs>
       <path id="m01827e2824" d="M 0 0 
L -3.5 0 
" style="stroke: #000000; stroke-width: 0.8"/>
      </defs>
      <g>
       <use xlink:href="#m01827e2824" x="60.180625" y="177.226951" style="stroke: #000000; stroke-width: 0.8"/>
      </g>
     </g>
     <g id="text_1">
      <!-- −20 -->
      <g transform="translate(32.075937 181.02617) scale(0.1 -0.1)">
       <defs>
        <path id="DejaVuSans-2212" d="M 678 2272 
L 4684 2272 
L 4684 1741 
L 678 1741 
L 678 2272 
z
" transform="scale(0.015625)"/>
        <path id="DejaVuSans-32" d="M 1228 531 
L 3431 531 
L 3431 0 
L 469 0 
L 469 531 
Q 828 903 1448 1529 
Q 2069 2156 2228 2338 
Q 2531 2678 2651 2914 
Q 2772 3150 2772 3378 
Q 2772 3750 2511 3984 
Q 2250 4219 1831 4219 
Q 1534 4219 1204 4116 
Q 875 4013 500 3803 
L 500 4441 
Q 881 4594 1212 4672 
Q 1544 4750 1819 4750 
Q 2544 4750 2975 4387 
Q 3406 4025 3406 3419 
Q 3406 3131 3298 2873 
Q 3191 2616 2906 2266 
Q 2828 2175 2409 1742 
Q 1991 1309 1228 531 
z
" transform="scale(0.015625)"/>
        <path id="DejaVuSans-30" d="M 2034 4250 
Q 1547 4250 1301 3770 
Q 1056 3291 1056 2328 
Q 1056 1369 1301 889 
Q 1547 409 2034 409 
Q 2525 409 2770 889 
Q 3016 1369 3016 2328 
Q 3016 3291 2770 3770 
Q 2525 4250 2034 4250 
z
M 2034 4750 
Q 2819 4750 3233 4129 
Q 3647 3509 3647 2328 
Q 3647 1150 3233 529 
Q 2819 -91 2034 -91 
Q 1250 -91 836 529 
Q 422 1150 422 2328 
Q 422 3509 836 4129 
Q 1250 4750 2034 4750 
z
" transform="scale(0.015625)"/>
       </defs>
       <use xlink:href="#DejaVuSans-2212"/>
       <use xlink:href="#DejaVuSans-32" x="83.789062"/>
       <use xlink:href="#DejaVuSans-30" x="147.412109"/>
      </g>
     </g>
    </g>
    <g id="ytick_2">
     <g id="line2d_10">
      <g>
       <use xlink:href="#m01827e2824" x="60.180625" y="148.312565" style="stroke: #000000; stroke-width: 0.8"/>
      </g>
     </g>
     <g id="text_2">
      <!-- 0 -->
      <g transform="translate(46.818125 152.111783) scale(0.1 -0.1)">
       <use xlink:href="#DejaVuSans-30"/>
      </g>
     </g>
    </g>
    <g id="ytick_3">
     <g id="line2d_11">
      <g>
       <use xlink:href="#m01827e2824" x="60.180625" y="119.398178" style="stroke: #000000; stroke-width: 0.8"/>
      </g>
     </g>
     <g id="text_3">
      <!-- 20 -->
      <g transform="translate(40.455625 123.197397) scale(0.1 -0.1)">
       <use xlink:href="#DejaVuSans-32"/>
       <use xlink:href="#DejaVuSans-30" x="63.623047"/>
      </g>
     </g>
    </g>
    <g id="ytick_4">
     <g id="line2d_12">
      <g>
       <use xlink:href="#m01827e2824" x="60.180625" y="90.483791" style="stroke: #000000; stroke-width: 0.8"/>
      </g>
     </g>
     <g id="text_4">
      <!-- 40 -->
      <g transform="translate(40.455625 94.28301) scale(0.1 -0.1)">
       <defs>
        <path id="DejaVuSans-34" d="M 2419 4116 
L 825 1625 
L 2419 1625 
L 2419 4116 
z
M 2253 4666 
L 3047 4666 
L 3047 1625 
L 3713 1625 
L 3713 1100 
L 3047 1100 
L 3047 0 
L 2419 0 
L 2419 1100 
L 313 1100 
L 313 1709 
L 2253 4666 
z
" transform="scale(0.015625)"/>
       </defs>
       <use xlink:href="#DejaVuSans-34"/>
       <use xlink:href="#DejaVuSans-30" x="63.623047"/>
      </g>
     </g>
    </g>
    <g id="ytick_5">
     <g id="line2d_13">
      <g>
       <use xlink:href="#m01827e2824" x="60.180625" y="61.569405" style="stroke: #000000; stroke-width: 0.8"/>
      </g>
     </g>
     <g id="text_5">
      <!-- 60 -->
      <g transform="translate(40.455625 65.368624) scale(0.1 -0.1)">
       <defs>
        <path id="DejaVuSans-36" d="M 2113 2584 
Q 1688 2584 1439 2293 
Q 1191 2003 1191 1497 
Q 1191 994 1439 701 
Q 1688 409 2113 409 
Q 2538 409 2786 701 
Q 3034 994 3034 1497 
Q 3034 2003 2786 2293 
Q 2538 2584 2113 2584 
z
M 3366 4563 
L 3366 3988 
Q 3128 4100 2886 4159 
Q 2644 4219 2406 4219 
Q 1781 4219 1451 3797 
Q 1122 3375 1075 2522 
Q 1259 2794 1537 2939 
Q 1816 3084 2150 3084 
Q 2853 3084 3261 2657 
Q 3669 2231 3669 1497 
Q 3669 778 3244 343 
Q 2819 -91 2113 -91 
Q 1303 -91 875 529 
Q 447 1150 447 2328 
Q 447 3434 972 4092 
Q 1497 4750 2381 4750 
Q 2619 4750 2861 4703 
Q 3103 4656 3366 4563 
z
" transform="scale(0.015625)"/>
       </defs>
       <use xlink:href="#DejaVuSans-36"/>
       <use xlink:href="#DejaVuSans-30" x="63.623047"/>
      </g>
     </g>
    </g>
    <g id="ytick_6">
     <g id="line2d_14">
      <g>
       <use xlink:href="#m01827e2824" x="60.180625" y="32.655018" style="stroke: #000000; stroke-width: 0.8"/>
      </g>
     </g>
     <g id="text_6">
      <!-- 80 -->
      <g transform="translate(40.455625 36.454237) scale(0.1 -0.1)">
       <defs>
        <path id="DejaVuSans-38" d="M 2034 2216 
Q 1584 2216 1326 1975 
Q 1069 1734 1069 1313 
Q 1069 891 1326 650 
Q 1584 409 2034 409 
Q 2484 409 2743 651 
Q 3003 894 3003 1313 
Q 3003 1734 2745 1975 
Q 2488 2216 2034 2216 
z
M 1403 2484 
Q 997 2584 770 2862 
Q 544 3141 544 3541 
Q 544 4100 942 4425 
Q 1341 4750 2034 4750 
Q 2731 4750 3128 4425 
Q 3525 4100 3525 3541 
Q 3525 3141 3298 2862 
Q 3072 2584 2669 2484 
Q 3125 2378 3379 2068 
Q 3634 1759 3634 1313 
Q 3634 634 3220 271 
Q 2806 -91 2034 -91 
Q 1263 -91 848 271 
Q 434 634 434 1313 
Q 434 1759 690 2068 
Q 947 2378 1403 2484 
z
M 1172 3481 
Q 1172 3119 1398 2916 
Q 1625 2713 2034 2713 
Q 2441 2713 2670 2916 
Q 2900 3119 2900 3481 
Q 2900 3844 2670 4047 
Q 2441 4250 2034 4250 
Q 1625 4250 1398 4047 
Q 1172 3844 1172 3481 
z
" transform="scale(0.015625)"/>
       </defs>
       <use xlink:href="#DejaVuSans-38"/>
       <use xlink:href="#DejaVuSans-30" x="63.623047"/>
      </g>
     </g>
    </g>
    <g id="text_7">
     <!-- clipped episode -->
     <g transform="translate(14.798437 143.488437) rotate(-90) scale(0.1 -0.1)">
      <defs>
       <path id="DejaVuSans-63" d="M 3122 3366 
L 3122 2828 
Q 2878 2963 2633 3030 
Q 2388 3097 2138 3097 
Q 1578 3097 1268 2742 
Q 959 2388 959 1747 
Q 959 1106 1268 751 
Q 1578 397 2138 397 
Q 2388 397 2633 464 
Q 2878 531 3122 666 
L 3122 134 
Q 2881 22 2623 -34 
Q 2366 -91 2075 -91 
Q 1284 -91 818 406 
Q 353 903 353 1747 
Q 353 2603 823 3093 
Q 1294 3584 2113 3584 
Q 2378 3584 2631 3529 
Q 2884 3475 3122 3366 
z
" transform="scale(0.015625)"/>
       <path id="DejaVuSans-6c" d="M 603 4863 
L 1178 4863 
L 1178 0 
L 603 0 
L 603 4863 
z
" transform="scale(0.015625)"/>
       <path id="DejaVuSans-69" d="M 603 3500 
L 1178 3500 
L 1178 0 
L 603 0 
L 603 3500 
z
M 603 4863 
L 1178 4863 
L 1178 4134 
L 603 4134 
L 603 4863 
z
" transform="scale(0.015625)"/>
       <path id="DejaVuSans-70" d="M 1159 525 
L 1159 -1331 
L 581 -1331 
L 581 3500 
L 1159 3500 
L 1159 2969 
Q 1341 3281 1617 3432 
Q 1894 3584 2278 3584 
Q 2916 3584 3314 3078 
Q 3713 2572 3713 1747 
Q 3713 922 3314 415 
Q 2916 -91 2278 -91 
Q 1894 -91 1617 61 
Q 1341 213 1159 525 
z
M 3116 1747 
Q 3116 2381 2855 2742 
Q 2594 3103 2138 3103 
Q 1681 3103 1420 2742 
Q 1159 2381 1159 1747 
Q 1159 1113 1420 752 
Q 1681 391 2138 391 
Q 2594 391 2855 752 
Q 3116 1113 3116 1747 
z
" transform="scale(0.015625)"/>
       <path id="DejaVuSans-65" d="M 3597 1894 
L 3597 1613 
L 953 1613 
Q 991 1019 1311 708 
Q 1631 397 2203 397 
Q 2534 397 2845 478 
Q 3156 559 3463 722 
L 3463 178 
Q 3153 47 2828 -22 
Q 2503 -91 2169 -91 
Q 1331 -91 842 396 
Q 353 884 353 1716 
Q 353 2575 817 3079 
Q 1281 3584 2069 3584 
Q 2775 3584 3186 3129 
Q 3597 2675 3597 1894 
z
M 3022 2063 
Q 3016 2534 2758 2815 
Q 2500 3097 2075 3097 
Q 1594 3097 1305 2825 
Q 1016 2553 972 2059 
L 3022 2063 
z
" transform="scale(0.015625)"/>
       <path id="DejaVuSans-64" d="M 2906 2969 
L 2906 4863 
L 3481 4863 
L 3481 0 
L 2906 0 
L 2906 525 
Q 2725 213 2448 61 
Q 2172 -91 1784 -91 
Q 1150 -91 751 415 
Q 353 922 353 1747 
Q 353 2572 751 3078 
Q 1150 3584 1784 3584 
Q 2172 3584 2448 3432 
Q 2725 3281 2906 2969 
z
M 947 1747 
Q 947 1113 1208 752 
Q 1469 391 1925 391 
Q 2381 391 2643 752 
Q 2906 1113 2906 1747 
Q 2906 2381 2643 2742 
Q 2381 3103 1925 3103 
Q 1469 3103 1208 2742 
Q 947 2381 947 1747 
z
" transform="scale(0.015625)"/>
       <path id="DejaVuSans-20" transform="scale(0.015625)"/>
       <path id="DejaVuSans-73" d="M 2834 3397 
L 2834 2853 
Q 2591 2978 2328 3040 
Q 2066 3103 1784 3103 
Q 1356 3103 1142 2972 
Q 928 2841 928 2578 
Q 928 2378 1081 2264 
Q 1234 2150 1697 2047 
L 1894 2003 
Q 2506 1872 2764 1633 
Q 3022 1394 3022 966 
Q 3022 478 2636 193 
Q 2250 -91 1575 -91 
Q 1294 -91 989 -36 
Q 684 19 347 128 
L 347 722 
Q 666 556 975 473 
Q 1284 391 1588 391 
Q 1994 391 2212 530 
Q 2431 669 2431 922 
Q 2431 1156 2273 1281 
Q 2116 1406 1581 1522 
L 1381 1569 
Q 847 1681 609 1914 
Q 372 2147 372 2553 
Q 372 3047 722 3315 
Q 1072 3584 1716 3584 
Q 2034 3584 2315 3537 
Q 2597 3491 2834 3397 
z
" transform="scale(0.015625)"/>
       <path id="DejaVuSans-6f" d="M 1959 3097 
Q 1497 3097 1228 2736 
Q 959 2375 959 1747 
Q 959 1119 1226 758 
Q 1494 397 1959 397 
Q 2419 397 2687 759 
Q 2956 1122 2956 1747 
Q 2956 2369 2687 2733 
Q 2419 3097 1959 3097 
z
M 1959 3584 
Q 2709 3584 3137 3096 
Q 3566 2609 3566 1747 
Q 3566 888 3137 398 
Q 2709 -91 1959 -91 
Q 1206 -91 779 398 
Q 353 888 353 1747 
Q 353 2609 779 3096 
Q 1206 3584 1959 3584 
z
" transform="scale(0.015625)"/>
      </defs>
      <use xlink:href="#DejaVuSans-63"/>
      <use xlink:href="#DejaVuSans-6c" x="54.980469"/>
      <use xlink:href="#DejaVuSans-69" x="82.763672"/>
      <use xlink:href="#DejaVuSans-70" x="110.546875"/>
      <use xlink:href="#DejaVuSans-70" x="174.023438"/>
      <use xlink:href="#DejaVuSans-65" x="237.5"/>
      <use xlink:href="#DejaVuSans-64" x="299.023438"/>
      <use xlink:href="#DejaVuSans-20" x="362.5"/>
      <use xlink:href="#DejaVuSans-65" x="394.287109"/>
      <use xlink:href="#DejaVuSans-70" x="455.810547"/>
      <use xlink:href="#DejaVuSans-69" x="519.287109"/>
      <use xlink:href="#DejaVuSans-73" x="547.070312"/>
      <use xlink:href="#DejaVuSans-6f" x="599.169922"/>
      <use xlink:href="#DejaVuSans-64" x="660.351562"/>
      <use xlink:href="#DejaVuSans-65" x="723.828125"/>
     </g>
     <!-- return (per iter) -->
     <g transform="translate(25.99625 143.370469) rotate(-90) scale(0.1 -0.1)">
      <defs>
       <path id="DejaVuSans-72" d="M 2631 2963 
Q 2534 3019 2420 3045 
Q 2306 3072 2169 3072 
Q 1681 3072 1420 2755 
Q 1159 2438 1159 1844 
L 1159 0 
L 581 0 
L 581 3500 
L 1159 3500 
L 1159 2956 
Q 1341 3275 1631 3429 
Q 1922 3584 2338 3584 
Q 2397 3584 2469 3576 
Q 2541 3569 2628 3553 
L 2631 2963 
z
" transform="scale(0.015625)"/>
       <path id="DejaVuSans-74" d="M 1172 4494 
L 1172 3500 
L 2356 3500 
L 2356 3053 
L 1172 3053 
L 1172 1153 
Q 1172 725 1289 603 
Q 1406 481 1766 481 
L 2356 481 
L 2356 0 
L 1766 0 
Q 1100 0 847 248 
Q 594 497 594 1153 
L 594 3053 
L 172 3053 
L 172 3500 
L 594 3500 
L 594 4494 
L 1172 4494 
z
" transform="scale(0.015625)"/>
       <path id="DejaVuSans-75" d="M 544 1381 
L 544 3500 
L 1119 3500 
L 1119 1403 
Q 1119 906 1312 657 
Q 1506 409 1894 409 
Q 2359 409 2629 706 
Q 2900 1003 2900 1516 
L 2900 3500 
L 3475 3500 
L 3475 0 
L 2900 0 
L 2900 538 
Q 2691 219 2414 64 
Q 2138 -91 1772 -91 
Q 1169 -91 856 284 
Q 544 659 544 1381 
z
M 1991 3584 
L 1991 3584 
z
" transform="scale(0.015625)"/>
       <path id="DejaVuSans-6e" d="M 3513 2113 
L 3513 0 
L 2938 0 
L 2938 2094 
Q 2938 2591 2744 2837 
Q 2550 3084 2163 3084 
Q 1697 3084 1428 2787 
Q 1159 2491 1159 1978 
L 1159 0 
L 581 0 
L 581 3500 
L 1159 3500 
L 1159 2956 
Q 1366 3272 1645 3428 
Q 1925 3584 2291 3584 
Q 2894 3584 3203 3211 
Q 3513 2838 3513 2113 
z
" transform="scale(0.015625)"/>
       <path id="DejaVuSans-28" d="M 1984 4856 
Q 1566 4138 1362 3434 
Q 1159 2731 1159 2009 
Q 1159 1288 1364 580 
Q 1569 -128 1984 -844 
L 1484 -844 
Q 1016 -109 783 600 
Q 550 1309 550 2009 
Q 550 2706 781 3412 
Q 1013 4119 1484 4856 
L 1984 4856 
z
" transform="scale(0.015625)"/>
       <path id="DejaVuSans-29" d="M 513 4856 
L 1013 4856 
Q 1481 4119 1714 3412 
Q 1947 2706 1947 2009 
Q 1947 1309 1714 600 
Q 1481 -109 1013 -844 
L 513 -844 
Q 928 -128 1133 580 
Q 1338 1288 1338 2009 
Q 1338 2731 1133 3434 
Q 928 4138 513 4856 
z
" transform="scale(0.015625)"/>
      </defs>
      <use xlink:href="#DejaVuSans-72"/>
      <use xlink:href="#DejaVuSans-65" x="38.863281"/>
      <use xlink:href="#DejaVuSans-74" x="100.386719"/>
      <use xlink:href="#DejaVuSans-75" x="139.595703"/>
      <use xlink:href="#DejaVuSans-72" x="202.974609"/>
      <use xlink:href="#DejaVuSans-6e" x="242.337891"/>
      <use xlink:href="#DejaVuSans-20" x="305.716797"/>
      <use xlink:href="#DejaVuSans-28" x="337.503906"/>
      <use xlink:href="#DejaVuSans-70" x="376.517578"/>
      <use xlink:href="#DejaVuSans-65" x="439.994141"/>
      <use xlink:href="#DejaVuSans-72" x="501.517578"/>
      <use xlink:href="#DejaVuSans-20" x="542.630859"/>
      <use xlink:href="#DejaVuSans-69" x="574.417969"/>
      <use xlink:href="#DejaVuSans-74" x="602.201172"/>
      <use xlink:href="#DejaVuSans-65" x="641.410156"/>
      <use xlink:href="#DejaVuSans-72" x="702.933594"/>
      <use xlink:href="#DejaVuSans-29" x="744.046875"/>
     </g>
    </g>
   </g>
   <g id="line2d_15">
    <path d="M 89.986233 178.190764 
L 90.939036 178.67267 
L 91.89184 177.949811 
L 92.844644 172.889793 
L 93.797448 177.805239 
L 94.750251 178.67267 
M 96.655859 178.67267 
L 97.608663 177.226951 
L 98.561466 175.058372 
L 99.51427 177.226951 
L 100.467074 178.67267 
L 101.381766 178.67267 
M 103.325485 171.444074 
L 104.278289 178.67267 
L 106.183897 178.67267 
L 107.098588 175.781232 
L 107.1367 178.67267 
L 108.089504 176.263138 
L 109.004196 178.67267 
L 109.042308 177.226951 
L 110.909803 171.444074 
M 114.721018 172.889793 
L 114.759131 174.335512 
L 115.711934 175.781232 
M 121.428757 172.889793 
L 122.343449 167.106916 
M 123.334364 167.829775 
L 124.249056 171.444074 
M 132.862402 149.758284 
L 133.777094 148.312565 
L 133.815206 146.866845 
M 143.343244 133.132512 
L 144.296047 128.5544 
M 145.248851 119.398178 
L 146.201655 122.289617 
M 152.871281 123.735336 
L 153.824085 133.855371 
M 168.07803 120.843897 
L 169.983637 148.312565 
L 170.936441 146.384939 
L 171.889245 142.047781 
L 172.842048 146.143986 
L 173.794852 141.083968 
L 174.747656 144.698266 
L 175.70046 138.915389 
L 176.653263 142.818831 
L 177.606067 138.915389 
L 178.558871 141.083968 
L 179.511675 137.46967 
L 180.464479 140.216536 
L 181.37917 138.553959 
L 181.417282 136.74681 
L 182.370086 138.674436 
L 183.284778 136.74681 
M 184.275694 134.819184 
L 185.190385 135.879378 
L 185.228497 126.626775 
L 186.181301 128.072494 
L 187.095993 136.264903 
M 188.086909 127.349634 
L 189.0016 136.74681 
L 189.039712 135.301091 
L 189.992516 133.855371 
L 190.907208 130.963933 
L 190.94532 130.241073 
M 192.812815 132.771082 
L 192.850928 136.264903 
L 193.803731 136.02395 
L 194.718423 123.012476 
L 194.756535 129.518213 
M 196.624031 136.264903 
L 196.662143 129.518213 
L 197.614946 130.963933 
L 198.529638 131.445839 
M 199.520554 128.795354 
L 200.435246 123.735336 
M 201.426162 132.409652 
L 202.340853 128.072494 
L 202.378965 130.963933 
L 203.331769 129.518213 
L 204.246461 123.012476 
L 204.284573 138.192529 
M 206.152068 123.735336 
L 206.19018 129.518213 
L 207.142984 135.301091 
L 208.057676 129.518213 
L 208.095788 125.181055 
L 209.048592 133.132512 
L 209.963283 131.686792 
L 210.001395 130.963933 
L 210.954199 128.072494 
L 211.868891 126.144868 
L 211.907003 127.108681 
M 213.774498 122.289617 
L 213.812611 130.963933 
L 214.765414 126.626775 
L 215.680106 128.795354 
L 215.718218 125.181055 
M 217.623826 116.506739 
L 218.576629 120.121038 
L 219.491321 124.217242 
M 220.482237 120.361991 
L 221.396929 121.80771 
M 222.387844 117.952459 
L 223.302536 122.289617 
L 223.340648 113.615301 
L 224.293452 122.289617 
L 225.208144 131.686792 
L 225.246256 128.795354 
L 226.19906 117.952459 
L 227.113751 126.626775 
M 228.104667 116.506739 
L 229.019359 115.06102 
L 229.057471 117.229599 
M 230.924966 128.072494 
L 230.963078 116.506739 
L 231.915882 128.072494 
L 232.830574 121.205327 
L 232.868686 125.181055 
L 233.82149 110.723862 
L 234.736181 123.735336 
L 234.774293 132.409652 
L 235.727097 128.072494 
L 236.641789 120.843897 
L 236.679901 119.036748 
L 237.632705 123.735336 
L 238.585509 117.229599 
M 240.453004 123.735336 
L 240.491116 120.843897 
L 241.44392 116.506739 
L 242.358611 126.626775 
M 347.090802 74.580879 
L 347.128914 64.94275 
M 356.656952 53.858902 
L 357.609756 32.655018 
M 362.335662 78.918037 
L 362.373774 54.340808 
L 363.326578 44.220773 
M 369.043401 31.209299 
L 369.958092 38.437896 
M 370.949008 31.209299 
L 371.8637 29.76358 
M 422.324188 128.072494 
L 424.229795 135.301091 
L 425.182599 133.566227 
L 426.135403 129.518213 
L 427.088206 129.518213 
L 428.04101 132.409652 
L 428.993814 124.699149 
L 429.946618 135.301091 
L 430.899422 124.217242 
L 431.852225 127.349634 
L 432.766917 126.144868 
L 432.805029 128.072494 
L 433.757833 125.181055 
L 434.672524 127.108681 
L 434.710637 124.458196 
L 435.66344 129.518213 
L 436.578132 123.735336 
M 437.569048 128.072494 
L 438.48374 122.289617 
L 438.521852 125.181055 
L 439.474655 128.072494 
L 440.389347 132.409652 
L 440.427459 125.903915 
L 441.380263 127.205062 
L 442.294955 125.181055 
L 442.333067 123.735336 
L 443.285871 123.735336 
L 444.200562 121.566757 
L 444.238674 122.289617 
L 445.191478 124.217242 
L 446.10617 123.735336 
L 446.144282 126.988204 
L 447.097086 122.771523 
L 448.011777 120.843897 
L 448.049889 123.373906 
L 449.002693 121.325804 
M 449.955497 120.843897 
L 450.908301 117.229599 
L 451.822992 120.482467 
L 451.861104 119.398178 
L 452.813908 119.398178 
L 453.7286 102.772406 
L 453.766712 120.121038 
L 454.719516 115.06102 
L 455.634207 118.675318 
L 455.67232 122.289617 
L 456.625123 122.289617 
L 457.539815 117.229599 
L 457.577927 118.675318 
L 458.530731 120.843897 
L 459.445422 91.206651 
L 459.483535 122.289617 
L 460.436338 90.483791 
L 461.35103 104.579555 
L 461.389142 122.289617 
M 463.256638 100.12192 
L 463.29475 120.843897 
L 464.247553 116.506739 
L 465.200357 117.952459 
L 466.153161 120.843897 
L 467.067853 116.506739 
L 467.105965 118.675318 
L 468.058769 117.952459 
L 468.97346 116.506739 
L 469.011572 117.952459 
L 470.879068 116.024833 
L 470.91718 120.843897 
L 471.869984 116.506739 
L 472.784675 116.506739 
M 523.245163 135.301091 
L 524.197967 136.74681 
L 525.15077 134.819184 
L 526.103574 139.638249 
L 527.056378 117.952459 
L 528.009182 138.192529 
L 528.961986 115.78388 
L 529.914789 110.723862 
L 530.867593 112.892441 
L 531.820397 130.602503 
M 533.726004 138.192529 
L 534.678808 125.181055 
L 535.5935 125.181055 
L 535.631612 115.06102 
L 536.584416 116.506739 
L 537.499107 118.241602 
L 537.537219 104.940985 
L 538.490023 117.952459 
L 539.404715 116.506739 
L 539.442827 118.675318 
L 540.395631 107.832423 
L 541.310322 118.916272 
L 541.348435 123.735336 
L 542.301238 129.879643 
L 543.21593 121.325804 
M 544.206846 120.843897 
L 545.121538 97.712388 
L 545.15965 116.506739 
L 546.112453 115.06102 
L 547.027145 102.049546 
L 547.065257 111.446722 
L 548.018061 120.121038 
L 548.932753 106.386704 
L 548.970865 109.278143 
L 549.923669 106.386704 
L 550.83836 123.012476 
M 552.743968 104.940985 
L 552.78208 113.133394 
L 553.734884 115.06102 
L 554.649575 112.169581 
M 555.640491 120.843897 
L 556.555183 109.278143 
L 556.593295 119.398178 
L 557.546099 111.446722 
M 558.498902 122.289617 
L 559.451706 108.555283 
M 560.40451 117.952459 
L 561.357314 130.963933 
M 562.310118 125.181055 
L 563.262921 109.278143 
L 564.177613 103.495265 
L 564.215725 117.952459 
L 565.168529 112.651488 
L 566.08322 115.06102 
L 566.121333 115.78388 
M 568.02694 122.289617 
L 568.979744 114.33816 
L 569.894436 125.181055 
L 569.932548 102.049546 
L 570.885351 102.049546 
L 571.800043 115.06102 
L 571.838155 117.591029 
L 572.790959 110.241956 
M 573.743763 120.361991 
L 575.611258 104.940985 
L 575.64937 111.446722 
L 576.602174 109.278143 
L 577.516866 102.049546 
L 577.554978 115.78388 
L 578.507782 111.205768 
L 579.422473 115.06102 
L 579.460585 109.278143 
L 580.413389 119.398178 
L 581.328081 113.615301 
L 581.366193 112.169581 
L 582.318997 104.218125 
L 583.2718 112.169581 
L 584.224604 110.001002 
L 585.139296 104.940985 
L 585.177408 107.109564 
M 587.044903 122.289617 
L 587.083016 129.518213 
L 588.035819 112.169581 
L 588.950511 110.723862 
L 588.988623 117.952459 
L 589.941427 103.495265 
L 590.894231 119.398178 
L 591.847034 97.712388 
M 592.799838 100.603827 
L 593.752642 112.651488 
L 594.667334 102.049546 
L 594.705446 119.398178 
M 596.611053 106.386704 
L 597.563857 109.278143 
L 598.478549 106.386704 
L 598.478549 106.386704 
" clip-path="url(#p05ffb2166c)" style="fill: none; stroke: #555555; stroke-linecap: square"/>
   </g>
   <g id="line2d_16">
    <path d="M 86.175017 186.118125 
L 86.175017 22.318125 
" clip-path="url(#p05ffb2166c)" style="fill: none; stroke: #bbbbbb; stroke-width: 0.7; stroke-linecap: square"/>
   </g>
   <g id="line2d_17">
    <path d="M 169.983637 186.118125 
L 169.983637 22.318125 
" clip-path="url(#p05ffb2166c)" style="fill: none; stroke: #bbbbbb; stroke-width: 0.7; stroke-linecap: square"/>
   </g>
   <g id="line2d_18">
    <path d="M 295.67751 186.118125 
L 295.67751 22.318125 
" clip-path="url(#p05ffb2166c)" style="fill: none; stroke: #bbbbbb; stroke-width: 0.7; stroke-linecap: square"/>
   </g>
   <g id="line2d_19">
    <path d="M 421.371384 186.118125 
L 421.371384 22.318125 
" clip-path="url(#p05ffb2166c)" style="fill: none; stroke: #bbbbbb; stroke-width: 0.7; stroke-linecap: square"/>
   </g>
   <g id="line2d_20">
    <path d="M 522.292359 186.118125 
L 522.292359 22.318125 
" clip-path="url(#p05ffb2166c)" style="fill: none; stroke: #bbbbbb; stroke-width: 0.7; stroke-linecap: square"/>
   </g>
   <g id="patch_3">
    <path d="M 60.180625 186.118125 
L 60.180625 22.318125 
" style="fill: none; stroke: #000000; stroke-width: 0.8; stroke-linejoin: miter; stroke-linecap: square"/>
   </g>
   <g id="patch_4">
    <path d="M 673.980625 186.118125 
L 673.980625 22.318125 
" style="fill: none; stroke: #000000; stroke-width: 0.8; stroke-linejoin: miter; stroke-linecap: square"/>
   </g>
   <g id="patch_5">
    <path d="M 60.180625 186.118125 
L 673.980625 186.118125 
" style="fill: none; stroke: #000000; stroke-width: 0.8; stroke-linejoin: miter; stroke-linecap: square"/>
   </g>
   <g id="patch_6">
    <path d="M 60.180625 22.318125 
L 673.980625 22.318125 
" style="fill: none; stroke: #000000; stroke-width: 0.8; stroke-linejoin: miter; stroke-linecap: square"/>
   </g>
   <g id="text_8">
    <!--  T1:Pong -->
    <g style="fill: #333333" transform="translate(91.493924 52.760469) rotate(-90) scale(0.07 -0.07)">
     <defs>
      <path id="DejaVuSans-54" d="M -19 4666 
L 3928 4666 
L 3928 4134 
L 2272 4134 
L 2272 0 
L 1638 0 
L 1638 4134 
L -19 4134 
L -19 4666 
z
" transform="scale(0.015625)"/>
      <path id="DejaVuSans-31" d="M 794 531 
L 1825 531 
L 1825 4091 
L 703 3866 
L 703 4441 
L 1819 4666 
L 2450 4666 
L 2450 531 
L 3481 531 
L 3481 0 
L 794 0 
L 794 531 
z
" transform="scale(0.015625)"/>
      <path id="DejaVuSans-3a" d="M 750 794 
L 1409 794 
L 1409 0 
L 750 0 
L 750 794 
z
M 750 3309 
L 1409 3309 
L 1409 2516 
L 750 2516 
L 750 3309 
z
" transform="scale(0.015625)"/>
      <path id="DejaVuSans-50" d="M 1259 4147 
L 1259 2394 
L 2053 2394 
Q 2494 2394 2734 2622 
Q 2975 2850 2975 3272 
Q 2975 3691 2734 3919 
Q 2494 4147 2053 4147 
L 1259 4147 
z
M 628 4666 
L 2053 4666 
Q 2838 4666 3239 4311 
Q 3641 3956 3641 3272 
Q 3641 2581 3239 2228 
Q 2838 1875 2053 1875 
L 1259 1875 
L 1259 0 
L 628 0 
L 628 4666 
z
" transform="scale(0.015625)"/>
      <path id="DejaVuSans-67" d="M 2906 1791 
Q 2906 2416 2648 2759 
Q 2391 3103 1925 3103 
Q 1463 3103 1205 2759 
Q 947 2416 947 1791 
Q 947 1169 1205 825 
Q 1463 481 1925 481 
Q 2391 481 2648 825 
Q 2906 1169 2906 1791 
z
M 3481 434 
Q 3481 -459 3084 -895 
Q 2688 -1331 1869 -1331 
Q 1566 -1331 1297 -1286 
Q 1028 -1241 775 -1147 
L 775 -588 
Q 1028 -725 1275 -790 
Q 1522 -856 1778 -856 
Q 2344 -856 2625 -561 
Q 2906 -266 2906 331 
L 2906 616 
Q 2728 306 2450 153 
Q 2172 0 1784 0 
Q 1141 0 747 490 
Q 353 981 353 1791 
Q 353 2603 747 3093 
Q 1141 3584 1784 3584 
Q 2172 3584 2450 3431 
Q 2728 3278 2906 2969 
L 2906 3500 
L 3481 3500 
L 3481 434 
z
" transform="scale(0.015625)"/>
     </defs>
     <use xlink:href="#DejaVuSans-20"/>
     <use xlink:href="#DejaVuSans-54" x="31.787109"/>
     <use xlink:href="#DejaVuSans-31" x="92.871094"/>
     <use xlink:href="#DejaVuSans-3a" x="156.494141"/>
     <use xlink:href="#DejaVuSans-50" x="190.185547"/>
     <use xlink:href="#DejaVuSans-6f" x="246.863281"/>
     <use xlink:href="#DejaVuSans-6e" x="308.044922"/>
     <use xlink:href="#DejaVuSans-67" x="371.423828"/>
    </g>
   </g>
   <g id="text_9">
    <!--  T2:Breakout -->
    <g style="fill: #333333" transform="translate(175.302543 67.013125) rotate(-90) scale(0.07 -0.07)">
     <defs>
      <path id="DejaVuSans-42" d="M 1259 2228 
L 1259 519 
L 2272 519 
Q 2781 519 3026 730 
Q 3272 941 3272 1375 
Q 3272 1813 3026 2020 
Q 2781 2228 2272 2228 
L 1259 2228 
z
M 1259 4147 
L 1259 2741 
L 2194 2741 
Q 2656 2741 2882 2914 
Q 3109 3088 3109 3444 
Q 3109 3797 2882 3972 
Q 2656 4147 2194 4147 
L 1259 4147 
z
M 628 4666 
L 2241 4666 
Q 2963 4666 3353 4366 
Q 3744 4066 3744 3513 
Q 3744 3084 3544 2831 
Q 3344 2578 2956 2516 
Q 3422 2416 3680 2098 
Q 3938 1781 3938 1306 
Q 3938 681 3513 340 
Q 3088 0 2303 0 
L 628 0 
L 628 4666 
z
" transform="scale(0.015625)"/>
      <path id="DejaVuSans-61" d="M 2194 1759 
Q 1497 1759 1228 1600 
Q 959 1441 959 1056 
Q 959 750 1161 570 
Q 1363 391 1709 391 
Q 2188 391 2477 730 
Q 2766 1069 2766 1631 
L 2766 1759 
L 2194 1759 
z
M 3341 1997 
L 3341 0 
L 2766 0 
L 2766 531 
Q 2569 213 2275 61 
Q 1981 -91 1556 -91 
Q 1019 -91 701 211 
Q 384 513 384 1019 
Q 384 1609 779 1909 
Q 1175 2209 1959 2209 
L 2766 2209 
L 2766 2266 
Q 2766 2663 2505 2880 
Q 2244 3097 1772 3097 
Q 1472 3097 1187 3025 
Q 903 2953 641 2809 
L 641 3341 
Q 956 3463 1253 3523 
Q 1550 3584 1831 3584 
Q 2591 3584 2966 3190 
Q 3341 2797 3341 1997 
z
" transform="scale(0.015625)"/>
      <path id="DejaVuSans-6b" d="M 581 4863 
L 1159 4863 
L 1159 1991 
L 2875 3500 
L 3609 3500 
L 1753 1863 
L 3688 0 
L 2938 0 
L 1159 1709 
L 1159 0 
L 581 0 
L 581 4863 
z
" transform="scale(0.015625)"/>
     </defs>
     <use xlink:href="#DejaVuSans-20"/>
     <use xlink:href="#DejaVuSans-54" x="31.787109"/>
     <use xlink:href="#DejaVuSans-32" x="92.871094"/>
     <use xlink:href="#DejaVuSans-3a" x="156.494141"/>
     <use xlink:href="#DejaVuSans-42" x="190.185547"/>
     <use xlink:href="#DejaVuSans-72" x="258.789062"/>
     <use xlink:href="#DejaVuSans-65" x="297.652344"/>
     <use xlink:href="#DejaVuSans-61" x="359.175781"/>
     <use xlink:href="#DejaVuSans-6b" x="420.455078"/>
     <use xlink:href="#DejaVuSans-6f" x="474.740234"/>
     <use xlink:href="#DejaVuSans-75" x="535.921875"/>
     <use xlink:href="#DejaVuSans-74" x="599.300781"/>
    </g>
   </g>
   <g id="text_10">
    <!--  T3:Boxing -->
    <g style="fill: #333333" transform="translate(300.996417 59.465156) rotate(-90) scale(0.07 -0.07)">
     <defs>
      <path id="DejaVuSans-33" d="M 2597 2516 
Q 3050 2419 3304 2112 
Q 3559 1806 3559 1356 
Q 3559 666 3084 287 
Q 2609 -91 1734 -91 
Q 1441 -91 1130 -33 
Q 819 25 488 141 
L 488 750 
Q 750 597 1062 519 
Q 1375 441 1716 441 
Q 2309 441 2620 675 
Q 2931 909 2931 1356 
Q 2931 1769 2642 2001 
Q 2353 2234 1838 2234 
L 1294 2234 
L 1294 2753 
L 1863 2753 
Q 2328 2753 2575 2939 
Q 2822 3125 2822 3475 
Q 2822 3834 2567 4026 
Q 2313 4219 1838 4219 
Q 1578 4219 1281 4162 
Q 984 4106 628 3988 
L 628 4550 
Q 988 4650 1302 4700 
Q 1616 4750 1894 4750 
Q 2613 4750 3031 4423 
Q 3450 4097 3450 3541 
Q 3450 3153 3228 2886 
Q 3006 2619 2597 2516 
z
" transform="scale(0.015625)"/>
      <path id="DejaVuSans-78" d="M 3513 3500 
L 2247 1797 
L 3578 0 
L 2900 0 
L 1881 1375 
L 863 0 
L 184 0 
L 1544 1831 
L 300 3500 
L 978 3500 
L 1906 2253 
L 2834 3500 
L 3513 3500 
z
" transform="scale(0.015625)"/>
     </defs>
     <use xlink:href="#DejaVuSans-20"/>
     <use xlink:href="#DejaVuSans-54" x="31.787109"/>
     <use xlink:href="#DejaVuSans-33" x="92.871094"/>
     <use xlink:href="#DejaVuSans-3a" x="156.494141"/>
     <use xlink:href="#DejaVuSans-42" x="190.185547"/>
     <use xlink:href="#DejaVuSans-6f" x="258.789062"/>
     <use xlink:href="#DejaVuSans-78" x="316.845703"/>
     <use xlink:href="#DejaVuSans-69" x="376.025391"/>
     <use xlink:href="#DejaVuSans-6e" x="403.808594"/>
     <use xlink:href="#DejaVuSans-67" x="467.1875"/>
    </g>
   </g>
   <g id="text_11">
    <!--  T4:Qbert -->
    <g style="fill: #333333" transform="translate(426.69029 55.513437) rotate(-90) scale(0.07 -0.07)">
     <defs>
      <path id="DejaVuSans-51" d="M 2522 4238 
Q 1834 4238 1429 3725 
Q 1025 3213 1025 2328 
Q 1025 1447 1429 934 
Q 1834 422 2522 422 
Q 3209 422 3611 934 
Q 4013 1447 4013 2328 
Q 4013 3213 3611 3725 
Q 3209 4238 2522 4238 
z
M 3406 84 
L 4238 -825 
L 3475 -825 
L 2784 -78 
Q 2681 -84 2626 -87 
Q 2572 -91 2522 -91 
Q 1538 -91 948 567 
Q 359 1225 359 2328 
Q 359 3434 948 4092 
Q 1538 4750 2522 4750 
Q 3503 4750 4090 4092 
Q 4678 3434 4678 2328 
Q 4678 1516 4351 937 
Q 4025 359 3406 84 
z
" transform="scale(0.015625)"/>
      <path id="DejaVuSans-62" d="M 3116 1747 
Q 3116 2381 2855 2742 
Q 2594 3103 2138 3103 
Q 1681 3103 1420 2742 
Q 1159 2381 1159 1747 
Q 1159 1113 1420 752 
Q 1681 391 2138 391 
Q 2594 391 2855 752 
Q 3116 1113 3116 1747 
z
M 1159 2969 
Q 1341 3281 1617 3432 
Q 1894 3584 2278 3584 
Q 2916 3584 3314 3078 
Q 3713 2572 3713 1747 
Q 3713 922 3314 415 
Q 2916 -91 2278 -91 
Q 1894 -91 1617 61 
Q 1341 213 1159 525 
L 1159 0 
L 581 0 
L 581 4863 
L 1159 4863 
L 1159 2969 
z
" transform="scale(0.015625)"/>
     </defs>
     <use xlink:href="#DejaVuSans-20"/>
     <use xlink:href="#DejaVuSans-54" x="31.787109"/>
     <use xlink:href="#DejaVuSans-34" x="92.871094"/>
     <use xlink:href="#DejaVuSans-3a" x="156.494141"/>
     <use xlink:href="#DejaVuSans-51" x="190.185547"/>
     <use xlink:href="#DejaVuSans-62" x="268.896484"/>
     <use xlink:href="#DejaVuSans-65" x="332.373047"/>
     <use xlink:href="#DejaVuSans-72" x="393.896484"/>
     <use xlink:href="#DejaVuSans-74" x="435.009766"/>
    </g>
   </g>
   <g id="text_12">
    <!--  T5:SpaceInvaders -->
    <g style="fill: #333333" transform="translate(527.611265 87.173125) rotate(-90) scale(0.07 -0.07)">
     <defs>
      <path id="DejaVuSans-35" d="M 691 4666 
L 3169 4666 
L 3169 4134 
L 1269 4134 
L 1269 2991 
Q 1406 3038 1543 3061 
Q 1681 3084 1819 3084 
Q 2600 3084 3056 2656 
Q 3513 2228 3513 1497 
Q 3513 744 3044 326 
Q 2575 -91 1722 -91 
Q 1428 -91 1123 -41 
Q 819 9 494 109 
L 494 744 
Q 775 591 1075 516 
Q 1375 441 1709 441 
Q 2250 441 2565 725 
Q 2881 1009 2881 1497 
Q 2881 1984 2565 2268 
Q 2250 2553 1709 2553 
Q 1456 2553 1204 2497 
Q 953 2441 691 2322 
L 691 4666 
z
" transform="scale(0.015625)"/>
      <path id="DejaVuSans-53" d="M 3425 4513 
L 3425 3897 
Q 3066 4069 2747 4153 
Q 2428 4238 2131 4238 
Q 1616 4238 1336 4038 
Q 1056 3838 1056 3469 
Q 1056 3159 1242 3001 
Q 1428 2844 1947 2747 
L 2328 2669 
Q 3034 2534 3370 2195 
Q 3706 1856 3706 1288 
Q 3706 609 3251 259 
Q 2797 -91 1919 -91 
Q 1588 -91 1214 -16 
Q 841 59 441 206 
L 441 856 
Q 825 641 1194 531 
Q 1563 422 1919 422 
Q 2459 422 2753 634 
Q 3047 847 3047 1241 
Q 3047 1584 2836 1778 
Q 2625 1972 2144 2069 
L 1759 2144 
Q 1053 2284 737 2584 
Q 422 2884 422 3419 
Q 422 4038 858 4394 
Q 1294 4750 2059 4750 
Q 2388 4750 2728 4690 
Q 3069 4631 3425 4513 
z
" transform="scale(0.015625)"/>
      <path id="DejaVuSans-49" d="M 628 4666 
L 1259 4666 
L 1259 0 
L 628 0 
L 628 4666 
z
" transform="scale(0.015625)"/>
      <path id="DejaVuSans-76" d="M 191 3500 
L 800 3500 
L 1894 563 
L 2988 3500 
L 3597 3500 
L 2284 0 
L 1503 0 
L 191 3500 
z
" transform="scale(0.015625)"/>
     </defs>
     <use xlink:href="#DejaVuSans-20"/>
     <use xlink:href="#DejaVuSans-54" x="31.787109"/>
     <use xlink:href="#DejaVuSans-35" x="92.871094"/>
     <use xlink:href="#DejaVuSans-3a" x="156.494141"/>
     <use xlink:href="#DejaVuSans-53" x="190.185547"/>
     <use xlink:href="#DejaVuSans-70" x="253.662109"/>
     <use xlink:href="#DejaVuSans-61" x="317.138672"/>
     <use xlink:href="#DejaVuSans-63" x="378.417969"/>
     <use xlink:href="#DejaVuSans-65" x="433.398438"/>
     <use xlink:href="#DejaVuSans-49" x="494.921875"/>
     <use xlink:href="#DejaVuSans-6e" x="524.414062"/>
     <use xlink:href="#DejaVuSans-76" x="587.792969"/>
     <use xlink:href="#DejaVuSans-61" x="646.972656"/>
     <use xlink:href="#DejaVuSans-64" x="708.251953"/>
     <use xlink:href="#DejaVuSans-65" x="771.728516"/>
     <use xlink:href="#DejaVuSans-72" x="833.251953"/>
     <use xlink:href="#DejaVuSans-73" x="874.365234"/>
    </g>
   </g>
   <g id="text_13">
    <!--  T1:Pong -->
    <g style="fill: #333333" transform="translate(91.493924 52.760469) rotate(-90) scale(0.07 -0.07)">
     <use xlink:href="#DejaVuSans-20"/>
     <use xlink:href="#DejaVuSans-54" x="31.787109"/>
     <use xlink:href="#DejaVuSans-31" x="92.871094"/>
     <use xlink:href="#DejaVuSans-3a" x="156.494141"/>
     <use xlink:href="#DejaVuSans-50" x="190.185547"/>
     <use xlink:href="#DejaVuSans-6f" x="246.863281"/>
     <use xlink:href="#DejaVuSans-6e" x="308.044922"/>
     <use xlink:href="#DejaVuSans-67" x="371.423828"/>
    </g>
   </g>
   <g id="text_14">
    <!--  T2:Breakout -->
    <g style="fill: #333333" transform="translate(175.302543 67.013125) rotate(-90) scale(0.07 -0.07)">
     <use xlink:href="#DejaVuSans-20"/>
     <use xlink:href="#DejaVuSans-54" x="31.787109"/>
     <use xlink:href="#DejaVuSans-32" x="92.871094"/>
     <use xlink:href="#DejaVuSans-3a" x="156.494141"/>
     <use xlink:href="#DejaVuSans-42" x="190.185547"/>
     <use xlink:href="#DejaVuSans-72" x="258.789062"/>
     <use xlink:href="#DejaVuSans-65" x="297.652344"/>
     <use xlink:href="#DejaVuSans-61" x="359.175781"/>
     <use xlink:href="#DejaVuSans-6b" x="420.455078"/>
     <use xlink:href="#DejaVuSans-6f" x="474.740234"/>
     <use xlink:href="#DejaVuSans-75" x="535.921875"/>
     <use xlink:href="#DejaVuSans-74" x="599.300781"/>
    </g>
   </g>
   <g id="text_15">
    <!--  T3:Boxing -->
    <g style="fill: #333333" transform="translate(300.996417 59.465156) rotate(-90) scale(0.07 -0.07)">
     <use xlink:href="#DejaVuSans-20"/>
     <use xlink:href="#DejaVuSans-54" x="31.787109"/>
     <use xlink:href="#DejaVuSans-33" x="92.871094"/>
     <use xlink:href="#DejaVuSans-3a" x="156.494141"/>
     <use xlink:href="#DejaVuSans-42" x="190.185547"/>
     <use xlink:href="#DejaVuSans-6f" x="258.789062"/>
     <use xlink:href="#DejaVuSans-78" x="316.845703"/>
     <use xlink:href="#DejaVuSans-69" x="376.025391"/>
     <use xlink:href="#DejaVuSans-6e" x="403.808594"/>
     <use xlink:href="#DejaVuSans-67" x="467.1875"/>
    </g>
   </g>
   <g id="text_16">
    <!--  T4:Qbert -->
    <g style="fill: #333333" transform="translate(426.69029 55.513437) rotate(-90) scale(0.07 -0.07)">
     <use xlink:href="#DejaVuSans-20"/>
     <use xlink:href="#DejaVuSans-54" x="31.787109"/>
     <use xlink:href="#DejaVuSans-34" x="92.871094"/>
     <use xlink:href="#DejaVuSans-3a" x="156.494141"/>
     <use xlink:href="#DejaVuSans-51" x="190.185547"/>
     <use xlink:href="#DejaVuSans-62" x="268.896484"/>
     <use xlink:href="#DejaVuSans-65" x="332.373047"/>
     <use xlink:href="#DejaVuSans-72" x="393.896484"/>
     <use xlink:href="#DejaVuSans-74" x="435.009766"/>
    </g>
   </g>
   <g id="text_17">
    <!--  T5:SpaceInvaders -->
    <g style="fill: #333333" transform="translate(527.611265 87.173125) rotate(-90) scale(0.07 -0.07)">
     <use xlink:href="#DejaVuSans-20"/>
     <use xlink:href="#DejaVuSans-54" x="31.787109"/>
     <use xlink:href="#DejaVuSans-35" x="92.871094"/>
     <use xlink:href="#DejaVuSans-3a" x="156.494141"/>
     <use xlink:href="#DejaVuSans-53" x="190.185547"/>
     <use xlink:href="#DejaVuSans-70" x="253.662109"/>
     <use xlink:href="#DejaVuSans-61" x="317.138672"/>
     <use xlink:href="#DejaVuSans-63" x="378.417969"/>
     <use xlink:href="#DejaVuSans-65" x="433.398438"/>
     <use xlink:href="#DejaVuSans-49" x="494.921875"/>
     <use xlink:href="#DejaVuSans-6e" x="524.414062"/>
     <use xlink:href="#DejaVuSans-76" x="587.792969"/>
     <use xlink:href="#DejaVuSans-61" x="646.972656"/>
     <use xlink:href="#DejaVuSans-64" x="708.251953"/>
     <use xlink:href="#DejaVuSans-65" x="771.728516"/>
     <use xlink:href="#DejaVuSans-72" x="833.251953"/>
     <use xlink:href="#DejaVuSans-73" x="874.365234"/>
    </g>
   </g>
   <g id="text_18">
    <!-- Training reward per iteration — constrained seed 4 -->
    <g transform="translate(194.280625 16.318125) scale(0.12 -0.12)">
     <defs>
      <path id="DejaVuSans-Bold-54" d="M 31 4666 
L 4331 4666 
L 4331 3756 
L 2784 3756 
L 2784 0 
L 1581 0 
L 1581 3756 
L 31 3756 
L 31 4666 
z
" transform="scale(0.015625)"/>
      <path id="DejaVuSans-Bold-72" d="M 3138 2547 
Q 2991 2616 2845 2648 
Q 2700 2681 2553 2681 
Q 2122 2681 1889 2404 
Q 1656 2128 1656 1613 
L 1656 0 
L 538 0 
L 538 3500 
L 1656 3500 
L 1656 2925 
Q 1872 3269 2151 3426 
Q 2431 3584 2822 3584 
Q 2878 3584 2943 3579 
Q 3009 3575 3134 3559 
L 3138 2547 
z
" transform="scale(0.015625)"/>
      <path id="DejaVuSans-Bold-61" d="M 2106 1575 
Q 1756 1575 1579 1456 
Q 1403 1338 1403 1106 
Q 1403 894 1545 773 
Q 1688 653 1941 653 
Q 2256 653 2472 879 
Q 2688 1106 2688 1447 
L 2688 1575 
L 2106 1575 
z
M 3816 1997 
L 3816 0 
L 2688 0 
L 2688 519 
Q 2463 200 2181 54 
Q 1900 -91 1497 -91 
Q 953 -91 614 226 
Q 275 544 275 1050 
Q 275 1666 698 1953 
Q 1122 2241 2028 2241 
L 2688 2241 
L 2688 2328 
Q 2688 2594 2478 2717 
Q 2269 2841 1825 2841 
Q 1466 2841 1156 2769 
Q 847 2697 581 2553 
L 581 3406 
Q 941 3494 1303 3539 
Q 1666 3584 2028 3584 
Q 2975 3584 3395 3211 
Q 3816 2838 3816 1997 
z
" transform="scale(0.015625)"/>
      <path id="DejaVuSans-Bold-69" d="M 538 3500 
L 1656 3500 
L 1656 0 
L 538 0 
L 538 3500 
z
M 538 4863 
L 1656 4863 
L 1656 3950 
L 538 3950 
L 538 4863 
z
" transform="scale(0.015625)"/>
      <path id="DejaVuSans-Bold-6e" d="M 4056 2131 
L 4056 0 
L 2931 0 
L 2931 347 
L 2931 1631 
Q 2931 2084 2911 2256 
Q 2891 2428 2841 2509 
Q 2775 2619 2662 2680 
Q 2550 2741 2406 2741 
Q 2056 2741 1856 2470 
Q 1656 2200 1656 1722 
L 1656 0 
L 538 0 
L 538 3500 
L 1656 3500 
L 1656 2988 
Q 1909 3294 2193 3439 
Q 2478 3584 2822 3584 
Q 3428 3584 3742 3212 
Q 4056 2841 4056 2131 
z
" transform="scale(0.015625)"/>
      <path id="DejaVuSans-Bold-67" d="M 2919 594 
Q 2688 288 2409 144 
Q 2131 0 1766 0 
Q 1125 0 706 504 
Q 288 1009 288 1791 
Q 288 2575 706 3076 
Q 1125 3578 1766 3578 
Q 2131 3578 2409 3434 
Q 2688 3291 2919 2981 
L 2919 3500 
L 4044 3500 
L 4044 353 
Q 4044 -491 3511 -936 
Q 2978 -1381 1966 -1381 
Q 1638 -1381 1331 -1331 
Q 1025 -1281 716 -1178 
L 716 -306 
Q 1009 -475 1290 -558 
Q 1572 -641 1856 -641 
Q 2406 -641 2662 -400 
Q 2919 -159 2919 353 
L 2919 594 
z
M 2181 2772 
Q 1834 2772 1640 2515 
Q 1447 2259 1447 1791 
Q 1447 1309 1634 1061 
Q 1822 813 2181 813 
Q 2531 813 2725 1069 
Q 2919 1325 2919 1791 
Q 2919 2259 2725 2515 
Q 2531 2772 2181 2772 
z
" transform="scale(0.015625)"/>
      <path id="DejaVuSans-Bold-20" transform="scale(0.015625)"/>
      <path id="DejaVuSans-Bold-65" d="M 4031 1759 
L 4031 1441 
L 1416 1441 
Q 1456 1047 1700 850 
Q 1944 653 2381 653 
Q 2734 653 3104 758 
Q 3475 863 3866 1075 
L 3866 213 
Q 3469 63 3072 -14 
Q 2675 -91 2278 -91 
Q 1328 -91 801 392 
Q 275 875 275 1747 
Q 275 2603 792 3093 
Q 1309 3584 2216 3584 
Q 3041 3584 3536 3087 
Q 4031 2591 4031 1759 
z
M 2881 2131 
Q 2881 2450 2695 2645 
Q 2509 2841 2209 2841 
Q 1884 2841 1681 2658 
Q 1478 2475 1428 2131 
L 2881 2131 
z
" transform="scale(0.015625)"/>
      <path id="DejaVuSans-Bold-77" d="M 225 3500 
L 1313 3500 
L 1900 1088 
L 2491 3500 
L 3425 3500 
L 4013 1113 
L 4603 3500 
L 5691 3500 
L 4769 0 
L 3547 0 
L 2956 2406 
L 2369 0 
L 1147 0 
L 225 3500 
z
" transform="scale(0.015625)"/>
      <path id="DejaVuSans-Bold-64" d="M 2919 2988 
L 2919 4863 
L 4044 4863 
L 4044 0 
L 2919 0 
L 2919 506 
Q 2688 197 2409 53 
Q 2131 -91 1766 -91 
Q 1119 -91 703 423 
Q 288 938 288 1747 
Q 288 2556 703 3070 
Q 1119 3584 1766 3584 
Q 2128 3584 2408 3439 
Q 2688 3294 2919 2988 
z
M 2181 722 
Q 2541 722 2730 984 
Q 2919 1247 2919 1747 
Q 2919 2247 2730 2509 
Q 2541 2772 2181 2772 
Q 1825 2772 1636 2509 
Q 1447 2247 1447 1747 
Q 1447 1247 1636 984 
Q 1825 722 2181 722 
z
" transform="scale(0.015625)"/>
      <path id="DejaVuSans-Bold-70" d="M 1656 506 
L 1656 -1331 
L 538 -1331 
L 538 3500 
L 1656 3500 
L 1656 2988 
Q 1888 3294 2169 3439 
Q 2450 3584 2816 3584 
Q 3463 3584 3878 3070 
Q 4294 2556 4294 1747 
Q 4294 938 3878 423 
Q 3463 -91 2816 -91 
Q 2450 -91 2169 54 
Q 1888 200 1656 506 
z
M 2400 2772 
Q 2041 2772 1848 2508 
Q 1656 2244 1656 1747 
Q 1656 1250 1848 986 
Q 2041 722 2400 722 
Q 2759 722 2948 984 
Q 3138 1247 3138 1747 
Q 3138 2247 2948 2509 
Q 2759 2772 2400 2772 
z
" transform="scale(0.015625)"/>
      <path id="DejaVuSans-Bold-74" d="M 1759 4494 
L 1759 3500 
L 2913 3500 
L 2913 2700 
L 1759 2700 
L 1759 1216 
Q 1759 972 1856 886 
Q 1953 800 2241 800 
L 2816 800 
L 2816 0 
L 1856 0 
Q 1194 0 917 276 
Q 641 553 641 1216 
L 641 2700 
L 84 2700 
L 84 3500 
L 641 3500 
L 641 4494 
L 1759 4494 
z
" transform="scale(0.015625)"/>
      <path id="DejaVuSans-Bold-6f" d="M 2203 2784 
Q 1831 2784 1636 2517 
Q 1441 2250 1441 1747 
Q 1441 1244 1636 976 
Q 1831 709 2203 709 
Q 2569 709 2762 976 
Q 2956 1244 2956 1747 
Q 2956 2250 2762 2517 
Q 2569 2784 2203 2784 
z
M 2203 3584 
Q 3106 3584 3614 3096 
Q 4122 2609 4122 1747 
Q 4122 884 3614 396 
Q 3106 -91 2203 -91 
Q 1297 -91 786 396 
Q 275 884 275 1747 
Q 275 2609 786 3096 
Q 1297 3584 2203 3584 
z
" transform="scale(0.015625)"/>
      <path id="DejaVuSans-Bold-2014" d="M 344 2156 
L 6056 2156 
L 6056 1350 
L 344 1350 
L 344 2156 
z
" transform="scale(0.015625)"/>
      <path id="DejaVuSans-Bold-63" d="M 3366 3391 
L 3366 2478 
Q 3138 2634 2908 2709 
Q 2678 2784 2431 2784 
Q 1963 2784 1702 2511 
Q 1441 2238 1441 1747 
Q 1441 1256 1702 982 
Q 1963 709 2431 709 
Q 2694 709 2930 787 
Q 3166 866 3366 1019 
L 3366 103 
Q 3103 6 2833 -42 
Q 2563 -91 2291 -91 
Q 1344 -91 809 395 
Q 275 881 275 1747 
Q 275 2613 809 3098 
Q 1344 3584 2291 3584 
Q 2566 3584 2833 3536 
Q 3100 3488 3366 3391 
z
" transform="scale(0.015625)"/>
      <path id="DejaVuSans-Bold-73" d="M 3272 3391 
L 3272 2541 
Q 2913 2691 2578 2766 
Q 2244 2841 1947 2841 
Q 1628 2841 1473 2761 
Q 1319 2681 1319 2516 
Q 1319 2381 1436 2309 
Q 1553 2238 1856 2203 
L 2053 2175 
Q 2913 2066 3209 1816 
Q 3506 1566 3506 1031 
Q 3506 472 3093 190 
Q 2681 -91 1863 -91 
Q 1516 -91 1145 -36 
Q 775 19 384 128 
L 384 978 
Q 719 816 1070 734 
Q 1422 653 1784 653 
Q 2113 653 2278 743 
Q 2444 834 2444 1013 
Q 2444 1163 2330 1236 
Q 2216 1309 1875 1350 
L 1678 1375 
Q 931 1469 631 1722 
Q 331 1975 331 2491 
Q 331 3047 712 3315 
Q 1094 3584 1881 3584 
Q 2191 3584 2531 3537 
Q 2872 3491 3272 3391 
z
" transform="scale(0.015625)"/>
      <path id="DejaVuSans-Bold-34" d="M 2356 3675 
L 1038 1722 
L 2356 1722 
L 2356 3675 
z
M 2156 4666 
L 3494 4666 
L 3494 1722 
L 4159 1722 
L 4159 850 
L 3494 850 
L 3494 0 
L 2356 0 
L 2356 850 
L 288 850 
L 288 1881 
L 2156 4666 
z
" transform="scale(0.015625)"/>
     </defs>
     <use xlink:href="#DejaVuSans-Bold-54"/>
     <use xlink:href="#DejaVuSans-Bold-72" x="57.212891"/>
     <use xlink:href="#DejaVuSans-Bold-61" x="106.529297"/>
     <use xlink:href="#DejaVuSans-Bold-69" x="174.009766"/>
     <use xlink:href="#DejaVuSans-Bold-6e" x="208.287109"/>
     <use xlink:href="#DejaVuSans-Bold-69" x="279.478516"/>
     <use xlink:href="#DejaVuSans-Bold-6e" x="313.755859"/>
     <use xlink:href="#DejaVuSans-Bold-67" x="384.947266"/>
     <use xlink:href="#DejaVuSans-Bold-20" x="456.529297"/>
     <use xlink:href="#DejaVuSans-Bold-72" x="491.34375"/>
     <use xlink:href="#DejaVuSans-Bold-65" x="540.660156"/>
     <use xlink:href="#DejaVuSans-Bold-77" x="608.482422"/>
     <use xlink:href="#DejaVuSans-Bold-61" x="700.865234"/>
     <use xlink:href="#DejaVuSans-Bold-72" x="768.345703"/>
     <use xlink:href="#DejaVuSans-Bold-64" x="817.662109"/>
     <use xlink:href="#DejaVuSans-Bold-20" x="889.244141"/>
     <use xlink:href="#DejaVuSans-Bold-70" x="924.058594"/>
     <use xlink:href="#DejaVuSans-Bold-65" x="995.640625"/>
     <use xlink:href="#DejaVuSans-Bold-72" x="1063.462891"/>
     <use xlink:href="#DejaVuSans-Bold-20" x="1112.779297"/>
     <use xlink:href="#DejaVuSans-Bold-69" x="1147.59375"/>
     <use xlink:href="#DejaVuSans-Bold-74" x="1181.871094"/>
     <use xlink:href="#DejaVuSans-Bold-65" x="1229.673828"/>
     <use xlink:href="#DejaVuSans-Bold-72" x="1297.496094"/>
     <use xlink:href="#DejaVuSans-Bold-61" x="1346.8125"/>
     <use xlink:href="#DejaVuSans-Bold-74" x="1414.292969"/>
     <use xlink:href="#DejaVuSans-Bold-69" x="1462.095703"/>
     <use xlink:href="#DejaVuSans-Bold-6f" x="1496.373047"/>
     <use xlink:href="#DejaVuSans-Bold-6e" x="1565.074219"/>
     <use xlink:href="#DejaVuSans-Bold-20" x="1636.265625"/>
     <use xlink:href="#DejaVuSans-Bold-2014" x="1671.080078"/>
     <use xlink:href="#DejaVuSans-Bold-20" x="1771.080078"/>
     <use xlink:href="#DejaVuSans-Bold-63" x="1805.894531"/>
     <use xlink:href="#DejaVuSans-Bold-6f" x="1865.171875"/>
     <use xlink:href="#DejaVuSans-Bold-6e" x="1933.873047"/>
     <use xlink:href="#DejaVuSans-Bold-73" x="2005.064453"/>
     <use xlink:href="#DejaVuSans-Bold-74" x="2064.585938"/>
     <use xlink:href="#DejaVuSans-Bold-72" x="2112.388672"/>
     <use xlink:href="#DejaVuSans-Bold-61" x="2161.705078"/>
     <use xlink:href="#DejaVuSans-Bold-69" x="2229.185547"/>
     <use xlink:href="#DejaVuSans-Bold-6e" x="2263.462891"/>
     <use xlink:href="#DejaVuSans-Bold-65" x="2334.654297"/>
     <use xlink:href="#DejaVuSans-Bold-64" x="2402.476562"/>
     <use xlink:href="#DejaVuSans-Bold-20" x="2474.058594"/>
     <use xlink:href="#DejaVuSans-Bold-73" x="2508.873047"/>
     <use xlink:href="#DejaVuSans-Bold-65" x="2568.394531"/>
     <use xlink:href="#DejaVuSans-Bold-65" x="2636.216797"/>
     <use xlink:href="#DejaVuSans-Bold-64" x="2704.039062"/>
     <use xlink:href="#DejaVuSans-Bold-20" x="2775.621094"/>
     <use xlink:href="#DejaVuSans-Bold-34" x="2810.435547"/>
    </g>
   </g>
  </g>
  <g id="axes_2">
   <g id="patch_7">
    <path d="M 60.180625 382.678125 
L 673.980625 382.678125 
L 673.980625 218.878125 
L 60.180625 218.878125 
z
" style="fill: #ffffff"/>
   </g>
   <g id="matplotlib.axis_3">
    <g id="xtick_9">
     <g id="line2d_21">
      <g>
       <use xlink:href="#m120d5f7abb" x="86.175017" y="382.678125" style="stroke: #000000; stroke-width: 0.8"/>
      </g>
     </g>
     <g id="text_19">
      <!-- 0 -->
      <g transform="translate(82.993767 397.276562) scale(0.1 -0.1)">
       <use xlink:href="#DejaVuSans-30"/>
      </g>
     </g>
    </g>
    <g id="xtick_10">
     <g id="line2d_22">
      <g>
       <use xlink:href="#m120d5f7abb" x="162.399319" y="382.678125" style="stroke: #000000; stroke-width: 0.8"/>
      </g>
     </g>
     <g id="text_20">
      <!-- 2000 -->
      <g transform="translate(149.674319 397.276562) scale(0.1 -0.1)">
       <use xlink:href="#DejaVuSans-32"/>
       <use xlink:href="#DejaVuSans-30" x="63.623047"/>
       <use xlink:href="#DejaVuSans-30" x="127.246094"/>
       <use xlink:href="#DejaVuSans-30" x="190.869141"/>
      </g>
     </g>
    </g>
    <g id="xtick_11">
     <g id="line2d_23">
      <g>
       <use xlink:href="#m120d5f7abb" x="238.623621" y="382.678125" style="stroke: #000000; stroke-width: 0.8"/>
      </g>
     </g>
     <g id="text_21">
      <!-- 4000 -->
      <g transform="translate(225.898621 397.276562) scale(0.1 -0.1)">
       <use xlink:href="#DejaVuSans-34"/>
       <use xlink:href="#DejaVuSans-30" x="63.623047"/>
       <use xlink:href="#DejaVuSans-30" x="127.246094"/>
       <use xlink:href="#DejaVuSans-30" x="190.869141"/>
      </g>
     </g>
    </g>
    <g id="xtick_12">
     <g id="line2d_24">
      <g>
       <use xlink:href="#m120d5f7abb" x="314.847922" y="382.678125" style="stroke: #000000; stroke-width: 0.8"/>
      </g>
     </g>
     <g id="text_22">
      <!-- 6000 -->
      <g transform="translate(302.122922 397.276562) scale(0.1 -0.1)">
       <use xlink:href="#DejaVuSans-36"/>
       <use xlink:href="#DejaVuSans-30" x="63.623047"/>
       <use xlink:href="#DejaVuSans-30" x="127.246094"/>
       <use xlink:href="#DejaVuSans-30" x="190.869141"/>
      </g>
     </g>
    </g>
    <g id="xtick_13">
     <g id="line2d_25">
      <g>
       <use xlink:href="#m120d5f7abb" x="391.072224" y="382.678125" style="stroke: #000000; stroke-width: 0.8"/>
      </g>
     </g>
     <g id="text_23">
      <!-- 8000 -->
      <g transform="translate(378.347224 397.276562) scale(0.1 -0.1)">
       <use xlink:href="#DejaVuSans-38"/>
       <use xlink:href="#DejaVuSans-30" x="63.623047"/>
       <use xlink:href="#DejaVuSans-30" x="127.246094"/>
       <use xlink:href="#DejaVuSans-30" x="190.869141"/>
      </g>
     </g>
    </g>
    <g id="xtick_14">
     <g id="line2d_26">
      <g>
       <use xlink:href="#m120d5f7abb" x="467.296526" y="382.678125" style="stroke: #000000; stroke-width: 0.8"/>
      </g>
     </g>
     <g id="text_24">
      <!-- 10000 -->
      <g transform="translate(451.390276 397.276562) scale(0.1 -0.1)">
       <use xlink:href="#DejaVuSans-31"/>
       <use xlink:href="#DejaVuSans-30" x="63.623047"/>
       <use xlink:href="#DejaVuSans-30" x="127.246094"/>
       <use xlink:href="#DejaVuSans-30" x="190.869141"/>
       <use xlink:href="#DejaVuSans-30" x="254.492188"/>
      </g>
     </g>
    </g>
    <g id="xtick_15">
     <g id="line2d_27">
      <g>
       <use xlink:href="#m120d5f7abb" x="543.520827" y="382.678125" style="stroke: #000000; stroke-width: 0.8"/>
      </g>
     </g>
     <g id="text_25">
      <!-- 12000 -->
      <g transform="translate(527.614577 397.276562) scale(0.1 -0.1)">
       <use xlink:href="#DejaVuSans-31"/>
       <use xlink:href="#DejaVuSans-32" x="63.623047"/>
       <use xlink:href="#DejaVuSans-30" x="127.246094"/>
       <use xlink:href="#DejaVuSans-30" x="190.869141"/>
       <use xlink:href="#DejaVuSans-30" x="254.492188"/>
      </g>
     </g>
    </g>
    <g id="xtick_16">
     <g id="line2d_28">
      <g>
       <use xlink:href="#m120d5f7abb" x="619.745129" y="382.678125" style="stroke: #000000; stroke-width: 0.8"/>
      </g>
     </g>
     <g id="text_26">
      <!-- 14000 -->
      <g transform="translate(603.838879 397.276562) scale(0.1 -0.1)">
       <use xlink:href="#DejaVuSans-31"/>
       <use xlink:href="#DejaVuSans-34" x="63.623047"/>
       <use xlink:href="#DejaVuSans-30" x="127.246094"/>
       <use xlink:href="#DejaVuSans-30" x="190.869141"/>
       <use xlink:href="#DejaVuSans-30" x="254.492188"/>
      </g>
     </g>
    </g>
    <g id="text_27">
     <!-- cumulative PPO iteration -->
     <g transform="translate(305.018906 410.954687) scale(0.1 -0.1)">
      <defs>
       <path id="DejaVuSans-6d" d="M 3328 2828 
Q 3544 3216 3844 3400 
Q 4144 3584 4550 3584 
Q 5097 3584 5394 3201 
Q 5691 2819 5691 2113 
L 5691 0 
L 5113 0 
L 5113 2094 
Q 5113 2597 4934 2840 
Q 4756 3084 4391 3084 
Q 3944 3084 3684 2787 
Q 3425 2491 3425 1978 
L 3425 0 
L 2847 0 
L 2847 2094 
Q 2847 2600 2669 2842 
Q 2491 3084 2119 3084 
Q 1678 3084 1418 2786 
Q 1159 2488 1159 1978 
L 1159 0 
L 581 0 
L 581 3500 
L 1159 3500 
L 1159 2956 
Q 1356 3278 1631 3431 
Q 1906 3584 2284 3584 
Q 2666 3584 2933 3390 
Q 3200 3197 3328 2828 
z
" transform="scale(0.015625)"/>
       <path id="DejaVuSans-4f" d="M 2522 4238 
Q 1834 4238 1429 3725 
Q 1025 3213 1025 2328 
Q 1025 1447 1429 934 
Q 1834 422 2522 422 
Q 3209 422 3611 934 
Q 4013 1447 4013 2328 
Q 4013 3213 3611 3725 
Q 3209 4238 2522 4238 
z
M 2522 4750 
Q 3503 4750 4090 4092 
Q 4678 3434 4678 2328 
Q 4678 1225 4090 567 
Q 3503 -91 2522 -91 
Q 1538 -91 948 565 
Q 359 1222 359 2328 
Q 359 3434 948 4092 
Q 1538 4750 2522 4750 
z
" transform="scale(0.015625)"/>
      </defs>
      <use xlink:href="#DejaVuSans-63"/>
      <use xlink:href="#DejaVuSans-75" x="54.980469"/>
      <use xlink:href="#DejaVuSans-6d" x="118.359375"/>
      <use xlink:href="#DejaVuSans-75" x="215.771484"/>
      <use xlink:href="#DejaVuSans-6c" x="279.150391"/>
      <use xlink:href="#DejaVuSans-61" x="306.933594"/>
      <use xlink:href="#DejaVuSans-74" x="368.212891"/>
      <use xlink:href="#DejaVuSans-69" x="407.421875"/>
      <use xlink:href="#DejaVuSans-76" x="435.205078"/>
      <use xlink:href="#DejaVuSans-65" x="494.384766"/>
      <use xlink:href="#DejaVuSans-20" x="555.908203"/>
      <use xlink:href="#DejaVuSans-50" x="587.695312"/>
      <use xlink:href="#DejaVuSans-50" x="647.998047"/>
      <use xlink:href="#DejaVuSans-4f" x="708.300781"/>
      <use xlink:href="#DejaVuSans-20" x="787.011719"/>
      <use xlink:href="#DejaVuSans-69" x="818.798828"/>
      <use xlink:href="#DejaVuSans-74" x="846.582031"/>
      <use xlink:href="#DejaVuSans-65" x="885.791016"/>
      <use xlink:href="#DejaVuSans-72" x="947.314453"/>
      <use xlink:href="#DejaVuSans-61" x="988.427734"/>
      <use xlink:href="#DejaVuSans-74" x="1049.707031"/>
      <use xlink:href="#DejaVuSans-69" x="1088.916016"/>
      <use xlink:href="#DejaVuSans-6f" x="1116.699219"/>
      <use xlink:href="#DejaVuSans-6e" x="1177.880859"/>
     </g>
    </g>
   </g>
   <g id="matplotlib.axis_4">
    <g id="ytick_7">
     <g id="line2d_29">
      <g>
       <use xlink:href="#m01827e2824" x="60.180625" y="374.647235" style="stroke: #000000; stroke-width: 0.8"/>
      </g>
     </g>
     <g id="text_28">
      <!-- 0.0 -->
      <g transform="translate(37.2775 378.446453) scale(0.1 -0.1)">
       <defs>
        <path id="DejaVuSans-2e" d="M 684 794 
L 1344 794 
L 1344 0 
L 684 0 
L 684 794 
z
" transform="scale(0.015625)"/>
       </defs>
       <use xlink:href="#DejaVuSans-30"/>
       <use xlink:href="#DejaVuSans-2e" x="63.623047"/>
       <use xlink:href="#DejaVuSans-30" x="95.410156"/>
      </g>
     </g>
    </g>
    <g id="ytick_8">
     <g id="line2d_30">
      <g>
       <use xlink:href="#m01827e2824" x="60.180625" y="336.886626" style="stroke: #000000; stroke-width: 0.8"/>
      </g>
     </g>
     <g id="text_29">
      <!-- 0.5 -->
      <g transform="translate(37.2775 340.685845) scale(0.1 -0.1)">
       <use xlink:href="#DejaVuSans-30"/>
       <use xlink:href="#DejaVuSans-2e" x="63.623047"/>
       <use xlink:href="#DejaVuSans-35" x="95.410156"/>
      </g>
     </g>
    </g>
    <g id="ytick_9">
     <g id="line2d_31">
      <g>
       <use xlink:href="#m01827e2824" x="60.180625" y="299.126017" style="stroke: #000000; stroke-width: 0.8"/>
      </g>
     </g>
     <g id="text_30">
      <!-- 1.0 -->
      <g transform="translate(37.2775 302.925236) scale(0.1 -0.1)">
       <use xlink:href="#DejaVuSans-31"/>
       <use xlink:href="#DejaVuSans-2e" x="63.623047"/>
       <use xlink:href="#DejaVuSans-30" x="95.410156"/>
      </g>
     </g>
    </g>
    <g id="ytick_10">
     <g id="line2d_32">
      <g>
       <use xlink:href="#m01827e2824" x="60.180625" y="261.365408" style="stroke: #000000; stroke-width: 0.8"/>
      </g>
     </g>
     <g id="text_31">
      <!-- 1.5 -->
      <g transform="translate(37.2775 265.164627) scale(0.1 -0.1)">
       <use xlink:href="#DejaVuSans-31"/>
       <use xlink:href="#DejaVuSans-2e" x="63.623047"/>
       <use xlink:href="#DejaVuSans-35" x="95.410156"/>
      </g>
     </g>
    </g>
    <g id="ytick_11">
     <g id="line2d_33">
      <g>
       <use xlink:href="#m01827e2824" x="60.180625" y="223.604799" style="stroke: #000000; stroke-width: 0.8"/>
      </g>
     </g>
     <g id="text_32">
      <!-- 2.0 -->
      <g transform="translate(37.2775 227.404018) scale(0.1 -0.1)">
       <use xlink:href="#DejaVuSans-32"/>
       <use xlink:href="#DejaVuSans-2e" x="63.623047"/>
       <use xlink:href="#DejaVuSans-30" x="95.410156"/>
      </g>
     </g>
    </g>
    <g id="text_33">
     <!-- normalized greedy -->
     <g transform="translate(20 347.554687) rotate(-90) scale(0.1 -0.1)">
      <defs>
       <path id="DejaVuSans-7a" d="M 353 3500 
L 3084 3500 
L 3084 2975 
L 922 459 
L 3084 459 
L 3084 0 
L 275 0 
L 275 525 
L 2438 3041 
L 353 3041 
L 353 3500 
z
" transform="scale(0.015625)"/>
       <path id="DejaVuSans-79" d="M 2059 -325 
Q 1816 -950 1584 -1140 
Q 1353 -1331 966 -1331 
L 506 -1331 
L 506 -850 
L 844 -850 
Q 1081 -850 1212 -737 
Q 1344 -625 1503 -206 
L 1606 56 
L 191 3500 
L 800 3500 
L 1894 763 
L 2988 3500 
L 3597 3500 
L 2059 -325 
z
" transform="scale(0.015625)"/>
      </defs>
      <use xlink:href="#DejaVuSans-6e"/>
      <use xlink:href="#DejaVuSans-6f" x="63.378906"/>
      <use xlink:href="#DejaVuSans-72" x="124.560547"/>
      <use xlink:href="#DejaVuSans-6d" x="163.923828"/>
      <use xlink:href="#DejaVuSans-61" x="261.335938"/>
      <use xlink:href="#DejaVuSans-6c" x="322.615234"/>
      <use xlink:href="#DejaVuSans-69" x="350.398438"/>
      <use xlink:href="#DejaVuSans-7a" x="378.181641"/>
      <use xlink:href="#DejaVuSans-65" x="430.671875"/>
      <use xlink:href="#DejaVuSans-64" x="492.195312"/>
      <use xlink:href="#DejaVuSans-20" x="555.671875"/>
      <use xlink:href="#DejaVuSans-67" x="587.458984"/>
      <use xlink:href="#DejaVuSans-72" x="650.935547"/>
      <use xlink:href="#DejaVuSans-65" x="689.798828"/>
      <use xlink:href="#DejaVuSans-65" x="751.322266"/>
      <use xlink:href="#DejaVuSans-64" x="812.845703"/>
      <use xlink:href="#DejaVuSans-79" x="876.322266"/>
     </g>
     <!-- score (current game) -->
     <g transform="translate(31.197812 353.510156) rotate(-90) scale(0.1 -0.1)">
      <use xlink:href="#DejaVuSans-73"/>
      <use xlink:href="#DejaVuSans-63" x="52.099609"/>
      <use xlink:href="#DejaVuSans-6f" x="107.080078"/>
      <use xlink:href="#DejaVuSans-72" x="168.261719"/>
      <use xlink:href="#DejaVuSans-65" x="207.125"/>
      <use xlink:href="#DejaVuSans-20" x="268.648438"/>
      <use xlink:href="#DejaVuSans-28" x="300.435547"/>
      <use xlink:href="#DejaVuSans-63" x="339.449219"/>
      <use xlink:href="#DejaVuSans-75" x="394.429688"/>
      <use xlink:href="#DejaVuSans-72" x="457.808594"/>
      <use xlink:href="#DejaVuSans-72" x="497.171875"/>
      <use xlink:href="#DejaVuSans-65" x="536.035156"/>
      <use xlink:href="#DejaVuSans-6e" x="597.558594"/>
      <use xlink:href="#DejaVuSans-74" x="660.9375"/>
      <use xlink:href="#DejaVuSans-20" x="700.146484"/>
      <use xlink:href="#DejaVuSans-67" x="731.933594"/>
      <use xlink:href="#DejaVuSans-61" x="795.410156"/>
      <use xlink:href="#DejaVuSans-6d" x="856.689453"/>
      <use xlink:href="#DejaVuSans-65" x="954.101562"/>
      <use xlink:href="#DejaVuSans-29" x="1015.625"/>
     </g>
    </g>
   </g>
   <g id="line2d_34">
    <path d="M 97.570551 375.23267 
L 101.381766 375.23267 
L 103.287373 374.061798 
L 105.192981 375.23267 
L 107.098588 372.760831 
L 109.004196 373.801605 
L 110.909803 373.021024 
L 112.815411 353.376401 
L 114.721018 352.205529 
L 118.532233 352.205529 
L 120.437841 373.67151 
L 122.343449 371.980251 
L 126.154664 333.471584 
L 128.060271 351.815239 
L 129.965879 352.075432 
L 131.871486 322.023061 
L 133.777094 350.774463 
L 135.682701 346.871559 
L 137.588309 315.127928 
L 139.493916 336.333714 
L 141.399524 324.234708 
L 143.305132 299.38621 
L 145.210739 321.372577 
L 147.116347 307.582311 
L 149.021954 299.516309 
L 150.927562 300.947371 
L 152.833169 297.82505 
L 154.738777 298.085243 
L 156.644384 301.85805 
L 158.549992 301.337663 
L 160.455599 297.044466 
L 162.361207 302.118243 
L 164.266814 297.174564 
L 166.172422 297.044466 
L 168.07803 298.345437 
L 181.37917 357.082949 
L 183.284778 363.128816 
L 185.190385 356.561754 
L 187.095993 362.816099 
L 189.0016 361.356752 
L 190.907208 353.434581 
L 192.812815 360.939796 
L 194.718423 347.388714 
L 196.624031 356.249037 
L 198.529638 366.464466 
L 200.435246 358.12534 
L 202.340853 344.470019 
L 206.152068 342.697955 
L 208.057676 343.948823 
L 209.963283 343.427629 
L 211.868891 346.450562 
L 213.774498 354.268493 
L 215.680106 331.231655 
L 217.585713 344.470019 
L 219.491321 338.215674 
L 221.396929 337.59024 
L 223.302536 335.088502 
L 225.208144 344.053063 
L 227.113751 334.671546 
L 229.019359 350.515886 
L 230.924966 337.694478 
L 232.830574 336.652088 
L 234.736181 331.023177 
L 236.641789 321.120462 
L 238.547396 308.716016 
L 240.453004 331.857089 
L 242.358611 345.303931 
L 244.264219 355.832079 
L 246.169827 314.76188 
L 259.470967 359.688926 
L 261.376575 360.522838 
L 263.282182 351.766754 
L 265.18779 353.434581 
L 267.093397 354.476971 
L 268.999005 359.688926 
L 270.904612 357.291427 
L 272.81022 354.372732 
L 274.715828 354.268493 
L 276.621435 349.786212 
L 278.527043 342.802193 
L 280.43265 351.245561 
L 282.338258 355.936318 
L 284.243865 351.766754 
L 286.149473 356.249037 
L 288.05508 364.483924 
L 289.960688 358.438057 
L 291.866295 344.886975 
L 293.771903 338.945349 
L 307.073044 366.442668 
L 308.978651 366.106645 
L 312.789866 347.289343 
L 314.695474 347.065328 
L 316.601081 343.649093 
L 318.506689 344.265136 
L 320.412296 344.545154 
L 322.317904 342.417007 
L 324.223511 336.592604 
L 326.129119 330.152161 
L 328.034726 336.256583 
L 329.940334 339.224788 
L 331.845942 330.040152 
L 333.751549 328.416039 
L 335.657157 325.67185 
L 337.562764 323.151676 
L 339.468372 315.143123 
L 341.373979 316.823239 
L 343.279587 307.13457 
L 345.185194 310.88683 
L 347.090802 313.126982 
L 348.996409 308.422658 
L 350.902017 306.630536 
L 352.807625 306.01449 
L 354.713232 306.294512 
L 356.61884 303.830341 
L 358.524447 303.326307 
L 360.430055 301.030152 
L 362.335662 301.478182 
L 364.24127 303.438313 
L 366.146877 302.430246 
L 368.052485 298.397965 
L 369.958092 299.18202 
L 371.8637 298.733989 
L 385.164841 374.395217 
L 387.070448 365.210583 
L 388.976056 362.970428 
L 390.881663 357.65006 
L 392.787271 360.674269 
L 394.692878 354.17782 
L 396.598486 354.73786 
L 398.504093 350.53757 
L 400.409701 344.097124 
L 402.315308 341.128919 
L 404.220916 335.584537 
L 406.126524 331.216235 
L 408.032131 333.008357 
L 409.937739 318.727373 
L 411.843346 316.319205 
L 413.748954 321.527566 
L 415.654561 310.88683 
L 417.560169 316.263202 
L 419.465776 321.079535 
L 432.766917 370.283202 
L 434.672524 356.984075 
L 436.578132 366.718488 
L 438.48374 356.367106 
L 440.389347 357.738149 
L 442.294955 352.870943 
L 444.200562 351.568451 
L 446.10617 352.596734 
L 448.011777 350.197408 
L 449.917385 346.152826 
L 451.822992 355.407373 
L 453.7286 350.128854 
L 455.634207 355.681583 
L 457.539815 334.636059 
L 459.445422 355.475926 
L 461.35103 281.782307 
L 463.256638 313.659085 
L 465.162245 288.226217 
L 467.067853 349.032018 
L 468.97346 295.218542 
L 470.879068 274.51578 
L 472.784675 226.32358 
L 486.085816 353.213704 
L 487.991423 361.165759 
L 489.897031 353.625017 
L 491.802639 364.730473 
L 493.708246 363.633638 
L 495.613854 355.27027 
L 497.519461 362.811012 
L 499.425069 361.645624 
L 501.330676 362.948116 
L 503.236284 361.097206 
L 505.141891 354.584747 
L 507.047499 353.350807 
L 508.953106 357.463939 
L 510.858714 353.487913 
L 512.764321 358.149462 
L 514.669929 361.234311 
L 516.575537 357.395389 
L 518.481144 354.99606 
L 520.386752 359.451955 
L 533.687892 355.544152 
L 535.5935 363.6198 
L 537.499107 360.389542 
L 539.404715 343.625615 
L 541.310322 366.404507 
L 543.21593 329.033756 
L 545.121538 332.542485 
L 547.027145 352.035423 
L 548.932753 349.640579 
L 550.83836 338.000506 
L 552.743968 343.514224 
L 554.649575 350.141826 
L 556.555183 320.289778 
L 558.46079 349.027941 
L 560.366398 336.10691 
L 562.272005 356.490955 
L 564.177613 349.584884 
L 566.08322 356.769424 
L 567.988828 365.958953 
L 569.894436 329.757781 
L 571.800043 313.328016 
L 573.705651 337.165095 
L 575.611258 316.669663 
L 577.516866 338.668836 
L 579.422473 333.767757 
L 581.328081 338.835918 
L 583.233688 330.481801 
L 585.139296 329.145142 
L 587.044903 350.531682 
L 588.950511 329.646389 
L 590.856118 317.950626 
L 592.761726 331.372909 
L 594.667334 316.335498 
L 596.572941 317.337992 
L 598.478549 356.769424 
L 611.779689 351.701258 
L 613.685297 353.817638 
L 615.590904 339.281474 
L 617.496512 355.599848 
L 619.402119 340.506741 
L 621.307727 340.116886 
L 623.213335 345.017965 
L 625.118942 355.76693 
L 627.02455 363.842576 
L 628.930157 362.283141 
L 630.835765 358.440248 
L 632.741372 343.569919 
L 634.64698 318.841733 
L 636.552587 327.864179 
L 638.458195 361.113565 
L 640.363802 370.414483 
L 642.26941 339.170083 
L 644.175017 347.969756 
L 646.080625 361.670505 
L 646.080625 361.670505 
" clip-path="url(#p7a727438ee)" style="fill: none; stroke: #1b9e77; stroke-width: 1.2; stroke-linecap: square"/>
    <defs>
     <path id="mfa79a9d0ed" d="M 0 0.75 
C 0.198902 0.75 0.389685 0.670975 0.53033 0.53033 
C 0.670975 0.389685 0.75 0.198902 0.75 0 
C 0.75 -0.198902 0.670975 -0.389685 0.53033 -0.53033 
C 0.389685 -0.670975 0.198902 -0.75 0 -0.75 
C -0.198902 -0.75 -0.389685 -0.670975 -0.53033 -0.53033 
C -0.670975 -0.389685 -0.75 -0.198902 -0.75 0 
C -0.75 0.198902 -0.670975 0.389685 -0.53033 0.53033 
C -0.389685 0.670975 -0.198902 0.75 0 0.75 
z
" style="stroke: #1b9e77"/>
    </defs>
    <g clip-path="url(#p7a727438ee)">
     <use xlink:href="#mfa79a9d0ed" x="97.570551" y="375.23267" style="fill: #1b9e77; stroke: #1b9e77"/>
     <use xlink:href="#mfa79a9d0ed" x="99.476158" y="375.23267" style="fill: #1b9e77; stroke: #1b9e77"/>
     <use xlink:href="#mfa79a9d0ed" x="101.381766" y="375.23267" style="fill: #1b9e77; stroke: #1b9e77"/>
     <use xlink:href="#mfa79a9d0ed" x="103.287373" y="374.061798" style="fill: #1b9e77; stroke: #1b9e77"/>
     <use xlink:href="#mfa79a9d0ed" x="105.192981" y="375.23267" style="fill: #1b9e77; stroke: #1b9e77"/>
     <use xlink:href="#mfa79a9d0ed" x="107.098588" y="372.760831" style="fill: #1b9e77; stroke: #1b9e77"/>
     <use xlink:href="#mfa79a9d0ed" x="109.004196" y="373.801605" style="fill: #1b9e77; stroke: #1b9e77"/>
     <use xlink:href="#mfa79a9d0ed" x="110.909803" y="373.021024" style="fill: #1b9e77; stroke: #1b9e77"/>
     <use xlink:href="#mfa79a9d0ed" x="112.815411" y="353.376401" style="fill: #1b9e77; stroke: #1b9e77"/>
     <use xlink:href="#mfa79a9d0ed" x="114.721018" y="352.205529" style="fill: #1b9e77; stroke: #1b9e77"/>
     <use xlink:href="#mfa79a9d0ed" x="116.626626" y="352.205529" style="fill: #1b9e77; stroke: #1b9e77"/>
     <use xlink:href="#mfa79a9d0ed" x="118.532233" y="352.205529" style="fill: #1b9e77; stroke: #1b9e77"/>
     <use xlink:href="#mfa79a9d0ed" x="120.437841" y="373.67151" style="fill: #1b9e77; stroke: #1b9e77"/>
     <use xlink:href="#mfa79a9d0ed" x="122.343449" y="371.980251" style="fill: #1b9e77; stroke: #1b9e77"/>
     <use xlink:href="#mfa79a9d0ed" x="124.249056" y="352.725916" style="fill: #1b9e77; stroke: #1b9e77"/>
     <use xlink:href="#mfa79a9d0ed" x="126.154664" y="333.471584" style="fill: #1b9e77; stroke: #1b9e77"/>
     <use xlink:href="#mfa79a9d0ed" x="128.060271" y="351.815239" style="fill: #1b9e77; stroke: #1b9e77"/>
     <use xlink:href="#mfa79a9d0ed" x="129.965879" y="352.075432" style="fill: #1b9e77; stroke: #1b9e77"/>
     <use xlink:href="#mfa79a9d0ed" x="131.871486" y="322.023061" style="fill: #1b9e77; stroke: #1b9e77"/>
     <use xlink:href="#mfa79a9d0ed" x="133.777094" y="350.774463" style="fill: #1b9e77; stroke: #1b9e77"/>
     <use xlink:href="#mfa79a9d0ed" x="135.682701" y="346.871559" style="fill: #1b9e77; stroke: #1b9e77"/>
     <use xlink:href="#mfa79a9d0ed" x="137.588309" y="315.127928" style="fill: #1b9e77; stroke: #1b9e77"/>
     <use xlink:href="#mfa79a9d0ed" x="139.493916" y="336.333714" style="fill: #1b9e77; stroke: #1b9e77"/>
     <use xlink:href="#mfa79a9d0ed" x="141.399524" y="324.234708" style="fill: #1b9e77; stroke: #1b9e77"/>
     <use xlink:href="#mfa79a9d0ed" x="143.305132" y="299.38621" style="fill: #1b9e77; stroke: #1b9e77"/>
     <use xlink:href="#mfa79a9d0ed" x="145.210739" y="321.372577" style="fill: #1b9e77; stroke: #1b9e77"/>
     <use xlink:href="#mfa79a9d0ed" x="147.116347" y="307.582311" style="fill: #1b9e77; stroke: #1b9e77"/>
     <use xlink:href="#mfa79a9d0ed" x="149.021954" y="299.516309" style="fill: #1b9e77; stroke: #1b9e77"/>
     <use xlink:href="#mfa79a9d0ed" x="150.927562" y="300.947371" style="fill: #1b9e77; stroke: #1b9e77"/>
     <use xlink:href="#mfa79a9d0ed" x="152.833169" y="297.82505" style="fill: #1b9e77; stroke: #1b9e77"/>
     <use xlink:href="#mfa79a9d0ed" x="154.738777" y="298.085243" style="fill: #1b9e77; stroke: #1b9e77"/>
     <use xlink:href="#mfa79a9d0ed" x="156.644384" y="301.85805" style="fill: #1b9e77; stroke: #1b9e77"/>
     <use xlink:href="#mfa79a9d0ed" x="158.549992" y="301.337663" style="fill: #1b9e77; stroke: #1b9e77"/>
     <use xlink:href="#mfa79a9d0ed" x="160.455599" y="297.044466" style="fill: #1b9e77; stroke: #1b9e77"/>
     <use xlink:href="#mfa79a9d0ed" x="162.361207" y="302.118243" style="fill: #1b9e77; stroke: #1b9e77"/>
     <use xlink:href="#mfa79a9d0ed" x="164.266814" y="297.174564" style="fill: #1b9e77; stroke: #1b9e77"/>
     <use xlink:href="#mfa79a9d0ed" x="166.172422" y="297.044466" style="fill: #1b9e77; stroke: #1b9e77"/>
     <use xlink:href="#mfa79a9d0ed" x="168.07803" y="298.345437" style="fill: #1b9e77; stroke: #1b9e77"/>
     <use xlink:href="#mfa79a9d0ed" x="181.37917" y="357.082949" style="fill: #1b9e77; stroke: #1b9e77"/>
     <use xlink:href="#mfa79a9d0ed" x="183.284778" y="363.128816" style="fill: #1b9e77; stroke: #1b9e77"/>
     <use xlink:href="#mfa79a9d0ed" x="185.190385" y="356.561754" style="fill: #1b9e77; stroke: #1b9e77"/>
     <use xlink:href="#mfa79a9d0ed" x="187.095993" y="362.816099" style="fill: #1b9e77; stroke: #1b9e77"/>
     <use xlink:href="#mfa79a9d0ed" x="189.0016" y="361.356752" style="fill: #1b9e77; stroke: #1b9e77"/>
     <use xlink:href="#mfa79a9d0ed" x="190.907208" y="353.434581" style="fill: #1b9e77; stroke: #1b9e77"/>
     <use xlink:href="#mfa79a9d0ed" x="192.812815" y="360.939796" style="fill: #1b9e77; stroke: #1b9e77"/>
     <use xlink:href="#mfa79a9d0ed" x="194.718423" y="347.388714" style="fill: #1b9e77; stroke: #1b9e77"/>
     <use xlink:href="#mfa79a9d0ed" x="196.624031" y="356.249037" style="fill: #1b9e77; stroke: #1b9e77"/>
     <use xlink:href="#mfa79a9d0ed" x="198.529638" y="366.464466" style="fill: #1b9e77; stroke: #1b9e77"/>
     <use xlink:href="#mfa79a9d0ed" x="200.435246" y="358.12534" style="fill: #1b9e77; stroke: #1b9e77"/>
     <use xlink:href="#mfa79a9d0ed" x="202.340853" y="344.470019" style="fill: #1b9e77; stroke: #1b9e77"/>
     <use xlink:href="#mfa79a9d0ed" x="204.246461" y="343.531867" style="fill: #1b9e77; stroke: #1b9e77"/>
     <use xlink:href="#mfa79a9d0ed" x="206.152068" y="342.697955" style="fill: #1b9e77; stroke: #1b9e77"/>
     <use xlink:href="#mfa79a9d0ed" x="208.057676" y="343.948823" style="fill: #1b9e77; stroke: #1b9e77"/>
     <use xlink:href="#mfa79a9d0ed" x="209.963283" y="343.427629" style="fill: #1b9e77; stroke: #1b9e77"/>
     <use xlink:href="#mfa79a9d0ed" x="211.868891" y="346.450562" style="fill: #1b9e77; stroke: #1b9e77"/>
     <use xlink:href="#mfa79a9d0ed" x="213.774498" y="354.268493" style="fill: #1b9e77; stroke: #1b9e77"/>
     <use xlink:href="#mfa79a9d0ed" x="215.680106" y="331.231655" style="fill: #1b9e77; stroke: #1b9e77"/>
     <use xlink:href="#mfa79a9d0ed" x="217.585713" y="344.470019" style="fill: #1b9e77; stroke: #1b9e77"/>
     <use xlink:href="#mfa79a9d0ed" x="219.491321" y="338.215674" style="fill: #1b9e77; stroke: #1b9e77"/>
     <use xlink:href="#mfa79a9d0ed" x="221.396929" y="337.59024" style="fill: #1b9e77; stroke: #1b9e77"/>
     <use xlink:href="#mfa79a9d0ed" x="223.302536" y="335.088502" style="fill: #1b9e77; stroke: #1b9e77"/>
     <use xlink:href="#mfa79a9d0ed" x="225.208144" y="344.053063" style="fill: #1b9e77; stroke: #1b9e77"/>
     <use xlink:href="#mfa79a9d0ed" x="227.113751" y="334.671546" style="fill: #1b9e77; stroke: #1b9e77"/>
     <use xlink:href="#mfa79a9d0ed" x="229.019359" y="350.515886" style="fill: #1b9e77; stroke: #1b9e77"/>
     <use xlink:href="#mfa79a9d0ed" x="230.924966" y="337.694478" style="fill: #1b9e77; stroke: #1b9e77"/>
     <use xlink:href="#mfa79a9d0ed" x="232.830574" y="336.652088" style="fill: #1b9e77; stroke: #1b9e77"/>
     <use xlink:href="#mfa79a9d0ed" x="234.736181" y="331.023177" style="fill: #1b9e77; stroke: #1b9e77"/>
     <use xlink:href="#mfa79a9d0ed" x="236.641789" y="321.120462" style="fill: #1b9e77; stroke: #1b9e77"/>
     <use xlink:href="#mfa79a9d0ed" x="238.547396" y="308.716016" style="fill: #1b9e77; stroke: #1b9e77"/>
     <use xlink:href="#mfa79a9d0ed" x="240.453004" y="331.857089" style="fill: #1b9e77; stroke: #1b9e77"/>
     <use xlink:href="#mfa79a9d0ed" x="242.358611" y="345.303931" style="fill: #1b9e77; stroke: #1b9e77"/>
     <use xlink:href="#mfa79a9d0ed" x="244.264219" y="355.832079" style="fill: #1b9e77; stroke: #1b9e77"/>
     <use xlink:href="#mfa79a9d0ed" x="246.169827" y="314.76188" style="fill: #1b9e77; stroke: #1b9e77"/>
     <use xlink:href="#mfa79a9d0ed" x="259.470967" y="359.688926" style="fill: #1b9e77; stroke: #1b9e77"/>
     <use xlink:href="#mfa79a9d0ed" x="261.376575" y="360.522838" style="fill: #1b9e77; stroke: #1b9e77"/>
     <use xlink:href="#mfa79a9d0ed" x="263.282182" y="351.766754" style="fill: #1b9e77; stroke: #1b9e77"/>
     <use xlink:href="#mfa79a9d0ed" x="265.18779" y="353.434581" style="fill: #1b9e77; stroke: #1b9e77"/>
     <use xlink:href="#mfa79a9d0ed" x="267.093397" y="354.476971" style="fill: #1b9e77; stroke: #1b9e77"/>
     <use xlink:href="#mfa79a9d0ed" x="268.999005" y="359.688926" style="fill: #1b9e77; stroke: #1b9e77"/>
     <use xlink:href="#mfa79a9d0ed" x="270.904612" y="357.291427" style="fill: #1b9e77; stroke: #1b9e77"/>
     <use xlink:href="#mfa79a9d0ed" x="272.81022" y="354.372732" style="fill: #1b9e77; stroke: #1b9e77"/>
     <use xlink:href="#mfa79a9d0ed" x="274.715828" y="354.268493" style="fill: #1b9e77; stroke: #1b9e77"/>
     <use xlink:href="#mfa79a9d0ed" x="276.621435" y="349.786212" style="fill: #1b9e77; stroke: #1b9e77"/>
     <use xlink:href="#mfa79a9d0ed" x="278.527043" y="342.802193" style="fill: #1b9e77; stroke: #1b9e77"/>
     <use xlink:href="#mfa79a9d0ed" x="280.43265" y="351.245561" style="fill: #1b9e77; stroke: #1b9e77"/>
     <use xlink:href="#mfa79a9d0ed" x="282.338258" y="355.936318" style="fill: #1b9e77; stroke: #1b9e77"/>
     <use xlink:href="#mfa79a9d0ed" x="284.243865" y="351.766754" style="fill: #1b9e77; stroke: #1b9e77"/>
     <use xlink:href="#mfa79a9d0ed" x="286.149473" y="356.249037" style="fill: #1b9e77; stroke: #1b9e77"/>
     <use xlink:href="#mfa79a9d0ed" x="288.05508" y="364.483924" style="fill: #1b9e77; stroke: #1b9e77"/>
     <use xlink:href="#mfa79a9d0ed" x="289.960688" y="358.438057" style="fill: #1b9e77; stroke: #1b9e77"/>
     <use xlink:href="#mfa79a9d0ed" x="291.866295" y="344.886975" style="fill: #1b9e77; stroke: #1b9e77"/>
     <use xlink:href="#mfa79a9d0ed" x="293.771903" y="338.945349" style="fill: #1b9e77; stroke: #1b9e77"/>
     <use xlink:href="#mfa79a9d0ed" x="307.073044" y="366.442668" style="fill: #1b9e77; stroke: #1b9e77"/>
     <use xlink:href="#mfa79a9d0ed" x="308.978651" y="366.106645" style="fill: #1b9e77; stroke: #1b9e77"/>
     <use xlink:href="#mfa79a9d0ed" x="310.884259" y="356.641991" style="fill: #1b9e77; stroke: #1b9e77"/>
     <use xlink:href="#mfa79a9d0ed" x="312.789866" y="347.289343" style="fill: #1b9e77; stroke: #1b9e77"/>
     <use xlink:href="#mfa79a9d0ed" x="314.695474" y="347.065328" style="fill: #1b9e77; stroke: #1b9e77"/>
     <use xlink:href="#mfa79a9d0ed" x="316.601081" y="343.649093" style="fill: #1b9e77; stroke: #1b9e77"/>
     <use xlink:href="#mfa79a9d0ed" x="318.506689" y="344.265136" style="fill: #1b9e77; stroke: #1b9e77"/>
     <use xlink:href="#mfa79a9d0ed" x="320.412296" y="344.545154" style="fill: #1b9e77; stroke: #1b9e77"/>
     <use xlink:href="#mfa79a9d0ed" x="322.317904" y="342.417007" style="fill: #1b9e77; stroke: #1b9e77"/>
     <use xlink:href="#mfa79a9d0ed" x="324.223511" y="336.592604" style="fill: #1b9e77; stroke: #1b9e77"/>
     <use xlink:href="#mfa79a9d0ed" x="326.129119" y="330.152161" style="fill: #1b9e77; stroke: #1b9e77"/>
     <use xlink:href="#mfa79a9d0ed" x="328.034726" y="336.256583" style="fill: #1b9e77; stroke: #1b9e77"/>
     <use xlink:href="#mfa79a9d0ed" x="329.940334" y="339.224788" style="fill: #1b9e77; stroke: #1b9e77"/>
     <use xlink:href="#mfa79a9d0ed" x="331.845942" y="330.040152" style="fill: #1b9e77; stroke: #1b9e77"/>
     <use xlink:href="#mfa79a9d0ed" x="333.751549" y="328.416039" style="fill: #1b9e77; stroke: #1b9e77"/>
     <use xlink:href="#mfa79a9d0ed" x="335.657157" y="325.67185" style="fill: #1b9e77; stroke: #1b9e77"/>
     <use xlink:href="#mfa79a9d0ed" x="337.562764" y="323.151676" style="fill: #1b9e77; stroke: #1b9e77"/>
     <use xlink:href="#mfa79a9d0ed" x="339.468372" y="315.143123" style="fill: #1b9e77; stroke: #1b9e77"/>
     <use xlink:href="#mfa79a9d0ed" x="341.373979" y="316.823239" style="fill: #1b9e77; stroke: #1b9e77"/>
     <use xlink:href="#mfa79a9d0ed" x="343.279587" y="307.13457" style="fill: #1b9e77; stroke: #1b9e77"/>
     <use xlink:href="#mfa79a9d0ed" x="345.185194" y="310.88683" style="fill: #1b9e77; stroke: #1b9e77"/>
     <use xlink:href="#mfa79a9d0ed" x="347.090802" y="313.126982" style="fill: #1b9e77; stroke: #1b9e77"/>
     <use xlink:href="#mfa79a9d0ed" x="348.996409" y="308.422658" style="fill: #1b9e77; stroke: #1b9e77"/>
     <use xlink:href="#mfa79a9d0ed" x="350.902017" y="306.630536" style="fill: #1b9e77; stroke: #1b9e77"/>
     <use xlink:href="#mfa79a9d0ed" x="352.807625" y="306.01449" style="fill: #1b9e77; stroke: #1b9e77"/>
     <use xlink:href="#mfa79a9d0ed" x="354.713232" y="306.294512" style="fill: #1b9e77; stroke: #1b9e77"/>
     <use xlink:href="#mfa79a9d0ed" x="356.61884" y="303.830341" style="fill: #1b9e77; stroke: #1b9e77"/>
     <use xlink:href="#mfa79a9d0ed" x="358.524447" y="303.326307" style="fill: #1b9e77; stroke: #1b9e77"/>
     <use xlink:href="#mfa79a9d0ed" x="360.430055" y="301.030152" style="fill: #1b9e77; stroke: #1b9e77"/>
     <use xlink:href="#mfa79a9d0ed" x="362.335662" y="301.478182" style="fill: #1b9e77; stroke: #1b9e77"/>
     <use xlink:href="#mfa79a9d0ed" x="364.24127" y="303.438313" style="fill: #1b9e77; stroke: #1b9e77"/>
     <use xlink:href="#mfa79a9d0ed" x="366.146877" y="302.430246" style="fill: #1b9e77; stroke: #1b9e77"/>
     <use xlink:href="#mfa79a9d0ed" x="368.052485" y="298.397965" style="fill: #1b9e77; stroke: #1b9e77"/>
     <use xlink:href="#mfa79a9d0ed" x="369.958092" y="299.18202" style="fill: #1b9e77; stroke: #1b9e77"/>
     <use xlink:href="#mfa79a9d0ed" x="371.8637" y="298.733989" style="fill: #1b9e77; stroke: #1b9e77"/>
     <use xlink:href="#mfa79a9d0ed" x="385.164841" y="374.395217" style="fill: #1b9e77; stroke: #1b9e77"/>
     <use xlink:href="#mfa79a9d0ed" x="387.070448" y="365.210583" style="fill: #1b9e77; stroke: #1b9e77"/>
     <use xlink:href="#mfa79a9d0ed" x="388.976056" y="362.970428" style="fill: #1b9e77; stroke: #1b9e77"/>
     <use xlink:href="#mfa79a9d0ed" x="390.881663" y="357.65006" style="fill: #1b9e77; stroke: #1b9e77"/>
     <use xlink:href="#mfa79a9d0ed" x="392.787271" y="360.674269" style="fill: #1b9e77; stroke: #1b9e77"/>
     <use xlink:href="#mfa79a9d0ed" x="394.692878" y="354.17782" style="fill: #1b9e77; stroke: #1b9e77"/>
     <use xlink:href="#mfa79a9d0ed" x="396.598486" y="354.73786" style="fill: #1b9e77; stroke: #1b9e77"/>
     <use xlink:href="#mfa79a9d0ed" x="398.504093" y="350.53757" style="fill: #1b9e77; stroke: #1b9e77"/>
     <use xlink:href="#mfa79a9d0ed" x="400.409701" y="344.097124" style="fill: #1b9e77; stroke: #1b9e77"/>
     <use xlink:href="#mfa79a9d0ed" x="402.315308" y="341.128919" style="fill: #1b9e77; stroke: #1b9e77"/>
     <use xlink:href="#mfa79a9d0ed" x="404.220916" y="335.584537" style="fill: #1b9e77; stroke: #1b9e77"/>
     <use xlink:href="#mfa79a9d0ed" x="406.126524" y="331.216235" style="fill: #1b9e77; stroke: #1b9e77"/>
     <use xlink:href="#mfa79a9d0ed" x="408.032131" y="333.008357" style="fill: #1b9e77; stroke: #1b9e77"/>
     <use xlink:href="#mfa79a9d0ed" x="409.937739" y="318.727373" style="fill: #1b9e77; stroke: #1b9e77"/>
     <use xlink:href="#mfa79a9d0ed" x="411.843346" y="316.319205" style="fill: #1b9e77; stroke: #1b9e77"/>
     <use xlink:href="#mfa79a9d0ed" x="413.748954" y="321.527566" style="fill: #1b9e77; stroke: #1b9e77"/>
     <use xlink:href="#mfa79a9d0ed" x="415.654561" y="310.88683" style="fill: #1b9e77; stroke: #1b9e77"/>
     <use xlink:href="#mfa79a9d0ed" x="417.560169" y="316.263202" style="fill: #1b9e77; stroke: #1b9e77"/>
     <use xlink:href="#mfa79a9d0ed" x="419.465776" y="321.079535" style="fill: #1b9e77; stroke: #1b9e77"/>
     <use xlink:href="#mfa79a9d0ed" x="432.766917" y="370.283202" style="fill: #1b9e77; stroke: #1b9e77"/>
     <use xlink:href="#mfa79a9d0ed" x="434.672524" y="356.984075" style="fill: #1b9e77; stroke: #1b9e77"/>
     <use xlink:href="#mfa79a9d0ed" x="436.578132" y="366.718488" style="fill: #1b9e77; stroke: #1b9e77"/>
     <use xlink:href="#mfa79a9d0ed" x="438.48374" y="356.367106" style="fill: #1b9e77; stroke: #1b9e77"/>
     <use xlink:href="#mfa79a9d0ed" x="440.389347" y="357.738149" style="fill: #1b9e77; stroke: #1b9e77"/>
     <use xlink:href="#mfa79a9d0ed" x="442.294955" y="352.870943" style="fill: #1b9e77; stroke: #1b9e77"/>
     <use xlink:href="#mfa79a9d0ed" x="444.200562" y="351.568451" style="fill: #1b9e77; stroke: #1b9e77"/>
     <use xlink:href="#mfa79a9d0ed" x="446.10617" y="352.596734" style="fill: #1b9e77; stroke: #1b9e77"/>
     <use xlink:href="#mfa79a9d0ed" x="448.011777" y="350.197408" style="fill: #1b9e77; stroke: #1b9e77"/>
     <use xlink:href="#mfa79a9d0ed" x="449.917385" y="346.152826" style="fill: #1b9e77; stroke: #1b9e77"/>
     <use xlink:href="#mfa79a9d0ed" x="451.822992" y="355.407373" style="fill: #1b9e77; stroke: #1b9e77"/>
     <use xlink:href="#mfa79a9d0ed" x="453.7286" y="350.128854" style="fill: #1b9e77; stroke: #1b9e77"/>
     <use xlink:href="#mfa79a9d0ed" x="455.634207" y="355.681583" style="fill: #1b9e77; stroke: #1b9e77"/>
     <use xlink:href="#mfa79a9d0ed" x="457.539815" y="334.636059" style="fill: #1b9e77; stroke: #1b9e77"/>
     <use xlink:href="#mfa79a9d0ed" x="459.445422" y="355.475926" style="fill: #1b9e77; stroke: #1b9e77"/>
     <use xlink:href="#mfa79a9d0ed" x="461.35103" y="281.782307" style="fill: #1b9e77; stroke: #1b9e77"/>
     <use xlink:href="#mfa79a9d0ed" x="463.256638" y="313.659085" style="fill: #1b9e77; stroke: #1b9e77"/>
     <use xlink:href="#mfa79a9d0ed" x="465.162245" y="288.226217" style="fill: #1b9e77; stroke: #1b9e77"/>
     <use xlink:href="#mfa79a9d0ed" x="467.067853" y="349.032018" style="fill: #1b9e77; stroke: #1b9e77"/>
     <use xlink:href="#mfa79a9d0ed" x="468.97346" y="295.218542" style="fill: #1b9e77; stroke: #1b9e77"/>
     <use xlink:href="#mfa79a9d0ed" x="470.879068" y="274.51578" style="fill: #1b9e77; stroke: #1b9e77"/>
     <use xlink:href="#mfa79a9d0ed" x="472.784675" y="226.32358" style="fill: #1b9e77; stroke: #1b9e77"/>
     <use xlink:href="#mfa79a9d0ed" x="486.085816" y="353.213704" style="fill: #1b9e77; stroke: #1b9e77"/>
     <use xlink:href="#mfa79a9d0ed" x="487.991423" y="361.165759" style="fill: #1b9e77; stroke: #1b9e77"/>
     <use xlink:href="#mfa79a9d0ed" x="489.897031" y="353.625017" style="fill: #1b9e77; stroke: #1b9e77"/>
     <use xlink:href="#mfa79a9d0ed" x="491.802639" y="364.730473" style="fill: #1b9e77; stroke: #1b9e77"/>
     <use xlink:href="#mfa79a9d0ed" x="493.708246" y="363.633638" style="fill: #1b9e77; stroke: #1b9e77"/>
     <use xlink:href="#mfa79a9d0ed" x="495.613854" y="355.27027" style="fill: #1b9e77; stroke: #1b9e77"/>
     <use xlink:href="#mfa79a9d0ed" x="497.519461" y="362.811012" style="fill: #1b9e77; stroke: #1b9e77"/>
     <use xlink:href="#mfa79a9d0ed" x="499.425069" y="361.645624" style="fill: #1b9e77; stroke: #1b9e77"/>
     <use xlink:href="#mfa79a9d0ed" x="501.330676" y="362.948116" style="fill: #1b9e77; stroke: #1b9e77"/>
     <use xlink:href="#mfa79a9d0ed" x="503.236284" y="361.097206" style="fill: #1b9e77; stroke: #1b9e77"/>
     <use xlink:href="#mfa79a9d0ed" x="505.141891" y="354.584747" style="fill: #1b9e77; stroke: #1b9e77"/>
     <use xlink:href="#mfa79a9d0ed" x="507.047499" y="353.350807" style="fill: #1b9e77; stroke: #1b9e77"/>
     <use xlink:href="#mfa79a9d0ed" x="508.953106" y="357.463939" style="fill: #1b9e77; stroke: #1b9e77"/>
     <use xlink:href="#mfa79a9d0ed" x="510.858714" y="353.487913" style="fill: #1b9e77; stroke: #1b9e77"/>
     <use xlink:href="#mfa79a9d0ed" x="512.764321" y="358.149462" style="fill: #1b9e77; stroke: #1b9e77"/>
     <use xlink:href="#mfa79a9d0ed" x="514.669929" y="361.234311" style="fill: #1b9e77; stroke: #1b9e77"/>
     <use xlink:href="#mfa79a9d0ed" x="516.575537" y="357.395389" style="fill: #1b9e77; stroke: #1b9e77"/>
     <use xlink:href="#mfa79a9d0ed" x="518.481144" y="354.99606" style="fill: #1b9e77; stroke: #1b9e77"/>
     <use xlink:href="#mfa79a9d0ed" x="520.386752" y="359.451955" style="fill: #1b9e77; stroke: #1b9e77"/>
     <use xlink:href="#mfa79a9d0ed" x="533.687892" y="355.544152" style="fill: #1b9e77; stroke: #1b9e77"/>
     <use xlink:href="#mfa79a9d0ed" x="535.5935" y="363.6198" style="fill: #1b9e77; stroke: #1b9e77"/>
     <use xlink:href="#mfa79a9d0ed" x="537.499107" y="360.389542" style="fill: #1b9e77; stroke: #1b9e77"/>
     <use xlink:href="#mfa79a9d0ed" x="539.404715" y="343.625615" style="fill: #1b9e77; stroke: #1b9e77"/>
     <use xlink:href="#mfa79a9d0ed" x="541.310322" y="366.404507" style="fill: #1b9e77; stroke: #1b9e77"/>
     <use xlink:href="#mfa79a9d0ed" x="543.21593" y="329.033756" style="fill: #1b9e77; stroke: #1b9e77"/>
     <use xlink:href="#mfa79a9d0ed" x="545.121538" y="332.542485" style="fill: #1b9e77; stroke: #1b9e77"/>
     <use xlink:href="#mfa79a9d0ed" x="547.027145" y="352.035423" style="fill: #1b9e77; stroke: #1b9e77"/>
     <use xlink:href="#mfa79a9d0ed" x="548.932753" y="349.640579" style="fill: #1b9e77; stroke: #1b9e77"/>
     <use xlink:href="#mfa79a9d0ed" x="550.83836" y="338.000506" style="fill: #1b9e77; stroke: #1b9e77"/>
     <use xlink:href="#mfa79a9d0ed" x="552.743968" y="343.514224" style="fill: #1b9e77; stroke: #1b9e77"/>
     <use xlink:href="#mfa79a9d0ed" x="554.649575" y="350.141826" style="fill: #1b9e77; stroke: #1b9e77"/>
     <use xlink:href="#mfa79a9d0ed" x="556.555183" y="320.289778" style="fill: #1b9e77; stroke: #1b9e77"/>
     <use xlink:href="#mfa79a9d0ed" x="558.46079" y="349.027941" style="fill: #1b9e77; stroke: #1b9e77"/>
     <use xlink:href="#mfa79a9d0ed" x="560.366398" y="336.10691" style="fill: #1b9e77; stroke: #1b9e77"/>
     <use xlink:href="#mfa79a9d0ed" x="562.272005" y="356.490955" style="fill: #1b9e77; stroke: #1b9e77"/>
     <use xlink:href="#mfa79a9d0ed" x="564.177613" y="349.584884" style="fill: #1b9e77; stroke: #1b9e77"/>
     <use xlink:href="#mfa79a9d0ed" x="566.08322" y="356.769424" style="fill: #1b9e77; stroke: #1b9e77"/>
     <use xlink:href="#mfa79a9d0ed" x="567.988828" y="365.958953" style="fill: #1b9e77; stroke: #1b9e77"/>
     <use xlink:href="#mfa79a9d0ed" x="569.894436" y="329.757781" style="fill: #1b9e77; stroke: #1b9e77"/>
     <use xlink:href="#mfa79a9d0ed" x="571.800043" y="313.328016" style="fill: #1b9e77; stroke: #1b9e77"/>
     <use xlink:href="#mfa79a9d0ed" x="573.705651" y="337.165095" style="fill: #1b9e77; stroke: #1b9e77"/>
     <use xlink:href="#mfa79a9d0ed" x="575.611258" y="316.669663" style="fill: #1b9e77; stroke: #1b9e77"/>
     <use xlink:href="#mfa79a9d0ed" x="577.516866" y="338.668836" style="fill: #1b9e77; stroke: #1b9e77"/>
     <use xlink:href="#mfa79a9d0ed" x="579.422473" y="333.767757" style="fill: #1b9e77; stroke: #1b9e77"/>
     <use xlink:href="#mfa79a9d0ed" x="581.328081" y="338.835918" style="fill: #1b9e77; stroke: #1b9e77"/>
     <use xlink:href="#mfa79a9d0ed" x="583.233688" y="330.481801" style="fill: #1b9e77; stroke: #1b9e77"/>
     <use xlink:href="#mfa79a9d0ed" x="585.139296" y="329.145142" style="fill: #1b9e77; stroke: #1b9e77"/>
     <use xlink:href="#mfa79a9d0ed" x="587.044903" y="350.531682" style="fill: #1b9e77; stroke: #1b9e77"/>
     <use xlink:href="#mfa79a9d0ed" x="588.950511" y="329.646389" style="fill: #1b9e77; stroke: #1b9e77"/>
     <use xlink:href="#mfa79a9d0ed" x="590.856118" y="317.950626" style="fill: #1b9e77; stroke: #1b9e77"/>
     <use xlink:href="#mfa79a9d0ed" x="592.761726" y="331.372909" style="fill: #1b9e77; stroke: #1b9e77"/>
     <use xlink:href="#mfa79a9d0ed" x="594.667334" y="316.335498" style="fill: #1b9e77; stroke: #1b9e77"/>
     <use xlink:href="#mfa79a9d0ed" x="596.572941" y="317.337992" style="fill: #1b9e77; stroke: #1b9e77"/>
     <use xlink:href="#mfa79a9d0ed" x="598.478549" y="356.769424" style="fill: #1b9e77; stroke: #1b9e77"/>
     <use xlink:href="#mfa79a9d0ed" x="611.779689" y="351.701258" style="fill: #1b9e77; stroke: #1b9e77"/>
     <use xlink:href="#mfa79a9d0ed" x="613.685297" y="353.817638" style="fill: #1b9e77; stroke: #1b9e77"/>
     <use xlink:href="#mfa79a9d0ed" x="615.590904" y="339.281474" style="fill: #1b9e77; stroke: #1b9e77"/>
     <use xlink:href="#mfa79a9d0ed" x="617.496512" y="355.599848" style="fill: #1b9e77; stroke: #1b9e77"/>
     <use xlink:href="#mfa79a9d0ed" x="619.402119" y="340.506741" style="fill: #1b9e77; stroke: #1b9e77"/>
     <use xlink:href="#mfa79a9d0ed" x="621.307727" y="340.116886" style="fill: #1b9e77; stroke: #1b9e77"/>
     <use xlink:href="#mfa79a9d0ed" x="623.213335" y="345.017965" style="fill: #1b9e77; stroke: #1b9e77"/>
     <use xlink:href="#mfa79a9d0ed" x="625.118942" y="355.76693" style="fill: #1b9e77; stroke: #1b9e77"/>
     <use xlink:href="#mfa79a9d0ed" x="627.02455" y="363.842576" style="fill: #1b9e77; stroke: #1b9e77"/>
     <use xlink:href="#mfa79a9d0ed" x="628.930157" y="362.283141" style="fill: #1b9e77; stroke: #1b9e77"/>
     <use xlink:href="#mfa79a9d0ed" x="630.835765" y="358.440248" style="fill: #1b9e77; stroke: #1b9e77"/>
     <use xlink:href="#mfa79a9d0ed" x="632.741372" y="343.569919" style="fill: #1b9e77; stroke: #1b9e77"/>
     <use xlink:href="#mfa79a9d0ed" x="634.64698" y="318.841733" style="fill: #1b9e77; stroke: #1b9e77"/>
     <use xlink:href="#mfa79a9d0ed" x="636.552587" y="327.864179" style="fill: #1b9e77; stroke: #1b9e77"/>
     <use xlink:href="#mfa79a9d0ed" x="638.458195" y="361.113565" style="fill: #1b9e77; stroke: #1b9e77"/>
     <use xlink:href="#mfa79a9d0ed" x="640.363802" y="370.414483" style="fill: #1b9e77; stroke: #1b9e77"/>
     <use xlink:href="#mfa79a9d0ed" x="642.26941" y="339.170083" style="fill: #1b9e77; stroke: #1b9e77"/>
     <use xlink:href="#mfa79a9d0ed" x="644.175017" y="347.969756" style="fill: #1b9e77; stroke: #1b9e77"/>
     <use xlink:href="#mfa79a9d0ed" x="646.080625" y="361.670505" style="fill: #1b9e77; stroke: #1b9e77"/>
    </g>
   </g>
   <g id="line2d_35">
    <path d="M 60.180625 299.126017 
L 673.980625 299.126017 
" clip-path="url(#p7a727438ee)" style="fill: none; stroke-dasharray: 2.96,1.28; stroke-dashoffset: 0; stroke: #999999; stroke-width: 0.8"/>
   </g>
   <g id="line2d_36">
    <path d="M 60.180625 374.647235 
L 673.980625 374.647235 
" clip-path="url(#p7a727438ee)" style="fill: none; stroke-dasharray: 0.8,1.32; stroke-dashoffset: 0; stroke: #999999; stroke-width: 0.8"/>
   </g>
   <g id="line2d_37">
    <path d="M 86.175017 382.678125 
L 86.175017 218.878125 
" clip-path="url(#p7a727438ee)" style="fill: none; stroke: #bbbbbb; stroke-width: 0.7; stroke-linecap: square"/>
   </g>
   <g id="line2d_38">
    <path d="M 169.983637 382.678125 
L 169.983637 218.878125 
" clip-path="url(#p7a727438ee)" style="fill: none; stroke: #bbbbbb; stroke-width: 0.7; stroke-linecap: square"/>
   </g>
   <g id="line2d_39">
    <path d="M 295.67751 382.678125 
L 295.67751 218.878125 
" clip-path="url(#p7a727438ee)" style="fill: none; stroke: #bbbbbb; stroke-width: 0.7; stroke-linecap: square"/>
   </g>
   <g id="line2d_40">
    <path d="M 421.371384 382.678125 
L 421.371384 218.878125 
" clip-path="url(#p7a727438ee)" style="fill: none; stroke: #bbbbbb; stroke-width: 0.7; stroke-linecap: square"/>
   </g>
   <g id="line2d_41">
    <path d="M 522.292359 382.678125 
L 522.292359 218.878125 
" clip-path="url(#p7a727438ee)" style="fill: none; stroke: #bbbbbb; stroke-width: 0.7; stroke-linecap: square"/>
   </g>
   <g id="patch_8">
    <path d="M 60.180625 382.678125 
L 60.180625 218.878125 
" style="fill: none; stroke: #000000; stroke-width: 0.8; stroke-linejoin: miter; stroke-linecap: square"/>
   </g>
   <g id="patch_9">
    <path d="M 673.980625 382.678125 
L 673.980625 218.878125 
" style="fill: none; stroke: #000000; stroke-width: 0.8; stroke-linejoin: miter; stroke-linecap: square"/>
   </g>
   <g id="patch_10">
    <path d="M 60.180625 382.678125 
L 673.980625 382.678125 
" style="fill: none; stroke: #000000; stroke-width: 0.8; stroke-linejoin: miter; stroke-linecap: square"/>
   </g>
   <g id="patch_11">
    <path d="M 60.180625 218.878125 
L 673.980625 218.878125 
" style="fill: none; stroke: #000000; stroke-width: 0.8; stroke-linejoin: miter; stroke-linecap: square"/>
   </g>
  </g>
 </g>
 <defs>
  <clipPath id="p05ffb2166c">
   <rect x="60.180625" y="22.318125" width="613.8" height="163.8"/>
  </clipPath>
  <clipPath id="p7a727438ee">
   <rect x="60.180625" y="218.878125" width="613.8" height="163.8"/>
  </clipPath>
 </defs>
</svg>
