<svg class="main-svg" xmlns="http://www.w3.org/2000/svg" xmlns:xlink="http://www.w3.org/1999/xlink" width="648" height="360" style="" viewBox="0 0 648 360"><rect x="0" y="0" width="648" height="360" style="fill: rgb(255, 255, 255); fill-opacity: 1;"/><defs id="defs-69c7d2"><g class="clips"><clipPath id="clip69c7d2xyplot" class="plotclip"><rect width="464" height="244"/></clipPath><clipPath class="axesclip" id="clip69c7d2x"><rect x="64" y="0" width="464" height="360"/></clipPath><clipPath class="axesclip" id="clip69c7d2y"><rect x="0" y="60" width="648" height="244"/></clipPath><clipPath class="axesclip" id="clip69c7d2xy"><rect x="64" y="60" width="464" height="244"/></clipPath></g><g class="gradients"/><g class="patterns"/></defs><g class="bglayer"/><g class="layer-below"><g class="imagelayer"/><g class="shapelayer"/></g><g class="cartesianlayer"><g class="subplot xy"><g class="layer-subplot"><g class="shapelayer"/><g class="imagelayer"/></g><g class="minor-gridlayer"><g class="x"/><g class="y"/></g><g class="gridlayer"><g class="x"/><g class="y"><path class="ygrid crisp" transform="translate(0,286.1)" d="M64,0h464" style="stroke: rgb(233, 236, 239); stroke-opacity: 1; stroke-width: 0.6px;"/><path class="ygrid crisp" transform="translate(0,234.68)" d="M64,0h464" style="stroke: rgb(233, 236, 239); stroke-opacity: 1; stroke-width: 0.6px;"/><path class="ygrid crisp" transform="translate(0,183.26999999999998)" d="M64,0h464" style="stroke: rgb(233, 236, 239); stroke-opacity: 1; stroke-width: 0.6px;"/><path class="ygrid crisp" transform="translate(0,131.85)" d="M64,0h464" style="stroke: rgb(233, 236, 239); stroke-opacity: 1; stroke-width: 0.6px;"/><path class="ygrid crisp" transform="translate(0,80.43)" d="M64,0h464" style="stroke: rgb(233, 236, 239); stroke-opacity: 1; stroke-width: 0.6px;"/></g></g><g class="zerolinelayer"/><g class="layer-between"><g class="shapelayer"/><g class="imagelayer"/></g><path class="xlines-below"/><path class="ylines-below"/><g class="overlines-below"/><g class="xaxislayer-below"/><g class="yaxislayer-below"/><g class="overaxes-below"/><g class="overplot"><g class="xy" transform="translate(64,60)" clip-path="url(#clip69c7d2xyplot)"><g class="scatterlayer mlayer"><g class="trace scatter traceb93697" style="stroke-miterlimit: 2; opacity: 1;"><g class="fills"/><g class="errorbars"/><g class="lines"><path class="js-line" d="M27.58,188.62L348,16.58" style="vector-effect: none; fill: none; stroke: rgb(37, 99, 235); stroke-opacity: 1; stroke-width: 1.8px; opacity: 1;"/></g><g class="points"><path class="point" transform="translate(27.58,188.62)" d="M3.5,0A3.5,3.5 0 1,1 0,-3.5A3.5,3.5 0 0,1 3.5,0Z" style="opacity: 1; stroke-width: 0px; fill: rgb(37, 99, 235); fill-opacity: 1;"/><path class="point" transform="translate(348,16.58)" d="M3.5,0A3.5,3.5 0 1,1 0,-3.5A3.5,3.5 0 0,1 3.5,0Z" style="opacity: 1; stroke-width: 0px; fill: rgb(37, 99, 235); fill-opacity: 1;"/></g><g class="text"/></g><g class="trace scatter traced57897" style="stroke-miterlimit: 2; opacity: 1;"><g class="fills"/><g class="errorbars"/><g class="lines"><path class="js-line" d="M27.58,225.13L348,225.08" style="vector-effect: none; fill: none; stroke: rgb(217, 119, 6); stroke-opacity: 1; stroke-width: 1.8px; opacity: 1;"/></g><g class="points"><path class="point" transform="translate(27.58,225.13)" d="M3.5,0A3.5,3.5 0 1,1 0,-3.5A3.5,3.5 0 0,1 3.5,0Z" style="opacity: 1; stroke-width: 0px; fill: rgb(217, 119, 6); fill-opacity: 1;"/><path class="point" transform="translate(348,225.08)" d="M3.5,0A3.5,3.5 0 1,1 0,-3.5A3.5,3.5 0 0,1 3.5,0Z" style="opacity: 1; stroke-width: 0px; fill: rgb(217, 119, 6); fill-opacity: 1;"/></g><g class="text"/></g><g class="trace scatter trace942f88" style="stroke-miterlimit: 2; opacity: 1;"><g class="fills"/><g class="errorbars"/><g class="lines"><path class="js-line" d="M27.58,223.83L348,223.44" style="vector-effect: none; fill: none; stroke: rgb(5, 150, 105); stroke-opacity: 1; stroke-width: 1.8px; opacity: 1;"/></g><g class="points"><path class="point" transform="translate(27.58,223.83)" d="M3.5,0A3.5,3.5 0 1,1 0,-3.5A3.5,3.5 0 0,1 3.5,0Z" style="opacity: 1; stroke-width: 0px; fill: rgb(5, 150, 105); fill-opacity: 1;"/><path class="point" transform="translate(348,223.44)" d="M3.5,0A3.5,3.5 0 1,1 0,-3.5A3.5,3.5 0 0,1 3.5,0Z" style="opacity: 1; stroke-width: 0px; fill: rgb(5, 150, 105); fill-opacity: 1;"/></g><g class="text"/></g><g class="trace scatter tracec40e72" style="stroke-miterlimit: 2; opacity: 1;"><g class="fills"/><g class="errorbars"/><g class="lines"><path class="js-line" d="M27.58,221.11L348,227.43" style="vector-effect: none; fill: none; stroke: rgb(220, 38, 38); stroke-opacity: 1; stroke-width: 1.8px; opacity: 1;"/></g><g class="points"><path class="point" transform="translate(27.58,221.11)" d="M3.5,0A3.5,3.5 0 1,1 0,-3.5A3.5,3.5 0 0,1 3.5,0Z" style="opacity: 1; stroke-width: 0px; fill: rgb(220, 38, 38); fill-opacity: 1;"/><path class="point" transform="translate(348,227.43)" d="M3.5,0A3.5,3.5 0 1,1 0,-3.5A3.5,3.5 0 0,1 3.5,0Z" style="opacity: 1; stroke-width: 0px; fill: rgb(220, 38, 38); fill-opacity: 1;"/></g><g class="text"/></g><g class="trace scatter tracea2a9b3" style="stroke-miterlimit: 2; opacity: 1;"><g class="fills"/><g class="errorbars"/><g class="lines"><path class="js-line" d="M348,186.72" style="vector-effect: none; fill: none; stroke: rgb(124, 58, 237); stroke-opacity: 1; stroke-width: 1.8px; opacity: 1;"/></g><g class="points"><path class="point" transform="translate(348,186.72)" d="M3.5,0A3.5,3.5 0 1,1 0,-3.5A3.5,3.5 0 0,1 3.5,0Z" style="opacity: 1; stroke-width: 0px; fill: rgb(124, 58, 237); fill-opacity: 1;"/></g><g class="text"/></g></g></g></g><path class="xlines-above crisp" d="M62.8,304.6H528" style="fill: none; stroke-width: 1.2px; stroke: rgb(73, 80, 87); stroke-opacity: 1;"/><path class="ylines-above crisp" d="M63.4,60V304" style="fill: none; stroke-width: 1.2px; stroke: rgb(73, 80, 87); stroke-opacity: 1;"/><g class="overlines-above"/><g class="xaxislayer-above"/><g class="yaxislayer-above"><path class="ytick ticks crisp" d="M62.8,0h-4" transform="translate(0,286.1)" style="stroke: rgb(73, 80, 87); stroke-opacity: 1; stroke-width: 1px;"/><path class="ytick ticks crisp" d="M62.8,0h-4" transform="translate(0,234.68)" style="stroke: rgb(73, 80, 87); stroke-opacity: 1; stroke-width: 1px;"/><path class="ytick ticks crisp" d="M62.8,0h-4" transform="translate(0,183.26999999999998)" style="stroke: rgb(73, 80, 87); stroke-opacity: 1; stroke-width: 1px;"/><path class="ytick ticks crisp" d="M62.8,0h-4" transform="translate(0,131.85)" style="stroke: rgb(73, 80, 87); stroke-opacity: 1; stroke-width: 1px;"/><path class="ytick ticks crisp" d="M62.8,0h-4" transform="translate(0,80.43)" style="stroke: rgb(73, 80, 87); stroke-opacity: 1; stroke-width: 1px;"/><g class="ytick"><text text-anchor="end" x="56.6" y="3.8499999999999996" transform="translate(0,286.1)" style="font-family: Inter, Helvetica, Arial, sans-serif; font-size: 11px; fill: rgb(108, 117, 125); fill-opacity: 1; white-space: pre; opacity: 1;">0</text></g><g class="ytick"><text text-anchor="end" x="56.6" y="3.8499999999999996" style="font-family: Inter, Helvetica, Arial, sans-serif; font-size: 11px; fill: rgb(108, 117, 125); fill-opacity: 1; white-space: pre; opacity: 1;" transform="translate(0,234.68)">1000</text></g><g class="ytick"><text text-anchor="end" x="56.6" y="3.8499999999999996" style="font-family: Inter, Helvetica, Arial, sans-serif; font-size: 11px; fill: rgb(108, 117, 125); fill-opacity: 1; white-space: pre; opacity: 1;" transform="translate(0,183.26999999999998)">2000</text></g><g class="ytick"><text text-anchor="end" x="56.6" y="3.8499999999999996" style="font-family: Inter, Helvetica, Arial, sans-serif; font-size: 11px; fill: rgb(108, 117, 125); fill-opacity: 1; white-space: pre; opacity: 1;" transform="translate(0,131.85)">3000</text></g><g class="ytick"><text text-anchor="end" x="56.6" y="3.8499999999999996" style="font-family: Inter, Helvetica, Arial, sans-serif; font-size: 11px; fill: rgb(108, 117, 125); fill-opacity: 1; white-space: pre; opacity: 1;" transform="translate(0,80.43)">4000</text></g></g><g class="overaxes-above"/></g></g><g class="polarlayer"/><g class="smithlayer"/><g class="ternarylayer"/><g class="geolayer"/><g class="funnelarealayer"/><g class="pielayer"/><g class="iciclelayer"/><g class="treemaplayer"/><g class="sunburstlayer"/><g class="glimages"/><defs id="topdefs-69c7d2"><g class="clips"/></defs><g class="layer-above"><g class="imagelayer"/><g class="shapelayer"><g class="shape-group" data-index="0" clip-path="url(#clip69c7d2y)"><path data-index="0" fill-rule="evenodd" d="M64,286.1L528,286.1" style="opacity: 1; stroke: rgb(73, 80, 87); stroke-opacity: 1; fill: rgb(0, 0, 0); fill-opacity: 0; stroke-width: 0.8px;"/></g></g></g><g class="infolayer"><g class="g-gtitle"><text class="gtitle" x="0" y="10.800000000000011" text-anchor="start" dy="0.7em" style="opacity: 1; font-size: 15px; fill: rgb(33, 37, 41); fill-opacity: 1; white-space: pre;">V5 canonical: per-game scores at end-of-task evaluation points</text></g><g class="g-xtitle"><text class="xtitle" x="296" y="353.2" text-anchor="middle" style="opacity: 1; font-family: Inter, Helvetica, Arial, sans-serif; font-size: 13px; fill: rgb(33, 37, 41); fill-opacity: 1; white-space: pre;">After task</text></g><g class="g-ytitle" transform="translate(-4.2060546875,0)"><text class="ytitle" transform="rotate(-90,27.799999999999997,182)" x="27.799999999999997" y="182" text-anchor="middle" style="opacity: 1; font-family: Inter, Helvetica, Arial, sans-serif; font-size: 13px; fill: rgb(33, 37, 41); fill-opacity: 1; white-space: pre;">Greedy-100 score</text></g><g class="annotation" data-index="0" style="opacity: 1;"><g class="annotation-text-g" transform="rotate(0,444.5,76.58)"><g class="cursor-pointer" transform="translate(420,68)"><rect class="bg" x="0.5" y="0.5" width="48" height="17" style="stroke-width: 1px; stroke: rgb(0, 0, 0); stroke-opacity: 0; fill: rgb(0, 0, 0); fill-opacity: 0;"/><text class="annotation-text" text-anchor="middle" x="24.4375" y="13" style="font-family: Inter, Helvetica, Arial, sans-serif; font-size: 12px; fill: rgb(37, 99, 235); fill-opacity: 1; white-space: pre;"><tspan style="font-weight:bold">Q*bert</tspan></text></g></g></g><g class="annotation" data-index="1" style="opacity: 1;"><g class="annotation-text-g" transform="rotate(0,439,274.77)"><g class="cursor-pointer" transform="translate(420,266)"><rect class="bg" x="0.5" y="0.5" width="37" height="17" style="stroke-width: 1px; stroke: rgb(0, 0, 0); stroke-opacity: 0; fill: rgb(0, 0, 0); fill-opacity: 0;"/><text class="annotation-text" text-anchor="middle" x="19.09375" y="13" style="font-family: Inter, Helvetica, Arial, sans-serif; font-size: 12px; fill: rgb(217, 119, 6); fill-opacity: 1; white-space: pre;"><tspan style="font-weight:bold">Pong</tspan></text></g></g></g><g class="annotation" data-index="2" style="opacity: 1;"><g class="annotation-text-g" transform="rotate(0,453,262.12)"><g class="cursor-pointer" transform="translate(420,253)"><rect class="bg" x="0.5" y="0.5" width="65" height="17" style="stroke-width: 1px; stroke: rgb(0, 0, 0); stroke-opacity: 0; fill: rgb(0, 0, 0); fill-opacity: 0;"/><text class="annotation-text" text-anchor="middle" x="32.75" y="13" style="font-family: Inter, Helvetica, Arial, sans-serif; font-size: 12px; fill: rgb(5, 150, 105); fill-opacity: 1; white-space: pre;"><tspan style="font-weight:bold">Breakout</tspan></text></g></g></g><g class="annotation" data-index="3" style="opacity: 1;"><g class="annotation-text-g" transform="rotate(0,445,287.43)"><g class="cursor-pointer" transform="translate(420,278)"><rect class="bg" x="0.5" y="0.5" width="49" height="17" style="stroke-width: 1px; stroke: rgb(0, 0, 0); stroke-opacity: 0; fill: rgb(0, 0, 0); fill-opacity: 0;"/><text class="annotation-text" text-anchor="middle" x="25.203125" y="13" style="font-family: Inter, Helvetica, Arial, sans-serif; font-size: 12px; fill: rgb(220, 38, 38); fill-opacity: 1; white-space: pre;"><tspan style="font-weight:bold">Boxing</tspan></text></g></g></g><g class="annotation" data-index="4" style="opacity: 1;"><g class="annotation-text-g" transform="rotate(0,474,246.72)"><g class="cursor-pointer" transform="translate(420,238)"><rect class="bg" x="0.5" y="0.5" width="107" height="17" style="stroke-width: 1px; stroke: rgb(0, 0, 0); stroke-opacity: 0; fill: rgb(0, 0, 0); fill-opacity: 0;"/><text class="annotation-text" text-anchor="middle" x="53.75" y="13" style="font-family: Inter, Helvetica, Arial, sans-serif; font-size: 12px; fill: rgb(124, 58, 237); fill-opacity: 1; white-space: pre;"><tspan style="font-weight:bold">Space Invaders</tspan></text></g></g></g><g class="annotation" data-index="5" style="opacity: 1;"><g class="annotation-text-g" transform="rotate(0,282.5,252.43)"><g class="cursor-pointer" transform="translate(203,236)"><rect class="bg" x="0.5" y="0.5" width="158" height="31" style="stroke-width: 1px; stroke: rgb(0, 0, 0); stroke-opacity: 0; fill: rgb(255, 255, 255); fill-opacity: 0.85;"/><text class="annotation-text" text-anchor="middle" x="79.34375" y="13" style="font-family: Inter, Helvetica, Arial, sans-serif; font-size: 10px; fill: rgb(220, 38, 38); fill-opacity: 1; white-space: pre;"><tspan class="line" dy="0em" x="79.34375" y="13">Boxing: -25.8</tspan><tspan class="line" dy="1.3em" x="79.34375" y="13">(forgotten after consolidation)</tspan></text></g></g><g class="annotation-arrow-g" style="opacity: 1;"><path d="M362,252.43L412,287.43" style="stroke-width: 1px; stroke: rgb(73, 80, 87); stroke-opacity: 1; stroke-dasharray: 0px, 0px, 61.0328px, 61.0328px;"/></g></g></g></svg>