<?xml version="1.0" encoding="utf-8" standalone="no"?>
<!DOCTYPE svg PUBLIC "-//W3C//DTD SVG 1.1//EN"
  "http://www.w3.org/Graphics/SVG/1.1/DTD/svg11.dtd">
<svg xmlns:xlink="http://www.w3.org/1999/xlink" width="1516.125625pt" height="361.18419pt" viewBox="0 0 1516.125625 361.18419" xmlns="http://www.w3.org/2000/svg" version="1.1">
 <metadata>
  <rdf:RDF xmlns:dc="http://purl.org/dc/elements/1.1/" xmlns:cc="http://creativecommons.org/ns#" xmlns:rdf="http://www.w3.org/1999/02/22-rdf-syntax-ns#">
   <cc:Work>
    <dc:type rdf:resource="http://purl.org/dc/dcmitype/StillImage"/>
    <dc:date>2026-07-14T03:19:18.726215</dc:date>
    <dc:format>image/svg+xml</dc:format>
    <dc:creator>
     <cc:Agent>
      <dc:title>Matplotlib v3.7.1, https://matplotlib.org/</dc:title>
     </cc:Agent>
    </dc:creator>
   </cc:Work>
  </rdf:RDF>
 </metadata>
 <defs>
  <style type="text/css">*{stroke-linejoin: round; stroke-linecap: butt}</style>
 </defs>
 <g id="figure_1">
  <g id="patch_1">
   <path d="M 0 361.18419 
L 1516.125625 361.18419 
L 1516.125625 0 
L 0 0 
z
" style="fill: #ffffff"/>
  </g>
  <g id="axes_1">
   <g id="patch_2">
    <path d="M 46.965625 288.430125 
L 1508.925625 288.430125 
L 1508.925625 22.318125 
L 46.965625 22.318125 
z
" style="fill: #ffffff"/>
   </g>
   <g id="line2d_1">
    <path d="M 46.965625 34.990125 
L 1508.925625 34.990125 
" clip-path="url(#pa57c5032ad)" style="fill: none; stroke-dasharray: 4.44,1.92; stroke-dashoffset: 0; stroke: #6c757d; stroke-width: 1.2"/>
   </g>
   <g id="matplotlib.axis_1">
    <g id="xtick_1">
     <g id="line2d_2">
      <path d="M 140.267939 288.430125 
L 140.267939 22.318125 
" clip-path="url(#pa57c5032ad)" style="fill: none; stroke: #e9ecef; stroke-width: 0.7; stroke-linecap: square"/>
     </g>
     <g id="line2d_3">
      <defs>
       <path id="m10021c7d78" d="M 0 0 
L 0 3.5 
" style="stroke: #6c757d; stroke-width: 0.8"/>
      </defs>
      <g>
       <use xlink:href="#m10021c7d78" x="140.267939" y="288.430125" style="fill: #6c757d; stroke: #6c757d; stroke-width: 0.8"/>
      </g>
     </g>
     <g id="text_1">
      <!-- T1 -->
      <g style="fill: #6c757d" transform="translate(134.032783 303.028562) scale(0.1 -0.1)">
       <defs>
        <path id="DejaVuSans-54" d="M -19 4666 
L 3928 4666 
L 3928 4134 
L 2272 4134 
L 2272 0 
L 1638 0 
L 1638 4134 
L -19 4134 
L -19 4666 
z
" transform="scale(0.015625)"/>
        <path id="DejaVuSans-31" d="M 794 531 
L 1825 531 
L 1825 4091 
L 703 3866 
L 703 4441 
L 1819 4666 
L 2450 4666 
L 2450 531 
L 3481 531 
L 3481 0 
L 794 0 
L 794 531 
z
" transform="scale(0.015625)"/>
       </defs>
       <use xlink:href="#DejaVuSans-54"/>
       <use xlink:href="#DejaVuSans-31" x="61.083984"/>
      </g>
     </g>
    </g>
    <g id="xtick_2">
     <g id="line2d_4">
      <path d="M 207.391906 288.430125 
L 207.391906 22.318125 
" clip-path="url(#pa57c5032ad)" style="fill: none; stroke: #e9ecef; stroke-width: 0.7; stroke-linecap: square"/>
     </g>
     <g id="line2d_5">
      <g>
       <use xlink:href="#m10021c7d78" x="207.391906" y="288.430125" style="fill: #6c757d; stroke: #6c757d; stroke-width: 0.8"/>
      </g>
     </g>
     <g id="text_2">
      <!-- T2 -->
      <g style="fill: #6c757d" transform="translate(201.15675 303.028562) scale(0.1 -0.1)">
       <defs>
        <path id="DejaVuSans-32" d="M 1228 531 
L 3431 531 
L 3431 0 
L 469 0 
L 469 531 
Q 828 903 1448 1529 
Q 2069 2156 2228 2338 
Q 2531 2678 2651 2914 
Q 2772 3150 2772 3378 
Q 2772 3750 2511 3984 
Q 2250 4219 1831 4219 
Q 1534 4219 1204 4116 
Q 875 4013 500 3803 
L 500 4441 
Q 881 4594 1212 4672 
Q 1544 4750 1819 4750 
Q 2544 4750 2975 4387 
Q 3406 4025 3406 3419 
Q 3406 3131 3298 2873 
Q 3191 2616 2906 2266 
Q 2828 2175 2409 1742 
Q 1991 1309 1228 531 
z
" transform="scale(0.015625)"/>
       </defs>
       <use xlink:href="#DejaVuSans-54"/>
       <use xlink:href="#DejaVuSans-32" x="61.083984"/>
      </g>
     </g>
    </g>
    <g id="xtick_3">
     <g id="line2d_6">
      <path d="M 274.515873 288.430125 
L 274.515873 22.318125 
" clip-path="url(#pa57c5032ad)" style="fill: none; stroke: #e9ecef; stroke-width: 0.7; stroke-linecap: square"/>
     </g>
     <g id="line2d_7">
      <g>
       <use xlink:href="#m10021c7d78" x="274.515873" y="288.430125" style="fill: #6c757d; stroke: #6c757d; stroke-width: 0.8"/>
      </g>
     </g>
     <g id="text_3">
      <!-- T3 -->
      <g style="fill: #6c757d" transform="translate(268.280717 303.028562) scale(0.1 -0.1)">
       <defs>
        <path id="DejaVuSans-33" d="M 2597 2516 
Q 3050 2419 3304 2112 
Q 3559 1806 3559 1356 
Q 3559 666 3084 287 
Q 2609 -91 1734 -91 
Q 1441 -91 1130 -33 
Q 819 25 488 141 
L 488 750 
Q 750 597 1062 519 
Q 1375 441 1716 441 
Q 2309 441 2620 675 
Q 2931 909 2931 1356 
Q 2931 1769 2642 2001 
Q 2353 2234 1838 2234 
L 1294 2234 
L 1294 2753 
L 1863 2753 
Q 2328 2753 2575 2939 
Q 2822 3125 2822 3475 
Q 2822 3834 2567 4026 
Q 2313 4219 1838 4219 
Q 1578 4219 1281 4162 
Q 984 4106 628 3988 
L 628 4550 
Q 988 4650 1302 4700 
Q 1616 4750 1894 4750 
Q 2613 4750 3031 4423 
Q 3450 4097 3450 3541 
Q 3450 3153 3228 2886 
Q 3006 2619 2597 2516 
z
" transform="scale(0.015625)"/>
       </defs>
       <use xlink:href="#DejaVuSans-54"/>
       <use xlink:href="#DejaVuSans-33" x="61.083984"/>
      </g>
     </g>
    </g>
    <g id="xtick_4">
     <g id="line2d_8">
      <path d="M 341.63984 288.430125 
L 341.63984 22.318125 
" clip-path="url(#pa57c5032ad)" style="fill: none; stroke: #e9ecef; stroke-width: 0.7; stroke-linecap: square"/>
     </g>
     <g id="line2d_9">
      <g>
       <use xlink:href="#m10021c7d78" x="341.63984" y="288.430125" style="fill: #6c757d; stroke: #6c757d; stroke-width: 0.8"/>
      </g>
     </g>
     <g id="text_4">
      <!-- T4 -->
      <g style="fill: #6c757d" transform="translate(335.404684 303.028562) scale(0.1 -0.1)">
       <defs>
        <path id="DejaVuSans-34" d="M 2419 4116 
L 825 1625 
L 2419 1625 
L 2419 4116 
z
M 2253 4666 
L 3047 4666 
L 3047 1625 
L 3713 1625 
L 3713 1100 
L 3047 1100 
L 3047 0 
L 2419 0 
L 2419 1100 
L 313 1100 
L 313 1709 
L 2253 4666 
z
" transform="scale(0.015625)"/>
       </defs>
       <use xlink:href="#DejaVuSans-54"/>
       <use xlink:href="#DejaVuSans-34" x="61.083984"/>
      </g>
     </g>
    </g>
    <g id="xtick_5">
     <g id="line2d_10">
      <path d="M 408.763807 288.430125 
L 408.763807 22.318125 
" clip-path="url(#pa57c5032ad)" style="fill: none; stroke: #e9ecef; stroke-width: 0.7; stroke-linecap: square"/>
     </g>
     <g id="line2d_11">
      <g>
       <use xlink:href="#m10021c7d78" x="408.763807" y="288.430125" style="fill: #6c757d; stroke: #6c757d; stroke-width: 0.8"/>
      </g>
     </g>
     <g id="text_5">
      <!-- T5 -->
      <g style="fill: #6c757d" transform="translate(402.528651 303.028562) scale(0.1 -0.1)">
       <defs>
        <path id="DejaVuSans-35" d="M 691 4666 
L 3169 4666 
L 3169 4134 
L 1269 4134 
L 1269 2991 
Q 1406 3038 1543 3061 
Q 1681 3084 1819 3084 
Q 2600 3084 3056 2656 
Q 3513 2228 3513 1497 
Q 3513 744 3044 326 
Q 2575 -91 1722 -91 
Q 1428 -91 1123 -41 
Q 819 9 494 109 
L 494 744 
Q 775 591 1075 516 
Q 1375 441 1709 441 
Q 2250 441 2565 725 
Q 2881 1009 2881 1497 
Q 2881 1984 2565 2268 
Q 2250 2553 1709 2553 
Q 1456 2553 1204 2497 
Q 953 2441 691 2322 
L 691 4666 
z
" transform="scale(0.015625)"/>
       </defs>
       <use xlink:href="#DejaVuSans-54"/>
       <use xlink:href="#DejaVuSans-35" x="61.083984"/>
      </g>
     </g>
    </g>
    <g id="xtick_6">
     <g id="line2d_12">
      <path d="M 475.887774 288.430125 
L 475.887774 22.318125 
" clip-path="url(#pa57c5032ad)" style="fill: none; stroke: #e9ecef; stroke-width: 0.7; stroke-linecap: square"/>
     </g>
     <g id="line2d_13">
      <g>
       <use xlink:href="#m10021c7d78" x="475.887774" y="288.430125" style="fill: #6c757d; stroke: #6c757d; stroke-width: 0.8"/>
      </g>
     </g>
     <g id="text_6">
      <!-- T6 -->
      <g style="fill: #6c757d" transform="translate(469.652618 303.028562) scale(0.1 -0.1)">
       <defs>
        <path id="DejaVuSans-36" d="M 2113 2584 
Q 1688 2584 1439 2293 
Q 1191 2003 1191 1497 
Q 1191 994 1439 701 
Q 1688 409 2113 409 
Q 2538 409 2786 701 
Q 3034 994 3034 1497 
Q 3034 2003 2786 2293 
Q 2538 2584 2113 2584 
z
M 3366 4563 
L 3366 3988 
Q 3128 4100 2886 4159 
Q 2644 4219 2406 4219 
Q 1781 4219 1451 3797 
Q 1122 3375 1075 2522 
Q 1259 2794 1537 2939 
Q 1816 3084 2150 3084 
Q 2853 3084 3261 2657 
Q 3669 2231 3669 1497 
Q 3669 778 3244 343 
Q 2819 -91 2113 -91 
Q 1303 -91 875 529 
Q 447 1150 447 2328 
Q 447 3434 972 4092 
Q 1497 4750 2381 4750 
Q 2619 4750 2861 4703 
Q 3103 4656 3366 4563 
z
" transform="scale(0.015625)"/>
       </defs>
       <use xlink:href="#DejaVuSans-54"/>
       <use xlink:href="#DejaVuSans-36" x="61.083984"/>
      </g>
     </g>
    </g>
    <g id="xtick_7">
     <g id="line2d_14">
      <path d="M 543.011741 288.430125 
L 543.011741 22.318125 
" clip-path="url(#pa57c5032ad)" style="fill: none; stroke: #e9ecef; stroke-width: 0.7; stroke-linecap: square"/>
     </g>
     <g id="line2d_15">
      <g>
       <use xlink:href="#m10021c7d78" x="543.011741" y="288.430125" style="fill: #6c757d; stroke: #6c757d; stroke-width: 0.8"/>
      </g>
     </g>
     <g id="text_7">
      <!-- T7 -->
      <g style="fill: #6c757d" transform="translate(536.776584 303.028562) scale(0.1 -0.1)">
       <defs>
        <path id="DejaVuSans-37" d="M 525 4666 
L 3525 4666 
L 3525 4397 
L 1831 0 
L 1172 0 
L 2766 4134 
L 525 4134 
L 525 4666 
z
" transform="scale(0.015625)"/>
       </defs>
       <use xlink:href="#DejaVuSans-54"/>
       <use xlink:href="#DejaVuSans-37" x="61.083984"/>
      </g>
     </g>
    </g>
    <g id="xtick_8">
     <g id="line2d_16">
      <path d="M 610.135708 288.430125 
L 610.135708 22.318125 
" clip-path="url(#pa57c5032ad)" style="fill: none; stroke: #e9ecef; stroke-width: 0.7; stroke-linecap: square"/>
     </g>
     <g id="line2d_17">
      <g>
       <use xlink:href="#m10021c7d78" x="610.135708" y="288.430125" style="fill: #6c757d; stroke: #6c757d; stroke-width: 0.8"/>
      </g>
     </g>
     <g id="text_8">
      <!-- T8 -->
      <g style="fill: #6c757d" transform="translate(603.900551 303.028562) scale(0.1 -0.1)">
       <defs>
        <path id="DejaVuSans-38" d="M 2034 2216 
Q 1584 2216 1326 1975 
Q 1069 1734 1069 1313 
Q 1069 891 1326 650 
Q 1584 409 2034 409 
Q 2484 409 2743 651 
Q 3003 894 3003 1313 
Q 3003 1734 2745 1975 
Q 2488 2216 2034 2216 
z
M 1403 2484 
Q 997 2584 770 2862 
Q 544 3141 544 3541 
Q 544 4100 942 4425 
Q 1341 4750 2034 4750 
Q 2731 4750 3128 4425 
Q 3525 4100 3525 3541 
Q 3525 3141 3298 2862 
Q 3072 2584 2669 2484 
Q 3125 2378 3379 2068 
Q 3634 1759 3634 1313 
Q 3634 634 3220 271 
Q 2806 -91 2034 -91 
Q 1263 -91 848 271 
Q 434 634 434 1313 
Q 434 1759 690 2068 
Q 947 2378 1403 2484 
z
M 1172 3481 
Q 1172 3119 1398 2916 
Q 1625 2713 2034 2713 
Q 2441 2713 2670 2916 
Q 2900 3119 2900 3481 
Q 2900 3844 2670 4047 
Q 2441 4250 2034 4250 
Q 1625 4250 1398 4047 
Q 1172 3844 1172 3481 
z
" transform="scale(0.015625)"/>
       </defs>
       <use xlink:href="#DejaVuSans-54"/>
       <use xlink:href="#DejaVuSans-38" x="61.083984"/>
      </g>
     </g>
    </g>
    <g id="xtick_9">
     <g id="line2d_18">
      <path d="M 677.259675 288.430125 
L 677.259675 22.318125 
" clip-path="url(#pa57c5032ad)" style="fill: none; stroke: #e9ecef; stroke-width: 0.7; stroke-linecap: square"/>
     </g>
     <g id="line2d_19">
      <g>
       <use xlink:href="#m10021c7d78" x="677.259675" y="288.430125" style="fill: #6c757d; stroke: #6c757d; stroke-width: 0.8"/>
      </g>
     </g>
     <g id="text_9">
      <!-- T9 -->
      <g style="fill: #6c757d" transform="translate(671.024518 303.028562) scale(0.1 -0.1)">
       <defs>
        <path id="DejaVuSans-39" d="M 703 97 
L 703 672 
Q 941 559 1184 500 
Q 1428 441 1663 441 
Q 2288 441 2617 861 
Q 2947 1281 2994 2138 
Q 2813 1869 2534 1725 
Q 2256 1581 1919 1581 
Q 1219 1581 811 2004 
Q 403 2428 403 3163 
Q 403 3881 828 4315 
Q 1253 4750 1959 4750 
Q 2769 4750 3195 4129 
Q 3622 3509 3622 2328 
Q 3622 1225 3098 567 
Q 2575 -91 1691 -91 
Q 1453 -91 1209 -44 
Q 966 3 703 97 
z
M 1959 2075 
Q 2384 2075 2632 2365 
Q 2881 2656 2881 3163 
Q 2881 3666 2632 3958 
Q 2384 4250 1959 4250 
Q 1534 4250 1286 3958 
Q 1038 3666 1038 3163 
Q 1038 2656 1286 2365 
Q 1534 2075 1959 2075 
z
" transform="scale(0.015625)"/>
       </defs>
       <use xlink:href="#DejaVuSans-54"/>
       <use xlink:href="#DejaVuSans-39" x="61.083984"/>
      </g>
     </g>
    </g>
    <g id="xtick_10">
     <g id="line2d_20">
      <path d="M 744.383642 288.430125 
L 744.383642 22.318125 
" clip-path="url(#pa57c5032ad)" style="fill: none; stroke: #e9ecef; stroke-width: 0.7; stroke-linecap: square"/>
     </g>
     <g id="line2d_21">
      <g>
       <use xlink:href="#m10021c7d78" x="744.383642" y="288.430125" style="fill: #6c757d; stroke: #6c757d; stroke-width: 0.8"/>
      </g>
     </g>
     <g id="text_10">
      <!-- T10 -->
      <g style="fill: #6c757d" transform="translate(734.967235 303.028562) scale(0.1 -0.1)">
       <defs>
        <path id="DejaVuSans-30" d="M 2034 4250 
Q 1547 4250 1301 3770 
Q 1056 3291 1056 2328 
Q 1056 1369 1301 889 
Q 1547 409 2034 409 
Q 2525 409 2770 889 
Q 3016 1369 3016 2328 
Q 3016 3291 2770 3770 
Q 2525 4250 2034 4250 
z
M 2034 4750 
Q 2819 4750 3233 4129 
Q 3647 3509 3647 2328 
Q 3647 1150 3233 529 
Q 2819 -91 2034 -91 
Q 1250 -91 836 529 
Q 422 1150 422 2328 
Q 422 3509 836 4129 
Q 1250 4750 2034 4750 
z
" transform="scale(0.015625)"/>
       </defs>
       <use xlink:href="#DejaVuSans-54"/>
       <use xlink:href="#DejaVuSans-31" x="61.083984"/>
       <use xlink:href="#DejaVuSans-30" x="124.707031"/>
      </g>
     </g>
    </g>
    <g id="xtick_11">
     <g id="line2d_22">
      <path d="M 811.507608 288.430125 
L 811.507608 22.318125 
" clip-path="url(#pa57c5032ad)" style="fill: none; stroke: #e9ecef; stroke-width: 0.7; stroke-linecap: square"/>
     </g>
     <g id="line2d_23">
      <g>
       <use xlink:href="#m10021c7d78" x="811.507608" y="288.430125" style="fill: #6c757d; stroke: #6c757d; stroke-width: 0.8"/>
      </g>
     </g>
     <g id="text_11">
      <!-- T11 -->
      <g style="fill: #6c757d" transform="translate(802.091202 303.028562) scale(0.1 -0.1)">
       <use xlink:href="#DejaVuSans-54"/>
       <use xlink:href="#DejaVuSans-31" x="61.083984"/>
       <use xlink:href="#DejaVuSans-31" x="124.707031"/>
      </g>
     </g>
    </g>
    <g id="xtick_12">
     <g id="line2d_24">
      <path d="M 878.631575 288.430125 
L 878.631575 22.318125 
" clip-path="url(#pa57c5032ad)" style="fill: none; stroke: #e9ecef; stroke-width: 0.7; stroke-linecap: square"/>
     </g>
     <g id="line2d_25">
      <g>
       <use xlink:href="#m10021c7d78" x="878.631575" y="288.430125" style="fill: #6c757d; stroke: #6c757d; stroke-width: 0.8"/>
      </g>
     </g>
     <g id="text_12">
      <!-- T12 -->
      <g style="fill: #6c757d" transform="translate(869.215169 303.028562) scale(0.1 -0.1)">
       <use xlink:href="#DejaVuSans-54"/>
       <use xlink:href="#DejaVuSans-31" x="61.083984"/>
       <use xlink:href="#DejaVuSans-32" x="124.707031"/>
      </g>
     </g>
    </g>
    <g id="xtick_13">
     <g id="line2d_26">
      <path d="M 945.755542 288.430125 
L 945.755542 22.318125 
" clip-path="url(#pa57c5032ad)" style="fill: none; stroke: #e9ecef; stroke-width: 0.7; stroke-linecap: square"/>
     </g>
     <g id="line2d_27">
      <g>
       <use xlink:href="#m10021c7d78" x="945.755542" y="288.430125" style="fill: #6c757d; stroke: #6c757d; stroke-width: 0.8"/>
      </g>
     </g>
     <g id="text_13">
      <!-- T13 -->
      <g style="fill: #6c757d" transform="translate(936.339136 303.028562) scale(0.1 -0.1)">
       <use xlink:href="#DejaVuSans-54"/>
       <use xlink:href="#DejaVuSans-31" x="61.083984"/>
       <use xlink:href="#DejaVuSans-33" x="124.707031"/>
      </g>
     </g>
    </g>
    <g id="xtick_14">
     <g id="line2d_28">
      <path d="M 1012.879509 288.430125 
L 1012.879509 22.318125 
" clip-path="url(#pa57c5032ad)" style="fill: none; stroke: #e9ecef; stroke-width: 0.7; stroke-linecap: square"/>
     </g>
     <g id="line2d_29">
      <g>
       <use xlink:href="#m10021c7d78" x="1012.879509" y="288.430125" style="fill: #6c757d; stroke: #6c757d; stroke-width: 0.8"/>
      </g>
     </g>
     <g id="text_14">
      <!-- T14 -->
      <g style="fill: #6c757d" transform="translate(1003.463103 303.028562) scale(0.1 -0.1)">
       <use xlink:href="#DejaVuSans-54"/>
       <use xlink:href="#DejaVuSans-31" x="61.083984"/>
       <use xlink:href="#DejaVuSans-34" x="124.707031"/>
      </g>
     </g>
    </g>
    <g id="xtick_15">
     <g id="line2d_30">
      <path d="M 1080.003476 288.430125 
L 1080.003476 22.318125 
" clip-path="url(#pa57c5032ad)" style="fill: none; stroke: #e9ecef; stroke-width: 0.7; stroke-linecap: square"/>
     </g>
     <g id="line2d_31">
      <g>
       <use xlink:href="#m10021c7d78" x="1080.003476" y="288.430125" style="fill: #6c757d; stroke: #6c757d; stroke-width: 0.8"/>
      </g>
     </g>
     <g id="text_15">
      <!-- T15 -->
      <g style="fill: #6c757d" transform="translate(1070.58707 303.028562) scale(0.1 -0.1)">
       <use xlink:href="#DejaVuSans-54"/>
       <use xlink:href="#DejaVuSans-31" x="61.083984"/>
       <use xlink:href="#DejaVuSans-35" x="124.707031"/>
      </g>
     </g>
    </g>
    <g id="xtick_16">
     <g id="line2d_32">
      <path d="M 1147.127443 288.430125 
L 1147.127443 22.318125 
" clip-path="url(#pa57c5032ad)" style="fill: none; stroke: #e9ecef; stroke-width: 0.7; stroke-linecap: square"/>
     </g>
     <g id="line2d_33">
      <g>
       <use xlink:href="#m10021c7d78" x="1147.127443" y="288.430125" style="fill: #6c757d; stroke: #6c757d; stroke-width: 0.8"/>
      </g>
     </g>
     <g id="text_16">
      <!-- T16 -->
      <g style="fill: #6c757d" transform="translate(1137.711037 303.028562) scale(0.1 -0.1)">
       <use xlink:href="#DejaVuSans-54"/>
       <use xlink:href="#DejaVuSans-31" x="61.083984"/>
       <use xlink:href="#DejaVuSans-36" x="124.707031"/>
      </g>
     </g>
    </g>
    <g id="xtick_17">
     <g id="line2d_34">
      <path d="M 1214.25141 288.430125 
L 1214.25141 22.318125 
" clip-path="url(#pa57c5032ad)" style="fill: none; stroke: #e9ecef; stroke-width: 0.7; stroke-linecap: square"/>
     </g>
     <g id="line2d_35">
      <g>
       <use xlink:href="#m10021c7d78" x="1214.25141" y="288.430125" style="fill: #6c757d; stroke: #6c757d; stroke-width: 0.8"/>
      </g>
     </g>
     <g id="text_17">
      <!-- T17 -->
      <g style="fill: #6c757d" transform="translate(1204.835004 303.028562) scale(0.1 -0.1)">
       <use xlink:href="#DejaVuSans-54"/>
       <use xlink:href="#DejaVuSans-31" x="61.083984"/>
       <use xlink:href="#DejaVuSans-37" x="124.707031"/>
      </g>
     </g>
    </g>
    <g id="xtick_18">
     <g id="line2d_36">
      <path d="M 1281.375377 288.430125 
L 1281.375377 22.318125 
" clip-path="url(#pa57c5032ad)" style="fill: none; stroke: #e9ecef; stroke-width: 0.7; stroke-linecap: square"/>
     </g>
     <g id="line2d_37">
      <g>
       <use xlink:href="#m10021c7d78" x="1281.375377" y="288.430125" style="fill: #6c757d; stroke: #6c757d; stroke-width: 0.8"/>
      </g>
     </g>
     <g id="text_18">
      <!-- T18 -->
      <g style="fill: #6c757d" transform="translate(1271.958971 303.028562) scale(0.1 -0.1)">
       <use xlink:href="#DejaVuSans-54"/>
       <use xlink:href="#DejaVuSans-31" x="61.083984"/>
       <use xlink:href="#DejaVuSans-38" x="124.707031"/>
      </g>
     </g>
    </g>
    <g id="xtick_19">
     <g id="line2d_38">
      <path d="M 1348.499344 288.430125 
L 1348.499344 22.318125 
" clip-path="url(#pa57c5032ad)" style="fill: none; stroke: #e9ecef; stroke-width: 0.7; stroke-linecap: square"/>
     </g>
     <g id="line2d_39">
      <g>
       <use xlink:href="#m10021c7d78" x="1348.499344" y="288.430125" style="fill: #6c757d; stroke: #6c757d; stroke-width: 0.8"/>
      </g>
     </g>
     <g id="text_19">
      <!-- T19 -->
      <g style="fill: #6c757d" transform="translate(1339.082938 303.028562) scale(0.1 -0.1)">
       <use xlink:href="#DejaVuSans-54"/>
       <use xlink:href="#DejaVuSans-31" x="61.083984"/>
       <use xlink:href="#DejaVuSans-39" x="124.707031"/>
      </g>
     </g>
    </g>
    <g id="xtick_20">
     <g id="line2d_40">
      <path d="M 1415.623311 288.430125 
L 1415.623311 22.318125 
" clip-path="url(#pa57c5032ad)" style="fill: none; stroke: #e9ecef; stroke-width: 0.7; stroke-linecap: square"/>
     </g>
     <g id="line2d_41">
      <g>
       <use xlink:href="#m10021c7d78" x="1415.623311" y="288.430125" style="fill: #6c757d; stroke: #6c757d; stroke-width: 0.8"/>
      </g>
     </g>
     <g id="text_20">
      <!-- T20 -->
      <g style="fill: #6c757d" transform="translate(1406.206905 303.028562) scale(0.1 -0.1)">
       <use xlink:href="#DejaVuSans-54"/>
       <use xlink:href="#DejaVuSans-32" x="61.083984"/>
       <use xlink:href="#DejaVuSans-30" x="124.707031"/>
      </g>
     </g>
    </g>
   </g>
   <g id="matplotlib.axis_2">
    <g id="ytick_1">
     <g id="line2d_42">
      <path d="M 46.965625 288.430125 
L 1508.925625 288.430125 
" clip-path="url(#pa57c5032ad)" style="fill: none; stroke: #e9ecef; stroke-width: 0.7; stroke-linecap: square"/>
     </g>
     <g id="line2d_43">
      <defs>
       <path id="me30ed56d7a" d="M 0 0 
L -3.5 0 
" style="stroke: #6c757d; stroke-width: 0.8"/>
      </defs>
      <g>
       <use xlink:href="#me30ed56d7a" x="46.965625" y="288.430125" style="fill: #6c757d; stroke: #6c757d; stroke-width: 0.8"/>
      </g>
     </g>
     <g id="text_21">
      <!-- 0 -->
      <g style="fill: #6c757d" transform="translate(33.603125 292.229344) scale(0.1 -0.1)">
       <use xlink:href="#DejaVuSans-30"/>
      </g>
     </g>
    </g>
    <g id="ytick_2">
     <g id="line2d_44">
      <path d="M 46.965625 237.742125 
L 1508.925625 237.742125 
" clip-path="url(#pa57c5032ad)" style="fill: none; stroke: #e9ecef; stroke-width: 0.7; stroke-linecap: square"/>
     </g>
     <g id="line2d_45">
      <g>
       <use xlink:href="#me30ed56d7a" x="46.965625" y="237.742125" style="fill: #6c757d; stroke: #6c757d; stroke-width: 0.8"/>
      </g>
     </g>
     <g id="text_22">
      <!-- 20 -->
      <g style="fill: #6c757d" transform="translate(27.240625 241.541344) scale(0.1 -0.1)">
       <use xlink:href="#DejaVuSans-32"/>
       <use xlink:href="#DejaVuSans-30" x="63.623047"/>
      </g>
     </g>
    </g>
    <g id="ytick_3">
     <g id="line2d_46">
      <path d="M 46.965625 187.054125 
L 1508.925625 187.054125 
" clip-path="url(#pa57c5032ad)" style="fill: none; stroke: #e9ecef; stroke-width: 0.7; stroke-linecap: square"/>
     </g>
     <g id="line2d_47">
      <g>
       <use xlink:href="#me30ed56d7a" x="46.965625" y="187.054125" style="fill: #6c757d; stroke: #6c757d; stroke-width: 0.8"/>
      </g>
     </g>
     <g id="text_23">
      <!-- 40 -->
      <g style="fill: #6c757d" transform="translate(27.240625 190.853344) scale(0.1 -0.1)">
       <use xlink:href="#DejaVuSans-34"/>
       <use xlink:href="#DejaVuSans-30" x="63.623047"/>
      </g>
     </g>
    </g>
    <g id="ytick_4">
     <g id="line2d_48">
      <path d="M 46.965625 136.366125 
L 1508.925625 136.366125 
" clip-path="url(#pa57c5032ad)" style="fill: none; stroke: #e9ecef; stroke-width: 0.7; stroke-linecap: square"/>
     </g>
     <g id="line2d_49">
      <g>
       <use xlink:href="#me30ed56d7a" x="46.965625" y="136.366125" style="fill: #6c757d; stroke: #6c757d; stroke-width: 0.8"/>
      </g>
     </g>
     <g id="text_24">
      <!-- 60 -->
      <g style="fill: #6c757d" transform="translate(27.240625 140.165344) scale(0.1 -0.1)">
       <use xlink:href="#DejaVuSans-36"/>
       <use xlink:href="#DejaVuSans-30" x="63.623047"/>
      </g>
     </g>
    </g>
    <g id="ytick_5">
     <g id="line2d_50">
      <path d="M 46.965625 85.678125 
L 1508.925625 85.678125 
" clip-path="url(#pa57c5032ad)" style="fill: none; stroke: #e9ecef; stroke-width: 0.7; stroke-linecap: square"/>
     </g>
     <g id="line2d_51">
      <g>
       <use xlink:href="#me30ed56d7a" x="46.965625" y="85.678125" style="fill: #6c757d; stroke: #6c757d; stroke-width: 0.8"/>
      </g>
     </g>
     <g id="text_25">
      <!-- 80 -->
      <g style="fill: #6c757d" transform="translate(27.240625 89.477344) scale(0.1 -0.1)">
       <use xlink:href="#DejaVuSans-38"/>
       <use xlink:href="#DejaVuSans-30" x="63.623047"/>
      </g>
     </g>
    </g>
    <g id="ytick_6">
     <g id="line2d_52">
      <path d="M 46.965625 34.990125 
L 1508.925625 34.990125 
" clip-path="url(#pa57c5032ad)" style="fill: none; stroke: #e9ecef; stroke-width: 0.7; stroke-linecap: square"/>
     </g>
     <g id="line2d_53">
      <g>
       <use xlink:href="#me30ed56d7a" x="46.965625" y="34.990125" style="fill: #6c757d; stroke: #6c757d; stroke-width: 0.8"/>
      </g>
     </g>
     <g id="text_26">
      <!-- 100 -->
      <g style="fill: #6c757d" transform="translate(20.878125 38.789344) scale(0.1 -0.1)">
       <use xlink:href="#DejaVuSans-31"/>
       <use xlink:href="#DejaVuSans-30" x="63.623047"/>
       <use xlink:href="#DejaVuSans-30" x="127.246094"/>
      </g>
     </g>
    </g>
    <g id="text_27">
     <!-- Success rate (%) -->
     <g style="fill: #212529" transform="translate(14.798438 197.488187) rotate(-90) scale(0.1 -0.1)">
      <defs>
       <path id="DejaVuSans-53" d="M 3425 4513 
L 3425 3897 
Q 3066 4069 2747 4153 
Q 2428 4238 2131 4238 
Q 1616 4238 1336 4038 
Q 1056 3838 1056 3469 
Q 1056 3159 1242 3001 
Q 1428 2844 1947 2747 
L 2328 2669 
Q 3034 2534 3370 2195 
Q 3706 1856 3706 1288 
Q 3706 609 3251 259 
Q 2797 -91 1919 -91 
Q 1588 -91 1214 -16 
Q 841 59 441 206 
L 441 856 
Q 825 641 1194 531 
Q 1563 422 1919 422 
Q 2459 422 2753 634 
Q 3047 847 3047 1241 
Q 3047 1584 2836 1778 
Q 2625 1972 2144 2069 
L 1759 2144 
Q 1053 2284 737 2584 
Q 422 2884 422 3419 
Q 422 4038 858 4394 
Q 1294 4750 2059 4750 
Q 2388 4750 2728 4690 
Q 3069 4631 3425 4513 
z
" transform="scale(0.015625)"/>
       <path id="DejaVuSans-75" d="M 544 1381 
L 544 3500 
L 1119 3500 
L 1119 1403 
Q 1119 906 1312 657 
Q 1506 409 1894 409 
Q 2359 409 2629 706 
Q 2900 1003 2900 1516 
L 2900 3500 
L 3475 3500 
L 3475 0 
L 2900 0 
L 2900 538 
Q 2691 219 2414 64 
Q 2138 -91 1772 -91 
Q 1169 -91 856 284 
Q 544 659 544 1381 
z
M 1991 3584 
L 1991 3584 
z
" transform="scale(0.015625)"/>
       <path id="DejaVuSans-63" d="M 3122 3366 
L 3122 2828 
Q 2878 2963 2633 3030 
Q 2388 3097 2138 3097 
Q 1578 3097 1268 2742 
Q 959 2388 959 1747 
Q 959 1106 1268 751 
Q 1578 397 2138 397 
Q 2388 397 2633 464 
Q 2878 531 3122 666 
L 3122 134 
Q 2881 22 2623 -34 
Q 2366 -91 2075 -91 
Q 1284 -91 818 406 
Q 353 903 353 1747 
Q 353 2603 823 3093 
Q 1294 3584 2113 3584 
Q 2378 3584 2631 3529 
Q 2884 3475 3122 3366 
z
" transform="scale(0.015625)"/>
       <path id="DejaVuSans-65" d="M 3597 1894 
L 3597 1613 
L 953 1613 
Q 991 1019 1311 708 
Q 1631 397 2203 397 
Q 2534 397 2845 478 
Q 3156 559 3463 722 
L 3463 178 
Q 3153 47 2828 -22 
Q 2503 -91 2169 -91 
Q 1331 -91 842 396 
Q 353 884 353 1716 
Q 353 2575 817 3079 
Q 1281 3584 2069 3584 
Q 2775 3584 3186 3129 
Q 3597 2675 3597 1894 
z
M 3022 2063 
Q 3016 2534 2758 2815 
Q 2500 3097 2075 3097 
Q 1594 3097 1305 2825 
Q 1016 2553 972 2059 
L 3022 2063 
z
" transform="scale(0.015625)"/>
       <path id="DejaVuSans-73" d="M 2834 3397 
L 2834 2853 
Q 2591 2978 2328 3040 
Q 2066 3103 1784 3103 
Q 1356 3103 1142 2972 
Q 928 2841 928 2578 
Q 928 2378 1081 2264 
Q 1234 2150 1697 2047 
L 1894 2003 
Q 2506 1872 2764 1633 
Q 3022 1394 3022 966 
Q 3022 478 2636 193 
Q 2250 -91 1575 -91 
Q 1294 -91 989 -36 
Q 684 19 347 128 
L 347 722 
Q 666 556 975 473 
Q 1284 391 1588 391 
Q 1994 391 2212 530 
Q 2431 669 2431 922 
Q 2431 1156 2273 1281 
Q 2116 1406 1581 1522 
L 1381 1569 
Q 847 1681 609 1914 
Q 372 2147 372 2553 
Q 372 3047 722 3315 
Q 1072 3584 1716 3584 
Q 2034 3584 2315 3537 
Q 2597 3491 2834 3397 
z
" transform="scale(0.015625)"/>
       <path id="DejaVuSans-20" transform="scale(0.015625)"/>
       <path id="DejaVuSans-72" d="M 2631 2963 
Q 2534 3019 2420 3045 
Q 2306 3072 2169 3072 
Q 1681 3072 1420 2755 
Q 1159 2438 1159 1844 
L 1159 0 
L 581 0 
L 581 3500 
L 1159 3500 
L 1159 2956 
Q 1341 3275 1631 3429 
Q 1922 3584 2338 3584 
Q 2397 3584 2469 3576 
Q 2541 3569 2628 3553 
L 2631 2963 
z
" transform="scale(0.015625)"/>
       <path id="DejaVuSans-61" d="M 2194 1759 
Q 1497 1759 1228 1600 
Q 959 1441 959 1056 
Q 959 750 1161 570 
Q 1363 391 1709 391 
Q 2188 391 2477 730 
Q 2766 1069 2766 1631 
L 2766 1759 
L 2194 1759 
z
M 3341 1997 
L 3341 0 
L 2766 0 
L 2766 531 
Q 2569 213 2275 61 
Q 1981 -91 1556 -91 
Q 1019 -91 701 211 
Q 384 513 384 1019 
Q 384 1609 779 1909 
Q 1175 2209 1959 2209 
L 2766 2209 
L 2766 2266 
Q 2766 2663 2505 2880 
Q 2244 3097 1772 3097 
Q 1472 3097 1187 3025 
Q 903 2953 641 2809 
L 641 3341 
Q 956 3463 1253 3523 
Q 1550 3584 1831 3584 
Q 2591 3584 2966 3190 
Q 3341 2797 3341 1997 
z
" transform="scale(0.015625)"/>
       <path id="DejaVuSans-74" d="M 1172 4494 
L 1172 3500 
L 2356 3500 
L 2356 3053 
L 1172 3053 
L 1172 1153 
Q 1172 725 1289 603 
Q 1406 481 1766 481 
L 2356 481 
L 2356 0 
L 1766 0 
Q 1100 0 847 248 
Q 594 497 594 1153 
L 594 3053 
L 172 3053 
L 172 3500 
L 594 3500 
L 594 4494 
L 1172 4494 
z
" transform="scale(0.015625)"/>
       <path id="DejaVuSans-28" d="M 1984 4856 
Q 1566 4138 1362 3434 
Q 1159 2731 1159 2009 
Q 1159 1288 1364 580 
Q 1569 -128 1984 -844 
L 1484 -844 
Q 1016 -109 783 600 
Q 550 1309 550 2009 
Q 550 2706 781 3412 
Q 1013 4119 1484 4856 
L 1984 4856 
z
" transform="scale(0.015625)"/>
       <path id="DejaVuSans-25" d="M 4653 2053 
Q 4381 2053 4226 1822 
Q 4072 1591 4072 1178 
Q 4072 772 4226 539 
Q 4381 306 4653 306 
Q 4919 306 5073 539 
Q 5228 772 5228 1178 
Q 5228 1588 5073 1820 
Q 4919 2053 4653 2053 
z
M 4653 2450 
Q 5147 2450 5437 2106 
Q 5728 1763 5728 1178 
Q 5728 594 5436 251 
Q 5144 -91 4653 -91 
Q 4153 -91 3862 251 
Q 3572 594 3572 1178 
Q 3572 1766 3864 2108 
Q 4156 2450 4653 2450 
z
M 1428 4353 
Q 1159 4353 1004 4120 
Q 850 3888 850 3481 
Q 850 3069 1003 2837 
Q 1156 2606 1428 2606 
Q 1700 2606 1854 2837 
Q 2009 3069 2009 3481 
Q 2009 3884 1853 4118 
Q 1697 4353 1428 4353 
z
M 4250 4750 
L 4750 4750 
L 1831 -91 
L 1331 -91 
L 4250 4750 
z
M 1428 4750 
Q 1922 4750 2215 4408 
Q 2509 4066 2509 3481 
Q 2509 2891 2217 2550 
Q 1925 2209 1428 2209 
Q 931 2209 642 2551 
Q 353 2894 353 3481 
Q 353 4063 643 4406 
Q 934 4750 1428 4750 
z
" transform="scale(0.015625)"/>
       <path id="DejaVuSans-29" d="M 513 4856 
L 1013 4856 
Q 1481 4119 1714 3412 
Q 1947 2706 1947 2009 
Q 1947 1309 1714 600 
Q 1481 -109 1013 -844 
L 513 -844 
Q 928 -128 1133 580 
Q 1338 1288 1338 2009 
Q 1338 2731 1133 3434 
Q 928 4138 513 4856 
z
" transform="scale(0.015625)"/>
      </defs>
      <use xlink:href="#DejaVuSans-53"/>
      <use xlink:href="#DejaVuSans-75" x="63.476562"/>
      <use xlink:href="#DejaVuSans-63" x="126.855469"/>
      <use xlink:href="#DejaVuSans-63" x="181.835938"/>
      <use xlink:href="#DejaVuSans-65" x="236.816406"/>
      <use xlink:href="#DejaVuSans-73" x="298.339844"/>
      <use xlink:href="#DejaVuSans-73" x="350.439453"/>
      <use xlink:href="#DejaVuSans-20" x="402.539062"/>
      <use xlink:href="#DejaVuSans-72" x="434.326172"/>
      <use xlink:href="#DejaVuSans-61" x="475.439453"/>
      <use xlink:href="#DejaVuSans-74" x="536.71875"/>
      <use xlink:href="#DejaVuSans-65" x="575.927734"/>
      <use xlink:href="#DejaVuSans-20" x="637.451172"/>
      <use xlink:href="#DejaVuSans-28" x="669.238281"/>
      <use xlink:href="#DejaVuSans-25" x="708.251953"/>
      <use xlink:href="#DejaVuSans-29" x="803.271484"/>
     </g>
    </g>
   </g>
   <g id="patch_3">
    <path d="M 113.418352 288.430125 
L 131.318077 288.430125 
L 131.318077 219.156525 
L 113.418352 219.156525 
z
" clip-path="url(#pa57c5032ad)" style="fill: #059669"/>
   </g>
   <g id="patch_4">
    <path d="M 180.542319 288.430125 
L 198.442044 288.430125 
L 198.442044 235.207725 
L 180.542319 235.207725 
z
" clip-path="url(#pa57c5032ad)" style="fill: #059669"/>
   </g>
   <g id="patch_5">
    <path d="M 247.666286 288.430125 
L 265.566011 288.430125 
L 265.566011 253.793325 
L 247.666286 253.793325 
z
" clip-path="url(#pa57c5032ad)" style="fill: #059669"/>
   </g>
   <g id="patch_6">
    <path d="M 314.790253 288.430125 
L 332.689978 288.430125 
L 332.689978 234.362925 
L 314.790253 234.362925 
z
" clip-path="url(#pa57c5032ad)" style="fill: #059669"/>
   </g>
   <g id="patch_7">
    <path d="M 381.91422 288.430125 
L 399.813945 288.430125 
L 399.813945 234.362925 
L 381.91422 234.362925 
z
" clip-path="url(#pa57c5032ad)" style="fill: #059669"/>
   </g>
   <g id="patch_8">
    <path d="M 449.038187 288.430125 
L 466.937912 288.430125 
L 466.937912 214.087725 
L 449.038187 214.087725 
z
" clip-path="url(#pa57c5032ad)" style="fill: #059669"/>
   </g>
   <g id="patch_9">
    <path d="M 516.162154 288.430125 
L 534.061878 288.430125 
L 534.061878 236.052525 
L 516.162154 236.052525 
z
" clip-path="url(#pa57c5032ad)" style="fill: #059669"/>
   </g>
   <g id="patch_10">
    <path d="M 583.286121 288.430125 
L 601.185845 288.430125 
L 601.185845 220.846125 
L 583.286121 220.846125 
z
" clip-path="url(#pa57c5032ad)" style="fill: #059669"/>
   </g>
   <g id="patch_11">
    <path d="M 650.410088 288.430125 
L 668.309812 288.430125 
L 668.309812 238.586925 
L 650.410088 238.586925 
z
" clip-path="url(#pa57c5032ad)" style="fill: #059669"/>
   </g>
   <g id="patch_12">
    <path d="M 717.534055 288.430125 
L 735.433779 288.430125 
L 735.433779 218.311725 
L 717.534055 218.311725 
z
" clip-path="url(#pa57c5032ad)" style="fill: #059669"/>
   </g>
   <g id="patch_13">
    <path d="M 784.658022 288.430125 
L 802.557746 288.430125 
L 802.557746 273.223725 
L 784.658022 273.223725 
z
" clip-path="url(#pa57c5032ad)" style="fill: #059669"/>
   </g>
   <g id="patch_14">
    <path d="M 851.781989 288.430125 
L 869.681713 288.430125 
L 869.681713 228.449325 
L 851.781989 228.449325 
z
" clip-path="url(#pa57c5032ad)" style="fill: #059669"/>
   </g>
   <g id="patch_15">
    <path d="M 918.905956 288.430125 
L 936.80568 288.430125 
L 936.80568 231.828525 
L 918.905956 231.828525 
z
" clip-path="url(#pa57c5032ad)" style="fill: #059669"/>
   </g>
   <g id="patch_16">
    <path d="M 986.029923 288.430125 
L 1003.929647 288.430125 
L 1003.929647 220.846125 
L 986.029923 220.846125 
z
" clip-path="url(#pa57c5032ad)" style="fill: #059669"/>
   </g>
   <g id="patch_17">
    <path d="M 1053.153889 288.430125 
L 1071.053614 288.430125 
L 1071.053614 239.431725 
L 1053.153889 239.431725 
z
" clip-path="url(#pa57c5032ad)" style="fill: #059669"/>
   </g>
   <g id="patch_18">
    <path d="M 1120.277856 288.430125 
L 1138.177581 288.430125 
L 1138.177581 228.449325 
L 1120.277856 228.449325 
z
" clip-path="url(#pa57c5032ad)" style="fill: #059669"/>
   </g>
   <g id="patch_19">
    <path d="M 1187.401823 288.430125 
L 1205.301548 288.430125 
L 1205.301548 230.138925 
L 1187.401823 230.138925 
z
" clip-path="url(#pa57c5032ad)" style="fill: #059669"/>
   </g>
   <g id="patch_20">
    <path d="M 1254.52579 288.430125 
L 1272.425515 288.430125 
L 1272.425515 245.345325 
L 1254.52579 245.345325 
z
" clip-path="url(#pa57c5032ad)" style="fill: #059669"/>
   </g>
   <g id="patch_21">
    <path d="M 1321.649757 288.430125 
L 1339.549482 288.430125 
L 1339.549482 247.879725 
L 1321.649757 247.879725 
z
" clip-path="url(#pa57c5032ad)" style="fill: #059669"/>
   </g>
   <g id="patch_22">
    <path d="M 1388.773724 288.430125 
L 1406.673449 288.430125 
L 1406.673449 232.673325 
L 1388.773724 232.673325 
z
" clip-path="url(#pa57c5032ad)" style="fill: #059669"/>
   </g>
   <g id="patch_23">
    <path d="M 131.318077 288.430125 
L 149.217801 288.430125 
L 149.217801 246.190125 
L 131.318077 246.190125 
z
" clip-path="url(#pa57c5032ad)" style="fill: #2563eb"/>
   </g>
   <g id="patch_24">
    <path d="M 198.442044 288.430125 
L 216.341768 288.430125 
L 216.341768 238.586925 
L 198.442044 238.586925 
z
" clip-path="url(#pa57c5032ad)" style="fill: #2563eb"/>
   </g>
   <g id="patch_25">
    <path d="M 265.566011 288.430125 
L 283.465735 288.430125 
L 283.465735 260.551725 
L 265.566011 260.551725 
z
" clip-path="url(#pa57c5032ad)" style="fill: #2563eb"/>
   </g>
   <g id="patch_26">
    <path d="M 332.689978 288.430125 
L 350.589702 288.430125 
L 350.589702 255.482925 
L 332.689978 255.482925 
z
" clip-path="url(#pa57c5032ad)" style="fill: #2563eb"/>
   </g>
   <g id="patch_27">
    <path d="M 399.813945 288.430125 
L 417.713669 288.430125 
L 417.713669 241.966125 
L 399.813945 241.966125 
z
" clip-path="url(#pa57c5032ad)" style="fill: #2563eb"/>
   </g>
   <g id="patch_28">
    <path d="M 466.937912 288.430125 
L 484.837636 288.430125 
L 484.837636 246.190125 
L 466.937912 246.190125 
z
" clip-path="url(#pa57c5032ad)" style="fill: #2563eb"/>
   </g>
   <g id="patch_29">
    <path d="M 534.061878 288.430125 
L 551.961603 288.430125 
L 551.961603 257.172525 
L 534.061878 257.172525 
z
" clip-path="url(#pa57c5032ad)" style="fill: #2563eb"/>
   </g>
   <g id="patch_30">
    <path d="M 601.185845 288.430125 
L 619.08557 288.430125 
L 619.08557 257.172525 
L 601.185845 257.172525 
z
" clip-path="url(#pa57c5032ad)" style="fill: #2563eb"/>
   </g>
   <g id="patch_31">
    <path d="M 668.309812 288.430125 
L 686.209537 288.430125 
L 686.209537 246.190125 
L 668.309812 246.190125 
z
" clip-path="url(#pa57c5032ad)" style="fill: #2563eb"/>
   </g>
   <g id="patch_32">
    <path d="M 735.433779 288.430125 
L 753.333504 288.430125 
L 753.333504 220.846125 
L 735.433779 220.846125 
z
" clip-path="url(#pa57c5032ad)" style="fill: #2563eb"/>
   </g>
   <g id="patch_33">
    <path d="M 802.557746 288.430125 
L 820.457471 288.430125 
L 820.457471 279.982125 
L 802.557746 279.982125 
z
" clip-path="url(#pa57c5032ad)" style="fill: #2563eb"/>
   </g>
   <g id="patch_34">
    <path d="M 869.681713 288.430125 
L 887.581438 288.430125 
L 887.581438 247.034925 
L 869.681713 247.034925 
z
" clip-path="url(#pa57c5032ad)" style="fill: #2563eb"/>
   </g>
   <g id="patch_35">
    <path d="M 936.80568 288.430125 
L 954.705405 288.430125 
L 954.705405 252.103725 
L 936.80568 252.103725 
z
" clip-path="url(#pa57c5032ad)" style="fill: #2563eb"/>
   </g>
   <g id="patch_36">
    <path d="M 1003.929647 288.430125 
L 1021.829372 288.430125 
L 1021.829372 230.983725 
L 1003.929647 230.983725 
z
" clip-path="url(#pa57c5032ad)" style="fill: #2563eb"/>
   </g>
   <g id="patch_37">
    <path d="M 1071.053614 288.430125 
L 1088.953338 288.430125 
L 1088.953338 249.569325 
L 1071.053614 249.569325 
z
" clip-path="url(#pa57c5032ad)" style="fill: #2563eb"/>
   </g>
   <g id="patch_38">
    <path d="M 1138.177581 288.430125 
L 1156.077305 288.430125 
L 1156.077305 255.482925 
L 1138.177581 255.482925 
z
" clip-path="url(#pa57c5032ad)" style="fill: #2563eb"/>
   </g>
   <g id="patch_39">
    <path d="M 1205.301548 288.430125 
L 1223.201272 288.430125 
L 1223.201272 258.017325 
L 1205.301548 258.017325 
z
" clip-path="url(#pa57c5032ad)" style="fill: #2563eb"/>
   </g>
   <g id="patch_40">
    <path d="M 1272.425515 288.430125 
L 1290.325239 288.430125 
L 1290.325239 268.154925 
L 1272.425515 268.154925 
z
" clip-path="url(#pa57c5032ad)" style="fill: #2563eb"/>
   </g>
   <g id="patch_41">
    <path d="M 1339.549482 288.430125 
L 1357.449206 288.430125 
L 1357.449206 241.966125 
L 1339.549482 241.966125 
z
" clip-path="url(#pa57c5032ad)" style="fill: #2563eb"/>
   </g>
   <g id="patch_42">
    <path d="M 1406.673449 288.430125 
L 1424.573173 288.430125 
L 1424.573173 163.399725 
L 1406.673449 163.399725 
z
" clip-path="url(#pa57c5032ad)" style="fill: #2563eb"/>
   </g>
   <g id="patch_43">
    <path d="M 149.217801 288.430125 
L 167.117526 288.430125 
L 167.117526 263.086125 
L 149.217801 263.086125 
z
" clip-path="url(#pa57c5032ad)" style="fill: #dc2626"/>
   </g>
   <g id="patch_44">
    <path d="M 216.341768 288.430125 
L 234.241493 288.430125 
L 234.241493 260.551725 
L 216.341768 260.551725 
z
" clip-path="url(#pa57c5032ad)" style="fill: #dc2626"/>
   </g>
   <g id="patch_45">
    <path d="M 283.465735 288.430125 
L 301.36546 288.430125 
L 301.36546 272.378925 
L 283.465735 272.378925 
z
" clip-path="url(#pa57c5032ad)" style="fill: #dc2626"/>
   </g>
   <g id="patch_46">
    <path d="M 350.589702 288.430125 
L 368.489427 288.430125 
L 368.489427 266.465325 
L 350.589702 266.465325 
z
" clip-path="url(#pa57c5032ad)" style="fill: #dc2626"/>
   </g>
   <g id="patch_47">
    <path d="M 417.713669 288.430125 
L 435.613394 288.430125 
L 435.613394 260.551725 
L 417.713669 260.551725 
z
" clip-path="url(#pa57c5032ad)" style="fill: #dc2626"/>
   </g>
   <g id="patch_48">
    <path d="M 484.837636 288.430125 
L 502.737361 288.430125 
L 502.737361 262.241325 
L 484.837636 262.241325 
z
" clip-path="url(#pa57c5032ad)" style="fill: #dc2626"/>
   </g>
   <g id="patch_49">
    <path d="M 551.961603 288.430125 
L 569.861327 288.430125 
L 569.861327 263.086125 
L 551.961603 263.086125 
z
" clip-path="url(#pa57c5032ad)" style="fill: #dc2626"/>
   </g>
   <g id="patch_50">
    <path d="M 619.08557 288.430125 
L 636.985294 288.430125 
L 636.985294 274.068525 
L 619.08557 274.068525 
z
" clip-path="url(#pa57c5032ad)" style="fill: #dc2626"/>
   </g>
   <g id="patch_51">
    <path d="M 686.209537 288.430125 
L 704.109261 288.430125 
L 704.109261 258.017325 
L 686.209537 258.017325 
z
" clip-path="url(#pa57c5032ad)" style="fill: #dc2626"/>
   </g>
   <g id="patch_52">
    <path d="M 753.333504 288.430125 
L 771.233228 288.430125 
L 771.233228 245.345325 
L 753.333504 245.345325 
z
" clip-path="url(#pa57c5032ad)" style="fill: #dc2626"/>
   </g>
   <g id="patch_53">
    <path d="M 820.457471 288.430125 
L 838.357195 288.430125 
L 838.357195 282.516525 
L 820.457471 282.516525 
z
" clip-path="url(#pa57c5032ad)" style="fill: #dc2626"/>
   </g>
   <g id="patch_54">
    <path d="M 887.581438 288.430125 
L 905.481162 288.430125 
L 905.481162 268.999725 
L 887.581438 268.999725 
z
" clip-path="url(#pa57c5032ad)" style="fill: #dc2626"/>
   </g>
   <g id="patch_55">
    <path d="M 954.705405 288.430125 
L 972.605129 288.430125 
L 972.605129 262.241325 
L 954.705405 262.241325 
z
" clip-path="url(#pa57c5032ad)" style="fill: #dc2626"/>
   </g>
   <g id="patch_56">
    <path d="M 1021.829372 288.430125 
L 1039.729096 288.430125 
L 1039.729096 254.638125 
L 1021.829372 254.638125 
z
" clip-path="url(#pa57c5032ad)" style="fill: #dc2626"/>
   </g>
   <g id="patch_57">
    <path d="M 1088.953338 288.430125 
L 1106.853063 288.430125 
L 1106.853063 268.999725 
L 1088.953338 268.999725 
z
" clip-path="url(#pa57c5032ad)" style="fill: #dc2626"/>
   </g>
   <g id="patch_58">
    <path d="M 1156.077305 288.430125 
L 1173.97703 288.430125 
L 1173.97703 274.068525 
L 1156.077305 274.068525 
z
" clip-path="url(#pa57c5032ad)" style="fill: #dc2626"/>
   </g>
   <g id="patch_59">
    <path d="M 1223.201272 288.430125 
L 1241.100997 288.430125 
L 1241.100997 269.844525 
L 1223.201272 269.844525 
z
" clip-path="url(#pa57c5032ad)" style="fill: #dc2626"/>
   </g>
   <g id="patch_60">
    <path d="M 1290.325239 288.430125 
L 1308.224964 288.430125 
L 1308.224964 274.913325 
L 1290.325239 274.913325 
z
" clip-path="url(#pa57c5032ad)" style="fill: #dc2626"/>
   </g>
   <g id="patch_61">
    <path d="M 1357.449206 288.430125 
L 1375.348931 288.430125 
L 1375.348931 269.844525 
L 1357.449206 269.844525 
z
" clip-path="url(#pa57c5032ad)" style="fill: #dc2626"/>
   </g>
   <g id="patch_62">
    <path d="M 1424.573173 288.430125 
L 1442.472898 288.430125 
L 1442.472898 220.001325 
L 1424.573173 220.001325 
z
" clip-path="url(#pa57c5032ad)" style="fill: #dc2626"/>
   </g>
   <g id="LineCollection_1">
    <path d="M 122.368215 238.644341 
L 122.368215 199.668709 
" clip-path="url(#pa57c5032ad)" style="fill: none; stroke: #495057"/>
    <path d="M 189.492181 248.277445 
L 189.492181 222.138005 
" clip-path="url(#pa57c5032ad)" style="fill: none; stroke: #495057"/>
    <path d="M 256.616148 258.252179 
L 256.616148 249.334471 
" clip-path="url(#pa57c5032ad)" style="fill: none; stroke: #495057"/>
    <path d="M 323.740115 242.006675 
L 323.740115 226.719175 
" clip-path="url(#pa57c5032ad)" style="fill: none; stroke: #495057"/>
    <path d="M 390.864082 251.502282 
L 390.864082 217.223568 
" clip-path="url(#pa57c5032ad)" style="fill: none; stroke: #495057"/>
    <path d="M 457.988049 242.5458 
L 457.988049 185.62965 
" clip-path="url(#pa57c5032ad)" style="fill: none; stroke: #495057"/>
    <path d="M 525.112016 250.521911 
L 525.112016 221.583139 
" clip-path="url(#pa57c5032ad)" style="fill: none; stroke: #495057"/>
    <path d="M 592.235983 238.40643 
L 592.235983 203.28582 
" clip-path="url(#pa57c5032ad)" style="fill: none; stroke: #495057"/>
    <path d="M 659.35995 252.084272 
L 659.35995 225.089578 
" clip-path="url(#pa57c5032ad)" style="fill: none; stroke: #495057"/>
    <path d="M 726.483917 233.665434 
L 726.483917 202.958016 
" clip-path="url(#pa57c5032ad)" style="fill: none; stroke: #495057"/>
    <path d="M 793.607884 282.585369 
L 793.607884 263.862081 
" clip-path="url(#pa57c5032ad)" style="fill: none; stroke: #495057"/>
    <path d="M 860.731851 241.331432 
L 860.731851 215.567218 
" clip-path="url(#pa57c5032ad)" style="fill: none; stroke: #495057"/>
    <path d="M 927.855818 254.448014 
L 927.855818 209.209036 
" clip-path="url(#pa57c5032ad)" style="fill: none; stroke: #495057"/>
    <path d="M 994.979785 235.919804 
L 994.979785 205.772446 
" clip-path="url(#pa57c5032ad)" style="fill: none; stroke: #495057"/>
    <path d="M 1062.103752 258.284588 
L 1062.103752 220.578862 
" clip-path="url(#pa57c5032ad)" style="fill: none; stroke: #495057"/>
    <path d="M 1129.227719 243.099847 
L 1129.227719 213.798803 
" clip-path="url(#pa57c5032ad)" style="fill: none; stroke: #495057"/>
    <path d="M 1196.351686 242.702119 
L 1196.351686 217.575731 
" clip-path="url(#pa57c5032ad)" style="fill: none; stroke: #495057"/>
    <path d="M 1263.475653 257.908519 
L 1263.475653 232.782131 
" clip-path="url(#pa57c5032ad)" style="fill: none; stroke: #495057"/>
    <path d="M 1330.599619 258.462018 
L 1330.599619 237.297432 
" clip-path="url(#pa57c5032ad)" style="fill: none; stroke: #495057"/>
    <path d="M 1397.723586 256.025368 
L 1397.723586 209.321282 
" clip-path="url(#pa57c5032ad)" style="fill: none; stroke: #495057"/>
   </g>
   <g id="line2d_54">
    <defs>
     <path id="m3a435d5a03" d="M 2.5 0 
L -2.5 -0 
" style="stroke: #495057"/>
    </defs>
    <g clip-path="url(#pa57c5032ad)">
     <use xlink:href="#m3a435d5a03" x="122.368215" y="238.644341" style="fill: #495057; stroke: #495057"/>
     <use xlink:href="#m3a435d5a03" x="189.492181" y="248.277445" style="fill: #495057; stroke: #495057"/>
     <use xlink:href="#m3a435d5a03" x="256.616148" y="258.252179" style="fill: #495057; stroke: #495057"/>
     <use xlink:href="#m3a435d5a03" x="323.740115" y="242.006675" style="fill: #495057; stroke: #495057"/>
     <use xlink:href="#m3a435d5a03" x="390.864082" y="251.502282" style="fill: #495057; stroke: #495057"/>
     <use xlink:href="#m3a435d5a03" x="457.988049" y="242.5458" style="fill: #495057; stroke: #495057"/>
     <use xlink:href="#m3a435d5a03" x="525.112016" y="250.521911" style="fill: #495057; stroke: #495057"/>
     <use xlink:href="#m3a435d5a03" x="592.235983" y="238.40643" style="fill: #495057; stroke: #495057"/>
     <use xlink:href="#m3a435d5a03" x="659.35995" y="252.084272" style="fill: #495057; stroke: #495057"/>
     <use xlink:href="#m3a435d5a03" x="726.483917" y="233.665434" style="fill: #495057; stroke: #495057"/>
     <use xlink:href="#m3a435d5a03" x="793.607884" y="282.585369" style="fill: #495057; stroke: #495057"/>
     <use xlink:href="#m3a435d5a03" x="860.731851" y="241.331432" style="fill: #495057; stroke: #495057"/>
     <use xlink:href="#m3a435d5a03" x="927.855818" y="254.448014" style="fill: #495057; stroke: #495057"/>
     <use xlink:href="#m3a435d5a03" x="994.979785" y="235.919804" style="fill: #495057; stroke: #495057"/>
     <use xlink:href="#m3a435d5a03" x="1062.103752" y="258.284588" style="fill: #495057; stroke: #495057"/>
     <use xlink:href="#m3a435d5a03" x="1129.227719" y="243.099847" style="fill: #495057; stroke: #495057"/>
     <use xlink:href="#m3a435d5a03" x="1196.351686" y="242.702119" style="fill: #495057; stroke: #495057"/>
     <use xlink:href="#m3a435d5a03" x="1263.475653" y="257.908519" style="fill: #495057; stroke: #495057"/>
     <use xlink:href="#m3a435d5a03" x="1330.599619" y="258.462018" style="fill: #495057; stroke: #495057"/>
     <use xlink:href="#m3a435d5a03" x="1397.723586" y="256.025368" style="fill: #495057; stroke: #495057"/>
    </g>
   </g>
   <g id="line2d_55">
    <g clip-path="url(#pa57c5032ad)">
     <use xlink:href="#m3a435d5a03" x="122.368215" y="199.668709" style="fill: #495057; stroke: #495057"/>
     <use xlink:href="#m3a435d5a03" x="189.492181" y="222.138005" style="fill: #495057; stroke: #495057"/>
     <use xlink:href="#m3a435d5a03" x="256.616148" y="249.334471" style="fill: #495057; stroke: #495057"/>
     <use xlink:href="#m3a435d5a03" x="323.740115" y="226.719175" style="fill: #495057; stroke: #495057"/>
     <use xlink:href="#m3a435d5a03" x="390.864082" y="217.223568" style="fill: #495057; stroke: #495057"/>
     <use xlink:href="#m3a435d5a03" x="457.988049" y="185.62965" style="fill: #495057; stroke: #495057"/>
     <use xlink:href="#m3a435d5a03" x="525.112016" y="221.583139" style="fill: #495057; stroke: #495057"/>
     <use xlink:href="#m3a435d5a03" x="592.235983" y="203.28582" style="fill: #495057; stroke: #495057"/>
     <use xlink:href="#m3a435d5a03" x="659.35995" y="225.089578" style="fill: #495057; stroke: #495057"/>
     <use xlink:href="#m3a435d5a03" x="726.483917" y="202.958016" style="fill: #495057; stroke: #495057"/>
     <use xlink:href="#m3a435d5a03" x="793.607884" y="263.862081" style="fill: #495057; stroke: #495057"/>
     <use xlink:href="#m3a435d5a03" x="860.731851" y="215.567218" style="fill: #495057; stroke: #495057"/>
     <use xlink:href="#m3a435d5a03" x="927.855818" y="209.209036" style="fill: #495057; stroke: #495057"/>
     <use xlink:href="#m3a435d5a03" x="994.979785" y="205.772446" style="fill: #495057; stroke: #495057"/>
     <use xlink:href="#m3a435d5a03" x="1062.103752" y="220.578862" style="fill: #495057; stroke: #495057"/>
     <use xlink:href="#m3a435d5a03" x="1129.227719" y="213.798803" style="fill: #495057; stroke: #495057"/>
     <use xlink:href="#m3a435d5a03" x="1196.351686" y="217.575731" style="fill: #495057; stroke: #495057"/>
     <use xlink:href="#m3a435d5a03" x="1263.475653" y="232.782131" style="fill: #495057; stroke: #495057"/>
     <use xlink:href="#m3a435d5a03" x="1330.599619" y="237.297432" style="fill: #495057; stroke: #495057"/>
     <use xlink:href="#m3a435d5a03" x="1397.723586" y="209.321282" style="fill: #495057; stroke: #495057"/>
    </g>
   </g>
   <g id="LineCollection_2">
    <path d="M 140.267939 254.736098 
L 140.267939 237.644152 
" clip-path="url(#pa57c5032ad)" style="fill: none; stroke: #495057"/>
    <path d="M 207.391906 249.034161 
L 207.391906 228.139689 
" clip-path="url(#pa57c5032ad)" style="fill: none; stroke: #495057"/>
    <path d="M 274.515873 266.284538 
L 274.515873 254.818912 
" clip-path="url(#pa57c5032ad)" style="fill: none; stroke: #495057"/>
    <path d="M 341.63984 263.763655 
L 341.63984 247.202195 
" clip-path="url(#pa57c5032ad)" style="fill: none; stroke: #495057"/>
    <path d="M 408.763807 254.464559 
L 408.763807 229.467691 
" clip-path="url(#pa57c5032ad)" style="fill: none; stroke: #495057"/>
    <path d="M 475.887774 257.222928 
L 475.887774 235.157322 
" clip-path="url(#pa57c5032ad)" style="fill: none; stroke: #495057"/>
    <path d="M 543.011741 266.641902 
L 543.011741 247.703148 
" clip-path="url(#pa57c5032ad)" style="fill: none; stroke: #495057"/>
    <path d="M 610.135708 269.605863 
L 610.135708 244.739187 
" clip-path="url(#pa57c5032ad)" style="fill: none; stroke: #495057"/>
    <path d="M 677.259675 252.559917 
L 677.259675 239.820333 
" clip-path="url(#pa57c5032ad)" style="fill: none; stroke: #495057"/>
    <path d="M 744.383642 240.582204 
L 744.383642 201.110046 
" clip-path="url(#pa57c5032ad)" style="fill: none; stroke: #495057"/>
    <path d="M 811.507608 282.830783 
L 811.507608 277.133467 
" clip-path="url(#pa57c5032ad)" style="fill: none; stroke: #495057"/>
    <path d="M 878.631575 259.598119 
L 878.631575 234.471731 
" clip-path="url(#pa57c5032ad)" style="fill: none; stroke: #495057"/>
    <path d="M 945.755542 266.361249 
L 945.755542 237.846201 
" clip-path="url(#pa57c5032ad)" style="fill: none; stroke: #495057"/>
    <path d="M 1012.879509 241.94273 
L 1012.879509 220.02472 
" clip-path="url(#pa57c5032ad)" style="fill: none; stroke: #495057"/>
    <path d="M 1080.003476 261.722114 
L 1080.003476 237.416536 
" clip-path="url(#pa57c5032ad)" style="fill: none; stroke: #495057"/>
    <path d="M 1147.127443 266.311571 
L 1147.127443 244.654279 
" clip-path="url(#pa57c5032ad)" style="fill: none; stroke: #495057"/>
    <path d="M 1214.25141 263.855336 
L 1214.25141 252.179314 
" clip-path="url(#pa57c5032ad)" style="fill: none; stroke: #495057"/>
    <path d="M 1281.375377 272.380167 
L 1281.375377 263.929683 
" clip-path="url(#pa57c5032ad)" style="fill: none; stroke: #495057"/>
    <path d="M 1348.499344 257.633742 
L 1348.499344 226.298508 
" clip-path="url(#pa57c5032ad)" style="fill: none; stroke: #495057"/>
    <path d="M 1415.623311 191.714866 
L 1415.623311 135.084584 
" clip-path="url(#pa57c5032ad)" style="fill: none; stroke: #495057"/>
   </g>
   <g id="line2d_56">
    <g clip-path="url(#pa57c5032ad)">
     <use xlink:href="#m3a435d5a03" x="140.267939" y="254.736098" style="fill: #495057; stroke: #495057"/>
     <use xlink:href="#m3a435d5a03" x="207.391906" y="249.034161" style="fill: #495057; stroke: #495057"/>
     <use xlink:href="#m3a435d5a03" x="274.515873" y="266.284538" style="fill: #495057; stroke: #495057"/>
     <use xlink:href="#m3a435d5a03" x="341.63984" y="263.763655" style="fill: #495057; stroke: #495057"/>
     <use xlink:href="#m3a435d5a03" x="408.763807" y="254.464559" style="fill: #495057; stroke: #495057"/>
     <use xlink:href="#m3a435d5a03" x="475.887774" y="257.222928" style="fill: #495057; stroke: #495057"/>
     <use xlink:href="#m3a435d5a03" x="543.011741" y="266.641902" style="fill: #495057; stroke: #495057"/>
     <use xlink:href="#m3a435d5a03" x="610.135708" y="269.605863" style="fill: #495057; stroke: #495057"/>
     <use xlink:href="#m3a435d5a03" x="677.259675" y="252.559917" style="fill: #495057; stroke: #495057"/>
     <use xlink:href="#m3a435d5a03" x="744.383642" y="240.582204" style="fill: #495057; stroke: #495057"/>
     <use xlink:href="#m3a435d5a03" x="811.507608" y="282.830783" style="fill: #495057; stroke: #495057"/>
     <use xlink:href="#m3a435d5a03" x="878.631575" y="259.598119" style="fill: #495057; stroke: #495057"/>
     <use xlink:href="#m3a435d5a03" x="945.755542" y="266.361249" style="fill: #495057; stroke: #495057"/>
     <use xlink:href="#m3a435d5a03" x="1012.879509" y="241.94273" style="fill: #495057; stroke: #495057"/>
     <use xlink:href="#m3a435d5a03" x="1080.003476" y="261.722114" style="fill: #495057; stroke: #495057"/>
     <use xlink:href="#m3a435d5a03" x="1147.127443" y="266.311571" style="fill: #495057; stroke: #495057"/>
     <use xlink:href="#m3a435d5a03" x="1214.25141" y="263.855336" style="fill: #495057; stroke: #495057"/>
     <use xlink:href="#m3a435d5a03" x="1281.375377" y="272.380167" style="fill: #495057; stroke: #495057"/>
     <use xlink:href="#m3a435d5a03" x="1348.499344" y="257.633742" style="fill: #495057; stroke: #495057"/>
     <use xlink:href="#m3a435d5a03" x="1415.623311" y="191.714866" style="fill: #495057; stroke: #495057"/>
    </g>
   </g>
   <g id="line2d_57">
    <g clip-path="url(#pa57c5032ad)">
     <use xlink:href="#m3a435d5a03" x="140.267939" y="237.644152" style="fill: #495057; stroke: #495057"/>
     <use xlink:href="#m3a435d5a03" x="207.391906" y="228.139689" style="fill: #495057; stroke: #495057"/>
     <use xlink:href="#m3a435d5a03" x="274.515873" y="254.818912" style="fill: #495057; stroke: #495057"/>
     <use xlink:href="#m3a435d5a03" x="341.63984" y="247.202195" style="fill: #495057; stroke: #495057"/>
     <use xlink:href="#m3a435d5a03" x="408.763807" y="229.467691" style="fill: #495057; stroke: #495057"/>
     <use xlink:href="#m3a435d5a03" x="475.887774" y="235.157322" style="fill: #495057; stroke: #495057"/>
     <use xlink:href="#m3a435d5a03" x="543.011741" y="247.703148" style="fill: #495057; stroke: #495057"/>
     <use xlink:href="#m3a435d5a03" x="610.135708" y="244.739187" style="fill: #495057; stroke: #495057"/>
     <use xlink:href="#m3a435d5a03" x="677.259675" y="239.820333" style="fill: #495057; stroke: #495057"/>
     <use xlink:href="#m3a435d5a03" x="744.383642" y="201.110046" style="fill: #495057; stroke: #495057"/>
     <use xlink:href="#m3a435d5a03" x="811.507608" y="277.133467" style="fill: #495057; stroke: #495057"/>
     <use xlink:href="#m3a435d5a03" x="878.631575" y="234.471731" style="fill: #495057; stroke: #495057"/>
     <use xlink:href="#m3a435d5a03" x="945.755542" y="237.846201" style="fill: #495057; stroke: #495057"/>
     <use xlink:href="#m3a435d5a03" x="1012.879509" y="220.02472" style="fill: #495057; stroke: #495057"/>
     <use xlink:href="#m3a435d5a03" x="1080.003476" y="237.416536" style="fill: #495057; stroke: #495057"/>
     <use xlink:href="#m3a435d5a03" x="1147.127443" y="244.654279" style="fill: #495057; stroke: #495057"/>
     <use xlink:href="#m3a435d5a03" x="1214.25141" y="252.179314" style="fill: #495057; stroke: #495057"/>
     <use xlink:href="#m3a435d5a03" x="1281.375377" y="263.929683" style="fill: #495057; stroke: #495057"/>
     <use xlink:href="#m3a435d5a03" x="1348.499344" y="226.298508" style="fill: #495057; stroke: #495057"/>
     <use xlink:href="#m3a435d5a03" x="1415.623311" y="135.084584" style="fill: #495057; stroke: #495057"/>
    </g>
   </g>
   <g id="LineCollection_3">
    <path d="M 158.167664 268.78344 
L 158.167664 257.38881 
" clip-path="url(#pa57c5032ad)" style="fill: none; stroke: #495057"/>
    <path d="M 225.291631 273.307224 
L 225.291631 247.796226 
" clip-path="url(#pa57c5032ad)" style="fill: none; stroke: #495057"/>
    <path d="M 292.415597 281.587626 
L 292.415597 263.170224 
" clip-path="url(#pa57c5032ad)" style="fill: none; stroke: #495057"/>
    <path d="M 359.539564 279.88731 
L 359.539564 253.04334 
" clip-path="url(#pa57c5032ad)" style="fill: none; stroke: #495057"/>
    <path d="M 426.663531 279.882758 
L 426.663531 241.220692 
" clip-path="url(#pa57c5032ad)" style="fill: none; stroke: #495057"/>
    <path d="M 493.787498 281.233562 
L 493.787498 243.249088 
" clip-path="url(#pa57c5032ad)" style="fill: none; stroke: #495057"/>
    <path d="M 560.911465 277.04164 
L 560.911465 249.13061 
" clip-path="url(#pa57c5032ad)" style="fill: none; stroke: #495057"/>
    <path d="M 628.035432 280.470087 
L 628.035432 267.666963 
" clip-path="url(#pa57c5032ad)" style="fill: none; stroke: #495057"/>
    <path d="M 695.159399 265.661075 
L 695.159399 250.373575 
" clip-path="url(#pa57c5032ad)" style="fill: none; stroke: #495057"/>
    <path d="M 762.283366 269.085088 
L 762.283366 221.605562 
" clip-path="url(#pa57c5032ad)" style="fill: none; stroke: #495057"/>
    <path d="M 829.407333 287.491492 
L 829.407333 277.541558 
" clip-path="url(#pa57c5032ad)" style="fill: none; stroke: #495057"/>
    <path d="M 896.5313 280.050901 
L 896.5313 257.948549 
" clip-path="url(#pa57c5032ad)" style="fill: none; stroke: #495057"/>
    <path d="M 963.655267 276.891847 
L 963.655267 247.590803 
" clip-path="url(#pa57c5032ad)" style="fill: none; stroke: #495057"/>
    <path d="M 1030.779234 273.099536 
L 1030.779234 236.176714 
" clip-path="url(#pa57c5032ad)" style="fill: none; stroke: #495057"/>
    <path d="M 1097.903201 280.412146 
L 1097.903201 257.587304 
" clip-path="url(#pa57c5032ad)" style="fill: none; stroke: #495057"/>
    <path d="M 1165.027168 280.470087 
L 1165.027168 267.666963 
" clip-path="url(#pa57c5032ad)" style="fill: none; stroke: #495057"/>
    <path d="M 1232.151135 279.206169 
L 1232.151135 260.482881 
" clip-path="url(#pa57c5032ad)" style="fill: none; stroke: #495057"/>
    <path d="M 1299.275102 279.138567 
L 1299.275102 270.688083 
" clip-path="url(#pa57c5032ad)" style="fill: none; stroke: #495057"/>
    <path d="M 1366.399069 279.206169 
L 1366.399069 260.482881 
" clip-path="url(#pa57c5032ad)" style="fill: none; stroke: #495057"/>
    <path d="M 1433.523035 270.596082 
L 1433.523035 169.406568 
" clip-path="url(#pa57c5032ad)" style="fill: none; stroke: #495057"/>
   </g>
   <g id="line2d_58">
    <g clip-path="url(#pa57c5032ad)">
     <use xlink:href="#m3a435d5a03" x="158.167664" y="268.78344" style="fill: #495057; stroke: #495057"/>
     <use xlink:href="#m3a435d5a03" x="225.291631" y="273.307224" style="fill: #495057; stroke: #495057"/>
     <use xlink:href="#m3a435d5a03" x="292.415597" y="281.587626" style="fill: #495057; stroke: #495057"/>
     <use xlink:href="#m3a435d5a03" x="359.539564" y="279.88731" style="fill: #495057; stroke: #495057"/>
     <use xlink:href="#m3a435d5a03" x="426.663531" y="279.882758" style="fill: #495057; stroke: #495057"/>
     <use xlink:href="#m3a435d5a03" x="493.787498" y="281.233562" style="fill: #495057; stroke: #495057"/>
     <use xlink:href="#m3a435d5a03" x="560.911465" y="277.04164" style="fill: #495057; stroke: #495057"/>
     <use xlink:href="#m3a435d5a03" x="628.035432" y="280.470087" style="fill: #495057; stroke: #495057"/>
     <use xlink:href="#m3a435d5a03" x="695.159399" y="265.661075" style="fill: #495057; stroke: #495057"/>
     <use xlink:href="#m3a435d5a03" x="762.283366" y="269.085088" style="fill: #495057; stroke: #495057"/>
     <use xlink:href="#m3a435d5a03" x="829.407333" y="287.491492" style="fill: #495057; stroke: #495057"/>
     <use xlink:href="#m3a435d5a03" x="896.5313" y="280.050901" style="fill: #495057; stroke: #495057"/>
     <use xlink:href="#m3a435d5a03" x="963.655267" y="276.891847" style="fill: #495057; stroke: #495057"/>
     <use xlink:href="#m3a435d5a03" x="1030.779234" y="273.099536" style="fill: #495057; stroke: #495057"/>
     <use xlink:href="#m3a435d5a03" x="1097.903201" y="280.412146" style="fill: #495057; stroke: #495057"/>
     <use xlink:href="#m3a435d5a03" x="1165.027168" y="280.470087" style="fill: #495057; stroke: #495057"/>
     <use xlink:href="#m3a435d5a03" x="1232.151135" y="279.206169" style="fill: #495057; stroke: #495057"/>
     <use xlink:href="#m3a435d5a03" x="1299.275102" y="279.138567" style="fill: #495057; stroke: #495057"/>
     <use xlink:href="#m3a435d5a03" x="1366.399069" y="279.206169" style="fill: #495057; stroke: #495057"/>
     <use xlink:href="#m3a435d5a03" x="1433.523035" y="270.596082" style="fill: #495057; stroke: #495057"/>
    </g>
   </g>
   <g id="line2d_59">
    <g clip-path="url(#pa57c5032ad)">
     <use xlink:href="#m3a435d5a03" x="158.167664" y="257.38881" style="fill: #495057; stroke: #495057"/>
     <use xlink:href="#m3a435d5a03" x="225.291631" y="247.796226" style="fill: #495057; stroke: #495057"/>
     <use xlink:href="#m3a435d5a03" x="292.415597" y="263.170224" style="fill: #495057; stroke: #495057"/>
     <use xlink:href="#m3a435d5a03" x="359.539564" y="253.04334" style="fill: #495057; stroke: #495057"/>
     <use xlink:href="#m3a435d5a03" x="426.663531" y="241.220692" style="fill: #495057; stroke: #495057"/>
     <use xlink:href="#m3a435d5a03" x="493.787498" y="243.249088" style="fill: #495057; stroke: #495057"/>
     <use xlink:href="#m3a435d5a03" x="560.911465" y="249.13061" style="fill: #495057; stroke: #495057"/>
     <use xlink:href="#m3a435d5a03" x="628.035432" y="267.666963" style="fill: #495057; stroke: #495057"/>
     <use xlink:href="#m3a435d5a03" x="695.159399" y="250.373575" style="fill: #495057; stroke: #495057"/>
     <use xlink:href="#m3a435d5a03" x="762.283366" y="221.605562" style="fill: #495057; stroke: #495057"/>
     <use xlink:href="#m3a435d5a03" x="829.407333" y="277.541558" style="fill: #495057; stroke: #495057"/>
     <use xlink:href="#m3a435d5a03" x="896.5313" y="257.948549" style="fill: #495057; stroke: #495057"/>
     <use xlink:href="#m3a435d5a03" x="963.655267" y="247.590803" style="fill: #495057; stroke: #495057"/>
     <use xlink:href="#m3a435d5a03" x="1030.779234" y="236.176714" style="fill: #495057; stroke: #495057"/>
     <use xlink:href="#m3a435d5a03" x="1097.903201" y="257.587304" style="fill: #495057; stroke: #495057"/>
     <use xlink:href="#m3a435d5a03" x="1165.027168" y="267.666963" style="fill: #495057; stroke: #495057"/>
     <use xlink:href="#m3a435d5a03" x="1232.151135" y="260.482881" style="fill: #495057; stroke: #495057"/>
     <use xlink:href="#m3a435d5a03" x="1299.275102" y="270.688083" style="fill: #495057; stroke: #495057"/>
     <use xlink:href="#m3a435d5a03" x="1366.399069" y="260.482881" style="fill: #495057; stroke: #495057"/>
     <use xlink:href="#m3a435d5a03" x="1433.523035" y="169.406568" style="fill: #495057; stroke: #495057"/>
    </g>
   </g>
   <g id="patch_63">
    <path d="M 46.965625 288.430125 
L 46.965625 22.318125 
" style="fill: none; stroke: #495057; stroke-width: 0.8; stroke-linejoin: miter; stroke-linecap: square"/>
   </g>
   <g id="patch_64">
    <path d="M 46.965625 288.430125 
L 1508.925625 288.430125 
" style="fill: none; stroke: #495057; stroke-width: 0.8; stroke-linejoin: miter; stroke-linecap: square"/>
   </g>
   <g id="text_28">
    <!-- Task success rate per task  (mean ± 95% CI, 10 seeds) -->
    <g style="fill: #212529" transform="translate(46.965625 16.318125) scale(0.12 -0.12)">
     <defs>
      <path id="DejaVuSans-Bold-54" d="M 31 4666 
L 4331 4666 
L 4331 3756 
L 2784 3756 
L 2784 0 
L 1581 0 
L 1581 3756 
L 31 3756 
L 31 4666 
z
" transform="scale(0.015625)"/>
      <path id="DejaVuSans-Bold-61" d="M 2106 1575 
Q 1756 1575 1579 1456 
Q 1403 1338 1403 1106 
Q 1403 894 1545 773 
Q 1688 653 1941 653 
Q 2256 653 2472 879 
Q 2688 1106 2688 1447 
L 2688 1575 
L 2106 1575 
z
M 3816 1997 
L 3816 0 
L 2688 0 
L 2688 519 
Q 2463 200 2181 54 
Q 1900 -91 1497 -91 
Q 953 -91 614 226 
Q 275 544 275 1050 
Q 275 1666 698 1953 
Q 1122 2241 2028 2241 
L 2688 2241 
L 2688 2328 
Q 2688 2594 2478 2717 
Q 2269 2841 1825 2841 
Q 1466 2841 1156 2769 
Q 847 2697 581 2553 
L 581 3406 
Q 941 3494 1303 3539 
Q 1666 3584 2028 3584 
Q 2975 3584 3395 3211 
Q 3816 2838 3816 1997 
z
" transform="scale(0.015625)"/>
      <path id="DejaVuSans-Bold-73" d="M 3272 3391 
L 3272 2541 
Q 2913 2691 2578 2766 
Q 2244 2841 1947 2841 
Q 1628 2841 1473 2761 
Q 1319 2681 1319 2516 
Q 1319 2381 1436 2309 
Q 1553 2238 1856 2203 
L 2053 2175 
Q 2913 2066 3209 1816 
Q 3506 1566 3506 1031 
Q 3506 472 3093 190 
Q 2681 -91 1863 -91 
Q 1516 -91 1145 -36 
Q 775 19 384 128 
L 384 978 
Q 719 816 1070 734 
Q 1422 653 1784 653 
Q 2113 653 2278 743 
Q 2444 834 2444 1013 
Q 2444 1163 2330 1236 
Q 2216 1309 1875 1350 
L 1678 1375 
Q 931 1469 631 1722 
Q 331 1975 331 2491 
Q 331 3047 712 3315 
Q 1094 3584 1881 3584 
Q 2191 3584 2531 3537 
Q 2872 3491 3272 3391 
z
" transform="scale(0.015625)"/>
      <path id="DejaVuSans-Bold-6b" d="M 538 4863 
L 1656 4863 
L 1656 2216 
L 2944 3500 
L 4244 3500 
L 2534 1894 
L 4378 0 
L 3022 0 
L 1656 1459 
L 1656 0 
L 538 0 
L 538 4863 
z
" transform="scale(0.015625)"/>
      <path id="DejaVuSans-Bold-20" transform="scale(0.015625)"/>
      <path id="DejaVuSans-Bold-75" d="M 500 1363 
L 500 3500 
L 1625 3500 
L 1625 3150 
Q 1625 2866 1622 2436 
Q 1619 2006 1619 1863 
Q 1619 1441 1641 1255 
Q 1663 1069 1716 984 
Q 1784 875 1895 815 
Q 2006 756 2150 756 
Q 2500 756 2700 1025 
Q 2900 1294 2900 1772 
L 2900 3500 
L 4019 3500 
L 4019 0 
L 2900 0 
L 2900 506 
Q 2647 200 2364 54 
Q 2081 -91 1741 -91 
Q 1134 -91 817 281 
Q 500 653 500 1363 
z
" transform="scale(0.015625)"/>
      <path id="DejaVuSans-Bold-63" d="M 3366 3391 
L 3366 2478 
Q 3138 2634 2908 2709 
Q 2678 2784 2431 2784 
Q 1963 2784 1702 2511 
Q 1441 2238 1441 1747 
Q 1441 1256 1702 982 
Q 1963 709 2431 709 
Q 2694 709 2930 787 
Q 3166 866 3366 1019 
L 3366 103 
Q 3103 6 2833 -42 
Q 2563 -91 2291 -91 
Q 1344 -91 809 395 
Q 275 881 275 1747 
Q 275 2613 809 3098 
Q 1344 3584 2291 3584 
Q 2566 3584 2833 3536 
Q 3100 3488 3366 3391 
z
" transform="scale(0.015625)"/>
      <path id="DejaVuSans-Bold-65" d="M 4031 1759 
L 4031 1441 
L 1416 1441 
Q 1456 1047 1700 850 
Q 1944 653 2381 653 
Q 2734 653 3104 758 
Q 3475 863 3866 1075 
L 3866 213 
Q 3469 63 3072 -14 
Q 2675 -91 2278 -91 
Q 1328 -91 801 392 
Q 275 875 275 1747 
Q 275 2603 792 3093 
Q 1309 3584 2216 3584 
Q 3041 3584 3536 3087 
Q 4031 2591 4031 1759 
z
M 2881 2131 
Q 2881 2450 2695 2645 
Q 2509 2841 2209 2841 
Q 1884 2841 1681 2658 
Q 1478 2475 1428 2131 
L 2881 2131 
z
" transform="scale(0.015625)"/>
      <path id="DejaVuSans-Bold-72" d="M 3138 2547 
Q 2991 2616 2845 2648 
Q 2700 2681 2553 2681 
Q 2122 2681 1889 2404 
Q 1656 2128 1656 1613 
L 1656 0 
L 538 0 
L 538 3500 
L 1656 3500 
L 1656 2925 
Q 1872 3269 2151 3426 
Q 2431 3584 2822 3584 
Q 2878 3584 2943 3579 
Q 3009 3575 3134 3559 
L 3138 2547 
z
" transform="scale(0.015625)"/>
      <path id="DejaVuSans-Bold-74" d="M 1759 4494 
L 1759 3500 
L 2913 3500 
L 2913 2700 
L 1759 2700 
L 1759 1216 
Q 1759 972 1856 886 
Q 1953 800 2241 800 
L 2816 800 
L 2816 0 
L 1856 0 
Q 1194 0 917 276 
Q 641 553 641 1216 
L 641 2700 
L 84 2700 
L 84 3500 
L 641 3500 
L 641 4494 
L 1759 4494 
z
" transform="scale(0.015625)"/>
      <path id="DejaVuSans-Bold-70" d="M 1656 506 
L 1656 -1331 
L 538 -1331 
L 538 3500 
L 1656 3500 
L 1656 2988 
Q 1888 3294 2169 3439 
Q 2450 3584 2816 3584 
Q 3463 3584 3878 3070 
Q 4294 2556 4294 1747 
Q 4294 938 3878 423 
Q 3463 -91 2816 -91 
Q 2450 -91 2169 54 
Q 1888 200 1656 506 
z
M 2400 2772 
Q 2041 2772 1848 2508 
Q 1656 2244 1656 1747 
Q 1656 1250 1848 986 
Q 2041 722 2400 722 
Q 2759 722 2948 984 
Q 3138 1247 3138 1747 
Q 3138 2247 2948 2509 
Q 2759 2772 2400 2772 
z
" transform="scale(0.015625)"/>
      <path id="DejaVuSans-Bold-28" d="M 2413 -844 
L 1484 -844 
Q 1006 -72 778 623 
Q 550 1319 550 2003 
Q 550 2688 779 3389 
Q 1009 4091 1484 4856 
L 2413 4856 
Q 2013 4116 1813 3408 
Q 1613 2700 1613 2009 
Q 1613 1319 1811 609 
Q 2009 -100 2413 -844 
z
" transform="scale(0.015625)"/>
      <path id="DejaVuSans-Bold-6d" d="M 3781 2919 
Q 3994 3244 4286 3414 
Q 4578 3584 4928 3584 
Q 5531 3584 5847 3212 
Q 6163 2841 6163 2131 
L 6163 0 
L 5038 0 
L 5038 1825 
Q 5041 1866 5042 1909 
Q 5044 1953 5044 2034 
Q 5044 2406 4934 2573 
Q 4825 2741 4581 2741 
Q 4263 2741 4089 2478 
Q 3916 2216 3909 1719 
L 3909 0 
L 2784 0 
L 2784 1825 
Q 2784 2406 2684 2573 
Q 2584 2741 2328 2741 
Q 2006 2741 1831 2477 
Q 1656 2213 1656 1722 
L 1656 0 
L 531 0 
L 531 3500 
L 1656 3500 
L 1656 2988 
Q 1863 3284 2130 3434 
Q 2397 3584 2719 3584 
Q 3081 3584 3359 3409 
Q 3638 3234 3781 2919 
z
" transform="scale(0.015625)"/>
      <path id="DejaVuSans-Bold-6e" d="M 4056 2131 
L 4056 0 
L 2931 0 
L 2931 347 
L 2931 1631 
Q 2931 2084 2911 2256 
Q 2891 2428 2841 2509 
Q 2775 2619 2662 2680 
Q 2550 2741 2406 2741 
Q 2056 2741 1856 2470 
Q 1656 2200 1656 1722 
L 1656 0 
L 538 0 
L 538 3500 
L 1656 3500 
L 1656 2988 
Q 1909 3294 2193 3439 
Q 2478 3584 2822 3584 
Q 3428 3584 3742 3212 
Q 4056 2841 4056 2131 
z
" transform="scale(0.015625)"/>
      <path id="DejaVuSans-Bold-b1" d="M 3053 4013 
L 3053 2906 
L 4684 2906 
L 4684 2169 
L 3053 2169 
L 3053 1063 
L 2309 1063 
L 2309 2169 
L 678 2169 
L 678 2906 
L 2309 2906 
L 2309 4013 
L 3053 4013 
z
M 678 744 
L 4684 744 
L 4684 0 
L 678 0 
L 678 744 
z
" transform="scale(0.015625)"/>
      <path id="DejaVuSans-Bold-39" d="M 641 103 
L 641 966 
Q 928 831 1190 764 
Q 1453 697 1709 697 
Q 2247 697 2547 995 
Q 2847 1294 2900 1881 
Q 2688 1725 2447 1647 
Q 2206 1569 1925 1569 
Q 1209 1569 770 1986 
Q 331 2403 331 3084 
Q 331 3838 820 4291 
Q 1309 4744 2131 4744 
Q 3044 4744 3544 4128 
Q 4044 3513 4044 2388 
Q 4044 1231 3459 570 
Q 2875 -91 1856 -91 
Q 1528 -91 1228 -42 
Q 928 6 641 103 
z
M 2125 2350 
Q 2441 2350 2600 2554 
Q 2759 2759 2759 3169 
Q 2759 3575 2600 3781 
Q 2441 3988 2125 3988 
Q 1809 3988 1650 3781 
Q 1491 3575 1491 3169 
Q 1491 2759 1650 2554 
Q 1809 2350 2125 2350 
z
" transform="scale(0.015625)"/>
      <path id="DejaVuSans-Bold-35" d="M 678 4666 
L 3669 4666 
L 3669 3781 
L 1638 3781 
L 1638 3059 
Q 1775 3097 1914 3117 
Q 2053 3138 2203 3138 
Q 3056 3138 3531 2711 
Q 4006 2284 4006 1522 
Q 4006 766 3489 337 
Q 2972 -91 2053 -91 
Q 1656 -91 1267 -14 
Q 878 63 494 219 
L 494 1166 
Q 875 947 1217 837 
Q 1559 728 1863 728 
Q 2300 728 2551 942 
Q 2803 1156 2803 1522 
Q 2803 1891 2551 2103 
Q 2300 2316 1863 2316 
Q 1603 2316 1309 2248 
Q 1016 2181 678 2041 
L 678 4666 
z
" transform="scale(0.015625)"/>
      <path id="DejaVuSans-Bold-25" d="M 4959 1925 
Q 4738 1925 4616 1733 
Q 4494 1541 4494 1184 
Q 4494 825 4614 633 
Q 4734 441 4959 441 
Q 5184 441 5303 633 
Q 5422 825 5422 1184 
Q 5422 1541 5301 1733 
Q 5181 1925 4959 1925 
z
M 4959 2450 
Q 5541 2450 5875 2112 
Q 6209 1775 6209 1184 
Q 6209 594 5875 251 
Q 5541 -91 4959 -91 
Q 4378 -91 4042 251 
Q 3706 594 3706 1184 
Q 3706 1772 4042 2111 
Q 4378 2450 4959 2450 
z
M 2094 -91 
L 1403 -91 
L 4319 4750 
L 5013 4750 
L 2094 -91 
z
M 1453 4750 
Q 2034 4750 2367 4411 
Q 2700 4072 2700 3481 
Q 2700 2891 2367 2550 
Q 2034 2209 1453 2209 
Q 872 2209 539 2550 
Q 206 2891 206 3481 
Q 206 4072 539 4411 
Q 872 4750 1453 4750 
z
M 1453 4225 
Q 1228 4225 1106 4031 
Q 984 3838 984 3481 
Q 984 3122 1106 2926 
Q 1228 2731 1453 2731 
Q 1678 2731 1798 2926 
Q 1919 3122 1919 3481 
Q 1919 3838 1797 4031 
Q 1675 4225 1453 4225 
z
" transform="scale(0.015625)"/>
      <path id="DejaVuSans-Bold-43" d="M 4288 256 
Q 3956 84 3597 -3 
Q 3238 -91 2847 -91 
Q 1681 -91 1000 561 
Q 319 1213 319 2328 
Q 319 3447 1000 4098 
Q 1681 4750 2847 4750 
Q 3238 4750 3597 4662 
Q 3956 4575 4288 4403 
L 4288 3438 
Q 3953 3666 3628 3772 
Q 3303 3878 2944 3878 
Q 2300 3878 1931 3465 
Q 1563 3053 1563 2328 
Q 1563 1606 1931 1193 
Q 2300 781 2944 781 
Q 3303 781 3628 887 
Q 3953 994 4288 1222 
L 4288 256 
z
" transform="scale(0.015625)"/>
      <path id="DejaVuSans-Bold-49" d="M 588 4666 
L 1791 4666 
L 1791 0 
L 588 0 
L 588 4666 
z
" transform="scale(0.015625)"/>
      <path id="DejaVuSans-Bold-2c" d="M 653 1209 
L 1778 1209 
L 1778 256 
L 1006 -909 
L 341 -909 
L 653 256 
L 653 1209 
z
" transform="scale(0.015625)"/>
      <path id="DejaVuSans-Bold-31" d="M 750 831 
L 1813 831 
L 1813 3847 
L 722 3622 
L 722 4441 
L 1806 4666 
L 2950 4666 
L 2950 831 
L 4013 831 
L 4013 0 
L 750 0 
L 750 831 
z
" transform="scale(0.015625)"/>
      <path id="DejaVuSans-Bold-30" d="M 2944 2338 
Q 2944 3213 2780 3570 
Q 2616 3928 2228 3928 
Q 1841 3928 1675 3570 
Q 1509 3213 1509 2338 
Q 1509 1453 1675 1090 
Q 1841 728 2228 728 
Q 2613 728 2778 1090 
Q 2944 1453 2944 2338 
z
M 4147 2328 
Q 4147 1169 3647 539 
Q 3147 -91 2228 -91 
Q 1306 -91 806 539 
Q 306 1169 306 2328 
Q 306 3491 806 4120 
Q 1306 4750 2228 4750 
Q 3147 4750 3647 4120 
Q 4147 3491 4147 2328 
z
" transform="scale(0.015625)"/>
      <path id="DejaVuSans-Bold-64" d="M 2919 2988 
L 2919 4863 
L 4044 4863 
L 4044 0 
L 2919 0 
L 2919 506 
Q 2688 197 2409 53 
Q 2131 -91 1766 -91 
Q 1119 -91 703 423 
Q 288 938 288 1747 
Q 288 2556 703 3070 
Q 1119 3584 1766 3584 
Q 2128 3584 2408 3439 
Q 2688 3294 2919 2988 
z
M 2181 722 
Q 2541 722 2730 984 
Q 2919 1247 2919 1747 
Q 2919 2247 2730 2509 
Q 2541 2772 2181 2772 
Q 1825 2772 1636 2509 
Q 1447 2247 1447 1747 
Q 1447 1247 1636 984 
Q 1825 722 2181 722 
z
" transform="scale(0.015625)"/>
      <path id="DejaVuSans-Bold-29" d="M 513 -844 
Q 913 -100 1113 609 
Q 1313 1319 1313 2009 
Q 1313 2700 1113 3408 
Q 913 4116 513 4856 
L 1441 4856 
Q 1916 4091 2145 3389 
Q 2375 2688 2375 2003 
Q 2375 1319 2147 623 
Q 1919 -72 1441 -844 
L 513 -844 
z
" transform="scale(0.015625)"/>
     </defs>
     <use xlink:href="#DejaVuSans-Bold-54"/>
     <use xlink:href="#DejaVuSans-Bold-61" x="55.337891"/>
     <use xlink:href="#DejaVuSans-Bold-73" x="122.818359"/>
     <use xlink:href="#DejaVuSans-Bold-6b" x="182.339844"/>
     <use xlink:href="#DejaVuSans-Bold-20" x="248.84375"/>
     <use xlink:href="#DejaVuSans-Bold-73" x="283.658203"/>
     <use xlink:href="#DejaVuSans-Bold-75" x="343.179688"/>
     <use xlink:href="#DejaVuSans-Bold-63" x="414.371094"/>
     <use xlink:href="#DejaVuSans-Bold-63" x="473.648438"/>
     <use xlink:href="#DejaVuSans-Bold-65" x="532.925781"/>
     <use xlink:href="#DejaVuSans-Bold-73" x="600.748047"/>
     <use xlink:href="#DejaVuSans-Bold-73" x="660.269531"/>
     <use xlink:href="#DejaVuSans-Bold-20" x="719.791016"/>
     <use xlink:href="#DejaVuSans-Bold-72" x="754.605469"/>
     <use xlink:href="#DejaVuSans-Bold-61" x="803.921875"/>
     <use xlink:href="#DejaVuSans-Bold-74" x="871.402344"/>
     <use xlink:href="#DejaVuSans-Bold-65" x="919.205078"/>
     <use xlink:href="#DejaVuSans-Bold-20" x="987.027344"/>
     <use xlink:href="#DejaVuSans-Bold-70" x="1021.841797"/>
     <use xlink:href="#DejaVuSans-Bold-65" x="1093.423828"/>
     <use xlink:href="#DejaVuSans-Bold-72" x="1161.246094"/>
     <use xlink:href="#DejaVuSans-Bold-20" x="1210.5625"/>
     <use xlink:href="#DejaVuSans-Bold-74" x="1245.376953"/>
     <use xlink:href="#DejaVuSans-Bold-61" x="1293.179688"/>
     <use xlink:href="#DejaVuSans-Bold-73" x="1360.660156"/>
     <use xlink:href="#DejaVuSans-Bold-6b" x="1420.181641"/>
     <use xlink:href="#DejaVuSans-Bold-20" x="1486.685547"/>
     <use xlink:href="#DejaVuSans-Bold-20" x="1521.5"/>
     <use xlink:href="#DejaVuSans-Bold-28" x="1556.314453"/>
     <use xlink:href="#DejaVuSans-Bold-6d" x="1602.017578"/>
     <use xlink:href="#DejaVuSans-Bold-65" x="1706.216797"/>
     <use xlink:href="#DejaVuSans-Bold-61" x="1774.039062"/>
     <use xlink:href="#DejaVuSans-Bold-6e" x="1841.519531"/>
     <use xlink:href="#DejaVuSans-Bold-20" x="1912.710938"/>
     <use xlink:href="#DejaVuSans-Bold-b1" x="1947.525391"/>
     <use xlink:href="#DejaVuSans-Bold-20" x="2031.314453"/>
     <use xlink:href="#DejaVuSans-Bold-39" x="2066.128906"/>
     <use xlink:href="#DejaVuSans-Bold-35" x="2135.708984"/>
     <use xlink:href="#DejaVuSans-Bold-25" x="2205.289062"/>
     <use xlink:href="#DejaVuSans-Bold-20" x="2305.484375"/>
     <use xlink:href="#DejaVuSans-Bold-43" x="2340.298828"/>
     <use xlink:href="#DejaVuSans-Bold-49" x="2413.6875"/>
     <use xlink:href="#DejaVuSans-Bold-2c" x="2450.894531"/>
     <use xlink:href="#DejaVuSans-Bold-20" x="2488.882812"/>
     <use xlink:href="#DejaVuSans-Bold-31" x="2523.697266"/>
     <use xlink:href="#DejaVuSans-Bold-30" x="2593.277344"/>
     <use xlink:href="#DejaVuSans-Bold-20" x="2662.857422"/>
     <use xlink:href="#DejaVuSans-Bold-73" x="2697.671875"/>
     <use xlink:href="#DejaVuSans-Bold-65" x="2757.193359"/>
     <use xlink:href="#DejaVuSans-Bold-65" x="2825.015625"/>
     <use xlink:href="#DejaVuSans-Bold-64" x="2892.837891"/>
     <use xlink:href="#DejaVuSans-Bold-73" x="2964.419922"/>
     <use xlink:href="#DejaVuSans-Bold-29" x="3023.941406"/>
    </g>
   </g>
   <g id="legend_1">
    <g id="line2d_60">
     <path d="M 500.077656 332.152159 
L 509.077656 332.152159 
L 518.077656 332.152159 
" style="fill: none; stroke-dasharray: 4.44,1.92; stroke-dashoffset: 0; stroke: #6c757d; stroke-width: 1.2"/>
    </g>
    <g id="text_29">
     <!-- perfect -->
     <g style="fill: #212529" transform="translate(525.277656 335.302159) scale(0.09 -0.09)">
      <defs>
       <path id="DejaVuSans-70" d="M 1159 525 
L 1159 -1331 
L 581 -1331 
L 581 3500 
L 1159 3500 
L 1159 2969 
Q 1341 3281 1617 3432 
Q 1894 3584 2278 3584 
Q 2916 3584 3314 3078 
Q 3713 2572 3713 1747 
Q 3713 922 3314 415 
Q 2916 -91 2278 -91 
Q 1894 -91 1617 61 
Q 1341 213 1159 525 
z
M 3116 1747 
Q 3116 2381 2855 2742 
Q 2594 3103 2138 3103 
Q 1681 3103 1420 2742 
Q 1159 2381 1159 1747 
Q 1159 1113 1420 752 
Q 1681 391 2138 391 
Q 2594 391 2855 752 
Q 3116 1113 3116 1747 
z
" transform="scale(0.015625)"/>
       <path id="DejaVuSans-66" d="M 2375 4863 
L 2375 4384 
L 1825 4384 
Q 1516 4384 1395 4259 
Q 1275 4134 1275 3809 
L 1275 3500 
L 2222 3500 
L 2222 3053 
L 1275 3053 
L 1275 0 
L 697 0 
L 697 3053 
L 147 3053 
L 147 3500 
L 697 3500 
L 697 3744 
Q 697 4328 969 4595 
Q 1241 4863 1831 4863 
L 2375 4863 
z
" transform="scale(0.015625)"/>
      </defs>
      <use xlink:href="#DejaVuSans-70"/>
      <use xlink:href="#DejaVuSans-65" x="63.476562"/>
      <use xlink:href="#DejaVuSans-72" x="125"/>
      <use xlink:href="#DejaVuSans-66" x="166.113281"/>
      <use xlink:href="#DejaVuSans-65" x="201.318359"/>
      <use xlink:href="#DejaVuSans-63" x="262.841797"/>
      <use xlink:href="#DejaVuSans-74" x="317.822266"/>
     </g>
    </g>
    <g id="patch_65">
     <path d="M 500.077656 348.512471 
L 518.077656 348.512471 
L 518.077656 342.212471 
L 500.077656 342.212471 
z
" style="fill: #059669"/>
    </g>
    <g id="text_30">
     <!-- Constrained-local min-max (ours) -->
     <g style="fill: #212529" transform="translate(525.277656 348.512471) scale(0.09 -0.09)">
      <defs>
       <path id="DejaVuSans-43" d="M 4122 4306 
L 4122 3641 
Q 3803 3938 3442 4084 
Q 3081 4231 2675 4231 
Q 1875 4231 1450 3742 
Q 1025 3253 1025 2328 
Q 1025 1406 1450 917 
Q 1875 428 2675 428 
Q 3081 428 3442 575 
Q 3803 722 4122 1019 
L 4122 359 
Q 3791 134 3420 21 
Q 3050 -91 2638 -91 
Q 1578 -91 968 557 
Q 359 1206 359 2328 
Q 359 3453 968 4101 
Q 1578 4750 2638 4750 
Q 3056 4750 3426 4639 
Q 3797 4528 4122 4306 
z
" transform="scale(0.015625)"/>
       <path id="DejaVuSans-6f" d="M 1959 3097 
Q 1497 3097 1228 2736 
Q 959 2375 959 1747 
Q 959 1119 1226 758 
Q 1494 397 1959 397 
Q 2419 397 2687 759 
Q 2956 1122 2956 1747 
Q 2956 2369 2687 2733 
Q 2419 3097 1959 3097 
z
M 1959 3584 
Q 2709 3584 3137 3096 
Q 3566 2609 3566 1747 
Q 3566 888 3137 398 
Q 2709 -91 1959 -91 
Q 1206 -91 779 398 
Q 353 888 353 1747 
Q 353 2609 779 3096 
Q 1206 3584 1959 3584 
z
" transform="scale(0.015625)"/>
       <path id="DejaVuSans-6e" d="M 3513 2113 
L 3513 0 
L 2938 0 
L 2938 2094 
Q 2938 2591 2744 2837 
Q 2550 3084 2163 3084 
Q 1697 3084 1428 2787 
Q 1159 2491 1159 1978 
L 1159 0 
L 581 0 
L 581 3500 
L 1159 3500 
L 1159 2956 
Q 1366 3272 1645 3428 
Q 1925 3584 2291 3584 
Q 2894 3584 3203 3211 
Q 3513 2838 3513 2113 
z
" transform="scale(0.015625)"/>
       <path id="DejaVuSans-69" d="M 603 3500 
L 1178 3500 
L 1178 0 
L 603 0 
L 603 3500 
z
M 603 4863 
L 1178 4863 
L 1178 4134 
L 603 4134 
L 603 4863 
z
" transform="scale(0.015625)"/>
       <path id="DejaVuSans-64" d="M 2906 2969 
L 2906 4863 
L 3481 4863 
L 3481 0 
L 2906 0 
L 2906 525 
Q 2725 213 2448 61 
Q 2172 -91 1784 -91 
Q 1150 -91 751 415 
Q 353 922 353 1747 
Q 353 2572 751 3078 
Q 1150 3584 1784 3584 
Q 2172 3584 2448 3432 
Q 2725 3281 2906 2969 
z
M 947 1747 
Q 947 1113 1208 752 
Q 1469 391 1925 391 
Q 2381 391 2643 752 
Q 2906 1113 2906 1747 
Q 2906 2381 2643 2742 
Q 2381 3103 1925 3103 
Q 1469 3103 1208 2742 
Q 947 2381 947 1747 
z
" transform="scale(0.015625)"/>
       <path id="DejaVuSans-2d" d="M 313 2009 
L 1997 2009 
L 1997 1497 
L 313 1497 
L 313 2009 
z
" transform="scale(0.015625)"/>
       <path id="DejaVuSans-6c" d="M 603 4863 
L 1178 4863 
L 1178 0 
L 603 0 
L 603 4863 
z
" transform="scale(0.015625)"/>
       <path id="DejaVuSans-6d" d="M 3328 2828 
Q 3544 3216 3844 3400 
Q 4144 3584 4550 3584 
Q 5097 3584 5394 3201 
Q 5691 2819 5691 2113 
L 5691 0 
L 5113 0 
L 5113 2094 
Q 5113 2597 4934 2840 
Q 4756 3084 4391 3084 
Q 3944 3084 3684 2787 
Q 3425 2491 3425 1978 
L 3425 0 
L 2847 0 
L 2847 2094 
Q 2847 2600 2669 2842 
Q 2491 3084 2119 3084 
Q 1678 3084 1418 2786 
Q 1159 2488 1159 1978 
L 1159 0 
L 581 0 
L 581 3500 
L 1159 3500 
L 1159 2956 
Q 1356 3278 1631 3431 
Q 1906 3584 2284 3584 
Q 2666 3584 2933 3390 
Q 3200 3197 3328 2828 
z
" transform="scale(0.015625)"/>
       <path id="DejaVuSans-78" d="M 3513 3500 
L 2247 1797 
L 3578 0 
L 2900 0 
L 1881 1375 
L 863 0 
L 184 0 
L 1544 1831 
L 300 3500 
L 978 3500 
L 1906 2253 
L 2834 3500 
L 3513 3500 
z
" transform="scale(0.015625)"/>
      </defs>
      <use xlink:href="#DejaVuSans-43"/>
      <use xlink:href="#DejaVuSans-6f" x="69.824219"/>
      <use xlink:href="#DejaVuSans-6e" x="131.005859"/>
      <use xlink:href="#DejaVuSans-73" x="194.384766"/>
      <use xlink:href="#DejaVuSans-74" x="246.484375"/>
      <use xlink:href="#DejaVuSans-72" x="285.693359"/>
      <use xlink:href="#DejaVuSans-61" x="326.806641"/>
      <use xlink:href="#DejaVuSans-69" x="388.085938"/>
      <use xlink:href="#DejaVuSans-6e" x="415.869141"/>
      <use xlink:href="#DejaVuSans-65" x="479.248047"/>
      <use xlink:href="#DejaVuSans-64" x="540.771484"/>
      <use xlink:href="#DejaVuSans-2d" x="604.248047"/>
      <use xlink:href="#DejaVuSans-6c" x="640.332031"/>
      <use xlink:href="#DejaVuSans-6f" x="668.115234"/>
      <use xlink:href="#DejaVuSans-63" x="729.296875"/>
      <use xlink:href="#DejaVuSans-61" x="784.277344"/>
      <use xlink:href="#DejaVuSans-6c" x="845.556641"/>
      <use xlink:href="#DejaVuSans-20" x="873.339844"/>
      <use xlink:href="#DejaVuSans-6d" x="905.126953"/>
      <use xlink:href="#DejaVuSans-69" x="1002.539062"/>
      <use xlink:href="#DejaVuSans-6e" x="1030.322266"/>
      <use xlink:href="#DejaVuSans-2d" x="1093.701172"/>
      <use xlink:href="#DejaVuSans-6d" x="1129.785156"/>
      <use xlink:href="#DejaVuSans-61" x="1227.197266"/>
      <use xlink:href="#DejaVuSans-78" x="1288.476562"/>
      <use xlink:href="#DejaVuSans-20" x="1347.65625"/>
      <use xlink:href="#DejaVuSans-28" x="1379.443359"/>
      <use xlink:href="#DejaVuSans-6f" x="1418.457031"/>
      <use xlink:href="#DejaVuSans-75" x="1479.638672"/>
      <use xlink:href="#DejaVuSans-72" x="1543.017578"/>
      <use xlink:href="#DejaVuSans-73" x="1584.130859"/>
      <use xlink:href="#DejaVuSans-29" x="1636.230469"/>
     </g>
    </g>
    <g id="patch_66">
     <path d="M 694.047344 335.302159 
L 712.047344 335.302159 
L 712.047344 329.002159 
L 694.047344 329.002159 
z
" style="fill: #2563eb"/>
    </g>
    <g id="text_31">
     <!-- Unconstrained-local min-max (ours) -->
     <g style="fill: #212529" transform="translate(719.247344 335.302159) scale(0.09 -0.09)">
      <defs>
       <path id="DejaVuSans-55" d="M 556 4666 
L 1191 4666 
L 1191 1831 
Q 1191 1081 1462 751 
Q 1734 422 2344 422 
Q 2950 422 3222 751 
Q 3494 1081 3494 1831 
L 3494 4666 
L 4128 4666 
L 4128 1753 
Q 4128 841 3676 375 
Q 3225 -91 2344 -91 
Q 1459 -91 1007 375 
Q 556 841 556 1753 
L 556 4666 
z
" transform="scale(0.015625)"/>
      </defs>
      <use xlink:href="#DejaVuSans-55"/>
      <use xlink:href="#DejaVuSans-6e" x="73.193359"/>
      <use xlink:href="#DejaVuSans-63" x="136.572266"/>
      <use xlink:href="#DejaVuSans-6f" x="191.552734"/>
      <use xlink:href="#DejaVuSans-6e" x="252.734375"/>
      <use xlink:href="#DejaVuSans-73" x="316.113281"/>
      <use xlink:href="#DejaVuSans-74" x="368.212891"/>
      <use xlink:href="#DejaVuSans-72" x="407.421875"/>
      <use xlink:href="#DejaVuSans-61" x="448.535156"/>
      <use xlink:href="#DejaVuSans-69" x="509.814453"/>
      <use xlink:href="#DejaVuSans-6e" x="537.597656"/>
      <use xlink:href="#DejaVuSans-65" x="600.976562"/>
      <use xlink:href="#DejaVuSans-64" x="662.5"/>
      <use xlink:href="#DejaVuSans-2d" x="725.976562"/>
      <use xlink:href="#DejaVuSans-6c" x="762.060547"/>
      <use xlink:href="#DejaVuSans-6f" x="789.84375"/>
      <use xlink:href="#DejaVuSans-63" x="851.025391"/>
      <use xlink:href="#DejaVuSans-61" x="906.005859"/>
      <use xlink:href="#DejaVuSans-6c" x="967.285156"/>
      <use xlink:href="#DejaVuSans-20" x="995.068359"/>
      <use xlink:href="#DejaVuSans-6d" x="1026.855469"/>
      <use xlink:href="#DejaVuSans-69" x="1124.267578"/>
      <use xlink:href="#DejaVuSans-6e" x="1152.050781"/>
      <use xlink:href="#DejaVuSans-2d" x="1215.429688"/>
      <use xlink:href="#DejaVuSans-6d" x="1251.513672"/>
      <use xlink:href="#DejaVuSans-61" x="1348.925781"/>
      <use xlink:href="#DejaVuSans-78" x="1410.205078"/>
      <use xlink:href="#DejaVuSans-20" x="1469.384766"/>
      <use xlink:href="#DejaVuSans-28" x="1501.171875"/>
      <use xlink:href="#DejaVuSans-6f" x="1540.185547"/>
      <use xlink:href="#DejaVuSans-75" x="1601.367188"/>
      <use xlink:href="#DejaVuSans-72" x="1664.746094"/>
      <use xlink:href="#DejaVuSans-73" x="1705.859375"/>
      <use xlink:href="#DejaVuSans-29" x="1757.958984"/>
     </g>
    </g>
    <g id="patch_67">
     <path d="M 898.971719 335.302159 
L 916.971719 335.302159 
L 916.971719 329.002159 
L 898.971719 329.002159 
z
" style="fill: #dc2626"/>
    </g>
    <g id="text_32">
     <!-- Naive fine-tuning (single net) -->
     <g style="fill: #212529" transform="translate(924.171719 335.302159) scale(0.09 -0.09)">
      <defs>
       <path id="DejaVuSans-4e" d="M 628 4666 
L 1478 4666 
L 3547 763 
L 3547 4666 
L 4159 4666 
L 4159 0 
L 3309 0 
L 1241 3903 
L 1241 0 
L 628 0 
L 628 4666 
z
" transform="scale(0.015625)"/>
       <path id="DejaVuSans-76" d="M 191 3500 
L 800 3500 
L 1894 563 
L 2988 3500 
L 3597 3500 
L 2284 0 
L 1503 0 
L 191 3500 
z
" transform="scale(0.015625)"/>
       <path id="DejaVuSans-67" d="M 2906 1791 
Q 2906 2416 2648 2759 
Q 2391 3103 1925 3103 
Q 1463 3103 1205 2759 
Q 947 2416 947 1791 
Q 947 1169 1205 825 
Q 1463 481 1925 481 
Q 2391 481 2648 825 
Q 2906 1169 2906 1791 
z
M 3481 434 
Q 3481 -459 3084 -895 
Q 2688 -1331 1869 -1331 
Q 1566 -1331 1297 -1286 
Q 1028 -1241 775 -1147 
L 775 -588 
Q 1028 -725 1275 -790 
Q 1522 -856 1778 -856 
Q 2344 -856 2625 -561 
Q 2906 -266 2906 331 
L 2906 616 
Q 2728 306 2450 153 
Q 2172 0 1784 0 
Q 1141 0 747 490 
Q 353 981 353 1791 
Q 353 2603 747 3093 
Q 1141 3584 1784 3584 
Q 2172 3584 2450 3431 
Q 2728 3278 2906 2969 
L 2906 3500 
L 3481 3500 
L 3481 434 
z
" transform="scale(0.015625)"/>
      </defs>
      <use xlink:href="#DejaVuSans-4e"/>
      <use xlink:href="#DejaVuSans-61" x="74.804688"/>
      <use xlink:href="#DejaVuSans-69" x="136.083984"/>
      <use xlink:href="#DejaVuSans-76" x="163.867188"/>
      <use xlink:href="#DejaVuSans-65" x="223.046875"/>
      <use xlink:href="#DejaVuSans-20" x="284.570312"/>
      <use xlink:href="#DejaVuSans-66" x="316.357422"/>
      <use xlink:href="#DejaVuSans-69" x="351.5625"/>
      <use xlink:href="#DejaVuSans-6e" x="379.345703"/>
      <use xlink:href="#DejaVuSans-65" x="442.724609"/>
      <use xlink:href="#DejaVuSans-2d" x="504.248047"/>
      <use xlink:href="#DejaVuSans-74" x="540.332031"/>
      <use xlink:href="#DejaVuSans-75" x="579.541016"/>
      <use xlink:href="#DejaVuSans-6e" x="642.919922"/>
      <use xlink:href="#DejaVuSans-69" x="706.298828"/>
      <use xlink:href="#DejaVuSans-6e" x="734.082031"/>
      <use xlink:href="#DejaVuSans-67" x="797.460938"/>
      <use xlink:href="#DejaVuSans-20" x="860.9375"/>
      <use xlink:href="#DejaVuSans-28" x="892.724609"/>
      <use xlink:href="#DejaVuSans-73" x="931.738281"/>
      <use xlink:href="#DejaVuSans-69" x="983.837891"/>
      <use xlink:href="#DejaVuSans-6e" x="1011.621094"/>
      <use xlink:href="#DejaVuSans-67" x="1075"/>
      <use xlink:href="#DejaVuSans-6c" x="1138.476562"/>
      <use xlink:href="#DejaVuSans-65" x="1166.259766"/>
      <use xlink:href="#DejaVuSans-20" x="1227.783203"/>
      <use xlink:href="#DejaVuSans-6e" x="1259.570312"/>
      <use xlink:href="#DejaVuSans-65" x="1322.949219"/>
      <use xlink:href="#DejaVuSans-74" x="1384.472656"/>
      <use xlink:href="#DejaVuSans-29" x="1423.681641"/>
     </g>
    </g>
   </g>
  </g>
 </g>
 <defs>
  <clipPath id="pa57c5032ad">
   <rect x="46.965625" y="22.318125" width="1461.96" height="266.112"/>
  </clipPath>
 </defs>
</svg>
