<?xml version="1.0" encoding="utf-8" standalone="no"?>
<!DOCTYPE svg PUBLIC "-//W3C//DTD SVG 1.1//EN"
  "http://www.w3.org/Graphics/SVG/1.1/DTD/svg11.dtd">
<svg xmlns:xlink="http://www.w3.org/1999/xlink" width="1452.34375pt" height="361.18419pt" viewBox="0 0 1452.34375 361.18419" xmlns="http://www.w3.org/2000/svg" version="1.1">
 <metadata>
  <rdf:RDF xmlns:dc="http://purl.org/dc/elements/1.1/" xmlns:cc="http://creativecommons.org/ns#" xmlns:rdf="http://www.w3.org/1999/02/22-rdf-syntax-ns#">
   <cc:Work>
    <dc:type rdf:resource="http://purl.org/dc/dcmitype/StillImage"/>
    <dc:date>2026-07-14T03:14:45.395650</dc:date>
    <dc:format>image/svg+xml</dc:format>
    <dc:creator>
     <cc:Agent>
      <dc:title>Matplotlib v3.7.1, https://matplotlib.org/</dc:title>
     </cc:Agent>
    </dc:creator>
   </cc:Work>
  </rdf:RDF>
 </metadata>
 <defs>
  <style type="text/css">*{stroke-linejoin: round; stroke-linecap: butt}</style>
 </defs>
 <g id="figure_1">
  <g id="patch_1">
   <path d="M 0 361.18419 
L 1452.34375 361.18419 
L 1452.34375 0 
L 0 0 
z
" style="fill: #ffffff"/>
  </g>
  <g id="axes_1">
   <g id="patch_2">
    <path d="M 50.14375 288.430125 
L 1445.14375 288.430125 
L 1445.14375 22.318125 
L 50.14375 22.318125 
z
" style="fill: #ffffff"/>
   </g>
   <g id="matplotlib.axis_1">
    <g id="xtick_1">
     <g id="line2d_1">
      <path d="M 139.172676 288.430125 
L 139.172676 22.318125 
" clip-path="url(#p35a83fa06c)" style="fill: none; stroke: #e9ecef; stroke-width: 0.7; stroke-linecap: square"/>
     </g>
     <g id="line2d_2">
      <defs>
       <path id="m8dc8285cfa" d="M 0 0 
L 0 3.5 
" style="stroke: #6c757d; stroke-width: 0.8"/>
      </defs>
      <g>
       <use xlink:href="#m8dc8285cfa" x="139.172676" y="288.430125" style="fill: #6c757d; stroke: #6c757d; stroke-width: 0.8"/>
      </g>
     </g>
     <g id="text_1">
      <!-- T1 -->
      <g style="fill: #6c757d" transform="translate(132.937519 303.028562) scale(0.1 -0.1)">
       <defs>
        <path id="DejaVuSans-54" d="M -19 4666 
L 3928 4666 
L 3928 4134 
L 2272 4134 
L 2272 0 
L 1638 0 
L 1638 4134 
L -19 4134 
L -19 4666 
z
" transform="scale(0.015625)"/>
        <path id="DejaVuSans-31" d="M 794 531 
L 1825 531 
L 1825 4091 
L 703 3866 
L 703 4441 
L 1819 4666 
L 2450 4666 
L 2450 531 
L 3481 531 
L 3481 0 
L 794 0 
L 794 531 
z
" transform="scale(0.015625)"/>
       </defs>
       <use xlink:href="#DejaVuSans-54"/>
       <use xlink:href="#DejaVuSans-31" x="61.083984"/>
      </g>
     </g>
    </g>
    <g id="xtick_2">
     <g id="line2d_3">
      <path d="M 203.222262 288.430125 
L 203.222262 22.318125 
" clip-path="url(#p35a83fa06c)" style="fill: none; stroke: #e9ecef; stroke-width: 0.7; stroke-linecap: square"/>
     </g>
     <g id="line2d_4">
      <g>
       <use xlink:href="#m8dc8285cfa" x="203.222262" y="288.430125" style="fill: #6c757d; stroke: #6c757d; stroke-width: 0.8"/>
      </g>
     </g>
     <g id="text_2">
      <!-- T2 -->
      <g style="fill: #6c757d" transform="translate(196.987106 303.028562) scale(0.1 -0.1)">
       <defs>
        <path id="DejaVuSans-32" d="M 1228 531 
L 3431 531 
L 3431 0 
L 469 0 
L 469 531 
Q 828 903 1448 1529 
Q 2069 2156 2228 2338 
Q 2531 2678 2651 2914 
Q 2772 3150 2772 3378 
Q 2772 3750 2511 3984 
Q 2250 4219 1831 4219 
Q 1534 4219 1204 4116 
Q 875 4013 500 3803 
L 500 4441 
Q 881 4594 1212 4672 
Q 1544 4750 1819 4750 
Q 2544 4750 2975 4387 
Q 3406 4025 3406 3419 
Q 3406 3131 3298 2873 
Q 3191 2616 2906 2266 
Q 2828 2175 2409 1742 
Q 1991 1309 1228 531 
z
" transform="scale(0.015625)"/>
       </defs>
       <use xlink:href="#DejaVuSans-54"/>
       <use xlink:href="#DejaVuSans-32" x="61.083984"/>
      </g>
     </g>
    </g>
    <g id="xtick_3">
     <g id="line2d_5">
      <path d="M 267.271849 288.430125 
L 267.271849 22.318125 
" clip-path="url(#p35a83fa06c)" style="fill: none; stroke: #e9ecef; stroke-width: 0.7; stroke-linecap: square"/>
     </g>
     <g id="line2d_6">
      <g>
       <use xlink:href="#m8dc8285cfa" x="267.271849" y="288.430125" style="fill: #6c757d; stroke: #6c757d; stroke-width: 0.8"/>
      </g>
     </g>
     <g id="text_3">
      <!-- T3 -->
      <g style="fill: #6c757d" transform="translate(261.036693 303.028562) scale(0.1 -0.1)">
       <defs>
        <path id="DejaVuSans-33" d="M 2597 2516 
Q 3050 2419 3304 2112 
Q 3559 1806 3559 1356 
Q 3559 666 3084 287 
Q 2609 -91 1734 -91 
Q 1441 -91 1130 -33 
Q 819 25 488 141 
L 488 750 
Q 750 597 1062 519 
Q 1375 441 1716 441 
Q 2309 441 2620 675 
Q 2931 909 2931 1356 
Q 2931 1769 2642 2001 
Q 2353 2234 1838 2234 
L 1294 2234 
L 1294 2753 
L 1863 2753 
Q 2328 2753 2575 2939 
Q 2822 3125 2822 3475 
Q 2822 3834 2567 4026 
Q 2313 4219 1838 4219 
Q 1578 4219 1281 4162 
Q 984 4106 628 3988 
L 628 4550 
Q 988 4650 1302 4700 
Q 1616 4750 1894 4750 
Q 2613 4750 3031 4423 
Q 3450 4097 3450 3541 
Q 3450 3153 3228 2886 
Q 3006 2619 2597 2516 
z
" transform="scale(0.015625)"/>
       </defs>
       <use xlink:href="#DejaVuSans-54"/>
       <use xlink:href="#DejaVuSans-33" x="61.083984"/>
      </g>
     </g>
    </g>
    <g id="xtick_4">
     <g id="line2d_7">
      <path d="M 331.321436 288.430125 
L 331.321436 22.318125 
" clip-path="url(#p35a83fa06c)" style="fill: none; stroke: #e9ecef; stroke-width: 0.7; stroke-linecap: square"/>
     </g>
     <g id="line2d_8">
      <g>
       <use xlink:href="#m8dc8285cfa" x="331.321436" y="288.430125" style="fill: #6c757d; stroke: #6c757d; stroke-width: 0.8"/>
      </g>
     </g>
     <g id="text_4">
      <!-- T4 -->
      <g style="fill: #6c757d" transform="translate(325.08628 303.028562) scale(0.1 -0.1)">
       <defs>
        <path id="DejaVuSans-34" d="M 2419 4116 
L 825 1625 
L 2419 1625 
L 2419 4116 
z
M 2253 4666 
L 3047 4666 
L 3047 1625 
L 3713 1625 
L 3713 1100 
L 3047 1100 
L 3047 0 
L 2419 0 
L 2419 1100 
L 313 1100 
L 313 1709 
L 2253 4666 
z
" transform="scale(0.015625)"/>
       </defs>
       <use xlink:href="#DejaVuSans-54"/>
       <use xlink:href="#DejaVuSans-34" x="61.083984"/>
      </g>
     </g>
    </g>
    <g id="xtick_5">
     <g id="line2d_9">
      <path d="M 395.371023 288.430125 
L 395.371023 22.318125 
" clip-path="url(#p35a83fa06c)" style="fill: none; stroke: #e9ecef; stroke-width: 0.7; stroke-linecap: square"/>
     </g>
     <g id="line2d_10">
      <g>
       <use xlink:href="#m8dc8285cfa" x="395.371023" y="288.430125" style="fill: #6c757d; stroke: #6c757d; stroke-width: 0.8"/>
      </g>
     </g>
     <g id="text_5">
      <!-- T5 -->
      <g style="fill: #6c757d" transform="translate(389.135866 303.028562) scale(0.1 -0.1)">
       <defs>
        <path id="DejaVuSans-35" d="M 691 4666 
L 3169 4666 
L 3169 4134 
L 1269 4134 
L 1269 2991 
Q 1406 3038 1543 3061 
Q 1681 3084 1819 3084 
Q 2600 3084 3056 2656 
Q 3513 2228 3513 1497 
Q 3513 744 3044 326 
Q 2575 -91 1722 -91 
Q 1428 -91 1123 -41 
Q 819 9 494 109 
L 494 744 
Q 775 591 1075 516 
Q 1375 441 1709 441 
Q 2250 441 2565 725 
Q 2881 1009 2881 1497 
Q 2881 1984 2565 2268 
Q 2250 2553 1709 2553 
Q 1456 2553 1204 2497 
Q 953 2441 691 2322 
L 691 4666 
z
" transform="scale(0.015625)"/>
       </defs>
       <use xlink:href="#DejaVuSans-54"/>
       <use xlink:href="#DejaVuSans-35" x="61.083984"/>
      </g>
     </g>
    </g>
    <g id="xtick_6">
     <g id="line2d_11">
      <path d="M 459.42061 288.430125 
L 459.42061 22.318125 
" clip-path="url(#p35a83fa06c)" style="fill: none; stroke: #e9ecef; stroke-width: 0.7; stroke-linecap: square"/>
     </g>
     <g id="line2d_12">
      <g>
       <use xlink:href="#m8dc8285cfa" x="459.42061" y="288.430125" style="fill: #6c757d; stroke: #6c757d; stroke-width: 0.8"/>
      </g>
     </g>
     <g id="text_6">
      <!-- T6 -->
      <g style="fill: #6c757d" transform="translate(453.185453 303.028562) scale(0.1 -0.1)">
       <defs>
        <path id="DejaVuSans-36" d="M 2113 2584 
Q 1688 2584 1439 2293 
Q 1191 2003 1191 1497 
Q 1191 994 1439 701 
Q 1688 409 2113 409 
Q 2538 409 2786 701 
Q 3034 994 3034 1497 
Q 3034 2003 2786 2293 
Q 2538 2584 2113 2584 
z
M 3366 4563 
L 3366 3988 
Q 3128 4100 2886 4159 
Q 2644 4219 2406 4219 
Q 1781 4219 1451 3797 
Q 1122 3375 1075 2522 
Q 1259 2794 1537 2939 
Q 1816 3084 2150 3084 
Q 2853 3084 3261 2657 
Q 3669 2231 3669 1497 
Q 3669 778 3244 343 
Q 2819 -91 2113 -91 
Q 1303 -91 875 529 
Q 447 1150 447 2328 
Q 447 3434 972 4092 
Q 1497 4750 2381 4750 
Q 2619 4750 2861 4703 
Q 3103 4656 3366 4563 
z
" transform="scale(0.015625)"/>
       </defs>
       <use xlink:href="#DejaVuSans-54"/>
       <use xlink:href="#DejaVuSans-36" x="61.083984"/>
      </g>
     </g>
    </g>
    <g id="xtick_7">
     <g id="line2d_13">
      <path d="M 523.470196 288.430125 
L 523.470196 22.318125 
" clip-path="url(#p35a83fa06c)" style="fill: none; stroke: #e9ecef; stroke-width: 0.7; stroke-linecap: square"/>
     </g>
     <g id="line2d_14">
      <g>
       <use xlink:href="#m8dc8285cfa" x="523.470196" y="288.430125" style="fill: #6c757d; stroke: #6c757d; stroke-width: 0.8"/>
      </g>
     </g>
     <g id="text_7">
      <!-- T7 -->
      <g style="fill: #6c757d" transform="translate(517.23504 303.028562) scale(0.1 -0.1)">
       <defs>
        <path id="DejaVuSans-37" d="M 525 4666 
L 3525 4666 
L 3525 4397 
L 1831 0 
L 1172 0 
L 2766 4134 
L 525 4134 
L 525 4666 
z
" transform="scale(0.015625)"/>
       </defs>
       <use xlink:href="#DejaVuSans-54"/>
       <use xlink:href="#DejaVuSans-37" x="61.083984"/>
      </g>
     </g>
    </g>
    <g id="xtick_8">
     <g id="line2d_15">
      <path d="M 587.519783 288.430125 
L 587.519783 22.318125 
" clip-path="url(#p35a83fa06c)" style="fill: none; stroke: #e9ecef; stroke-width: 0.7; stroke-linecap: square"/>
     </g>
     <g id="line2d_16">
      <g>
       <use xlink:href="#m8dc8285cfa" x="587.519783" y="288.430125" style="fill: #6c757d; stroke: #6c757d; stroke-width: 0.8"/>
      </g>
     </g>
     <g id="text_8">
      <!-- T8 -->
      <g style="fill: #6c757d" transform="translate(581.284627 303.028562) scale(0.1 -0.1)">
       <defs>
        <path id="DejaVuSans-38" d="M 2034 2216 
Q 1584 2216 1326 1975 
Q 1069 1734 1069 1313 
Q 1069 891 1326 650 
Q 1584 409 2034 409 
Q 2484 409 2743 651 
Q 3003 894 3003 1313 
Q 3003 1734 2745 1975 
Q 2488 2216 2034 2216 
z
M 1403 2484 
Q 997 2584 770 2862 
Q 544 3141 544 3541 
Q 544 4100 942 4425 
Q 1341 4750 2034 4750 
Q 2731 4750 3128 4425 
Q 3525 4100 3525 3541 
Q 3525 3141 3298 2862 
Q 3072 2584 2669 2484 
Q 3125 2378 3379 2068 
Q 3634 1759 3634 1313 
Q 3634 634 3220 271 
Q 2806 -91 2034 -91 
Q 1263 -91 848 271 
Q 434 634 434 1313 
Q 434 1759 690 2068 
Q 947 2378 1403 2484 
z
M 1172 3481 
Q 1172 3119 1398 2916 
Q 1625 2713 2034 2713 
Q 2441 2713 2670 2916 
Q 2900 3119 2900 3481 
Q 2900 3844 2670 4047 
Q 2441 4250 2034 4250 
Q 1625 4250 1398 4047 
Q 1172 3844 1172 3481 
z
" transform="scale(0.015625)"/>
       </defs>
       <use xlink:href="#DejaVuSans-54"/>
       <use xlink:href="#DejaVuSans-38" x="61.083984"/>
      </g>
     </g>
    </g>
    <g id="xtick_9">
     <g id="line2d_17">
      <path d="M 651.56937 288.430125 
L 651.56937 22.318125 
" clip-path="url(#p35a83fa06c)" style="fill: none; stroke: #e9ecef; stroke-width: 0.7; stroke-linecap: square"/>
     </g>
     <g id="line2d_18">
      <g>
       <use xlink:href="#m8dc8285cfa" x="651.56937" y="288.430125" style="fill: #6c757d; stroke: #6c757d; stroke-width: 0.8"/>
      </g>
     </g>
     <g id="text_9">
      <!-- T9 -->
      <g style="fill: #6c757d" transform="translate(645.334214 303.028562) scale(0.1 -0.1)">
       <defs>
        <path id="DejaVuSans-39" d="M 703 97 
L 703 672 
Q 941 559 1184 500 
Q 1428 441 1663 441 
Q 2288 441 2617 861 
Q 2947 1281 2994 2138 
Q 2813 1869 2534 1725 
Q 2256 1581 1919 1581 
Q 1219 1581 811 2004 
Q 403 2428 403 3163 
Q 403 3881 828 4315 
Q 1253 4750 1959 4750 
Q 2769 4750 3195 4129 
Q 3622 3509 3622 2328 
Q 3622 1225 3098 567 
Q 2575 -91 1691 -91 
Q 1453 -91 1209 -44 
Q 966 3 703 97 
z
M 1959 2075 
Q 2384 2075 2632 2365 
Q 2881 2656 2881 3163 
Q 2881 3666 2632 3958 
Q 2384 4250 1959 4250 
Q 1534 4250 1286 3958 
Q 1038 3666 1038 3163 
Q 1038 2656 1286 2365 
Q 1534 2075 1959 2075 
z
" transform="scale(0.015625)"/>
       </defs>
       <use xlink:href="#DejaVuSans-54"/>
       <use xlink:href="#DejaVuSans-39" x="61.083984"/>
      </g>
     </g>
    </g>
    <g id="xtick_10">
     <g id="line2d_19">
      <path d="M 715.618957 288.430125 
L 715.618957 22.318125 
" clip-path="url(#p35a83fa06c)" style="fill: none; stroke: #e9ecef; stroke-width: 0.7; stroke-linecap: square"/>
     </g>
     <g id="line2d_20">
      <g>
       <use xlink:href="#m8dc8285cfa" x="715.618957" y="288.430125" style="fill: #6c757d; stroke: #6c757d; stroke-width: 0.8"/>
      </g>
     </g>
     <g id="text_10">
      <!-- T10 -->
      <g style="fill: #6c757d" transform="translate(706.20255 303.028562) scale(0.1 -0.1)">
       <defs>
        <path id="DejaVuSans-30" d="M 2034 4250 
Q 1547 4250 1301 3770 
Q 1056 3291 1056 2328 
Q 1056 1369 1301 889 
Q 1547 409 2034 409 
Q 2525 409 2770 889 
Q 3016 1369 3016 2328 
Q 3016 3291 2770 3770 
Q 2525 4250 2034 4250 
z
M 2034 4750 
Q 2819 4750 3233 4129 
Q 3647 3509 3647 2328 
Q 3647 1150 3233 529 
Q 2819 -91 2034 -91 
Q 1250 -91 836 529 
Q 422 1150 422 2328 
Q 422 3509 836 4129 
Q 1250 4750 2034 4750 
z
" transform="scale(0.015625)"/>
       </defs>
       <use xlink:href="#DejaVuSans-54"/>
       <use xlink:href="#DejaVuSans-31" x="61.083984"/>
       <use xlink:href="#DejaVuSans-30" x="124.707031"/>
      </g>
     </g>
    </g>
    <g id="xtick_11">
     <g id="line2d_21">
      <path d="M 779.668543 288.430125 
L 779.668543 22.318125 
" clip-path="url(#p35a83fa06c)" style="fill: none; stroke: #e9ecef; stroke-width: 0.7; stroke-linecap: square"/>
     </g>
     <g id="line2d_22">
      <g>
       <use xlink:href="#m8dc8285cfa" x="779.668543" y="288.430125" style="fill: #6c757d; stroke: #6c757d; stroke-width: 0.8"/>
      </g>
     </g>
     <g id="text_11">
      <!-- T11 -->
      <g style="fill: #6c757d" transform="translate(770.252137 303.028562) scale(0.1 -0.1)">
       <use xlink:href="#DejaVuSans-54"/>
       <use xlink:href="#DejaVuSans-31" x="61.083984"/>
       <use xlink:href="#DejaVuSans-31" x="124.707031"/>
      </g>
     </g>
    </g>
    <g id="xtick_12">
     <g id="line2d_23">
      <path d="M 843.71813 288.430125 
L 843.71813 22.318125 
" clip-path="url(#p35a83fa06c)" style="fill: none; stroke: #e9ecef; stroke-width: 0.7; stroke-linecap: square"/>
     </g>
     <g id="line2d_24">
      <g>
       <use xlink:href="#m8dc8285cfa" x="843.71813" y="288.430125" style="fill: #6c757d; stroke: #6c757d; stroke-width: 0.8"/>
      </g>
     </g>
     <g id="text_12">
      <!-- T12 -->
      <g style="fill: #6c757d" transform="translate(834.301724 303.028562) scale(0.1 -0.1)">
       <use xlink:href="#DejaVuSans-54"/>
       <use xlink:href="#DejaVuSans-31" x="61.083984"/>
       <use xlink:href="#DejaVuSans-32" x="124.707031"/>
      </g>
     </g>
    </g>
    <g id="xtick_13">
     <g id="line2d_25">
      <path d="M 907.767717 288.430125 
L 907.767717 22.318125 
" clip-path="url(#p35a83fa06c)" style="fill: none; stroke: #e9ecef; stroke-width: 0.7; stroke-linecap: square"/>
     </g>
     <g id="line2d_26">
      <g>
       <use xlink:href="#m8dc8285cfa" x="907.767717" y="288.430125" style="fill: #6c757d; stroke: #6c757d; stroke-width: 0.8"/>
      </g>
     </g>
     <g id="text_13">
      <!-- T13 -->
      <g style="fill: #6c757d" transform="translate(898.351311 303.028562) scale(0.1 -0.1)">
       <use xlink:href="#DejaVuSans-54"/>
       <use xlink:href="#DejaVuSans-31" x="61.083984"/>
       <use xlink:href="#DejaVuSans-33" x="124.707031"/>
      </g>
     </g>
    </g>
    <g id="xtick_14">
     <g id="line2d_27">
      <path d="M 971.817304 288.430125 
L 971.817304 22.318125 
" clip-path="url(#p35a83fa06c)" style="fill: none; stroke: #e9ecef; stroke-width: 0.7; stroke-linecap: square"/>
     </g>
     <g id="line2d_28">
      <g>
       <use xlink:href="#m8dc8285cfa" x="971.817304" y="288.430125" style="fill: #6c757d; stroke: #6c757d; stroke-width: 0.8"/>
      </g>
     </g>
     <g id="text_14">
      <!-- T14 -->
      <g style="fill: #6c757d" transform="translate(962.400897 303.028562) scale(0.1 -0.1)">
       <use xlink:href="#DejaVuSans-54"/>
       <use xlink:href="#DejaVuSans-31" x="61.083984"/>
       <use xlink:href="#DejaVuSans-34" x="124.707031"/>
      </g>
     </g>
    </g>
    <g id="xtick_15">
     <g id="line2d_29">
      <path d="M 1035.86689 288.430125 
L 1035.86689 22.318125 
" clip-path="url(#p35a83fa06c)" style="fill: none; stroke: #e9ecef; stroke-width: 0.7; stroke-linecap: square"/>
     </g>
     <g id="line2d_30">
      <g>
       <use xlink:href="#m8dc8285cfa" x="1035.86689" y="288.430125" style="fill: #6c757d; stroke: #6c757d; stroke-width: 0.8"/>
      </g>
     </g>
     <g id="text_15">
      <!-- T15 -->
      <g style="fill: #6c757d" transform="translate(1026.450484 303.028562) scale(0.1 -0.1)">
       <use xlink:href="#DejaVuSans-54"/>
       <use xlink:href="#DejaVuSans-31" x="61.083984"/>
       <use xlink:href="#DejaVuSans-35" x="124.707031"/>
      </g>
     </g>
    </g>
    <g id="xtick_16">
     <g id="line2d_31">
      <path d="M 1099.916477 288.430125 
L 1099.916477 22.318125 
" clip-path="url(#p35a83fa06c)" style="fill: none; stroke: #e9ecef; stroke-width: 0.7; stroke-linecap: square"/>
     </g>
     <g id="line2d_32">
      <g>
       <use xlink:href="#m8dc8285cfa" x="1099.916477" y="288.430125" style="fill: #6c757d; stroke: #6c757d; stroke-width: 0.8"/>
      </g>
     </g>
     <g id="text_16">
      <!-- T16 -->
      <g style="fill: #6c757d" transform="translate(1090.500071 303.028562) scale(0.1 -0.1)">
       <use xlink:href="#DejaVuSans-54"/>
       <use xlink:href="#DejaVuSans-31" x="61.083984"/>
       <use xlink:href="#DejaVuSans-36" x="124.707031"/>
      </g>
     </g>
    </g>
    <g id="xtick_17">
     <g id="line2d_33">
      <path d="M 1163.966064 288.430125 
L 1163.966064 22.318125 
" clip-path="url(#p35a83fa06c)" style="fill: none; stroke: #e9ecef; stroke-width: 0.7; stroke-linecap: square"/>
     </g>
     <g id="line2d_34">
      <g>
       <use xlink:href="#m8dc8285cfa" x="1163.966064" y="288.430125" style="fill: #6c757d; stroke: #6c757d; stroke-width: 0.8"/>
      </g>
     </g>
     <g id="text_17">
      <!-- T17 -->
      <g style="fill: #6c757d" transform="translate(1154.549658 303.028562) scale(0.1 -0.1)">
       <use xlink:href="#DejaVuSans-54"/>
       <use xlink:href="#DejaVuSans-31" x="61.083984"/>
       <use xlink:href="#DejaVuSans-37" x="124.707031"/>
      </g>
     </g>
    </g>
    <g id="xtick_18">
     <g id="line2d_35">
      <path d="M 1228.015651 288.430125 
L 1228.015651 22.318125 
" clip-path="url(#p35a83fa06c)" style="fill: none; stroke: #e9ecef; stroke-width: 0.7; stroke-linecap: square"/>
     </g>
     <g id="line2d_36">
      <g>
       <use xlink:href="#m8dc8285cfa" x="1228.015651" y="288.430125" style="fill: #6c757d; stroke: #6c757d; stroke-width: 0.8"/>
      </g>
     </g>
     <g id="text_18">
      <!-- T18 -->
      <g style="fill: #6c757d" transform="translate(1218.599245 303.028562) scale(0.1 -0.1)">
       <use xlink:href="#DejaVuSans-54"/>
       <use xlink:href="#DejaVuSans-31" x="61.083984"/>
       <use xlink:href="#DejaVuSans-38" x="124.707031"/>
      </g>
     </g>
    </g>
    <g id="xtick_19">
     <g id="line2d_37">
      <path d="M 1292.065238 288.430125 
L 1292.065238 22.318125 
" clip-path="url(#p35a83fa06c)" style="fill: none; stroke: #e9ecef; stroke-width: 0.7; stroke-linecap: square"/>
     </g>
     <g id="line2d_38">
      <g>
       <use xlink:href="#m8dc8285cfa" x="1292.065238" y="288.430125" style="fill: #6c757d; stroke: #6c757d; stroke-width: 0.8"/>
      </g>
     </g>
     <g id="text_19">
      <!-- T19 -->
      <g style="fill: #6c757d" transform="translate(1282.648831 303.028562) scale(0.1 -0.1)">
       <use xlink:href="#DejaVuSans-54"/>
       <use xlink:href="#DejaVuSans-31" x="61.083984"/>
       <use xlink:href="#DejaVuSans-39" x="124.707031"/>
      </g>
     </g>
    </g>
    <g id="xtick_20">
     <g id="line2d_39">
      <path d="M 1356.114824 288.430125 
L 1356.114824 22.318125 
" clip-path="url(#p35a83fa06c)" style="fill: none; stroke: #e9ecef; stroke-width: 0.7; stroke-linecap: square"/>
     </g>
     <g id="line2d_40">
      <g>
       <use xlink:href="#m8dc8285cfa" x="1356.114824" y="288.430125" style="fill: #6c757d; stroke: #6c757d; stroke-width: 0.8"/>
      </g>
     </g>
     <g id="text_20">
      <!-- T20 -->
      <g style="fill: #6c757d" transform="translate(1346.698418 303.028562) scale(0.1 -0.1)">
       <use xlink:href="#DejaVuSans-54"/>
       <use xlink:href="#DejaVuSans-32" x="61.083984"/>
       <use xlink:href="#DejaVuSans-30" x="124.707031"/>
      </g>
     </g>
    </g>
   </g>
   <g id="matplotlib.axis_2">
    <g id="ytick_1">
     <g id="line2d_41">
      <path d="M 50.14375 288.430125 
L 1445.14375 288.430125 
" clip-path="url(#p35a83fa06c)" style="fill: none; stroke: #e9ecef; stroke-width: 0.7; stroke-linecap: square"/>
     </g>
     <g id="line2d_42">
      <defs>
       <path id="m69a07006ba" d="M 0 0 
L -3.5 0 
" style="stroke: #6c757d; stroke-width: 0.8"/>
      </defs>
      <g>
       <use xlink:href="#m69a07006ba" x="50.14375" y="288.430125" style="fill: #6c757d; stroke: #6c757d; stroke-width: 0.8"/>
      </g>
     </g>
     <g id="text_21">
      <!-- 0.00 -->
      <g style="fill: #6c757d" transform="translate(20.878125 292.229344) scale(0.1 -0.1)">
       <defs>
        <path id="DejaVuSans-2e" d="M 684 794 
L 1344 794 
L 1344 0 
L 684 0 
L 684 794 
z
" transform="scale(0.015625)"/>
       </defs>
       <use xlink:href="#DejaVuSans-30"/>
       <use xlink:href="#DejaVuSans-2e" x="63.623047"/>
       <use xlink:href="#DejaVuSans-30" x="95.410156"/>
       <use xlink:href="#DejaVuSans-30" x="159.033203"/>
      </g>
     </g>
    </g>
    <g id="ytick_2">
     <g id="line2d_43">
      <path d="M 50.14375 253.478498 
L 1445.14375 253.478498 
" clip-path="url(#p35a83fa06c)" style="fill: none; stroke: #e9ecef; stroke-width: 0.7; stroke-linecap: square"/>
     </g>
     <g id="line2d_44">
      <g>
       <use xlink:href="#m69a07006ba" x="50.14375" y="253.478498" style="fill: #6c757d; stroke: #6c757d; stroke-width: 0.8"/>
      </g>
     </g>
     <g id="text_22">
      <!-- 0.25 -->
      <g style="fill: #6c757d" transform="translate(20.878125 257.277717) scale(0.1 -0.1)">
       <use xlink:href="#DejaVuSans-30"/>
       <use xlink:href="#DejaVuSans-2e" x="63.623047"/>
       <use xlink:href="#DejaVuSans-32" x="95.410156"/>
       <use xlink:href="#DejaVuSans-35" x="159.033203"/>
      </g>
     </g>
    </g>
    <g id="ytick_3">
     <g id="line2d_45">
      <path d="M 50.14375 218.526871 
L 1445.14375 218.526871 
" clip-path="url(#p35a83fa06c)" style="fill: none; stroke: #e9ecef; stroke-width: 0.7; stroke-linecap: square"/>
     </g>
     <g id="line2d_46">
      <g>
       <use xlink:href="#m69a07006ba" x="50.14375" y="218.526871" style="fill: #6c757d; stroke: #6c757d; stroke-width: 0.8"/>
      </g>
     </g>
     <g id="text_23">
      <!-- 0.50 -->
      <g style="fill: #6c757d" transform="translate(20.878125 222.32609) scale(0.1 -0.1)">
       <use xlink:href="#DejaVuSans-30"/>
       <use xlink:href="#DejaVuSans-2e" x="63.623047"/>
       <use xlink:href="#DejaVuSans-35" x="95.410156"/>
       <use xlink:href="#DejaVuSans-30" x="159.033203"/>
      </g>
     </g>
    </g>
    <g id="ytick_4">
     <g id="line2d_47">
      <path d="M 50.14375 183.575244 
L 1445.14375 183.575244 
" clip-path="url(#p35a83fa06c)" style="fill: none; stroke: #e9ecef; stroke-width: 0.7; stroke-linecap: square"/>
     </g>
     <g id="line2d_48">
      <g>
       <use xlink:href="#m69a07006ba" x="50.14375" y="183.575244" style="fill: #6c757d; stroke: #6c757d; stroke-width: 0.8"/>
      </g>
     </g>
     <g id="text_24">
      <!-- 0.75 -->
      <g style="fill: #6c757d" transform="translate(20.878125 187.374463) scale(0.1 -0.1)">
       <use xlink:href="#DejaVuSans-30"/>
       <use xlink:href="#DejaVuSans-2e" x="63.623047"/>
       <use xlink:href="#DejaVuSans-37" x="95.410156"/>
       <use xlink:href="#DejaVuSans-35" x="159.033203"/>
      </g>
     </g>
    </g>
    <g id="ytick_5">
     <g id="line2d_49">
      <path d="M 50.14375 148.623617 
L 1445.14375 148.623617 
" clip-path="url(#p35a83fa06c)" style="fill: none; stroke: #e9ecef; stroke-width: 0.7; stroke-linecap: square"/>
     </g>
     <g id="line2d_50">
      <g>
       <use xlink:href="#m69a07006ba" x="50.14375" y="148.623617" style="fill: #6c757d; stroke: #6c757d; stroke-width: 0.8"/>
      </g>
     </g>
     <g id="text_25">
      <!-- 1.00 -->
      <g style="fill: #6c757d" transform="translate(20.878125 152.422835) scale(0.1 -0.1)">
       <use xlink:href="#DejaVuSans-31"/>
       <use xlink:href="#DejaVuSans-2e" x="63.623047"/>
       <use xlink:href="#DejaVuSans-30" x="95.410156"/>
       <use xlink:href="#DejaVuSans-30" x="159.033203"/>
      </g>
     </g>
    </g>
    <g id="ytick_6">
     <g id="line2d_51">
      <path d="M 50.14375 113.67199 
L 1445.14375 113.67199 
" clip-path="url(#p35a83fa06c)" style="fill: none; stroke: #e9ecef; stroke-width: 0.7; stroke-linecap: square"/>
     </g>
     <g id="line2d_52">
      <g>
       <use xlink:href="#m69a07006ba" x="50.14375" y="113.67199" style="fill: #6c757d; stroke: #6c757d; stroke-width: 0.8"/>
      </g>
     </g>
     <g id="text_26">
      <!-- 1.25 -->
      <g style="fill: #6c757d" transform="translate(20.878125 117.471208) scale(0.1 -0.1)">
       <use xlink:href="#DejaVuSans-31"/>
       <use xlink:href="#DejaVuSans-2e" x="63.623047"/>
       <use xlink:href="#DejaVuSans-32" x="95.410156"/>
       <use xlink:href="#DejaVuSans-35" x="159.033203"/>
      </g>
     </g>
    </g>
    <g id="ytick_7">
     <g id="line2d_53">
      <path d="M 50.14375 78.720363 
L 1445.14375 78.720363 
" clip-path="url(#p35a83fa06c)" style="fill: none; stroke: #e9ecef; stroke-width: 0.7; stroke-linecap: square"/>
     </g>
     <g id="line2d_54">
      <g>
       <use xlink:href="#m69a07006ba" x="50.14375" y="78.720363" style="fill: #6c757d; stroke: #6c757d; stroke-width: 0.8"/>
      </g>
     </g>
     <g id="text_27">
      <!-- 1.50 -->
      <g style="fill: #6c757d" transform="translate(20.878125 82.519581) scale(0.1 -0.1)">
       <use xlink:href="#DejaVuSans-31"/>
       <use xlink:href="#DejaVuSans-2e" x="63.623047"/>
       <use xlink:href="#DejaVuSans-35" x="95.410156"/>
       <use xlink:href="#DejaVuSans-30" x="159.033203"/>
      </g>
     </g>
    </g>
    <g id="ytick_8">
     <g id="line2d_55">
      <path d="M 50.14375 43.768736 
L 1445.14375 43.768736 
" clip-path="url(#p35a83fa06c)" style="fill: none; stroke: #e9ecef; stroke-width: 0.7; stroke-linecap: square"/>
     </g>
     <g id="line2d_56">
      <g>
       <use xlink:href="#m69a07006ba" x="50.14375" y="43.768736" style="fill: #6c757d; stroke: #6c757d; stroke-width: 0.8"/>
      </g>
     </g>
     <g id="text_28">
      <!-- 1.75 -->
      <g style="fill: #6c757d" transform="translate(20.878125 47.567954) scale(0.1 -0.1)">
       <use xlink:href="#DejaVuSans-31"/>
       <use xlink:href="#DejaVuSans-2e" x="63.623047"/>
       <use xlink:href="#DejaVuSans-37" x="95.410156"/>
       <use xlink:href="#DejaVuSans-35" x="159.033203"/>
      </g>
     </g>
    </g>
    <g id="text_29">
     <!-- Final value (end of sequence) -->
     <g style="fill: #212529" transform="translate(14.798438 229.148344) rotate(-90) scale(0.1 -0.1)">
      <defs>
       <path id="DejaVuSans-46" d="M 628 4666 
L 3309 4666 
L 3309 4134 
L 1259 4134 
L 1259 2759 
L 3109 2759 
L 3109 2228 
L 1259 2228 
L 1259 0 
L 628 0 
L 628 4666 
z
" transform="scale(0.015625)"/>
       <path id="DejaVuSans-69" d="M 603 3500 
L 1178 3500 
L 1178 0 
L 603 0 
L 603 3500 
z
M 603 4863 
L 1178 4863 
L 1178 4134 
L 603 4134 
L 603 4863 
z
" transform="scale(0.015625)"/>
       <path id="DejaVuSans-6e" d="M 3513 2113 
L 3513 0 
L 2938 0 
L 2938 2094 
Q 2938 2591 2744 2837 
Q 2550 3084 2163 3084 
Q 1697 3084 1428 2787 
Q 1159 2491 1159 1978 
L 1159 0 
L 581 0 
L 581 3500 
L 1159 3500 
L 1159 2956 
Q 1366 3272 1645 3428 
Q 1925 3584 2291 3584 
Q 2894 3584 3203 3211 
Q 3513 2838 3513 2113 
z
" transform="scale(0.015625)"/>
       <path id="DejaVuSans-61" d="M 2194 1759 
Q 1497 1759 1228 1600 
Q 959 1441 959 1056 
Q 959 750 1161 570 
Q 1363 391 1709 391 
Q 2188 391 2477 730 
Q 2766 1069 2766 1631 
L 2766 1759 
L 2194 1759 
z
M 3341 1997 
L 3341 0 
L 2766 0 
L 2766 531 
Q 2569 213 2275 61 
Q 1981 -91 1556 -91 
Q 1019 -91 701 211 
Q 384 513 384 1019 
Q 384 1609 779 1909 
Q 1175 2209 1959 2209 
L 2766 2209 
L 2766 2266 
Q 2766 2663 2505 2880 
Q 2244 3097 1772 3097 
Q 1472 3097 1187 3025 
Q 903 2953 641 2809 
L 641 3341 
Q 956 3463 1253 3523 
Q 1550 3584 1831 3584 
Q 2591 3584 2966 3190 
Q 3341 2797 3341 1997 
z
" transform="scale(0.015625)"/>
       <path id="DejaVuSans-6c" d="M 603 4863 
L 1178 4863 
L 1178 0 
L 603 0 
L 603 4863 
z
" transform="scale(0.015625)"/>
       <path id="DejaVuSans-20" transform="scale(0.015625)"/>
       <path id="DejaVuSans-76" d="M 191 3500 
L 800 3500 
L 1894 563 
L 2988 3500 
L 3597 3500 
L 2284 0 
L 1503 0 
L 191 3500 
z
" transform="scale(0.015625)"/>
       <path id="DejaVuSans-75" d="M 544 1381 
L 544 3500 
L 1119 3500 
L 1119 1403 
Q 1119 906 1312 657 
Q 1506 409 1894 409 
Q 2359 409 2629 706 
Q 2900 1003 2900 1516 
L 2900 3500 
L 3475 3500 
L 3475 0 
L 2900 0 
L 2900 538 
Q 2691 219 2414 64 
Q 2138 -91 1772 -91 
Q 1169 -91 856 284 
Q 544 659 544 1381 
z
M 1991 3584 
L 1991 3584 
z
" transform="scale(0.015625)"/>
       <path id="DejaVuSans-65" d="M 3597 1894 
L 3597 1613 
L 953 1613 
Q 991 1019 1311 708 
Q 1631 397 2203 397 
Q 2534 397 2845 478 
Q 3156 559 3463 722 
L 3463 178 
Q 3153 47 2828 -22 
Q 2503 -91 2169 -91 
Q 1331 -91 842 396 
Q 353 884 353 1716 
Q 353 2575 817 3079 
Q 1281 3584 2069 3584 
Q 2775 3584 3186 3129 
Q 3597 2675 3597 1894 
z
M 3022 2063 
Q 3016 2534 2758 2815 
Q 2500 3097 2075 3097 
Q 1594 3097 1305 2825 
Q 1016 2553 972 2059 
L 3022 2063 
z
" transform="scale(0.015625)"/>
       <path id="DejaVuSans-28" d="M 1984 4856 
Q 1566 4138 1362 3434 
Q 1159 2731 1159 2009 
Q 1159 1288 1364 580 
Q 1569 -128 1984 -844 
L 1484 -844 
Q 1016 -109 783 600 
Q 550 1309 550 2009 
Q 550 2706 781 3412 
Q 1013 4119 1484 4856 
L 1984 4856 
z
" transform="scale(0.015625)"/>
       <path id="DejaVuSans-64" d="M 2906 2969 
L 2906 4863 
L 3481 4863 
L 3481 0 
L 2906 0 
L 2906 525 
Q 2725 213 2448 61 
Q 2172 -91 1784 -91 
Q 1150 -91 751 415 
Q 353 922 353 1747 
Q 353 2572 751 3078 
Q 1150 3584 1784 3584 
Q 2172 3584 2448 3432 
Q 2725 3281 2906 2969 
z
M 947 1747 
Q 947 1113 1208 752 
Q 1469 391 1925 391 
Q 2381 391 2643 752 
Q 2906 1113 2906 1747 
Q 2906 2381 2643 2742 
Q 2381 3103 1925 3103 
Q 1469 3103 1208 2742 
Q 947 2381 947 1747 
z
" transform="scale(0.015625)"/>
       <path id="DejaVuSans-6f" d="M 1959 3097 
Q 1497 3097 1228 2736 
Q 959 2375 959 1747 
Q 959 1119 1226 758 
Q 1494 397 1959 397 
Q 2419 397 2687 759 
Q 2956 1122 2956 1747 
Q 2956 2369 2687 2733 
Q 2419 3097 1959 3097 
z
M 1959 3584 
Q 2709 3584 3137 3096 
Q 3566 2609 3566 1747 
Q 3566 888 3137 398 
Q 2709 -91 1959 -91 
Q 1206 -91 779 398 
Q 353 888 353 1747 
Q 353 2609 779 3096 
Q 1206 3584 1959 3584 
z
" transform="scale(0.015625)"/>
       <path id="DejaVuSans-66" d="M 2375 4863 
L 2375 4384 
L 1825 4384 
Q 1516 4384 1395 4259 
Q 1275 4134 1275 3809 
L 1275 3500 
L 2222 3500 
L 2222 3053 
L 1275 3053 
L 1275 0 
L 697 0 
L 697 3053 
L 147 3053 
L 147 3500 
L 697 3500 
L 697 3744 
Q 697 4328 969 4595 
Q 1241 4863 1831 4863 
L 2375 4863 
z
" transform="scale(0.015625)"/>
       <path id="DejaVuSans-73" d="M 2834 3397 
L 2834 2853 
Q 2591 2978 2328 3040 
Q 2066 3103 1784 3103 
Q 1356 3103 1142 2972 
Q 928 2841 928 2578 
Q 928 2378 1081 2264 
Q 1234 2150 1697 2047 
L 1894 2003 
Q 2506 1872 2764 1633 
Q 3022 1394 3022 966 
Q 3022 478 2636 193 
Q 2250 -91 1575 -91 
Q 1294 -91 989 -36 
Q 684 19 347 128 
L 347 722 
Q 666 556 975 473 
Q 1284 391 1588 391 
Q 1994 391 2212 530 
Q 2431 669 2431 922 
Q 2431 1156 2273 1281 
Q 2116 1406 1581 1522 
L 1381 1569 
Q 847 1681 609 1914 
Q 372 2147 372 2553 
Q 372 3047 722 3315 
Q 1072 3584 1716 3584 
Q 2034 3584 2315 3537 
Q 2597 3491 2834 3397 
z
" transform="scale(0.015625)"/>
       <path id="DejaVuSans-71" d="M 947 1747 
Q 947 1113 1208 752 
Q 1469 391 1925 391 
Q 2381 391 2643 752 
Q 2906 1113 2906 1747 
Q 2906 2381 2643 2742 
Q 2381 3103 1925 3103 
Q 1469 3103 1208 2742 
Q 947 2381 947 1747 
z
M 2906 525 
Q 2725 213 2448 61 
Q 2172 -91 1784 -91 
Q 1150 -91 751 415 
Q 353 922 353 1747 
Q 353 2572 751 3078 
Q 1150 3584 1784 3584 
Q 2172 3584 2448 3432 
Q 2725 3281 2906 2969 
L 2906 3500 
L 3481 3500 
L 3481 -1331 
L 2906 -1331 
L 2906 525 
z
" transform="scale(0.015625)"/>
       <path id="DejaVuSans-63" d="M 3122 3366 
L 3122 2828 
Q 2878 2963 2633 3030 
Q 2388 3097 2138 3097 
Q 1578 3097 1268 2742 
Q 959 2388 959 1747 
Q 959 1106 1268 751 
Q 1578 397 2138 397 
Q 2388 397 2633 464 
Q 2878 531 3122 666 
L 3122 134 
Q 2881 22 2623 -34 
Q 2366 -91 2075 -91 
Q 1284 -91 818 406 
Q 353 903 353 1747 
Q 353 2603 823 3093 
Q 1294 3584 2113 3584 
Q 2378 3584 2631 3529 
Q 2884 3475 3122 3366 
z
" transform="scale(0.015625)"/>
       <path id="DejaVuSans-29" d="M 513 4856 
L 1013 4856 
Q 1481 4119 1714 3412 
Q 1947 2706 1947 2009 
Q 1947 1309 1714 600 
Q 1481 -109 1013 -844 
L 513 -844 
Q 928 -128 1133 580 
Q 1338 1288 1338 2009 
Q 1338 2731 1133 3434 
Q 928 4138 513 4856 
z
" transform="scale(0.015625)"/>
      </defs>
      <use xlink:href="#DejaVuSans-46"/>
      <use xlink:href="#DejaVuSans-69" x="50.269531"/>
      <use xlink:href="#DejaVuSans-6e" x="78.052734"/>
      <use xlink:href="#DejaVuSans-61" x="141.431641"/>
      <use xlink:href="#DejaVuSans-6c" x="202.710938"/>
      <use xlink:href="#DejaVuSans-20" x="230.494141"/>
      <use xlink:href="#DejaVuSans-76" x="262.28125"/>
      <use xlink:href="#DejaVuSans-61" x="321.460938"/>
      <use xlink:href="#DejaVuSans-6c" x="382.740234"/>
      <use xlink:href="#DejaVuSans-75" x="410.523438"/>
      <use xlink:href="#DejaVuSans-65" x="473.902344"/>
      <use xlink:href="#DejaVuSans-20" x="535.425781"/>
      <use xlink:href="#DejaVuSans-28" x="567.212891"/>
      <use xlink:href="#DejaVuSans-65" x="606.226562"/>
      <use xlink:href="#DejaVuSans-6e" x="667.75"/>
      <use xlink:href="#DejaVuSans-64" x="731.128906"/>
      <use xlink:href="#DejaVuSans-20" x="794.605469"/>
      <use xlink:href="#DejaVuSans-6f" x="826.392578"/>
      <use xlink:href="#DejaVuSans-66" x="887.574219"/>
      <use xlink:href="#DejaVuSans-20" x="922.779297"/>
      <use xlink:href="#DejaVuSans-73" x="954.566406"/>
      <use xlink:href="#DejaVuSans-65" x="1006.666016"/>
      <use xlink:href="#DejaVuSans-71" x="1068.189453"/>
      <use xlink:href="#DejaVuSans-75" x="1131.666016"/>
      <use xlink:href="#DejaVuSans-65" x="1195.044922"/>
      <use xlink:href="#DejaVuSans-6e" x="1256.568359"/>
      <use xlink:href="#DejaVuSans-63" x="1319.947266"/>
      <use xlink:href="#DejaVuSans-65" x="1374.927734"/>
      <use xlink:href="#DejaVuSans-29" x="1436.451172"/>
     </g>
    </g>
   </g>
   <g id="patch_3">
    <path d="M 113.552841 288.430125 
L 130.632731 288.430125 
L 130.632731 221.463563 
L 113.552841 221.463563 
z
" clip-path="url(#p35a83fa06c)" style="fill: #059669"/>
   </g>
   <g id="patch_4">
    <path d="M 177.602428 288.430125 
L 194.682317 288.430125 
L 194.682317 160.443807 
L 177.602428 160.443807 
z
" clip-path="url(#p35a83fa06c)" style="fill: #059669"/>
   </g>
   <g id="patch_5">
    <path d="M 241.652014 288.430125 
L 258.731904 288.430125 
L 258.731904 155.432066 
L 241.652014 155.432066 
z
" clip-path="url(#p35a83fa06c)" style="fill: #059669"/>
   </g>
   <g id="patch_6">
    <path d="M 305.701601 288.430125 
L 322.781491 288.430125 
L 322.781491 169.714849 
L 305.701601 169.714849 
z
" clip-path="url(#p35a83fa06c)" style="fill: #059669"/>
   </g>
   <g id="patch_7">
    <path d="M 369.751188 288.430125 
L 386.831078 288.430125 
L 386.831078 216.451082 
L 369.751188 216.451082 
z
" clip-path="url(#p35a83fa06c)" style="fill: #059669"/>
   </g>
   <g id="patch_8">
    <path d="M 433.800775 288.430125 
L 450.880665 288.430125 
L 450.880665 210.222489 
L 433.800775 210.222489 
z
" clip-path="url(#p35a83fa06c)" style="fill: #059669"/>
   </g>
   <g id="patch_9">
    <path d="M 497.850362 288.430125 
L 514.930251 288.430125 
L 514.930251 162.388866 
L 497.850362 162.388866 
z
" clip-path="url(#p35a83fa06c)" style="fill: #059669"/>
   </g>
   <g id="patch_10">
    <path d="M 561.899948 288.430125 
L 578.979838 288.430125 
L 578.979838 165.514967 
L 561.899948 165.514967 
z
" clip-path="url(#p35a83fa06c)" style="fill: #059669"/>
   </g>
   <g id="patch_11">
    <path d="M 625.949535 288.430125 
L 643.029425 288.430125 
L 643.029425 189.245365 
L 625.949535 189.245365 
z
" clip-path="url(#p35a83fa06c)" style="fill: #059669"/>
   </g>
   <g id="patch_12">
    <path d="M 689.999122 288.430125 
L 707.079012 288.430125 
L 707.079012 175.961853 
L 689.999122 175.961853 
z
" clip-path="url(#p35a83fa06c)" style="fill: #059669"/>
   </g>
   <g id="patch_13">
    <path d="M 754.048709 288.430125 
L 771.128598 288.430125 
L 771.128598 218.995828 
L 754.048709 218.995828 
z
" clip-path="url(#p35a83fa06c)" style="fill: #059669"/>
   </g>
   <g id="patch_14">
    <path d="M 818.098295 288.430125 
L 835.178185 288.430125 
L 835.178185 196.591116 
L 818.098295 196.591116 
z
" clip-path="url(#p35a83fa06c)" style="fill: #059669"/>
   </g>
   <g id="patch_15">
    <path d="M 882.147882 288.430125 
L 899.227772 288.430125 
L 899.227772 177.374782 
L 882.147882 177.374782 
z
" clip-path="url(#p35a83fa06c)" style="fill: #059669"/>
   </g>
   <g id="patch_16">
    <path d="M 946.197469 288.430125 
L 963.277359 288.430125 
L 963.277359 197.819893 
L 946.197469 197.819893 
z
" clip-path="url(#p35a83fa06c)" style="fill: #059669"/>
   </g>
   <g id="patch_17">
    <path d="M 1010.247056 288.430125 
L 1027.326946 288.430125 
L 1027.326946 173.739585 
L 1010.247056 173.739585 
z
" clip-path="url(#p35a83fa06c)" style="fill: #059669"/>
   </g>
   <g id="patch_18">
    <path d="M 1074.296643 288.430125 
L 1091.376532 288.430125 
L 1091.376532 229.743002 
L 1074.296643 229.743002 
z
" clip-path="url(#p35a83fa06c)" style="fill: #059669"/>
   </g>
   <g id="patch_19">
    <path d="M 1138.346229 288.430125 
L 1155.426119 288.430125 
L 1155.426119 222.016763 
L 1138.346229 222.016763 
z
" clip-path="url(#p35a83fa06c)" style="fill: #059669"/>
   </g>
   <g id="patch_20">
    <path d="M 1202.395816 288.430125 
L 1219.475706 288.430125 
L 1219.475706 179.649367 
L 1202.395816 179.649367 
z
" clip-path="url(#p35a83fa06c)" style="fill: #059669"/>
   </g>
   <g id="patch_21">
    <path d="M 1266.445403 288.430125 
L 1283.525293 288.430125 
L 1283.525293 167.688972 
L 1266.445403 167.688972 
z
" clip-path="url(#p35a83fa06c)" style="fill: #059669"/>
   </g>
   <g id="patch_22">
    <path d="M 1330.49499 288.430125 
L 1347.574879 288.430125 
L 1347.574879 176.449592 
L 1330.49499 176.449592 
z
" clip-path="url(#p35a83fa06c)" style="fill: #059669"/>
   </g>
   <g id="patch_23">
    <path d="M 130.632731 288.430125 
L 147.712621 288.430125 
L 147.712621 264.165886 
L 130.632731 264.165886 
z
" clip-path="url(#p35a83fa06c)" style="fill: #2563eb"/>
   </g>
   <g id="patch_24">
    <path d="M 194.682317 288.430125 
L 211.762207 288.430125 
L 211.762207 176.444678 
L 194.682317 176.444678 
z
" clip-path="url(#p35a83fa06c)" style="fill: #2563eb"/>
   </g>
   <g id="patch_25">
    <path d="M 258.731904 288.430125 
L 275.811794 288.430125 
L 275.811794 168.510585 
L 258.731904 168.510585 
z
" clip-path="url(#p35a83fa06c)" style="fill: #2563eb"/>
   </g>
   <g id="patch_26">
    <path d="M 322.781491 288.430125 
L 339.861381 288.430125 
L 339.861381 189.022137 
L 322.781491 189.022137 
z
" clip-path="url(#p35a83fa06c)" style="fill: #2563eb"/>
   </g>
   <g id="patch_27">
    <path d="M 386.831078 288.430125 
L 403.910968 288.430125 
L 403.910968 261.000324 
L 386.831078 261.000324 
z
" clip-path="url(#p35a83fa06c)" style="fill: #2563eb"/>
   </g>
   <g id="patch_28">
    <path d="M 450.880665 288.430125 
L 467.960554 288.430125 
L 467.960554 253.144507 
L 450.880665 253.144507 
z
" clip-path="url(#p35a83fa06c)" style="fill: #2563eb"/>
   </g>
   <g id="patch_29">
    <path d="M 514.930251 288.430125 
L 532.010141 288.430125 
L 532.010141 176.970958 
L 514.930251 176.970958 
z
" clip-path="url(#p35a83fa06c)" style="fill: #2563eb"/>
   </g>
   <g id="patch_30">
    <path d="M 578.979838 288.430125 
L 596.059728 288.430125 
L 596.059728 162.342728 
L 578.979838 162.342728 
z
" clip-path="url(#p35a83fa06c)" style="fill: #2563eb"/>
   </g>
   <g id="patch_31">
    <path d="M 643.029425 288.430125 
L 660.109315 288.430125 
L 660.109315 209.131943 
L 643.029425 209.131943 
z
" clip-path="url(#p35a83fa06c)" style="fill: #2563eb"/>
   </g>
   <g id="patch_32">
    <path d="M 707.079012 288.430125 
L 724.158902 288.430125 
L 724.158902 189.233832 
L 707.079012 189.233832 
z
" clip-path="url(#p35a83fa06c)" style="fill: #2563eb"/>
   </g>
   <g id="patch_33">
    <path d="M 771.128598 288.430125 
L 788.208488 288.430125 
L 788.208488 278.805201 
L 771.128598 278.805201 
z
" clip-path="url(#p35a83fa06c)" style="fill: #2563eb"/>
   </g>
   <g id="patch_34">
    <path d="M 835.178185 288.430125 
L 852.258075 288.430125 
L 852.258075 203.454242 
L 835.178185 203.454242 
z
" clip-path="url(#p35a83fa06c)" style="fill: #2563eb"/>
   </g>
   <g id="patch_35">
    <path d="M 899.227772 288.430125 
L 916.307662 288.430125 
L 916.307662 191.241854 
L 899.227772 191.241854 
z
" clip-path="url(#p35a83fa06c)" style="fill: #2563eb"/>
   </g>
   <g id="patch_36">
    <path d="M 963.277359 288.430125 
L 980.357249 288.430125 
L 980.357249 248.993256 
L 963.277359 248.993256 
z
" clip-path="url(#p35a83fa06c)" style="fill: #2563eb"/>
   </g>
   <g id="patch_37">
    <path d="M 1027.326946 288.430125 
L 1044.406835 288.430125 
L 1044.406835 185.093395 
L 1027.326946 185.093395 
z
" clip-path="url(#p35a83fa06c)" style="fill: #2563eb"/>
   </g>
   <g id="patch_38">
    <path d="M 1091.376532 288.430125 
L 1108.456422 288.430125 
L 1108.456422 262.869091 
L 1091.376532 262.869091 
z
" clip-path="url(#p35a83fa06c)" style="fill: #2563eb"/>
   </g>
   <g id="patch_39">
    <path d="M 1155.426119 288.430125 
L 1172.506009 288.430125 
L 1172.506009 233.818332 
L 1155.426119 233.818332 
z
" clip-path="url(#p35a83fa06c)" style="fill: #2563eb"/>
   </g>
   <g id="patch_40">
    <path d="M 1219.475706 288.430125 
L 1236.555596 288.430125 
L 1236.555596 192.463837 
L 1219.475706 192.463837 
z
" clip-path="url(#p35a83fa06c)" style="fill: #2563eb"/>
   </g>
   <g id="patch_41">
    <path d="M 1283.525293 288.430125 
L 1300.605183 288.430125 
L 1300.605183 163.096424 
L 1283.525293 163.096424 
z
" clip-path="url(#p35a83fa06c)" style="fill: #2563eb"/>
   </g>
   <g id="patch_42">
    <path d="M 1347.574879 288.430125 
L 1364.654769 288.430125 
L 1364.654769 104.742624 
L 1347.574879 104.742624 
z
" clip-path="url(#p35a83fa06c)" style="fill: #2563eb"/>
   </g>
   <g id="patch_43">
    <path d="M 147.712621 288.430125 
L 164.79251 288.430125 
L 164.79251 765.297198 
L 147.712621 765.297198 
z
" clip-path="url(#p35a83fa06c)" style="fill: #dc2626"/>
   </g>
   <g id="patch_44">
    <path d="M 211.762207 288.430125 
L 228.842097 288.430125 
L 228.842097 187.02171 
L 211.762207 187.02171 
z
" clip-path="url(#p35a83fa06c)" style="fill: #dc2626"/>
   </g>
   <g id="patch_45">
    <path d="M 275.811794 288.430125 
L 292.891684 288.430125 
L 292.891684 179.504814 
L 275.811794 179.504814 
z
" clip-path="url(#p35a83fa06c)" style="fill: #dc2626"/>
   </g>
   <g id="patch_46">
    <path d="M 339.861381 288.430125 
L 356.941271 288.430125 
L 356.941271 200.899045 
L 339.861381 200.899045 
z
" clip-path="url(#p35a83fa06c)" style="fill: #dc2626"/>
   </g>
   <g id="patch_47">
    <path d="M 403.910968 288.430125 
L 420.990857 288.430125 
L 420.990857 834.099544 
L 403.910968 834.099544 
z
" clip-path="url(#p35a83fa06c)" style="fill: #dc2626"/>
   </g>
   <g id="patch_48">
    <path d="M 467.960554 288.430125 
L 485.040444 288.430125 
L 485.040444 680.936851 
L 467.960554 680.936851 
z
" clip-path="url(#p35a83fa06c)" style="fill: #dc2626"/>
   </g>
   <g id="patch_49">
    <path d="M 532.010141 288.430125 
L 549.090031 288.430125 
L 549.090031 193.51791 
L 532.010141 193.51791 
z
" clip-path="url(#p35a83fa06c)" style="fill: #dc2626"/>
   </g>
   <g id="patch_50">
    <path d="M 596.059728 288.430125 
L 613.139618 288.430125 
L 613.139618 180.319347 
L 596.059728 180.319347 
z
" clip-path="url(#p35a83fa06c)" style="fill: #dc2626"/>
   </g>
   <g id="patch_51">
    <path d="M 660.109315 288.430125 
L 677.189205 288.430125 
L 677.189205 613.206395 
L 660.109315 613.206395 
z
" clip-path="url(#p35a83fa06c)" style="fill: #dc2626"/>
   </g>
   <g id="patch_52">
    <path d="M 724.158902 288.430125 
L 741.238791 288.430125 
L 741.238791 251.622853 
L 724.158902 251.622853 
z
" clip-path="url(#p35a83fa06c)" style="fill: #dc2626"/>
   </g>
   <g id="patch_53">
    <path d="M 788.208488 288.430125 
L 805.288378 288.430125 
L 805.288378 728.011456 
L 788.208488 728.011456 
z
" clip-path="url(#p35a83fa06c)" style="fill: #dc2626"/>
   </g>
   <g id="patch_54">
    <path d="M 852.258075 288.430125 
L 869.337965 288.430125 
L 869.337965 437.044507 
L 852.258075 437.044507 
z
" clip-path="url(#p35a83fa06c)" style="fill: #dc2626"/>
   </g>
   <g id="patch_55">
    <path d="M 916.307662 288.430125 
L 933.387552 288.430125 
L 933.387552 212.511937 
L 916.307662 212.511937 
z
" clip-path="url(#p35a83fa06c)" style="fill: #dc2626"/>
   </g>
   <g id="patch_56">
    <path d="M 980.357249 288.430125 
L 997.437138 288.430125 
L 997.437138 509.253287 
L 980.357249 509.253287 
z
" clip-path="url(#p35a83fa06c)" style="fill: #dc2626"/>
   </g>
   <g id="patch_57">
    <path d="M 1044.406835 288.430125 
L 1061.486725 288.430125 
L 1061.486725 211.276548 
L 1044.406835 211.276548 
z
" clip-path="url(#p35a83fa06c)" style="fill: #dc2626"/>
   </g>
   <g id="patch_58">
    <path d="M 1108.456422 288.430125 
L 1125.536312 288.430125 
L 1125.536312 701.373312 
L 1108.456422 701.373312 
z
" clip-path="url(#p35a83fa06c)" style="fill: #dc2626"/>
   </g>
   <g id="patch_59">
    <path d="M 1172.506009 288.430125 
L 1189.585899 288.430125 
L 1189.585899 620.48552 
L 1172.506009 620.48552 
z
" clip-path="url(#p35a83fa06c)" style="fill: #dc2626"/>
   </g>
   <g id="patch_60">
    <path d="M 1236.555596 288.430125 
L 1253.635486 288.430125 
L 1253.635486 293.704619 
L 1236.555596 293.704619 
z
" clip-path="url(#p35a83fa06c)" style="fill: #dc2626"/>
   </g>
   <g id="patch_61">
    <path d="M 1300.605183 288.430125 
L 1317.685072 288.430125 
L 1317.685072 181.73238 
L 1300.605183 181.73238 
z
" clip-path="url(#p35a83fa06c)" style="fill: #dc2626"/>
   </g>
   <g id="patch_62">
    <path d="M 1364.654769 288.430125 
L 1381.734659 288.430125 
L 1381.734659 156.348352 
L 1364.654769 156.348352 
z
" clip-path="url(#p35a83fa06c)" style="fill: #dc2626"/>
   </g>
   <g id="LineCollection_1">
    <path d="M 122.092786 238.185892 
L 122.092786 204.741233 
" clip-path="url(#p35a83fa06c)" style="fill: none; stroke: #495057"/>
    <path d="M 186.142373 174.124114 
L 186.142373 146.763499 
" clip-path="url(#p35a83fa06c)" style="fill: none; stroke: #495057"/>
    <path d="M 250.191959 166.978312 
L 250.191959 143.885819 
" clip-path="url(#p35a83fa06c)" style="fill: none; stroke: #495057"/>
    <path d="M 314.241546 183.152197 
L 314.241546 156.277501 
" clip-path="url(#p35a83fa06c)" style="fill: none; stroke: #495057"/>
    <path d="M 378.291133 235.176174 
L 378.291133 197.725989 
" clip-path="url(#p35a83fa06c)" style="fill: none; stroke: #495057"/>
    <path d="M 442.34072 230.475624 
L 442.34072 189.969355 
" clip-path="url(#p35a83fa06c)" style="fill: none; stroke: #495057"/>
    <path d="M 506.390306 178.025289 
L 506.390306 146.752444 
" clip-path="url(#p35a83fa06c)" style="fill: none; stroke: #495057"/>
    <path d="M 570.439893 182.143827 
L 570.439893 148.886106 
" clip-path="url(#p35a83fa06c)" style="fill: none; stroke: #495057"/>
    <path d="M 634.48948 200.723244 
L 634.48948 177.767486 
" clip-path="url(#p35a83fa06c)" style="fill: none; stroke: #495057"/>
    <path d="M 698.539067 186.812412 
L 698.539067 165.111293 
" clip-path="url(#p35a83fa06c)" style="fill: none; stroke: #495057"/>
    <path d="M 762.588654 229.860816 
L 762.588654 208.13084 
" clip-path="url(#p35a83fa06c)" style="fill: none; stroke: #495057"/>
    <path d="M 826.63824 208.460547 
L 826.63824 184.721686 
" clip-path="url(#p35a83fa06c)" style="fill: none; stroke: #495057"/>
    <path d="M 890.687827 192.772232 
L 890.687827 161.977332 
" clip-path="url(#p35a83fa06c)" style="fill: none; stroke: #495057"/>
    <path d="M 954.737414 216.590266 
L 954.737414 179.04952 
" clip-path="url(#p35a83fa06c)" style="fill: none; stroke: #495057"/>
    <path d="M 1018.787001 182.695192 
L 1018.787001 164.783978 
" clip-path="url(#p35a83fa06c)" style="fill: none; stroke: #495057"/>
    <path d="M 1082.836587 250.495992 
L 1082.836587 208.990012 
" clip-path="url(#p35a83fa06c)" style="fill: none; stroke: #495057"/>
    <path d="M 1146.886174 230.801613 
L 1146.886174 213.231912 
" clip-path="url(#p35a83fa06c)" style="fill: none; stroke: #495057"/>
    <path d="M 1210.935761 194.686644 
L 1210.935761 164.61209 
" clip-path="url(#p35a83fa06c)" style="fill: none; stroke: #495057"/>
    <path d="M 1274.985348 179.063246 
L 1274.985348 156.314698 
" clip-path="url(#p35a83fa06c)" style="fill: none; stroke: #495057"/>
    <path d="M 1339.034935 189.644802 
L 1339.034935 163.254381 
" clip-path="url(#p35a83fa06c)" style="fill: none; stroke: #495057"/>
   </g>
   <g id="line2d_57">
    <defs>
     <path id="m95a8c80f2d" d="M 2.5 0 
L -2.5 -0 
" style="stroke: #495057"/>
    </defs>
    <g clip-path="url(#p35a83fa06c)">
     <use xlink:href="#m95a8c80f2d" x="122.092786" y="238.185892" style="fill: #495057; stroke: #495057"/>
     <use xlink:href="#m95a8c80f2d" x="186.142373" y="174.124114" style="fill: #495057; stroke: #495057"/>
     <use xlink:href="#m95a8c80f2d" x="250.191959" y="166.978312" style="fill: #495057; stroke: #495057"/>
     <use xlink:href="#m95a8c80f2d" x="314.241546" y="183.152197" style="fill: #495057; stroke: #495057"/>
     <use xlink:href="#m95a8c80f2d" x="378.291133" y="235.176174" style="fill: #495057; stroke: #495057"/>
     <use xlink:href="#m95a8c80f2d" x="442.34072" y="230.475624" style="fill: #495057; stroke: #495057"/>
     <use xlink:href="#m95a8c80f2d" x="506.390306" y="178.025289" style="fill: #495057; stroke: #495057"/>
     <use xlink:href="#m95a8c80f2d" x="570.439893" y="182.143827" style="fill: #495057; stroke: #495057"/>
     <use xlink:href="#m95a8c80f2d" x="634.48948" y="200.723244" style="fill: #495057; stroke: #495057"/>
     <use xlink:href="#m95a8c80f2d" x="698.539067" y="186.812412" style="fill: #495057; stroke: #495057"/>
     <use xlink:href="#m95a8c80f2d" x="762.588654" y="229.860816" style="fill: #495057; stroke: #495057"/>
     <use xlink:href="#m95a8c80f2d" x="826.63824" y="208.460547" style="fill: #495057; stroke: #495057"/>
     <use xlink:href="#m95a8c80f2d" x="890.687827" y="192.772232" style="fill: #495057; stroke: #495057"/>
     <use xlink:href="#m95a8c80f2d" x="954.737414" y="216.590266" style="fill: #495057; stroke: #495057"/>
     <use xlink:href="#m95a8c80f2d" x="1018.787001" y="182.695192" style="fill: #495057; stroke: #495057"/>
     <use xlink:href="#m95a8c80f2d" x="1082.836587" y="250.495992" style="fill: #495057; stroke: #495057"/>
     <use xlink:href="#m95a8c80f2d" x="1146.886174" y="230.801613" style="fill: #495057; stroke: #495057"/>
     <use xlink:href="#m95a8c80f2d" x="1210.935761" y="194.686644" style="fill: #495057; stroke: #495057"/>
     <use xlink:href="#m95a8c80f2d" x="1274.985348" y="179.063246" style="fill: #495057; stroke: #495057"/>
     <use xlink:href="#m95a8c80f2d" x="1339.034935" y="189.644802" style="fill: #495057; stroke: #495057"/>
    </g>
   </g>
   <g id="line2d_58">
    <g clip-path="url(#p35a83fa06c)">
     <use xlink:href="#m95a8c80f2d" x="122.092786" y="204.741233" style="fill: #495057; stroke: #495057"/>
     <use xlink:href="#m95a8c80f2d" x="186.142373" y="146.763499" style="fill: #495057; stroke: #495057"/>
     <use xlink:href="#m95a8c80f2d" x="250.191959" y="143.885819" style="fill: #495057; stroke: #495057"/>
     <use xlink:href="#m95a8c80f2d" x="314.241546" y="156.277501" style="fill: #495057; stroke: #495057"/>
     <use xlink:href="#m95a8c80f2d" x="378.291133" y="197.725989" style="fill: #495057; stroke: #495057"/>
     <use xlink:href="#m95a8c80f2d" x="442.34072" y="189.969355" style="fill: #495057; stroke: #495057"/>
     <use xlink:href="#m95a8c80f2d" x="506.390306" y="146.752444" style="fill: #495057; stroke: #495057"/>
     <use xlink:href="#m95a8c80f2d" x="570.439893" y="148.886106" style="fill: #495057; stroke: #495057"/>
     <use xlink:href="#m95a8c80f2d" x="634.48948" y="177.767486" style="fill: #495057; stroke: #495057"/>
     <use xlink:href="#m95a8c80f2d" x="698.539067" y="165.111293" style="fill: #495057; stroke: #495057"/>
     <use xlink:href="#m95a8c80f2d" x="762.588654" y="208.13084" style="fill: #495057; stroke: #495057"/>
     <use xlink:href="#m95a8c80f2d" x="826.63824" y="184.721686" style="fill: #495057; stroke: #495057"/>
     <use xlink:href="#m95a8c80f2d" x="890.687827" y="161.977332" style="fill: #495057; stroke: #495057"/>
     <use xlink:href="#m95a8c80f2d" x="954.737414" y="179.04952" style="fill: #495057; stroke: #495057"/>
     <use xlink:href="#m95a8c80f2d" x="1018.787001" y="164.783978" style="fill: #495057; stroke: #495057"/>
     <use xlink:href="#m95a8c80f2d" x="1082.836587" y="208.990012" style="fill: #495057; stroke: #495057"/>
     <use xlink:href="#m95a8c80f2d" x="1146.886174" y="213.231912" style="fill: #495057; stroke: #495057"/>
     <use xlink:href="#m95a8c80f2d" x="1210.935761" y="164.61209" style="fill: #495057; stroke: #495057"/>
     <use xlink:href="#m95a8c80f2d" x="1274.985348" y="156.314698" style="fill: #495057; stroke: #495057"/>
     <use xlink:href="#m95a8c80f2d" x="1339.034935" y="163.254381" style="fill: #495057; stroke: #495057"/>
    </g>
   </g>
   <g id="LineCollection_2">
    <path d="M 139.172676 281.675142 
L 139.172676 246.65663 
" clip-path="url(#p35a83fa06c)" style="fill: none; stroke: #495057"/>
    <path d="M 203.222262 187.668392 
L 203.222262 165.220965 
" clip-path="url(#p35a83fa06c)" style="fill: none; stroke: #495057"/>
    <path d="M 267.271849 176.71687 
L 267.271849 160.304299 
" clip-path="url(#p35a83fa06c)" style="fill: none; stroke: #495057"/>
    <path d="M 331.321436 195.623261 
L 331.321436 182.421014 
" clip-path="url(#p35a83fa06c)" style="fill: none; stroke: #495057"/>
    <path d="M 395.371023 297.568845 
L 395.371023 224.431804 
" clip-path="url(#p35a83fa06c)" style="fill: none; stroke: #495057"/>
    <path d="M 459.42061 268.062491 
L 459.42061 238.226522 
" clip-path="url(#p35a83fa06c)" style="fill: none; stroke: #495057"/>
    <path d="M 523.470196 189.375736 
L 523.470196 164.566179 
" clip-path="url(#p35a83fa06c)" style="fill: none; stroke: #495057"/>
    <path d="M 587.519783 174.851289 
L 587.519783 149.834166 
" clip-path="url(#p35a83fa06c)" style="fill: none; stroke: #495057"/>
    <path d="M 651.56937 224.138629 
L 651.56937 194.125258 
" clip-path="url(#p35a83fa06c)" style="fill: none; stroke: #495057"/>
    <path d="M 715.618957 200.456733 
L 715.618957 178.01093 
" clip-path="url(#p35a83fa06c)" style="fill: none; stroke: #495057"/>
    <path d="M 779.668543 301.165215 
L 779.668543 256.445186 
" clip-path="url(#p35a83fa06c)" style="fill: none; stroke: #495057"/>
    <path d="M 843.71813 212.216877 
L 843.71813 194.691606 
" clip-path="url(#p35a83fa06c)" style="fill: none; stroke: #495057"/>
    <path d="M 907.767717 201.218022 
L 907.767717 181.265687 
" clip-path="url(#p35a83fa06c)" style="fill: none; stroke: #495057"/>
    <path d="M 971.817304 265.847031 
L 971.817304 232.13948 
" clip-path="url(#p35a83fa06c)" style="fill: none; stroke: #495057"/>
    <path d="M 1035.86689 191.775018 
L 1035.86689 178.411772 
" clip-path="url(#p35a83fa06c)" style="fill: none; stroke: #495057"/>
    <path d="M 1099.916477 298.540009 
L 1099.916477 227.198174 
" clip-path="url(#p35a83fa06c)" style="fill: none; stroke: #495057"/>
    <path d="M 1163.966064 245.942292 
L 1163.966064 221.694371 
" clip-path="url(#p35a83fa06c)" style="fill: none; stroke: #495057"/>
    <path d="M 1228.015651 210.747598 
L 1228.015651 174.180076 
" clip-path="url(#p35a83fa06c)" style="fill: none; stroke: #495057"/>
    <path d="M 1292.065238 177.278937 
L 1292.065238 148.91391 
" clip-path="url(#p35a83fa06c)" style="fill: none; stroke: #495057"/>
    <path d="M 1356.114824 129.540534 
L 1356.114824 79.944713 
" clip-path="url(#p35a83fa06c)" style="fill: none; stroke: #495057"/>
   </g>
   <g id="line2d_59">
    <g clip-path="url(#p35a83fa06c)">
     <use xlink:href="#m95a8c80f2d" x="139.172676" y="281.675142" style="fill: #495057; stroke: #495057"/>
     <use xlink:href="#m95a8c80f2d" x="203.222262" y="187.668392" style="fill: #495057; stroke: #495057"/>
     <use xlink:href="#m95a8c80f2d" x="267.271849" y="176.71687" style="fill: #495057; stroke: #495057"/>
     <use xlink:href="#m95a8c80f2d" x="331.321436" y="195.623261" style="fill: #495057; stroke: #495057"/>
     <use xlink:href="#m95a8c80f2d" x="395.371023" y="297.568845" style="fill: #495057; stroke: #495057"/>
     <use xlink:href="#m95a8c80f2d" x="459.42061" y="268.062491" style="fill: #495057; stroke: #495057"/>
     <use xlink:href="#m95a8c80f2d" x="523.470196" y="189.375736" style="fill: #495057; stroke: #495057"/>
     <use xlink:href="#m95a8c80f2d" x="587.519783" y="174.851289" style="fill: #495057; stroke: #495057"/>
     <use xlink:href="#m95a8c80f2d" x="651.56937" y="224.138629" style="fill: #495057; stroke: #495057"/>
     <use xlink:href="#m95a8c80f2d" x="715.618957" y="200.456733" style="fill: #495057; stroke: #495057"/>
     <use xlink:href="#m95a8c80f2d" x="779.668543" y="301.165215" style="fill: #495057; stroke: #495057"/>
     <use xlink:href="#m95a8c80f2d" x="843.71813" y="212.216877" style="fill: #495057; stroke: #495057"/>
     <use xlink:href="#m95a8c80f2d" x="907.767717" y="201.218022" style="fill: #495057; stroke: #495057"/>
     <use xlink:href="#m95a8c80f2d" x="971.817304" y="265.847031" style="fill: #495057; stroke: #495057"/>
     <use xlink:href="#m95a8c80f2d" x="1035.86689" y="191.775018" style="fill: #495057; stroke: #495057"/>
     <use xlink:href="#m95a8c80f2d" x="1099.916477" y="298.540009" style="fill: #495057; stroke: #495057"/>
     <use xlink:href="#m95a8c80f2d" x="1163.966064" y="245.942292" style="fill: #495057; stroke: #495057"/>
     <use xlink:href="#m95a8c80f2d" x="1228.015651" y="210.747598" style="fill: #495057; stroke: #495057"/>
     <use xlink:href="#m95a8c80f2d" x="1292.065238" y="177.278937" style="fill: #495057; stroke: #495057"/>
     <use xlink:href="#m95a8c80f2d" x="1356.114824" y="129.540534" style="fill: #495057; stroke: #495057"/>
    </g>
   </g>
   <g id="line2d_60">
    <g clip-path="url(#p35a83fa06c)">
     <use xlink:href="#m95a8c80f2d" x="139.172676" y="246.65663" style="fill: #495057; stroke: #495057"/>
     <use xlink:href="#m95a8c80f2d" x="203.222262" y="165.220965" style="fill: #495057; stroke: #495057"/>
     <use xlink:href="#m95a8c80f2d" x="267.271849" y="160.304299" style="fill: #495057; stroke: #495057"/>
     <use xlink:href="#m95a8c80f2d" x="331.321436" y="182.421014" style="fill: #495057; stroke: #495057"/>
     <use xlink:href="#m95a8c80f2d" x="395.371023" y="224.431804" style="fill: #495057; stroke: #495057"/>
     <use xlink:href="#m95a8c80f2d" x="459.42061" y="238.226522" style="fill: #495057; stroke: #495057"/>
     <use xlink:href="#m95a8c80f2d" x="523.470196" y="164.566179" style="fill: #495057; stroke: #495057"/>
     <use xlink:href="#m95a8c80f2d" x="587.519783" y="149.834166" style="fill: #495057; stroke: #495057"/>
     <use xlink:href="#m95a8c80f2d" x="651.56937" y="194.125258" style="fill: #495057; stroke: #495057"/>
     <use xlink:href="#m95a8c80f2d" x="715.618957" y="178.01093" style="fill: #495057; stroke: #495057"/>
     <use xlink:href="#m95a8c80f2d" x="779.668543" y="256.445186" style="fill: #495057; stroke: #495057"/>
     <use xlink:href="#m95a8c80f2d" x="843.71813" y="194.691606" style="fill: #495057; stroke: #495057"/>
     <use xlink:href="#m95a8c80f2d" x="907.767717" y="181.265687" style="fill: #495057; stroke: #495057"/>
     <use xlink:href="#m95a8c80f2d" x="971.817304" y="232.13948" style="fill: #495057; stroke: #495057"/>
     <use xlink:href="#m95a8c80f2d" x="1035.86689" y="178.411772" style="fill: #495057; stroke: #495057"/>
     <use xlink:href="#m95a8c80f2d" x="1099.916477" y="227.198174" style="fill: #495057; stroke: #495057"/>
     <use xlink:href="#m95a8c80f2d" x="1163.966064" y="221.694371" style="fill: #495057; stroke: #495057"/>
     <use xlink:href="#m95a8c80f2d" x="1228.015651" y="174.180076" style="fill: #495057; stroke: #495057"/>
     <use xlink:href="#m95a8c80f2d" x="1292.065238" y="148.91391" style="fill: #495057; stroke: #495057"/>
     <use xlink:href="#m95a8c80f2d" x="1356.114824" y="79.944713" style="fill: #495057; stroke: #495057"/>
    </g>
   </g>
   <g id="LineCollection_3">
    <path clip-path="url(#p35a83fa06c)" style="fill: none; stroke: #495057"/>
    <path d="M 220.302152 200.234916 
L 220.302152 173.808504 
" clip-path="url(#p35a83fa06c)" style="fill: none; stroke: #495057"/>
    <path d="M 284.351739 190.612025 
L 284.351739 168.397604 
" clip-path="url(#p35a83fa06c)" style="fill: none; stroke: #495057"/>
    <path d="M 348.401326 212.672135 
L 348.401326 189.125955 
" clip-path="url(#p35a83fa06c)" style="fill: none; stroke: #495057"/>
    <path clip-path="url(#p35a83fa06c)" style="fill: none; stroke: #495057"/>
    <path clip-path="url(#p35a83fa06c)" style="fill: none; stroke: #495057"/>
    <path d="M 540.550086 204.457411 
L 540.550086 182.57841 
" clip-path="url(#p35a83fa06c)" style="fill: none; stroke: #495057"/>
    <path d="M 604.599673 199.487588 
L 604.599673 161.151105 
" clip-path="url(#p35a83fa06c)" style="fill: none; stroke: #495057"/>
    <path d="M 668.64926 362.18419 
L 668.64926 358.718876 
" clip-path="url(#p35a83fa06c)" style="fill: none; stroke: #495057"/>
    <path d="M 732.698846 296.16232 
L 732.698846 207.083385 
" clip-path="url(#p35a83fa06c)" style="fill: none; stroke: #495057"/>
    <path clip-path="url(#p35a83fa06c)" style="fill: none; stroke: #495057"/>
    <path d="M 860.79802 362.18419 
L 860.79802 280.990425 
" clip-path="url(#p35a83fa06c)" style="fill: none; stroke: #495057"/>
    <path d="M 924.847607 226.177218 
L 924.847607 198.846657 
" clip-path="url(#p35a83fa06c)" style="fill: none; stroke: #495057"/>
    <path d="M 988.897194 362.18419 
L 988.897194 335.42064 
" clip-path="url(#p35a83fa06c)" style="fill: none; stroke: #495057"/>
    <path d="M 1052.94678 219.182777 
L 1052.94678 203.370318 
" clip-path="url(#p35a83fa06c)" style="fill: none; stroke: #495057"/>
    <path clip-path="url(#p35a83fa06c)" style="fill: none; stroke: #495057"/>
    <path d="M 1181.045954 362.18419 
L 1181.045954 326.736581 
" clip-path="url(#p35a83fa06c)" style="fill: none; stroke: #495057"/>
    <path d="M 1245.095541 362.18419 
L 1245.095541 223.79745 
" clip-path="url(#p35a83fa06c)" style="fill: none; stroke: #495057"/>
    <path d="M 1309.145127 195.24114 
L 1309.145127 168.223621 
" clip-path="url(#p35a83fa06c)" style="fill: none; stroke: #495057"/>
    <path d="M 1373.194714 209.696117 
L 1373.194714 103.000587 
" clip-path="url(#p35a83fa06c)" style="fill: none; stroke: #495057"/>
   </g>
   <g id="line2d_61">
    <g clip-path="url(#p35a83fa06c)">
     <use xlink:href="#m95a8c80f2d" x="156.252565" y="1087.744585" style="fill: #495057; stroke: #495057"/>
     <use xlink:href="#m95a8c80f2d" x="220.302152" y="200.234916" style="fill: #495057; stroke: #495057"/>
     <use xlink:href="#m95a8c80f2d" x="284.351739" y="190.612025" style="fill: #495057; stroke: #495057"/>
     <use xlink:href="#m95a8c80f2d" x="348.401326" y="212.672135" style="fill: #495057; stroke: #495057"/>
     <use xlink:href="#m95a8c80f2d" x="412.450913" y="1232.476475" style="fill: #495057; stroke: #495057"/>
     <use xlink:href="#m95a8c80f2d" x="476.500499" y="996.165912" style="fill: #495057; stroke: #495057"/>
     <use xlink:href="#m95a8c80f2d" x="540.550086" y="204.457411" style="fill: #495057; stroke: #495057"/>
     <use xlink:href="#m95a8c80f2d" x="604.599673" y="199.487588" style="fill: #495057; stroke: #495057"/>
     <use xlink:href="#m95a8c80f2d" x="668.64926" y="867.693915" style="fill: #495057; stroke: #495057"/>
     <use xlink:href="#m95a8c80f2d" x="732.698846" y="296.16232" style="fill: #495057; stroke: #495057"/>
     <use xlink:href="#m95a8c80f2d" x="796.748433" y="1009.841451" style="fill: #495057; stroke: #495057"/>
     <use xlink:href="#m95a8c80f2d" x="860.79802" y="593.098588" style="fill: #495057; stroke: #495057"/>
     <use xlink:href="#m95a8c80f2d" x="924.847607" y="226.177218" style="fill: #495057; stroke: #495057"/>
     <use xlink:href="#m95a8c80f2d" x="988.897194" y="683.085934" style="fill: #495057; stroke: #495057"/>
     <use xlink:href="#m95a8c80f2d" x="1052.94678" y="219.182777" style="fill: #495057; stroke: #495057"/>
     <use xlink:href="#m95a8c80f2d" x="1116.996367" y="981.13773" style="fill: #495057; stroke: #495057"/>
     <use xlink:href="#m95a8c80f2d" x="1181.045954" y="914.234459" style="fill: #495057; stroke: #495057"/>
     <use xlink:href="#m95a8c80f2d" x="1245.095541" y="363.611788" style="fill: #495057; stroke: #495057"/>
     <use xlink:href="#m95a8c80f2d" x="1309.145127" y="195.24114" style="fill: #495057; stroke: #495057"/>
     <use xlink:href="#m95a8c80f2d" x="1373.194714" y="209.696117" style="fill: #495057; stroke: #495057"/>
    </g>
   </g>
   <g id="line2d_62">
    <g clip-path="url(#p35a83fa06c)">
     <use xlink:href="#m95a8c80f2d" x="156.252565" y="442.84981" style="fill: #495057; stroke: #495057"/>
     <use xlink:href="#m95a8c80f2d" x="220.302152" y="173.808504" style="fill: #495057; stroke: #495057"/>
     <use xlink:href="#m95a8c80f2d" x="284.351739" y="168.397604" style="fill: #495057; stroke: #495057"/>
     <use xlink:href="#m95a8c80f2d" x="348.401326" y="189.125955" style="fill: #495057; stroke: #495057"/>
     <use xlink:href="#m95a8c80f2d" x="412.450913" y="435.722613" style="fill: #495057; stroke: #495057"/>
     <use xlink:href="#m95a8c80f2d" x="476.500499" y="365.70779" style="fill: #495057; stroke: #495057"/>
     <use xlink:href="#m95a8c80f2d" x="540.550086" y="182.57841" style="fill: #495057; stroke: #495057"/>
     <use xlink:href="#m95a8c80f2d" x="604.599673" y="161.151105" style="fill: #495057; stroke: #495057"/>
     <use xlink:href="#m95a8c80f2d" x="668.64926" y="358.718876" style="fill: #495057; stroke: #495057"/>
     <use xlink:href="#m95a8c80f2d" x="732.698846" y="207.083385" style="fill: #495057; stroke: #495057"/>
     <use xlink:href="#m95a8c80f2d" x="796.748433" y="446.181461" style="fill: #495057; stroke: #495057"/>
     <use xlink:href="#m95a8c80f2d" x="860.79802" y="280.990425" style="fill: #495057; stroke: #495057"/>
     <use xlink:href="#m95a8c80f2d" x="924.847607" y="198.846657" style="fill: #495057; stroke: #495057"/>
     <use xlink:href="#m95a8c80f2d" x="988.897194" y="335.42064" style="fill: #495057; stroke: #495057"/>
     <use xlink:href="#m95a8c80f2d" x="1052.94678" y="203.370318" style="fill: #495057; stroke: #495057"/>
     <use xlink:href="#m95a8c80f2d" x="1116.996367" y="421.608894" style="fill: #495057; stroke: #495057"/>
     <use xlink:href="#m95a8c80f2d" x="1181.045954" y="326.736581" style="fill: #495057; stroke: #495057"/>
     <use xlink:href="#m95a8c80f2d" x="1245.095541" y="223.79745" style="fill: #495057; stroke: #495057"/>
     <use xlink:href="#m95a8c80f2d" x="1309.145127" y="168.223621" style="fill: #495057; stroke: #495057"/>
     <use xlink:href="#m95a8c80f2d" x="1373.194714" y="103.000587" style="fill: #495057; stroke: #495057"/>
    </g>
   </g>
   <g id="patch_63">
    <path d="M 50.14375 288.430125 
L 50.14375 22.318125 
" style="fill: none; stroke: #495057; stroke-width: 0.8; stroke-linejoin: miter; stroke-linecap: square"/>
   </g>
   <g id="patch_64">
    <path d="M 50.14375 288.430125 
L 1445.14375 288.430125 
" style="fill: none; stroke: #495057; stroke-width: 0.8; stroke-linejoin: miter; stroke-linecap: square"/>
   </g>
   <g id="text_30">
    <!-- Final retained value per task  (mean ± 95% CI, 10 seeds) -->
    <g style="fill: #212529" transform="translate(50.14375 16.318125) scale(0.12 -0.12)">
     <defs>
      <path id="DejaVuSans-Bold-46" d="M 588 4666 
L 3834 4666 
L 3834 3756 
L 1791 3756 
L 1791 2888 
L 3713 2888 
L 3713 1978 
L 1791 1978 
L 1791 0 
L 588 0 
L 588 4666 
z
" transform="scale(0.015625)"/>
      <path id="DejaVuSans-Bold-69" d="M 538 3500 
L 1656 3500 
L 1656 0 
L 538 0 
L 538 3500 
z
M 538 4863 
L 1656 4863 
L 1656 3950 
L 538 3950 
L 538 4863 
z
" transform="scale(0.015625)"/>
      <path id="DejaVuSans-Bold-6e" d="M 4056 2131 
L 4056 0 
L 2931 0 
L 2931 347 
L 2931 1631 
Q 2931 2084 2911 2256 
Q 2891 2428 2841 2509 
Q 2775 2619 2662 2680 
Q 2550 2741 2406 2741 
Q 2056 2741 1856 2470 
Q 1656 2200 1656 1722 
L 1656 0 
L 538 0 
L 538 3500 
L 1656 3500 
L 1656 2988 
Q 1909 3294 2193 3439 
Q 2478 3584 2822 3584 
Q 3428 3584 3742 3212 
Q 4056 2841 4056 2131 
z
" transform="scale(0.015625)"/>
      <path id="DejaVuSans-Bold-61" d="M 2106 1575 
Q 1756 1575 1579 1456 
Q 1403 1338 1403 1106 
Q 1403 894 1545 773 
Q 1688 653 1941 653 
Q 2256 653 2472 879 
Q 2688 1106 2688 1447 
L 2688 1575 
L 2106 1575 
z
M 3816 1997 
L 3816 0 
L 2688 0 
L 2688 519 
Q 2463 200 2181 54 
Q 1900 -91 1497 -91 
Q 953 -91 614 226 
Q 275 544 275 1050 
Q 275 1666 698 1953 
Q 1122 2241 2028 2241 
L 2688 2241 
L 2688 2328 
Q 2688 2594 2478 2717 
Q 2269 2841 1825 2841 
Q 1466 2841 1156 2769 
Q 847 2697 581 2553 
L 581 3406 
Q 941 3494 1303 3539 
Q 1666 3584 2028 3584 
Q 2975 3584 3395 3211 
Q 3816 2838 3816 1997 
z
" transform="scale(0.015625)"/>
      <path id="DejaVuSans-Bold-6c" d="M 538 4863 
L 1656 4863 
L 1656 0 
L 538 0 
L 538 4863 
z
" transform="scale(0.015625)"/>
      <path id="DejaVuSans-Bold-20" transform="scale(0.015625)"/>
      <path id="DejaVuSans-Bold-72" d="M 3138 2547 
Q 2991 2616 2845 2648 
Q 2700 2681 2553 2681 
Q 2122 2681 1889 2404 
Q 1656 2128 1656 1613 
L 1656 0 
L 538 0 
L 538 3500 
L 1656 3500 
L 1656 2925 
Q 1872 3269 2151 3426 
Q 2431 3584 2822 3584 
Q 2878 3584 2943 3579 
Q 3009 3575 3134 3559 
L 3138 2547 
z
" transform="scale(0.015625)"/>
      <path id="DejaVuSans-Bold-65" d="M 4031 1759 
L 4031 1441 
L 1416 1441 
Q 1456 1047 1700 850 
Q 1944 653 2381 653 
Q 2734 653 3104 758 
Q 3475 863 3866 1075 
L 3866 213 
Q 3469 63 3072 -14 
Q 2675 -91 2278 -91 
Q 1328 -91 801 392 
Q 275 875 275 1747 
Q 275 2603 792 3093 
Q 1309 3584 2216 3584 
Q 3041 3584 3536 3087 
Q 4031 2591 4031 1759 
z
M 2881 2131 
Q 2881 2450 2695 2645 
Q 2509 2841 2209 2841 
Q 1884 2841 1681 2658 
Q 1478 2475 1428 2131 
L 2881 2131 
z
" transform="scale(0.015625)"/>
      <path id="DejaVuSans-Bold-74" d="M 1759 4494 
L 1759 3500 
L 2913 3500 
L 2913 2700 
L 1759 2700 
L 1759 1216 
Q 1759 972 1856 886 
Q 1953 800 2241 800 
L 2816 800 
L 2816 0 
L 1856 0 
Q 1194 0 917 276 
Q 641 553 641 1216 
L 641 2700 
L 84 2700 
L 84 3500 
L 641 3500 
L 641 4494 
L 1759 4494 
z
" transform="scale(0.015625)"/>
      <path id="DejaVuSans-Bold-64" d="M 2919 2988 
L 2919 4863 
L 4044 4863 
L 4044 0 
L 2919 0 
L 2919 506 
Q 2688 197 2409 53 
Q 2131 -91 1766 -91 
Q 1119 -91 703 423 
Q 288 938 288 1747 
Q 288 2556 703 3070 
Q 1119 3584 1766 3584 
Q 2128 3584 2408 3439 
Q 2688 3294 2919 2988 
z
M 2181 722 
Q 2541 722 2730 984 
Q 2919 1247 2919 1747 
Q 2919 2247 2730 2509 
Q 2541 2772 2181 2772 
Q 1825 2772 1636 2509 
Q 1447 2247 1447 1747 
Q 1447 1247 1636 984 
Q 1825 722 2181 722 
z
" transform="scale(0.015625)"/>
      <path id="DejaVuSans-Bold-76" d="M 97 3500 
L 1216 3500 
L 2088 1081 
L 2956 3500 
L 4078 3500 
L 2700 0 
L 1472 0 
L 97 3500 
z
" transform="scale(0.015625)"/>
      <path id="DejaVuSans-Bold-75" d="M 500 1363 
L 500 3500 
L 1625 3500 
L 1625 3150 
Q 1625 2866 1622 2436 
Q 1619 2006 1619 1863 
Q 1619 1441 1641 1255 
Q 1663 1069 1716 984 
Q 1784 875 1895 815 
Q 2006 756 2150 756 
Q 2500 756 2700 1025 
Q 2900 1294 2900 1772 
L 2900 3500 
L 4019 3500 
L 4019 0 
L 2900 0 
L 2900 506 
Q 2647 200 2364 54 
Q 2081 -91 1741 -91 
Q 1134 -91 817 281 
Q 500 653 500 1363 
z
" transform="scale(0.015625)"/>
      <path id="DejaVuSans-Bold-70" d="M 1656 506 
L 1656 -1331 
L 538 -1331 
L 538 3500 
L 1656 3500 
L 1656 2988 
Q 1888 3294 2169 3439 
Q 2450 3584 2816 3584 
Q 3463 3584 3878 3070 
Q 4294 2556 4294 1747 
Q 4294 938 3878 423 
Q 3463 -91 2816 -91 
Q 2450 -91 2169 54 
Q 1888 200 1656 506 
z
M 2400 2772 
Q 2041 2772 1848 2508 
Q 1656 2244 1656 1747 
Q 1656 1250 1848 986 
Q 2041 722 2400 722 
Q 2759 722 2948 984 
Q 3138 1247 3138 1747 
Q 3138 2247 2948 2509 
Q 2759 2772 2400 2772 
z
" transform="scale(0.015625)"/>
      <path id="DejaVuSans-Bold-73" d="M 3272 3391 
L 3272 2541 
Q 2913 2691 2578 2766 
Q 2244 2841 1947 2841 
Q 1628 2841 1473 2761 
Q 1319 2681 1319 2516 
Q 1319 2381 1436 2309 
Q 1553 2238 1856 2203 
L 2053 2175 
Q 2913 2066 3209 1816 
Q 3506 1566 3506 1031 
Q 3506 472 3093 190 
Q 2681 -91 1863 -91 
Q 1516 -91 1145 -36 
Q 775 19 384 128 
L 384 978 
Q 719 816 1070 734 
Q 1422 653 1784 653 
Q 2113 653 2278 743 
Q 2444 834 2444 1013 
Q 2444 1163 2330 1236 
Q 2216 1309 1875 1350 
L 1678 1375 
Q 931 1469 631 1722 
Q 331 1975 331 2491 
Q 331 3047 712 3315 
Q 1094 3584 1881 3584 
Q 2191 3584 2531 3537 
Q 2872 3491 3272 3391 
z
" transform="scale(0.015625)"/>
      <path id="DejaVuSans-Bold-6b" d="M 538 4863 
L 1656 4863 
L 1656 2216 
L 2944 3500 
L 4244 3500 
L 2534 1894 
L 4378 0 
L 3022 0 
L 1656 1459 
L 1656 0 
L 538 0 
L 538 4863 
z
" transform="scale(0.015625)"/>
      <path id="DejaVuSans-Bold-28" d="M 2413 -844 
L 1484 -844 
Q 1006 -72 778 623 
Q 550 1319 550 2003 
Q 550 2688 779 3389 
Q 1009 4091 1484 4856 
L 2413 4856 
Q 2013 4116 1813 3408 
Q 1613 2700 1613 2009 
Q 1613 1319 1811 609 
Q 2009 -100 2413 -844 
z
" transform="scale(0.015625)"/>
      <path id="DejaVuSans-Bold-6d" d="M 3781 2919 
Q 3994 3244 4286 3414 
Q 4578 3584 4928 3584 
Q 5531 3584 5847 3212 
Q 6163 2841 6163 2131 
L 6163 0 
L 5038 0 
L 5038 1825 
Q 5041 1866 5042 1909 
Q 5044 1953 5044 2034 
Q 5044 2406 4934 2573 
Q 4825 2741 4581 2741 
Q 4263 2741 4089 2478 
Q 3916 2216 3909 1719 
L 3909 0 
L 2784 0 
L 2784 1825 
Q 2784 2406 2684 2573 
Q 2584 2741 2328 2741 
Q 2006 2741 1831 2477 
Q 1656 2213 1656 1722 
L 1656 0 
L 531 0 
L 531 3500 
L 1656 3500 
L 1656 2988 
Q 1863 3284 2130 3434 
Q 2397 3584 2719 3584 
Q 3081 3584 3359 3409 
Q 3638 3234 3781 2919 
z
" transform="scale(0.015625)"/>
      <path id="DejaVuSans-Bold-b1" d="M 3053 4013 
L 3053 2906 
L 4684 2906 
L 4684 2169 
L 3053 2169 
L 3053 1063 
L 2309 1063 
L 2309 2169 
L 678 2169 
L 678 2906 
L 2309 2906 
L 2309 4013 
L 3053 4013 
z
M 678 744 
L 4684 744 
L 4684 0 
L 678 0 
L 678 744 
z
" transform="scale(0.015625)"/>
      <path id="DejaVuSans-Bold-39" d="M 641 103 
L 641 966 
Q 928 831 1190 764 
Q 1453 697 1709 697 
Q 2247 697 2547 995 
Q 2847 1294 2900 1881 
Q 2688 1725 2447 1647 
Q 2206 1569 1925 1569 
Q 1209 1569 770 1986 
Q 331 2403 331 3084 
Q 331 3838 820 4291 
Q 1309 4744 2131 4744 
Q 3044 4744 3544 4128 
Q 4044 3513 4044 2388 
Q 4044 1231 3459 570 
Q 2875 -91 1856 -91 
Q 1528 -91 1228 -42 
Q 928 6 641 103 
z
M 2125 2350 
Q 2441 2350 2600 2554 
Q 2759 2759 2759 3169 
Q 2759 3575 2600 3781 
Q 2441 3988 2125 3988 
Q 1809 3988 1650 3781 
Q 1491 3575 1491 3169 
Q 1491 2759 1650 2554 
Q 1809 2350 2125 2350 
z
" transform="scale(0.015625)"/>
      <path id="DejaVuSans-Bold-35" d="M 678 4666 
L 3669 4666 
L 3669 3781 
L 1638 3781 
L 1638 3059 
Q 1775 3097 1914 3117 
Q 2053 3138 2203 3138 
Q 3056 3138 3531 2711 
Q 4006 2284 4006 1522 
Q 4006 766 3489 337 
Q 2972 -91 2053 -91 
Q 1656 -91 1267 -14 
Q 878 63 494 219 
L 494 1166 
Q 875 947 1217 837 
Q 1559 728 1863 728 
Q 2300 728 2551 942 
Q 2803 1156 2803 1522 
Q 2803 1891 2551 2103 
Q 2300 2316 1863 2316 
Q 1603 2316 1309 2248 
Q 1016 2181 678 2041 
L 678 4666 
z
" transform="scale(0.015625)"/>
      <path id="DejaVuSans-Bold-25" d="M 4959 1925 
Q 4738 1925 4616 1733 
Q 4494 1541 4494 1184 
Q 4494 825 4614 633 
Q 4734 441 4959 441 
Q 5184 441 5303 633 
Q 5422 825 5422 1184 
Q 5422 1541 5301 1733 
Q 5181 1925 4959 1925 
z
M 4959 2450 
Q 5541 2450 5875 2112 
Q 6209 1775 6209 1184 
Q 6209 594 5875 251 
Q 5541 -91 4959 -91 
Q 4378 -91 4042 251 
Q 3706 594 3706 1184 
Q 3706 1772 4042 2111 
Q 4378 2450 4959 2450 
z
M 2094 -91 
L 1403 -91 
L 4319 4750 
L 5013 4750 
L 2094 -91 
z
M 1453 4750 
Q 2034 4750 2367 4411 
Q 2700 4072 2700 3481 
Q 2700 2891 2367 2550 
Q 2034 2209 1453 2209 
Q 872 2209 539 2550 
Q 206 2891 206 3481 
Q 206 4072 539 4411 
Q 872 4750 1453 4750 
z
M 1453 4225 
Q 1228 4225 1106 4031 
Q 984 3838 984 3481 
Q 984 3122 1106 2926 
Q 1228 2731 1453 2731 
Q 1678 2731 1798 2926 
Q 1919 3122 1919 3481 
Q 1919 3838 1797 4031 
Q 1675 4225 1453 4225 
z
" transform="scale(0.015625)"/>
      <path id="DejaVuSans-Bold-43" d="M 4288 256 
Q 3956 84 3597 -3 
Q 3238 -91 2847 -91 
Q 1681 -91 1000 561 
Q 319 1213 319 2328 
Q 319 3447 1000 4098 
Q 1681 4750 2847 4750 
Q 3238 4750 3597 4662 
Q 3956 4575 4288 4403 
L 4288 3438 
Q 3953 3666 3628 3772 
Q 3303 3878 2944 3878 
Q 2300 3878 1931 3465 
Q 1563 3053 1563 2328 
Q 1563 1606 1931 1193 
Q 2300 781 2944 781 
Q 3303 781 3628 887 
Q 3953 994 4288 1222 
L 4288 256 
z
" transform="scale(0.015625)"/>
      <path id="DejaVuSans-Bold-49" d="M 588 4666 
L 1791 4666 
L 1791 0 
L 588 0 
L 588 4666 
z
" transform="scale(0.015625)"/>
      <path id="DejaVuSans-Bold-2c" d="M 653 1209 
L 1778 1209 
L 1778 256 
L 1006 -909 
L 341 -909 
L 653 256 
L 653 1209 
z
" transform="scale(0.015625)"/>
      <path id="DejaVuSans-Bold-31" d="M 750 831 
L 1813 831 
L 1813 3847 
L 722 3622 
L 722 4441 
L 1806 4666 
L 2950 4666 
L 2950 831 
L 4013 831 
L 4013 0 
L 750 0 
L 750 831 
z
" transform="scale(0.015625)"/>
      <path id="DejaVuSans-Bold-30" d="M 2944 2338 
Q 2944 3213 2780 3570 
Q 2616 3928 2228 3928 
Q 1841 3928 1675 3570 
Q 1509 3213 1509 2338 
Q 1509 1453 1675 1090 
Q 1841 728 2228 728 
Q 2613 728 2778 1090 
Q 2944 1453 2944 2338 
z
M 4147 2328 
Q 4147 1169 3647 539 
Q 3147 -91 2228 -91 
Q 1306 -91 806 539 
Q 306 1169 306 2328 
Q 306 3491 806 4120 
Q 1306 4750 2228 4750 
Q 3147 4750 3647 4120 
Q 4147 3491 4147 2328 
z
" transform="scale(0.015625)"/>
      <path id="DejaVuSans-Bold-29" d="M 513 -844 
Q 913 -100 1113 609 
Q 1313 1319 1313 2009 
Q 1313 2700 1113 3408 
Q 913 4116 513 4856 
L 1441 4856 
Q 1916 4091 2145 3389 
Q 2375 2688 2375 2003 
Q 2375 1319 2147 623 
Q 1919 -72 1441 -844 
L 513 -844 
z
" transform="scale(0.015625)"/>
     </defs>
     <use xlink:href="#DejaVuSans-Bold-46"/>
     <use xlink:href="#DejaVuSans-Bold-69" x="68.310547"/>
     <use xlink:href="#DejaVuSans-Bold-6e" x="102.587891"/>
     <use xlink:href="#DejaVuSans-Bold-61" x="173.779297"/>
     <use xlink:href="#DejaVuSans-Bold-6c" x="241.259766"/>
     <use xlink:href="#DejaVuSans-Bold-20" x="275.537109"/>
     <use xlink:href="#DejaVuSans-Bold-72" x="310.351562"/>
     <use xlink:href="#DejaVuSans-Bold-65" x="359.667969"/>
     <use xlink:href="#DejaVuSans-Bold-74" x="427.490234"/>
     <use xlink:href="#DejaVuSans-Bold-61" x="475.292969"/>
     <use xlink:href="#DejaVuSans-Bold-69" x="542.773438"/>
     <use xlink:href="#DejaVuSans-Bold-6e" x="577.050781"/>
     <use xlink:href="#DejaVuSans-Bold-65" x="648.242188"/>
     <use xlink:href="#DejaVuSans-Bold-64" x="716.064453"/>
     <use xlink:href="#DejaVuSans-Bold-20" x="787.646484"/>
     <use xlink:href="#DejaVuSans-Bold-76" x="822.460938"/>
     <use xlink:href="#DejaVuSans-Bold-61" x="887.646484"/>
     <use xlink:href="#DejaVuSans-Bold-6c" x="955.126953"/>
     <use xlink:href="#DejaVuSans-Bold-75" x="989.404297"/>
     <use xlink:href="#DejaVuSans-Bold-65" x="1060.595703"/>
     <use xlink:href="#DejaVuSans-Bold-20" x="1128.417969"/>
     <use xlink:href="#DejaVuSans-Bold-70" x="1163.232422"/>
     <use xlink:href="#DejaVuSans-Bold-65" x="1234.814453"/>
     <use xlink:href="#DejaVuSans-Bold-72" x="1302.636719"/>
     <use xlink:href="#DejaVuSans-Bold-20" x="1351.953125"/>
     <use xlink:href="#DejaVuSans-Bold-74" x="1386.767578"/>
     <use xlink:href="#DejaVuSans-Bold-61" x="1434.570312"/>
     <use xlink:href="#DejaVuSans-Bold-73" x="1502.050781"/>
     <use xlink:href="#DejaVuSans-Bold-6b" x="1561.572266"/>
     <use xlink:href="#DejaVuSans-Bold-20" x="1628.076172"/>
     <use xlink:href="#DejaVuSans-Bold-20" x="1662.890625"/>
     <use xlink:href="#DejaVuSans-Bold-28" x="1697.705078"/>
     <use xlink:href="#DejaVuSans-Bold-6d" x="1743.408203"/>
     <use xlink:href="#DejaVuSans-Bold-65" x="1847.607422"/>
     <use xlink:href="#DejaVuSans-Bold-61" x="1915.429688"/>
     <use xlink:href="#DejaVuSans-Bold-6e" x="1982.910156"/>
     <use xlink:href="#DejaVuSans-Bold-20" x="2054.101562"/>
     <use xlink:href="#DejaVuSans-Bold-b1" x="2088.916016"/>
     <use xlink:href="#DejaVuSans-Bold-20" x="2172.705078"/>
     <use xlink:href="#DejaVuSans-Bold-39" x="2207.519531"/>
     <use xlink:href="#DejaVuSans-Bold-35" x="2277.099609"/>
     <use xlink:href="#DejaVuSans-Bold-25" x="2346.679688"/>
     <use xlink:href="#DejaVuSans-Bold-20" x="2446.875"/>
     <use xlink:href="#DejaVuSans-Bold-43" x="2481.689453"/>
     <use xlink:href="#DejaVuSans-Bold-49" x="2555.078125"/>
     <use xlink:href="#DejaVuSans-Bold-2c" x="2592.285156"/>
     <use xlink:href="#DejaVuSans-Bold-20" x="2630.273438"/>
     <use xlink:href="#DejaVuSans-Bold-31" x="2665.087891"/>
     <use xlink:href="#DejaVuSans-Bold-30" x="2734.667969"/>
     <use xlink:href="#DejaVuSans-Bold-20" x="2804.248047"/>
     <use xlink:href="#DejaVuSans-Bold-73" x="2839.0625"/>
     <use xlink:href="#DejaVuSans-Bold-65" x="2898.583984"/>
     <use xlink:href="#DejaVuSans-Bold-65" x="2966.40625"/>
     <use xlink:href="#DejaVuSans-Bold-64" x="3034.228516"/>
     <use xlink:href="#DejaVuSans-Bold-73" x="3105.810547"/>
     <use xlink:href="#DejaVuSans-Bold-29" x="3165.332031"/>
    </g>
   </g>
   <g id="legend_1">
    <g id="patch_65">
     <path d="M 566.760625 335.302159 
L 584.760625 335.302159 
L 584.760625 329.002159 
L 566.760625 329.002159 
z
" style="fill: #059669"/>
    </g>
    <g id="text_31">
     <!-- Constrained-local min-max (ours) -->
     <g style="fill: #212529" transform="translate(591.960625 335.302159) scale(0.09 -0.09)">
      <defs>
       <path id="DejaVuSans-43" d="M 4122 4306 
L 4122 3641 
Q 3803 3938 3442 4084 
Q 3081 4231 2675 4231 
Q 1875 4231 1450 3742 
Q 1025 3253 1025 2328 
Q 1025 1406 1450 917 
Q 1875 428 2675 428 
Q 3081 428 3442 575 
Q 3803 722 4122 1019 
L 4122 359 
Q 3791 134 3420 21 
Q 3050 -91 2638 -91 
Q 1578 -91 968 557 
Q 359 1206 359 2328 
Q 359 3453 968 4101 
Q 1578 4750 2638 4750 
Q 3056 4750 3426 4639 
Q 3797 4528 4122 4306 
z
" transform="scale(0.015625)"/>
       <path id="DejaVuSans-74" d="M 1172 4494 
L 1172 3500 
L 2356 3500 
L 2356 3053 
L 1172 3053 
L 1172 1153 
Q 1172 725 1289 603 
Q 1406 481 1766 481 
L 2356 481 
L 2356 0 
L 1766 0 
Q 1100 0 847 248 
Q 594 497 594 1153 
L 594 3053 
L 172 3053 
L 172 3500 
L 594 3500 
L 594 4494 
L 1172 4494 
z
" transform="scale(0.015625)"/>
       <path id="DejaVuSans-72" d="M 2631 2963 
Q 2534 3019 2420 3045 
Q 2306 3072 2169 3072 
Q 1681 3072 1420 2755 
Q 1159 2438 1159 1844 
L 1159 0 
L 581 0 
L 581 3500 
L 1159 3500 
L 1159 2956 
Q 1341 3275 1631 3429 
Q 1922 3584 2338 3584 
Q 2397 3584 2469 3576 
Q 2541 3569 2628 3553 
L 2631 2963 
z
" transform="scale(0.015625)"/>
       <path id="DejaVuSans-2d" d="M 313 2009 
L 1997 2009 
L 1997 1497 
L 313 1497 
L 313 2009 
z
" transform="scale(0.015625)"/>
       <path id="DejaVuSans-6d" d="M 3328 2828 
Q 3544 3216 3844 3400 
Q 4144 3584 4550 3584 
Q 5097 3584 5394 3201 
Q 5691 2819 5691 2113 
L 5691 0 
L 5113 0 
L 5113 2094 
Q 5113 2597 4934 2840 
Q 4756 3084 4391 3084 
Q 3944 3084 3684 2787 
Q 3425 2491 3425 1978 
L 3425 0 
L 2847 0 
L 2847 2094 
Q 2847 2600 2669 2842 
Q 2491 3084 2119 3084 
Q 1678 3084 1418 2786 
Q 1159 2488 1159 1978 
L 1159 0 
L 581 0 
L 581 3500 
L 1159 3500 
L 1159 2956 
Q 1356 3278 1631 3431 
Q 1906 3584 2284 3584 
Q 2666 3584 2933 3390 
Q 3200 3197 3328 2828 
z
" transform="scale(0.015625)"/>
       <path id="DejaVuSans-78" d="M 3513 3500 
L 2247 1797 
L 3578 0 
L 2900 0 
L 1881 1375 
L 863 0 
L 184 0 
L 1544 1831 
L 300 3500 
L 978 3500 
L 1906 2253 
L 2834 3500 
L 3513 3500 
z
" transform="scale(0.015625)"/>
      </defs>
      <use xlink:href="#DejaVuSans-43"/>
      <use xlink:href="#DejaVuSans-6f" x="69.824219"/>
      <use xlink:href="#DejaVuSans-6e" x="131.005859"/>
      <use xlink:href="#DejaVuSans-73" x="194.384766"/>
      <use xlink:href="#DejaVuSans-74" x="246.484375"/>
      <use xlink:href="#DejaVuSans-72" x="285.693359"/>
      <use xlink:href="#DejaVuSans-61" x="326.806641"/>
      <use xlink:href="#DejaVuSans-69" x="388.085938"/>
      <use xlink:href="#DejaVuSans-6e" x="415.869141"/>
      <use xlink:href="#DejaVuSans-65" x="479.248047"/>
      <use xlink:href="#DejaVuSans-64" x="540.771484"/>
      <use xlink:href="#DejaVuSans-2d" x="604.248047"/>
      <use xlink:href="#DejaVuSans-6c" x="640.332031"/>
      <use xlink:href="#DejaVuSans-6f" x="668.115234"/>
      <use xlink:href="#DejaVuSans-63" x="729.296875"/>
      <use xlink:href="#DejaVuSans-61" x="784.277344"/>
      <use xlink:href="#DejaVuSans-6c" x="845.556641"/>
      <use xlink:href="#DejaVuSans-20" x="873.339844"/>
      <use xlink:href="#DejaVuSans-6d" x="905.126953"/>
      <use xlink:href="#DejaVuSans-69" x="1002.539062"/>
      <use xlink:href="#DejaVuSans-6e" x="1030.322266"/>
      <use xlink:href="#DejaVuSans-2d" x="1093.701172"/>
      <use xlink:href="#DejaVuSans-6d" x="1129.785156"/>
      <use xlink:href="#DejaVuSans-61" x="1227.197266"/>
      <use xlink:href="#DejaVuSans-78" x="1288.476562"/>
      <use xlink:href="#DejaVuSans-20" x="1347.65625"/>
      <use xlink:href="#DejaVuSans-28" x="1379.443359"/>
      <use xlink:href="#DejaVuSans-6f" x="1418.457031"/>
      <use xlink:href="#DejaVuSans-75" x="1479.638672"/>
      <use xlink:href="#DejaVuSans-72" x="1543.017578"/>
      <use xlink:href="#DejaVuSans-73" x="1584.130859"/>
      <use xlink:href="#DejaVuSans-29" x="1636.230469"/>
     </g>
    </g>
    <g id="patch_66">
     <path d="M 566.760625 348.512471 
L 584.760625 348.512471 
L 584.760625 342.212471 
L 566.760625 342.212471 
z
" style="fill: #2563eb"/>
    </g>
    <g id="text_32">
     <!-- Unconstrained-local min-max (ours) -->
     <g style="fill: #212529" transform="translate(591.960625 348.512471) scale(0.09 -0.09)">
      <defs>
       <path id="DejaVuSans-55" d="M 556 4666 
L 1191 4666 
L 1191 1831 
Q 1191 1081 1462 751 
Q 1734 422 2344 422 
Q 2950 422 3222 751 
Q 3494 1081 3494 1831 
L 3494 4666 
L 4128 4666 
L 4128 1753 
Q 4128 841 3676 375 
Q 3225 -91 2344 -91 
Q 1459 -91 1007 375 
Q 556 841 556 1753 
L 556 4666 
z
" transform="scale(0.015625)"/>
      </defs>
      <use xlink:href="#DejaVuSans-55"/>
      <use xlink:href="#DejaVuSans-6e" x="73.193359"/>
      <use xlink:href="#DejaVuSans-63" x="136.572266"/>
      <use xlink:href="#DejaVuSans-6f" x="191.552734"/>
      <use xlink:href="#DejaVuSans-6e" x="252.734375"/>
      <use xlink:href="#DejaVuSans-73" x="316.113281"/>
      <use xlink:href="#DejaVuSans-74" x="368.212891"/>
      <use xlink:href="#DejaVuSans-72" x="407.421875"/>
      <use xlink:href="#DejaVuSans-61" x="448.535156"/>
      <use xlink:href="#DejaVuSans-69" x="509.814453"/>
      <use xlink:href="#DejaVuSans-6e" x="537.597656"/>
      <use xlink:href="#DejaVuSans-65" x="600.976562"/>
      <use xlink:href="#DejaVuSans-64" x="662.5"/>
      <use xlink:href="#DejaVuSans-2d" x="725.976562"/>
      <use xlink:href="#DejaVuSans-6c" x="762.060547"/>
      <use xlink:href="#DejaVuSans-6f" x="789.84375"/>
      <use xlink:href="#DejaVuSans-63" x="851.025391"/>
      <use xlink:href="#DejaVuSans-61" x="906.005859"/>
      <use xlink:href="#DejaVuSans-6c" x="967.285156"/>
      <use xlink:href="#DejaVuSans-20" x="995.068359"/>
      <use xlink:href="#DejaVuSans-6d" x="1026.855469"/>
      <use xlink:href="#DejaVuSans-69" x="1124.267578"/>
      <use xlink:href="#DejaVuSans-6e" x="1152.050781"/>
      <use xlink:href="#DejaVuSans-2d" x="1215.429688"/>
      <use xlink:href="#DejaVuSans-6d" x="1251.513672"/>
      <use xlink:href="#DejaVuSans-61" x="1348.925781"/>
      <use xlink:href="#DejaVuSans-78" x="1410.205078"/>
      <use xlink:href="#DejaVuSans-20" x="1469.384766"/>
      <use xlink:href="#DejaVuSans-28" x="1501.171875"/>
      <use xlink:href="#DejaVuSans-6f" x="1540.185547"/>
      <use xlink:href="#DejaVuSans-75" x="1601.367188"/>
      <use xlink:href="#DejaVuSans-72" x="1664.746094"/>
      <use xlink:href="#DejaVuSans-73" x="1705.859375"/>
      <use xlink:href="#DejaVuSans-29" x="1757.958984"/>
     </g>
    </g>
    <g id="patch_67">
     <path d="M 771.685 335.302159 
L 789.685 335.302159 
L 789.685 329.002159 
L 771.685 329.002159 
z
" style="fill: #dc2626"/>
    </g>
    <g id="text_33">
     <!-- Naive fine-tuning (single net) -->
     <g style="fill: #212529" transform="translate(796.885 335.302159) scale(0.09 -0.09)">
      <defs>
       <path id="DejaVuSans-4e" d="M 628 4666 
L 1478 4666 
L 3547 763 
L 3547 4666 
L 4159 4666 
L 4159 0 
L 3309 0 
L 1241 3903 
L 1241 0 
L 628 0 
L 628 4666 
z
" transform="scale(0.015625)"/>
       <path id="DejaVuSans-67" d="M 2906 1791 
Q 2906 2416 2648 2759 
Q 2391 3103 1925 3103 
Q 1463 3103 1205 2759 
Q 947 2416 947 1791 
Q 947 1169 1205 825 
Q 1463 481 1925 481 
Q 2391 481 2648 825 
Q 2906 1169 2906 1791 
z
M 3481 434 
Q 3481 -459 3084 -895 
Q 2688 -1331 1869 -1331 
Q 1566 -1331 1297 -1286 
Q 1028 -1241 775 -1147 
L 775 -588 
Q 1028 -725 1275 -790 
Q 1522 -856 1778 -856 
Q 2344 -856 2625 -561 
Q 2906 -266 2906 331 
L 2906 616 
Q 2728 306 2450 153 
Q 2172 0 1784 0 
Q 1141 0 747 490 
Q 353 981 353 1791 
Q 353 2603 747 3093 
Q 1141 3584 1784 3584 
Q 2172 3584 2450 3431 
Q 2728 3278 2906 2969 
L 2906 3500 
L 3481 3500 
L 3481 434 
z
" transform="scale(0.015625)"/>
      </defs>
      <use xlink:href="#DejaVuSans-4e"/>
      <use xlink:href="#DejaVuSans-61" x="74.804688"/>
      <use xlink:href="#DejaVuSans-69" x="136.083984"/>
      <use xlink:href="#DejaVuSans-76" x="163.867188"/>
      <use xlink:href="#DejaVuSans-65" x="223.046875"/>
      <use xlink:href="#DejaVuSans-20" x="284.570312"/>
      <use xlink:href="#DejaVuSans-66" x="316.357422"/>
      <use xlink:href="#DejaVuSans-69" x="351.5625"/>
      <use xlink:href="#DejaVuSans-6e" x="379.345703"/>
      <use xlink:href="#DejaVuSans-65" x="442.724609"/>
      <use xlink:href="#DejaVuSans-2d" x="504.248047"/>
      <use xlink:href="#DejaVuSans-74" x="540.332031"/>
      <use xlink:href="#DejaVuSans-75" x="579.541016"/>
      <use xlink:href="#DejaVuSans-6e" x="642.919922"/>
      <use xlink:href="#DejaVuSans-69" x="706.298828"/>
      <use xlink:href="#DejaVuSans-6e" x="734.082031"/>
      <use xlink:href="#DejaVuSans-67" x="797.460938"/>
      <use xlink:href="#DejaVuSans-20" x="860.9375"/>
      <use xlink:href="#DejaVuSans-28" x="892.724609"/>
      <use xlink:href="#DejaVuSans-73" x="931.738281"/>
      <use xlink:href="#DejaVuSans-69" x="983.837891"/>
      <use xlink:href="#DejaVuSans-6e" x="1011.621094"/>
      <use xlink:href="#DejaVuSans-67" x="1075"/>
      <use xlink:href="#DejaVuSans-6c" x="1138.476562"/>
      <use xlink:href="#DejaVuSans-65" x="1166.259766"/>
      <use xlink:href="#DejaVuSans-20" x="1227.783203"/>
      <use xlink:href="#DejaVuSans-6e" x="1259.570312"/>
      <use xlink:href="#DejaVuSans-65" x="1322.949219"/>
      <use xlink:href="#DejaVuSans-74" x="1384.472656"/>
      <use xlink:href="#DejaVuSans-29" x="1423.681641"/>
     </g>
    </g>
   </g>
  </g>
 </g>
 <defs>
  <clipPath id="p35a83fa06c">
   <rect x="50.14375" y="22.318125" width="1395" height="266.112"/>
  </clipPath>
 </defs>
</svg>
