<?xml version="1.0" encoding="utf-8" standalone="no"?>
<!DOCTYPE svg PUBLIC "-//W3C//DTD SVG 1.1//EN"
  "http://www.w3.org/Graphics/SVG/1.1/DTD/svg11.dtd">
<svg xmlns:xlink="http://www.w3.org/1999/xlink" width="418.255625pt" height="361.18419pt" viewBox="0 0 418.255625 361.18419" xmlns="http://www.w3.org/2000/svg" version="1.1">
 <metadata>
  <rdf:RDF xmlns:dc="http://purl.org/dc/elements/1.1/" xmlns:cc="http://creativecommons.org/ns#" xmlns:rdf="http://www.w3.org/1999/02/22-rdf-syntax-ns#">
   <cc:Work>
    <dc:type rdf:resource="http://purl.org/dc/dcmitype/StillImage"/>
    <dc:date>2026-07-11T06:17:29.839074</dc:date>
    <dc:format>image/svg+xml</dc:format>
    <dc:creator>
     <cc:Agent>
      <dc:title>Matplotlib v3.7.1, https://matplotlib.org/</dc:title>
     </cc:Agent>
    </dc:creator>
   </cc:Work>
  </rdf:RDF>
 </metadata>
 <defs>
  <style type="text/css">*{stroke-linejoin: round; stroke-linecap: butt}</style>
 </defs>
 <g id="figure_1">
  <g id="patch_1">
   <path d="M -0 361.18419 
L 418.255625 361.18419 
L 418.255625 0 
L -0 0 
z
" style="fill: #ffffff"/>
  </g>
  <g id="axes_1">
   <g id="patch_2">
    <path d="M 34.240625 288.430125 
L 402.520625 288.430125 
L 402.520625 22.318125 
L 34.240625 22.318125 
z
" style="fill: #ffffff"/>
   </g>
   <g id="matplotlib.axis_1">
    <g id="xtick_1">
     <g id="line2d_1">
      <path d="M 86.22273 288.430125 
L 86.22273 22.318125 
" clip-path="url(#p616dab68d5)" style="fill: none; stroke: #e9ecef; stroke-width: 0.7; stroke-linecap: square"/>
     </g>
     <g id="line2d_2">
      <defs>
       <path id="mddf267b524" d="M 0 0 
L 0 3.5 
" style="stroke: #6c757d; stroke-width: 0.8"/>
      </defs>
      <g>
       <use xlink:href="#mddf267b524" x="86.22273" y="288.430125" style="fill: #6c757d; stroke: #6c757d; stroke-width: 0.8"/>
      </g>
     </g>
     <g id="text_1">
      <!-- T1 -->
      <g style="fill: #6c757d" transform="translate(79.987574 303.028562) scale(0.1 -0.1)">
       <defs>
        <path id="DejaVuSans-54" d="M -19 4666 
L 3928 4666 
L 3928 4134 
L 2272 4134 
L 2272 0 
L 1638 0 
L 1638 4134 
L -19 4134 
L -19 4666 
z
" transform="scale(0.015625)"/>
        <path id="DejaVuSans-31" d="M 794 531 
L 1825 531 
L 1825 4091 
L 703 3866 
L 703 4441 
L 1819 4666 
L 2450 4666 
L 2450 531 
L 3481 531 
L 3481 0 
L 794 0 
L 794 531 
z
" transform="scale(0.015625)"/>
       </defs>
       <use xlink:href="#DejaVuSans-54"/>
       <use xlink:href="#DejaVuSans-31" x="61.083984"/>
      </g>
     </g>
    </g>
    <g id="xtick_2">
     <g id="line2d_3">
      <path d="M 174.327993 288.430125 
L 174.327993 22.318125 
" clip-path="url(#p616dab68d5)" style="fill: none; stroke: #e9ecef; stroke-width: 0.7; stroke-linecap: square"/>
     </g>
     <g id="line2d_4">
      <g>
       <use xlink:href="#mddf267b524" x="174.327993" y="288.430125" style="fill: #6c757d; stroke: #6c757d; stroke-width: 0.8"/>
      </g>
     </g>
     <g id="text_2">
      <!-- T2 -->
      <g style="fill: #6c757d" transform="translate(168.092837 303.028562) scale(0.1 -0.1)">
       <defs>
        <path id="DejaVuSans-32" d="M 1228 531 
L 3431 531 
L 3431 0 
L 469 0 
L 469 531 
Q 828 903 1448 1529 
Q 2069 2156 2228 2338 
Q 2531 2678 2651 2914 
Q 2772 3150 2772 3378 
Q 2772 3750 2511 3984 
Q 2250 4219 1831 4219 
Q 1534 4219 1204 4116 
Q 875 4013 500 3803 
L 500 4441 
Q 881 4594 1212 4672 
Q 1544 4750 1819 4750 
Q 2544 4750 2975 4387 
Q 3406 4025 3406 3419 
Q 3406 3131 3298 2873 
Q 3191 2616 2906 2266 
Q 2828 2175 2409 1742 
Q 1991 1309 1228 531 
z
" transform="scale(0.015625)"/>
       </defs>
       <use xlink:href="#DejaVuSans-54"/>
       <use xlink:href="#DejaVuSans-32" x="61.083984"/>
      </g>
     </g>
    </g>
    <g id="xtick_3">
     <g id="line2d_5">
      <path d="M 262.433257 288.430125 
L 262.433257 22.318125 
" clip-path="url(#p616dab68d5)" style="fill: none; stroke: #e9ecef; stroke-width: 0.7; stroke-linecap: square"/>
     </g>
     <g id="line2d_6">
      <g>
       <use xlink:href="#mddf267b524" x="262.433257" y="288.430125" style="fill: #6c757d; stroke: #6c757d; stroke-width: 0.8"/>
      </g>
     </g>
     <g id="text_3">
      <!-- T3 -->
      <g style="fill: #6c757d" transform="translate(256.1981 303.028562) scale(0.1 -0.1)">
       <defs>
        <path id="DejaVuSans-33" d="M 2597 2516 
Q 3050 2419 3304 2112 
Q 3559 1806 3559 1356 
Q 3559 666 3084 287 
Q 2609 -91 1734 -91 
Q 1441 -91 1130 -33 
Q 819 25 488 141 
L 488 750 
Q 750 597 1062 519 
Q 1375 441 1716 441 
Q 2309 441 2620 675 
Q 2931 909 2931 1356 
Q 2931 1769 2642 2001 
Q 2353 2234 1838 2234 
L 1294 2234 
L 1294 2753 
L 1863 2753 
Q 2328 2753 2575 2939 
Q 2822 3125 2822 3475 
Q 2822 3834 2567 4026 
Q 2313 4219 1838 4219 
Q 1578 4219 1281 4162 
Q 984 4106 628 3988 
L 628 4550 
Q 988 4650 1302 4700 
Q 1616 4750 1894 4750 
Q 2613 4750 3031 4423 
Q 3450 4097 3450 3541 
Q 3450 3153 3228 2886 
Q 3006 2619 2597 2516 
z
" transform="scale(0.015625)"/>
       </defs>
       <use xlink:href="#DejaVuSans-54"/>
       <use xlink:href="#DejaVuSans-33" x="61.083984"/>
      </g>
     </g>
    </g>
    <g id="xtick_4">
     <g id="line2d_7">
      <path d="M 350.53852 288.430125 
L 350.53852 22.318125 
" clip-path="url(#p616dab68d5)" style="fill: none; stroke: #e9ecef; stroke-width: 0.7; stroke-linecap: square"/>
     </g>
     <g id="line2d_8">
      <g>
       <use xlink:href="#mddf267b524" x="350.53852" y="288.430125" style="fill: #6c757d; stroke: #6c757d; stroke-width: 0.8"/>
      </g>
     </g>
     <g id="text_4">
      <!-- T4 -->
      <g style="fill: #6c757d" transform="translate(344.303363 303.028562) scale(0.1 -0.1)">
       <defs>
        <path id="DejaVuSans-34" d="M 2419 4116 
L 825 1625 
L 2419 1625 
L 2419 4116 
z
M 2253 4666 
L 3047 4666 
L 3047 1625 
L 3713 1625 
L 3713 1100 
L 3047 1100 
L 3047 0 
L 2419 0 
L 2419 1100 
L 313 1100 
L 313 1709 
L 2253 4666 
z
" transform="scale(0.015625)"/>
       </defs>
       <use xlink:href="#DejaVuSans-54"/>
       <use xlink:href="#DejaVuSans-34" x="61.083984"/>
      </g>
     </g>
    </g>
   </g>
   <g id="matplotlib.axis_2">
    <g id="ytick_1">
     <g id="line2d_9">
      <path d="M 34.240625 288.430125 
L 402.520625 288.430125 
" clip-path="url(#p616dab68d5)" style="fill: none; stroke: #e9ecef; stroke-width: 0.7; stroke-linecap: square"/>
     </g>
     <g id="line2d_10">
      <defs>
       <path id="m7784a3834f" d="M 0 0 
L -3.5 0 
" style="stroke: #6c757d; stroke-width: 0.8"/>
      </defs>
      <g>
       <use xlink:href="#m7784a3834f" x="34.240625" y="288.430125" style="fill: #6c757d; stroke: #6c757d; stroke-width: 0.8"/>
      </g>
     </g>
     <g id="text_5">
      <!-- 0 -->
      <g style="fill: #6c757d" transform="translate(20.878125 292.229344) scale(0.1 -0.1)">
       <defs>
        <path id="DejaVuSans-30" d="M 2034 4250 
Q 1547 4250 1301 3770 
Q 1056 3291 1056 2328 
Q 1056 1369 1301 889 
Q 1547 409 2034 409 
Q 2525 409 2770 889 
Q 3016 1369 3016 2328 
Q 3016 3291 2770 3770 
Q 2525 4250 2034 4250 
z
M 2034 4750 
Q 2819 4750 3233 4129 
Q 3647 3509 3647 2328 
Q 3647 1150 3233 529 
Q 2819 -91 2034 -91 
Q 1250 -91 836 529 
Q 422 1150 422 2328 
Q 422 3509 836 4129 
Q 1250 4750 2034 4750 
z
" transform="scale(0.015625)"/>
       </defs>
       <use xlink:href="#DejaVuSans-30"/>
      </g>
     </g>
    </g>
    <g id="ytick_2">
     <g id="line2d_11">
      <path d="M 34.240625 249.288812 
L 402.520625 249.288812 
" clip-path="url(#p616dab68d5)" style="fill: none; stroke: #e9ecef; stroke-width: 0.7; stroke-linecap: square"/>
     </g>
     <g id="line2d_12">
      <g>
       <use xlink:href="#m7784a3834f" x="34.240625" y="249.288812" style="fill: #6c757d; stroke: #6c757d; stroke-width: 0.8"/>
      </g>
     </g>
     <g id="text_6">
      <!-- 1 -->
      <g style="fill: #6c757d" transform="translate(20.878125 253.08803) scale(0.1 -0.1)">
       <use xlink:href="#DejaVuSans-31"/>
      </g>
     </g>
    </g>
    <g id="ytick_3">
     <g id="line2d_13">
      <path d="M 34.240625 210.147498 
L 402.520625 210.147498 
" clip-path="url(#p616dab68d5)" style="fill: none; stroke: #e9ecef; stroke-width: 0.7; stroke-linecap: square"/>
     </g>
     <g id="line2d_14">
      <g>
       <use xlink:href="#m7784a3834f" x="34.240625" y="210.147498" style="fill: #6c757d; stroke: #6c757d; stroke-width: 0.8"/>
      </g>
     </g>
     <g id="text_7">
      <!-- 2 -->
      <g style="fill: #6c757d" transform="translate(20.878125 213.946717) scale(0.1 -0.1)">
       <use xlink:href="#DejaVuSans-32"/>
      </g>
     </g>
    </g>
    <g id="ytick_4">
     <g id="line2d_15">
      <path d="M 34.240625 171.006185 
L 402.520625 171.006185 
" clip-path="url(#p616dab68d5)" style="fill: none; stroke: #e9ecef; stroke-width: 0.7; stroke-linecap: square"/>
     </g>
     <g id="line2d_16">
      <g>
       <use xlink:href="#m7784a3834f" x="34.240625" y="171.006185" style="fill: #6c757d; stroke: #6c757d; stroke-width: 0.8"/>
      </g>
     </g>
     <g id="text_8">
      <!-- 3 -->
      <g style="fill: #6c757d" transform="translate(20.878125 174.805404) scale(0.1 -0.1)">
       <use xlink:href="#DejaVuSans-33"/>
      </g>
     </g>
    </g>
    <g id="ytick_5">
     <g id="line2d_17">
      <path d="M 34.240625 131.864871 
L 402.520625 131.864871 
" clip-path="url(#p616dab68d5)" style="fill: none; stroke: #e9ecef; stroke-width: 0.7; stroke-linecap: square"/>
     </g>
     <g id="line2d_18">
      <g>
       <use xlink:href="#m7784a3834f" x="34.240625" y="131.864871" style="fill: #6c757d; stroke: #6c757d; stroke-width: 0.8"/>
      </g>
     </g>
     <g id="text_9">
      <!-- 4 -->
      <g style="fill: #6c757d" transform="translate(20.878125 135.66409) scale(0.1 -0.1)">
       <use xlink:href="#DejaVuSans-34"/>
      </g>
     </g>
    </g>
    <g id="ytick_6">
     <g id="line2d_19">
      <path d="M 34.240625 92.723558 
L 402.520625 92.723558 
" clip-path="url(#p616dab68d5)" style="fill: none; stroke: #e9ecef; stroke-width: 0.7; stroke-linecap: square"/>
     </g>
     <g id="line2d_20">
      <g>
       <use xlink:href="#m7784a3834f" x="34.240625" y="92.723558" style="fill: #6c757d; stroke: #6c757d; stroke-width: 0.8"/>
      </g>
     </g>
     <g id="text_10">
      <!-- 5 -->
      <g style="fill: #6c757d" transform="translate(20.878125 96.522777) scale(0.1 -0.1)">
       <defs>
        <path id="DejaVuSans-35" d="M 691 4666 
L 3169 4666 
L 3169 4134 
L 1269 4134 
L 1269 2991 
Q 1406 3038 1543 3061 
Q 1681 3084 1819 3084 
Q 2600 3084 3056 2656 
Q 3513 2228 3513 1497 
Q 3513 744 3044 326 
Q 2575 -91 1722 -91 
Q 1428 -91 1123 -41 
Q 819 9 494 109 
L 494 744 
Q 775 591 1075 516 
Q 1375 441 1709 441 
Q 2250 441 2565 725 
Q 2881 1009 2881 1497 
Q 2881 1984 2565 2268 
Q 2250 2553 1709 2553 
Q 1456 2553 1204 2497 
Q 953 2441 691 2322 
L 691 4666 
z
" transform="scale(0.015625)"/>
       </defs>
       <use xlink:href="#DejaVuSans-35"/>
      </g>
     </g>
    </g>
    <g id="ytick_7">
     <g id="line2d_21">
      <path d="M 34.240625 53.582245 
L 402.520625 53.582245 
" clip-path="url(#p616dab68d5)" style="fill: none; stroke: #e9ecef; stroke-width: 0.7; stroke-linecap: square"/>
     </g>
     <g id="line2d_22">
      <g>
       <use xlink:href="#m7784a3834f" x="34.240625" y="53.582245" style="fill: #6c757d; stroke: #6c757d; stroke-width: 0.8"/>
      </g>
     </g>
     <g id="text_11">
      <!-- 6 -->
      <g style="fill: #6c757d" transform="translate(20.878125 57.381463) scale(0.1 -0.1)">
       <defs>
        <path id="DejaVuSans-36" d="M 2113 2584 
Q 1688 2584 1439 2293 
Q 1191 2003 1191 1497 
Q 1191 994 1439 701 
Q 1688 409 2113 409 
Q 2538 409 2786 701 
Q 3034 994 3034 1497 
Q 3034 2003 2786 2293 
Q 2538 2584 2113 2584 
z
M 3366 4563 
L 3366 3988 
Q 3128 4100 2886 4159 
Q 2644 4219 2406 4219 
Q 1781 4219 1451 3797 
Q 1122 3375 1075 2522 
Q 1259 2794 1537 2939 
Q 1816 3084 2150 3084 
Q 2853 3084 3261 2657 
Q 3669 2231 3669 1497 
Q 3669 778 3244 343 
Q 2819 -91 2113 -91 
Q 1303 -91 875 529 
Q 447 1150 447 2328 
Q 447 3434 972 4092 
Q 1497 4750 2381 4750 
Q 2619 4750 2861 4703 
Q 3103 4656 3366 4563 
z
" transform="scale(0.015625)"/>
       </defs>
       <use xlink:href="#DejaVuSans-36"/>
      </g>
     </g>
    </g>
    <g id="text_12">
     <!-- Final score (end of sequence) -->
     <g style="fill: #212529" transform="translate(14.798438 228.923344) rotate(-90) scale(0.1 -0.1)">
      <defs>
       <path id="DejaVuSans-46" d="M 628 4666 
L 3309 4666 
L 3309 4134 
L 1259 4134 
L 1259 2759 
L 3109 2759 
L 3109 2228 
L 1259 2228 
L 1259 0 
L 628 0 
L 628 4666 
z
" transform="scale(0.015625)"/>
       <path id="DejaVuSans-69" d="M 603 3500 
L 1178 3500 
L 1178 0 
L 603 0 
L 603 3500 
z
M 603 4863 
L 1178 4863 
L 1178 4134 
L 603 4134 
L 603 4863 
z
" transform="scale(0.015625)"/>
       <path id="DejaVuSans-6e" d="M 3513 2113 
L 3513 0 
L 2938 0 
L 2938 2094 
Q 2938 2591 2744 2837 
Q 2550 3084 2163 3084 
Q 1697 3084 1428 2787 
Q 1159 2491 1159 1978 
L 1159 0 
L 581 0 
L 581 3500 
L 1159 3500 
L 1159 2956 
Q 1366 3272 1645 3428 
Q 1925 3584 2291 3584 
Q 2894 3584 3203 3211 
Q 3513 2838 3513 2113 
z
" transform="scale(0.015625)"/>
       <path id="DejaVuSans-61" d="M 2194 1759 
Q 1497 1759 1228 1600 
Q 959 1441 959 1056 
Q 959 750 1161 570 
Q 1363 391 1709 391 
Q 2188 391 2477 730 
Q 2766 1069 2766 1631 
L 2766 1759 
L 2194 1759 
z
M 3341 1997 
L 3341 0 
L 2766 0 
L 2766 531 
Q 2569 213 2275 61 
Q 1981 -91 1556 -91 
Q 1019 -91 701 211 
Q 384 513 384 1019 
Q 384 1609 779 1909 
Q 1175 2209 1959 2209 
L 2766 2209 
L 2766 2266 
Q 2766 2663 2505 2880 
Q 2244 3097 1772 3097 
Q 1472 3097 1187 3025 
Q 903 2953 641 2809 
L 641 3341 
Q 956 3463 1253 3523 
Q 1550 3584 1831 3584 
Q 2591 3584 2966 3190 
Q 3341 2797 3341 1997 
z
" transform="scale(0.015625)"/>
       <path id="DejaVuSans-6c" d="M 603 4863 
L 1178 4863 
L 1178 0 
L 603 0 
L 603 4863 
z
" transform="scale(0.015625)"/>
       <path id="DejaVuSans-20" transform="scale(0.015625)"/>
       <path id="DejaVuSans-73" d="M 2834 3397 
L 2834 2853 
Q 2591 2978 2328 3040 
Q 2066 3103 1784 3103 
Q 1356 3103 1142 2972 
Q 928 2841 928 2578 
Q 928 2378 1081 2264 
Q 1234 2150 1697 2047 
L 1894 2003 
Q 2506 1872 2764 1633 
Q 3022 1394 3022 966 
Q 3022 478 2636 193 
Q 2250 -91 1575 -91 
Q 1294 -91 989 -36 
Q 684 19 347 128 
L 347 722 
Q 666 556 975 473 
Q 1284 391 1588 391 
Q 1994 391 2212 530 
Q 2431 669 2431 922 
Q 2431 1156 2273 1281 
Q 2116 1406 1581 1522 
L 1381 1569 
Q 847 1681 609 1914 
Q 372 2147 372 2553 
Q 372 3047 722 3315 
Q 1072 3584 1716 3584 
Q 2034 3584 2315 3537 
Q 2597 3491 2834 3397 
z
" transform="scale(0.015625)"/>
       <path id="DejaVuSans-63" d="M 3122 3366 
L 3122 2828 
Q 2878 2963 2633 3030 
Q 2388 3097 2138 3097 
Q 1578 3097 1268 2742 
Q 959 2388 959 1747 
Q 959 1106 1268 751 
Q 1578 397 2138 397 
Q 2388 397 2633 464 
Q 2878 531 3122 666 
L 3122 134 
Q 2881 22 2623 -34 
Q 2366 -91 2075 -91 
Q 1284 -91 818 406 
Q 353 903 353 1747 
Q 353 2603 823 3093 
Q 1294 3584 2113 3584 
Q 2378 3584 2631 3529 
Q 2884 3475 3122 3366 
z
" transform="scale(0.015625)"/>
       <path id="DejaVuSans-6f" d="M 1959 3097 
Q 1497 3097 1228 2736 
Q 959 2375 959 1747 
Q 959 1119 1226 758 
Q 1494 397 1959 397 
Q 2419 397 2687 759 
Q 2956 1122 2956 1747 
Q 2956 2369 2687 2733 
Q 2419 3097 1959 3097 
z
M 1959 3584 
Q 2709 3584 3137 3096 
Q 3566 2609 3566 1747 
Q 3566 888 3137 398 
Q 2709 -91 1959 -91 
Q 1206 -91 779 398 
Q 353 888 353 1747 
Q 353 2609 779 3096 
Q 1206 3584 1959 3584 
z
" transform="scale(0.015625)"/>
       <path id="DejaVuSans-72" d="M 2631 2963 
Q 2534 3019 2420 3045 
Q 2306 3072 2169 3072 
Q 1681 3072 1420 2755 
Q 1159 2438 1159 1844 
L 1159 0 
L 581 0 
L 581 3500 
L 1159 3500 
L 1159 2956 
Q 1341 3275 1631 3429 
Q 1922 3584 2338 3584 
Q 2397 3584 2469 3576 
Q 2541 3569 2628 3553 
L 2631 2963 
z
" transform="scale(0.015625)"/>
       <path id="DejaVuSans-65" d="M 3597 1894 
L 3597 1613 
L 953 1613 
Q 991 1019 1311 708 
Q 1631 397 2203 397 
Q 2534 397 2845 478 
Q 3156 559 3463 722 
L 3463 178 
Q 3153 47 2828 -22 
Q 2503 -91 2169 -91 
Q 1331 -91 842 396 
Q 353 884 353 1716 
Q 353 2575 817 3079 
Q 1281 3584 2069 3584 
Q 2775 3584 3186 3129 
Q 3597 2675 3597 1894 
z
M 3022 2063 
Q 3016 2534 2758 2815 
Q 2500 3097 2075 3097 
Q 1594 3097 1305 2825 
Q 1016 2553 972 2059 
L 3022 2063 
z
" transform="scale(0.015625)"/>
       <path id="DejaVuSans-28" d="M 1984 4856 
Q 1566 4138 1362 3434 
Q 1159 2731 1159 2009 
Q 1159 1288 1364 580 
Q 1569 -128 1984 -844 
L 1484 -844 
Q 1016 -109 783 600 
Q 550 1309 550 2009 
Q 550 2706 781 3412 
Q 1013 4119 1484 4856 
L 1984 4856 
z
" transform="scale(0.015625)"/>
       <path id="DejaVuSans-64" d="M 2906 2969 
L 2906 4863 
L 3481 4863 
L 3481 0 
L 2906 0 
L 2906 525 
Q 2725 213 2448 61 
Q 2172 -91 1784 -91 
Q 1150 -91 751 415 
Q 353 922 353 1747 
Q 353 2572 751 3078 
Q 1150 3584 1784 3584 
Q 2172 3584 2448 3432 
Q 2725 3281 2906 2969 
z
M 947 1747 
Q 947 1113 1208 752 
Q 1469 391 1925 391 
Q 2381 391 2643 752 
Q 2906 1113 2906 1747 
Q 2906 2381 2643 2742 
Q 2381 3103 1925 3103 
Q 1469 3103 1208 2742 
Q 947 2381 947 1747 
z
" transform="scale(0.015625)"/>
       <path id="DejaVuSans-66" d="M 2375 4863 
L 2375 4384 
L 1825 4384 
Q 1516 4384 1395 4259 
Q 1275 4134 1275 3809 
L 1275 3500 
L 2222 3500 
L 2222 3053 
L 1275 3053 
L 1275 0 
L 697 0 
L 697 3053 
L 147 3053 
L 147 3500 
L 697 3500 
L 697 3744 
Q 697 4328 969 4595 
Q 1241 4863 1831 4863 
L 2375 4863 
z
" transform="scale(0.015625)"/>
       <path id="DejaVuSans-71" d="M 947 1747 
Q 947 1113 1208 752 
Q 1469 391 1925 391 
Q 2381 391 2643 752 
Q 2906 1113 2906 1747 
Q 2906 2381 2643 2742 
Q 2381 3103 1925 3103 
Q 1469 3103 1208 2742 
Q 947 2381 947 1747 
z
M 2906 525 
Q 2725 213 2448 61 
Q 2172 -91 1784 -91 
Q 1150 -91 751 415 
Q 353 922 353 1747 
Q 353 2572 751 3078 
Q 1150 3584 1784 3584 
Q 2172 3584 2448 3432 
Q 2725 3281 2906 2969 
L 2906 3500 
L 3481 3500 
L 3481 -1331 
L 2906 -1331 
L 2906 525 
z
" transform="scale(0.015625)"/>
       <path id="DejaVuSans-75" d="M 544 1381 
L 544 3500 
L 1119 3500 
L 1119 1403 
Q 1119 906 1312 657 
Q 1506 409 1894 409 
Q 2359 409 2629 706 
Q 2900 1003 2900 1516 
L 2900 3500 
L 3475 3500 
L 3475 0 
L 2900 0 
L 2900 538 
Q 2691 219 2414 64 
Q 2138 -91 1772 -91 
Q 1169 -91 856 284 
Q 544 659 544 1381 
z
M 1991 3584 
L 1991 3584 
z
" transform="scale(0.015625)"/>
       <path id="DejaVuSans-29" d="M 513 4856 
L 1013 4856 
Q 1481 4119 1714 3412 
Q 1947 2706 1947 2009 
Q 1947 1309 1714 600 
Q 1481 -109 1013 -844 
L 513 -844 
Q 928 -128 1133 580 
Q 1338 1288 1338 2009 
Q 1338 2731 1133 3434 
Q 928 4138 513 4856 
z
" transform="scale(0.015625)"/>
      </defs>
      <use xlink:href="#DejaVuSans-46"/>
      <use xlink:href="#DejaVuSans-69" x="50.269531"/>
      <use xlink:href="#DejaVuSans-6e" x="78.052734"/>
      <use xlink:href="#DejaVuSans-61" x="141.431641"/>
      <use xlink:href="#DejaVuSans-6c" x="202.710938"/>
      <use xlink:href="#DejaVuSans-20" x="230.494141"/>
      <use xlink:href="#DejaVuSans-73" x="262.28125"/>
      <use xlink:href="#DejaVuSans-63" x="314.380859"/>
      <use xlink:href="#DejaVuSans-6f" x="369.361328"/>
      <use xlink:href="#DejaVuSans-72" x="430.542969"/>
      <use xlink:href="#DejaVuSans-65" x="469.40625"/>
      <use xlink:href="#DejaVuSans-20" x="530.929688"/>
      <use xlink:href="#DejaVuSans-28" x="562.716797"/>
      <use xlink:href="#DejaVuSans-65" x="601.730469"/>
      <use xlink:href="#DejaVuSans-6e" x="663.253906"/>
      <use xlink:href="#DejaVuSans-64" x="726.632812"/>
      <use xlink:href="#DejaVuSans-20" x="790.109375"/>
      <use xlink:href="#DejaVuSans-6f" x="821.896484"/>
      <use xlink:href="#DejaVuSans-66" x="883.078125"/>
      <use xlink:href="#DejaVuSans-20" x="918.283203"/>
      <use xlink:href="#DejaVuSans-73" x="950.070312"/>
      <use xlink:href="#DejaVuSans-65" x="1002.169922"/>
      <use xlink:href="#DejaVuSans-71" x="1063.693359"/>
      <use xlink:href="#DejaVuSans-75" x="1127.169922"/>
      <use xlink:href="#DejaVuSans-65" x="1190.548828"/>
      <use xlink:href="#DejaVuSans-6e" x="1252.072266"/>
      <use xlink:href="#DejaVuSans-63" x="1315.451172"/>
      <use xlink:href="#DejaVuSans-65" x="1370.431641"/>
      <use xlink:href="#DejaVuSans-29" x="1431.955078"/>
     </g>
    </g>
   </g>
   <g id="patch_3">
    <path d="M 50.980625 288.430125 
L 74.475362 288.430125 
L 74.475362 230.954366 
L 50.980625 230.954366 
z
" clip-path="url(#p616dab68d5)" style="fill: #059669"/>
   </g>
   <g id="patch_4">
    <path d="M 139.085888 288.430125 
L 162.580625 288.430125 
L 162.580625 274.975299 
L 139.085888 274.975299 
z
" clip-path="url(#p616dab68d5)" style="fill: #059669"/>
   </g>
   <g id="patch_5">
    <path d="M 227.191151 288.430125 
L 250.685888 288.430125 
L 250.685888 254.181477 
L 227.191151 254.181477 
z
" clip-path="url(#p616dab68d5)" style="fill: #059669"/>
   </g>
   <g id="patch_6">
    <path d="M 315.296414 288.430125 
L 338.791151 288.430125 
L 338.791151 256.138541 
L 315.296414 256.138541 
z
" clip-path="url(#p616dab68d5)" style="fill: #059669"/>
   </g>
   <g id="patch_7">
    <path d="M 74.475362 288.430125 
L 97.970099 288.430125 
L 97.970099 280.67199 
L 74.475362 280.67199 
z
" clip-path="url(#p616dab68d5)" style="fill: #dc2626"/>
   </g>
   <g id="patch_8">
    <path d="M 162.580625 288.430125 
L 186.075362 288.430125 
L 186.075362 277.829353 
L 162.580625 277.829353 
z
" clip-path="url(#p616dab68d5)" style="fill: #dc2626"/>
   </g>
   <g id="patch_9">
    <path d="M 250.685888 288.430125 
L 274.180625 288.430125 
L 274.180625 258.747963 
L 250.685888 258.747963 
z
" clip-path="url(#p616dab68d5)" style="fill: #dc2626"/>
   </g>
   <g id="patch_10">
    <path d="M 338.791151 288.430125 
L 362.285888 288.430125 
L 362.285888 204.113211 
L 338.791151 204.113211 
z
" clip-path="url(#p616dab68d5)" style="fill: #dc2626"/>
   </g>
   <g id="patch_11">
    <path d="M 97.970099 288.430125 
L 121.464836 288.430125 
L 121.464836 226.911395 
L 97.970099 226.911395 
z
" clip-path="url(#p616dab68d5)" style="fill: #7c3aed"/>
   </g>
   <g id="patch_12">
    <path d="M 186.075362 288.430125 
L 209.570099 288.430125 
L 209.570099 237.057151 
L 186.075362 237.057151 
z
" clip-path="url(#p616dab68d5)" style="fill: #7c3aed"/>
   </g>
   <g id="patch_13">
    <path d="M 274.180625 288.430125 
L 297.675362 288.430125 
L 297.675362 34.990125 
L 274.180625 34.990125 
z
" clip-path="url(#p616dab68d5)" style="fill: #7c3aed"/>
   </g>
   <g id="patch_14">
    <path d="M 362.285888 288.430125 
L 385.780625 288.430125 
L 385.780625 170.027648 
L 362.285888 170.027648 
z
" clip-path="url(#p616dab68d5)" style="fill: #7c3aed"/>
   </g>
   <g id="LineCollection_1">
    <path d="M 62.727993 230.954366 
L 62.727993 230.954366 
" clip-path="url(#p616dab68d5)" style="fill: none; stroke: #495057"/>
    <path d="M 150.833257 274.975299 
L 150.833257 274.975299 
" clip-path="url(#p616dab68d5)" style="fill: none; stroke: #495057"/>
    <path d="M 238.93852 254.181477 
L 238.93852 254.181477 
" clip-path="url(#p616dab68d5)" style="fill: none; stroke: #495057"/>
    <path d="M 327.043783 256.138541 
L 327.043783 256.138541 
" clip-path="url(#p616dab68d5)" style="fill: none; stroke: #495057"/>
   </g>
   <g id="line2d_23">
    <defs>
     <path id="mf0ad526e2e" d="M 2.5 0 
L -2.5 -0 
" style="stroke: #495057"/>
    </defs>
    <g clip-path="url(#p616dab68d5)">
     <use xlink:href="#mf0ad526e2e" x="62.727993" y="230.954366" style="fill: #495057; stroke: #495057"/>
     <use xlink:href="#mf0ad526e2e" x="150.833257" y="274.975299" style="fill: #495057; stroke: #495057"/>
     <use xlink:href="#mf0ad526e2e" x="238.93852" y="254.181477" style="fill: #495057; stroke: #495057"/>
     <use xlink:href="#mf0ad526e2e" x="327.043783" y="256.138541" style="fill: #495057; stroke: #495057"/>
    </g>
   </g>
   <g id="line2d_24">
    <g clip-path="url(#p616dab68d5)">
     <use xlink:href="#mf0ad526e2e" x="62.727993" y="230.954366" style="fill: #495057; stroke: #495057"/>
     <use xlink:href="#mf0ad526e2e" x="150.833257" y="274.975299" style="fill: #495057; stroke: #495057"/>
     <use xlink:href="#mf0ad526e2e" x="238.93852" y="254.181477" style="fill: #495057; stroke: #495057"/>
     <use xlink:href="#mf0ad526e2e" x="327.043783" y="256.138541" style="fill: #495057; stroke: #495057"/>
    </g>
   </g>
   <g id="LineCollection_2">
    <path d="M 86.22273 280.67199 
L 86.22273 280.67199 
" clip-path="url(#p616dab68d5)" style="fill: none; stroke: #495057"/>
    <path d="M 174.327993 277.829353 
L 174.327993 277.829353 
" clip-path="url(#p616dab68d5)" style="fill: none; stroke: #495057"/>
    <path d="M 262.433257 258.747963 
L 262.433257 258.747963 
" clip-path="url(#p616dab68d5)" style="fill: none; stroke: #495057"/>
    <path d="M 350.53852 204.113211 
L 350.53852 204.113211 
" clip-path="url(#p616dab68d5)" style="fill: none; stroke: #495057"/>
   </g>
   <g id="line2d_25">
    <g clip-path="url(#p616dab68d5)">
     <use xlink:href="#mf0ad526e2e" x="86.22273" y="280.67199" style="fill: #495057; stroke: #495057"/>
     <use xlink:href="#mf0ad526e2e" x="174.327993" y="277.829353" style="fill: #495057; stroke: #495057"/>
     <use xlink:href="#mf0ad526e2e" x="262.433257" y="258.747963" style="fill: #495057; stroke: #495057"/>
     <use xlink:href="#mf0ad526e2e" x="350.53852" y="204.113211" style="fill: #495057; stroke: #495057"/>
    </g>
   </g>
   <g id="line2d_26">
    <g clip-path="url(#p616dab68d5)">
     <use xlink:href="#mf0ad526e2e" x="86.22273" y="280.67199" style="fill: #495057; stroke: #495057"/>
     <use xlink:href="#mf0ad526e2e" x="174.327993" y="277.829353" style="fill: #495057; stroke: #495057"/>
     <use xlink:href="#mf0ad526e2e" x="262.433257" y="258.747963" style="fill: #495057; stroke: #495057"/>
     <use xlink:href="#mf0ad526e2e" x="350.53852" y="204.113211" style="fill: #495057; stroke: #495057"/>
    </g>
   </g>
   <g id="LineCollection_3">
    <path d="M 109.717467 226.911395 
L 109.717467 226.911395 
" clip-path="url(#p616dab68d5)" style="fill: none; stroke: #495057"/>
    <path d="M 197.82273 237.057151 
L 197.82273 237.057151 
" clip-path="url(#p616dab68d5)" style="fill: none; stroke: #495057"/>
    <path d="M 285.927993 34.990125 
L 285.927993 34.990125 
" clip-path="url(#p616dab68d5)" style="fill: none; stroke: #495057"/>
    <path d="M 374.033257 170.027648 
L 374.033257 170.027648 
" clip-path="url(#p616dab68d5)" style="fill: none; stroke: #495057"/>
   </g>
   <g id="line2d_27">
    <g clip-path="url(#p616dab68d5)">
     <use xlink:href="#mf0ad526e2e" x="109.717467" y="226.911395" style="fill: #495057; stroke: #495057"/>
     <use xlink:href="#mf0ad526e2e" x="197.82273" y="237.057151" style="fill: #495057; stroke: #495057"/>
     <use xlink:href="#mf0ad526e2e" x="285.927993" y="34.990125" style="fill: #495057; stroke: #495057"/>
     <use xlink:href="#mf0ad526e2e" x="374.033257" y="170.027648" style="fill: #495057; stroke: #495057"/>
    </g>
   </g>
   <g id="line2d_28">
    <g clip-path="url(#p616dab68d5)">
     <use xlink:href="#mf0ad526e2e" x="109.717467" y="226.911395" style="fill: #495057; stroke: #495057"/>
     <use xlink:href="#mf0ad526e2e" x="197.82273" y="237.057151" style="fill: #495057; stroke: #495057"/>
     <use xlink:href="#mf0ad526e2e" x="285.927993" y="34.990125" style="fill: #495057; stroke: #495057"/>
     <use xlink:href="#mf0ad526e2e" x="374.033257" y="170.027648" style="fill: #495057; stroke: #495057"/>
    </g>
   </g>
   <g id="patch_15">
    <path d="M 34.240625 288.430125 
L 34.240625 22.318125 
" style="fill: none; stroke: #495057; stroke-width: 0.8; stroke-linejoin: miter; stroke-linecap: square"/>
   </g>
   <g id="patch_16">
    <path d="M 34.240625 288.430125 
L 402.520625 288.430125 
" style="fill: none; stroke: #495057; stroke-width: 0.8; stroke-linejoin: miter; stroke-linecap: square"/>
   </g>
   <g id="text_13">
    <!-- Final retained score per task  (mean ± 95% CI, 1 seeds) -->
    <g style="fill: #212529" transform="translate(34.240625 16.318125) scale(0.12 -0.12)">
     <defs>
      <path id="DejaVuSans-Bold-46" d="M 588 4666 
L 3834 4666 
L 3834 3756 
L 1791 3756 
L 1791 2888 
L 3713 2888 
L 3713 1978 
L 1791 1978 
L 1791 0 
L 588 0 
L 588 4666 
z
" transform="scale(0.015625)"/>
      <path id="DejaVuSans-Bold-69" d="M 538 3500 
L 1656 3500 
L 1656 0 
L 538 0 
L 538 3500 
z
M 538 4863 
L 1656 4863 
L 1656 3950 
L 538 3950 
L 538 4863 
z
" transform="scale(0.015625)"/>
      <path id="DejaVuSans-Bold-6e" d="M 4056 2131 
L 4056 0 
L 2931 0 
L 2931 347 
L 2931 1631 
Q 2931 2084 2911 2256 
Q 2891 2428 2841 2509 
Q 2775 2619 2662 2680 
Q 2550 2741 2406 2741 
Q 2056 2741 1856 2470 
Q 1656 2200 1656 1722 
L 1656 0 
L 538 0 
L 538 3500 
L 1656 3500 
L 1656 2988 
Q 1909 3294 2193 3439 
Q 2478 3584 2822 3584 
Q 3428 3584 3742 3212 
Q 4056 2841 4056 2131 
z
" transform="scale(0.015625)"/>
      <path id="DejaVuSans-Bold-61" d="M 2106 1575 
Q 1756 1575 1579 1456 
Q 1403 1338 1403 1106 
Q 1403 894 1545 773 
Q 1688 653 1941 653 
Q 2256 653 2472 879 
Q 2688 1106 2688 1447 
L 2688 1575 
L 2106 1575 
z
M 3816 1997 
L 3816 0 
L 2688 0 
L 2688 519 
Q 2463 200 2181 54 
Q 1900 -91 1497 -91 
Q 953 -91 614 226 
Q 275 544 275 1050 
Q 275 1666 698 1953 
Q 1122 2241 2028 2241 
L 2688 2241 
L 2688 2328 
Q 2688 2594 2478 2717 
Q 2269 2841 1825 2841 
Q 1466 2841 1156 2769 
Q 847 2697 581 2553 
L 581 3406 
Q 941 3494 1303 3539 
Q 1666 3584 2028 3584 
Q 2975 3584 3395 3211 
Q 3816 2838 3816 1997 
z
" transform="scale(0.015625)"/>
      <path id="DejaVuSans-Bold-6c" d="M 538 4863 
L 1656 4863 
L 1656 0 
L 538 0 
L 538 4863 
z
" transform="scale(0.015625)"/>
      <path id="DejaVuSans-Bold-20" transform="scale(0.015625)"/>
      <path id="DejaVuSans-Bold-72" d="M 3138 2547 
Q 2991 2616 2845 2648 
Q 2700 2681 2553 2681 
Q 2122 2681 1889 2404 
Q 1656 2128 1656 1613 
L 1656 0 
L 538 0 
L 538 3500 
L 1656 3500 
L 1656 2925 
Q 1872 3269 2151 3426 
Q 2431 3584 2822 3584 
Q 2878 3584 2943 3579 
Q 3009 3575 3134 3559 
L 3138 2547 
z
" transform="scale(0.015625)"/>
      <path id="DejaVuSans-Bold-65" d="M 4031 1759 
L 4031 1441 
L 1416 1441 
Q 1456 1047 1700 850 
Q 1944 653 2381 653 
Q 2734 653 3104 758 
Q 3475 863 3866 1075 
L 3866 213 
Q 3469 63 3072 -14 
Q 2675 -91 2278 -91 
Q 1328 -91 801 392 
Q 275 875 275 1747 
Q 275 2603 792 3093 
Q 1309 3584 2216 3584 
Q 3041 3584 3536 3087 
Q 4031 2591 4031 1759 
z
M 2881 2131 
Q 2881 2450 2695 2645 
Q 2509 2841 2209 2841 
Q 1884 2841 1681 2658 
Q 1478 2475 1428 2131 
L 2881 2131 
z
" transform="scale(0.015625)"/>
      <path id="DejaVuSans-Bold-74" d="M 1759 4494 
L 1759 3500 
L 2913 3500 
L 2913 2700 
L 1759 2700 
L 1759 1216 
Q 1759 972 1856 886 
Q 1953 800 2241 800 
L 2816 800 
L 2816 0 
L 1856 0 
Q 1194 0 917 276 
Q 641 553 641 1216 
L 641 2700 
L 84 2700 
L 84 3500 
L 641 3500 
L 641 4494 
L 1759 4494 
z
" transform="scale(0.015625)"/>
      <path id="DejaVuSans-Bold-64" d="M 2919 2988 
L 2919 4863 
L 4044 4863 
L 4044 0 
L 2919 0 
L 2919 506 
Q 2688 197 2409 53 
Q 2131 -91 1766 -91 
Q 1119 -91 703 423 
Q 288 938 288 1747 
Q 288 2556 703 3070 
Q 1119 3584 1766 3584 
Q 2128 3584 2408 3439 
Q 2688 3294 2919 2988 
z
M 2181 722 
Q 2541 722 2730 984 
Q 2919 1247 2919 1747 
Q 2919 2247 2730 2509 
Q 2541 2772 2181 2772 
Q 1825 2772 1636 2509 
Q 1447 2247 1447 1747 
Q 1447 1247 1636 984 
Q 1825 722 2181 722 
z
" transform="scale(0.015625)"/>
      <path id="DejaVuSans-Bold-73" d="M 3272 3391 
L 3272 2541 
Q 2913 2691 2578 2766 
Q 2244 2841 1947 2841 
Q 1628 2841 1473 2761 
Q 1319 2681 1319 2516 
Q 1319 2381 1436 2309 
Q 1553 2238 1856 2203 
L 2053 2175 
Q 2913 2066 3209 1816 
Q 3506 1566 3506 1031 
Q 3506 472 3093 190 
Q 2681 -91 1863 -91 
Q 1516 -91 1145 -36 
Q 775 19 384 128 
L 384 978 
Q 719 816 1070 734 
Q 1422 653 1784 653 
Q 2113 653 2278 743 
Q 2444 834 2444 1013 
Q 2444 1163 2330 1236 
Q 2216 1309 1875 1350 
L 1678 1375 
Q 931 1469 631 1722 
Q 331 1975 331 2491 
Q 331 3047 712 3315 
Q 1094 3584 1881 3584 
Q 2191 3584 2531 3537 
Q 2872 3491 3272 3391 
z
" transform="scale(0.015625)"/>
      <path id="DejaVuSans-Bold-63" d="M 3366 3391 
L 3366 2478 
Q 3138 2634 2908 2709 
Q 2678 2784 2431 2784 
Q 1963 2784 1702 2511 
Q 1441 2238 1441 1747 
Q 1441 1256 1702 982 
Q 1963 709 2431 709 
Q 2694 709 2930 787 
Q 3166 866 3366 1019 
L 3366 103 
Q 3103 6 2833 -42 
Q 2563 -91 2291 -91 
Q 1344 -91 809 395 
Q 275 881 275 1747 
Q 275 2613 809 3098 
Q 1344 3584 2291 3584 
Q 2566 3584 2833 3536 
Q 3100 3488 3366 3391 
z
" transform="scale(0.015625)"/>
      <path id="DejaVuSans-Bold-6f" d="M 2203 2784 
Q 1831 2784 1636 2517 
Q 1441 2250 1441 1747 
Q 1441 1244 1636 976 
Q 1831 709 2203 709 
Q 2569 709 2762 976 
Q 2956 1244 2956 1747 
Q 2956 2250 2762 2517 
Q 2569 2784 2203 2784 
z
M 2203 3584 
Q 3106 3584 3614 3096 
Q 4122 2609 4122 1747 
Q 4122 884 3614 396 
Q 3106 -91 2203 -91 
Q 1297 -91 786 396 
Q 275 884 275 1747 
Q 275 2609 786 3096 
Q 1297 3584 2203 3584 
z
" transform="scale(0.015625)"/>
      <path id="DejaVuSans-Bold-70" d="M 1656 506 
L 1656 -1331 
L 538 -1331 
L 538 3500 
L 1656 3500 
L 1656 2988 
Q 1888 3294 2169 3439 
Q 2450 3584 2816 3584 
Q 3463 3584 3878 3070 
Q 4294 2556 4294 1747 
Q 4294 938 3878 423 
Q 3463 -91 2816 -91 
Q 2450 -91 2169 54 
Q 1888 200 1656 506 
z
M 2400 2772 
Q 2041 2772 1848 2508 
Q 1656 2244 1656 1747 
Q 1656 1250 1848 986 
Q 2041 722 2400 722 
Q 2759 722 2948 984 
Q 3138 1247 3138 1747 
Q 3138 2247 2948 2509 
Q 2759 2772 2400 2772 
z
" transform="scale(0.015625)"/>
      <path id="DejaVuSans-Bold-6b" d="M 538 4863 
L 1656 4863 
L 1656 2216 
L 2944 3500 
L 4244 3500 
L 2534 1894 
L 4378 0 
L 3022 0 
L 1656 1459 
L 1656 0 
L 538 0 
L 538 4863 
z
" transform="scale(0.015625)"/>
      <path id="DejaVuSans-Bold-28" d="M 2413 -844 
L 1484 -844 
Q 1006 -72 778 623 
Q 550 1319 550 2003 
Q 550 2688 779 3389 
Q 1009 4091 1484 4856 
L 2413 4856 
Q 2013 4116 1813 3408 
Q 1613 2700 1613 2009 
Q 1613 1319 1811 609 
Q 2009 -100 2413 -844 
z
" transform="scale(0.015625)"/>
      <path id="DejaVuSans-Bold-6d" d="M 3781 2919 
Q 3994 3244 4286 3414 
Q 4578 3584 4928 3584 
Q 5531 3584 5847 3212 
Q 6163 2841 6163 2131 
L 6163 0 
L 5038 0 
L 5038 1825 
Q 5041 1866 5042 1909 
Q 5044 1953 5044 2034 
Q 5044 2406 4934 2573 
Q 4825 2741 4581 2741 
Q 4263 2741 4089 2478 
Q 3916 2216 3909 1719 
L 3909 0 
L 2784 0 
L 2784 1825 
Q 2784 2406 2684 2573 
Q 2584 2741 2328 2741 
Q 2006 2741 1831 2477 
Q 1656 2213 1656 1722 
L 1656 0 
L 531 0 
L 531 3500 
L 1656 3500 
L 1656 2988 
Q 1863 3284 2130 3434 
Q 2397 3584 2719 3584 
Q 3081 3584 3359 3409 
Q 3638 3234 3781 2919 
z
" transform="scale(0.015625)"/>
      <path id="DejaVuSans-Bold-b1" d="M 3053 4013 
L 3053 2906 
L 4684 2906 
L 4684 2169 
L 3053 2169 
L 3053 1063 
L 2309 1063 
L 2309 2169 
L 678 2169 
L 678 2906 
L 2309 2906 
L 2309 4013 
L 3053 4013 
z
M 678 744 
L 4684 744 
L 4684 0 
L 678 0 
L 678 744 
z
" transform="scale(0.015625)"/>
      <path id="DejaVuSans-Bold-39" d="M 641 103 
L 641 966 
Q 928 831 1190 764 
Q 1453 697 1709 697 
Q 2247 697 2547 995 
Q 2847 1294 2900 1881 
Q 2688 1725 2447 1647 
Q 2206 1569 1925 1569 
Q 1209 1569 770 1986 
Q 331 2403 331 3084 
Q 331 3838 820 4291 
Q 1309 4744 2131 4744 
Q 3044 4744 3544 4128 
Q 4044 3513 4044 2388 
Q 4044 1231 3459 570 
Q 2875 -91 1856 -91 
Q 1528 -91 1228 -42 
Q 928 6 641 103 
z
M 2125 2350 
Q 2441 2350 2600 2554 
Q 2759 2759 2759 3169 
Q 2759 3575 2600 3781 
Q 2441 3988 2125 3988 
Q 1809 3988 1650 3781 
Q 1491 3575 1491 3169 
Q 1491 2759 1650 2554 
Q 1809 2350 2125 2350 
z
" transform="scale(0.015625)"/>
      <path id="DejaVuSans-Bold-35" d="M 678 4666 
L 3669 4666 
L 3669 3781 
L 1638 3781 
L 1638 3059 
Q 1775 3097 1914 3117 
Q 2053 3138 2203 3138 
Q 3056 3138 3531 2711 
Q 4006 2284 4006 1522 
Q 4006 766 3489 337 
Q 2972 -91 2053 -91 
Q 1656 -91 1267 -14 
Q 878 63 494 219 
L 494 1166 
Q 875 947 1217 837 
Q 1559 728 1863 728 
Q 2300 728 2551 942 
Q 2803 1156 2803 1522 
Q 2803 1891 2551 2103 
Q 2300 2316 1863 2316 
Q 1603 2316 1309 2248 
Q 1016 2181 678 2041 
L 678 4666 
z
" transform="scale(0.015625)"/>
      <path id="DejaVuSans-Bold-25" d="M 4959 1925 
Q 4738 1925 4616 1733 
Q 4494 1541 4494 1184 
Q 4494 825 4614 633 
Q 4734 441 4959 441 
Q 5184 441 5303 633 
Q 5422 825 5422 1184 
Q 5422 1541 5301 1733 
Q 5181 1925 4959 1925 
z
M 4959 2450 
Q 5541 2450 5875 2112 
Q 6209 1775 6209 1184 
Q 6209 594 5875 251 
Q 5541 -91 4959 -91 
Q 4378 -91 4042 251 
Q 3706 594 3706 1184 
Q 3706 1772 4042 2111 
Q 4378 2450 4959 2450 
z
M 2094 -91 
L 1403 -91 
L 4319 4750 
L 5013 4750 
L 2094 -91 
z
M 1453 4750 
Q 2034 4750 2367 4411 
Q 2700 4072 2700 3481 
Q 2700 2891 2367 2550 
Q 2034 2209 1453 2209 
Q 872 2209 539 2550 
Q 206 2891 206 3481 
Q 206 4072 539 4411 
Q 872 4750 1453 4750 
z
M 1453 4225 
Q 1228 4225 1106 4031 
Q 984 3838 984 3481 
Q 984 3122 1106 2926 
Q 1228 2731 1453 2731 
Q 1678 2731 1798 2926 
Q 1919 3122 1919 3481 
Q 1919 3838 1797 4031 
Q 1675 4225 1453 4225 
z
" transform="scale(0.015625)"/>
      <path id="DejaVuSans-Bold-43" d="M 4288 256 
Q 3956 84 3597 -3 
Q 3238 -91 2847 -91 
Q 1681 -91 1000 561 
Q 319 1213 319 2328 
Q 319 3447 1000 4098 
Q 1681 4750 2847 4750 
Q 3238 4750 3597 4662 
Q 3956 4575 4288 4403 
L 4288 3438 
Q 3953 3666 3628 3772 
Q 3303 3878 2944 3878 
Q 2300 3878 1931 3465 
Q 1563 3053 1563 2328 
Q 1563 1606 1931 1193 
Q 2300 781 2944 781 
Q 3303 781 3628 887 
Q 3953 994 4288 1222 
L 4288 256 
z
" transform="scale(0.015625)"/>
      <path id="DejaVuSans-Bold-49" d="M 588 4666 
L 1791 4666 
L 1791 0 
L 588 0 
L 588 4666 
z
" transform="scale(0.015625)"/>
      <path id="DejaVuSans-Bold-2c" d="M 653 1209 
L 1778 1209 
L 1778 256 
L 1006 -909 
L 341 -909 
L 653 256 
L 653 1209 
z
" transform="scale(0.015625)"/>
      <path id="DejaVuSans-Bold-31" d="M 750 831 
L 1813 831 
L 1813 3847 
L 722 3622 
L 722 4441 
L 1806 4666 
L 2950 4666 
L 2950 831 
L 4013 831 
L 4013 0 
L 750 0 
L 750 831 
z
" transform="scale(0.015625)"/>
      <path id="DejaVuSans-Bold-29" d="M 513 -844 
Q 913 -100 1113 609 
Q 1313 1319 1313 2009 
Q 1313 2700 1113 3408 
Q 913 4116 513 4856 
L 1441 4856 
Q 1916 4091 2145 3389 
Q 2375 2688 2375 2003 
Q 2375 1319 2147 623 
Q 1919 -72 1441 -844 
L 513 -844 
z
" transform="scale(0.015625)"/>
     </defs>
     <use xlink:href="#DejaVuSans-Bold-46"/>
     <use xlink:href="#DejaVuSans-Bold-69" x="68.310547"/>
     <use xlink:href="#DejaVuSans-Bold-6e" x="102.587891"/>
     <use xlink:href="#DejaVuSans-Bold-61" x="173.779297"/>
     <use xlink:href="#DejaVuSans-Bold-6c" x="241.259766"/>
     <use xlink:href="#DejaVuSans-Bold-20" x="275.537109"/>
     <use xlink:href="#DejaVuSans-Bold-72" x="310.351562"/>
     <use xlink:href="#DejaVuSans-Bold-65" x="359.667969"/>
     <use xlink:href="#DejaVuSans-Bold-74" x="427.490234"/>
     <use xlink:href="#DejaVuSans-Bold-61" x="475.292969"/>
     <use xlink:href="#DejaVuSans-Bold-69" x="542.773438"/>
     <use xlink:href="#DejaVuSans-Bold-6e" x="577.050781"/>
     <use xlink:href="#DejaVuSans-Bold-65" x="648.242188"/>
     <use xlink:href="#DejaVuSans-Bold-64" x="716.064453"/>
     <use xlink:href="#DejaVuSans-Bold-20" x="787.646484"/>
     <use xlink:href="#DejaVuSans-Bold-73" x="822.460938"/>
     <use xlink:href="#DejaVuSans-Bold-63" x="881.982422"/>
     <use xlink:href="#DejaVuSans-Bold-6f" x="941.259766"/>
     <use xlink:href="#DejaVuSans-Bold-72" x="1009.960938"/>
     <use xlink:href="#DejaVuSans-Bold-65" x="1059.277344"/>
     <use xlink:href="#DejaVuSans-Bold-20" x="1127.099609"/>
     <use xlink:href="#DejaVuSans-Bold-70" x="1161.914062"/>
     <use xlink:href="#DejaVuSans-Bold-65" x="1233.496094"/>
     <use xlink:href="#DejaVuSans-Bold-72" x="1301.318359"/>
     <use xlink:href="#DejaVuSans-Bold-20" x="1350.634766"/>
     <use xlink:href="#DejaVuSans-Bold-74" x="1385.449219"/>
     <use xlink:href="#DejaVuSans-Bold-61" x="1433.251953"/>
     <use xlink:href="#DejaVuSans-Bold-73" x="1500.732422"/>
     <use xlink:href="#DejaVuSans-Bold-6b" x="1560.253906"/>
     <use xlink:href="#DejaVuSans-Bold-20" x="1626.757812"/>
     <use xlink:href="#DejaVuSans-Bold-20" x="1661.572266"/>
     <use xlink:href="#DejaVuSans-Bold-28" x="1696.386719"/>
     <use xlink:href="#DejaVuSans-Bold-6d" x="1742.089844"/>
     <use xlink:href="#DejaVuSans-Bold-65" x="1846.289062"/>
     <use xlink:href="#DejaVuSans-Bold-61" x="1914.111328"/>
     <use xlink:href="#DejaVuSans-Bold-6e" x="1981.591797"/>
     <use xlink:href="#DejaVuSans-Bold-20" x="2052.783203"/>
     <use xlink:href="#DejaVuSans-Bold-b1" x="2087.597656"/>
     <use xlink:href="#DejaVuSans-Bold-20" x="2171.386719"/>
     <use xlink:href="#DejaVuSans-Bold-39" x="2206.201172"/>
     <use xlink:href="#DejaVuSans-Bold-35" x="2275.78125"/>
     <use xlink:href="#DejaVuSans-Bold-25" x="2345.361328"/>
     <use xlink:href="#DejaVuSans-Bold-20" x="2445.556641"/>
     <use xlink:href="#DejaVuSans-Bold-43" x="2480.371094"/>
     <use xlink:href="#DejaVuSans-Bold-49" x="2553.759766"/>
     <use xlink:href="#DejaVuSans-Bold-2c" x="2590.966797"/>
     <use xlink:href="#DejaVuSans-Bold-20" x="2628.955078"/>
     <use xlink:href="#DejaVuSans-Bold-31" x="2663.769531"/>
     <use xlink:href="#DejaVuSans-Bold-20" x="2733.349609"/>
     <use xlink:href="#DejaVuSans-Bold-73" x="2768.164062"/>
     <use xlink:href="#DejaVuSans-Bold-65" x="2827.685547"/>
     <use xlink:href="#DejaVuSans-Bold-65" x="2895.507812"/>
     <use xlink:href="#DejaVuSans-Bold-64" x="2963.330078"/>
     <use xlink:href="#DejaVuSans-Bold-73" x="3034.912109"/>
     <use xlink:href="#DejaVuSans-Bold-29" x="3094.433594"/>
    </g>
   </g>
   <g id="legend_1">
    <g id="patch_17">
     <path d="M 50.660703 335.302159 
L 68.660703 335.302159 
L 68.660703 329.002159 
L 50.660703 329.002159 
z
" style="fill: #059669"/>
    </g>
    <g id="text_14">
     <!-- Constrained min-max (ours) -->
     <g style="fill: #212529" transform="translate(75.860703 335.302159) scale(0.09 -0.09)">
      <defs>
       <path id="DejaVuSans-43" d="M 4122 4306 
L 4122 3641 
Q 3803 3938 3442 4084 
Q 3081 4231 2675 4231 
Q 1875 4231 1450 3742 
Q 1025 3253 1025 2328 
Q 1025 1406 1450 917 
Q 1875 428 2675 428 
Q 3081 428 3442 575 
Q 3803 722 4122 1019 
L 4122 359 
Q 3791 134 3420 21 
Q 3050 -91 2638 -91 
Q 1578 -91 968 557 
Q 359 1206 359 2328 
Q 359 3453 968 4101 
Q 1578 4750 2638 4750 
Q 3056 4750 3426 4639 
Q 3797 4528 4122 4306 
z
" transform="scale(0.015625)"/>
       <path id="DejaVuSans-74" d="M 1172 4494 
L 1172 3500 
L 2356 3500 
L 2356 3053 
L 1172 3053 
L 1172 1153 
Q 1172 725 1289 603 
Q 1406 481 1766 481 
L 2356 481 
L 2356 0 
L 1766 0 
Q 1100 0 847 248 
Q 594 497 594 1153 
L 594 3053 
L 172 3053 
L 172 3500 
L 594 3500 
L 594 4494 
L 1172 4494 
z
" transform="scale(0.015625)"/>
       <path id="DejaVuSans-6d" d="M 3328 2828 
Q 3544 3216 3844 3400 
Q 4144 3584 4550 3584 
Q 5097 3584 5394 3201 
Q 5691 2819 5691 2113 
L 5691 0 
L 5113 0 
L 5113 2094 
Q 5113 2597 4934 2840 
Q 4756 3084 4391 3084 
Q 3944 3084 3684 2787 
Q 3425 2491 3425 1978 
L 3425 0 
L 2847 0 
L 2847 2094 
Q 2847 2600 2669 2842 
Q 2491 3084 2119 3084 
Q 1678 3084 1418 2786 
Q 1159 2488 1159 1978 
L 1159 0 
L 581 0 
L 581 3500 
L 1159 3500 
L 1159 2956 
Q 1356 3278 1631 3431 
Q 1906 3584 2284 3584 
Q 2666 3584 2933 3390 
Q 3200 3197 3328 2828 
z
" transform="scale(0.015625)"/>
       <path id="DejaVuSans-2d" d="M 313 2009 
L 1997 2009 
L 1997 1497 
L 313 1497 
L 313 2009 
z
" transform="scale(0.015625)"/>
       <path id="DejaVuSans-78" d="M 3513 3500 
L 2247 1797 
L 3578 0 
L 2900 0 
L 1881 1375 
L 863 0 
L 184 0 
L 1544 1831 
L 300 3500 
L 978 3500 
L 1906 2253 
L 2834 3500 
L 3513 3500 
z
" transform="scale(0.015625)"/>
      </defs>
      <use xlink:href="#DejaVuSans-43"/>
      <use xlink:href="#DejaVuSans-6f" x="69.824219"/>
      <use xlink:href="#DejaVuSans-6e" x="131.005859"/>
      <use xlink:href="#DejaVuSans-73" x="194.384766"/>
      <use xlink:href="#DejaVuSans-74" x="246.484375"/>
      <use xlink:href="#DejaVuSans-72" x="285.693359"/>
      <use xlink:href="#DejaVuSans-61" x="326.806641"/>
      <use xlink:href="#DejaVuSans-69" x="388.085938"/>
      <use xlink:href="#DejaVuSans-6e" x="415.869141"/>
      <use xlink:href="#DejaVuSans-65" x="479.248047"/>
      <use xlink:href="#DejaVuSans-64" x="540.771484"/>
      <use xlink:href="#DejaVuSans-20" x="604.248047"/>
      <use xlink:href="#DejaVuSans-6d" x="636.035156"/>
      <use xlink:href="#DejaVuSans-69" x="733.447266"/>
      <use xlink:href="#DejaVuSans-6e" x="761.230469"/>
      <use xlink:href="#DejaVuSans-2d" x="824.609375"/>
      <use xlink:href="#DejaVuSans-6d" x="860.693359"/>
      <use xlink:href="#DejaVuSans-61" x="958.105469"/>
      <use xlink:href="#DejaVuSans-78" x="1019.384766"/>
      <use xlink:href="#DejaVuSans-20" x="1078.564453"/>
      <use xlink:href="#DejaVuSans-28" x="1110.351562"/>
      <use xlink:href="#DejaVuSans-6f" x="1149.365234"/>
      <use xlink:href="#DejaVuSans-75" x="1210.546875"/>
      <use xlink:href="#DejaVuSans-72" x="1273.925781"/>
      <use xlink:href="#DejaVuSans-73" x="1315.039062"/>
      <use xlink:href="#DejaVuSans-29" x="1367.138672"/>
     </g>
    </g>
    <g id="patch_18">
     <path d="M 50.660703 348.512471 
L 68.660703 348.512471 
L 68.660703 342.212471 
L 50.660703 342.212471 
z
" style="fill: #dc2626"/>
    </g>
    <g id="text_15">
     <!-- Naive fine-tuning (single net) -->
     <g style="fill: #212529" transform="translate(75.860703 348.512471) scale(0.09 -0.09)">
      <defs>
       <path id="DejaVuSans-4e" d="M 628 4666 
L 1478 4666 
L 3547 763 
L 3547 4666 
L 4159 4666 
L 4159 0 
L 3309 0 
L 1241 3903 
L 1241 0 
L 628 0 
L 628 4666 
z
" transform="scale(0.015625)"/>
       <path id="DejaVuSans-76" d="M 191 3500 
L 800 3500 
L 1894 563 
L 2988 3500 
L 3597 3500 
L 2284 0 
L 1503 0 
L 191 3500 
z
" transform="scale(0.015625)"/>
       <path id="DejaVuSans-67" d="M 2906 1791 
Q 2906 2416 2648 2759 
Q 2391 3103 1925 3103 
Q 1463 3103 1205 2759 
Q 947 2416 947 1791 
Q 947 1169 1205 825 
Q 1463 481 1925 481 
Q 2391 481 2648 825 
Q 2906 1169 2906 1791 
z
M 3481 434 
Q 3481 -459 3084 -895 
Q 2688 -1331 1869 -1331 
Q 1566 -1331 1297 -1286 
Q 1028 -1241 775 -1147 
L 775 -588 
Q 1028 -725 1275 -790 
Q 1522 -856 1778 -856 
Q 2344 -856 2625 -561 
Q 2906 -266 2906 331 
L 2906 616 
Q 2728 306 2450 153 
Q 2172 0 1784 0 
Q 1141 0 747 490 
Q 353 981 353 1791 
Q 353 2603 747 3093 
Q 1141 3584 1784 3584 
Q 2172 3584 2450 3431 
Q 2728 3278 2906 2969 
L 2906 3500 
L 3481 3500 
L 3481 434 
z
" transform="scale(0.015625)"/>
      </defs>
      <use xlink:href="#DejaVuSans-4e"/>
      <use xlink:href="#DejaVuSans-61" x="74.804688"/>
      <use xlink:href="#DejaVuSans-69" x="136.083984"/>
      <use xlink:href="#DejaVuSans-76" x="163.867188"/>
      <use xlink:href="#DejaVuSans-65" x="223.046875"/>
      <use xlink:href="#DejaVuSans-20" x="284.570312"/>
      <use xlink:href="#DejaVuSans-66" x="316.357422"/>
      <use xlink:href="#DejaVuSans-69" x="351.5625"/>
      <use xlink:href="#DejaVuSans-6e" x="379.345703"/>
      <use xlink:href="#DejaVuSans-65" x="442.724609"/>
      <use xlink:href="#DejaVuSans-2d" x="504.248047"/>
      <use xlink:href="#DejaVuSans-74" x="540.332031"/>
      <use xlink:href="#DejaVuSans-75" x="579.541016"/>
      <use xlink:href="#DejaVuSans-6e" x="642.919922"/>
      <use xlink:href="#DejaVuSans-69" x="706.298828"/>
      <use xlink:href="#DejaVuSans-6e" x="734.082031"/>
      <use xlink:href="#DejaVuSans-67" x="797.460938"/>
      <use xlink:href="#DejaVuSans-20" x="860.9375"/>
      <use xlink:href="#DejaVuSans-28" x="892.724609"/>
      <use xlink:href="#DejaVuSans-73" x="931.738281"/>
      <use xlink:href="#DejaVuSans-69" x="983.837891"/>
      <use xlink:href="#DejaVuSans-6e" x="1011.621094"/>
      <use xlink:href="#DejaVuSans-67" x="1075"/>
      <use xlink:href="#DejaVuSans-6c" x="1138.476562"/>
      <use xlink:href="#DejaVuSans-65" x="1166.259766"/>
      <use xlink:href="#DejaVuSans-20" x="1227.783203"/>
      <use xlink:href="#DejaVuSans-6e" x="1259.570312"/>
      <use xlink:href="#DejaVuSans-65" x="1322.949219"/>
      <use xlink:href="#DejaVuSans-74" x="1384.472656"/>
      <use xlink:href="#DejaVuSans-29" x="1423.681641"/>
     </g>
    </g>
    <g id="patch_19">
     <path d="M 225.502578 335.302159 
L 243.502578 335.302159 
L 243.502578 329.002159 
L 225.502578 329.002159 
z
" style="fill: #7c3aed"/>
    </g>
    <g id="text_16">
     <!-- Joint multi-task (upper bound) -->
     <g style="fill: #212529" transform="translate(250.702578 335.302159) scale(0.09 -0.09)">
      <defs>
       <path id="DejaVuSans-4a" d="M 628 4666 
L 1259 4666 
L 1259 325 
Q 1259 -519 939 -900 
Q 619 -1281 -91 -1281 
L -331 -1281 
L -331 -750 
L -134 -750 
Q 284 -750 456 -515 
Q 628 -281 628 325 
L 628 4666 
z
" transform="scale(0.015625)"/>
       <path id="DejaVuSans-6b" d="M 581 4863 
L 1159 4863 
L 1159 1991 
L 2875 3500 
L 3609 3500 
L 1753 1863 
L 3688 0 
L 2938 0 
L 1159 1709 
L 1159 0 
L 581 0 
L 581 4863 
z
" transform="scale(0.015625)"/>
       <path id="DejaVuSans-70" d="M 1159 525 
L 1159 -1331 
L 581 -1331 
L 581 3500 
L 1159 3500 
L 1159 2969 
Q 1341 3281 1617 3432 
Q 1894 3584 2278 3584 
Q 2916 3584 3314 3078 
Q 3713 2572 3713 1747 
Q 3713 922 3314 415 
Q 2916 -91 2278 -91 
Q 1894 -91 1617 61 
Q 1341 213 1159 525 
z
M 3116 1747 
Q 3116 2381 2855 2742 
Q 2594 3103 2138 3103 
Q 1681 3103 1420 2742 
Q 1159 2381 1159 1747 
Q 1159 1113 1420 752 
Q 1681 391 2138 391 
Q 2594 391 2855 752 
Q 3116 1113 3116 1747 
z
" transform="scale(0.015625)"/>
       <path id="DejaVuSans-62" d="M 3116 1747 
Q 3116 2381 2855 2742 
Q 2594 3103 2138 3103 
Q 1681 3103 1420 2742 
Q 1159 2381 1159 1747 
Q 1159 1113 1420 752 
Q 1681 391 2138 391 
Q 2594 391 2855 752 
Q 3116 1113 3116 1747 
z
M 1159 2969 
Q 1341 3281 1617 3432 
Q 1894 3584 2278 3584 
Q 2916 3584 3314 3078 
Q 3713 2572 3713 1747 
Q 3713 922 3314 415 
Q 2916 -91 2278 -91 
Q 1894 -91 1617 61 
Q 1341 213 1159 525 
L 1159 0 
L 581 0 
L 581 4863 
L 1159 4863 
L 1159 2969 
z
" transform="scale(0.015625)"/>
      </defs>
      <use xlink:href="#DejaVuSans-4a"/>
      <use xlink:href="#DejaVuSans-6f" x="29.492188"/>
      <use xlink:href="#DejaVuSans-69" x="90.673828"/>
      <use xlink:href="#DejaVuSans-6e" x="118.457031"/>
      <use xlink:href="#DejaVuSans-74" x="181.835938"/>
      <use xlink:href="#DejaVuSans-20" x="221.044922"/>
      <use xlink:href="#DejaVuSans-6d" x="252.832031"/>
      <use xlink:href="#DejaVuSans-75" x="350.244141"/>
      <use xlink:href="#DejaVuSans-6c" x="413.623047"/>
      <use xlink:href="#DejaVuSans-74" x="441.40625"/>
      <use xlink:href="#DejaVuSans-69" x="480.615234"/>
      <use xlink:href="#DejaVuSans-2d" x="508.398438"/>
      <use xlink:href="#DejaVuSans-74" x="544.482422"/>
      <use xlink:href="#DejaVuSans-61" x="583.691406"/>
      <use xlink:href="#DejaVuSans-73" x="644.970703"/>
      <use xlink:href="#DejaVuSans-6b" x="697.070312"/>
      <use xlink:href="#DejaVuSans-20" x="754.980469"/>
      <use xlink:href="#DejaVuSans-28" x="786.767578"/>
      <use xlink:href="#DejaVuSans-75" x="825.78125"/>
      <use xlink:href="#DejaVuSans-70" x="889.160156"/>
      <use xlink:href="#DejaVuSans-70" x="952.636719"/>
      <use xlink:href="#DejaVuSans-65" x="1016.113281"/>
      <use xlink:href="#DejaVuSans-72" x="1077.636719"/>
      <use xlink:href="#DejaVuSans-20" x="1118.75"/>
      <use xlink:href="#DejaVuSans-62" x="1150.537109"/>
      <use xlink:href="#DejaVuSans-6f" x="1214.013672"/>
      <use xlink:href="#DejaVuSans-75" x="1275.195312"/>
      <use xlink:href="#DejaVuSans-6e" x="1338.574219"/>
      <use xlink:href="#DejaVuSans-64" x="1401.953125"/>
      <use xlink:href="#DejaVuSans-29" x="1465.429688"/>
     </g>
    </g>
   </g>
  </g>
 </g>
 <defs>
  <clipPath id="p616dab68d5">
   <rect x="34.240625" y="22.318125" width="368.28" height="266.112"/>
  </clipPath>
 </defs>
</svg>
