<?xml version="1.0" encoding="utf-8" standalone="no"?>
<!DOCTYPE svg PUBLIC "-//W3C//DTD SVG 1.1//EN"
  "http://www.w3.org/Graphics/SVG/1.1/DTD/svg11.dtd">
<svg xmlns:xlink="http://www.w3.org/1999/xlink" width="640.946563pt" height="427.11625pt" viewBox="0 0 640.946563 427.11625" xmlns="http://www.w3.org/2000/svg" version="1.1">
 <metadata>
  <rdf:RDF xmlns:dc="http://purl.org/dc/elements/1.1/" xmlns:cc="http://creativecommons.org/ns#" xmlns:rdf="http://www.w3.org/1999/02/22-rdf-syntax-ns#">
   <cc:Work>
    <dc:type rdf:resource="http://purl.org/dc/dcmitype/StillImage"/>
    <dc:date>2026-07-14T03:19:28.596760</dc:date>
    <dc:format>image/svg+xml</dc:format>
    <dc:creator>
     <cc:Agent>
      <dc:title>Matplotlib v3.7.1, https://matplotlib.org/</dc:title>
     </cc:Agent>
    </dc:creator>
   </cc:Work>
  </rdf:RDF>
 </metadata>
 <defs>
  <style type="text/css">*{stroke-linejoin: round; stroke-linecap: butt}</style>
 </defs>
 <g id="figure_1">
  <g id="patch_1">
   <path d="M 0 427.11625 
L 640.946563 427.11625 
L 640.946563 0 
L 0 0 
z
" style="fill: #ffffff"/>
  </g>
  <g id="axes_1">
   <g id="patch_2">
    <path d="M 58.523438 196.92 
L 600.343438 196.92 
L 600.343438 47.28 
L 58.523438 47.28 
z
" style="fill: #ffffff"/>
   </g>
   <g id="matplotlib.axis_1">
    <g id="xtick_1">
     <g id="line2d_1">
      <path d="M 83.151619 196.92 
L 83.151619 47.28 
" clip-path="url(#p0bffa7f72c)" style="fill: none; stroke: #e9ecef; stroke-width: 0.7; stroke-linecap: square"/>
     </g>
     <g id="line2d_2">
      <defs>
       <path id="me8670d6cdd" d="M 0 0 
L 0 3.5 
" style="stroke: #6c757d; stroke-width: 0.8"/>
      </defs>
      <g>
       <use xlink:href="#me8670d6cdd" x="83.151619" y="196.92" style="fill: #6c757d; stroke: #6c757d; stroke-width: 0.8"/>
      </g>
     </g>
     <g id="text_1">
      <!-- 0 -->
      <g style="fill: #6c757d" transform="translate(79.970369 211.518438) scale(0.1 -0.1)">
       <defs>
        <path id="DejaVuSans-30" d="M 2034 4250 
Q 1547 4250 1301 3770 
Q 1056 3291 1056 2328 
Q 1056 1369 1301 889 
Q 1547 409 2034 409 
Q 2525 409 2770 889 
Q 3016 1369 3016 2328 
Q 3016 3291 2770 3770 
Q 2525 4250 2034 4250 
z
M 2034 4750 
Q 2819 4750 3233 4129 
Q 3647 3509 3647 2328 
Q 3647 1150 3233 529 
Q 2819 -91 2034 -91 
Q 1250 -91 836 529 
Q 422 1150 422 2328 
Q 422 3509 836 4129 
Q 1250 4750 2034 4750 
z
" transform="scale(0.015625)"/>
       </defs>
       <use xlink:href="#DejaVuSans-30"/>
      </g>
     </g>
    </g>
    <g id="xtick_2">
     <g id="line2d_3">
      <path d="M 191.645812 196.92 
L 191.645812 47.28 
" clip-path="url(#p0bffa7f72c)" style="fill: none; stroke: #e9ecef; stroke-width: 0.7; stroke-linecap: square"/>
     </g>
     <g id="line2d_4">
      <g>
       <use xlink:href="#me8670d6cdd" x="191.645812" y="196.92" style="fill: #6c757d; stroke: #6c757d; stroke-width: 0.8"/>
      </g>
     </g>
     <g id="text_2">
      <!-- 50 -->
      <g style="fill: #6c757d" transform="translate(185.283312 211.518438) scale(0.1 -0.1)">
       <defs>
        <path id="DejaVuSans-35" d="M 691 4666 
L 3169 4666 
L 3169 4134 
L 1269 4134 
L 1269 2991 
Q 1406 3038 1543 3061 
Q 1681 3084 1819 3084 
Q 2600 3084 3056 2656 
Q 3513 2228 3513 1497 
Q 3513 744 3044 326 
Q 2575 -91 1722 -91 
Q 1428 -91 1123 -41 
Q 819 9 494 109 
L 494 744 
Q 775 591 1075 516 
Q 1375 441 1709 441 
Q 2250 441 2565 725 
Q 2881 1009 2881 1497 
Q 2881 1984 2565 2268 
Q 2250 2553 1709 2553 
Q 1456 2553 1204 2497 
Q 953 2441 691 2322 
L 691 4666 
z
" transform="scale(0.015625)"/>
       </defs>
       <use xlink:href="#DejaVuSans-35"/>
       <use xlink:href="#DejaVuSans-30" x="63.623047"/>
      </g>
     </g>
    </g>
    <g id="xtick_3">
     <g id="line2d_5">
      <path d="M 300.140005 196.92 
L 300.140005 47.28 
" clip-path="url(#p0bffa7f72c)" style="fill: none; stroke: #e9ecef; stroke-width: 0.7; stroke-linecap: square"/>
     </g>
     <g id="line2d_6">
      <g>
       <use xlink:href="#me8670d6cdd" x="300.140005" y="196.92" style="fill: #6c757d; stroke: #6c757d; stroke-width: 0.8"/>
      </g>
     </g>
     <g id="text_3">
      <!-- 100 -->
      <g style="fill: #6c757d" transform="translate(290.596255 211.518438) scale(0.1 -0.1)">
       <defs>
        <path id="DejaVuSans-31" d="M 794 531 
L 1825 531 
L 1825 4091 
L 703 3866 
L 703 4441 
L 1819 4666 
L 2450 4666 
L 2450 531 
L 3481 531 
L 3481 0 
L 794 0 
L 794 531 
z
" transform="scale(0.015625)"/>
       </defs>
       <use xlink:href="#DejaVuSans-31"/>
       <use xlink:href="#DejaVuSans-30" x="63.623047"/>
       <use xlink:href="#DejaVuSans-30" x="127.246094"/>
      </g>
     </g>
    </g>
    <g id="xtick_4">
     <g id="line2d_7">
      <path d="M 408.634198 196.92 
L 408.634198 47.28 
" clip-path="url(#p0bffa7f72c)" style="fill: none; stroke: #e9ecef; stroke-width: 0.7; stroke-linecap: square"/>
     </g>
     <g id="line2d_8">
      <g>
       <use xlink:href="#me8670d6cdd" x="408.634198" y="196.92" style="fill: #6c757d; stroke: #6c757d; stroke-width: 0.8"/>
      </g>
     </g>
     <g id="text_4">
      <!-- 150 -->
      <g style="fill: #6c757d" transform="translate(399.090448 211.518438) scale(0.1 -0.1)">
       <use xlink:href="#DejaVuSans-31"/>
       <use xlink:href="#DejaVuSans-35" x="63.623047"/>
       <use xlink:href="#DejaVuSans-30" x="127.246094"/>
      </g>
     </g>
    </g>
    <g id="xtick_5">
     <g id="line2d_9">
      <path d="M 517.128391 196.92 
L 517.128391 47.28 
" clip-path="url(#p0bffa7f72c)" style="fill: none; stroke: #e9ecef; stroke-width: 0.7; stroke-linecap: square"/>
     </g>
     <g id="line2d_10">
      <g>
       <use xlink:href="#me8670d6cdd" x="517.128391" y="196.92" style="fill: #6c757d; stroke: #6c757d; stroke-width: 0.8"/>
      </g>
     </g>
     <g id="text_5">
      <!-- 200 -->
      <g style="fill: #6c757d" transform="translate(507.584641 211.518438) scale(0.1 -0.1)">
       <defs>
        <path id="DejaVuSans-32" d="M 1228 531 
L 3431 531 
L 3431 0 
L 469 0 
L 469 531 
Q 828 903 1448 1529 
Q 2069 2156 2228 2338 
Q 2531 2678 2651 2914 
Q 2772 3150 2772 3378 
Q 2772 3750 2511 3984 
Q 2250 4219 1831 4219 
Q 1534 4219 1204 4116 
Q 875 4013 500 3803 
L 500 4441 
Q 881 4594 1212 4672 
Q 1544 4750 1819 4750 
Q 2544 4750 2975 4387 
Q 3406 4025 3406 3419 
Q 3406 3131 3298 2873 
Q 3191 2616 2906 2266 
Q 2828 2175 2409 1742 
Q 1991 1309 1228 531 
z
" transform="scale(0.015625)"/>
       </defs>
       <use xlink:href="#DejaVuSans-32"/>
       <use xlink:href="#DejaVuSans-30" x="63.623047"/>
       <use xlink:href="#DejaVuSans-30" x="127.246094"/>
      </g>
     </g>
    </g>
   </g>
   <g id="matplotlib.axis_2">
    <g id="ytick_1">
     <g id="line2d_11">
      <path d="M 58.523438 176.514545 
L 600.343438 176.514545 
" clip-path="url(#p0bffa7f72c)" style="fill: none; stroke: #e9ecef; stroke-width: 0.7; stroke-linecap: square"/>
     </g>
     <g id="line2d_12">
      <defs>
       <path id="m82f967271a" d="M 0 0 
L -3.5 0 
" style="stroke: #6c757d; stroke-width: 0.8"/>
      </defs>
      <g>
       <use xlink:href="#m82f967271a" x="58.523438" y="176.514545" style="fill: #6c757d; stroke: #6c757d; stroke-width: 0.8"/>
      </g>
     </g>
     <g id="text_6">
      <!-- −0.04 -->
      <g style="fill: #2563eb" transform="translate(20.878125 180.313764) scale(0.1 -0.1)">
       <defs>
        <path id="DejaVuSans-2212" d="M 678 2272 
L 4684 2272 
L 4684 1741 
L 678 1741 
L 678 2272 
z
" transform="scale(0.015625)"/>
        <path id="DejaVuSans-2e" d="M 684 794 
L 1344 794 
L 1344 0 
L 684 0 
L 684 794 
z
" transform="scale(0.015625)"/>
        <path id="DejaVuSans-34" d="M 2419 4116 
L 825 1625 
L 2419 1625 
L 2419 4116 
z
M 2253 4666 
L 3047 4666 
L 3047 1625 
L 3713 1625 
L 3713 1100 
L 3047 1100 
L 3047 0 
L 2419 0 
L 2419 1100 
L 313 1100 
L 313 1709 
L 2253 4666 
z
" transform="scale(0.015625)"/>
       </defs>
       <use xlink:href="#DejaVuSans-2212"/>
       <use xlink:href="#DejaVuSans-30" x="83.789062"/>
       <use xlink:href="#DejaVuSans-2e" x="147.412109"/>
       <use xlink:href="#DejaVuSans-30" x="179.199219"/>
       <use xlink:href="#DejaVuSans-34" x="242.822266"/>
      </g>
     </g>
    </g>
    <g id="ytick_2">
     <g id="line2d_13">
      <path d="M 58.523438 149.307273 
L 600.343438 149.307273 
" clip-path="url(#p0bffa7f72c)" style="fill: none; stroke: #e9ecef; stroke-width: 0.7; stroke-linecap: square"/>
     </g>
     <g id="line2d_14">
      <g>
       <use xlink:href="#m82f967271a" x="58.523438" y="149.307273" style="fill: #6c757d; stroke: #6c757d; stroke-width: 0.8"/>
      </g>
     </g>
     <g id="text_7">
      <!-- −0.02 -->
      <g style="fill: #2563eb" transform="translate(20.878125 153.106491) scale(0.1 -0.1)">
       <use xlink:href="#DejaVuSans-2212"/>
       <use xlink:href="#DejaVuSans-30" x="83.789062"/>
       <use xlink:href="#DejaVuSans-2e" x="147.412109"/>
       <use xlink:href="#DejaVuSans-30" x="179.199219"/>
       <use xlink:href="#DejaVuSans-32" x="242.822266"/>
      </g>
     </g>
    </g>
    <g id="ytick_3">
     <g id="line2d_15">
      <path d="M 58.523438 122.1 
L 600.343438 122.1 
" clip-path="url(#p0bffa7f72c)" style="fill: none; stroke: #e9ecef; stroke-width: 0.7; stroke-linecap: square"/>
     </g>
     <g id="line2d_16">
      <g>
       <use xlink:href="#m82f967271a" x="58.523438" y="122.1" style="fill: #6c757d; stroke: #6c757d; stroke-width: 0.8"/>
      </g>
     </g>
     <g id="text_8">
      <!-- 0.00 -->
      <g style="fill: #2563eb" transform="translate(29.257813 125.899219) scale(0.1 -0.1)">
       <use xlink:href="#DejaVuSans-30"/>
       <use xlink:href="#DejaVuSans-2e" x="63.623047"/>
       <use xlink:href="#DejaVuSans-30" x="95.410156"/>
       <use xlink:href="#DejaVuSans-30" x="159.033203"/>
      </g>
     </g>
    </g>
    <g id="ytick_4">
     <g id="line2d_17">
      <path d="M 58.523438 94.892727 
L 600.343438 94.892727 
" clip-path="url(#p0bffa7f72c)" style="fill: none; stroke: #e9ecef; stroke-width: 0.7; stroke-linecap: square"/>
     </g>
     <g id="line2d_18">
      <g>
       <use xlink:href="#m82f967271a" x="58.523438" y="94.892727" style="fill: #6c757d; stroke: #6c757d; stroke-width: 0.8"/>
      </g>
     </g>
     <g id="text_9">
      <!-- 0.02 -->
      <g style="fill: #2563eb" transform="translate(29.257813 98.691946) scale(0.1 -0.1)">
       <use xlink:href="#DejaVuSans-30"/>
       <use xlink:href="#DejaVuSans-2e" x="63.623047"/>
       <use xlink:href="#DejaVuSans-30" x="95.410156"/>
       <use xlink:href="#DejaVuSans-32" x="159.033203"/>
      </g>
     </g>
    </g>
    <g id="ytick_5">
     <g id="line2d_19">
      <path d="M 58.523438 67.685455 
L 600.343438 67.685455 
" clip-path="url(#p0bffa7f72c)" style="fill: none; stroke: #e9ecef; stroke-width: 0.7; stroke-linecap: square"/>
     </g>
     <g id="line2d_20">
      <g>
       <use xlink:href="#m82f967271a" x="58.523438" y="67.685455" style="fill: #6c757d; stroke: #6c757d; stroke-width: 0.8"/>
      </g>
     </g>
     <g id="text_10">
      <!-- 0.04 -->
      <g style="fill: #2563eb" transform="translate(29.257813 71.484673) scale(0.1 -0.1)">
       <use xlink:href="#DejaVuSans-30"/>
       <use xlink:href="#DejaVuSans-2e" x="63.623047"/>
       <use xlink:href="#DejaVuSans-30" x="95.410156"/>
       <use xlink:href="#DejaVuSans-34" x="159.033203"/>
      </g>
     </g>
    </g>
    <g id="text_11">
     <!-- dual multiplier -->
     <g style="fill: #2563eb" transform="translate(14.798438 158.346875) rotate(-90) scale(0.1 -0.1)">
      <defs>
       <path id="DejaVuSans-64" d="M 2906 2969 
L 2906 4863 
L 3481 4863 
L 3481 0 
L 2906 0 
L 2906 525 
Q 2725 213 2448 61 
Q 2172 -91 1784 -91 
Q 1150 -91 751 415 
Q 353 922 353 1747 
Q 353 2572 751 3078 
Q 1150 3584 1784 3584 
Q 2172 3584 2448 3432 
Q 2725 3281 2906 2969 
z
M 947 1747 
Q 947 1113 1208 752 
Q 1469 391 1925 391 
Q 2381 391 2643 752 
Q 2906 1113 2906 1747 
Q 2906 2381 2643 2742 
Q 2381 3103 1925 3103 
Q 1469 3103 1208 2742 
Q 947 2381 947 1747 
z
" transform="scale(0.015625)"/>
       <path id="DejaVuSans-75" d="M 544 1381 
L 544 3500 
L 1119 3500 
L 1119 1403 
Q 1119 906 1312 657 
Q 1506 409 1894 409 
Q 2359 409 2629 706 
Q 2900 1003 2900 1516 
L 2900 3500 
L 3475 3500 
L 3475 0 
L 2900 0 
L 2900 538 
Q 2691 219 2414 64 
Q 2138 -91 1772 -91 
Q 1169 -91 856 284 
Q 544 659 544 1381 
z
M 1991 3584 
L 1991 3584 
z
" transform="scale(0.015625)"/>
       <path id="DejaVuSans-61" d="M 2194 1759 
Q 1497 1759 1228 1600 
Q 959 1441 959 1056 
Q 959 750 1161 570 
Q 1363 391 1709 391 
Q 2188 391 2477 730 
Q 2766 1069 2766 1631 
L 2766 1759 
L 2194 1759 
z
M 3341 1997 
L 3341 0 
L 2766 0 
L 2766 531 
Q 2569 213 2275 61 
Q 1981 -91 1556 -91 
Q 1019 -91 701 211 
Q 384 513 384 1019 
Q 384 1609 779 1909 
Q 1175 2209 1959 2209 
L 2766 2209 
L 2766 2266 
Q 2766 2663 2505 2880 
Q 2244 3097 1772 3097 
Q 1472 3097 1187 3025 
Q 903 2953 641 2809 
L 641 3341 
Q 956 3463 1253 3523 
Q 1550 3584 1831 3584 
Q 2591 3584 2966 3190 
Q 3341 2797 3341 1997 
z
" transform="scale(0.015625)"/>
       <path id="DejaVuSans-6c" d="M 603 4863 
L 1178 4863 
L 1178 0 
L 603 0 
L 603 4863 
z
" transform="scale(0.015625)"/>
       <path id="DejaVuSans-20" transform="scale(0.015625)"/>
       <path id="DejaVuSans-6d" d="M 3328 2828 
Q 3544 3216 3844 3400 
Q 4144 3584 4550 3584 
Q 5097 3584 5394 3201 
Q 5691 2819 5691 2113 
L 5691 0 
L 5113 0 
L 5113 2094 
Q 5113 2597 4934 2840 
Q 4756 3084 4391 3084 
Q 3944 3084 3684 2787 
Q 3425 2491 3425 1978 
L 3425 0 
L 2847 0 
L 2847 2094 
Q 2847 2600 2669 2842 
Q 2491 3084 2119 3084 
Q 1678 3084 1418 2786 
Q 1159 2488 1159 1978 
L 1159 0 
L 581 0 
L 581 3500 
L 1159 3500 
L 1159 2956 
Q 1356 3278 1631 3431 
Q 1906 3584 2284 3584 
Q 2666 3584 2933 3390 
Q 3200 3197 3328 2828 
z
" transform="scale(0.015625)"/>
       <path id="DejaVuSans-74" d="M 1172 4494 
L 1172 3500 
L 2356 3500 
L 2356 3053 
L 1172 3053 
L 1172 1153 
Q 1172 725 1289 603 
Q 1406 481 1766 481 
L 2356 481 
L 2356 0 
L 1766 0 
Q 1100 0 847 248 
Q 594 497 594 1153 
L 594 3053 
L 172 3053 
L 172 3500 
L 594 3500 
L 594 4494 
L 1172 4494 
z
" transform="scale(0.015625)"/>
       <path id="DejaVuSans-69" d="M 603 3500 
L 1178 3500 
L 1178 0 
L 603 0 
L 603 3500 
z
M 603 4863 
L 1178 4863 
L 1178 4134 
L 603 4134 
L 603 4863 
z
" transform="scale(0.015625)"/>
       <path id="DejaVuSans-70" d="M 1159 525 
L 1159 -1331 
L 581 -1331 
L 581 3500 
L 1159 3500 
L 1159 2969 
Q 1341 3281 1617 3432 
Q 1894 3584 2278 3584 
Q 2916 3584 3314 3078 
Q 3713 2572 3713 1747 
Q 3713 922 3314 415 
Q 2916 -91 2278 -91 
Q 1894 -91 1617 61 
Q 1341 213 1159 525 
z
M 3116 1747 
Q 3116 2381 2855 2742 
Q 2594 3103 2138 3103 
Q 1681 3103 1420 2742 
Q 1159 2381 1159 1747 
Q 1159 1113 1420 752 
Q 1681 391 2138 391 
Q 2594 391 2855 752 
Q 3116 1113 3116 1747 
z
" transform="scale(0.015625)"/>
       <path id="DejaVuSans-65" d="M 3597 1894 
L 3597 1613 
L 953 1613 
Q 991 1019 1311 708 
Q 1631 397 2203 397 
Q 2534 397 2845 478 
Q 3156 559 3463 722 
L 3463 178 
Q 3153 47 2828 -22 
Q 2503 -91 2169 -91 
Q 1331 -91 842 396 
Q 353 884 353 1716 
Q 353 2575 817 3079 
Q 1281 3584 2069 3584 
Q 2775 3584 3186 3129 
Q 3597 2675 3597 1894 
z
M 3022 2063 
Q 3016 2534 2758 2815 
Q 2500 3097 2075 3097 
Q 1594 3097 1305 2825 
Q 1016 2553 972 2059 
L 3022 2063 
z
" transform="scale(0.015625)"/>
       <path id="DejaVuSans-72" d="M 2631 2963 
Q 2534 3019 2420 3045 
Q 2306 3072 2169 3072 
Q 1681 3072 1420 2755 
Q 1159 2438 1159 1844 
L 1159 0 
L 581 0 
L 581 3500 
L 1159 3500 
L 1159 2956 
Q 1341 3275 1631 3429 
Q 1922 3584 2338 3584 
Q 2397 3584 2469 3576 
Q 2541 3569 2628 3553 
L 2631 2963 
z
" transform="scale(0.015625)"/>
      </defs>
      <use xlink:href="#DejaVuSans-64"/>
      <use xlink:href="#DejaVuSans-75" x="63.476562"/>
      <use xlink:href="#DejaVuSans-61" x="126.855469"/>
      <use xlink:href="#DejaVuSans-6c" x="188.134766"/>
      <use xlink:href="#DejaVuSans-20" x="215.917969"/>
      <use xlink:href="#DejaVuSans-6d" x="247.705078"/>
      <use xlink:href="#DejaVuSans-75" x="345.117188"/>
      <use xlink:href="#DejaVuSans-6c" x="408.496094"/>
      <use xlink:href="#DejaVuSans-74" x="436.279297"/>
      <use xlink:href="#DejaVuSans-69" x="475.488281"/>
      <use xlink:href="#DejaVuSans-70" x="503.271484"/>
      <use xlink:href="#DejaVuSans-6c" x="566.748047"/>
      <use xlink:href="#DejaVuSans-69" x="594.53125"/>
      <use xlink:href="#DejaVuSans-65" x="622.314453"/>
      <use xlink:href="#DejaVuSans-72" x="683.837891"/>
     </g>
    </g>
   </g>
   <g id="line2d_21">
    <path d="M 83.151619 122.1 
L 575.715256 122.1 
L 575.715256 122.1 
" clip-path="url(#p0bffa7f72c)" style="fill: none; stroke: #2563eb; stroke-width: 2; stroke-linecap: square"/>
   </g>
   <g id="patch_3">
    <path d="M 58.523438 196.92 
L 58.523438 47.28 
" style="fill: none; stroke: #495057; stroke-width: 0.8; stroke-linejoin: miter; stroke-linecap: square"/>
   </g>
   <g id="patch_4">
    <path d="M 58.523438 196.92 
L 600.343438 196.92 
" style="fill: none; stroke: #495057; stroke-width: 0.8; stroke-linejoin: miter; stroke-linecap: square"/>
   </g>
   <g id="text_12">
    <!-- Local phase: max multiplier $\lambda$ and total squared shortfall $F_L$ -->
    <g style="fill: #212529" transform="translate(145.788438 41.28) scale(0.11 -0.11)">
     <defs>
      <path id="DejaVuSans-Bold-4c" d="M 588 4666 
L 1791 4666 
L 1791 909 
L 3903 909 
L 3903 0 
L 588 0 
L 588 4666 
z
" transform="scale(0.015625)"/>
      <path id="DejaVuSans-Bold-6f" d="M 2203 2784 
Q 1831 2784 1636 2517 
Q 1441 2250 1441 1747 
Q 1441 1244 1636 976 
Q 1831 709 2203 709 
Q 2569 709 2762 976 
Q 2956 1244 2956 1747 
Q 2956 2250 2762 2517 
Q 2569 2784 2203 2784 
z
M 2203 3584 
Q 3106 3584 3614 3096 
Q 4122 2609 4122 1747 
Q 4122 884 3614 396 
Q 3106 -91 2203 -91 
Q 1297 -91 786 396 
Q 275 884 275 1747 
Q 275 2609 786 3096 
Q 1297 3584 2203 3584 
z
" transform="scale(0.015625)"/>
      <path id="DejaVuSans-Bold-63" d="M 3366 3391 
L 3366 2478 
Q 3138 2634 2908 2709 
Q 2678 2784 2431 2784 
Q 1963 2784 1702 2511 
Q 1441 2238 1441 1747 
Q 1441 1256 1702 982 
Q 1963 709 2431 709 
Q 2694 709 2930 787 
Q 3166 866 3366 1019 
L 3366 103 
Q 3103 6 2833 -42 
Q 2563 -91 2291 -91 
Q 1344 -91 809 395 
Q 275 881 275 1747 
Q 275 2613 809 3098 
Q 1344 3584 2291 3584 
Q 2566 3584 2833 3536 
Q 3100 3488 3366 3391 
z
" transform="scale(0.015625)"/>
      <path id="DejaVuSans-Bold-61" d="M 2106 1575 
Q 1756 1575 1579 1456 
Q 1403 1338 1403 1106 
Q 1403 894 1545 773 
Q 1688 653 1941 653 
Q 2256 653 2472 879 
Q 2688 1106 2688 1447 
L 2688 1575 
L 2106 1575 
z
M 3816 1997 
L 3816 0 
L 2688 0 
L 2688 519 
Q 2463 200 2181 54 
Q 1900 -91 1497 -91 
Q 953 -91 614 226 
Q 275 544 275 1050 
Q 275 1666 698 1953 
Q 1122 2241 2028 2241 
L 2688 2241 
L 2688 2328 
Q 2688 2594 2478 2717 
Q 2269 2841 1825 2841 
Q 1466 2841 1156 2769 
Q 847 2697 581 2553 
L 581 3406 
Q 941 3494 1303 3539 
Q 1666 3584 2028 3584 
Q 2975 3584 3395 3211 
Q 3816 2838 3816 1997 
z
" transform="scale(0.015625)"/>
      <path id="DejaVuSans-Bold-6c" d="M 538 4863 
L 1656 4863 
L 1656 0 
L 538 0 
L 538 4863 
z
" transform="scale(0.015625)"/>
      <path id="DejaVuSans-Bold-20" transform="scale(0.015625)"/>
      <path id="DejaVuSans-Bold-70" d="M 1656 506 
L 1656 -1331 
L 538 -1331 
L 538 3500 
L 1656 3500 
L 1656 2988 
Q 1888 3294 2169 3439 
Q 2450 3584 2816 3584 
Q 3463 3584 3878 3070 
Q 4294 2556 4294 1747 
Q 4294 938 3878 423 
Q 3463 -91 2816 -91 
Q 2450 -91 2169 54 
Q 1888 200 1656 506 
z
M 2400 2772 
Q 2041 2772 1848 2508 
Q 1656 2244 1656 1747 
Q 1656 1250 1848 986 
Q 2041 722 2400 722 
Q 2759 722 2948 984 
Q 3138 1247 3138 1747 
Q 3138 2247 2948 2509 
Q 2759 2772 2400 2772 
z
" transform="scale(0.015625)"/>
      <path id="DejaVuSans-Bold-68" d="M 4056 2131 
L 4056 0 
L 2931 0 
L 2931 347 
L 2931 1625 
Q 2931 2084 2911 2256 
Q 2891 2428 2841 2509 
Q 2775 2619 2662 2680 
Q 2550 2741 2406 2741 
Q 2056 2741 1856 2470 
Q 1656 2200 1656 1722 
L 1656 0 
L 538 0 
L 538 4863 
L 1656 4863 
L 1656 2988 
Q 1909 3294 2193 3439 
Q 2478 3584 2822 3584 
Q 3428 3584 3742 3212 
Q 4056 2841 4056 2131 
z
" transform="scale(0.015625)"/>
      <path id="DejaVuSans-Bold-73" d="M 3272 3391 
L 3272 2541 
Q 2913 2691 2578 2766 
Q 2244 2841 1947 2841 
Q 1628 2841 1473 2761 
Q 1319 2681 1319 2516 
Q 1319 2381 1436 2309 
Q 1553 2238 1856 2203 
L 2053 2175 
Q 2913 2066 3209 1816 
Q 3506 1566 3506 1031 
Q 3506 472 3093 190 
Q 2681 -91 1863 -91 
Q 1516 -91 1145 -36 
Q 775 19 384 128 
L 384 978 
Q 719 816 1070 734 
Q 1422 653 1784 653 
Q 2113 653 2278 743 
Q 2444 834 2444 1013 
Q 2444 1163 2330 1236 
Q 2216 1309 1875 1350 
L 1678 1375 
Q 931 1469 631 1722 
Q 331 1975 331 2491 
Q 331 3047 712 3315 
Q 1094 3584 1881 3584 
Q 2191 3584 2531 3537 
Q 2872 3491 3272 3391 
z
" transform="scale(0.015625)"/>
      <path id="DejaVuSans-Bold-65" d="M 4031 1759 
L 4031 1441 
L 1416 1441 
Q 1456 1047 1700 850 
Q 1944 653 2381 653 
Q 2734 653 3104 758 
Q 3475 863 3866 1075 
L 3866 213 
Q 3469 63 3072 -14 
Q 2675 -91 2278 -91 
Q 1328 -91 801 392 
Q 275 875 275 1747 
Q 275 2603 792 3093 
Q 1309 3584 2216 3584 
Q 3041 3584 3536 3087 
Q 4031 2591 4031 1759 
z
M 2881 2131 
Q 2881 2450 2695 2645 
Q 2509 2841 2209 2841 
Q 1884 2841 1681 2658 
Q 1478 2475 1428 2131 
L 2881 2131 
z
" transform="scale(0.015625)"/>
      <path id="DejaVuSans-Bold-3a" d="M 716 3500 
L 1844 3500 
L 1844 2291 
L 716 2291 
L 716 3500 
z
M 716 1209 
L 1844 1209 
L 1844 0 
L 716 0 
L 716 1209 
z
" transform="scale(0.015625)"/>
      <path id="DejaVuSans-Bold-6d" d="M 3781 2919 
Q 3994 3244 4286 3414 
Q 4578 3584 4928 3584 
Q 5531 3584 5847 3212 
Q 6163 2841 6163 2131 
L 6163 0 
L 5038 0 
L 5038 1825 
Q 5041 1866 5042 1909 
Q 5044 1953 5044 2034 
Q 5044 2406 4934 2573 
Q 4825 2741 4581 2741 
Q 4263 2741 4089 2478 
Q 3916 2216 3909 1719 
L 3909 0 
L 2784 0 
L 2784 1825 
Q 2784 2406 2684 2573 
Q 2584 2741 2328 2741 
Q 2006 2741 1831 2477 
Q 1656 2213 1656 1722 
L 1656 0 
L 531 0 
L 531 3500 
L 1656 3500 
L 1656 2988 
Q 1863 3284 2130 3434 
Q 2397 3584 2719 3584 
Q 3081 3584 3359 3409 
Q 3638 3234 3781 2919 
z
" transform="scale(0.015625)"/>
      <path id="DejaVuSans-Bold-78" d="M 1422 1791 
L 159 3500 
L 1344 3500 
L 2059 2463 
L 2784 3500 
L 3969 3500 
L 2706 1797 
L 4031 0 
L 2847 0 
L 2059 1106 
L 1281 0 
L 97 0 
L 1422 1791 
z
" transform="scale(0.015625)"/>
      <path id="DejaVuSans-Bold-75" d="M 500 1363 
L 500 3500 
L 1625 3500 
L 1625 3150 
Q 1625 2866 1622 2436 
Q 1619 2006 1619 1863 
Q 1619 1441 1641 1255 
Q 1663 1069 1716 984 
Q 1784 875 1895 815 
Q 2006 756 2150 756 
Q 2500 756 2700 1025 
Q 2900 1294 2900 1772 
L 2900 3500 
L 4019 3500 
L 4019 0 
L 2900 0 
L 2900 506 
Q 2647 200 2364 54 
Q 2081 -91 1741 -91 
Q 1134 -91 817 281 
Q 500 653 500 1363 
z
" transform="scale(0.015625)"/>
      <path id="DejaVuSans-Bold-74" d="M 1759 4494 
L 1759 3500 
L 2913 3500 
L 2913 2700 
L 1759 2700 
L 1759 1216 
Q 1759 972 1856 886 
Q 1953 800 2241 800 
L 2816 800 
L 2816 0 
L 1856 0 
Q 1194 0 917 276 
Q 641 553 641 1216 
L 641 2700 
L 84 2700 
L 84 3500 
L 641 3500 
L 641 4494 
L 1759 4494 
z
" transform="scale(0.015625)"/>
      <path id="DejaVuSans-Bold-69" d="M 538 3500 
L 1656 3500 
L 1656 0 
L 538 0 
L 538 3500 
z
M 538 4863 
L 1656 4863 
L 1656 3950 
L 538 3950 
L 538 4863 
z
" transform="scale(0.015625)"/>
      <path id="DejaVuSans-Bold-72" d="M 3138 2547 
Q 2991 2616 2845 2648 
Q 2700 2681 2553 2681 
Q 2122 2681 1889 2404 
Q 1656 2128 1656 1613 
L 1656 0 
L 538 0 
L 538 3500 
L 1656 3500 
L 1656 2925 
Q 1872 3269 2151 3426 
Q 2431 3584 2822 3584 
Q 2878 3584 2943 3579 
Q 3009 3575 3134 3559 
L 3138 2547 
z
" transform="scale(0.015625)"/>
      <path id="DejaVuSans-Oblique-3bb" d="M 2350 4316 
L 3125 0 
L 2516 0 
L 2038 2588 
L 328 0 
L -281 0 
L 1903 3356 
L 1794 3975 
Q 1725 4369 1391 4369 
L 1091 4369 
L 1184 4863 
L 1550 4856 
Q 2253 4847 2350 4316 
z
" transform="scale(0.015625)"/>
      <path id="DejaVuSans-Bold-6e" d="M 4056 2131 
L 4056 0 
L 2931 0 
L 2931 347 
L 2931 1631 
Q 2931 2084 2911 2256 
Q 2891 2428 2841 2509 
Q 2775 2619 2662 2680 
Q 2550 2741 2406 2741 
Q 2056 2741 1856 2470 
Q 1656 2200 1656 1722 
L 1656 0 
L 538 0 
L 538 3500 
L 1656 3500 
L 1656 2988 
Q 1909 3294 2193 3439 
Q 2478 3584 2822 3584 
Q 3428 3584 3742 3212 
Q 4056 2841 4056 2131 
z
" transform="scale(0.015625)"/>
      <path id="DejaVuSans-Bold-64" d="M 2919 2988 
L 2919 4863 
L 4044 4863 
L 4044 0 
L 2919 0 
L 2919 506 
Q 2688 197 2409 53 
Q 2131 -91 1766 -91 
Q 1119 -91 703 423 
Q 288 938 288 1747 
Q 288 2556 703 3070 
Q 1119 3584 1766 3584 
Q 2128 3584 2408 3439 
Q 2688 3294 2919 2988 
z
M 2181 722 
Q 2541 722 2730 984 
Q 2919 1247 2919 1747 
Q 2919 2247 2730 2509 
Q 2541 2772 2181 2772 
Q 1825 2772 1636 2509 
Q 1447 2247 1447 1747 
Q 1447 1247 1636 984 
Q 1825 722 2181 722 
z
" transform="scale(0.015625)"/>
      <path id="DejaVuSans-Bold-71" d="M 2181 2772 
Q 1825 2772 1636 2509 
Q 1447 2247 1447 1747 
Q 1447 1247 1636 984 
Q 1825 722 2181 722 
Q 2541 722 2730 984 
Q 2919 1247 2919 1747 
Q 2919 2247 2730 2509 
Q 2541 2772 2181 2772 
z
M 2919 506 
Q 2688 197 2409 53 
Q 2131 -91 1766 -91 
Q 1119 -91 703 423 
Q 288 938 288 1747 
Q 288 2556 703 3067 
Q 1119 3578 1766 3578 
Q 2131 3578 2409 3434 
Q 2688 3291 2919 2981 
L 2919 3500 
L 4044 3500 
L 4044 -1331 
L 2919 -1331 
L 2919 506 
z
" transform="scale(0.015625)"/>
      <path id="DejaVuSans-Bold-66" d="M 2841 4863 
L 2841 4128 
L 2222 4128 
Q 1984 4128 1890 4042 
Q 1797 3956 1797 3744 
L 1797 3500 
L 2753 3500 
L 2753 2700 
L 1797 2700 
L 1797 0 
L 678 0 
L 678 2700 
L 122 2700 
L 122 3500 
L 678 3500 
L 678 3744 
Q 678 4316 997 4589 
Q 1316 4863 1984 4863 
L 2841 4863 
z
" transform="scale(0.015625)"/>
      <path id="DejaVuSans-Oblique-46" d="M 1081 4666 
L 3756 4666 
L 3653 4134 
L 1606 4134 
L 1338 2759 
L 3188 2759 
L 3084 2228 
L 1234 2228 
L 800 0 
L 172 0 
L 1081 4666 
z
" transform="scale(0.015625)"/>
      <path id="DejaVuSans-Oblique-4c" d="M 1075 4666 
L 1709 4666 
L 909 525 
L 3181 525 
L 3078 0 
L 172 0 
L 1075 4666 
z
" transform="scale(0.015625)"/>
     </defs>
     <use xlink:href="#DejaVuSans-Bold-4c" transform="translate(0 0.015625)"/>
     <use xlink:href="#DejaVuSans-Bold-6f" transform="translate(63.720703 0.015625)"/>
     <use xlink:href="#DejaVuSans-Bold-63" transform="translate(132.421875 0.015625)"/>
     <use xlink:href="#DejaVuSans-Bold-61" transform="translate(191.699219 0.015625)"/>
     <use xlink:href="#DejaVuSans-Bold-6c" transform="translate(259.179688 0.015625)"/>
     <use xlink:href="#DejaVuSans-Bold-20" transform="translate(293.457031 0.015625)"/>
     <use xlink:href="#DejaVuSans-Bold-70" transform="translate(328.271484 0.015625)"/>
     <use xlink:href="#DejaVuSans-Bold-68" transform="translate(399.853516 0.015625)"/>
     <use xlink:href="#DejaVuSans-Bold-61" transform="translate(471.044922 0.015625)"/>
     <use xlink:href="#DejaVuSans-Bold-73" transform="translate(538.525391 0.015625)"/>
     <use xlink:href="#DejaVuSans-Bold-65" transform="translate(598.046875 0.015625)"/>
     <use xlink:href="#DejaVuSans-Bold-3a" transform="translate(665.869141 0.015625)"/>
     <use xlink:href="#DejaVuSans-Bold-20" transform="translate(705.859375 0.015625)"/>
     <use xlink:href="#DejaVuSans-Bold-6d" transform="translate(740.673828 0.015625)"/>
     <use xlink:href="#DejaVuSans-Bold-61" transform="translate(844.873047 0.015625)"/>
     <use xlink:href="#DejaVuSans-Bold-78" transform="translate(912.353516 0.015625)"/>
     <use xlink:href="#DejaVuSans-Bold-20" transform="translate(976.855469 0.015625)"/>
     <use xlink:href="#DejaVuSans-Bold-6d" transform="translate(1011.669922 0.015625)"/>
     <use xlink:href="#DejaVuSans-Bold-75" transform="translate(1115.869141 0.015625)"/>
     <use xlink:href="#DejaVuSans-Bold-6c" transform="translate(1187.060547 0.015625)"/>
     <use xlink:href="#DejaVuSans-Bold-74" transform="translate(1221.337891 0.015625)"/>
     <use xlink:href="#DejaVuSans-Bold-69" transform="translate(1269.140625 0.015625)"/>
     <use xlink:href="#DejaVuSans-Bold-70" transform="translate(1303.417969 0.015625)"/>
     <use xlink:href="#DejaVuSans-Bold-6c" transform="translate(1375 0.015625)"/>
     <use xlink:href="#DejaVuSans-Bold-69" transform="translate(1409.277344 0.015625)"/>
     <use xlink:href="#DejaVuSans-Bold-65" transform="translate(1443.554688 0.015625)"/>
     <use xlink:href="#DejaVuSans-Bold-72" transform="translate(1511.376953 0.015625)"/>
     <use xlink:href="#DejaVuSans-Bold-20" transform="translate(1560.693359 0.015625)"/>
     <use xlink:href="#DejaVuSans-Oblique-3bb" transform="translate(1595.507812 0.015625)"/>
     <use xlink:href="#DejaVuSans-Bold-20" transform="translate(1654.6875 0.015625)"/>
     <use xlink:href="#DejaVuSans-Bold-61" transform="translate(1689.501953 0.015625)"/>
     <use xlink:href="#DejaVuSans-Bold-6e" transform="translate(1756.982422 0.015625)"/>
     <use xlink:href="#DejaVuSans-Bold-64" transform="translate(1828.173828 0.015625)"/>
     <use xlink:href="#DejaVuSans-Bold-20" transform="translate(1899.755859 0.015625)"/>
     <use xlink:href="#DejaVuSans-Bold-74" transform="translate(1934.570312 0.015625)"/>
     <use xlink:href="#DejaVuSans-Bold-6f" transform="translate(1982.373047 0.015625)"/>
     <use xlink:href="#DejaVuSans-Bold-74" transform="translate(2051.074219 0.015625)"/>
     <use xlink:href="#DejaVuSans-Bold-61" transform="translate(2098.876953 0.015625)"/>
     <use xlink:href="#DejaVuSans-Bold-6c" transform="translate(2166.357422 0.015625)"/>
     <use xlink:href="#DejaVuSans-Bold-20" transform="translate(2200.634766 0.015625)"/>
     <use xlink:href="#DejaVuSans-Bold-73" transform="translate(2235.449219 0.015625)"/>
     <use xlink:href="#DejaVuSans-Bold-71" transform="translate(2294.970703 0.015625)"/>
     <use xlink:href="#DejaVuSans-Bold-75" transform="translate(2366.552734 0.015625)"/>
     <use xlink:href="#DejaVuSans-Bold-61" transform="translate(2437.744141 0.015625)"/>
     <use xlink:href="#DejaVuSans-Bold-72" transform="translate(2505.224609 0.015625)"/>
     <use xlink:href="#DejaVuSans-Bold-65" transform="translate(2554.541016 0.015625)"/>
     <use xlink:href="#DejaVuSans-Bold-64" transform="translate(2622.363281 0.015625)"/>
     <use xlink:href="#DejaVuSans-Bold-20" transform="translate(2693.945312 0.015625)"/>
     <use xlink:href="#DejaVuSans-Bold-73" transform="translate(2728.759766 0.015625)"/>
     <use xlink:href="#DejaVuSans-Bold-68" transform="translate(2788.28125 0.015625)"/>
     <use xlink:href="#DejaVuSans-Bold-6f" transform="translate(2859.472656 0.015625)"/>
     <use xlink:href="#DejaVuSans-Bold-72" transform="translate(2928.173828 0.015625)"/>
     <use xlink:href="#DejaVuSans-Bold-74" transform="translate(2977.490234 0.015625)"/>
     <use xlink:href="#DejaVuSans-Bold-66" transform="translate(3025.292969 0.015625)"/>
     <use xlink:href="#DejaVuSans-Bold-61" transform="translate(3068.798828 0.015625)"/>
     <use xlink:href="#DejaVuSans-Bold-6c" transform="translate(3136.279297 0.015625)"/>
     <use xlink:href="#DejaVuSans-Bold-6c" transform="translate(3170.556641 0.015625)"/>
     <use xlink:href="#DejaVuSans-Bold-20" transform="translate(3204.833984 0.015625)"/>
     <use xlink:href="#DejaVuSans-Oblique-46" transform="translate(3239.648438 0.015625)"/>
     <use xlink:href="#DejaVuSans-Oblique-4c" transform="translate(3297.167969 -16.390625) scale(0.7)"/>
    </g>
   </g>
   <g id="legend_1">
    <g id="line2d_22">
     <path d="M 497.145781 59.068594 
L 506.145781 59.068594 
L 515.145781 59.068594 
" style="fill: none; stroke: #2563eb; stroke-width: 2; stroke-linecap: square"/>
    </g>
    <g id="text_13">
     <!-- $\lambda$ (dual) -->
     <g style="fill: #212529" transform="translate(522.345781 62.218594) scale(0.09 -0.09)">
      <defs>
       <path id="DejaVuSans-28" d="M 1984 4856 
Q 1566 4138 1362 3434 
Q 1159 2731 1159 2009 
Q 1159 1288 1364 580 
Q 1569 -128 1984 -844 
L 1484 -844 
Q 1016 -109 783 600 
Q 550 1309 550 2009 
Q 550 2706 781 3412 
Q 1013 4119 1484 4856 
L 1984 4856 
z
" transform="scale(0.015625)"/>
       <path id="DejaVuSans-29" d="M 513 4856 
L 1013 4856 
Q 1481 4119 1714 3412 
Q 1947 2706 1947 2009 
Q 1947 1309 1714 600 
Q 1481 -109 1013 -844 
L 513 -844 
Q 928 -128 1133 580 
Q 1338 1288 1338 2009 
Q 1338 2731 1133 3434 
Q 928 4138 513 4856 
z
" transform="scale(0.015625)"/>
      </defs>
      <use xlink:href="#DejaVuSans-Oblique-3bb" transform="translate(0 0.015625)"/>
      <use xlink:href="#DejaVuSans-20" transform="translate(59.179688 0.015625)"/>
      <use xlink:href="#DejaVuSans-28" transform="translate(90.966797 0.015625)"/>
      <use xlink:href="#DejaVuSans-64" transform="translate(129.980469 0.015625)"/>
      <use xlink:href="#DejaVuSans-75" transform="translate(193.457031 0.015625)"/>
      <use xlink:href="#DejaVuSans-61" transform="translate(256.835938 0.015625)"/>
      <use xlink:href="#DejaVuSans-6c" transform="translate(318.115234 0.015625)"/>
      <use xlink:href="#DejaVuSans-29" transform="translate(345.898438 0.015625)"/>
     </g>
    </g>
    <g id="line2d_23">
     <path d="M 497.145781 72.278906 
L 506.145781 72.278906 
L 515.145781 72.278906 
" style="fill: none; stroke: #d97706; stroke-width: 1.5; stroke-linecap: square"/>
    </g>
    <g id="text_14">
     <!-- F_L (constraint) -->
     <g style="fill: #212529" transform="translate(522.345781 75.428906) scale(0.09 -0.09)">
      <defs>
       <path id="DejaVuSans-46" d="M 628 4666 
L 3309 4666 
L 3309 4134 
L 1259 4134 
L 1259 2759 
L 3109 2759 
L 3109 2228 
L 1259 2228 
L 1259 0 
L 628 0 
L 628 4666 
z
" transform="scale(0.015625)"/>
       <path id="DejaVuSans-5f" d="M 3263 -1063 
L 3263 -1509 
L -63 -1509 
L -63 -1063 
L 3263 -1063 
z
" transform="scale(0.015625)"/>
       <path id="DejaVuSans-4c" d="M 628 4666 
L 1259 4666 
L 1259 531 
L 3531 531 
L 3531 0 
L 628 0 
L 628 4666 
z
" transform="scale(0.015625)"/>
       <path id="DejaVuSans-63" d="M 3122 3366 
L 3122 2828 
Q 2878 2963 2633 3030 
Q 2388 3097 2138 3097 
Q 1578 3097 1268 2742 
Q 959 2388 959 1747 
Q 959 1106 1268 751 
Q 1578 397 2138 397 
Q 2388 397 2633 464 
Q 2878 531 3122 666 
L 3122 134 
Q 2881 22 2623 -34 
Q 2366 -91 2075 -91 
Q 1284 -91 818 406 
Q 353 903 353 1747 
Q 353 2603 823 3093 
Q 1294 3584 2113 3584 
Q 2378 3584 2631 3529 
Q 2884 3475 3122 3366 
z
" transform="scale(0.015625)"/>
       <path id="DejaVuSans-6f" d="M 1959 3097 
Q 1497 3097 1228 2736 
Q 959 2375 959 1747 
Q 959 1119 1226 758 
Q 1494 397 1959 397 
Q 2419 397 2687 759 
Q 2956 1122 2956 1747 
Q 2956 2369 2687 2733 
Q 2419 3097 1959 3097 
z
M 1959 3584 
Q 2709 3584 3137 3096 
Q 3566 2609 3566 1747 
Q 3566 888 3137 398 
Q 2709 -91 1959 -91 
Q 1206 -91 779 398 
Q 353 888 353 1747 
Q 353 2609 779 3096 
Q 1206 3584 1959 3584 
z
" transform="scale(0.015625)"/>
       <path id="DejaVuSans-6e" d="M 3513 2113 
L 3513 0 
L 2938 0 
L 2938 2094 
Q 2938 2591 2744 2837 
Q 2550 3084 2163 3084 
Q 1697 3084 1428 2787 
Q 1159 2491 1159 1978 
L 1159 0 
L 581 0 
L 581 3500 
L 1159 3500 
L 1159 2956 
Q 1366 3272 1645 3428 
Q 1925 3584 2291 3584 
Q 2894 3584 3203 3211 
Q 3513 2838 3513 2113 
z
" transform="scale(0.015625)"/>
       <path id="DejaVuSans-73" d="M 2834 3397 
L 2834 2853 
Q 2591 2978 2328 3040 
Q 2066 3103 1784 3103 
Q 1356 3103 1142 2972 
Q 928 2841 928 2578 
Q 928 2378 1081 2264 
Q 1234 2150 1697 2047 
L 1894 2003 
Q 2506 1872 2764 1633 
Q 3022 1394 3022 966 
Q 3022 478 2636 193 
Q 2250 -91 1575 -91 
Q 1294 -91 989 -36 
Q 684 19 347 128 
L 347 722 
Q 666 556 975 473 
Q 1284 391 1588 391 
Q 1994 391 2212 530 
Q 2431 669 2431 922 
Q 2431 1156 2273 1281 
Q 2116 1406 1581 1522 
L 1381 1569 
Q 847 1681 609 1914 
Q 372 2147 372 2553 
Q 372 3047 722 3315 
Q 1072 3584 1716 3584 
Q 2034 3584 2315 3537 
Q 2597 3491 2834 3397 
z
" transform="scale(0.015625)"/>
      </defs>
      <use xlink:href="#DejaVuSans-46"/>
      <use xlink:href="#DejaVuSans-5f" x="57.519531"/>
      <use xlink:href="#DejaVuSans-4c" x="107.519531"/>
      <use xlink:href="#DejaVuSans-20" x="163.232422"/>
      <use xlink:href="#DejaVuSans-28" x="195.019531"/>
      <use xlink:href="#DejaVuSans-63" x="234.033203"/>
      <use xlink:href="#DejaVuSans-6f" x="289.013672"/>
      <use xlink:href="#DejaVuSans-6e" x="350.195312"/>
      <use xlink:href="#DejaVuSans-73" x="413.574219"/>
      <use xlink:href="#DejaVuSans-74" x="465.673828"/>
      <use xlink:href="#DejaVuSans-72" x="504.882812"/>
      <use xlink:href="#DejaVuSans-61" x="545.996094"/>
      <use xlink:href="#DejaVuSans-69" x="607.275391"/>
      <use xlink:href="#DejaVuSans-6e" x="635.058594"/>
      <use xlink:href="#DejaVuSans-74" x="698.4375"/>
      <use xlink:href="#DejaVuSans-29" x="737.646484"/>
     </g>
    </g>
   </g>
  </g>
  <g id="axes_2">
   <g id="patch_5">
    <path d="M 58.523438 389.56 
L 600.343438 389.56 
L 600.343438 239.92 
L 58.523438 239.92 
z
" style="fill: #ffffff"/>
   </g>
   <g id="matplotlib.axis_3">
    <g id="xtick_6">
     <g id="line2d_24">
      <path d="M 83.151619 389.56 
L 83.151619 239.92 
" clip-path="url(#pb9a976362e)" style="fill: none; stroke: #e9ecef; stroke-width: 0.7; stroke-linecap: square"/>
     </g>
     <g id="line2d_25">
      <g>
       <use xlink:href="#me8670d6cdd" x="83.151619" y="389.56" style="fill: #6c757d; stroke: #6c757d; stroke-width: 0.8"/>
      </g>
     </g>
     <g id="text_15">
      <!-- 0 -->
      <g style="fill: #6c757d" transform="translate(79.970369 404.158438) scale(0.1 -0.1)">
       <use xlink:href="#DejaVuSans-30"/>
      </g>
     </g>
    </g>
    <g id="xtick_7">
     <g id="line2d_26">
      <path d="M 170.331024 389.56 
L 170.331024 239.92 
" clip-path="url(#pb9a976362e)" style="fill: none; stroke: #e9ecef; stroke-width: 0.7; stroke-linecap: square"/>
     </g>
     <g id="line2d_27">
      <g>
       <use xlink:href="#me8670d6cdd" x="170.331024" y="389.56" style="fill: #6c757d; stroke: #6c757d; stroke-width: 0.8"/>
      </g>
     </g>
     <g id="text_16">
      <!-- 20 -->
      <g style="fill: #6c757d" transform="translate(163.968524 404.158438) scale(0.1 -0.1)">
       <use xlink:href="#DejaVuSans-32"/>
       <use xlink:href="#DejaVuSans-30" x="63.623047"/>
      </g>
     </g>
    </g>
    <g id="xtick_8">
     <g id="line2d_28">
      <path d="M 257.510429 389.56 
L 257.510429 239.92 
" clip-path="url(#pb9a976362e)" style="fill: none; stroke: #e9ecef; stroke-width: 0.7; stroke-linecap: square"/>
     </g>
     <g id="line2d_29">
      <g>
       <use xlink:href="#me8670d6cdd" x="257.510429" y="389.56" style="fill: #6c757d; stroke: #6c757d; stroke-width: 0.8"/>
      </g>
     </g>
     <g id="text_17">
      <!-- 40 -->
      <g style="fill: #6c757d" transform="translate(251.147929 404.158438) scale(0.1 -0.1)">
       <use xlink:href="#DejaVuSans-34"/>
       <use xlink:href="#DejaVuSans-30" x="63.623047"/>
      </g>
     </g>
    </g>
    <g id="xtick_9">
     <g id="line2d_30">
      <path d="M 344.689833 389.56 
L 344.689833 239.92 
" clip-path="url(#pb9a976362e)" style="fill: none; stroke: #e9ecef; stroke-width: 0.7; stroke-linecap: square"/>
     </g>
     <g id="line2d_31">
      <g>
       <use xlink:href="#me8670d6cdd" x="344.689833" y="389.56" style="fill: #6c757d; stroke: #6c757d; stroke-width: 0.8"/>
      </g>
     </g>
     <g id="text_18">
      <!-- 60 -->
      <g style="fill: #6c757d" transform="translate(338.327333 404.158438) scale(0.1 -0.1)">
       <defs>
        <path id="DejaVuSans-36" d="M 2113 2584 
Q 1688 2584 1439 2293 
Q 1191 2003 1191 1497 
Q 1191 994 1439 701 
Q 1688 409 2113 409 
Q 2538 409 2786 701 
Q 3034 994 3034 1497 
Q 3034 2003 2786 2293 
Q 2538 2584 2113 2584 
z
M 3366 4563 
L 3366 3988 
Q 3128 4100 2886 4159 
Q 2644 4219 2406 4219 
Q 1781 4219 1451 3797 
Q 1122 3375 1075 2522 
Q 1259 2794 1537 2939 
Q 1816 3084 2150 3084 
Q 2853 3084 3261 2657 
Q 3669 2231 3669 1497 
Q 3669 778 3244 343 
Q 2819 -91 2113 -91 
Q 1303 -91 875 529 
Q 447 1150 447 2328 
Q 447 3434 972 4092 
Q 1497 4750 2381 4750 
Q 2619 4750 2861 4703 
Q 3103 4656 3366 4563 
z
" transform="scale(0.015625)"/>
       </defs>
       <use xlink:href="#DejaVuSans-36"/>
       <use xlink:href="#DejaVuSans-30" x="63.623047"/>
      </g>
     </g>
    </g>
    <g id="xtick_10">
     <g id="line2d_32">
      <path d="M 431.869238 389.56 
L 431.869238 239.92 
" clip-path="url(#pb9a976362e)" style="fill: none; stroke: #e9ecef; stroke-width: 0.7; stroke-linecap: square"/>
     </g>
     <g id="line2d_33">
      <g>
       <use xlink:href="#me8670d6cdd" x="431.869238" y="389.56" style="fill: #6c757d; stroke: #6c757d; stroke-width: 0.8"/>
      </g>
     </g>
     <g id="text_19">
      <!-- 80 -->
      <g style="fill: #6c757d" transform="translate(425.506738 404.158438) scale(0.1 -0.1)">
       <defs>
        <path id="DejaVuSans-38" d="M 2034 2216 
Q 1584 2216 1326 1975 
Q 1069 1734 1069 1313 
Q 1069 891 1326 650 
Q 1584 409 2034 409 
Q 2484 409 2743 651 
Q 3003 894 3003 1313 
Q 3003 1734 2745 1975 
Q 2488 2216 2034 2216 
z
M 1403 2484 
Q 997 2584 770 2862 
Q 544 3141 544 3541 
Q 544 4100 942 4425 
Q 1341 4750 2034 4750 
Q 2731 4750 3128 4425 
Q 3525 4100 3525 3541 
Q 3525 3141 3298 2862 
Q 3072 2584 2669 2484 
Q 3125 2378 3379 2068 
Q 3634 1759 3634 1313 
Q 3634 634 3220 271 
Q 2806 -91 2034 -91 
Q 1263 -91 848 271 
Q 434 634 434 1313 
Q 434 1759 690 2068 
Q 947 2378 1403 2484 
z
M 1172 3481 
Q 1172 3119 1398 2916 
Q 1625 2713 2034 2713 
Q 2441 2713 2670 2916 
Q 2900 3119 2900 3481 
Q 2900 3844 2670 4047 
Q 2441 4250 2034 4250 
Q 1625 4250 1398 4047 
Q 1172 3844 1172 3481 
z
" transform="scale(0.015625)"/>
       </defs>
       <use xlink:href="#DejaVuSans-38"/>
       <use xlink:href="#DejaVuSans-30" x="63.623047"/>
      </g>
     </g>
    </g>
    <g id="xtick_11">
     <g id="line2d_34">
      <path d="M 519.048643 389.56 
L 519.048643 239.92 
" clip-path="url(#pb9a976362e)" style="fill: none; stroke: #e9ecef; stroke-width: 0.7; stroke-linecap: square"/>
     </g>
     <g id="line2d_35">
      <g>
       <use xlink:href="#me8670d6cdd" x="519.048643" y="389.56" style="fill: #6c757d; stroke: #6c757d; stroke-width: 0.8"/>
      </g>
     </g>
     <g id="text_20">
      <!-- 100 -->
      <g style="fill: #6c757d" transform="translate(509.504893 404.158438) scale(0.1 -0.1)">
       <use xlink:href="#DejaVuSans-31"/>
       <use xlink:href="#DejaVuSans-30" x="63.623047"/>
       <use xlink:href="#DejaVuSans-30" x="127.246094"/>
      </g>
     </g>
    </g>
    <g id="text_21">
     <!-- Logged primal steps (phases concatenated in order) -->
     <g style="fill: #212529" transform="translate(198.4225 417.836563) scale(0.1 -0.1)">
      <defs>
       <path id="DejaVuSans-67" d="M 2906 1791 
Q 2906 2416 2648 2759 
Q 2391 3103 1925 3103 
Q 1463 3103 1205 2759 
Q 947 2416 947 1791 
Q 947 1169 1205 825 
Q 1463 481 1925 481 
Q 2391 481 2648 825 
Q 2906 1169 2906 1791 
z
M 3481 434 
Q 3481 -459 3084 -895 
Q 2688 -1331 1869 -1331 
Q 1566 -1331 1297 -1286 
Q 1028 -1241 775 -1147 
L 775 -588 
Q 1028 -725 1275 -790 
Q 1522 -856 1778 -856 
Q 2344 -856 2625 -561 
Q 2906 -266 2906 331 
L 2906 616 
Q 2728 306 2450 153 
Q 2172 0 1784 0 
Q 1141 0 747 490 
Q 353 981 353 1791 
Q 353 2603 747 3093 
Q 1141 3584 1784 3584 
Q 2172 3584 2450 3431 
Q 2728 3278 2906 2969 
L 2906 3500 
L 3481 3500 
L 3481 434 
z
" transform="scale(0.015625)"/>
       <path id="DejaVuSans-68" d="M 3513 2113 
L 3513 0 
L 2938 0 
L 2938 2094 
Q 2938 2591 2744 2837 
Q 2550 3084 2163 3084 
Q 1697 3084 1428 2787 
Q 1159 2491 1159 1978 
L 1159 0 
L 581 0 
L 581 4863 
L 1159 4863 
L 1159 2956 
Q 1366 3272 1645 3428 
Q 1925 3584 2291 3584 
Q 2894 3584 3203 3211 
Q 3513 2838 3513 2113 
z
" transform="scale(0.015625)"/>
      </defs>
      <use xlink:href="#DejaVuSans-4c"/>
      <use xlink:href="#DejaVuSans-6f" x="53.962891"/>
      <use xlink:href="#DejaVuSans-67" x="115.144531"/>
      <use xlink:href="#DejaVuSans-67" x="178.621094"/>
      <use xlink:href="#DejaVuSans-65" x="242.097656"/>
      <use xlink:href="#DejaVuSans-64" x="303.621094"/>
      <use xlink:href="#DejaVuSans-20" x="367.097656"/>
      <use xlink:href="#DejaVuSans-70" x="398.884766"/>
      <use xlink:href="#DejaVuSans-72" x="462.361328"/>
      <use xlink:href="#DejaVuSans-69" x="503.474609"/>
      <use xlink:href="#DejaVuSans-6d" x="531.257812"/>
      <use xlink:href="#DejaVuSans-61" x="628.669922"/>
      <use xlink:href="#DejaVuSans-6c" x="689.949219"/>
      <use xlink:href="#DejaVuSans-20" x="717.732422"/>
      <use xlink:href="#DejaVuSans-73" x="749.519531"/>
      <use xlink:href="#DejaVuSans-74" x="801.619141"/>
      <use xlink:href="#DejaVuSans-65" x="840.828125"/>
      <use xlink:href="#DejaVuSans-70" x="902.351562"/>
      <use xlink:href="#DejaVuSans-73" x="965.828125"/>
      <use xlink:href="#DejaVuSans-20" x="1017.927734"/>
      <use xlink:href="#DejaVuSans-28" x="1049.714844"/>
      <use xlink:href="#DejaVuSans-70" x="1088.728516"/>
      <use xlink:href="#DejaVuSans-68" x="1152.205078"/>
      <use xlink:href="#DejaVuSans-61" x="1215.583984"/>
      <use xlink:href="#DejaVuSans-73" x="1276.863281"/>
      <use xlink:href="#DejaVuSans-65" x="1328.962891"/>
      <use xlink:href="#DejaVuSans-73" x="1390.486328"/>
      <use xlink:href="#DejaVuSans-20" x="1442.585938"/>
      <use xlink:href="#DejaVuSans-63" x="1474.373047"/>
      <use xlink:href="#DejaVuSans-6f" x="1529.353516"/>
      <use xlink:href="#DejaVuSans-6e" x="1590.535156"/>
      <use xlink:href="#DejaVuSans-63" x="1653.914062"/>
      <use xlink:href="#DejaVuSans-61" x="1708.894531"/>
      <use xlink:href="#DejaVuSans-74" x="1770.173828"/>
      <use xlink:href="#DejaVuSans-65" x="1809.382812"/>
      <use xlink:href="#DejaVuSans-6e" x="1870.90625"/>
      <use xlink:href="#DejaVuSans-61" x="1934.285156"/>
      <use xlink:href="#DejaVuSans-74" x="1995.564453"/>
      <use xlink:href="#DejaVuSans-65" x="2034.773438"/>
      <use xlink:href="#DejaVuSans-64" x="2096.296875"/>
      <use xlink:href="#DejaVuSans-20" x="2159.773438"/>
      <use xlink:href="#DejaVuSans-69" x="2191.560547"/>
      <use xlink:href="#DejaVuSans-6e" x="2219.34375"/>
      <use xlink:href="#DejaVuSans-20" x="2282.722656"/>
      <use xlink:href="#DejaVuSans-6f" x="2314.509766"/>
      <use xlink:href="#DejaVuSans-72" x="2375.691406"/>
      <use xlink:href="#DejaVuSans-64" x="2415.054688"/>
      <use xlink:href="#DejaVuSans-65" x="2478.53125"/>
      <use xlink:href="#DejaVuSans-72" x="2540.054688"/>
      <use xlink:href="#DejaVuSans-29" x="2581.167969"/>
     </g>
    </g>
   </g>
   <g id="matplotlib.axis_4">
    <g id="ytick_6">
     <g id="line2d_36">
      <path d="M 58.523438 382.758182 
L 600.343438 382.758182 
" clip-path="url(#pb9a976362e)" style="fill: none; stroke: #e9ecef; stroke-width: 0.7; stroke-linecap: square"/>
     </g>
     <g id="line2d_37">
      <g>
       <use xlink:href="#m82f967271a" x="58.523438" y="382.758182" style="fill: #6c757d; stroke: #6c757d; stroke-width: 0.8"/>
      </g>
     </g>
     <g id="text_22">
      <!-- 0 -->
      <g style="fill: #2563eb" transform="translate(45.160938 386.557401) scale(0.1 -0.1)">
       <use xlink:href="#DejaVuSans-30"/>
      </g>
     </g>
    </g>
    <g id="ytick_7">
     <g id="line2d_38">
      <path d="M 58.523438 355.550909 
L 600.343438 355.550909 
" clip-path="url(#pb9a976362e)" style="fill: none; stroke: #e9ecef; stroke-width: 0.7; stroke-linecap: square"/>
     </g>
     <g id="line2d_39">
      <g>
       <use xlink:href="#m82f967271a" x="58.523438" y="355.550909" style="fill: #6c757d; stroke: #6c757d; stroke-width: 0.8"/>
      </g>
     </g>
     <g id="text_23">
      <!-- 20 -->
      <g style="fill: #2563eb" transform="translate(38.798438 359.350128) scale(0.1 -0.1)">
       <use xlink:href="#DejaVuSans-32"/>
       <use xlink:href="#DejaVuSans-30" x="63.623047"/>
      </g>
     </g>
    </g>
    <g id="ytick_8">
     <g id="line2d_40">
      <path d="M 58.523438 328.343636 
L 600.343438 328.343636 
" clip-path="url(#pb9a976362e)" style="fill: none; stroke: #e9ecef; stroke-width: 0.7; stroke-linecap: square"/>
     </g>
     <g id="line2d_41">
      <g>
       <use xlink:href="#m82f967271a" x="58.523438" y="328.343636" style="fill: #6c757d; stroke: #6c757d; stroke-width: 0.8"/>
      </g>
     </g>
     <g id="text_24">
      <!-- 40 -->
      <g style="fill: #2563eb" transform="translate(38.798438 332.142855) scale(0.1 -0.1)">
       <use xlink:href="#DejaVuSans-34"/>
       <use xlink:href="#DejaVuSans-30" x="63.623047"/>
      </g>
     </g>
    </g>
    <g id="ytick_9">
     <g id="line2d_42">
      <path d="M 58.523438 301.136364 
L 600.343438 301.136364 
" clip-path="url(#pb9a976362e)" style="fill: none; stroke: #e9ecef; stroke-width: 0.7; stroke-linecap: square"/>
     </g>
     <g id="line2d_43">
      <g>
       <use xlink:href="#m82f967271a" x="58.523438" y="301.136364" style="fill: #6c757d; stroke: #6c757d; stroke-width: 0.8"/>
      </g>
     </g>
     <g id="text_25">
      <!-- 60 -->
      <g style="fill: #2563eb" transform="translate(38.798438 304.935582) scale(0.1 -0.1)">
       <use xlink:href="#DejaVuSans-36"/>
       <use xlink:href="#DejaVuSans-30" x="63.623047"/>
      </g>
     </g>
    </g>
    <g id="ytick_10">
     <g id="line2d_44">
      <path d="M 58.523438 273.929091 
L 600.343438 273.929091 
" clip-path="url(#pb9a976362e)" style="fill: none; stroke: #e9ecef; stroke-width: 0.7; stroke-linecap: square"/>
     </g>
     <g id="line2d_45">
      <g>
       <use xlink:href="#m82f967271a" x="58.523438" y="273.929091" style="fill: #6c757d; stroke: #6c757d; stroke-width: 0.8"/>
      </g>
     </g>
     <g id="text_26">
      <!-- 80 -->
      <g style="fill: #2563eb" transform="translate(38.798438 277.72831) scale(0.1 -0.1)">
       <use xlink:href="#DejaVuSans-38"/>
       <use xlink:href="#DejaVuSans-30" x="63.623047"/>
      </g>
     </g>
    </g>
    <g id="ytick_11">
     <g id="line2d_46">
      <path d="M 58.523438 246.721818 
L 600.343438 246.721818 
" clip-path="url(#pb9a976362e)" style="fill: none; stroke: #e9ecef; stroke-width: 0.7; stroke-linecap: square"/>
     </g>
     <g id="line2d_47">
      <g>
       <use xlink:href="#m82f967271a" x="58.523438" y="246.721818" style="fill: #6c757d; stroke: #6c757d; stroke-width: 0.8"/>
      </g>
     </g>
     <g id="text_27">
      <!-- 100 -->
      <g style="fill: #2563eb" transform="translate(32.435938 250.521037) scale(0.1 -0.1)">
       <use xlink:href="#DejaVuSans-31"/>
       <use xlink:href="#DejaVuSans-30" x="63.623047"/>
       <use xlink:href="#DejaVuSans-30" x="127.246094"/>
      </g>
     </g>
    </g>
    <g id="text_28">
     <!-- dual multiplier -->
     <g style="fill: #2563eb" transform="translate(26.35625 350.986875) rotate(-90) scale(0.1 -0.1)">
      <use xlink:href="#DejaVuSans-64"/>
      <use xlink:href="#DejaVuSans-75" x="63.476562"/>
      <use xlink:href="#DejaVuSans-61" x="126.855469"/>
      <use xlink:href="#DejaVuSans-6c" x="188.134766"/>
      <use xlink:href="#DejaVuSans-20" x="215.917969"/>
      <use xlink:href="#DejaVuSans-6d" x="247.705078"/>
      <use xlink:href="#DejaVuSans-75" x="345.117188"/>
      <use xlink:href="#DejaVuSans-6c" x="408.496094"/>
      <use xlink:href="#DejaVuSans-74" x="436.279297"/>
      <use xlink:href="#DejaVuSans-69" x="475.488281"/>
      <use xlink:href="#DejaVuSans-70" x="503.271484"/>
      <use xlink:href="#DejaVuSans-6c" x="566.748047"/>
      <use xlink:href="#DejaVuSans-69" x="594.53125"/>
      <use xlink:href="#DejaVuSans-65" x="622.314453"/>
      <use xlink:href="#DejaVuSans-72" x="683.837891"/>
     </g>
    </g>
   </g>
   <g id="line2d_48">
    <path d="M 83.151619 382.758182 
L 87.51059 382.758182 
L 91.86956 382.758182 
L 96.22853 382.756933 
L 100.5875 382.745397 
L 104.94647 382.758182 
L 109.305441 382.758182 
L 113.664411 382.758182 
L 118.023381 382.758182 
L 122.382351 382.758182 
L 126.741322 382.758182 
L 131.100292 382.758182 
L 135.459262 382.758182 
L 139.818232 382.758182 
L 144.177203 382.758182 
L 148.536173 382.758182 
L 152.895143 382.758182 
L 157.254113 382.758182 
L 161.613084 380.553561 
L 165.972054 375.099479 
L 170.331024 376.643817 
L 174.689994 378.664935 
L 179.048964 376.434098 
L 183.407935 382.758182 
L 187.766905 378.348851 
L 192.125875 256.146412 
L 196.484845 246.721818 
L 200.843816 246.764902 
L 205.202786 246.749146 
L 209.561756 247.757298 
L 213.920726 248.863888 
L 218.279697 255.521405 
L 222.638667 262.161664 
L 226.997637 265.466462 
L 231.356607 269.964812 
L 235.715577 274.37725 
L 240.074548 276.042996 
L 244.433518 280.413281 
L 248.792488 285.405625 
L 253.151458 287.964558 
L 257.510429 289.653949 
L 261.869399 293.910717 
L 266.228369 294.614493 
L 270.587339 280.688534 
L 274.94631 273.151875 
L 279.30528 273.600206 
L 283.66425 273.766168 
L 288.02322 276.651002 
L 292.382191 278.488404 
L 296.741161 276.457513 
L 301.100131 277.168943 
L 305.459101 276.559239 
L 309.818071 252.705362 
L 314.177042 246.721818 
L 318.536012 246.721818 
L 322.894982 246.721818 
L 327.253952 246.77768 
L 331.612923 246.782367 
L 335.971893 246.894174 
L 340.330863 246.785964 
L 344.689833 246.721818 
L 349.048804 252.355607 
L 353.407774 258.905989 
L 357.766744 262.158605 
L 362.125714 268.351769 
L 366.484684 274.436951 
L 370.843655 277.731834 
L 375.202625 284.054397 
L 379.561595 290.262494 
L 383.920565 293.37597 
L 388.279536 287.975591 
L 392.638506 284.076605 
L 396.997476 282.624851 
L 401.356446 255.55274 
L 405.715417 250.127594 
L 410.074387 249.79235 
L 414.433357 246.721818 
L 418.792327 248.132284 
L 423.151298 249.440939 
L 427.510268 246.721818 
L 431.869238 246.721818 
L 436.228208 246.786779 
L 440.587178 252.958047 
L 444.946149 259.2565 
L 449.305119 260.669238 
L 453.664089 246.721818 
L 458.023059 246.721818 
L 462.38203 246.781708 
L 466.741 251.7097 
L 471.09997 256.719491 
L 475.45894 258.72126 
L 479.817911 247.387736 
L 484.176881 246.721818 
L 488.535851 246.723262 
L 492.894821 253.219982 
L 497.253791 259.305827 
L 501.612762 262.376956 
L 505.971732 258.010885 
L 510.330702 256.055147 
L 514.689672 256.644242 
L 519.048643 262.246357 
L 523.407613 266.622849 
L 527.766583 269.159505 
L 532.125553 274.056001 
L 536.484524 280.349287 
L 540.843494 283.524009 
L 545.202464 290.054603 
L 549.561434 296.446572 
L 553.920405 299.379706 
L 558.279375 268.473139 
L 562.638345 260.921893 
L 566.997315 262.036538 
L 571.356285 262.94621 
L 575.715256 265.587598 
" clip-path="url(#pb9a976362e)" style="fill: none; stroke: #2563eb; stroke-width: 2; stroke-linecap: square"/>
   </g>
   <g id="patch_6">
    <path d="M 58.523438 389.56 
L 58.523438 239.92 
" style="fill: none; stroke: #495057; stroke-width: 0.8; stroke-linejoin: miter; stroke-linecap: square"/>
   </g>
   <g id="patch_7">
    <path d="M 58.523438 389.56 
L 600.343438 389.56 
" style="fill: none; stroke: #495057; stroke-width: 0.8; stroke-linejoin: miter; stroke-linecap: square"/>
   </g>
   <g id="text_29">
    <!-- Global phase: multiplier $\mu$ and squared shortfall $F_G$ -->
    <g style="fill: #212529" transform="translate(172.573438 233.92) scale(0.11 -0.11)">
     <defs>
      <path id="DejaVuSans-Bold-47" d="M 4781 347 
Q 4331 128 3847 18 
Q 3363 -91 2847 -91 
Q 1681 -91 1000 561 
Q 319 1213 319 2328 
Q 319 3456 1012 4103 
Q 1706 4750 2913 4750 
Q 3378 4750 3804 4662 
Q 4231 4575 4609 4403 
L 4609 3438 
Q 4219 3659 3833 3768 
Q 3447 3878 3059 3878 
Q 2341 3878 1952 3476 
Q 1563 3075 1563 2328 
Q 1563 1588 1938 1184 
Q 2313 781 3003 781 
Q 3191 781 3352 804 
Q 3513 828 3641 878 
L 3641 1784 
L 2906 1784 
L 2906 2591 
L 4781 2591 
L 4781 347 
z
" transform="scale(0.015625)"/>
      <path id="DejaVuSans-Bold-62" d="M 2400 722 
Q 2759 722 2948 984 
Q 3138 1247 3138 1747 
Q 3138 2247 2948 2509 
Q 2759 2772 2400 2772 
Q 2041 2772 1848 2508 
Q 1656 2244 1656 1747 
Q 1656 1250 1848 986 
Q 2041 722 2400 722 
z
M 1656 2988 
Q 1888 3294 2169 3439 
Q 2450 3584 2816 3584 
Q 3463 3584 3878 3070 
Q 4294 2556 4294 1747 
Q 4294 938 3878 423 
Q 3463 -91 2816 -91 
Q 2450 -91 2169 54 
Q 1888 200 1656 506 
L 1656 0 
L 538 0 
L 538 4863 
L 1656 4863 
L 1656 2988 
z
" transform="scale(0.015625)"/>
      <path id="DejaVuSans-Oblique-3bc" d="M -84 -1331 
L 856 3500 
L 1434 3500 
L 1009 1322 
Q 997 1256 987 1175 
Q 978 1094 978 1013 
Q 978 722 1161 565 
Q 1344 409 1684 409 
Q 2147 409 2431 671 
Q 2716 934 2816 1459 
L 3213 3500 
L 3788 3500 
L 3266 809 
Q 3253 750 3248 706 
Q 3244 663 3244 628 
Q 3244 531 3283 486 
Q 3322 441 3406 441 
Q 3438 441 3492 456 
Q 3547 472 3647 513 
L 3559 50 
Q 3422 -19 3297 -55 
Q 3172 -91 3053 -91 
Q 2847 -91 2730 40 
Q 2613 172 2613 403 
Q 2438 153 2195 31 
Q 1953 -91 1625 -91 
Q 1334 -91 1117 43 
Q 900 178 831 397 
L 494 -1331 
L -84 -1331 
z
" transform="scale(0.015625)"/>
      <path id="DejaVuSans-Oblique-47" d="M 3494 697 
L 3738 1919 
L 2700 1919 
L 2797 2438 
L 4453 2438 
L 4050 384 
Q 3634 156 3143 32 
Q 2653 -91 2156 -91 
Q 1278 -91 783 396 
Q 288 884 288 1753 
Q 288 2475 589 3126 
Q 891 3778 1422 4213 
Q 1756 4484 2153 4617 
Q 2550 4750 3034 4750 
Q 3472 4750 3873 4639 
Q 4275 4528 4641 4306 
L 4513 3634 
Q 4231 3928 3853 4083 
Q 3475 4238 3047 4238 
Q 2550 4238 2172 4048 
Q 1794 3859 1497 3463 
Q 1244 3125 1098 2667 
Q 953 2209 953 1734 
Q 953 1081 1287 751 
Q 1622 422 2284 422 
Q 2616 422 2925 492 
Q 3234 563 3494 697 
z
" transform="scale(0.015625)"/>
     </defs>
     <use xlink:href="#DejaVuSans-Bold-47" transform="translate(0 0.015625)"/>
     <use xlink:href="#DejaVuSans-Bold-6c" transform="translate(82.080078 0.015625)"/>
     <use xlink:href="#DejaVuSans-Bold-6f" transform="translate(116.357422 0.015625)"/>
     <use xlink:href="#DejaVuSans-Bold-62" transform="translate(185.058594 0.015625)"/>
     <use xlink:href="#DejaVuSans-Bold-61" transform="translate(256.640625 0.015625)"/>
     <use xlink:href="#DejaVuSans-Bold-6c" transform="translate(324.121094 0.015625)"/>
     <use xlink:href="#DejaVuSans-Bold-20" transform="translate(358.398438 0.015625)"/>
     <use xlink:href="#DejaVuSans-Bold-70" transform="translate(393.212891 0.015625)"/>
     <use xlink:href="#DejaVuSans-Bold-68" transform="translate(464.794922 0.015625)"/>
     <use xlink:href="#DejaVuSans-Bold-61" transform="translate(535.986328 0.015625)"/>
     <use xlink:href="#DejaVuSans-Bold-73" transform="translate(603.466797 0.015625)"/>
     <use xlink:href="#DejaVuSans-Bold-65" transform="translate(662.988281 0.015625)"/>
     <use xlink:href="#DejaVuSans-Bold-3a" transform="translate(730.810547 0.015625)"/>
     <use xlink:href="#DejaVuSans-Bold-20" transform="translate(770.800781 0.015625)"/>
     <use xlink:href="#DejaVuSans-Bold-6d" transform="translate(805.615234 0.015625)"/>
     <use xlink:href="#DejaVuSans-Bold-75" transform="translate(909.814453 0.015625)"/>
     <use xlink:href="#DejaVuSans-Bold-6c" transform="translate(981.005859 0.015625)"/>
     <use xlink:href="#DejaVuSans-Bold-74" transform="translate(1015.283203 0.015625)"/>
     <use xlink:href="#DejaVuSans-Bold-69" transform="translate(1063.085938 0.015625)"/>
     <use xlink:href="#DejaVuSans-Bold-70" transform="translate(1097.363281 0.015625)"/>
     <use xlink:href="#DejaVuSans-Bold-6c" transform="translate(1168.945312 0.015625)"/>
     <use xlink:href="#DejaVuSans-Bold-69" transform="translate(1203.222656 0.015625)"/>
     <use xlink:href="#DejaVuSans-Bold-65" transform="translate(1237.5 0.015625)"/>
     <use xlink:href="#DejaVuSans-Bold-72" transform="translate(1305.322266 0.015625)"/>
     <use xlink:href="#DejaVuSans-Bold-20" transform="translate(1354.638672 0.015625)"/>
     <use xlink:href="#DejaVuSans-Oblique-3bc" transform="translate(1389.453125 0.015625)"/>
     <use xlink:href="#DejaVuSans-Bold-20" transform="translate(1453.076172 0.015625)"/>
     <use xlink:href="#DejaVuSans-Bold-61" transform="translate(1487.890625 0.015625)"/>
     <use xlink:href="#DejaVuSans-Bold-6e" transform="translate(1555.371094 0.015625)"/>
     <use xlink:href="#DejaVuSans-Bold-64" transform="translate(1626.5625 0.015625)"/>
     <use xlink:href="#DejaVuSans-Bold-20" transform="translate(1698.144531 0.015625)"/>
     <use xlink:href="#DejaVuSans-Bold-73" transform="translate(1732.958984 0.015625)"/>
     <use xlink:href="#DejaVuSans-Bold-71" transform="translate(1792.480469 0.015625)"/>
     <use xlink:href="#DejaVuSans-Bold-75" transform="translate(1864.0625 0.015625)"/>
     <use xlink:href="#DejaVuSans-Bold-61" transform="translate(1935.253906 0.015625)"/>
     <use xlink:href="#DejaVuSans-Bold-72" transform="translate(2002.734375 0.015625)"/>
     <use xlink:href="#DejaVuSans-Bold-65" transform="translate(2052.050781 0.015625)"/>
     <use xlink:href="#DejaVuSans-Bold-64" transform="translate(2119.873047 0.015625)"/>
     <use xlink:href="#DejaVuSans-Bold-20" transform="translate(2191.455078 0.015625)"/>
     <use xlink:href="#DejaVuSans-Bold-73" transform="translate(2226.269531 0.015625)"/>
     <use xlink:href="#DejaVuSans-Bold-68" transform="translate(2285.791016 0.015625)"/>
     <use xlink:href="#DejaVuSans-Bold-6f" transform="translate(2356.982422 0.015625)"/>
     <use xlink:href="#DejaVuSans-Bold-72" transform="translate(2425.683594 0.015625)"/>
     <use xlink:href="#DejaVuSans-Bold-74" transform="translate(2475 0.015625)"/>
     <use xlink:href="#DejaVuSans-Bold-66" transform="translate(2522.802734 0.015625)"/>
     <use xlink:href="#DejaVuSans-Bold-61" transform="translate(2566.308594 0.015625)"/>
     <use xlink:href="#DejaVuSans-Bold-6c" transform="translate(2633.789062 0.015625)"/>
     <use xlink:href="#DejaVuSans-Bold-6c" transform="translate(2668.066406 0.015625)"/>
     <use xlink:href="#DejaVuSans-Bold-20" transform="translate(2702.34375 0.015625)"/>
     <use xlink:href="#DejaVuSans-Oblique-46" transform="translate(2737.158203 0.015625)"/>
     <use xlink:href="#DejaVuSans-Oblique-47" transform="translate(2794.677734 -16.390625) scale(0.7)"/>
    </g>
   </g>
   <g id="legend_2">
    <g id="line2d_49">
     <path d="M 495.186875 251.71 
L 504.186875 251.71 
L 513.186875 251.71 
" style="fill: none; stroke: #2563eb; stroke-width: 2; stroke-linecap: square"/>
    </g>
    <g id="text_30">
     <!-- $\mu$ (dual) -->
     <g style="fill: #212529" transform="translate(520.386875 254.86) scale(0.09 -0.09)">
      <use xlink:href="#DejaVuSans-Oblique-3bc" transform="translate(0 0.015625)"/>
      <use xlink:href="#DejaVuSans-20" transform="translate(63.623047 0.015625)"/>
      <use xlink:href="#DejaVuSans-28" transform="translate(95.410156 0.015625)"/>
      <use xlink:href="#DejaVuSans-64" transform="translate(134.423828 0.015625)"/>
      <use xlink:href="#DejaVuSans-75" transform="translate(197.900391 0.015625)"/>
      <use xlink:href="#DejaVuSans-61" transform="translate(261.279297 0.015625)"/>
      <use xlink:href="#DejaVuSans-6c" transform="translate(322.558594 0.015625)"/>
      <use xlink:href="#DejaVuSans-29" transform="translate(350.341797 0.015625)"/>
     </g>
    </g>
    <g id="line2d_50">
     <path d="M 495.186875 264.938594 
L 504.186875 264.938594 
L 513.186875 264.938594 
" style="fill: none; stroke: #d97706; stroke-width: 1.5; stroke-linecap: square"/>
    </g>
    <g id="text_31">
     <!-- F_G (constraint) -->
     <g style="fill: #212529" transform="translate(520.386875 268.088594) scale(0.09 -0.09)">
      <defs>
       <path id="DejaVuSans-47" d="M 3809 666 
L 3809 1919 
L 2778 1919 
L 2778 2438 
L 4434 2438 
L 4434 434 
Q 4069 175 3628 42 
Q 3188 -91 2688 -91 
Q 1594 -91 976 548 
Q 359 1188 359 2328 
Q 359 3472 976 4111 
Q 1594 4750 2688 4750 
Q 3144 4750 3555 4637 
Q 3966 4525 4313 4306 
L 4313 3634 
Q 3963 3931 3569 4081 
Q 3175 4231 2741 4231 
Q 1884 4231 1454 3753 
Q 1025 3275 1025 2328 
Q 1025 1384 1454 906 
Q 1884 428 2741 428 
Q 3075 428 3337 486 
Q 3600 544 3809 666 
z
" transform="scale(0.015625)"/>
      </defs>
      <use xlink:href="#DejaVuSans-46"/>
      <use xlink:href="#DejaVuSans-5f" x="57.519531"/>
      <use xlink:href="#DejaVuSans-47" x="107.519531"/>
      <use xlink:href="#DejaVuSans-20" x="185.009766"/>
      <use xlink:href="#DejaVuSans-28" x="216.796875"/>
      <use xlink:href="#DejaVuSans-63" x="255.810547"/>
      <use xlink:href="#DejaVuSans-6f" x="310.791016"/>
      <use xlink:href="#DejaVuSans-6e" x="371.972656"/>
      <use xlink:href="#DejaVuSans-73" x="435.351562"/>
      <use xlink:href="#DejaVuSans-74" x="487.451172"/>
      <use xlink:href="#DejaVuSans-72" x="526.660156"/>
      <use xlink:href="#DejaVuSans-61" x="567.773438"/>
      <use xlink:href="#DejaVuSans-69" x="629.052734"/>
      <use xlink:href="#DejaVuSans-6e" x="656.835938"/>
      <use xlink:href="#DejaVuSans-74" x="720.214844"/>
      <use xlink:href="#DejaVuSans-29" x="759.423828"/>
     </g>
    </g>
   </g>
  </g>
  <g id="axes_3">
   <g id="matplotlib.axis_5">
    <g id="ytick_12">
     <g id="line2d_51">
      <defs>
       <path id="m78b7d2b55c" d="M 0 0 
L 3.5 0 
" style="stroke: #6c757d; stroke-width: 0.8"/>
      </defs>
      <g>
       <use xlink:href="#m78b7d2b55c" x="600.343438" y="190.118182" style="fill: #6c757d; stroke: #6c757d; stroke-width: 0.8"/>
      </g>
     </g>
     <g id="text_32">
      <!-- 0 -->
      <g style="fill: #d97706" transform="translate(607.343438 193.917401) scale(0.1 -0.1)">
       <use xlink:href="#DejaVuSans-30"/>
      </g>
     </g>
    </g>
    <g id="ytick_13">
     <g id="line2d_52">
      <g>
       <use xlink:href="#m78b7d2b55c" x="600.343438" y="163.670099" style="fill: #6c757d; stroke: #6c757d; stroke-width: 0.8"/>
      </g>
     </g>
     <g id="text_33">
      <!-- 10 -->
      <g style="fill: #d97706" transform="translate(607.343438 167.469317) scale(0.1 -0.1)">
       <use xlink:href="#DejaVuSans-31"/>
       <use xlink:href="#DejaVuSans-30" x="63.623047"/>
      </g>
     </g>
    </g>
    <g id="ytick_14">
     <g id="line2d_53">
      <g>
       <use xlink:href="#m78b7d2b55c" x="600.343438" y="137.222016" style="fill: #6c757d; stroke: #6c757d; stroke-width: 0.8"/>
      </g>
     </g>
     <g id="text_34">
      <!-- 20 -->
      <g style="fill: #d97706" transform="translate(607.343438 141.021234) scale(0.1 -0.1)">
       <use xlink:href="#DejaVuSans-32"/>
       <use xlink:href="#DejaVuSans-30" x="63.623047"/>
      </g>
     </g>
    </g>
    <g id="ytick_15">
     <g id="line2d_54">
      <g>
       <use xlink:href="#m78b7d2b55c" x="600.343438" y="110.773932" style="fill: #6c757d; stroke: #6c757d; stroke-width: 0.8"/>
      </g>
     </g>
     <g id="text_35">
      <!-- 30 -->
      <g style="fill: #d97706" transform="translate(607.343438 114.573151) scale(0.1 -0.1)">
       <defs>
        <path id="DejaVuSans-33" d="M 2597 2516 
Q 3050 2419 3304 2112 
Q 3559 1806 3559 1356 
Q 3559 666 3084 287 
Q 2609 -91 1734 -91 
Q 1441 -91 1130 -33 
Q 819 25 488 141 
L 488 750 
Q 750 597 1062 519 
Q 1375 441 1716 441 
Q 2309 441 2620 675 
Q 2931 909 2931 1356 
Q 2931 1769 2642 2001 
Q 2353 2234 1838 2234 
L 1294 2234 
L 1294 2753 
L 1863 2753 
Q 2328 2753 2575 2939 
Q 2822 3125 2822 3475 
Q 2822 3834 2567 4026 
Q 2313 4219 1838 4219 
Q 1578 4219 1281 4162 
Q 984 4106 628 3988 
L 628 4550 
Q 988 4650 1302 4700 
Q 1616 4750 1894 4750 
Q 2613 4750 3031 4423 
Q 3450 4097 3450 3541 
Q 3450 3153 3228 2886 
Q 3006 2619 2597 2516 
z
" transform="scale(0.015625)"/>
       </defs>
       <use xlink:href="#DejaVuSans-33"/>
       <use xlink:href="#DejaVuSans-30" x="63.623047"/>
      </g>
     </g>
    </g>
    <g id="ytick_16">
     <g id="line2d_55">
      <g>
       <use xlink:href="#m78b7d2b55c" x="600.343438" y="84.325849" style="fill: #6c757d; stroke: #6c757d; stroke-width: 0.8"/>
      </g>
     </g>
     <g id="text_36">
      <!-- 40 -->
      <g style="fill: #d97706" transform="translate(607.343438 88.125068) scale(0.1 -0.1)">
       <use xlink:href="#DejaVuSans-34"/>
       <use xlink:href="#DejaVuSans-30" x="63.623047"/>
      </g>
     </g>
    </g>
    <g id="ytick_17">
     <g id="line2d_56">
      <g>
       <use xlink:href="#m78b7d2b55c" x="600.343438" y="57.877766" style="fill: #6c757d; stroke: #6c757d; stroke-width: 0.8"/>
      </g>
     </g>
     <g id="text_37">
      <!-- 50 -->
      <g style="fill: #d97706" transform="translate(607.343438 61.676985) scale(0.1 -0.1)">
       <use xlink:href="#DejaVuSans-35"/>
       <use xlink:href="#DejaVuSans-30" x="63.623047"/>
      </g>
     </g>
    </g>
    <g id="text_38">
     <!-- squared shortfall -->
     <g style="fill: #d97706" transform="translate(631.666875 164.345313) rotate(-90) scale(0.1 -0.1)">
      <defs>
       <path id="DejaVuSans-71" d="M 947 1747 
Q 947 1113 1208 752 
Q 1469 391 1925 391 
Q 2381 391 2643 752 
Q 2906 1113 2906 1747 
Q 2906 2381 2643 2742 
Q 2381 3103 1925 3103 
Q 1469 3103 1208 2742 
Q 947 2381 947 1747 
z
M 2906 525 
Q 2725 213 2448 61 
Q 2172 -91 1784 -91 
Q 1150 -91 751 415 
Q 353 922 353 1747 
Q 353 2572 751 3078 
Q 1150 3584 1784 3584 
Q 2172 3584 2448 3432 
Q 2725 3281 2906 2969 
L 2906 3500 
L 3481 3500 
L 3481 -1331 
L 2906 -1331 
L 2906 525 
z
" transform="scale(0.015625)"/>
       <path id="DejaVuSans-66" d="M 2375 4863 
L 2375 4384 
L 1825 4384 
Q 1516 4384 1395 4259 
Q 1275 4134 1275 3809 
L 1275 3500 
L 2222 3500 
L 2222 3053 
L 1275 3053 
L 1275 0 
L 697 0 
L 697 3053 
L 147 3053 
L 147 3500 
L 697 3500 
L 697 3744 
Q 697 4328 969 4595 
Q 1241 4863 1831 4863 
L 2375 4863 
z
" transform="scale(0.015625)"/>
      </defs>
      <use xlink:href="#DejaVuSans-73"/>
      <use xlink:href="#DejaVuSans-71" x="52.099609"/>
      <use xlink:href="#DejaVuSans-75" x="115.576172"/>
      <use xlink:href="#DejaVuSans-61" x="178.955078"/>
      <use xlink:href="#DejaVuSans-72" x="240.234375"/>
      <use xlink:href="#DejaVuSans-65" x="279.097656"/>
      <use xlink:href="#DejaVuSans-64" x="340.621094"/>
      <use xlink:href="#DejaVuSans-20" x="404.097656"/>
      <use xlink:href="#DejaVuSans-73" x="435.884766"/>
      <use xlink:href="#DejaVuSans-68" x="487.984375"/>
      <use xlink:href="#DejaVuSans-6f" x="551.363281"/>
      <use xlink:href="#DejaVuSans-72" x="612.544922"/>
      <use xlink:href="#DejaVuSans-74" x="653.658203"/>
      <use xlink:href="#DejaVuSans-66" x="692.867188"/>
      <use xlink:href="#DejaVuSans-61" x="728.072266"/>
      <use xlink:href="#DejaVuSans-6c" x="789.351562"/>
      <use xlink:href="#DejaVuSans-6c" x="817.134766"/>
     </g>
    </g>
   </g>
   <g id="line2d_57">
    <path d="M 83.151619 190.118182 
L 87.491387 147.16176 
L 89.661271 111.571824 
L 91.831155 157.990289 
L 94.001039 102.010759 
L 96.170922 190.096134 
L 98.340806 190.118182 
L 100.51069 71.877641 
L 102.680574 124.12119 
L 104.850458 155.236505 
L 107.020342 106.815555 
L 109.190226 190.118177 
L 111.36011 190.10384 
L 113.529993 188.503106 
L 115.699877 189.597783 
L 117.869761 190.118182 
L 122.209529 190.117057 
L 124.379413 189.933804 
L 126.549297 181.520705 
L 128.71918 190.091148 
L 130.889064 190.07353 
L 133.058948 174.875715 
L 135.228832 190.118182 
L 141.738484 190.04773 
L 143.908367 186.486601 
L 146.078251 190.118178 
L 150.418019 190.11533 
L 152.587903 171.768483 
L 154.757787 183.485371 
L 156.927671 190.099095 
L 159.097554 159.58402 
L 161.267438 190.118182 
L 211.174767 190.109848 
L 213.344651 189.966484 
L 215.514535 54.081818 
L 217.684419 190.118182 
L 222.024186 190.114173 
L 224.19407 182.968723 
L 226.363954 190.118182 
L 228.533838 190.088613 
L 230.703722 187.695803 
L 232.873606 190.118182 
L 235.04349 174.137924 
L 237.213373 190.118182 
L 239.383257 190.118182 
L 241.553141 145.927701 
L 243.723025 190.11815 
L 245.892909 129.240453 
L 248.062793 190.101866 
L 250.232677 154.07383 
L 252.40256 190.118182 
L 254.572444 190.112191 
L 256.742328 189.916848 
L 258.912212 162.872467 
L 261.082096 190.105613 
L 263.25198 186.73363 
L 265.421864 190.115377 
L 280.611051 190.118182 
L 293.630354 190.078603 
L 295.800238 187.378 
L 297.970122 188.6377 
L 300.140005 190.118182 
L 324.008728 190.118182 
L 326.178612 189.58455 
L 328.348496 190.010708 
L 330.518379 190.118182 
L 339.197915 190.024686 
L 343.537683 190.118182 
L 358.72687 190.118182 
L 360.896753 189.963702 
L 363.066637 190.118182 
L 365.236521 189.579652 
L 367.406405 190.118182 
L 389.105244 190.118182 
L 391.275128 188.596435 
L 393.445011 189.989206 
L 397.784779 190.118182 
L 410.804082 190.054556 
L 412.973966 188.6514 
L 415.14385 189.861281 
L 417.313734 190.087083 
L 421.653502 190.097311 
L 423.823385 190.118182 
L 425.993269 189.559154 
L 428.163153 190.118182 
L 430.333037 186.572729 
L 432.502921 189.966679 
L 434.672805 190.118182 
L 436.842689 188.317661 
L 439.012572 187.957753 
L 441.182456 190.084688 
L 449.861992 190.118182 
L 480.240366 190.118182 
L 482.41025 189.276129 
L 484.580134 190.098616 
L 486.750017 190.112225 
L 488.919901 189.996375 
L 493.259669 190.118182 
L 514.958508 190.105104 
L 517.128391 189.846121 
L 519.298275 190.118182 
L 521.468159 190.037585 
L 523.638043 190.114782 
L 527.977811 190.118182 
L 575.715256 190.07905 
L 575.715256 190.07905 
" clip-path="url(#p0bffa7f72c)" style="fill: none; stroke: #d97706; stroke-width: 1.5; stroke-linecap: square"/>
   </g>
   <g id="patch_8">
    <path d="M 58.523438 196.92 
L 58.523438 47.28 
" style="fill: none; stroke: #495057; stroke-width: 0.8; stroke-linejoin: miter; stroke-linecap: square"/>
   </g>
   <g id="patch_9">
    <path d="M 58.523438 196.92 
L 600.343438 196.92 
" style="fill: none; stroke: #495057; stroke-width: 0.8; stroke-linejoin: miter; stroke-linecap: square"/>
   </g>
  </g>
  <g id="axes_4">
   <g id="matplotlib.axis_6">
    <g id="ytick_18">
     <g id="line2d_58">
      <g>
       <use xlink:href="#m78b7d2b55c" x="600.343438" y="382.758182" style="fill: #6c757d; stroke: #6c757d; stroke-width: 0.8"/>
      </g>
     </g>
     <g id="text_39">
      <!-- 0 -->
      <g style="fill: #d97706" transform="translate(607.343438 386.557401) scale(0.1 -0.1)">
       <use xlink:href="#DejaVuSans-30"/>
      </g>
     </g>
    </g>
    <g id="ytick_19">
     <g id="line2d_59">
      <g>
       <use xlink:href="#m78b7d2b55c" x="600.343438" y="341.425925" style="fill: #6c757d; stroke: #6c757d; stroke-width: 0.8"/>
      </g>
     </g>
     <g id="text_40">
      <!-- 1 -->
      <g style="fill: #d97706" transform="translate(607.343438 345.225144) scale(0.1 -0.1)">
       <use xlink:href="#DejaVuSans-31"/>
      </g>
     </g>
    </g>
    <g id="ytick_20">
     <g id="line2d_60">
      <g>
       <use xlink:href="#m78b7d2b55c" x="600.343438" y="300.093669" style="fill: #6c757d; stroke: #6c757d; stroke-width: 0.8"/>
      </g>
     </g>
     <g id="text_41">
      <!-- 2 -->
      <g style="fill: #d97706" transform="translate(607.343438 303.892888) scale(0.1 -0.1)">
       <use xlink:href="#DejaVuSans-32"/>
      </g>
     </g>
    </g>
    <g id="ytick_21">
     <g id="line2d_61">
      <g>
       <use xlink:href="#m78b7d2b55c" x="600.343438" y="258.761413" style="fill: #6c757d; stroke: #6c757d; stroke-width: 0.8"/>
      </g>
     </g>
     <g id="text_42">
      <!-- 3 -->
      <g style="fill: #d97706" transform="translate(607.343438 262.560631) scale(0.1 -0.1)">
       <use xlink:href="#DejaVuSans-33"/>
      </g>
     </g>
    </g>
    <g id="text_43">
     <!-- squared shortfall -->
     <g style="fill: #d97706" transform="translate(625.304375 356.985313) rotate(-90) scale(0.1 -0.1)">
      <use xlink:href="#DejaVuSans-73"/>
      <use xlink:href="#DejaVuSans-71" x="52.099609"/>
      <use xlink:href="#DejaVuSans-75" x="115.576172"/>
      <use xlink:href="#DejaVuSans-61" x="178.955078"/>
      <use xlink:href="#DejaVuSans-72" x="240.234375"/>
      <use xlink:href="#DejaVuSans-65" x="279.097656"/>
      <use xlink:href="#DejaVuSans-64" x="340.621094"/>
      <use xlink:href="#DejaVuSans-20" x="404.097656"/>
      <use xlink:href="#DejaVuSans-73" x="435.884766"/>
      <use xlink:href="#DejaVuSans-68" x="487.984375"/>
      <use xlink:href="#DejaVuSans-6f" x="551.363281"/>
      <use xlink:href="#DejaVuSans-72" x="612.544922"/>
      <use xlink:href="#DejaVuSans-74" x="653.658203"/>
      <use xlink:href="#DejaVuSans-66" x="692.867188"/>
      <use xlink:href="#DejaVuSans-61" x="728.072266"/>
      <use xlink:href="#DejaVuSans-6c" x="789.351562"/>
      <use xlink:href="#DejaVuSans-6c" x="817.134766"/>
     </g>
    </g>
   </g>
   <g id="line2d_62">
    <path d="M 83.151619 382.582827 
L 87.51059 382.646872 
L 91.86956 382.758182 
L 96.22853 380.653638 
L 100.5875 380.303116 
L 104.94647 381.953924 
L 109.305441 382.758182 
L 113.664411 382.758182 
L 118.023381 382.758182 
L 122.382351 382.533137 
L 126.741322 382.755321 
L 131.100292 382.753436 
L 135.459262 382.620946 
L 139.818232 382.311552 
L 144.177203 382.758182 
L 148.536173 382.758182 
L 152.895143 381.133787 
L 157.254113 382.669952 
L 161.613084 313.708049 
L 165.972054 382.435034 
L 170.331024 381.214264 
L 174.689994 382.758182 
L 179.048964 382.758182 
L 183.407935 382.758182 
L 187.766905 246.721818 
L 192.125875 343.74431 
L 196.484845 373.532575 
L 200.843816 382.000585 
L 205.202786 381.52189 
L 209.561756 380.558907 
L 213.920726 382.758182 
L 218.279697 382.758182 
L 222.638667 382.437544 
L 226.997637 381.241321 
L 231.356607 381.343576 
L 235.715577 378.784428 
L 240.074548 382.68677 
L 244.433518 381.566114 
L 248.792488 382.705354 
L 253.151458 380.532734 
L 257.510429 382.65279 
L 261.869399 381.565072 
L 266.228369 364.359134 
L 270.587339 379.304836 
L 274.94631 382.151438 
L 279.30528 380.841446 
L 283.66425 381.501281 
L 288.02322 382.758182 
L 292.382191 379.024248 
L 296.741161 381.291749 
L 301.100131 382.416652 
L 305.459101 367.098909 
L 309.818071 371.898737 
L 314.177042 378.680648 
L 318.536012 361.918809 
L 322.894982 378.719917 
L 327.253952 382.388843 
L 331.612923 382.151975 
L 335.971893 380.799022 
L 340.330863 382.640517 
L 344.689833 372.368429 
L 349.048804 382.758182 
L 353.407774 382.758182 
L 357.766744 382.758182 
L 362.125714 382.758182 
L 366.484684 382.734438 
L 370.843655 382.715078 
L 375.202625 382.729623 
L 379.561595 382.753804 
L 383.920565 379.43569 
L 388.279536 377.461491 
L 392.638506 380.875473 
L 396.997476 360.151534 
L 401.356446 382.176911 
L 405.715417 381.131989 
L 410.074387 374.48167 
L 414.433357 373.719375 
L 418.792327 377.927138 
L 423.151298 374.629517 
L 427.510268 378.068784 
L 431.869238 373.365613 
L 436.228208 382.665298 
L 440.587178 382.758182 
L 444.946149 382.206276 
L 449.305119 326.848671 
L 453.664089 371.064636 
L 458.023059 374.181632 
L 462.38203 382.511212 
L 466.741 382.758182 
L 471.09997 381.773909 
L 475.45894 371.297376 
L 479.817911 379.469038 
L 484.176881 374.746004 
L 488.535851 380.735435 
L 492.894821 382.758182 
L 497.253791 382.684659 
L 501.612762 380.035408 
L 505.971732 380.220934 
L 510.330702 379.621156 
L 514.689672 382.757398 
L 519.048643 382.758044 
L 523.407613 382.389241 
L 527.766583 381.924579 
L 532.125553 382.758182 
L 536.484524 382.758182 
L 540.843494 382.758182 
L 545.202464 382.376274 
L 549.561434 382.746637 
L 553.920405 372.104082 
L 558.279375 375.643159 
L 562.638345 376.626382 
L 566.997315 376.522832 
L 571.356285 381.024352 
L 575.715256 381.598868 
" clip-path="url(#pb9a976362e)" style="fill: none; stroke: #d97706; stroke-width: 1.5; stroke-linecap: square"/>
   </g>
   <g id="patch_10">
    <path d="M 58.523438 389.56 
L 58.523438 239.92 
" style="fill: none; stroke: #495057; stroke-width: 0.8; stroke-linejoin: miter; stroke-linecap: square"/>
   </g>
   <g id="patch_11">
    <path d="M 58.523438 389.56 
L 600.343438 389.56 
" style="fill: none; stroke: #495057; stroke-width: 0.8; stroke-linejoin: miter; stroke-linecap: square"/>
   </g>
  </g>
  <g id="text_44">
   <!-- Dual dynamics -->
   <g style="fill: #212529" transform="translate(271.053437 16.318125) scale(0.12 -0.12)">
    <defs>
     <path id="DejaVuSans-Bold-44" d="M 1791 3756 
L 1791 909 
L 2222 909 
Q 2959 909 3348 1275 
Q 3738 1641 3738 2338 
Q 3738 3031 3350 3393 
Q 2963 3756 2222 3756 
L 1791 3756 
z
M 588 4666 
L 1856 4666 
Q 2919 4666 3439 4514 
Q 3959 4363 4331 4000 
Q 4659 3684 4818 3271 
Q 4978 2859 4978 2338 
Q 4978 1809 4818 1395 
Q 4659 981 4331 666 
Q 3956 303 3431 151 
Q 2906 0 1856 0 
L 588 0 
L 588 4666 
z
" transform="scale(0.015625)"/>
     <path id="DejaVuSans-Bold-79" d="M 78 3500 
L 1197 3500 
L 2138 1125 
L 2938 3500 
L 4056 3500 
L 2584 -331 
Q 2363 -916 2067 -1148 
Q 1772 -1381 1288 -1381 
L 641 -1381 
L 641 -647 
L 991 -647 
Q 1275 -647 1404 -556 
Q 1534 -466 1606 -231 
L 1638 -134 
L 78 3500 
z
" transform="scale(0.015625)"/>
    </defs>
    <use xlink:href="#DejaVuSans-Bold-44"/>
    <use xlink:href="#DejaVuSans-Bold-75" x="83.007812"/>
    <use xlink:href="#DejaVuSans-Bold-61" x="154.199219"/>
    <use xlink:href="#DejaVuSans-Bold-6c" x="221.679688"/>
    <use xlink:href="#DejaVuSans-Bold-20" x="255.957031"/>
    <use xlink:href="#DejaVuSans-Bold-64" x="290.771484"/>
    <use xlink:href="#DejaVuSans-Bold-79" x="362.353516"/>
    <use xlink:href="#DejaVuSans-Bold-6e" x="427.539062"/>
    <use xlink:href="#DejaVuSans-Bold-61" x="498.730469"/>
    <use xlink:href="#DejaVuSans-Bold-6d" x="566.210938"/>
    <use xlink:href="#DejaVuSans-Bold-69" x="670.410156"/>
    <use xlink:href="#DejaVuSans-Bold-63" x="704.6875"/>
    <use xlink:href="#DejaVuSans-Bold-73" x="763.964844"/>
   </g>
  </g>
 </g>
 <defs>
  <clipPath id="p0bffa7f72c">
   <rect x="58.523438" y="47.28" width="541.82" height="149.64"/>
  </clipPath>
  <clipPath id="pb9a976362e">
   <rect x="58.523438" y="239.92" width="541.82" height="149.64"/>
  </clipPath>
 </defs>
</svg>
