<?xml version="1.0" encoding="utf-8" standalone="no"?>
<!DOCTYPE svg PUBLIC "-//W3C//DTD SVG 1.1//EN"
  "http://www.w3.org/Graphics/SVG/1.1/DTD/svg11.dtd">
<svg xmlns:xlink="http://www.w3.org/1999/xlink" width="541.917188pt" height="324.466687pt" viewBox="0 0 541.917188 324.466687" xmlns="http://www.w3.org/2000/svg" version="1.1">
 <metadata>
  <rdf:RDF xmlns:dc="http://purl.org/dc/elements/1.1/" xmlns:cc="http://creativecommons.org/ns#" xmlns:rdf="http://www.w3.org/1999/02/22-rdf-syntax-ns#">
   <cc:Work>
    <dc:type rdf:resource="http://purl.org/dc/dcmitype/StillImage"/>
    <dc:date>2026-07-22T23:32:30.134528</dc:date>
    <dc:format>image/svg+xml</dc:format>
    <dc:creator>
     <cc:Agent>
      <dc:title>Matplotlib v3.7.1, https://matplotlib.org/</dc:title>
     </cc:Agent>
    </dc:creator>
   </cc:Work>
  </rdf:RDF>
 </metadata>
 <defs>
  <style type="text/css">*{stroke-linejoin: round; stroke-linecap: butt}</style>
 </defs>
 <g id="figure_1">
  <g id="patch_1">
   <path d="M 0 324.466687 
L 541.917188 324.466687 
L 541.917188 0 
L 0 0 
z
" style="fill: #ffffff"/>
  </g>
  <g id="axes_1">
   <g id="patch_2">
    <path d="M 58.523438 286.910437 
L 532.823438 286.910437 
L 532.823438 20.798437 
L 58.523438 20.798437 
z
" style="fill: #ffffff"/>
   </g>
   <g id="matplotlib.axis_1">
    <g id="xtick_1">
     <g id="line2d_1">
      <defs>
       <path id="m5e7c5d399f" d="M 0 0 
L 0 3.5 
" style="stroke: #000000; stroke-width: 0.8"/>
      </defs>
      <g>
       <use xlink:href="#m5e7c5d399f" x="80.082528" y="286.910437" style="stroke: #000000; stroke-width: 0.8"/>
      </g>
     </g>
     <g id="text_1">
      <!-- 0 -->
      <g transform="translate(76.901278 301.508875) scale(0.1 -0.1)">
       <defs>
        <path id="DejaVuSans-30" d="M 2034 4250 
Q 1547 4250 1301 3770 
Q 1056 3291 1056 2328 
Q 1056 1369 1301 889 
Q 1547 409 2034 409 
Q 2525 409 2770 889 
Q 3016 1369 3016 2328 
Q 3016 3291 2770 3770 
Q 2525 4250 2034 4250 
z
M 2034 4750 
Q 2819 4750 3233 4129 
Q 3647 3509 3647 2328 
Q 3647 1150 3233 529 
Q 2819 -91 2034 -91 
Q 1250 -91 836 529 
Q 422 1150 422 2328 
Q 422 3509 836 4129 
Q 1250 4750 2034 4750 
z
" transform="scale(0.015625)"/>
       </defs>
       <use xlink:href="#DejaVuSans-30"/>
      </g>
     </g>
    </g>
    <g id="xtick_2">
     <g id="line2d_2">
      <g>
       <use xlink:href="#m5e7c5d399f" x="135.718892" y="286.910437" style="stroke: #000000; stroke-width: 0.8"/>
      </g>
     </g>
     <g id="text_2">
      <!-- 100 -->
      <g transform="translate(126.175142 301.508875) scale(0.1 -0.1)">
       <defs>
        <path id="DejaVuSans-31" d="M 794 531 
L 1825 531 
L 1825 4091 
L 703 3866 
L 703 4441 
L 1819 4666 
L 2450 4666 
L 2450 531 
L 3481 531 
L 3481 0 
L 794 0 
L 794 531 
z
" transform="scale(0.015625)"/>
       </defs>
       <use xlink:href="#DejaVuSans-31"/>
       <use xlink:href="#DejaVuSans-30" x="63.623047"/>
       <use xlink:href="#DejaVuSans-30" x="127.246094"/>
      </g>
     </g>
    </g>
    <g id="xtick_3">
     <g id="line2d_3">
      <g>
       <use xlink:href="#m5e7c5d399f" x="191.355256" y="286.910437" style="stroke: #000000; stroke-width: 0.8"/>
      </g>
     </g>
     <g id="text_3">
      <!-- 200 -->
      <g transform="translate(181.811506 301.508875) scale(0.1 -0.1)">
       <defs>
        <path id="DejaVuSans-32" d="M 1228 531 
L 3431 531 
L 3431 0 
L 469 0 
L 469 531 
Q 828 903 1448 1529 
Q 2069 2156 2228 2338 
Q 2531 2678 2651 2914 
Q 2772 3150 2772 3378 
Q 2772 3750 2511 3984 
Q 2250 4219 1831 4219 
Q 1534 4219 1204 4116 
Q 875 4013 500 3803 
L 500 4441 
Q 881 4594 1212 4672 
Q 1544 4750 1819 4750 
Q 2544 4750 2975 4387 
Q 3406 4025 3406 3419 
Q 3406 3131 3298 2873 
Q 3191 2616 2906 2266 
Q 2828 2175 2409 1742 
Q 1991 1309 1228 531 
z
" transform="scale(0.015625)"/>
       </defs>
       <use xlink:href="#DejaVuSans-32"/>
       <use xlink:href="#DejaVuSans-30" x="63.623047"/>
       <use xlink:href="#DejaVuSans-30" x="127.246094"/>
      </g>
     </g>
    </g>
    <g id="xtick_4">
     <g id="line2d_4">
      <g>
       <use xlink:href="#m5e7c5d399f" x="246.991619" y="286.910437" style="stroke: #000000; stroke-width: 0.8"/>
      </g>
     </g>
     <g id="text_4">
      <!-- 300 -->
      <g transform="translate(237.447869 301.508875) scale(0.1 -0.1)">
       <defs>
        <path id="DejaVuSans-33" d="M 2597 2516 
Q 3050 2419 3304 2112 
Q 3559 1806 3559 1356 
Q 3559 666 3084 287 
Q 2609 -91 1734 -91 
Q 1441 -91 1130 -33 
Q 819 25 488 141 
L 488 750 
Q 750 597 1062 519 
Q 1375 441 1716 441 
Q 2309 441 2620 675 
Q 2931 909 2931 1356 
Q 2931 1769 2642 2001 
Q 2353 2234 1838 2234 
L 1294 2234 
L 1294 2753 
L 1863 2753 
Q 2328 2753 2575 2939 
Q 2822 3125 2822 3475 
Q 2822 3834 2567 4026 
Q 2313 4219 1838 4219 
Q 1578 4219 1281 4162 
Q 984 4106 628 3988 
L 628 4550 
Q 988 4650 1302 4700 
Q 1616 4750 1894 4750 
Q 2613 4750 3031 4423 
Q 3450 4097 3450 3541 
Q 3450 3153 3228 2886 
Q 3006 2619 2597 2516 
z
" transform="scale(0.015625)"/>
       </defs>
       <use xlink:href="#DejaVuSans-33"/>
       <use xlink:href="#DejaVuSans-30" x="63.623047"/>
       <use xlink:href="#DejaVuSans-30" x="127.246094"/>
      </g>
     </g>
    </g>
    <g id="xtick_5">
     <g id="line2d_5">
      <g>
       <use xlink:href="#m5e7c5d399f" x="302.627983" y="286.910437" style="stroke: #000000; stroke-width: 0.8"/>
      </g>
     </g>
     <g id="text_5">
      <!-- 400 -->
      <g transform="translate(293.084233 301.508875) scale(0.1 -0.1)">
       <defs>
        <path id="DejaVuSans-34" d="M 2419 4116 
L 825 1625 
L 2419 1625 
L 2419 4116 
z
M 2253 4666 
L 3047 4666 
L 3047 1625 
L 3713 1625 
L 3713 1100 
L 3047 1100 
L 3047 0 
L 2419 0 
L 2419 1100 
L 313 1100 
L 313 1709 
L 2253 4666 
z
" transform="scale(0.015625)"/>
       </defs>
       <use xlink:href="#DejaVuSans-34"/>
       <use xlink:href="#DejaVuSans-30" x="63.623047"/>
       <use xlink:href="#DejaVuSans-30" x="127.246094"/>
      </g>
     </g>
    </g>
    <g id="xtick_6">
     <g id="line2d_6">
      <g>
       <use xlink:href="#m5e7c5d399f" x="358.264347" y="286.910437" style="stroke: #000000; stroke-width: 0.8"/>
      </g>
     </g>
     <g id="text_6">
      <!-- 500 -->
      <g transform="translate(348.720597 301.508875) scale(0.1 -0.1)">
       <defs>
        <path id="DejaVuSans-35" d="M 691 4666 
L 3169 4666 
L 3169 4134 
L 1269 4134 
L 1269 2991 
Q 1406 3038 1543 3061 
Q 1681 3084 1819 3084 
Q 2600 3084 3056 2656 
Q 3513 2228 3513 1497 
Q 3513 744 3044 326 
Q 2575 -91 1722 -91 
Q 1428 -91 1123 -41 
Q 819 9 494 109 
L 494 744 
Q 775 591 1075 516 
Q 1375 441 1709 441 
Q 2250 441 2565 725 
Q 2881 1009 2881 1497 
Q 2881 1984 2565 2268 
Q 2250 2553 1709 2553 
Q 1456 2553 1204 2497 
Q 953 2441 691 2322 
L 691 4666 
z
" transform="scale(0.015625)"/>
       </defs>
       <use xlink:href="#DejaVuSans-35"/>
       <use xlink:href="#DejaVuSans-30" x="63.623047"/>
       <use xlink:href="#DejaVuSans-30" x="127.246094"/>
      </g>
     </g>
    </g>
    <g id="xtick_7">
     <g id="line2d_7">
      <g>
       <use xlink:href="#m5e7c5d399f" x="413.90071" y="286.910437" style="stroke: #000000; stroke-width: 0.8"/>
      </g>
     </g>
     <g id="text_7">
      <!-- 600 -->
      <g transform="translate(404.35696 301.508875) scale(0.1 -0.1)">
       <defs>
        <path id="DejaVuSans-36" d="M 2113 2584 
Q 1688 2584 1439 2293 
Q 1191 2003 1191 1497 
Q 1191 994 1439 701 
Q 1688 409 2113 409 
Q 2538 409 2786 701 
Q 3034 994 3034 1497 
Q 3034 2003 2786 2293 
Q 2538 2584 2113 2584 
z
M 3366 4563 
L 3366 3988 
Q 3128 4100 2886 4159 
Q 2644 4219 2406 4219 
Q 1781 4219 1451 3797 
Q 1122 3375 1075 2522 
Q 1259 2794 1537 2939 
Q 1816 3084 2150 3084 
Q 2853 3084 3261 2657 
Q 3669 2231 3669 1497 
Q 3669 778 3244 343 
Q 2819 -91 2113 -91 
Q 1303 -91 875 529 
Q 447 1150 447 2328 
Q 447 3434 972 4092 
Q 1497 4750 2381 4750 
Q 2619 4750 2861 4703 
Q 3103 4656 3366 4563 
z
" transform="scale(0.015625)"/>
       </defs>
       <use xlink:href="#DejaVuSans-36"/>
       <use xlink:href="#DejaVuSans-30" x="63.623047"/>
       <use xlink:href="#DejaVuSans-30" x="127.246094"/>
      </g>
     </g>
    </g>
    <g id="xtick_8">
     <g id="line2d_8">
      <g>
       <use xlink:href="#m5e7c5d399f" x="469.537074" y="286.910437" style="stroke: #000000; stroke-width: 0.8"/>
      </g>
     </g>
     <g id="text_8">
      <!-- 700 -->
      <g transform="translate(459.993324 301.508875) scale(0.1 -0.1)">
       <defs>
        <path id="DejaVuSans-37" d="M 525 4666 
L 3525 4666 
L 3525 4397 
L 1831 0 
L 1172 0 
L 2766 4134 
L 525 4134 
L 525 4666 
z
" transform="scale(0.015625)"/>
       </defs>
       <use xlink:href="#DejaVuSans-37"/>
       <use xlink:href="#DejaVuSans-30" x="63.623047"/>
       <use xlink:href="#DejaVuSans-30" x="127.246094"/>
      </g>
     </g>
    </g>
    <g id="xtick_9">
     <g id="line2d_9">
      <g>
       <use xlink:href="#m5e7c5d399f" x="525.173438" y="286.910437" style="stroke: #000000; stroke-width: 0.8"/>
      </g>
     </g>
     <g id="text_9">
      <!-- 800 -->
      <g transform="translate(515.629688 301.508875) scale(0.1 -0.1)">
       <defs>
        <path id="DejaVuSans-38" d="M 2034 2216 
Q 1584 2216 1326 1975 
Q 1069 1734 1069 1313 
Q 1069 891 1326 650 
Q 1584 409 2034 409 
Q 2484 409 2743 651 
Q 3003 894 3003 1313 
Q 3003 1734 2745 1975 
Q 2488 2216 2034 2216 
z
M 1403 2484 
Q 997 2584 770 2862 
Q 544 3141 544 3541 
Q 544 4100 942 4425 
Q 1341 4750 2034 4750 
Q 2731 4750 3128 4425 
Q 3525 4100 3525 3541 
Q 3525 3141 3298 2862 
Q 3072 2584 2669 2484 
Q 3125 2378 3379 2068 
Q 3634 1759 3634 1313 
Q 3634 634 3220 271 
Q 2806 -91 2034 -91 
Q 1263 -91 848 271 
Q 434 634 434 1313 
Q 434 1759 690 2068 
Q 947 2378 1403 2484 
z
M 1172 3481 
Q 1172 3119 1398 2916 
Q 1625 2713 2034 2713 
Q 2441 2713 2670 2916 
Q 2900 3119 2900 3481 
Q 2900 3844 2670 4047 
Q 2441 4250 2034 4250 
Q 1625 4250 1398 4047 
Q 1172 3844 1172 3481 
z
" transform="scale(0.015625)"/>
       </defs>
       <use xlink:href="#DejaVuSans-38"/>
       <use xlink:href="#DejaVuSans-30" x="63.623047"/>
       <use xlink:href="#DejaVuSans-30" x="127.246094"/>
      </g>
     </g>
    </g>
    <g id="text_10">
     <!-- global iter -->
     <g transform="translate(270.353125 315.187) scale(0.1 -0.1)">
      <defs>
       <path id="DejaVuSans-67" d="M 2906 1791 
Q 2906 2416 2648 2759 
Q 2391 3103 1925 3103 
Q 1463 3103 1205 2759 
Q 947 2416 947 1791 
Q 947 1169 1205 825 
Q 1463 481 1925 481 
Q 2391 481 2648 825 
Q 2906 1169 2906 1791 
z
M 3481 434 
Q 3481 -459 3084 -895 
Q 2688 -1331 1869 -1331 
Q 1566 -1331 1297 -1286 
Q 1028 -1241 775 -1147 
L 775 -588 
Q 1028 -725 1275 -790 
Q 1522 -856 1778 -856 
Q 2344 -856 2625 -561 
Q 2906 -266 2906 331 
L 2906 616 
Q 2728 306 2450 153 
Q 2172 0 1784 0 
Q 1141 0 747 490 
Q 353 981 353 1791 
Q 353 2603 747 3093 
Q 1141 3584 1784 3584 
Q 2172 3584 2450 3431 
Q 2728 3278 2906 2969 
L 2906 3500 
L 3481 3500 
L 3481 434 
z
" transform="scale(0.015625)"/>
       <path id="DejaVuSans-6c" d="M 603 4863 
L 1178 4863 
L 1178 0 
L 603 0 
L 603 4863 
z
" transform="scale(0.015625)"/>
       <path id="DejaVuSans-6f" d="M 1959 3097 
Q 1497 3097 1228 2736 
Q 959 2375 959 1747 
Q 959 1119 1226 758 
Q 1494 397 1959 397 
Q 2419 397 2687 759 
Q 2956 1122 2956 1747 
Q 2956 2369 2687 2733 
Q 2419 3097 1959 3097 
z
M 1959 3584 
Q 2709 3584 3137 3096 
Q 3566 2609 3566 1747 
Q 3566 888 3137 398 
Q 2709 -91 1959 -91 
Q 1206 -91 779 398 
Q 353 888 353 1747 
Q 353 2609 779 3096 
Q 1206 3584 1959 3584 
z
" transform="scale(0.015625)"/>
       <path id="DejaVuSans-62" d="M 3116 1747 
Q 3116 2381 2855 2742 
Q 2594 3103 2138 3103 
Q 1681 3103 1420 2742 
Q 1159 2381 1159 1747 
Q 1159 1113 1420 752 
Q 1681 391 2138 391 
Q 2594 391 2855 752 
Q 3116 1113 3116 1747 
z
M 1159 2969 
Q 1341 3281 1617 3432 
Q 1894 3584 2278 3584 
Q 2916 3584 3314 3078 
Q 3713 2572 3713 1747 
Q 3713 922 3314 415 
Q 2916 -91 2278 -91 
Q 1894 -91 1617 61 
Q 1341 213 1159 525 
L 1159 0 
L 581 0 
L 581 4863 
L 1159 4863 
L 1159 2969 
z
" transform="scale(0.015625)"/>
       <path id="DejaVuSans-61" d="M 2194 1759 
Q 1497 1759 1228 1600 
Q 959 1441 959 1056 
Q 959 750 1161 570 
Q 1363 391 1709 391 
Q 2188 391 2477 730 
Q 2766 1069 2766 1631 
L 2766 1759 
L 2194 1759 
z
M 3341 1997 
L 3341 0 
L 2766 0 
L 2766 531 
Q 2569 213 2275 61 
Q 1981 -91 1556 -91 
Q 1019 -91 701 211 
Q 384 513 384 1019 
Q 384 1609 779 1909 
Q 1175 2209 1959 2209 
L 2766 2209 
L 2766 2266 
Q 2766 2663 2505 2880 
Q 2244 3097 1772 3097 
Q 1472 3097 1187 3025 
Q 903 2953 641 2809 
L 641 3341 
Q 956 3463 1253 3523 
Q 1550 3584 1831 3584 
Q 2591 3584 2966 3190 
Q 3341 2797 3341 1997 
z
" transform="scale(0.015625)"/>
       <path id="DejaVuSans-20" transform="scale(0.015625)"/>
       <path id="DejaVuSans-69" d="M 603 3500 
L 1178 3500 
L 1178 0 
L 603 0 
L 603 3500 
z
M 603 4863 
L 1178 4863 
L 1178 4134 
L 603 4134 
L 603 4863 
z
" transform="scale(0.015625)"/>
       <path id="DejaVuSans-74" d="M 1172 4494 
L 1172 3500 
L 2356 3500 
L 2356 3053 
L 1172 3053 
L 1172 1153 
Q 1172 725 1289 603 
Q 1406 481 1766 481 
L 2356 481 
L 2356 0 
L 1766 0 
Q 1100 0 847 248 
Q 594 497 594 1153 
L 594 3053 
L 172 3053 
L 172 3500 
L 594 3500 
L 594 4494 
L 1172 4494 
z
" transform="scale(0.015625)"/>
       <path id="DejaVuSans-65" d="M 3597 1894 
L 3597 1613 
L 953 1613 
Q 991 1019 1311 708 
Q 1631 397 2203 397 
Q 2534 397 2845 478 
Q 3156 559 3463 722 
L 3463 178 
Q 3153 47 2828 -22 
Q 2503 -91 2169 -91 
Q 1331 -91 842 396 
Q 353 884 353 1716 
Q 353 2575 817 3079 
Q 1281 3584 2069 3584 
Q 2775 3584 3186 3129 
Q 3597 2675 3597 1894 
z
M 3022 2063 
Q 3016 2534 2758 2815 
Q 2500 3097 2075 3097 
Q 1594 3097 1305 2825 
Q 1016 2553 972 2059 
L 3022 2063 
z
" transform="scale(0.015625)"/>
       <path id="DejaVuSans-72" d="M 2631 2963 
Q 2534 3019 2420 3045 
Q 2306 3072 2169 3072 
Q 1681 3072 1420 2755 
Q 1159 2438 1159 1844 
L 1159 0 
L 581 0 
L 581 3500 
L 1159 3500 
L 1159 2956 
Q 1341 3275 1631 3429 
Q 1922 3584 2338 3584 
Q 2397 3584 2469 3576 
Q 2541 3569 2628 3553 
L 2631 2963 
z
" transform="scale(0.015625)"/>
      </defs>
      <use xlink:href="#DejaVuSans-67"/>
      <use xlink:href="#DejaVuSans-6c" x="63.476562"/>
      <use xlink:href="#DejaVuSans-6f" x="91.259766"/>
      <use xlink:href="#DejaVuSans-62" x="152.441406"/>
      <use xlink:href="#DejaVuSans-61" x="215.917969"/>
      <use xlink:href="#DejaVuSans-6c" x="277.197266"/>
      <use xlink:href="#DejaVuSans-20" x="304.980469"/>
      <use xlink:href="#DejaVuSans-69" x="336.767578"/>
      <use xlink:href="#DejaVuSans-74" x="364.550781"/>
      <use xlink:href="#DejaVuSans-65" x="403.759766"/>
      <use xlink:href="#DejaVuSans-72" x="465.283203"/>
     </g>
    </g>
   </g>
   <g id="matplotlib.axis_2">
    <g id="ytick_1">
     <g id="line2d_10">
      <defs>
       <path id="m4fc63133ba" d="M 0 0 
L -3.5 0 
" style="stroke: #000000; stroke-width: 0.8"/>
      </defs>
      <g>
       <use xlink:href="#m4fc63133ba" x="58.523438" y="280.574437" style="stroke: #000000; stroke-width: 0.8"/>
      </g>
     </g>
     <g id="text_11">
      <!-- −1.00 -->
      <g transform="translate(20.878125 284.373656) scale(0.1 -0.1)">
       <defs>
        <path id="DejaVuSans-2212" d="M 678 2272 
L 4684 2272 
L 4684 1741 
L 678 1741 
L 678 2272 
z
" transform="scale(0.015625)"/>
        <path id="DejaVuSans-2e" d="M 684 794 
L 1344 794 
L 1344 0 
L 684 0 
L 684 794 
z
" transform="scale(0.015625)"/>
       </defs>
       <use xlink:href="#DejaVuSans-2212"/>
       <use xlink:href="#DejaVuSans-31" x="83.789062"/>
       <use xlink:href="#DejaVuSans-2e" x="147.412109"/>
       <use xlink:href="#DejaVuSans-30" x="179.199219"/>
       <use xlink:href="#DejaVuSans-30" x="242.822266"/>
      </g>
     </g>
    </g>
    <g id="ytick_2">
     <g id="line2d_11">
      <g>
       <use xlink:href="#m4fc63133ba" x="58.523438" y="248.894437" style="stroke: #000000; stroke-width: 0.8"/>
      </g>
     </g>
     <g id="text_12">
      <!-- −0.75 -->
      <g transform="translate(20.878125 252.693656) scale(0.1 -0.1)">
       <use xlink:href="#DejaVuSans-2212"/>
       <use xlink:href="#DejaVuSans-30" x="83.789062"/>
       <use xlink:href="#DejaVuSans-2e" x="147.412109"/>
       <use xlink:href="#DejaVuSans-37" x="179.199219"/>
       <use xlink:href="#DejaVuSans-35" x="242.822266"/>
      </g>
     </g>
    </g>
    <g id="ytick_3">
     <g id="line2d_12">
      <g>
       <use xlink:href="#m4fc63133ba" x="58.523438" y="217.214437" style="stroke: #000000; stroke-width: 0.8"/>
      </g>
     </g>
     <g id="text_13">
      <!-- −0.50 -->
      <g transform="translate(20.878125 221.013656) scale(0.1 -0.1)">
       <use xlink:href="#DejaVuSans-2212"/>
       <use xlink:href="#DejaVuSans-30" x="83.789062"/>
       <use xlink:href="#DejaVuSans-2e" x="147.412109"/>
       <use xlink:href="#DejaVuSans-35" x="179.199219"/>
       <use xlink:href="#DejaVuSans-30" x="242.822266"/>
      </g>
     </g>
    </g>
    <g id="ytick_4">
     <g id="line2d_13">
      <g>
       <use xlink:href="#m4fc63133ba" x="58.523438" y="185.534437" style="stroke: #000000; stroke-width: 0.8"/>
      </g>
     </g>
     <g id="text_14">
      <!-- −0.25 -->
      <g transform="translate(20.878125 189.333656) scale(0.1 -0.1)">
       <use xlink:href="#DejaVuSans-2212"/>
       <use xlink:href="#DejaVuSans-30" x="83.789062"/>
       <use xlink:href="#DejaVuSans-2e" x="147.412109"/>
       <use xlink:href="#DejaVuSans-32" x="179.199219"/>
       <use xlink:href="#DejaVuSans-35" x="242.822266"/>
      </g>
     </g>
    </g>
    <g id="ytick_5">
     <g id="line2d_14">
      <g>
       <use xlink:href="#m4fc63133ba" x="58.523438" y="153.854437" style="stroke: #000000; stroke-width: 0.8"/>
      </g>
     </g>
     <g id="text_15">
      <!-- 0.00 -->
      <g transform="translate(29.257813 157.653656) scale(0.1 -0.1)">
       <use xlink:href="#DejaVuSans-30"/>
       <use xlink:href="#DejaVuSans-2e" x="63.623047"/>
       <use xlink:href="#DejaVuSans-30" x="95.410156"/>
       <use xlink:href="#DejaVuSans-30" x="159.033203"/>
      </g>
     </g>
    </g>
    <g id="ytick_6">
     <g id="line2d_15">
      <g>
       <use xlink:href="#m4fc63133ba" x="58.523438" y="122.174437" style="stroke: #000000; stroke-width: 0.8"/>
      </g>
     </g>
     <g id="text_16">
      <!-- 0.25 -->
      <g transform="translate(29.257813 125.973656) scale(0.1 -0.1)">
       <use xlink:href="#DejaVuSans-30"/>
       <use xlink:href="#DejaVuSans-2e" x="63.623047"/>
       <use xlink:href="#DejaVuSans-32" x="95.410156"/>
       <use xlink:href="#DejaVuSans-35" x="159.033203"/>
      </g>
     </g>
    </g>
    <g id="ytick_7">
     <g id="line2d_16">
      <g>
       <use xlink:href="#m4fc63133ba" x="58.523438" y="90.494437" style="stroke: #000000; stroke-width: 0.8"/>
      </g>
     </g>
     <g id="text_17">
      <!-- 0.50 -->
      <g transform="translate(29.257813 94.293656) scale(0.1 -0.1)">
       <use xlink:href="#DejaVuSans-30"/>
       <use xlink:href="#DejaVuSans-2e" x="63.623047"/>
       <use xlink:href="#DejaVuSans-35" x="95.410156"/>
       <use xlink:href="#DejaVuSans-30" x="159.033203"/>
      </g>
     </g>
    </g>
    <g id="ytick_8">
     <g id="line2d_17">
      <g>
       <use xlink:href="#m4fc63133ba" x="58.523438" y="58.814437" style="stroke: #000000; stroke-width: 0.8"/>
      </g>
     </g>
     <g id="text_18">
      <!-- 0.75 -->
      <g transform="translate(29.257813 62.613656) scale(0.1 -0.1)">
       <use xlink:href="#DejaVuSans-30"/>
       <use xlink:href="#DejaVuSans-2e" x="63.623047"/>
       <use xlink:href="#DejaVuSans-37" x="95.410156"/>
       <use xlink:href="#DejaVuSans-35" x="159.033203"/>
      </g>
     </g>
    </g>
    <g id="ytick_9">
     <g id="line2d_18">
      <g>
       <use xlink:href="#m4fc63133ba" x="58.523438" y="27.134437" style="stroke: #000000; stroke-width: 0.8"/>
      </g>
     </g>
     <g id="text_19">
      <!-- 1.00 -->
      <g transform="translate(29.257813 30.933656) scale(0.1 -0.1)">
       <use xlink:href="#DejaVuSans-31"/>
       <use xlink:href="#DejaVuSans-2e" x="63.623047"/>
       <use xlink:href="#DejaVuSans-30" x="95.410156"/>
       <use xlink:href="#DejaVuSans-30" x="159.033203"/>
      </g>
     </g>
    </g>
    <g id="text_20">
     <!-- cosine with current-task grad -->
     <g transform="translate(14.798438 227.106781) rotate(-90) scale(0.1 -0.1)">
      <defs>
       <path id="DejaVuSans-63" d="M 3122 3366 
L 3122 2828 
Q 2878 2963 2633 3030 
Q 2388 3097 2138 3097 
Q 1578 3097 1268 2742 
Q 959 2388 959 1747 
Q 959 1106 1268 751 
Q 1578 397 2138 397 
Q 2388 397 2633 464 
Q 2878 531 3122 666 
L 3122 134 
Q 2881 22 2623 -34 
Q 2366 -91 2075 -91 
Q 1284 -91 818 406 
Q 353 903 353 1747 
Q 353 2603 823 3093 
Q 1294 3584 2113 3584 
Q 2378 3584 2631 3529 
Q 2884 3475 3122 3366 
z
" transform="scale(0.015625)"/>
       <path id="DejaVuSans-73" d="M 2834 3397 
L 2834 2853 
Q 2591 2978 2328 3040 
Q 2066 3103 1784 3103 
Q 1356 3103 1142 2972 
Q 928 2841 928 2578 
Q 928 2378 1081 2264 
Q 1234 2150 1697 2047 
L 1894 2003 
Q 2506 1872 2764 1633 
Q 3022 1394 3022 966 
Q 3022 478 2636 193 
Q 2250 -91 1575 -91 
Q 1294 -91 989 -36 
Q 684 19 347 128 
L 347 722 
Q 666 556 975 473 
Q 1284 391 1588 391 
Q 1994 391 2212 530 
Q 2431 669 2431 922 
Q 2431 1156 2273 1281 
Q 2116 1406 1581 1522 
L 1381 1569 
Q 847 1681 609 1914 
Q 372 2147 372 2553 
Q 372 3047 722 3315 
Q 1072 3584 1716 3584 
Q 2034 3584 2315 3537 
Q 2597 3491 2834 3397 
z
" transform="scale(0.015625)"/>
       <path id="DejaVuSans-6e" d="M 3513 2113 
L 3513 0 
L 2938 0 
L 2938 2094 
Q 2938 2591 2744 2837 
Q 2550 3084 2163 3084 
Q 1697 3084 1428 2787 
Q 1159 2491 1159 1978 
L 1159 0 
L 581 0 
L 581 3500 
L 1159 3500 
L 1159 2956 
Q 1366 3272 1645 3428 
Q 1925 3584 2291 3584 
Q 2894 3584 3203 3211 
Q 3513 2838 3513 2113 
z
" transform="scale(0.015625)"/>
       <path id="DejaVuSans-77" d="M 269 3500 
L 844 3500 
L 1563 769 
L 2278 3500 
L 2956 3500 
L 3675 769 
L 4391 3500 
L 4966 3500 
L 4050 0 
L 3372 0 
L 2619 2869 
L 1863 0 
L 1184 0 
L 269 3500 
z
" transform="scale(0.015625)"/>
       <path id="DejaVuSans-68" d="M 3513 2113 
L 3513 0 
L 2938 0 
L 2938 2094 
Q 2938 2591 2744 2837 
Q 2550 3084 2163 3084 
Q 1697 3084 1428 2787 
Q 1159 2491 1159 1978 
L 1159 0 
L 581 0 
L 581 4863 
L 1159 4863 
L 1159 2956 
Q 1366 3272 1645 3428 
Q 1925 3584 2291 3584 
Q 2894 3584 3203 3211 
Q 3513 2838 3513 2113 
z
" transform="scale(0.015625)"/>
       <path id="DejaVuSans-75" d="M 544 1381 
L 544 3500 
L 1119 3500 
L 1119 1403 
Q 1119 906 1312 657 
Q 1506 409 1894 409 
Q 2359 409 2629 706 
Q 2900 1003 2900 1516 
L 2900 3500 
L 3475 3500 
L 3475 0 
L 2900 0 
L 2900 538 
Q 2691 219 2414 64 
Q 2138 -91 1772 -91 
Q 1169 -91 856 284 
Q 544 659 544 1381 
z
M 1991 3584 
L 1991 3584 
z
" transform="scale(0.015625)"/>
       <path id="DejaVuSans-2d" d="M 313 2009 
L 1997 2009 
L 1997 1497 
L 313 1497 
L 313 2009 
z
" transform="scale(0.015625)"/>
       <path id="DejaVuSans-6b" d="M 581 4863 
L 1159 4863 
L 1159 1991 
L 2875 3500 
L 3609 3500 
L 1753 1863 
L 3688 0 
L 2938 0 
L 1159 1709 
L 1159 0 
L 581 0 
L 581 4863 
z
" transform="scale(0.015625)"/>
       <path id="DejaVuSans-64" d="M 2906 2969 
L 2906 4863 
L 3481 4863 
L 3481 0 
L 2906 0 
L 2906 525 
Q 2725 213 2448 61 
Q 2172 -91 1784 -91 
Q 1150 -91 751 415 
Q 353 922 353 1747 
Q 353 2572 751 3078 
Q 1150 3584 1784 3584 
Q 2172 3584 2448 3432 
Q 2725 3281 2906 2969 
z
M 947 1747 
Q 947 1113 1208 752 
Q 1469 391 1925 391 
Q 2381 391 2643 752 
Q 2906 1113 2906 1747 
Q 2906 2381 2643 2742 
Q 2381 3103 1925 3103 
Q 1469 3103 1208 2742 
Q 947 2381 947 1747 
z
" transform="scale(0.015625)"/>
      </defs>
      <use xlink:href="#DejaVuSans-63"/>
      <use xlink:href="#DejaVuSans-6f" x="54.980469"/>
      <use xlink:href="#DejaVuSans-73" x="116.162109"/>
      <use xlink:href="#DejaVuSans-69" x="168.261719"/>
      <use xlink:href="#DejaVuSans-6e" x="196.044922"/>
      <use xlink:href="#DejaVuSans-65" x="259.423828"/>
      <use xlink:href="#DejaVuSans-20" x="320.947266"/>
      <use xlink:href="#DejaVuSans-77" x="352.734375"/>
      <use xlink:href="#DejaVuSans-69" x="434.521484"/>
      <use xlink:href="#DejaVuSans-74" x="462.304688"/>
      <use xlink:href="#DejaVuSans-68" x="501.513672"/>
      <use xlink:href="#DejaVuSans-20" x="564.892578"/>
      <use xlink:href="#DejaVuSans-63" x="596.679688"/>
      <use xlink:href="#DejaVuSans-75" x="651.660156"/>
      <use xlink:href="#DejaVuSans-72" x="715.039062"/>
      <use xlink:href="#DejaVuSans-72" x="754.402344"/>
      <use xlink:href="#DejaVuSans-65" x="793.265625"/>
      <use xlink:href="#DejaVuSans-6e" x="854.789062"/>
      <use xlink:href="#DejaVuSans-74" x="918.167969"/>
      <use xlink:href="#DejaVuSans-2d" x="957.376953"/>
      <use xlink:href="#DejaVuSans-74" x="993.460938"/>
      <use xlink:href="#DejaVuSans-61" x="1032.669922"/>
      <use xlink:href="#DejaVuSans-73" x="1093.949219"/>
      <use xlink:href="#DejaVuSans-6b" x="1146.048828"/>
      <use xlink:href="#DejaVuSans-20" x="1203.958984"/>
      <use xlink:href="#DejaVuSans-67" x="1235.746094"/>
      <use xlink:href="#DejaVuSans-72" x="1299.222656"/>
      <use xlink:href="#DejaVuSans-61" x="1340.335938"/>
      <use xlink:href="#DejaVuSans-64" x="1401.615234"/>
     </g>
    </g>
   </g>
   <g id="line2d_19">
    <path d="M 80.082528 153.751036 
L 93.991619 153.472146 
L 107.90071 145.099444 
L 121.809801 177.414193 
L 135.718892 201.790338 
L 149.627983 129.65449 
L 163.537074 120.048867 
M 191.355256 122.40483 
L 205.264347 137.139571 
L 219.173438 178.158153 
L 233.082528 146.080548 
M 274.809801 139.719696 
L 288.718892 116.166429 
L 302.627983 82.104242 
L 316.537074 156.481493 
L 330.446165 133.587433 
L 344.355256 181.362271 
L 358.264347 150.288208 
M 386.082528 172.911851 
L 399.991619 138.98833 
M 427.809801 196.020751 
L 441.718892 136.247069 
M 483.446165 143.515272 
L 497.355256 132.278194 
L 511.264347 133.179211 
" clip-path="url(#p2fa79138c7)" style="fill: none; stroke: #1f77b4; stroke-width: 1.5; stroke-linecap: square"/>
    <defs>
     <path id="me10519b6f3" d="M 0 1.5 
C 0.397805 1.5 0.77937 1.341951 1.06066 1.06066 
C 1.341951 0.77937 1.5 0.397805 1.5 0 
C 1.5 -0.397805 1.341951 -0.77937 1.06066 -1.06066 
C 0.77937 -1.341951 0.397805 -1.5 0 -1.5 
C -0.397805 -1.5 -0.77937 -1.341951 -1.06066 -1.06066 
C -1.341951 -0.77937 -1.5 -0.397805 -1.5 0 
C -1.5 0.397805 -1.341951 0.77937 -1.06066 1.06066 
C -0.77937 1.341951 -0.397805 1.5 0 1.5 
z
" style="stroke: #1f77b4"/>
    </defs>
    <g clip-path="url(#p2fa79138c7)">
     <use xlink:href="#me10519b6f3" x="80.082528" y="153.751036" style="fill: #1f77b4; stroke: #1f77b4"/>
     <use xlink:href="#me10519b6f3" x="93.991619" y="153.472146" style="fill: #1f77b4; stroke: #1f77b4"/>
     <use xlink:href="#me10519b6f3" x="107.90071" y="145.099444" style="fill: #1f77b4; stroke: #1f77b4"/>
     <use xlink:href="#me10519b6f3" x="121.809801" y="177.414193" style="fill: #1f77b4; stroke: #1f77b4"/>
     <use xlink:href="#me10519b6f3" x="135.718892" y="201.790338" style="fill: #1f77b4; stroke: #1f77b4"/>
     <use xlink:href="#me10519b6f3" x="149.627983" y="129.65449" style="fill: #1f77b4; stroke: #1f77b4"/>
     <use xlink:href="#me10519b6f3" x="163.537074" y="120.048867" style="fill: #1f77b4; stroke: #1f77b4"/>
     <use xlink:href="#me10519b6f3" x="191.355256" y="122.40483" style="fill: #1f77b4; stroke: #1f77b4"/>
     <use xlink:href="#me10519b6f3" x="205.264347" y="137.139571" style="fill: #1f77b4; stroke: #1f77b4"/>
     <use xlink:href="#me10519b6f3" x="219.173438" y="178.158153" style="fill: #1f77b4; stroke: #1f77b4"/>
     <use xlink:href="#me10519b6f3" x="233.082528" y="146.080548" style="fill: #1f77b4; stroke: #1f77b4"/>
     <use xlink:href="#me10519b6f3" x="274.809801" y="139.719696" style="fill: #1f77b4; stroke: #1f77b4"/>
     <use xlink:href="#me10519b6f3" x="288.718892" y="116.166429" style="fill: #1f77b4; stroke: #1f77b4"/>
     <use xlink:href="#me10519b6f3" x="302.627983" y="82.104242" style="fill: #1f77b4; stroke: #1f77b4"/>
     <use xlink:href="#me10519b6f3" x="316.537074" y="156.481493" style="fill: #1f77b4; stroke: #1f77b4"/>
     <use xlink:href="#me10519b6f3" x="330.446165" y="133.587433" style="fill: #1f77b4; stroke: #1f77b4"/>
     <use xlink:href="#me10519b6f3" x="344.355256" y="181.362271" style="fill: #1f77b4; stroke: #1f77b4"/>
     <use xlink:href="#me10519b6f3" x="358.264347" y="150.288208" style="fill: #1f77b4; stroke: #1f77b4"/>
     <use xlink:href="#me10519b6f3" x="386.082528" y="172.911851" style="fill: #1f77b4; stroke: #1f77b4"/>
     <use xlink:href="#me10519b6f3" x="399.991619" y="138.98833" style="fill: #1f77b4; stroke: #1f77b4"/>
     <use xlink:href="#me10519b6f3" x="427.809801" y="196.020751" style="fill: #1f77b4; stroke: #1f77b4"/>
     <use xlink:href="#me10519b6f3" x="441.718892" y="136.247069" style="fill: #1f77b4; stroke: #1f77b4"/>
     <use xlink:href="#me10519b6f3" x="483.446165" y="143.515272" style="fill: #1f77b4; stroke: #1f77b4"/>
     <use xlink:href="#me10519b6f3" x="497.355256" y="132.278194" style="fill: #1f77b4; stroke: #1f77b4"/>
     <use xlink:href="#me10519b6f3" x="511.264347" y="133.179211" style="fill: #1f77b4; stroke: #1f77b4"/>
    </g>
   </g>
   <g id="line2d_20">
    <path d="M 80.082528 154.112771 
L 93.991619 147.917649 
L 107.90071 156.930059 
L 121.809801 147.269422 
L 135.718892 157.338172 
L 149.627983 149.02973 
L 163.537074 158.733982 
M 191.355256 140.783844 
L 205.264347 151.524407 
L 219.173438 150.500284 
L 233.082528 160.12178 
M 274.809801 154.198034 
L 288.718892 155.421207 
L 302.627983 169.626894 
L 316.537074 153.850279 
L 330.446165 135.135524 
L 344.355256 153.26548 
L 358.264347 159.739548 
M 386.082528 164.685961 
L 399.991619 168.257441 
M 427.809801 151.5173 
L 441.718892 155.401172 
M 483.446165 168.942718 
L 497.355256 158.811957 
L 511.264347 154.516633 
" clip-path="url(#p2fa79138c7)" style="fill: none; stroke: #ff7f0e; stroke-width: 1.5; stroke-linecap: square"/>
    <defs>
     <path id="m886eeccdbd" d="M 0 1.5 
C 0.397805 1.5 0.77937 1.341951 1.06066 1.06066 
C 1.341951 0.77937 1.5 0.397805 1.5 0 
C 1.5 -0.397805 1.341951 -0.77937 1.06066 -1.06066 
C 0.77937 -1.341951 0.397805 -1.5 0 -1.5 
C -0.397805 -1.5 -0.77937 -1.341951 -1.06066 -1.06066 
C -1.341951 -0.77937 -1.5 -0.397805 -1.5 0 
C -1.5 0.397805 -1.341951 0.77937 -1.06066 1.06066 
C -0.77937 1.341951 -0.397805 1.5 0 1.5 
z
" style="stroke: #ff7f0e"/>
    </defs>
    <g clip-path="url(#p2fa79138c7)">
     <use xlink:href="#m886eeccdbd" x="80.082528" y="154.112771" style="fill: #ff7f0e; stroke: #ff7f0e"/>
     <use xlink:href="#m886eeccdbd" x="93.991619" y="147.917649" style="fill: #ff7f0e; stroke: #ff7f0e"/>
     <use xlink:href="#m886eeccdbd" x="107.90071" y="156.930059" style="fill: #ff7f0e; stroke: #ff7f0e"/>
     <use xlink:href="#m886eeccdbd" x="121.809801" y="147.269422" style="fill: #ff7f0e; stroke: #ff7f0e"/>
     <use xlink:href="#m886eeccdbd" x="135.718892" y="157.338172" style="fill: #ff7f0e; stroke: #ff7f0e"/>
     <use xlink:href="#m886eeccdbd" x="149.627983" y="149.02973" style="fill: #ff7f0e; stroke: #ff7f0e"/>
     <use xlink:href="#m886eeccdbd" x="163.537074" y="158.733982" style="fill: #ff7f0e; stroke: #ff7f0e"/>
     <use xlink:href="#m886eeccdbd" x="191.355256" y="140.783844" style="fill: #ff7f0e; stroke: #ff7f0e"/>
     <use xlink:href="#m886eeccdbd" x="205.264347" y="151.524407" style="fill: #ff7f0e; stroke: #ff7f0e"/>
     <use xlink:href="#m886eeccdbd" x="219.173438" y="150.500284" style="fill: #ff7f0e; stroke: #ff7f0e"/>
     <use xlink:href="#m886eeccdbd" x="233.082528" y="160.12178" style="fill: #ff7f0e; stroke: #ff7f0e"/>
     <use xlink:href="#m886eeccdbd" x="274.809801" y="154.198034" style="fill: #ff7f0e; stroke: #ff7f0e"/>
     <use xlink:href="#m886eeccdbd" x="288.718892" y="155.421207" style="fill: #ff7f0e; stroke: #ff7f0e"/>
     <use xlink:href="#m886eeccdbd" x="302.627983" y="169.626894" style="fill: #ff7f0e; stroke: #ff7f0e"/>
     <use xlink:href="#m886eeccdbd" x="316.537074" y="153.850279" style="fill: #ff7f0e; stroke: #ff7f0e"/>
     <use xlink:href="#m886eeccdbd" x="330.446165" y="135.135524" style="fill: #ff7f0e; stroke: #ff7f0e"/>
     <use xlink:href="#m886eeccdbd" x="344.355256" y="153.26548" style="fill: #ff7f0e; stroke: #ff7f0e"/>
     <use xlink:href="#m886eeccdbd" x="358.264347" y="159.739548" style="fill: #ff7f0e; stroke: #ff7f0e"/>
     <use xlink:href="#m886eeccdbd" x="386.082528" y="164.685961" style="fill: #ff7f0e; stroke: #ff7f0e"/>
     <use xlink:href="#m886eeccdbd" x="399.991619" y="168.257441" style="fill: #ff7f0e; stroke: #ff7f0e"/>
     <use xlink:href="#m886eeccdbd" x="427.809801" y="151.5173" style="fill: #ff7f0e; stroke: #ff7f0e"/>
     <use xlink:href="#m886eeccdbd" x="441.718892" y="155.401172" style="fill: #ff7f0e; stroke: #ff7f0e"/>
     <use xlink:href="#m886eeccdbd" x="483.446165" y="168.942718" style="fill: #ff7f0e; stroke: #ff7f0e"/>
     <use xlink:href="#m886eeccdbd" x="497.355256" y="158.811957" style="fill: #ff7f0e; stroke: #ff7f0e"/>
     <use xlink:href="#m886eeccdbd" x="511.264347" y="154.516633" style="fill: #ff7f0e; stroke: #ff7f0e"/>
    </g>
   </g>
   <g id="line2d_21">
    <path d="M 80.082528 153.885435 
L 93.991619 150.607353 
L 107.90071 149.502937 
L 121.809801 173.745165 
L 135.718892 201.264687 
L 149.627983 131.257415 
L 163.537074 122.182971 
M 191.355256 121.393228 
L 205.264347 139.531176 
L 219.173438 173.032132 
L 233.082528 150.857225 
M 274.809801 145.348508 
L 288.718892 120.608344 
L 302.627983 106.112135 
L 316.537074 155.570241 
L 330.446165 129.222364 
L 344.355256 179.69681 
L 358.264347 154.041986 
M 386.082528 175.307084 
L 399.991619 148.521587 
M 427.809801 185.774841 
L 441.718892 140.957589 
M 483.446165 151.08594 
L 497.355256 141.517969 
L 511.264347 141.903165 
" clip-path="url(#p2fa79138c7)" style="fill: none; stroke-dasharray: 8.88,3.84; stroke-dashoffset: 0; stroke: #000000; stroke-width: 2.4"/>
   </g>
   <g id="line2d_22">
    <path d="M 58.523438 153.854437 
L 532.823438 153.854437 
" clip-path="url(#p2fa79138c7)" style="fill: none; stroke: #999999; stroke-width: 0.8; stroke-linecap: square"/>
   </g>
   <g id="patch_3">
    <path d="M 58.523438 286.910437 
L 58.523438 20.798437 
" style="fill: none; stroke: #000000; stroke-width: 0.8; stroke-linejoin: miter; stroke-linecap: square"/>
   </g>
   <g id="patch_4">
    <path d="M 532.823438 286.910437 
L 532.823438 20.798437 
" style="fill: none; stroke: #000000; stroke-width: 0.8; stroke-linejoin: miter; stroke-linecap: square"/>
   </g>
   <g id="patch_5">
    <path d="M 58.523438 286.910437 
L 532.823438 286.910437 
" style="fill: none; stroke: #000000; stroke-width: 0.8; stroke-linejoin: miter; stroke-linecap: square"/>
   </g>
   <g id="patch_6">
    <path d="M 58.523438 20.798437 
L 532.823438 20.798437 
" style="fill: none; stroke: #000000; stroke-width: 0.8; stroke-linejoin: miter; stroke-linecap: square"/>
   </g>
   <g id="text_21">
    <!-- task 3: per-old-task gradient alignment — does the aggregate hide per-task conflict? -->
    <g transform="translate(83.814063 14.798437) scale(0.1 -0.1)">
     <defs>
      <path id="DejaVuSans-3a" d="M 750 794 
L 1409 794 
L 1409 0 
L 750 0 
L 750 794 
z
M 750 3309 
L 1409 3309 
L 1409 2516 
L 750 2516 
L 750 3309 
z
" transform="scale(0.015625)"/>
      <path id="DejaVuSans-70" d="M 1159 525 
L 1159 -1331 
L 581 -1331 
L 581 3500 
L 1159 3500 
L 1159 2969 
Q 1341 3281 1617 3432 
Q 1894 3584 2278 3584 
Q 2916 3584 3314 3078 
Q 3713 2572 3713 1747 
Q 3713 922 3314 415 
Q 2916 -91 2278 -91 
Q 1894 -91 1617 61 
Q 1341 213 1159 525 
z
M 3116 1747 
Q 3116 2381 2855 2742 
Q 2594 3103 2138 3103 
Q 1681 3103 1420 2742 
Q 1159 2381 1159 1747 
Q 1159 1113 1420 752 
Q 1681 391 2138 391 
Q 2594 391 2855 752 
Q 3116 1113 3116 1747 
z
" transform="scale(0.015625)"/>
      <path id="DejaVuSans-6d" d="M 3328 2828 
Q 3544 3216 3844 3400 
Q 4144 3584 4550 3584 
Q 5097 3584 5394 3201 
Q 5691 2819 5691 2113 
L 5691 0 
L 5113 0 
L 5113 2094 
Q 5113 2597 4934 2840 
Q 4756 3084 4391 3084 
Q 3944 3084 3684 2787 
Q 3425 2491 3425 1978 
L 3425 0 
L 2847 0 
L 2847 2094 
Q 2847 2600 2669 2842 
Q 2491 3084 2119 3084 
Q 1678 3084 1418 2786 
Q 1159 2488 1159 1978 
L 1159 0 
L 581 0 
L 581 3500 
L 1159 3500 
L 1159 2956 
Q 1356 3278 1631 3431 
Q 1906 3584 2284 3584 
Q 2666 3584 2933 3390 
Q 3200 3197 3328 2828 
z
" transform="scale(0.015625)"/>
      <path id="DejaVuSans-2014" d="M 313 1978 
L 6088 1978 
L 6088 1528 
L 313 1528 
L 313 1978 
z
" transform="scale(0.015625)"/>
      <path id="DejaVuSans-66" d="M 2375 4863 
L 2375 4384 
L 1825 4384 
Q 1516 4384 1395 4259 
Q 1275 4134 1275 3809 
L 1275 3500 
L 2222 3500 
L 2222 3053 
L 1275 3053 
L 1275 0 
L 697 0 
L 697 3053 
L 147 3053 
L 147 3500 
L 697 3500 
L 697 3744 
Q 697 4328 969 4595 
Q 1241 4863 1831 4863 
L 2375 4863 
z
" transform="scale(0.015625)"/>
      <path id="DejaVuSans-3f" d="M 1222 794 
L 1856 794 
L 1856 0 
L 1222 0 
L 1222 794 
z
M 1838 1253 
L 1241 1253 
L 1241 1734 
Q 1241 2050 1328 2253 
Q 1416 2456 1697 2725 
L 1978 3003 
Q 2156 3169 2236 3316 
Q 2316 3463 2316 3616 
Q 2316 3894 2111 4066 
Q 1906 4238 1569 4238 
Q 1322 4238 1042 4128 
Q 763 4019 459 3809 
L 459 4397 
Q 753 4575 1054 4662 
Q 1356 4750 1678 4750 
Q 2253 4750 2601 4447 
Q 2950 4144 2950 3647 
Q 2950 3409 2837 3195 
Q 2725 2981 2444 2713 
L 2169 2444 
Q 2022 2297 1961 2214 
Q 1900 2131 1875 2053 
Q 1856 1988 1847 1894 
Q 1838 1800 1838 1638 
L 1838 1253 
z
" transform="scale(0.015625)"/>
     </defs>
     <use xlink:href="#DejaVuSans-74"/>
     <use xlink:href="#DejaVuSans-61" x="39.208984"/>
     <use xlink:href="#DejaVuSans-73" x="100.488281"/>
     <use xlink:href="#DejaVuSans-6b" x="152.587891"/>
     <use xlink:href="#DejaVuSans-20" x="210.498047"/>
     <use xlink:href="#DejaVuSans-33" x="242.285156"/>
     <use xlink:href="#DejaVuSans-3a" x="305.908203"/>
     <use xlink:href="#DejaVuSans-20" x="339.599609"/>
     <use xlink:href="#DejaVuSans-70" x="371.386719"/>
     <use xlink:href="#DejaVuSans-65" x="434.863281"/>
     <use xlink:href="#DejaVuSans-72" x="496.386719"/>
     <use xlink:href="#DejaVuSans-2d" x="531.125"/>
     <use xlink:href="#DejaVuSans-6f" x="569.083984"/>
     <use xlink:href="#DejaVuSans-6c" x="630.265625"/>
     <use xlink:href="#DejaVuSans-64" x="658.048828"/>
     <use xlink:href="#DejaVuSans-2d" x="721.525391"/>
     <use xlink:href="#DejaVuSans-74" x="757.609375"/>
     <use xlink:href="#DejaVuSans-61" x="796.818359"/>
     <use xlink:href="#DejaVuSans-73" x="858.097656"/>
     <use xlink:href="#DejaVuSans-6b" x="910.197266"/>
     <use xlink:href="#DejaVuSans-20" x="968.107422"/>
     <use xlink:href="#DejaVuSans-67" x="999.894531"/>
     <use xlink:href="#DejaVuSans-72" x="1063.371094"/>
     <use xlink:href="#DejaVuSans-61" x="1104.484375"/>
     <use xlink:href="#DejaVuSans-64" x="1165.763672"/>
     <use xlink:href="#DejaVuSans-69" x="1229.240234"/>
     <use xlink:href="#DejaVuSans-65" x="1257.023438"/>
     <use xlink:href="#DejaVuSans-6e" x="1318.546875"/>
     <use xlink:href="#DejaVuSans-74" x="1381.925781"/>
     <use xlink:href="#DejaVuSans-20" x="1421.134766"/>
     <use xlink:href="#DejaVuSans-61" x="1452.921875"/>
     <use xlink:href="#DejaVuSans-6c" x="1514.201172"/>
     <use xlink:href="#DejaVuSans-69" x="1541.984375"/>
     <use xlink:href="#DejaVuSans-67" x="1569.767578"/>
     <use xlink:href="#DejaVuSans-6e" x="1633.244141"/>
     <use xlink:href="#DejaVuSans-6d" x="1696.623047"/>
     <use xlink:href="#DejaVuSans-65" x="1794.035156"/>
     <use xlink:href="#DejaVuSans-6e" x="1855.558594"/>
     <use xlink:href="#DejaVuSans-74" x="1918.9375"/>
     <use xlink:href="#DejaVuSans-20" x="1958.146484"/>
     <use xlink:href="#DejaVuSans-2014" x="1989.933594"/>
     <use xlink:href="#DejaVuSans-20" x="2089.933594"/>
     <use xlink:href="#DejaVuSans-64" x="2121.720703"/>
     <use xlink:href="#DejaVuSans-6f" x="2185.197266"/>
     <use xlink:href="#DejaVuSans-65" x="2246.378906"/>
     <use xlink:href="#DejaVuSans-73" x="2307.902344"/>
     <use xlink:href="#DejaVuSans-20" x="2360.001953"/>
     <use xlink:href="#DejaVuSans-74" x="2391.789062"/>
     <use xlink:href="#DejaVuSans-68" x="2430.998047"/>
     <use xlink:href="#DejaVuSans-65" x="2494.376953"/>
     <use xlink:href="#DejaVuSans-20" x="2555.900391"/>
     <use xlink:href="#DejaVuSans-61" x="2587.6875"/>
     <use xlink:href="#DejaVuSans-67" x="2648.966797"/>
     <use xlink:href="#DejaVuSans-67" x="2712.443359"/>
     <use xlink:href="#DejaVuSans-72" x="2775.919922"/>
     <use xlink:href="#DejaVuSans-65" x="2814.783203"/>
     <use xlink:href="#DejaVuSans-67" x="2876.306641"/>
     <use xlink:href="#DejaVuSans-61" x="2939.783203"/>
     <use xlink:href="#DejaVuSans-74" x="3001.0625"/>
     <use xlink:href="#DejaVuSans-65" x="3040.271484"/>
     <use xlink:href="#DejaVuSans-20" x="3101.794922"/>
     <use xlink:href="#DejaVuSans-68" x="3133.582031"/>
     <use xlink:href="#DejaVuSans-69" x="3196.960938"/>
     <use xlink:href="#DejaVuSans-64" x="3224.744141"/>
     <use xlink:href="#DejaVuSans-65" x="3288.220703"/>
     <use xlink:href="#DejaVuSans-20" x="3349.744141"/>
     <use xlink:href="#DejaVuSans-70" x="3381.53125"/>
     <use xlink:href="#DejaVuSans-65" x="3445.007812"/>
     <use xlink:href="#DejaVuSans-72" x="3506.53125"/>
     <use xlink:href="#DejaVuSans-2d" x="3541.269531"/>
     <use xlink:href="#DejaVuSans-74" x="3577.353516"/>
     <use xlink:href="#DejaVuSans-61" x="3616.5625"/>
     <use xlink:href="#DejaVuSans-73" x="3677.841797"/>
     <use xlink:href="#DejaVuSans-6b" x="3729.941406"/>
     <use xlink:href="#DejaVuSans-20" x="3787.851562"/>
     <use xlink:href="#DejaVuSans-63" x="3819.638672"/>
     <use xlink:href="#DejaVuSans-6f" x="3874.619141"/>
     <use xlink:href="#DejaVuSans-6e" x="3935.800781"/>
     <use xlink:href="#DejaVuSans-66" x="3999.179688"/>
     <use xlink:href="#DejaVuSans-6c" x="4034.384766"/>
     <use xlink:href="#DejaVuSans-69" x="4062.167969"/>
     <use xlink:href="#DejaVuSans-63" x="4089.951172"/>
     <use xlink:href="#DejaVuSans-74" x="4144.931641"/>
     <use xlink:href="#DejaVuSans-3f" x="4184.140625"/>
    </g>
   </g>
   <g id="legend_1">
    <g id="patch_7">
     <path d="M 379.863438 63.093437 
L 527.223438 63.093437 
Q 528.823438 63.093437 528.823438 61.493437 
L 528.823438 26.398437 
Q 528.823438 24.798437 527.223438 24.798437 
L 379.863438 24.798437 
Q 378.263438 24.798437 378.263438 26.398437 
L 378.263438 61.493437 
Q 378.263438 63.093437 379.863438 63.093437 
z
" style="fill: #ffffff; opacity: 0.8; stroke: #cccccc; stroke-linejoin: miter"/>
    </g>
    <g id="line2d_23">
     <path d="M 381.463438 31.277187 
L 389.463438 31.277187 
L 397.463438 31.277187 
" style="fill: none; stroke: #1f77b4; stroke-width: 1.5; stroke-linecap: square"/>
     <g>
      <use xlink:href="#me10519b6f3" x="389.463438" y="31.277187" style="fill: #1f77b4; stroke: #1f77b4"/>
     </g>
    </g>
    <g id="text_22">
     <!-- cos(g_new, Pong) -->
     <g transform="translate(403.863438 34.077187) scale(0.08 -0.08)">
      <defs>
       <path id="DejaVuSans-28" d="M 1984 4856 
Q 1566 4138 1362 3434 
Q 1159 2731 1159 2009 
Q 1159 1288 1364 580 
Q 1569 -128 1984 -844 
L 1484 -844 
Q 1016 -109 783 600 
Q 550 1309 550 2009 
Q 550 2706 781 3412 
Q 1013 4119 1484 4856 
L 1984 4856 
z
" transform="scale(0.015625)"/>
       <path id="DejaVuSans-5f" d="M 3263 -1063 
L 3263 -1509 
L -63 -1509 
L -63 -1063 
L 3263 -1063 
z
" transform="scale(0.015625)"/>
       <path id="DejaVuSans-2c" d="M 750 794 
L 1409 794 
L 1409 256 
L 897 -744 
L 494 -744 
L 750 256 
L 750 794 
z
" transform="scale(0.015625)"/>
       <path id="DejaVuSans-50" d="M 1259 4147 
L 1259 2394 
L 2053 2394 
Q 2494 2394 2734 2622 
Q 2975 2850 2975 3272 
Q 2975 3691 2734 3919 
Q 2494 4147 2053 4147 
L 1259 4147 
z
M 628 4666 
L 2053 4666 
Q 2838 4666 3239 4311 
Q 3641 3956 3641 3272 
Q 3641 2581 3239 2228 
Q 2838 1875 2053 1875 
L 1259 1875 
L 1259 0 
L 628 0 
L 628 4666 
z
" transform="scale(0.015625)"/>
       <path id="DejaVuSans-29" d="M 513 4856 
L 1013 4856 
Q 1481 4119 1714 3412 
Q 1947 2706 1947 2009 
Q 1947 1309 1714 600 
Q 1481 -109 1013 -844 
L 513 -844 
Q 928 -128 1133 580 
Q 1338 1288 1338 2009 
Q 1338 2731 1133 3434 
Q 928 4138 513 4856 
z
" transform="scale(0.015625)"/>
      </defs>
      <use xlink:href="#DejaVuSans-63"/>
      <use xlink:href="#DejaVuSans-6f" x="54.980469"/>
      <use xlink:href="#DejaVuSans-73" x="116.162109"/>
      <use xlink:href="#DejaVuSans-28" x="168.261719"/>
      <use xlink:href="#DejaVuSans-67" x="207.275391"/>
      <use xlink:href="#DejaVuSans-5f" x="270.751953"/>
      <use xlink:href="#DejaVuSans-6e" x="320.751953"/>
      <use xlink:href="#DejaVuSans-65" x="384.130859"/>
      <use xlink:href="#DejaVuSans-77" x="445.654297"/>
      <use xlink:href="#DejaVuSans-2c" x="527.441406"/>
      <use xlink:href="#DejaVuSans-20" x="559.228516"/>
      <use xlink:href="#DejaVuSans-50" x="591.015625"/>
      <use xlink:href="#DejaVuSans-6f" x="647.693359"/>
      <use xlink:href="#DejaVuSans-6e" x="708.875"/>
      <use xlink:href="#DejaVuSans-67" x="772.253906"/>
      <use xlink:href="#DejaVuSans-29" x="835.730469"/>
     </g>
    </g>
    <g id="line2d_24">
     <path d="M 381.463438 43.242187 
L 389.463438 43.242187 
L 397.463438 43.242187 
" style="fill: none; stroke: #ff7f0e; stroke-width: 1.5; stroke-linecap: square"/>
     <g>
      <use xlink:href="#m886eeccdbd" x="389.463438" y="43.242187" style="fill: #ff7f0e; stroke: #ff7f0e"/>
     </g>
    </g>
    <g id="text_23">
     <!-- cos(g_new, Breakout) -->
     <g transform="translate(403.863438 46.042187) scale(0.08 -0.08)">
      <defs>
       <path id="DejaVuSans-42" d="M 1259 2228 
L 1259 519 
L 2272 519 
Q 2781 519 3026 730 
Q 3272 941 3272 1375 
Q 3272 1813 3026 2020 
Q 2781 2228 2272 2228 
L 1259 2228 
z
M 1259 4147 
L 1259 2741 
L 2194 2741 
Q 2656 2741 2882 2914 
Q 3109 3088 3109 3444 
Q 3109 3797 2882 3972 
Q 2656 4147 2194 4147 
L 1259 4147 
z
M 628 4666 
L 2241 4666 
Q 2963 4666 3353 4366 
Q 3744 4066 3744 3513 
Q 3744 3084 3544 2831 
Q 3344 2578 2956 2516 
Q 3422 2416 3680 2098 
Q 3938 1781 3938 1306 
Q 3938 681 3513 340 
Q 3088 0 2303 0 
L 628 0 
L 628 4666 
z
" transform="scale(0.015625)"/>
      </defs>
      <use xlink:href="#DejaVuSans-63"/>
      <use xlink:href="#DejaVuSans-6f" x="54.980469"/>
      <use xlink:href="#DejaVuSans-73" x="116.162109"/>
      <use xlink:href="#DejaVuSans-28" x="168.261719"/>
      <use xlink:href="#DejaVuSans-67" x="207.275391"/>
      <use xlink:href="#DejaVuSans-5f" x="270.751953"/>
      <use xlink:href="#DejaVuSans-6e" x="320.751953"/>
      <use xlink:href="#DejaVuSans-65" x="384.130859"/>
      <use xlink:href="#DejaVuSans-77" x="445.654297"/>
      <use xlink:href="#DejaVuSans-2c" x="527.441406"/>
      <use xlink:href="#DejaVuSans-20" x="559.228516"/>
      <use xlink:href="#DejaVuSans-42" x="591.015625"/>
      <use xlink:href="#DejaVuSans-72" x="659.619141"/>
      <use xlink:href="#DejaVuSans-65" x="698.482422"/>
      <use xlink:href="#DejaVuSans-61" x="760.005859"/>
      <use xlink:href="#DejaVuSans-6b" x="821.285156"/>
      <use xlink:href="#DejaVuSans-6f" x="875.570312"/>
      <use xlink:href="#DejaVuSans-75" x="936.751953"/>
      <use xlink:href="#DejaVuSans-74" x="1000.130859"/>
      <use xlink:href="#DejaVuSans-29" x="1039.339844"/>
     </g>
    </g>
    <g id="line2d_25">
     <path d="M 381.463438 55.207187 
L 389.463438 55.207187 
L 397.463438 55.207187 
" style="fill: none; stroke-dasharray: 8.88,3.84; stroke-dashoffset: 0; stroke: #000000; stroke-width: 2.4"/>
    </g>
    <g id="text_24">
     <!-- cos(g_new, Σ g_i)  [aggregate] -->
     <g transform="translate(403.863438 58.007187) scale(0.08 -0.08)">
      <defs>
       <path id="DejaVuSans-3a3" d="M 1353 531 
L 3634 531 
L 3634 0 
L 628 0 
L 628 531 
L 2125 2481 
L 628 4134 
L 628 4666 
L 3578 4666 
L 3578 4134 
L 1353 4134 
L 2850 2494 
L 1353 531 
z
" transform="scale(0.015625)"/>
       <path id="DejaVuSans-5b" d="M 550 4863 
L 1875 4863 
L 1875 4416 
L 1125 4416 
L 1125 -397 
L 1875 -397 
L 1875 -844 
L 550 -844 
L 550 4863 
z
" transform="scale(0.015625)"/>
       <path id="DejaVuSans-5d" d="M 1947 4863 
L 1947 -844 
L 622 -844 
L 622 -397 
L 1369 -397 
L 1369 4416 
L 622 4416 
L 622 4863 
L 1947 4863 
z
" transform="scale(0.015625)"/>
      </defs>
      <use xlink:href="#DejaVuSans-63"/>
      <use xlink:href="#DejaVuSans-6f" x="54.980469"/>
      <use xlink:href="#DejaVuSans-73" x="116.162109"/>
      <use xlink:href="#DejaVuSans-28" x="168.261719"/>
      <use xlink:href="#DejaVuSans-67" x="207.275391"/>
      <use xlink:href="#DejaVuSans-5f" x="270.751953"/>
      <use xlink:href="#DejaVuSans-6e" x="320.751953"/>
      <use xlink:href="#DejaVuSans-65" x="384.130859"/>
      <use xlink:href="#DejaVuSans-77" x="445.654297"/>
      <use xlink:href="#DejaVuSans-2c" x="527.441406"/>
      <use xlink:href="#DejaVuSans-20" x="559.228516"/>
      <use xlink:href="#DejaVuSans-3a3" x="591.015625"/>
      <use xlink:href="#DejaVuSans-20" x="654.199219"/>
      <use xlink:href="#DejaVuSans-67" x="685.986328"/>
      <use xlink:href="#DejaVuSans-5f" x="749.462891"/>
      <use xlink:href="#DejaVuSans-69" x="799.462891"/>
      <use xlink:href="#DejaVuSans-29" x="827.246094"/>
      <use xlink:href="#DejaVuSans-20" x="866.259766"/>
      <use xlink:href="#DejaVuSans-20" x="898.046875"/>
      <use xlink:href="#DejaVuSans-5b" x="929.833984"/>
      <use xlink:href="#DejaVuSans-61" x="968.847656"/>
      <use xlink:href="#DejaVuSans-67" x="1030.126953"/>
      <use xlink:href="#DejaVuSans-67" x="1093.603516"/>
      <use xlink:href="#DejaVuSans-72" x="1157.080078"/>
      <use xlink:href="#DejaVuSans-65" x="1195.943359"/>
      <use xlink:href="#DejaVuSans-67" x="1257.466797"/>
      <use xlink:href="#DejaVuSans-61" x="1320.943359"/>
      <use xlink:href="#DejaVuSans-74" x="1382.222656"/>
      <use xlink:href="#DejaVuSans-65" x="1421.431641"/>
      <use xlink:href="#DejaVuSans-5d" x="1482.955078"/>
     </g>
    </g>
   </g>
  </g>
 </g>
 <defs>
  <clipPath id="p2fa79138c7">
   <rect x="58.523438" y="20.798437" width="474.3" height="266.112"/>
  </clipPath>
 </defs>
</svg>
