<?xml version="1.0" encoding="utf-8" standalone="no"?>
<!DOCTYPE svg PUBLIC "-//W3C//DTD SVG 1.1//EN"
  "http://www.w3.org/Graphics/SVG/1.1/DTD/svg11.dtd">
<svg xmlns:xlink="http://www.w3.org/1999/xlink" width="835.763437pt" height="319.94025pt" viewBox="0 0 835.763437 319.94025" xmlns="http://www.w3.org/2000/svg" version="1.1">
 <metadata>
  <rdf:RDF xmlns:dc="http://purl.org/dc/elements/1.1/" xmlns:cc="http://creativecommons.org/ns#" xmlns:rdf="http://www.w3.org/1999/02/22-rdf-syntax-ns#">
   <cc:Work>
    <dc:type rdf:resource="http://purl.org/dc/dcmitype/StillImage"/>
    <dc:date>2026-07-22T23:30:50.952933</dc:date>
    <dc:format>image/svg+xml</dc:format>
    <dc:creator>
     <cc:Agent>
      <dc:title>Matplotlib v3.7.1, https://matplotlib.org/</dc:title>
     </cc:Agent>
    </dc:creator>
   </cc:Work>
  </rdf:RDF>
 </metadata>
 <defs>
  <style type="text/css">*{stroke-linejoin: round; stroke-linecap: butt}</style>
 </defs>
 <g id="figure_1">
  <g id="patch_1">
   <path d="M 0 319.94025 
L 835.763437 319.94025 
L 835.763437 0 
L 0 0 
z
" style="fill: #ffffff"/>
  </g>
  <g id="axes_1">
   <g id="patch_2">
    <path d="M 58.523438 282.384 
L 285.00579 282.384 
L 285.00579 49.536 
L 58.523438 49.536 
z
" style="fill: #ffffff"/>
   </g>
   <g id="matplotlib.axis_1">
    <g id="xtick_1">
     <g id="line2d_1">
      <defs>
       <path id="me398c41e65" d="M 0 0 
L 0 3.5 
" style="stroke: #000000; stroke-width: 0.8"/>
      </defs>
      <g>
       <use xlink:href="#me398c41e65" x="68.81809" y="282.384" style="stroke: #000000; stroke-width: 0.8"/>
      </g>
     </g>
     <g id="text_1">
      <!-- 0 -->
      <g transform="translate(65.63684 296.982438) scale(0.1 -0.1)">
       <defs>
        <path id="DejaVuSans-30" d="M 2034 4250 
Q 1547 4250 1301 3770 
Q 1056 3291 1056 2328 
Q 1056 1369 1301 889 
Q 1547 409 2034 409 
Q 2525 409 2770 889 
Q 3016 1369 3016 2328 
Q 3016 3291 2770 3770 
Q 2525 4250 2034 4250 
z
M 2034 4750 
Q 2819 4750 3233 4129 
Q 3647 3509 3647 2328 
Q 3647 1150 3233 529 
Q 2819 -91 2034 -91 
Q 1250 -91 836 529 
Q 422 1150 422 2328 
Q 422 3509 836 4129 
Q 1250 4750 2034 4750 
z
" transform="scale(0.015625)"/>
       </defs>
       <use xlink:href="#DejaVuSans-30"/>
      </g>
     </g>
    </g>
    <g id="xtick_2">
     <g id="line2d_2">
      <g>
       <use xlink:href="#me398c41e65" x="120.355774" y="282.384" style="stroke: #000000; stroke-width: 0.8"/>
      </g>
     </g>
     <g id="text_2">
      <!-- 200 -->
      <g transform="translate(110.812024 296.982438) scale(0.1 -0.1)">
       <defs>
        <path id="DejaVuSans-32" d="M 1228 531 
L 3431 531 
L 3431 0 
L 469 0 
L 469 531 
Q 828 903 1448 1529 
Q 2069 2156 2228 2338 
Q 2531 2678 2651 2914 
Q 2772 3150 2772 3378 
Q 2772 3750 2511 3984 
Q 2250 4219 1831 4219 
Q 1534 4219 1204 4116 
Q 875 4013 500 3803 
L 500 4441 
Q 881 4594 1212 4672 
Q 1544 4750 1819 4750 
Q 2544 4750 2975 4387 
Q 3406 4025 3406 3419 
Q 3406 3131 3298 2873 
Q 3191 2616 2906 2266 
Q 2828 2175 2409 1742 
Q 1991 1309 1228 531 
z
" transform="scale(0.015625)"/>
       </defs>
       <use xlink:href="#DejaVuSans-32"/>
       <use xlink:href="#DejaVuSans-30" x="63.623047"/>
       <use xlink:href="#DejaVuSans-30" x="127.246094"/>
      </g>
     </g>
    </g>
    <g id="xtick_3">
     <g id="line2d_3">
      <g>
       <use xlink:href="#me398c41e65" x="171.893458" y="282.384" style="stroke: #000000; stroke-width: 0.8"/>
      </g>
     </g>
     <g id="text_3">
      <!-- 400 -->
      <g transform="translate(162.349708 296.982438) scale(0.1 -0.1)">
       <defs>
        <path id="DejaVuSans-34" d="M 2419 4116 
L 825 1625 
L 2419 1625 
L 2419 4116 
z
M 2253 4666 
L 3047 4666 
L 3047 1625 
L 3713 1625 
L 3713 1100 
L 3047 1100 
L 3047 0 
L 2419 0 
L 2419 1100 
L 313 1100 
L 313 1709 
L 2253 4666 
z
" transform="scale(0.015625)"/>
       </defs>
       <use xlink:href="#DejaVuSans-34"/>
       <use xlink:href="#DejaVuSans-30" x="63.623047"/>
       <use xlink:href="#DejaVuSans-30" x="127.246094"/>
      </g>
     </g>
    </g>
    <g id="xtick_4">
     <g id="line2d_4">
      <g>
       <use xlink:href="#me398c41e65" x="223.431142" y="282.384" style="stroke: #000000; stroke-width: 0.8"/>
      </g>
     </g>
     <g id="text_4">
      <!-- 600 -->
      <g transform="translate(213.887392 296.982438) scale(0.1 -0.1)">
       <defs>
        <path id="DejaVuSans-36" d="M 2113 2584 
Q 1688 2584 1439 2293 
Q 1191 2003 1191 1497 
Q 1191 994 1439 701 
Q 1688 409 2113 409 
Q 2538 409 2786 701 
Q 3034 994 3034 1497 
Q 3034 2003 2786 2293 
Q 2538 2584 2113 2584 
z
M 3366 4563 
L 3366 3988 
Q 3128 4100 2886 4159 
Q 2644 4219 2406 4219 
Q 1781 4219 1451 3797 
Q 1122 3375 1075 2522 
Q 1259 2794 1537 2939 
Q 1816 3084 2150 3084 
Q 2853 3084 3261 2657 
Q 3669 2231 3669 1497 
Q 3669 778 3244 343 
Q 2819 -91 2113 -91 
Q 1303 -91 875 529 
Q 447 1150 447 2328 
Q 447 3434 972 4092 
Q 1497 4750 2381 4750 
Q 2619 4750 2861 4703 
Q 3103 4656 3366 4563 
z
" transform="scale(0.015625)"/>
       </defs>
       <use xlink:href="#DejaVuSans-36"/>
       <use xlink:href="#DejaVuSans-30" x="63.623047"/>
       <use xlink:href="#DejaVuSans-30" x="127.246094"/>
      </g>
     </g>
    </g>
    <g id="xtick_5">
     <g id="line2d_5">
      <g>
       <use xlink:href="#me398c41e65" x="274.968826" y="282.384" style="stroke: #000000; stroke-width: 0.8"/>
      </g>
     </g>
     <g id="text_5">
      <!-- 800 -->
      <g transform="translate(265.425076 296.982438) scale(0.1 -0.1)">
       <defs>
        <path id="DejaVuSans-38" d="M 2034 2216 
Q 1584 2216 1326 1975 
Q 1069 1734 1069 1313 
Q 1069 891 1326 650 
Q 1584 409 2034 409 
Q 2484 409 2743 651 
Q 3003 894 3003 1313 
Q 3003 1734 2745 1975 
Q 2488 2216 2034 2216 
z
M 1403 2484 
Q 997 2584 770 2862 
Q 544 3141 544 3541 
Q 544 4100 942 4425 
Q 1341 4750 2034 4750 
Q 2731 4750 3128 4425 
Q 3525 4100 3525 3541 
Q 3525 3141 3298 2862 
Q 3072 2584 2669 2484 
Q 3125 2378 3379 2068 
Q 3634 1759 3634 1313 
Q 3634 634 3220 271 
Q 2806 -91 2034 -91 
Q 1263 -91 848 271 
Q 434 634 434 1313 
Q 434 1759 690 2068 
Q 947 2378 1403 2484 
z
M 1172 3481 
Q 1172 3119 1398 2916 
Q 1625 2713 2034 2713 
Q 2441 2713 2670 2916 
Q 2900 3119 2900 3481 
Q 2900 3844 2670 4047 
Q 2441 4250 2034 4250 
Q 1625 4250 1398 4047 
Q 1172 3844 1172 3481 
z
" transform="scale(0.015625)"/>
       </defs>
       <use xlink:href="#DejaVuSans-38"/>
       <use xlink:href="#DejaVuSans-30" x="63.623047"/>
       <use xlink:href="#DejaVuSans-30" x="127.246094"/>
      </g>
     </g>
    </g>
    <g id="text_6">
     <!-- global iter -->
     <g transform="translate(146.444301 310.660563) scale(0.1 -0.1)">
      <defs>
       <path id="DejaVuSans-67" d="M 2906 1791 
Q 2906 2416 2648 2759 
Q 2391 3103 1925 3103 
Q 1463 3103 1205 2759 
Q 947 2416 947 1791 
Q 947 1169 1205 825 
Q 1463 481 1925 481 
Q 2391 481 2648 825 
Q 2906 1169 2906 1791 
z
M 3481 434 
Q 3481 -459 3084 -895 
Q 2688 -1331 1869 -1331 
Q 1566 -1331 1297 -1286 
Q 1028 -1241 775 -1147 
L 775 -588 
Q 1028 -725 1275 -790 
Q 1522 -856 1778 -856 
Q 2344 -856 2625 -561 
Q 2906 -266 2906 331 
L 2906 616 
Q 2728 306 2450 153 
Q 2172 0 1784 0 
Q 1141 0 747 490 
Q 353 981 353 1791 
Q 353 2603 747 3093 
Q 1141 3584 1784 3584 
Q 2172 3584 2450 3431 
Q 2728 3278 2906 2969 
L 2906 3500 
L 3481 3500 
L 3481 434 
z
" transform="scale(0.015625)"/>
       <path id="DejaVuSans-6c" d="M 603 4863 
L 1178 4863 
L 1178 0 
L 603 0 
L 603 4863 
z
" transform="scale(0.015625)"/>
       <path id="DejaVuSans-6f" d="M 1959 3097 
Q 1497 3097 1228 2736 
Q 959 2375 959 1747 
Q 959 1119 1226 758 
Q 1494 397 1959 397 
Q 2419 397 2687 759 
Q 2956 1122 2956 1747 
Q 2956 2369 2687 2733 
Q 2419 3097 1959 3097 
z
M 1959 3584 
Q 2709 3584 3137 3096 
Q 3566 2609 3566 1747 
Q 3566 888 3137 398 
Q 2709 -91 1959 -91 
Q 1206 -91 779 398 
Q 353 888 353 1747 
Q 353 2609 779 3096 
Q 1206 3584 1959 3584 
z
" transform="scale(0.015625)"/>
       <path id="DejaVuSans-62" d="M 3116 1747 
Q 3116 2381 2855 2742 
Q 2594 3103 2138 3103 
Q 1681 3103 1420 2742 
Q 1159 2381 1159 1747 
Q 1159 1113 1420 752 
Q 1681 391 2138 391 
Q 2594 391 2855 752 
Q 3116 1113 3116 1747 
z
M 1159 2969 
Q 1341 3281 1617 3432 
Q 1894 3584 2278 3584 
Q 2916 3584 3314 3078 
Q 3713 2572 3713 1747 
Q 3713 922 3314 415 
Q 2916 -91 2278 -91 
Q 1894 -91 1617 61 
Q 1341 213 1159 525 
L 1159 0 
L 581 0 
L 581 4863 
L 1159 4863 
L 1159 2969 
z
" transform="scale(0.015625)"/>
       <path id="DejaVuSans-61" d="M 2194 1759 
Q 1497 1759 1228 1600 
Q 959 1441 959 1056 
Q 959 750 1161 570 
Q 1363 391 1709 391 
Q 2188 391 2477 730 
Q 2766 1069 2766 1631 
L 2766 1759 
L 2194 1759 
z
M 3341 1997 
L 3341 0 
L 2766 0 
L 2766 531 
Q 2569 213 2275 61 
Q 1981 -91 1556 -91 
Q 1019 -91 701 211 
Q 384 513 384 1019 
Q 384 1609 779 1909 
Q 1175 2209 1959 2209 
L 2766 2209 
L 2766 2266 
Q 2766 2663 2505 2880 
Q 2244 3097 1772 3097 
Q 1472 3097 1187 3025 
Q 903 2953 641 2809 
L 641 3341 
Q 956 3463 1253 3523 
Q 1550 3584 1831 3584 
Q 2591 3584 2966 3190 
Q 3341 2797 3341 1997 
z
" transform="scale(0.015625)"/>
       <path id="DejaVuSans-20" transform="scale(0.015625)"/>
       <path id="DejaVuSans-69" d="M 603 3500 
L 1178 3500 
L 1178 0 
L 603 0 
L 603 3500 
z
M 603 4863 
L 1178 4863 
L 1178 4134 
L 603 4134 
L 603 4863 
z
" transform="scale(0.015625)"/>
       <path id="DejaVuSans-74" d="M 1172 4494 
L 1172 3500 
L 2356 3500 
L 2356 3053 
L 1172 3053 
L 1172 1153 
Q 1172 725 1289 603 
Q 1406 481 1766 481 
L 2356 481 
L 2356 0 
L 1766 0 
Q 1100 0 847 248 
Q 594 497 594 1153 
L 594 3053 
L 172 3053 
L 172 3500 
L 594 3500 
L 594 4494 
L 1172 4494 
z
" transform="scale(0.015625)"/>
       <path id="DejaVuSans-65" d="M 3597 1894 
L 3597 1613 
L 953 1613 
Q 991 1019 1311 708 
Q 1631 397 2203 397 
Q 2534 397 2845 478 
Q 3156 559 3463 722 
L 3463 178 
Q 3153 47 2828 -22 
Q 2503 -91 2169 -91 
Q 1331 -91 842 396 
Q 353 884 353 1716 
Q 353 2575 817 3079 
Q 1281 3584 2069 3584 
Q 2775 3584 3186 3129 
Q 3597 2675 3597 1894 
z
M 3022 2063 
Q 3016 2534 2758 2815 
Q 2500 3097 2075 3097 
Q 1594 3097 1305 2825 
Q 1016 2553 972 2059 
L 3022 2063 
z
" transform="scale(0.015625)"/>
       <path id="DejaVuSans-72" d="M 2631 2963 
Q 2534 3019 2420 3045 
Q 2306 3072 2169 3072 
Q 1681 3072 1420 2755 
Q 1159 2438 1159 1844 
L 1159 0 
L 581 0 
L 581 3500 
L 1159 3500 
L 1159 2956 
Q 1341 3275 1631 3429 
Q 1922 3584 2338 3584 
Q 2397 3584 2469 3576 
Q 2541 3569 2628 3553 
L 2631 2963 
z
" transform="scale(0.015625)"/>
      </defs>
      <use xlink:href="#DejaVuSans-67"/>
      <use xlink:href="#DejaVuSans-6c" x="63.476562"/>
      <use xlink:href="#DejaVuSans-6f" x="91.259766"/>
      <use xlink:href="#DejaVuSans-62" x="152.441406"/>
      <use xlink:href="#DejaVuSans-61" x="215.917969"/>
      <use xlink:href="#DejaVuSans-6c" x="277.197266"/>
      <use xlink:href="#DejaVuSans-20" x="304.980469"/>
      <use xlink:href="#DejaVuSans-69" x="336.767578"/>
      <use xlink:href="#DejaVuSans-74" x="364.550781"/>
      <use xlink:href="#DejaVuSans-65" x="403.759766"/>
      <use xlink:href="#DejaVuSans-72" x="465.283203"/>
     </g>
    </g>
   </g>
   <g id="matplotlib.axis_2">
    <g id="ytick_1">
     <g id="line2d_6">
      <defs>
       <path id="m0af65ad199" d="M 0 0 
L -3.5 0 
" style="stroke: #000000; stroke-width: 0.8"/>
      </defs>
      <g>
       <use xlink:href="#m0af65ad199" x="58.523438" y="261.768746" style="stroke: #000000; stroke-width: 0.8"/>
      </g>
     </g>
     <g id="text_7">
      <!-- −1.00 -->
      <g transform="translate(20.878125 265.567965) scale(0.1 -0.1)">
       <defs>
        <path id="DejaVuSans-2212" d="M 678 2272 
L 4684 2272 
L 4684 1741 
L 678 1741 
L 678 2272 
z
" transform="scale(0.015625)"/>
        <path id="DejaVuSans-31" d="M 794 531 
L 1825 531 
L 1825 4091 
L 703 3866 
L 703 4441 
L 1819 4666 
L 2450 4666 
L 2450 531 
L 3481 531 
L 3481 0 
L 794 0 
L 794 531 
z
" transform="scale(0.015625)"/>
        <path id="DejaVuSans-2e" d="M 684 794 
L 1344 794 
L 1344 0 
L 684 0 
L 684 794 
z
" transform="scale(0.015625)"/>
       </defs>
       <use xlink:href="#DejaVuSans-2212"/>
       <use xlink:href="#DejaVuSans-31" x="83.789062"/>
       <use xlink:href="#DejaVuSans-2e" x="147.412109"/>
       <use xlink:href="#DejaVuSans-30" x="179.199219"/>
       <use xlink:href="#DejaVuSans-30" x="242.822266"/>
      </g>
     </g>
    </g>
    <g id="ytick_2">
     <g id="line2d_7">
      <g>
       <use xlink:href="#m0af65ad199" x="58.523438" y="231.920652" style="stroke: #000000; stroke-width: 0.8"/>
      </g>
     </g>
     <g id="text_8">
      <!-- −0.75 -->
      <g transform="translate(20.878125 235.719871) scale(0.1 -0.1)">
       <defs>
        <path id="DejaVuSans-37" d="M 525 4666 
L 3525 4666 
L 3525 4397 
L 1831 0 
L 1172 0 
L 2766 4134 
L 525 4134 
L 525 4666 
z
" transform="scale(0.015625)"/>
        <path id="DejaVuSans-35" d="M 691 4666 
L 3169 4666 
L 3169 4134 
L 1269 4134 
L 1269 2991 
Q 1406 3038 1543 3061 
Q 1681 3084 1819 3084 
Q 2600 3084 3056 2656 
Q 3513 2228 3513 1497 
Q 3513 744 3044 326 
Q 2575 -91 1722 -91 
Q 1428 -91 1123 -41 
Q 819 9 494 109 
L 494 744 
Q 775 591 1075 516 
Q 1375 441 1709 441 
Q 2250 441 2565 725 
Q 2881 1009 2881 1497 
Q 2881 1984 2565 2268 
Q 2250 2553 1709 2553 
Q 1456 2553 1204 2497 
Q 953 2441 691 2322 
L 691 4666 
z
" transform="scale(0.015625)"/>
       </defs>
       <use xlink:href="#DejaVuSans-2212"/>
       <use xlink:href="#DejaVuSans-30" x="83.789062"/>
       <use xlink:href="#DejaVuSans-2e" x="147.412109"/>
       <use xlink:href="#DejaVuSans-37" x="179.199219"/>
       <use xlink:href="#DejaVuSans-35" x="242.822266"/>
      </g>
     </g>
    </g>
    <g id="ytick_3">
     <g id="line2d_8">
      <g>
       <use xlink:href="#m0af65ad199" x="58.523438" y="202.072558" style="stroke: #000000; stroke-width: 0.8"/>
      </g>
     </g>
     <g id="text_9">
      <!-- −0.50 -->
      <g transform="translate(20.878125 205.871777) scale(0.1 -0.1)">
       <use xlink:href="#DejaVuSans-2212"/>
       <use xlink:href="#DejaVuSans-30" x="83.789062"/>
       <use xlink:href="#DejaVuSans-2e" x="147.412109"/>
       <use xlink:href="#DejaVuSans-35" x="179.199219"/>
       <use xlink:href="#DejaVuSans-30" x="242.822266"/>
      </g>
     </g>
    </g>
    <g id="ytick_4">
     <g id="line2d_9">
      <g>
       <use xlink:href="#m0af65ad199" x="58.523438" y="172.224465" style="stroke: #000000; stroke-width: 0.8"/>
      </g>
     </g>
     <g id="text_10">
      <!-- −0.25 -->
      <g transform="translate(20.878125 176.023683) scale(0.1 -0.1)">
       <use xlink:href="#DejaVuSans-2212"/>
       <use xlink:href="#DejaVuSans-30" x="83.789062"/>
       <use xlink:href="#DejaVuSans-2e" x="147.412109"/>
       <use xlink:href="#DejaVuSans-32" x="179.199219"/>
       <use xlink:href="#DejaVuSans-35" x="242.822266"/>
      </g>
     </g>
    </g>
    <g id="ytick_5">
     <g id="line2d_10">
      <g>
       <use xlink:href="#m0af65ad199" x="58.523438" y="142.376371" style="stroke: #000000; stroke-width: 0.8"/>
      </g>
     </g>
     <g id="text_11">
      <!-- 0.00 -->
      <g transform="translate(29.257813 146.17559) scale(0.1 -0.1)">
       <use xlink:href="#DejaVuSans-30"/>
       <use xlink:href="#DejaVuSans-2e" x="63.623047"/>
       <use xlink:href="#DejaVuSans-30" x="95.410156"/>
       <use xlink:href="#DejaVuSans-30" x="159.033203"/>
      </g>
     </g>
    </g>
    <g id="ytick_6">
     <g id="line2d_11">
      <g>
       <use xlink:href="#m0af65ad199" x="58.523438" y="112.528277" style="stroke: #000000; stroke-width: 0.8"/>
      </g>
     </g>
     <g id="text_12">
      <!-- 0.25 -->
      <g transform="translate(29.257813 116.327496) scale(0.1 -0.1)">
       <use xlink:href="#DejaVuSans-30"/>
       <use xlink:href="#DejaVuSans-2e" x="63.623047"/>
       <use xlink:href="#DejaVuSans-32" x="95.410156"/>
       <use xlink:href="#DejaVuSans-35" x="159.033203"/>
      </g>
     </g>
    </g>
    <g id="ytick_7">
     <g id="line2d_12">
      <g>
       <use xlink:href="#m0af65ad199" x="58.523438" y="82.680183" style="stroke: #000000; stroke-width: 0.8"/>
      </g>
     </g>
     <g id="text_13">
      <!-- 0.50 -->
      <g transform="translate(29.257813 86.479402) scale(0.1 -0.1)">
       <use xlink:href="#DejaVuSans-30"/>
       <use xlink:href="#DejaVuSans-2e" x="63.623047"/>
       <use xlink:href="#DejaVuSans-35" x="95.410156"/>
       <use xlink:href="#DejaVuSans-30" x="159.033203"/>
      </g>
     </g>
    </g>
    <g id="ytick_8">
     <g id="line2d_13">
      <g>
       <use xlink:href="#m0af65ad199" x="58.523438" y="52.83209" style="stroke: #000000; stroke-width: 0.8"/>
      </g>
     </g>
     <g id="text_14">
      <!-- 0.75 -->
      <g transform="translate(29.257813 56.631308) scale(0.1 -0.1)">
       <use xlink:href="#DejaVuSans-30"/>
       <use xlink:href="#DejaVuSans-2e" x="63.623047"/>
       <use xlink:href="#DejaVuSans-37" x="95.410156"/>
       <use xlink:href="#DejaVuSans-35" x="159.033203"/>
      </g>
     </g>
    </g>
    <g id="text_15">
     <!-- discounted value -->
     <g transform="translate(14.798438 208.731875) rotate(-90) scale(0.1 -0.1)">
      <defs>
       <path id="DejaVuSans-64" d="M 2906 2969 
L 2906 4863 
L 3481 4863 
L 3481 0 
L 2906 0 
L 2906 525 
Q 2725 213 2448 61 
Q 2172 -91 1784 -91 
Q 1150 -91 751 415 
Q 353 922 353 1747 
Q 353 2572 751 3078 
Q 1150 3584 1784 3584 
Q 2172 3584 2448 3432 
Q 2725 3281 2906 2969 
z
M 947 1747 
Q 947 1113 1208 752 
Q 1469 391 1925 391 
Q 2381 391 2643 752 
Q 2906 1113 2906 1747 
Q 2906 2381 2643 2742 
Q 2381 3103 1925 3103 
Q 1469 3103 1208 2742 
Q 947 2381 947 1747 
z
" transform="scale(0.015625)"/>
       <path id="DejaVuSans-73" d="M 2834 3397 
L 2834 2853 
Q 2591 2978 2328 3040 
Q 2066 3103 1784 3103 
Q 1356 3103 1142 2972 
Q 928 2841 928 2578 
Q 928 2378 1081 2264 
Q 1234 2150 1697 2047 
L 1894 2003 
Q 2506 1872 2764 1633 
Q 3022 1394 3022 966 
Q 3022 478 2636 193 
Q 2250 -91 1575 -91 
Q 1294 -91 989 -36 
Q 684 19 347 128 
L 347 722 
Q 666 556 975 473 
Q 1284 391 1588 391 
Q 1994 391 2212 530 
Q 2431 669 2431 922 
Q 2431 1156 2273 1281 
Q 2116 1406 1581 1522 
L 1381 1569 
Q 847 1681 609 1914 
Q 372 2147 372 2553 
Q 372 3047 722 3315 
Q 1072 3584 1716 3584 
Q 2034 3584 2315 3537 
Q 2597 3491 2834 3397 
z
" transform="scale(0.015625)"/>
       <path id="DejaVuSans-63" d="M 3122 3366 
L 3122 2828 
Q 2878 2963 2633 3030 
Q 2388 3097 2138 3097 
Q 1578 3097 1268 2742 
Q 959 2388 959 1747 
Q 959 1106 1268 751 
Q 1578 397 2138 397 
Q 2388 397 2633 464 
Q 2878 531 3122 666 
L 3122 134 
Q 2881 22 2623 -34 
Q 2366 -91 2075 -91 
Q 1284 -91 818 406 
Q 353 903 353 1747 
Q 353 2603 823 3093 
Q 1294 3584 2113 3584 
Q 2378 3584 2631 3529 
Q 2884 3475 3122 3366 
z
" transform="scale(0.015625)"/>
       <path id="DejaVuSans-75" d="M 544 1381 
L 544 3500 
L 1119 3500 
L 1119 1403 
Q 1119 906 1312 657 
Q 1506 409 1894 409 
Q 2359 409 2629 706 
Q 2900 1003 2900 1516 
L 2900 3500 
L 3475 3500 
L 3475 0 
L 2900 0 
L 2900 538 
Q 2691 219 2414 64 
Q 2138 -91 1772 -91 
Q 1169 -91 856 284 
Q 544 659 544 1381 
z
M 1991 3584 
L 1991 3584 
z
" transform="scale(0.015625)"/>
       <path id="DejaVuSans-6e" d="M 3513 2113 
L 3513 0 
L 2938 0 
L 2938 2094 
Q 2938 2591 2744 2837 
Q 2550 3084 2163 3084 
Q 1697 3084 1428 2787 
Q 1159 2491 1159 1978 
L 1159 0 
L 581 0 
L 581 3500 
L 1159 3500 
L 1159 2956 
Q 1366 3272 1645 3428 
Q 1925 3584 2291 3584 
Q 2894 3584 3203 3211 
Q 3513 2838 3513 2113 
z
" transform="scale(0.015625)"/>
       <path id="DejaVuSans-76" d="M 191 3500 
L 800 3500 
L 1894 563 
L 2988 3500 
L 3597 3500 
L 2284 0 
L 1503 0 
L 191 3500 
z
" transform="scale(0.015625)"/>
      </defs>
      <use xlink:href="#DejaVuSans-64"/>
      <use xlink:href="#DejaVuSans-69" x="63.476562"/>
      <use xlink:href="#DejaVuSans-73" x="91.259766"/>
      <use xlink:href="#DejaVuSans-63" x="143.359375"/>
      <use xlink:href="#DejaVuSans-6f" x="198.339844"/>
      <use xlink:href="#DejaVuSans-75" x="259.521484"/>
      <use xlink:href="#DejaVuSans-6e" x="322.900391"/>
      <use xlink:href="#DejaVuSans-74" x="386.279297"/>
      <use xlink:href="#DejaVuSans-65" x="425.488281"/>
      <use xlink:href="#DejaVuSans-64" x="487.011719"/>
      <use xlink:href="#DejaVuSans-20" x="550.488281"/>
      <use xlink:href="#DejaVuSans-76" x="582.275391"/>
      <use xlink:href="#DejaVuSans-61" x="641.455078"/>
      <use xlink:href="#DejaVuSans-6c" x="702.734375"/>
      <use xlink:href="#DejaVuSans-75" x="730.517578"/>
      <use xlink:href="#DejaVuSans-65" x="793.896484"/>
     </g>
    </g>
   </g>
   <g id="line2d_14">
    <path d="M 68.81809 141.689532 
L 75.2603 141.689532 
L 81.702511 141.689532 
L 88.144721 141.689532 
L 94.586932 141.689532 
L 101.029142 141.689532 
L 107.213665 141.689532 
L 107.471353 141.689532 
L 113.913564 141.689532 
L 120.098086 141.689532 
L 120.355774 141.689532 
L 126.797985 141.689532 
L 132.982507 141.689532 
L 133.240195 141.689532 
L 139.682406 141.689532 
L 145.866928 141.689532 
L 146.124616 141.689532 
L 152.566827 141.689532 
L 158.751349 141.689532 
L 159.009037 141.689532 
L 165.451248 141.689532 
L 171.63577 141.689532 
L 171.893458 141.689532 
L 178.335669 141.689532 
L 184.520191 141.689532 
L 184.777879 141.689532 
L 191.22009 141.689532 
L 197.404612 141.689532 
L 197.6623 141.689532 
L 204.104511 141.689532 
L 210.289033 141.689532 
L 210.546721 141.689532 
L 216.988932 141.689532 
L 223.173454 141.689532 
L 223.431142 141.689532 
L 229.873353 141.689532 
L 236.057875 141.689532 
L 236.315563 141.689532 
L 242.757774 141.689532 
L 248.942296 141.689532 
L 249.199984 141.689532 
L 255.642195 141.689532 
L 261.826717 141.689532 
L 262.084405 141.689532 
L 268.526616 141.689532 
L 274.711138 141.689532 
" clip-path="url(#pefe7b9a9cd)" style="fill: none; stroke-dasharray: 7.4,3.2; stroke-dashoffset: 0; stroke: #333333; stroke-width: 2"/>
   </g>
   <g id="line2d_15">
    <path d="M 68.81809 60.12 
L 75.2603 221.228055 
L 81.702511 197.540646 
L 88.144721 271.8 
L 94.586932 85.68628 
L 101.029142 176.448614 
L 107.213665 176.448614 
L 107.471353 209.949448 
L 113.913564 177.281834 
L 120.098086 177.281834 
L 120.355774 130.305819 
L 126.797985 148.23801 
L 132.982507 148.23801 
L 133.240195 106.006221 
L 139.682406 96.118977 
L 145.866928 96.118977 
L 146.124616 164.793298 
L 152.566827 177.504399 
L 158.751349 177.504399 
L 159.009037 197.770892 
L 165.451248 151.04444 
L 171.63577 151.04444 
L 171.893458 107.709314 
L 178.335669 154.856038 
L 184.520191 154.856038 
L 184.777879 175.650878 
L 191.22009 80.634258 
L 197.404612 80.634258 
L 197.6623 219.552945 
L 204.104511 183.12486 
L 210.289033 183.12486 
L 210.546721 107.748237 
L 216.988932 228.70973 
L 223.173454 228.70973 
L 223.431142 253.530928 
L 229.873353 117.51083 
L 236.057875 117.51083 
L 236.315563 252.281391 
L 242.757774 124.844631 
L 248.942296 124.844631 
L 249.199984 66.739099 
L 255.642195 104.677895 
L 261.826717 104.677895 
L 262.084405 110.327377 
L 268.526616 157.05275 
L 274.711138 157.05275 
" clip-path="url(#pefe7b9a9cd)" style="fill: none; stroke: #1b9e77; stroke-width: 1.5; stroke-linecap: square"/>
    <defs>
     <path id="m7de1aea606" d="M 0 1.5 
C 0.397805 1.5 0.77937 1.341951 1.06066 1.06066 
C 1.341951 0.77937 1.5 0.397805 1.5 0 
C 1.5 -0.397805 1.341951 -0.77937 1.06066 -1.06066 
C 0.77937 -1.341951 0.397805 -1.5 0 -1.5 
C -0.397805 -1.5 -0.77937 -1.341951 -1.06066 -1.06066 
C -1.341951 -0.77937 -1.5 -0.397805 -1.5 0 
C -1.5 0.397805 -1.341951 0.77937 -1.06066 1.06066 
C -0.77937 1.341951 -0.397805 1.5 0 1.5 
z
" style="stroke: #1b9e77"/>
    </defs>
    <g clip-path="url(#pefe7b9a9cd)">
     <use xlink:href="#m7de1aea606" x="68.81809" y="60.12" style="fill: #1b9e77; stroke: #1b9e77"/>
     <use xlink:href="#m7de1aea606" x="75.2603" y="221.228055" style="fill: #1b9e77; stroke: #1b9e77"/>
     <use xlink:href="#m7de1aea606" x="81.702511" y="197.540646" style="fill: #1b9e77; stroke: #1b9e77"/>
     <use xlink:href="#m7de1aea606" x="88.144721" y="271.8" style="fill: #1b9e77; stroke: #1b9e77"/>
     <use xlink:href="#m7de1aea606" x="94.586932" y="85.68628" style="fill: #1b9e77; stroke: #1b9e77"/>
     <use xlink:href="#m7de1aea606" x="101.029142" y="176.448614" style="fill: #1b9e77; stroke: #1b9e77"/>
     <use xlink:href="#m7de1aea606" x="107.213665" y="176.448614" style="fill: #1b9e77; stroke: #1b9e77"/>
     <use xlink:href="#m7de1aea606" x="107.471353" y="209.949448" style="fill: #1b9e77; stroke: #1b9e77"/>
     <use xlink:href="#m7de1aea606" x="113.913564" y="177.281834" style="fill: #1b9e77; stroke: #1b9e77"/>
     <use xlink:href="#m7de1aea606" x="120.098086" y="177.281834" style="fill: #1b9e77; stroke: #1b9e77"/>
     <use xlink:href="#m7de1aea606" x="120.355774" y="130.305819" style="fill: #1b9e77; stroke: #1b9e77"/>
     <use xlink:href="#m7de1aea606" x="126.797985" y="148.23801" style="fill: #1b9e77; stroke: #1b9e77"/>
     <use xlink:href="#m7de1aea606" x="132.982507" y="148.23801" style="fill: #1b9e77; stroke: #1b9e77"/>
     <use xlink:href="#m7de1aea606" x="133.240195" y="106.006221" style="fill: #1b9e77; stroke: #1b9e77"/>
     <use xlink:href="#m7de1aea606" x="139.682406" y="96.118977" style="fill: #1b9e77; stroke: #1b9e77"/>
     <use xlink:href="#m7de1aea606" x="145.866928" y="96.118977" style="fill: #1b9e77; stroke: #1b9e77"/>
     <use xlink:href="#m7de1aea606" x="146.124616" y="164.793298" style="fill: #1b9e77; stroke: #1b9e77"/>
     <use xlink:href="#m7de1aea606" x="152.566827" y="177.504399" style="fill: #1b9e77; stroke: #1b9e77"/>
     <use xlink:href="#m7de1aea606" x="158.751349" y="177.504399" style="fill: #1b9e77; stroke: #1b9e77"/>
     <use xlink:href="#m7de1aea606" x="159.009037" y="197.770892" style="fill: #1b9e77; stroke: #1b9e77"/>
     <use xlink:href="#m7de1aea606" x="165.451248" y="151.04444" style="fill: #1b9e77; stroke: #1b9e77"/>
     <use xlink:href="#m7de1aea606" x="171.63577" y="151.04444" style="fill: #1b9e77; stroke: #1b9e77"/>
     <use xlink:href="#m7de1aea606" x="171.893458" y="107.709314" style="fill: #1b9e77; stroke: #1b9e77"/>
     <use xlink:href="#m7de1aea606" x="178.335669" y="154.856038" style="fill: #1b9e77; stroke: #1b9e77"/>
     <use xlink:href="#m7de1aea606" x="184.520191" y="154.856038" style="fill: #1b9e77; stroke: #1b9e77"/>
     <use xlink:href="#m7de1aea606" x="184.777879" y="175.650878" style="fill: #1b9e77; stroke: #1b9e77"/>
     <use xlink:href="#m7de1aea606" x="191.22009" y="80.634258" style="fill: #1b9e77; stroke: #1b9e77"/>
     <use xlink:href="#m7de1aea606" x="197.404612" y="80.634258" style="fill: #1b9e77; stroke: #1b9e77"/>
     <use xlink:href="#m7de1aea606" x="197.6623" y="219.552945" style="fill: #1b9e77; stroke: #1b9e77"/>
     <use xlink:href="#m7de1aea606" x="204.104511" y="183.12486" style="fill: #1b9e77; stroke: #1b9e77"/>
     <use xlink:href="#m7de1aea606" x="210.289033" y="183.12486" style="fill: #1b9e77; stroke: #1b9e77"/>
     <use xlink:href="#m7de1aea606" x="210.546721" y="107.748237" style="fill: #1b9e77; stroke: #1b9e77"/>
     <use xlink:href="#m7de1aea606" x="216.988932" y="228.70973" style="fill: #1b9e77; stroke: #1b9e77"/>
     <use xlink:href="#m7de1aea606" x="223.173454" y="228.70973" style="fill: #1b9e77; stroke: #1b9e77"/>
     <use xlink:href="#m7de1aea606" x="223.431142" y="253.530928" style="fill: #1b9e77; stroke: #1b9e77"/>
     <use xlink:href="#m7de1aea606" x="229.873353" y="117.51083" style="fill: #1b9e77; stroke: #1b9e77"/>
     <use xlink:href="#m7de1aea606" x="236.057875" y="117.51083" style="fill: #1b9e77; stroke: #1b9e77"/>
     <use xlink:href="#m7de1aea606" x="236.315563" y="252.281391" style="fill: #1b9e77; stroke: #1b9e77"/>
     <use xlink:href="#m7de1aea606" x="242.757774" y="124.844631" style="fill: #1b9e77; stroke: #1b9e77"/>
     <use xlink:href="#m7de1aea606" x="248.942296" y="124.844631" style="fill: #1b9e77; stroke: #1b9e77"/>
     <use xlink:href="#m7de1aea606" x="249.199984" y="66.739099" style="fill: #1b9e77; stroke: #1b9e77"/>
     <use xlink:href="#m7de1aea606" x="255.642195" y="104.677895" style="fill: #1b9e77; stroke: #1b9e77"/>
     <use xlink:href="#m7de1aea606" x="261.826717" y="104.677895" style="fill: #1b9e77; stroke: #1b9e77"/>
     <use xlink:href="#m7de1aea606" x="262.084405" y="110.327377" style="fill: #1b9e77; stroke: #1b9e77"/>
     <use xlink:href="#m7de1aea606" x="268.526616" y="157.05275" style="fill: #1b9e77; stroke: #1b9e77"/>
     <use xlink:href="#m7de1aea606" x="274.711138" y="157.05275" style="fill: #1b9e77; stroke: #1b9e77"/>
    </g>
   </g>
   <g id="patch_3">
    <path d="M 58.523438 282.384 
L 58.523438 49.536 
" style="fill: none; stroke: #000000; stroke-width: 0.8; stroke-linejoin: miter; stroke-linecap: square"/>
   </g>
   <g id="patch_4">
    <path d="M 285.00579 282.384 
L 285.00579 49.536 
" style="fill: none; stroke: #000000; stroke-width: 0.8; stroke-linejoin: miter; stroke-linecap: square"/>
   </g>
   <g id="patch_5">
    <path d="M 58.523438 282.384 
L 285.00579 282.384 
" style="fill: none; stroke: #000000; stroke-width: 0.8; stroke-linejoin: miter; stroke-linecap: square"/>
   </g>
   <g id="patch_6">
    <path d="M 58.523438 49.536 
L 285.00579 49.536 
" style="fill: none; stroke: #000000; stroke-width: 0.8; stroke-linejoin: miter; stroke-linecap: square"/>
   </g>
   <g id="text_16">
    <!-- task 2: Boxing -->
    <g transform="translate(129.053051 43.536) scale(0.12 -0.12)">
     <defs>
      <path id="DejaVuSans-6b" d="M 581 4863 
L 1159 4863 
L 1159 1991 
L 2875 3500 
L 3609 3500 
L 1753 1863 
L 3688 0 
L 2938 0 
L 1159 1709 
L 1159 0 
L 581 0 
L 581 4863 
z
" transform="scale(0.015625)"/>
      <path id="DejaVuSans-3a" d="M 750 794 
L 1409 794 
L 1409 0 
L 750 0 
L 750 794 
z
M 750 3309 
L 1409 3309 
L 1409 2516 
L 750 2516 
L 750 3309 
z
" transform="scale(0.015625)"/>
      <path id="DejaVuSans-42" d="M 1259 2228 
L 1259 519 
L 2272 519 
Q 2781 519 3026 730 
Q 3272 941 3272 1375 
Q 3272 1813 3026 2020 
Q 2781 2228 2272 2228 
L 1259 2228 
z
M 1259 4147 
L 1259 2741 
L 2194 2741 
Q 2656 2741 2882 2914 
Q 3109 3088 3109 3444 
Q 3109 3797 2882 3972 
Q 2656 4147 2194 4147 
L 1259 4147 
z
M 628 4666 
L 2241 4666 
Q 2963 4666 3353 4366 
Q 3744 4066 3744 3513 
Q 3744 3084 3544 2831 
Q 3344 2578 2956 2516 
Q 3422 2416 3680 2098 
Q 3938 1781 3938 1306 
Q 3938 681 3513 340 
Q 3088 0 2303 0 
L 628 0 
L 628 4666 
z
" transform="scale(0.015625)"/>
      <path id="DejaVuSans-78" d="M 3513 3500 
L 2247 1797 
L 3578 0 
L 2900 0 
L 1881 1375 
L 863 0 
L 184 0 
L 1544 1831 
L 300 3500 
L 978 3500 
L 1906 2253 
L 2834 3500 
L 3513 3500 
z
" transform="scale(0.015625)"/>
     </defs>
     <use xlink:href="#DejaVuSans-74"/>
     <use xlink:href="#DejaVuSans-61" x="39.208984"/>
     <use xlink:href="#DejaVuSans-73" x="100.488281"/>
     <use xlink:href="#DejaVuSans-6b" x="152.587891"/>
     <use xlink:href="#DejaVuSans-20" x="210.498047"/>
     <use xlink:href="#DejaVuSans-32" x="242.285156"/>
     <use xlink:href="#DejaVuSans-3a" x="305.908203"/>
     <use xlink:href="#DejaVuSans-20" x="339.599609"/>
     <use xlink:href="#DejaVuSans-42" x="371.386719"/>
     <use xlink:href="#DejaVuSans-6f" x="439.990234"/>
     <use xlink:href="#DejaVuSans-78" x="498.046875"/>
     <use xlink:href="#DejaVuSans-69" x="557.226562"/>
     <use xlink:href="#DejaVuSans-6e" x="585.009766"/>
     <use xlink:href="#DejaVuSans-67" x="648.388672"/>
    </g>
   </g>
   <g id="legend_1">
    <g id="patch_7">
     <path d="M 112.027739 79.866 
L 231.501489 79.866 
Q 233.101489 79.866 233.101489 78.266 
L 233.101489 55.136 
Q 233.101489 53.536 231.501489 53.536 
L 112.027739 53.536 
Q 110.427739 53.536 110.427739 55.136 
L 110.427739 78.266 
Q 110.427739 79.866 112.027739 79.866 
z
" style="fill: #ffffff; opacity: 0.8; stroke: #cccccc; stroke-linejoin: miter"/>
    </g>
    <g id="line2d_16">
     <path d="M 113.627739 60.01475 
L 121.627739 60.01475 
L 129.627739 60.01475 
" style="fill: none; stroke-dasharray: 7.4,3.2; stroke-dashoffset: 0; stroke: #333333; stroke-width: 2"/>
    </g>
    <g id="text_17">
     <!-- V_L (local ref, frozen) -->
     <g transform="translate(136.027739 62.81475) scale(0.08 -0.08)">
      <defs>
       <path id="DejaVuSans-56" d="M 1831 0 
L 50 4666 
L 709 4666 
L 2188 738 
L 3669 4666 
L 4325 4666 
L 2547 0 
L 1831 0 
z
" transform="scale(0.015625)"/>
       <path id="DejaVuSans-5f" d="M 3263 -1063 
L 3263 -1509 
L -63 -1509 
L -63 -1063 
L 3263 -1063 
z
" transform="scale(0.015625)"/>
       <path id="DejaVuSans-4c" d="M 628 4666 
L 1259 4666 
L 1259 531 
L 3531 531 
L 3531 0 
L 628 0 
L 628 4666 
z
" transform="scale(0.015625)"/>
       <path id="DejaVuSans-28" d="M 1984 4856 
Q 1566 4138 1362 3434 
Q 1159 2731 1159 2009 
Q 1159 1288 1364 580 
Q 1569 -128 1984 -844 
L 1484 -844 
Q 1016 -109 783 600 
Q 550 1309 550 2009 
Q 550 2706 781 3412 
Q 1013 4119 1484 4856 
L 1984 4856 
z
" transform="scale(0.015625)"/>
       <path id="DejaVuSans-66" d="M 2375 4863 
L 2375 4384 
L 1825 4384 
Q 1516 4384 1395 4259 
Q 1275 4134 1275 3809 
L 1275 3500 
L 2222 3500 
L 2222 3053 
L 1275 3053 
L 1275 0 
L 697 0 
L 697 3053 
L 147 3053 
L 147 3500 
L 697 3500 
L 697 3744 
Q 697 4328 969 4595 
Q 1241 4863 1831 4863 
L 2375 4863 
z
" transform="scale(0.015625)"/>
       <path id="DejaVuSans-2c" d="M 750 794 
L 1409 794 
L 1409 256 
L 897 -744 
L 494 -744 
L 750 256 
L 750 794 
z
" transform="scale(0.015625)"/>
       <path id="DejaVuSans-7a" d="M 353 3500 
L 3084 3500 
L 3084 2975 
L 922 459 
L 3084 459 
L 3084 0 
L 275 0 
L 275 525 
L 2438 3041 
L 353 3041 
L 353 3500 
z
" transform="scale(0.015625)"/>
       <path id="DejaVuSans-29" d="M 513 4856 
L 1013 4856 
Q 1481 4119 1714 3412 
Q 1947 2706 1947 2009 
Q 1947 1309 1714 600 
Q 1481 -109 1013 -844 
L 513 -844 
Q 928 -128 1133 580 
Q 1338 1288 1338 2009 
Q 1338 2731 1133 3434 
Q 928 4138 513 4856 
z
" transform="scale(0.015625)"/>
      </defs>
      <use xlink:href="#DejaVuSans-56"/>
      <use xlink:href="#DejaVuSans-5f" x="68.408203"/>
      <use xlink:href="#DejaVuSans-4c" x="118.408203"/>
      <use xlink:href="#DejaVuSans-20" x="174.121094"/>
      <use xlink:href="#DejaVuSans-28" x="205.908203"/>
      <use xlink:href="#DejaVuSans-6c" x="244.921875"/>
      <use xlink:href="#DejaVuSans-6f" x="272.705078"/>
      <use xlink:href="#DejaVuSans-63" x="333.886719"/>
      <use xlink:href="#DejaVuSans-61" x="388.867188"/>
      <use xlink:href="#DejaVuSans-6c" x="450.146484"/>
      <use xlink:href="#DejaVuSans-20" x="477.929688"/>
      <use xlink:href="#DejaVuSans-72" x="509.716797"/>
      <use xlink:href="#DejaVuSans-65" x="548.580078"/>
      <use xlink:href="#DejaVuSans-66" x="610.103516"/>
      <use xlink:href="#DejaVuSans-2c" x="645.308594"/>
      <use xlink:href="#DejaVuSans-20" x="677.095703"/>
      <use xlink:href="#DejaVuSans-66" x="708.882812"/>
      <use xlink:href="#DejaVuSans-72" x="744.087891"/>
      <use xlink:href="#DejaVuSans-6f" x="782.951172"/>
      <use xlink:href="#DejaVuSans-7a" x="844.132812"/>
      <use xlink:href="#DejaVuSans-65" x="896.623047"/>
      <use xlink:href="#DejaVuSans-6e" x="958.146484"/>
      <use xlink:href="#DejaVuSans-29" x="1021.525391"/>
     </g>
    </g>
    <g id="line2d_17">
     <path d="M 113.627739 71.97975 
L 121.627739 71.97975 
L 129.627739 71.97975 
" style="fill: none; stroke: #1b9e77; stroke-width: 1.5; stroke-linecap: square"/>
     <g>
      <use xlink:href="#m7de1aea606" x="121.627739" y="71.97975" style="fill: #1b9e77; stroke: #1b9e77"/>
     </g>
    </g>
    <g id="text_18">
     <!-- V_G (global, head-only) -->
     <g transform="translate(136.027739 74.77975) scale(0.08 -0.08)">
      <defs>
       <path id="DejaVuSans-47" d="M 3809 666 
L 3809 1919 
L 2778 1919 
L 2778 2438 
L 4434 2438 
L 4434 434 
Q 4069 175 3628 42 
Q 3188 -91 2688 -91 
Q 1594 -91 976 548 
Q 359 1188 359 2328 
Q 359 3472 976 4111 
Q 1594 4750 2688 4750 
Q 3144 4750 3555 4637 
Q 3966 4525 4313 4306 
L 4313 3634 
Q 3963 3931 3569 4081 
Q 3175 4231 2741 4231 
Q 1884 4231 1454 3753 
Q 1025 3275 1025 2328 
Q 1025 1384 1454 906 
Q 1884 428 2741 428 
Q 3075 428 3337 486 
Q 3600 544 3809 666 
z
" transform="scale(0.015625)"/>
       <path id="DejaVuSans-68" d="M 3513 2113 
L 3513 0 
L 2938 0 
L 2938 2094 
Q 2938 2591 2744 2837 
Q 2550 3084 2163 3084 
Q 1697 3084 1428 2787 
Q 1159 2491 1159 1978 
L 1159 0 
L 581 0 
L 581 4863 
L 1159 4863 
L 1159 2956 
Q 1366 3272 1645 3428 
Q 1925 3584 2291 3584 
Q 2894 3584 3203 3211 
Q 3513 2838 3513 2113 
z
" transform="scale(0.015625)"/>
       <path id="DejaVuSans-2d" d="M 313 2009 
L 1997 2009 
L 1997 1497 
L 313 1497 
L 313 2009 
z
" transform="scale(0.015625)"/>
       <path id="DejaVuSans-79" d="M 2059 -325 
Q 1816 -950 1584 -1140 
Q 1353 -1331 966 -1331 
L 506 -1331 
L 506 -850 
L 844 -850 
Q 1081 -850 1212 -737 
Q 1344 -625 1503 -206 
L 1606 56 
L 191 3500 
L 800 3500 
L 1894 763 
L 2988 3500 
L 3597 3500 
L 2059 -325 
z
" transform="scale(0.015625)"/>
      </defs>
      <use xlink:href="#DejaVuSans-56"/>
      <use xlink:href="#DejaVuSans-5f" x="68.408203"/>
      <use xlink:href="#DejaVuSans-47" x="118.408203"/>
      <use xlink:href="#DejaVuSans-20" x="195.898438"/>
      <use xlink:href="#DejaVuSans-28" x="227.685547"/>
      <use xlink:href="#DejaVuSans-67" x="266.699219"/>
      <use xlink:href="#DejaVuSans-6c" x="330.175781"/>
      <use xlink:href="#DejaVuSans-6f" x="357.958984"/>
      <use xlink:href="#DejaVuSans-62" x="419.140625"/>
      <use xlink:href="#DejaVuSans-61" x="482.617188"/>
      <use xlink:href="#DejaVuSans-6c" x="543.896484"/>
      <use xlink:href="#DejaVuSans-2c" x="571.679688"/>
      <use xlink:href="#DejaVuSans-20" x="603.466797"/>
      <use xlink:href="#DejaVuSans-68" x="635.253906"/>
      <use xlink:href="#DejaVuSans-65" x="698.632812"/>
      <use xlink:href="#DejaVuSans-61" x="760.15625"/>
      <use xlink:href="#DejaVuSans-64" x="821.435547"/>
      <use xlink:href="#DejaVuSans-2d" x="884.912109"/>
      <use xlink:href="#DejaVuSans-6f" x="922.871094"/>
      <use xlink:href="#DejaVuSans-6e" x="984.052734"/>
      <use xlink:href="#DejaVuSans-6c" x="1047.431641"/>
      <use xlink:href="#DejaVuSans-79" x="1075.214844"/>
      <use xlink:href="#DejaVuSans-29" x="1134.394531"/>
     </g>
    </g>
   </g>
  </g>
  <g id="axes_2">
   <g id="patch_8">
    <path d="M 330.302261 282.384 
L 556.784614 282.384 
L 556.784614 49.536 
L 330.302261 49.536 
z
" style="fill: #ffffff"/>
   </g>
   <g id="matplotlib.axis_3">
    <g id="xtick_6">
     <g id="line2d_18">
      <g>
       <use xlink:href="#me398c41e65" x="340.596913" y="282.384" style="stroke: #000000; stroke-width: 0.8"/>
      </g>
     </g>
     <g id="text_19">
      <!-- 0 -->
      <g transform="translate(337.415663 296.982438) scale(0.1 -0.1)">
       <use xlink:href="#DejaVuSans-30"/>
      </g>
     </g>
    </g>
    <g id="xtick_7">
     <g id="line2d_19">
      <g>
       <use xlink:href="#me398c41e65" x="392.134598" y="282.384" style="stroke: #000000; stroke-width: 0.8"/>
      </g>
     </g>
     <g id="text_20">
      <!-- 200 -->
      <g transform="translate(382.590848 296.982438) scale(0.1 -0.1)">
       <use xlink:href="#DejaVuSans-32"/>
       <use xlink:href="#DejaVuSans-30" x="63.623047"/>
       <use xlink:href="#DejaVuSans-30" x="127.246094"/>
      </g>
     </g>
    </g>
    <g id="xtick_8">
     <g id="line2d_20">
      <g>
       <use xlink:href="#me398c41e65" x="443.672282" y="282.384" style="stroke: #000000; stroke-width: 0.8"/>
      </g>
     </g>
     <g id="text_21">
      <!-- 400 -->
      <g transform="translate(434.128532 296.982438) scale(0.1 -0.1)">
       <use xlink:href="#DejaVuSans-34"/>
       <use xlink:href="#DejaVuSans-30" x="63.623047"/>
       <use xlink:href="#DejaVuSans-30" x="127.246094"/>
      </g>
     </g>
    </g>
    <g id="xtick_9">
     <g id="line2d_21">
      <g>
       <use xlink:href="#me398c41e65" x="495.209966" y="282.384" style="stroke: #000000; stroke-width: 0.8"/>
      </g>
     </g>
     <g id="text_22">
      <!-- 600 -->
      <g transform="translate(485.666216 296.982438) scale(0.1 -0.1)">
       <use xlink:href="#DejaVuSans-36"/>
       <use xlink:href="#DejaVuSans-30" x="63.623047"/>
       <use xlink:href="#DejaVuSans-30" x="127.246094"/>
      </g>
     </g>
    </g>
    <g id="xtick_10">
     <g id="line2d_22">
      <g>
       <use xlink:href="#me398c41e65" x="546.74765" y="282.384" style="stroke: #000000; stroke-width: 0.8"/>
      </g>
     </g>
     <g id="text_23">
      <!-- 800 -->
      <g transform="translate(537.2039 296.982438) scale(0.1 -0.1)">
       <use xlink:href="#DejaVuSans-38"/>
       <use xlink:href="#DejaVuSans-30" x="63.623047"/>
       <use xlink:href="#DejaVuSans-30" x="127.246094"/>
      </g>
     </g>
    </g>
    <g id="text_24">
     <!-- global iter -->
     <g transform="translate(418.223125 310.660563) scale(0.1 -0.1)">
      <use xlink:href="#DejaVuSans-67"/>
      <use xlink:href="#DejaVuSans-6c" x="63.476562"/>
      <use xlink:href="#DejaVuSans-6f" x="91.259766"/>
      <use xlink:href="#DejaVuSans-62" x="152.441406"/>
      <use xlink:href="#DejaVuSans-61" x="215.917969"/>
      <use xlink:href="#DejaVuSans-6c" x="277.197266"/>
      <use xlink:href="#DejaVuSans-20" x="304.980469"/>
      <use xlink:href="#DejaVuSans-69" x="336.767578"/>
      <use xlink:href="#DejaVuSans-74" x="364.550781"/>
      <use xlink:href="#DejaVuSans-65" x="403.759766"/>
      <use xlink:href="#DejaVuSans-72" x="465.283203"/>
     </g>
    </g>
   </g>
   <g id="matplotlib.axis_4">
    <g id="ytick_9">
     <g id="line2d_23">
      <g>
       <use xlink:href="#m0af65ad199" x="330.302261" y="272.261361" style="stroke: #000000; stroke-width: 0.8"/>
      </g>
     </g>
     <g id="text_25">
      <!-- 0.4 -->
      <g transform="translate(307.399136 276.06058) scale(0.1 -0.1)">
       <use xlink:href="#DejaVuSans-30"/>
       <use xlink:href="#DejaVuSans-2e" x="63.623047"/>
       <use xlink:href="#DejaVuSans-34" x="95.410156"/>
      </g>
     </g>
    </g>
    <g id="ytick_10">
     <g id="line2d_24">
      <g>
       <use xlink:href="#m0af65ad199" x="330.302261" y="245.682119" style="stroke: #000000; stroke-width: 0.8"/>
      </g>
     </g>
     <g id="text_26">
      <!-- 0.6 -->
      <g transform="translate(307.399136 249.481338) scale(0.1 -0.1)">
       <use xlink:href="#DejaVuSans-30"/>
       <use xlink:href="#DejaVuSans-2e" x="63.623047"/>
       <use xlink:href="#DejaVuSans-36" x="95.410156"/>
      </g>
     </g>
    </g>
    <g id="ytick_11">
     <g id="line2d_25">
      <g>
       <use xlink:href="#m0af65ad199" x="330.302261" y="219.102878" style="stroke: #000000; stroke-width: 0.8"/>
      </g>
     </g>
     <g id="text_27">
      <!-- 0.8 -->
      <g transform="translate(307.399136 222.902097) scale(0.1 -0.1)">
       <use xlink:href="#DejaVuSans-30"/>
       <use xlink:href="#DejaVuSans-2e" x="63.623047"/>
       <use xlink:href="#DejaVuSans-38" x="95.410156"/>
      </g>
     </g>
    </g>
    <g id="ytick_12">
     <g id="line2d_26">
      <g>
       <use xlink:href="#m0af65ad199" x="330.302261" y="192.523636" style="stroke: #000000; stroke-width: 0.8"/>
      </g>
     </g>
     <g id="text_28">
      <!-- 1.0 -->
      <g transform="translate(307.399136 196.322855) scale(0.1 -0.1)">
       <use xlink:href="#DejaVuSans-31"/>
       <use xlink:href="#DejaVuSans-2e" x="63.623047"/>
       <use xlink:href="#DejaVuSans-30" x="95.410156"/>
      </g>
     </g>
    </g>
    <g id="ytick_13">
     <g id="line2d_27">
      <g>
       <use xlink:href="#m0af65ad199" x="330.302261" y="165.944395" style="stroke: #000000; stroke-width: 0.8"/>
      </g>
     </g>
     <g id="text_29">
      <!-- 1.2 -->
      <g transform="translate(307.399136 169.743614) scale(0.1 -0.1)">
       <use xlink:href="#DejaVuSans-31"/>
       <use xlink:href="#DejaVuSans-2e" x="63.623047"/>
       <use xlink:href="#DejaVuSans-32" x="95.410156"/>
      </g>
     </g>
    </g>
    <g id="ytick_14">
     <g id="line2d_28">
      <g>
       <use xlink:href="#m0af65ad199" x="330.302261" y="139.365153" style="stroke: #000000; stroke-width: 0.8"/>
      </g>
     </g>
     <g id="text_30">
      <!-- 1.4 -->
      <g transform="translate(307.399136 143.164372) scale(0.1 -0.1)">
       <use xlink:href="#DejaVuSans-31"/>
       <use xlink:href="#DejaVuSans-2e" x="63.623047"/>
       <use xlink:href="#DejaVuSans-34" x="95.410156"/>
      </g>
     </g>
    </g>
    <g id="ytick_15">
     <g id="line2d_29">
      <g>
       <use xlink:href="#m0af65ad199" x="330.302261" y="112.785912" style="stroke: #000000; stroke-width: 0.8"/>
      </g>
     </g>
     <g id="text_31">
      <!-- 1.6 -->
      <g transform="translate(307.399136 116.585131) scale(0.1 -0.1)">
       <use xlink:href="#DejaVuSans-31"/>
       <use xlink:href="#DejaVuSans-2e" x="63.623047"/>
       <use xlink:href="#DejaVuSans-36" x="95.410156"/>
      </g>
     </g>
    </g>
    <g id="ytick_16">
     <g id="line2d_30">
      <g>
       <use xlink:href="#m0af65ad199" x="330.302261" y="86.20667" style="stroke: #000000; stroke-width: 0.8"/>
      </g>
     </g>
     <g id="text_32">
      <!-- 1.8 -->
      <g transform="translate(307.399136 90.005889) scale(0.1 -0.1)">
       <use xlink:href="#DejaVuSans-31"/>
       <use xlink:href="#DejaVuSans-2e" x="63.623047"/>
       <use xlink:href="#DejaVuSans-38" x="95.410156"/>
      </g>
     </g>
    </g>
    <g id="ytick_17">
     <g id="line2d_31">
      <g>
       <use xlink:href="#m0af65ad199" x="330.302261" y="59.627429" style="stroke: #000000; stroke-width: 0.8"/>
      </g>
     </g>
     <g id="text_33">
      <!-- 2.0 -->
      <g transform="translate(307.399136 63.426648) scale(0.1 -0.1)">
       <use xlink:href="#DejaVuSans-32"/>
       <use xlink:href="#DejaVuSans-2e" x="63.623047"/>
       <use xlink:href="#DejaVuSans-30" x="95.410156"/>
      </g>
     </g>
    </g>
    <g id="text_34">
     <!-- discounted value -->
     <g transform="translate(301.319449 208.731875) rotate(-90) scale(0.1 -0.1)">
      <use xlink:href="#DejaVuSans-64"/>
      <use xlink:href="#DejaVuSans-69" x="63.476562"/>
      <use xlink:href="#DejaVuSans-73" x="91.259766"/>
      <use xlink:href="#DejaVuSans-63" x="143.359375"/>
      <use xlink:href="#DejaVuSans-6f" x="198.339844"/>
      <use xlink:href="#DejaVuSans-75" x="259.521484"/>
      <use xlink:href="#DejaVuSans-6e" x="322.900391"/>
      <use xlink:href="#DejaVuSans-74" x="386.279297"/>
      <use xlink:href="#DejaVuSans-65" x="425.488281"/>
      <use xlink:href="#DejaVuSans-64" x="487.011719"/>
      <use xlink:href="#DejaVuSans-20" x="550.488281"/>
      <use xlink:href="#DejaVuSans-76" x="582.275391"/>
      <use xlink:href="#DejaVuSans-61" x="641.455078"/>
      <use xlink:href="#DejaVuSans-6c" x="702.734375"/>
      <use xlink:href="#DejaVuSans-75" x="730.517578"/>
      <use xlink:href="#DejaVuSans-65" x="793.896484"/>
     </g>
    </g>
   </g>
   <g id="line2d_32">
    <path d="M 340.596913 69.249573 
L 347.039124 69.249573 
L 353.481334 69.249573 
L 359.923545 69.249573 
L 366.365756 69.249573 
L 372.807966 69.249573 
L 378.992488 69.249573 
L 379.250177 69.249573 
L 385.692387 69.249573 
L 391.876909 69.249573 
L 392.134598 69.249573 
L 398.576808 69.249573 
L 404.76133 69.249573 
L 405.019019 69.249573 
L 411.461229 69.249573 
L 417.645751 69.249573 
L 417.90344 69.249573 
L 424.34565 69.249573 
L 430.530172 69.249573 
L 430.787861 69.249573 
L 437.230071 69.249573 
L 443.414593 69.249573 
L 443.672282 69.249573 
L 450.114492 69.249573 
L 456.299014 69.249573 
L 456.556703 69.249573 
L 462.998913 69.249573 
L 469.183435 69.249573 
L 469.441124 69.249573 
L 475.883334 69.249573 
L 482.067856 69.249573 
L 482.325545 69.249573 
L 488.767755 69.249573 
L 494.952277 69.249573 
L 495.209966 69.249573 
L 501.652176 69.249573 
L 507.836698 69.249573 
L 508.094387 69.249573 
L 514.536597 69.249573 
L 520.721119 69.249573 
L 520.978808 69.249573 
L 527.421018 69.249573 
L 533.605541 69.249573 
L 533.863229 69.249573 
L 540.305439 69.249573 
L 546.489962 69.249573 
" clip-path="url(#p2d566557ac)" style="fill: none; stroke-dasharray: 7.4,3.2; stroke-dashoffset: 0; stroke: #333333; stroke-width: 2"/>
   </g>
   <g id="line2d_33">
    <path d="M 340.596913 78.80534 
L 347.039124 271.8 
L 353.481334 154.683964 
L 359.923545 134.141373 
L 366.365756 102.528614 
L 372.807966 96.285189 
L 378.992488 96.285189 
L 379.250177 135.593886 
L 385.692387 78.102103 
L 391.876909 78.102103 
L 392.134598 103.854612 
L 398.576808 108.841283 
L 404.76133 108.841283 
L 405.019019 81.213647 
L 411.461229 89.391064 
L 417.645751 89.391064 
L 417.90344 85.892 
L 424.34565 81.729174 
L 430.530172 81.729174 
L 430.787861 97.65176 
L 437.230071 77.257011 
L 443.414593 77.257011 
L 443.672282 102.689136 
L 450.114492 116.826611 
L 456.299014 116.826611 
L 456.556703 103.032784 
L 462.998913 86.505481 
L 469.183435 86.505481 
L 469.441124 112.080918 
L 475.883334 98.105794 
L 482.067856 98.105794 
L 482.325545 78.127103 
L 488.767755 68.962816 
L 494.952277 68.962816 
L 495.209966 83.324191 
L 501.652176 60.12 
L 507.836698 60.12 
L 508.094387 93.544588 
L 514.536597 72.239246 
L 520.721119 72.239246 
L 520.978808 80.411058 
L 527.421018 91.200387 
L 533.605541 91.200387 
L 533.863229 87.150127 
L 540.305439 88.994557 
L 546.489962 88.994557 
" clip-path="url(#p2d566557ac)" style="fill: none; stroke: #1b9e77; stroke-width: 1.5; stroke-linecap: square"/>
    <g clip-path="url(#p2d566557ac)">
     <use xlink:href="#m7de1aea606" x="340.596913" y="78.80534" style="fill: #1b9e77; stroke: #1b9e77"/>
     <use xlink:href="#m7de1aea606" x="347.039124" y="271.8" style="fill: #1b9e77; stroke: #1b9e77"/>
     <use xlink:href="#m7de1aea606" x="353.481334" y="154.683964" style="fill: #1b9e77; stroke: #1b9e77"/>
     <use xlink:href="#m7de1aea606" x="359.923545" y="134.141373" style="fill: #1b9e77; stroke: #1b9e77"/>
     <use xlink:href="#m7de1aea606" x="366.365756" y="102.528614" style="fill: #1b9e77; stroke: #1b9e77"/>
     <use xlink:href="#m7de1aea606" x="372.807966" y="96.285189" style="fill: #1b9e77; stroke: #1b9e77"/>
     <use xlink:href="#m7de1aea606" x="378.992488" y="96.285189" style="fill: #1b9e77; stroke: #1b9e77"/>
     <use xlink:href="#m7de1aea606" x="379.250177" y="135.593886" style="fill: #1b9e77; stroke: #1b9e77"/>
     <use xlink:href="#m7de1aea606" x="385.692387" y="78.102103" style="fill: #1b9e77; stroke: #1b9e77"/>
     <use xlink:href="#m7de1aea606" x="391.876909" y="78.102103" style="fill: #1b9e77; stroke: #1b9e77"/>
     <use xlink:href="#m7de1aea606" x="392.134598" y="103.854612" style="fill: #1b9e77; stroke: #1b9e77"/>
     <use xlink:href="#m7de1aea606" x="398.576808" y="108.841283" style="fill: #1b9e77; stroke: #1b9e77"/>
     <use xlink:href="#m7de1aea606" x="404.76133" y="108.841283" style="fill: #1b9e77; stroke: #1b9e77"/>
     <use xlink:href="#m7de1aea606" x="405.019019" y="81.213647" style="fill: #1b9e77; stroke: #1b9e77"/>
     <use xlink:href="#m7de1aea606" x="411.461229" y="89.391064" style="fill: #1b9e77; stroke: #1b9e77"/>
     <use xlink:href="#m7de1aea606" x="417.645751" y="89.391064" style="fill: #1b9e77; stroke: #1b9e77"/>
     <use xlink:href="#m7de1aea606" x="417.90344" y="85.892" style="fill: #1b9e77; stroke: #1b9e77"/>
     <use xlink:href="#m7de1aea606" x="424.34565" y="81.729174" style="fill: #1b9e77; stroke: #1b9e77"/>
     <use xlink:href="#m7de1aea606" x="430.530172" y="81.729174" style="fill: #1b9e77; stroke: #1b9e77"/>
     <use xlink:href="#m7de1aea606" x="430.787861" y="97.65176" style="fill: #1b9e77; stroke: #1b9e77"/>
     <use xlink:href="#m7de1aea606" x="437.230071" y="77.257011" style="fill: #1b9e77; stroke: #1b9e77"/>
     <use xlink:href="#m7de1aea606" x="443.414593" y="77.257011" style="fill: #1b9e77; stroke: #1b9e77"/>
     <use xlink:href="#m7de1aea606" x="443.672282" y="102.689136" style="fill: #1b9e77; stroke: #1b9e77"/>
     <use xlink:href="#m7de1aea606" x="450.114492" y="116.826611" style="fill: #1b9e77; stroke: #1b9e77"/>
     <use xlink:href="#m7de1aea606" x="456.299014" y="116.826611" style="fill: #1b9e77; stroke: #1b9e77"/>
     <use xlink:href="#m7de1aea606" x="456.556703" y="103.032784" style="fill: #1b9e77; stroke: #1b9e77"/>
     <use xlink:href="#m7de1aea606" x="462.998913" y="86.505481" style="fill: #1b9e77; stroke: #1b9e77"/>
     <use xlink:href="#m7de1aea606" x="469.183435" y="86.505481" style="fill: #1b9e77; stroke: #1b9e77"/>
     <use xlink:href="#m7de1aea606" x="469.441124" y="112.080918" style="fill: #1b9e77; stroke: #1b9e77"/>
     <use xlink:href="#m7de1aea606" x="475.883334" y="98.105794" style="fill: #1b9e77; stroke: #1b9e77"/>
     <use xlink:href="#m7de1aea606" x="482.067856" y="98.105794" style="fill: #1b9e77; stroke: #1b9e77"/>
     <use xlink:href="#m7de1aea606" x="482.325545" y="78.127103" style="fill: #1b9e77; stroke: #1b9e77"/>
     <use xlink:href="#m7de1aea606" x="488.767755" y="68.962816" style="fill: #1b9e77; stroke: #1b9e77"/>
     <use xlink:href="#m7de1aea606" x="494.952277" y="68.962816" style="fill: #1b9e77; stroke: #1b9e77"/>
     <use xlink:href="#m7de1aea606" x="495.209966" y="83.324191" style="fill: #1b9e77; stroke: #1b9e77"/>
     <use xlink:href="#m7de1aea606" x="501.652176" y="60.12" style="fill: #1b9e77; stroke: #1b9e77"/>
     <use xlink:href="#m7de1aea606" x="507.836698" y="60.12" style="fill: #1b9e77; stroke: #1b9e77"/>
     <use xlink:href="#m7de1aea606" x="508.094387" y="93.544588" style="fill: #1b9e77; stroke: #1b9e77"/>
     <use xlink:href="#m7de1aea606" x="514.536597" y="72.239246" style="fill: #1b9e77; stroke: #1b9e77"/>
     <use xlink:href="#m7de1aea606" x="520.721119" y="72.239246" style="fill: #1b9e77; stroke: #1b9e77"/>
     <use xlink:href="#m7de1aea606" x="520.978808" y="80.411058" style="fill: #1b9e77; stroke: #1b9e77"/>
     <use xlink:href="#m7de1aea606" x="527.421018" y="91.200387" style="fill: #1b9e77; stroke: #1b9e77"/>
     <use xlink:href="#m7de1aea606" x="533.605541" y="91.200387" style="fill: #1b9e77; stroke: #1b9e77"/>
     <use xlink:href="#m7de1aea606" x="533.863229" y="87.150127" style="fill: #1b9e77; stroke: #1b9e77"/>
     <use xlink:href="#m7de1aea606" x="540.305439" y="88.994557" style="fill: #1b9e77; stroke: #1b9e77"/>
     <use xlink:href="#m7de1aea606" x="546.489962" y="88.994557" style="fill: #1b9e77; stroke: #1b9e77"/>
    </g>
   </g>
   <g id="patch_9">
    <path d="M 330.302261 282.384 
L 330.302261 49.536 
" style="fill: none; stroke: #000000; stroke-width: 0.8; stroke-linejoin: miter; stroke-linecap: square"/>
   </g>
   <g id="patch_10">
    <path d="M 556.784614 282.384 
L 556.784614 49.536 
" style="fill: none; stroke: #000000; stroke-width: 0.8; stroke-linejoin: miter; stroke-linecap: square"/>
   </g>
   <g id="patch_11">
    <path d="M 330.302261 282.384 
L 556.784614 282.384 
" style="fill: none; stroke: #000000; stroke-width: 0.8; stroke-linejoin: miter; stroke-linecap: square"/>
   </g>
   <g id="patch_12">
    <path d="M 330.302261 49.536 
L 556.784614 49.536 
" style="fill: none; stroke: #000000; stroke-width: 0.8; stroke-linejoin: miter; stroke-linecap: square"/>
   </g>
   <g id="text_35">
    <!-- task 3: Breakout -->
    <g transform="translate(394.362188 43.536) scale(0.12 -0.12)">
     <defs>
      <path id="DejaVuSans-33" d="M 2597 2516 
Q 3050 2419 3304 2112 
Q 3559 1806 3559 1356 
Q 3559 666 3084 287 
Q 2609 -91 1734 -91 
Q 1441 -91 1130 -33 
Q 819 25 488 141 
L 488 750 
Q 750 597 1062 519 
Q 1375 441 1716 441 
Q 2309 441 2620 675 
Q 2931 909 2931 1356 
Q 2931 1769 2642 2001 
Q 2353 2234 1838 2234 
L 1294 2234 
L 1294 2753 
L 1863 2753 
Q 2328 2753 2575 2939 
Q 2822 3125 2822 3475 
Q 2822 3834 2567 4026 
Q 2313 4219 1838 4219 
Q 1578 4219 1281 4162 
Q 984 4106 628 3988 
L 628 4550 
Q 988 4650 1302 4700 
Q 1616 4750 1894 4750 
Q 2613 4750 3031 4423 
Q 3450 4097 3450 3541 
Q 3450 3153 3228 2886 
Q 3006 2619 2597 2516 
z
" transform="scale(0.015625)"/>
     </defs>
     <use xlink:href="#DejaVuSans-74"/>
     <use xlink:href="#DejaVuSans-61" x="39.208984"/>
     <use xlink:href="#DejaVuSans-73" x="100.488281"/>
     <use xlink:href="#DejaVuSans-6b" x="152.587891"/>
     <use xlink:href="#DejaVuSans-20" x="210.498047"/>
     <use xlink:href="#DejaVuSans-33" x="242.285156"/>
     <use xlink:href="#DejaVuSans-3a" x="305.908203"/>
     <use xlink:href="#DejaVuSans-20" x="339.599609"/>
     <use xlink:href="#DejaVuSans-42" x="371.386719"/>
     <use xlink:href="#DejaVuSans-72" x="439.990234"/>
     <use xlink:href="#DejaVuSans-65" x="478.853516"/>
     <use xlink:href="#DejaVuSans-61" x="540.376953"/>
     <use xlink:href="#DejaVuSans-6b" x="601.65625"/>
     <use xlink:href="#DejaVuSans-6f" x="655.941406"/>
     <use xlink:href="#DejaVuSans-75" x="717.123047"/>
     <use xlink:href="#DejaVuSans-74" x="780.501953"/>
    </g>
   </g>
   <g id="legend_2">
    <g id="patch_13">
     <path d="M 431.710864 278.384 
L 551.184614 278.384 
Q 552.784614 278.384 552.784614 276.784 
L 552.784614 253.654 
Q 552.784614 252.054 551.184614 252.054 
L 431.710864 252.054 
Q 430.110864 252.054 430.110864 253.654 
L 430.110864 276.784 
Q 430.110864 278.384 431.710864 278.384 
z
" style="fill: #ffffff; opacity: 0.8; stroke: #cccccc; stroke-linejoin: miter"/>
    </g>
    <g id="line2d_34">
     <path d="M 433.310864 258.53275 
L 441.310864 258.53275 
L 449.310864 258.53275 
" style="fill: none; stroke-dasharray: 7.4,3.2; stroke-dashoffset: 0; stroke: #333333; stroke-width: 2"/>
    </g>
    <g id="text_36">
     <!-- V_L (local ref, frozen) -->
     <g transform="translate(455.710864 261.33275) scale(0.08 -0.08)">
      <use xlink:href="#DejaVuSans-56"/>
      <use xlink:href="#DejaVuSans-5f" x="68.408203"/>
      <use xlink:href="#DejaVuSans-4c" x="118.408203"/>
      <use xlink:href="#DejaVuSans-20" x="174.121094"/>
      <use xlink:href="#DejaVuSans-28" x="205.908203"/>
      <use xlink:href="#DejaVuSans-6c" x="244.921875"/>
      <use xlink:href="#DejaVuSans-6f" x="272.705078"/>
      <use xlink:href="#DejaVuSans-63" x="333.886719"/>
      <use xlink:href="#DejaVuSans-61" x="388.867188"/>
      <use xlink:href="#DejaVuSans-6c" x="450.146484"/>
      <use xlink:href="#DejaVuSans-20" x="477.929688"/>
      <use xlink:href="#DejaVuSans-72" x="509.716797"/>
      <use xlink:href="#DejaVuSans-65" x="548.580078"/>
      <use xlink:href="#DejaVuSans-66" x="610.103516"/>
      <use xlink:href="#DejaVuSans-2c" x="645.308594"/>
      <use xlink:href="#DejaVuSans-20" x="677.095703"/>
      <use xlink:href="#DejaVuSans-66" x="708.882812"/>
      <use xlink:href="#DejaVuSans-72" x="744.087891"/>
      <use xlink:href="#DejaVuSans-6f" x="782.951172"/>
      <use xlink:href="#DejaVuSans-7a" x="844.132812"/>
      <use xlink:href="#DejaVuSans-65" x="896.623047"/>
      <use xlink:href="#DejaVuSans-6e" x="958.146484"/>
      <use xlink:href="#DejaVuSans-29" x="1021.525391"/>
     </g>
    </g>
    <g id="line2d_35">
     <path d="M 433.310864 270.49775 
L 441.310864 270.49775 
L 449.310864 270.49775 
" style="fill: none; stroke: #1b9e77; stroke-width: 1.5; stroke-linecap: square"/>
     <g>
      <use xlink:href="#m7de1aea606" x="441.310864" y="270.49775" style="fill: #1b9e77; stroke: #1b9e77"/>
     </g>
    </g>
    <g id="text_37">
     <!-- V_G (global, head-only) -->
     <g transform="translate(455.710864 273.29775) scale(0.08 -0.08)">
      <use xlink:href="#DejaVuSans-56"/>
      <use xlink:href="#DejaVuSans-5f" x="68.408203"/>
      <use xlink:href="#DejaVuSans-47" x="118.408203"/>
      <use xlink:href="#DejaVuSans-20" x="195.898438"/>
      <use xlink:href="#DejaVuSans-28" x="227.685547"/>
      <use xlink:href="#DejaVuSans-67" x="266.699219"/>
      <use xlink:href="#DejaVuSans-6c" x="330.175781"/>
      <use xlink:href="#DejaVuSans-6f" x="357.958984"/>
      <use xlink:href="#DejaVuSans-62" x="419.140625"/>
      <use xlink:href="#DejaVuSans-61" x="482.617188"/>
      <use xlink:href="#DejaVuSans-6c" x="543.896484"/>
      <use xlink:href="#DejaVuSans-2c" x="571.679688"/>
      <use xlink:href="#DejaVuSans-20" x="603.466797"/>
      <use xlink:href="#DejaVuSans-68" x="635.253906"/>
      <use xlink:href="#DejaVuSans-65" x="698.632812"/>
      <use xlink:href="#DejaVuSans-61" x="760.15625"/>
      <use xlink:href="#DejaVuSans-64" x="821.435547"/>
      <use xlink:href="#DejaVuSans-2d" x="884.912109"/>
      <use xlink:href="#DejaVuSans-6f" x="922.871094"/>
      <use xlink:href="#DejaVuSans-6e" x="984.052734"/>
      <use xlink:href="#DejaVuSans-6c" x="1047.431641"/>
      <use xlink:href="#DejaVuSans-79" x="1075.214844"/>
      <use xlink:href="#DejaVuSans-29" x="1134.394531"/>
     </g>
    </g>
   </g>
  </g>
  <g id="axes_3">
   <g id="patch_14">
    <path d="M 602.081085 282.384 
L 828.563437 282.384 
L 828.563437 49.536 
L 602.081085 49.536 
z
" style="fill: #ffffff"/>
   </g>
   <g id="matplotlib.axis_5">
    <g id="xtick_11">
     <g id="line2d_36">
      <g>
       <use xlink:href="#me398c41e65" x="612.375737" y="282.384" style="stroke: #000000; stroke-width: 0.8"/>
      </g>
     </g>
     <g id="text_38">
      <!-- 0 -->
      <g transform="translate(609.194487 296.982438) scale(0.1 -0.1)">
       <use xlink:href="#DejaVuSans-30"/>
      </g>
     </g>
    </g>
    <g id="xtick_12">
     <g id="line2d_37">
      <g>
       <use xlink:href="#me398c41e65" x="663.913421" y="282.384" style="stroke: #000000; stroke-width: 0.8"/>
      </g>
     </g>
     <g id="text_39">
      <!-- 200 -->
      <g transform="translate(654.369671 296.982438) scale(0.1 -0.1)">
       <use xlink:href="#DejaVuSans-32"/>
       <use xlink:href="#DejaVuSans-30" x="63.623047"/>
       <use xlink:href="#DejaVuSans-30" x="127.246094"/>
      </g>
     </g>
    </g>
    <g id="xtick_13">
     <g id="line2d_38">
      <g>
       <use xlink:href="#me398c41e65" x="715.451105" y="282.384" style="stroke: #000000; stroke-width: 0.8"/>
      </g>
     </g>
     <g id="text_40">
      <!-- 400 -->
      <g transform="translate(705.907355 296.982438) scale(0.1 -0.1)">
       <use xlink:href="#DejaVuSans-34"/>
       <use xlink:href="#DejaVuSans-30" x="63.623047"/>
       <use xlink:href="#DejaVuSans-30" x="127.246094"/>
      </g>
     </g>
    </g>
    <g id="xtick_14">
     <g id="line2d_39">
      <g>
       <use xlink:href="#me398c41e65" x="766.988789" y="282.384" style="stroke: #000000; stroke-width: 0.8"/>
      </g>
     </g>
     <g id="text_41">
      <!-- 600 -->
      <g transform="translate(757.445039 296.982438) scale(0.1 -0.1)">
       <use xlink:href="#DejaVuSans-36"/>
       <use xlink:href="#DejaVuSans-30" x="63.623047"/>
       <use xlink:href="#DejaVuSans-30" x="127.246094"/>
      </g>
     </g>
    </g>
    <g id="xtick_15">
     <g id="line2d_40">
      <g>
       <use xlink:href="#me398c41e65" x="818.526474" y="282.384" style="stroke: #000000; stroke-width: 0.8"/>
      </g>
     </g>
     <g id="text_42">
      <!-- 800 -->
      <g transform="translate(808.982724 296.982438) scale(0.1 -0.1)">
       <use xlink:href="#DejaVuSans-38"/>
       <use xlink:href="#DejaVuSans-30" x="63.623047"/>
       <use xlink:href="#DejaVuSans-30" x="127.246094"/>
      </g>
     </g>
    </g>
    <g id="text_43">
     <!-- global iter -->
     <g transform="translate(690.001949 310.660563) scale(0.1 -0.1)">
      <use xlink:href="#DejaVuSans-67"/>
      <use xlink:href="#DejaVuSans-6c" x="63.476562"/>
      <use xlink:href="#DejaVuSans-6f" x="91.259766"/>
      <use xlink:href="#DejaVuSans-62" x="152.441406"/>
      <use xlink:href="#DejaVuSans-61" x="215.917969"/>
      <use xlink:href="#DejaVuSans-6c" x="277.197266"/>
      <use xlink:href="#DejaVuSans-20" x="304.980469"/>
      <use xlink:href="#DejaVuSans-69" x="336.767578"/>
      <use xlink:href="#DejaVuSans-74" x="364.550781"/>
      <use xlink:href="#DejaVuSans-65" x="403.759766"/>
      <use xlink:href="#DejaVuSans-72" x="465.283203"/>
     </g>
    </g>
   </g>
   <g id="matplotlib.axis_6">
    <g id="ytick_18">
     <g id="line2d_41">
      <g>
       <use xlink:href="#m0af65ad199" x="602.081085" y="268.197424" style="stroke: #000000; stroke-width: 0.8"/>
      </g>
     </g>
     <g id="text_44">
      <!-- −1.6 -->
      <g transform="translate(570.798272 271.996642) scale(0.1 -0.1)">
       <use xlink:href="#DejaVuSans-2212"/>
       <use xlink:href="#DejaVuSans-31" x="83.789062"/>
       <use xlink:href="#DejaVuSans-2e" x="147.412109"/>
       <use xlink:href="#DejaVuSans-36" x="179.199219"/>
      </g>
     </g>
    </g>
    <g id="ytick_19">
     <g id="line2d_42">
      <g>
       <use xlink:href="#m0af65ad199" x="602.081085" y="237.407286" style="stroke: #000000; stroke-width: 0.8"/>
      </g>
     </g>
     <g id="text_45">
      <!-- −1.4 -->
      <g transform="translate(570.798272 241.206505) scale(0.1 -0.1)">
       <use xlink:href="#DejaVuSans-2212"/>
       <use xlink:href="#DejaVuSans-31" x="83.789062"/>
       <use xlink:href="#DejaVuSans-2e" x="147.412109"/>
       <use xlink:href="#DejaVuSans-34" x="179.199219"/>
      </g>
     </g>
    </g>
    <g id="ytick_20">
     <g id="line2d_43">
      <g>
       <use xlink:href="#m0af65ad199" x="602.081085" y="206.617149" style="stroke: #000000; stroke-width: 0.8"/>
      </g>
     </g>
     <g id="text_46">
      <!-- −1.2 -->
      <g transform="translate(570.798272 210.416368) scale(0.1 -0.1)">
       <use xlink:href="#DejaVuSans-2212"/>
       <use xlink:href="#DejaVuSans-31" x="83.789062"/>
       <use xlink:href="#DejaVuSans-2e" x="147.412109"/>
       <use xlink:href="#DejaVuSans-32" x="179.199219"/>
      </g>
     </g>
    </g>
    <g id="ytick_21">
     <g id="line2d_44">
      <g>
       <use xlink:href="#m0af65ad199" x="602.081085" y="175.827012" style="stroke: #000000; stroke-width: 0.8"/>
      </g>
     </g>
     <g id="text_47">
      <!-- −1.0 -->
      <g transform="translate(570.798272 179.626231) scale(0.1 -0.1)">
       <use xlink:href="#DejaVuSans-2212"/>
       <use xlink:href="#DejaVuSans-31" x="83.789062"/>
       <use xlink:href="#DejaVuSans-2e" x="147.412109"/>
       <use xlink:href="#DejaVuSans-30" x="179.199219"/>
      </g>
     </g>
    </g>
    <g id="ytick_22">
     <g id="line2d_45">
      <g>
       <use xlink:href="#m0af65ad199" x="602.081085" y="145.036875" style="stroke: #000000; stroke-width: 0.8"/>
      </g>
     </g>
     <g id="text_48">
      <!-- −0.8 -->
      <g transform="translate(570.798272 148.836094) scale(0.1 -0.1)">
       <use xlink:href="#DejaVuSans-2212"/>
       <use xlink:href="#DejaVuSans-30" x="83.789062"/>
       <use xlink:href="#DejaVuSans-2e" x="147.412109"/>
       <use xlink:href="#DejaVuSans-38" x="179.199219"/>
      </g>
     </g>
    </g>
    <g id="ytick_23">
     <g id="line2d_46">
      <g>
       <use xlink:href="#m0af65ad199" x="602.081085" y="114.246738" style="stroke: #000000; stroke-width: 0.8"/>
      </g>
     </g>
     <g id="text_49">
      <!-- −0.6 -->
      <g transform="translate(570.798272 118.045957) scale(0.1 -0.1)">
       <use xlink:href="#DejaVuSans-2212"/>
       <use xlink:href="#DejaVuSans-30" x="83.789062"/>
       <use xlink:href="#DejaVuSans-2e" x="147.412109"/>
       <use xlink:href="#DejaVuSans-36" x="179.199219"/>
      </g>
     </g>
    </g>
    <g id="ytick_24">
     <g id="line2d_47">
      <g>
       <use xlink:href="#m0af65ad199" x="602.081085" y="83.456601" style="stroke: #000000; stroke-width: 0.8"/>
      </g>
     </g>
     <g id="text_50">
      <!-- −0.4 -->
      <g transform="translate(570.798272 87.255819) scale(0.1 -0.1)">
       <use xlink:href="#DejaVuSans-2212"/>
       <use xlink:href="#DejaVuSans-30" x="83.789062"/>
       <use xlink:href="#DejaVuSans-2e" x="147.412109"/>
       <use xlink:href="#DejaVuSans-34" x="179.199219"/>
      </g>
     </g>
    </g>
    <g id="ytick_25">
     <g id="line2d_48">
      <g>
       <use xlink:href="#m0af65ad199" x="602.081085" y="52.666463" style="stroke: #000000; stroke-width: 0.8"/>
      </g>
     </g>
     <g id="text_51">
      <!-- −0.2 -->
      <g transform="translate(570.798272 56.465682) scale(0.1 -0.1)">
       <use xlink:href="#DejaVuSans-2212"/>
       <use xlink:href="#DejaVuSans-30" x="83.789062"/>
       <use xlink:href="#DejaVuSans-2e" x="147.412109"/>
       <use xlink:href="#DejaVuSans-32" x="179.199219"/>
      </g>
     </g>
    </g>
    <g id="text_52">
     <!-- discounted value -->
     <g transform="translate(564.718585 208.731875) rotate(-90) scale(0.1 -0.1)">
      <use xlink:href="#DejaVuSans-64"/>
      <use xlink:href="#DejaVuSans-69" x="63.476562"/>
      <use xlink:href="#DejaVuSans-73" x="91.259766"/>
      <use xlink:href="#DejaVuSans-63" x="143.359375"/>
      <use xlink:href="#DejaVuSans-6f" x="198.339844"/>
      <use xlink:href="#DejaVuSans-75" x="259.521484"/>
      <use xlink:href="#DejaVuSans-6e" x="322.900391"/>
      <use xlink:href="#DejaVuSans-74" x="386.279297"/>
      <use xlink:href="#DejaVuSans-65" x="425.488281"/>
      <use xlink:href="#DejaVuSans-64" x="487.011719"/>
      <use xlink:href="#DejaVuSans-20" x="550.488281"/>
      <use xlink:href="#DejaVuSans-76" x="582.275391"/>
      <use xlink:href="#DejaVuSans-61" x="641.455078"/>
      <use xlink:href="#DejaVuSans-6c" x="702.734375"/>
      <use xlink:href="#DejaVuSans-75" x="730.517578"/>
      <use xlink:href="#DejaVuSans-65" x="793.896484"/>
     </g>
    </g>
   </g>
   <g id="line2d_49">
    <path d="M 612.375737 93.966992 
L 618.817947 93.966992 
L 625.260158 93.966992 
L 631.702369 93.966992 
L 638.144579 93.966992 
L 644.58679 93.966992 
L 650.771312 93.966992 
L 651.029 93.966992 
L 657.471211 93.966992 
L 663.655733 93.966992 
L 663.913421 93.966992 
L 670.355632 93.966992 
L 676.540154 93.966992 
L 676.797842 93.966992 
L 683.240053 93.966992 
L 689.424575 93.966992 
L 689.682263 93.966992 
L 696.124474 93.966992 
L 702.308996 93.966992 
L 702.566684 93.966992 
L 709.008895 93.966992 
L 715.193417 93.966992 
L 715.451105 93.966992 
L 721.893316 93.966992 
L 728.077838 93.966992 
L 728.335526 93.966992 
L 734.777737 93.966992 
L 740.962259 93.966992 
L 741.219947 93.966992 
L 747.662158 93.966992 
L 753.84668 93.966992 
L 754.104368 93.966992 
L 760.546579 93.966992 
L 766.731101 93.966992 
L 766.988789 93.966992 
L 773.431 93.966992 
L 779.615522 93.966992 
L 779.87321 93.966992 
L 786.315421 93.966992 
L 792.499943 93.966992 
L 792.757631 93.966992 
L 799.199842 93.966992 
L 805.384364 93.966992 
L 805.642052 93.966992 
L 812.084263 93.966992 
L 818.268785 93.966992 
" clip-path="url(#p0401a29dc0)" style="fill: none; stroke-dasharray: 7.4,3.2; stroke-dashoffset: 0; stroke: #333333; stroke-width: 2"/>
   </g>
   <g id="line2d_50">
    <path d="M 612.375737 60.12 
L 618.817947 271.8 
L 625.260158 163.026253 
L 631.702369 91.314449 
L 638.144579 178.52102 
L 644.58679 129.748082 
L 650.771312 129.748082 
L 651.029 118.816482 
L 657.471211 70.158817 
L 663.655733 70.158817 
L 663.913421 170.086146 
L 670.355632 83.484343 
L 676.540154 83.484343 
L 676.797842 108.867987 
L 683.240053 140.471555 
L 689.424575 140.471555 
L 689.682263 68.061518 
L 696.124474 102.721297 
L 702.308996 102.721297 
L 702.566684 140.270435 
L 709.008895 79.888127 
L 715.193417 79.888127 
L 715.451105 115.065087 
L 721.893316 72.549188 
L 728.077838 72.549188 
L 728.335526 131.754322 
L 734.777737 92.529756 
L 740.962259 92.529756 
L 741.219947 72.790226 
L 747.662158 163.801511 
L 753.84668 163.801511 
L 754.104368 113.820658 
L 760.546579 78.017787 
L 766.731101 78.017787 
L 766.988789 86.219516 
L 773.431 93.423649 
L 779.615522 93.423649 
L 779.87321 162.821678 
L 786.315421 77.631991 
L 792.499943 77.631991 
L 792.757631 115.849262 
L 799.199842 105.446145 
L 805.384364 105.446145 
L 805.642052 134.383924 
L 812.084263 130.427635 
L 818.268785 130.427635 
" clip-path="url(#p0401a29dc0)" style="fill: none; stroke: #1b9e77; stroke-width: 1.5; stroke-linecap: square"/>
    <g clip-path="url(#p0401a29dc0)">
     <use xlink:href="#m7de1aea606" x="612.375737" y="60.12" style="fill: #1b9e77; stroke: #1b9e77"/>
     <use xlink:href="#m7de1aea606" x="618.817947" y="271.8" style="fill: #1b9e77; stroke: #1b9e77"/>
     <use xlink:href="#m7de1aea606" x="625.260158" y="163.026253" style="fill: #1b9e77; stroke: #1b9e77"/>
     <use xlink:href="#m7de1aea606" x="631.702369" y="91.314449" style="fill: #1b9e77; stroke: #1b9e77"/>
     <use xlink:href="#m7de1aea606" x="638.144579" y="178.52102" style="fill: #1b9e77; stroke: #1b9e77"/>
     <use xlink:href="#m7de1aea606" x="644.58679" y="129.748082" style="fill: #1b9e77; stroke: #1b9e77"/>
     <use xlink:href="#m7de1aea606" x="650.771312" y="129.748082" style="fill: #1b9e77; stroke: #1b9e77"/>
     <use xlink:href="#m7de1aea606" x="651.029" y="118.816482" style="fill: #1b9e77; stroke: #1b9e77"/>
     <use xlink:href="#m7de1aea606" x="657.471211" y="70.158817" style="fill: #1b9e77; stroke: #1b9e77"/>
     <use xlink:href="#m7de1aea606" x="663.655733" y="70.158817" style="fill: #1b9e77; stroke: #1b9e77"/>
     <use xlink:href="#m7de1aea606" x="663.913421" y="170.086146" style="fill: #1b9e77; stroke: #1b9e77"/>
     <use xlink:href="#m7de1aea606" x="670.355632" y="83.484343" style="fill: #1b9e77; stroke: #1b9e77"/>
     <use xlink:href="#m7de1aea606" x="676.540154" y="83.484343" style="fill: #1b9e77; stroke: #1b9e77"/>
     <use xlink:href="#m7de1aea606" x="676.797842" y="108.867987" style="fill: #1b9e77; stroke: #1b9e77"/>
     <use xlink:href="#m7de1aea606" x="683.240053" y="140.471555" style="fill: #1b9e77; stroke: #1b9e77"/>
     <use xlink:href="#m7de1aea606" x="689.424575" y="140.471555" style="fill: #1b9e77; stroke: #1b9e77"/>
     <use xlink:href="#m7de1aea606" x="689.682263" y="68.061518" style="fill: #1b9e77; stroke: #1b9e77"/>
     <use xlink:href="#m7de1aea606" x="696.124474" y="102.721297" style="fill: #1b9e77; stroke: #1b9e77"/>
     <use xlink:href="#m7de1aea606" x="702.308996" y="102.721297" style="fill: #1b9e77; stroke: #1b9e77"/>
     <use xlink:href="#m7de1aea606" x="702.566684" y="140.270435" style="fill: #1b9e77; stroke: #1b9e77"/>
     <use xlink:href="#m7de1aea606" x="709.008895" y="79.888127" style="fill: #1b9e77; stroke: #1b9e77"/>
     <use xlink:href="#m7de1aea606" x="715.193417" y="79.888127" style="fill: #1b9e77; stroke: #1b9e77"/>
     <use xlink:href="#m7de1aea606" x="715.451105" y="115.065087" style="fill: #1b9e77; stroke: #1b9e77"/>
     <use xlink:href="#m7de1aea606" x="721.893316" y="72.549188" style="fill: #1b9e77; stroke: #1b9e77"/>
     <use xlink:href="#m7de1aea606" x="728.077838" y="72.549188" style="fill: #1b9e77; stroke: #1b9e77"/>
     <use xlink:href="#m7de1aea606" x="728.335526" y="131.754322" style="fill: #1b9e77; stroke: #1b9e77"/>
     <use xlink:href="#m7de1aea606" x="734.777737" y="92.529756" style="fill: #1b9e77; stroke: #1b9e77"/>
     <use xlink:href="#m7de1aea606" x="740.962259" y="92.529756" style="fill: #1b9e77; stroke: #1b9e77"/>
     <use xlink:href="#m7de1aea606" x="741.219947" y="72.790226" style="fill: #1b9e77; stroke: #1b9e77"/>
     <use xlink:href="#m7de1aea606" x="747.662158" y="163.801511" style="fill: #1b9e77; stroke: #1b9e77"/>
     <use xlink:href="#m7de1aea606" x="753.84668" y="163.801511" style="fill: #1b9e77; stroke: #1b9e77"/>
     <use xlink:href="#m7de1aea606" x="754.104368" y="113.820658" style="fill: #1b9e77; stroke: #1b9e77"/>
     <use xlink:href="#m7de1aea606" x="760.546579" y="78.017787" style="fill: #1b9e77; stroke: #1b9e77"/>
     <use xlink:href="#m7de1aea606" x="766.731101" y="78.017787" style="fill: #1b9e77; stroke: #1b9e77"/>
     <use xlink:href="#m7de1aea606" x="766.988789" y="86.219516" style="fill: #1b9e77; stroke: #1b9e77"/>
     <use xlink:href="#m7de1aea606" x="773.431" y="93.423649" style="fill: #1b9e77; stroke: #1b9e77"/>
     <use xlink:href="#m7de1aea606" x="779.615522" y="93.423649" style="fill: #1b9e77; stroke: #1b9e77"/>
     <use xlink:href="#m7de1aea606" x="779.87321" y="162.821678" style="fill: #1b9e77; stroke: #1b9e77"/>
     <use xlink:href="#m7de1aea606" x="786.315421" y="77.631991" style="fill: #1b9e77; stroke: #1b9e77"/>
     <use xlink:href="#m7de1aea606" x="792.499943" y="77.631991" style="fill: #1b9e77; stroke: #1b9e77"/>
     <use xlink:href="#m7de1aea606" x="792.757631" y="115.849262" style="fill: #1b9e77; stroke: #1b9e77"/>
     <use xlink:href="#m7de1aea606" x="799.199842" y="105.446145" style="fill: #1b9e77; stroke: #1b9e77"/>
     <use xlink:href="#m7de1aea606" x="805.384364" y="105.446145" style="fill: #1b9e77; stroke: #1b9e77"/>
     <use xlink:href="#m7de1aea606" x="805.642052" y="134.383924" style="fill: #1b9e77; stroke: #1b9e77"/>
     <use xlink:href="#m7de1aea606" x="812.084263" y="130.427635" style="fill: #1b9e77; stroke: #1b9e77"/>
     <use xlink:href="#m7de1aea606" x="818.268785" y="130.427635" style="fill: #1b9e77; stroke: #1b9e77"/>
    </g>
   </g>
   <g id="patch_15">
    <path d="M 602.081085 282.384 
L 602.081085 49.536 
" style="fill: none; stroke: #000000; stroke-width: 0.8; stroke-linejoin: miter; stroke-linecap: square"/>
   </g>
   <g id="patch_16">
    <path d="M 828.563437 282.384 
L 828.563437 49.536 
" style="fill: none; stroke: #000000; stroke-width: 0.8; stroke-linejoin: miter; stroke-linecap: square"/>
   </g>
   <g id="patch_17">
    <path d="M 602.081085 282.384 
L 828.563437 282.384 
" style="fill: none; stroke: #000000; stroke-width: 0.8; stroke-linejoin: miter; stroke-linecap: square"/>
   </g>
   <g id="patch_18">
    <path d="M 602.081085 49.536 
L 828.563437 49.536 
" style="fill: none; stroke: #000000; stroke-width: 0.8; stroke-linejoin: miter; stroke-linecap: square"/>
   </g>
   <g id="text_53">
    <!-- task 4: Pong -->
    <g transform="translate(678.357574 43.536) scale(0.12 -0.12)">
     <defs>
      <path id="DejaVuSans-50" d="M 1259 4147 
L 1259 2394 
L 2053 2394 
Q 2494 2394 2734 2622 
Q 2975 2850 2975 3272 
Q 2975 3691 2734 3919 
Q 2494 4147 2053 4147 
L 1259 4147 
z
M 628 4666 
L 2053 4666 
Q 2838 4666 3239 4311 
Q 3641 3956 3641 3272 
Q 3641 2581 3239 2228 
Q 2838 1875 2053 1875 
L 1259 1875 
L 1259 0 
L 628 0 
L 628 4666 
z
" transform="scale(0.015625)"/>
     </defs>
     <use xlink:href="#DejaVuSans-74"/>
     <use xlink:href="#DejaVuSans-61" x="39.208984"/>
     <use xlink:href="#DejaVuSans-73" x="100.488281"/>
     <use xlink:href="#DejaVuSans-6b" x="152.587891"/>
     <use xlink:href="#DejaVuSans-20" x="210.498047"/>
     <use xlink:href="#DejaVuSans-34" x="242.285156"/>
     <use xlink:href="#DejaVuSans-3a" x="305.908203"/>
     <use xlink:href="#DejaVuSans-20" x="339.599609"/>
     <use xlink:href="#DejaVuSans-50" x="371.386719"/>
     <use xlink:href="#DejaVuSans-6f" x="428.064453"/>
     <use xlink:href="#DejaVuSans-6e" x="489.246094"/>
     <use xlink:href="#DejaVuSans-67" x="552.625"/>
    </g>
   </g>
   <g id="legend_3">
    <g id="patch_19">
     <path d="M 703.489687 278.384 
L 822.963437 278.384 
Q 824.563437 278.384 824.563437 276.784 
L 824.563437 253.654 
Q 824.563437 252.054 822.963437 252.054 
L 703.489687 252.054 
Q 701.889687 252.054 701.889687 253.654 
L 701.889687 276.784 
Q 701.889687 278.384 703.489687 278.384 
z
" style="fill: #ffffff; opacity: 0.8; stroke: #cccccc; stroke-linejoin: miter"/>
    </g>
    <g id="line2d_51">
     <path d="M 705.089687 258.53275 
L 713.089687 258.53275 
L 721.089687 258.53275 
" style="fill: none; stroke-dasharray: 7.4,3.2; stroke-dashoffset: 0; stroke: #333333; stroke-width: 2"/>
    </g>
    <g id="text_54">
     <!-- V_L (local ref, frozen) -->
     <g transform="translate(727.489687 261.33275) scale(0.08 -0.08)">
      <use xlink:href="#DejaVuSans-56"/>
      <use xlink:href="#DejaVuSans-5f" x="68.408203"/>
      <use xlink:href="#DejaVuSans-4c" x="118.408203"/>
      <use xlink:href="#DejaVuSans-20" x="174.121094"/>
      <use xlink:href="#DejaVuSans-28" x="205.908203"/>
      <use xlink:href="#DejaVuSans-6c" x="244.921875"/>
      <use xlink:href="#DejaVuSans-6f" x="272.705078"/>
      <use xlink:href="#DejaVuSans-63" x="333.886719"/>
      <use xlink:href="#DejaVuSans-61" x="388.867188"/>
      <use xlink:href="#DejaVuSans-6c" x="450.146484"/>
      <use xlink:href="#DejaVuSans-20" x="477.929688"/>
      <use xlink:href="#DejaVuSans-72" x="509.716797"/>
      <use xlink:href="#DejaVuSans-65" x="548.580078"/>
      <use xlink:href="#DejaVuSans-66" x="610.103516"/>
      <use xlink:href="#DejaVuSans-2c" x="645.308594"/>
      <use xlink:href="#DejaVuSans-20" x="677.095703"/>
      <use xlink:href="#DejaVuSans-66" x="708.882812"/>
      <use xlink:href="#DejaVuSans-72" x="744.087891"/>
      <use xlink:href="#DejaVuSans-6f" x="782.951172"/>
      <use xlink:href="#DejaVuSans-7a" x="844.132812"/>
      <use xlink:href="#DejaVuSans-65" x="896.623047"/>
      <use xlink:href="#DejaVuSans-6e" x="958.146484"/>
      <use xlink:href="#DejaVuSans-29" x="1021.525391"/>
     </g>
    </g>
    <g id="line2d_52">
     <path d="M 705.089687 270.49775 
L 713.089687 270.49775 
L 721.089687 270.49775 
" style="fill: none; stroke: #1b9e77; stroke-width: 1.5; stroke-linecap: square"/>
     <g>
      <use xlink:href="#m7de1aea606" x="713.089687" y="270.49775" style="fill: #1b9e77; stroke: #1b9e77"/>
     </g>
    </g>
    <g id="text_55">
     <!-- V_G (global, head-only) -->
     <g transform="translate(727.489687 273.29775) scale(0.08 -0.08)">
      <use xlink:href="#DejaVuSans-56"/>
      <use xlink:href="#DejaVuSans-5f" x="68.408203"/>
      <use xlink:href="#DejaVuSans-47" x="118.408203"/>
      <use xlink:href="#DejaVuSans-20" x="195.898438"/>
      <use xlink:href="#DejaVuSans-28" x="227.685547"/>
      <use xlink:href="#DejaVuSans-67" x="266.699219"/>
      <use xlink:href="#DejaVuSans-6c" x="330.175781"/>
      <use xlink:href="#DejaVuSans-6f" x="357.958984"/>
      <use xlink:href="#DejaVuSans-62" x="419.140625"/>
      <use xlink:href="#DejaVuSans-61" x="482.617188"/>
      <use xlink:href="#DejaVuSans-6c" x="543.896484"/>
      <use xlink:href="#DejaVuSans-2c" x="571.679688"/>
      <use xlink:href="#DejaVuSans-20" x="603.466797"/>
      <use xlink:href="#DejaVuSans-68" x="635.253906"/>
      <use xlink:href="#DejaVuSans-65" x="698.632812"/>
      <use xlink:href="#DejaVuSans-61" x="760.15625"/>
      <use xlink:href="#DejaVuSans-64" x="821.435547"/>
      <use xlink:href="#DejaVuSans-2d" x="884.912109"/>
      <use xlink:href="#DejaVuSans-6f" x="922.871094"/>
      <use xlink:href="#DejaVuSans-6e" x="984.052734"/>
      <use xlink:href="#DejaVuSans-6c" x="1047.431641"/>
      <use xlink:href="#DejaVuSans-79" x="1075.214844"/>
      <use xlink:href="#DejaVuSans-29" x="1134.394531"/>
     </g>
    </g>
   </g>
  </g>
  <g id="text_56">
   <!-- Head-only consolidation: does V_G reach the local reference V_L? -->
   <g transform="translate(210.145312 16.318125) scale(0.12 -0.12)">
    <defs>
     <path id="DejaVuSans-Bold-48" d="M 588 4666 
L 1791 4666 
L 1791 2888 
L 3566 2888 
L 3566 4666 
L 4769 4666 
L 4769 0 
L 3566 0 
L 3566 1978 
L 1791 1978 
L 1791 0 
L 588 0 
L 588 4666 
z
" transform="scale(0.015625)"/>
     <path id="DejaVuSans-Bold-65" d="M 4031 1759 
L 4031 1441 
L 1416 1441 
Q 1456 1047 1700 850 
Q 1944 653 2381 653 
Q 2734 653 3104 758 
Q 3475 863 3866 1075 
L 3866 213 
Q 3469 63 3072 -14 
Q 2675 -91 2278 -91 
Q 1328 -91 801 392 
Q 275 875 275 1747 
Q 275 2603 792 3093 
Q 1309 3584 2216 3584 
Q 3041 3584 3536 3087 
Q 4031 2591 4031 1759 
z
M 2881 2131 
Q 2881 2450 2695 2645 
Q 2509 2841 2209 2841 
Q 1884 2841 1681 2658 
Q 1478 2475 1428 2131 
L 2881 2131 
z
" transform="scale(0.015625)"/>
     <path id="DejaVuSans-Bold-61" d="M 2106 1575 
Q 1756 1575 1579 1456 
Q 1403 1338 1403 1106 
Q 1403 894 1545 773 
Q 1688 653 1941 653 
Q 2256 653 2472 879 
Q 2688 1106 2688 1447 
L 2688 1575 
L 2106 1575 
z
M 3816 1997 
L 3816 0 
L 2688 0 
L 2688 519 
Q 2463 200 2181 54 
Q 1900 -91 1497 -91 
Q 953 -91 614 226 
Q 275 544 275 1050 
Q 275 1666 698 1953 
Q 1122 2241 2028 2241 
L 2688 2241 
L 2688 2328 
Q 2688 2594 2478 2717 
Q 2269 2841 1825 2841 
Q 1466 2841 1156 2769 
Q 847 2697 581 2553 
L 581 3406 
Q 941 3494 1303 3539 
Q 1666 3584 2028 3584 
Q 2975 3584 3395 3211 
Q 3816 2838 3816 1997 
z
" transform="scale(0.015625)"/>
     <path id="DejaVuSans-Bold-64" d="M 2919 2988 
L 2919 4863 
L 4044 4863 
L 4044 0 
L 2919 0 
L 2919 506 
Q 2688 197 2409 53 
Q 2131 -91 1766 -91 
Q 1119 -91 703 423 
Q 288 938 288 1747 
Q 288 2556 703 3070 
Q 1119 3584 1766 3584 
Q 2128 3584 2408 3439 
Q 2688 3294 2919 2988 
z
M 2181 722 
Q 2541 722 2730 984 
Q 2919 1247 2919 1747 
Q 2919 2247 2730 2509 
Q 2541 2772 2181 2772 
Q 1825 2772 1636 2509 
Q 1447 2247 1447 1747 
Q 1447 1247 1636 984 
Q 1825 722 2181 722 
z
" transform="scale(0.015625)"/>
     <path id="DejaVuSans-Bold-2d" d="M 347 2297 
L 2309 2297 
L 2309 1388 
L 347 1388 
L 347 2297 
z
" transform="scale(0.015625)"/>
     <path id="DejaVuSans-Bold-6f" d="M 2203 2784 
Q 1831 2784 1636 2517 
Q 1441 2250 1441 1747 
Q 1441 1244 1636 976 
Q 1831 709 2203 709 
Q 2569 709 2762 976 
Q 2956 1244 2956 1747 
Q 2956 2250 2762 2517 
Q 2569 2784 2203 2784 
z
M 2203 3584 
Q 3106 3584 3614 3096 
Q 4122 2609 4122 1747 
Q 4122 884 3614 396 
Q 3106 -91 2203 -91 
Q 1297 -91 786 396 
Q 275 884 275 1747 
Q 275 2609 786 3096 
Q 1297 3584 2203 3584 
z
" transform="scale(0.015625)"/>
     <path id="DejaVuSans-Bold-6e" d="M 4056 2131 
L 4056 0 
L 2931 0 
L 2931 347 
L 2931 1631 
Q 2931 2084 2911 2256 
Q 2891 2428 2841 2509 
Q 2775 2619 2662 2680 
Q 2550 2741 2406 2741 
Q 2056 2741 1856 2470 
Q 1656 2200 1656 1722 
L 1656 0 
L 538 0 
L 538 3500 
L 1656 3500 
L 1656 2988 
Q 1909 3294 2193 3439 
Q 2478 3584 2822 3584 
Q 3428 3584 3742 3212 
Q 4056 2841 4056 2131 
z
" transform="scale(0.015625)"/>
     <path id="DejaVuSans-Bold-6c" d="M 538 4863 
L 1656 4863 
L 1656 0 
L 538 0 
L 538 4863 
z
" transform="scale(0.015625)"/>
     <path id="DejaVuSans-Bold-79" d="M 78 3500 
L 1197 3500 
L 2138 1125 
L 2938 3500 
L 4056 3500 
L 2584 -331 
Q 2363 -916 2067 -1148 
Q 1772 -1381 1288 -1381 
L 641 -1381 
L 641 -647 
L 991 -647 
Q 1275 -647 1404 -556 
Q 1534 -466 1606 -231 
L 1638 -134 
L 78 3500 
z
" transform="scale(0.015625)"/>
     <path id="DejaVuSans-Bold-20" transform="scale(0.015625)"/>
     <path id="DejaVuSans-Bold-63" d="M 3366 3391 
L 3366 2478 
Q 3138 2634 2908 2709 
Q 2678 2784 2431 2784 
Q 1963 2784 1702 2511 
Q 1441 2238 1441 1747 
Q 1441 1256 1702 982 
Q 1963 709 2431 709 
Q 2694 709 2930 787 
Q 3166 866 3366 1019 
L 3366 103 
Q 3103 6 2833 -42 
Q 2563 -91 2291 -91 
Q 1344 -91 809 395 
Q 275 881 275 1747 
Q 275 2613 809 3098 
Q 1344 3584 2291 3584 
Q 2566 3584 2833 3536 
Q 3100 3488 3366 3391 
z
" transform="scale(0.015625)"/>
     <path id="DejaVuSans-Bold-73" d="M 3272 3391 
L 3272 2541 
Q 2913 2691 2578 2766 
Q 2244 2841 1947 2841 
Q 1628 2841 1473 2761 
Q 1319 2681 1319 2516 
Q 1319 2381 1436 2309 
Q 1553 2238 1856 2203 
L 2053 2175 
Q 2913 2066 3209 1816 
Q 3506 1566 3506 1031 
Q 3506 472 3093 190 
Q 2681 -91 1863 -91 
Q 1516 -91 1145 -36 
Q 775 19 384 128 
L 384 978 
Q 719 816 1070 734 
Q 1422 653 1784 653 
Q 2113 653 2278 743 
Q 2444 834 2444 1013 
Q 2444 1163 2330 1236 
Q 2216 1309 1875 1350 
L 1678 1375 
Q 931 1469 631 1722 
Q 331 1975 331 2491 
Q 331 3047 712 3315 
Q 1094 3584 1881 3584 
Q 2191 3584 2531 3537 
Q 2872 3491 3272 3391 
z
" transform="scale(0.015625)"/>
     <path id="DejaVuSans-Bold-69" d="M 538 3500 
L 1656 3500 
L 1656 0 
L 538 0 
L 538 3500 
z
M 538 4863 
L 1656 4863 
L 1656 3950 
L 538 3950 
L 538 4863 
z
" transform="scale(0.015625)"/>
     <path id="DejaVuSans-Bold-74" d="M 1759 4494 
L 1759 3500 
L 2913 3500 
L 2913 2700 
L 1759 2700 
L 1759 1216 
Q 1759 972 1856 886 
Q 1953 800 2241 800 
L 2816 800 
L 2816 0 
L 1856 0 
Q 1194 0 917 276 
Q 641 553 641 1216 
L 641 2700 
L 84 2700 
L 84 3500 
L 641 3500 
L 641 4494 
L 1759 4494 
z
" transform="scale(0.015625)"/>
     <path id="DejaVuSans-Bold-3a" d="M 716 3500 
L 1844 3500 
L 1844 2291 
L 716 2291 
L 716 3500 
z
M 716 1209 
L 1844 1209 
L 1844 0 
L 716 0 
L 716 1209 
z
" transform="scale(0.015625)"/>
     <path id="DejaVuSans-Bold-56" d="M 31 4666 
L 1241 4666 
L 2478 1222 
L 3713 4666 
L 4922 4666 
L 3194 0 
L 1759 0 
L 31 4666 
z
" transform="scale(0.015625)"/>
     <path id="DejaVuSans-Bold-5f" d="M 3200 -916 
L 3200 -1509 
L 0 -1509 
L 0 -916 
L 3200 -916 
z
" transform="scale(0.015625)"/>
     <path id="DejaVuSans-Bold-47" d="M 4781 347 
Q 4331 128 3847 18 
Q 3363 -91 2847 -91 
Q 1681 -91 1000 561 
Q 319 1213 319 2328 
Q 319 3456 1012 4103 
Q 1706 4750 2913 4750 
Q 3378 4750 3804 4662 
Q 4231 4575 4609 4403 
L 4609 3438 
Q 4219 3659 3833 3768 
Q 3447 3878 3059 3878 
Q 2341 3878 1952 3476 
Q 1563 3075 1563 2328 
Q 1563 1588 1938 1184 
Q 2313 781 3003 781 
Q 3191 781 3352 804 
Q 3513 828 3641 878 
L 3641 1784 
L 2906 1784 
L 2906 2591 
L 4781 2591 
L 4781 347 
z
" transform="scale(0.015625)"/>
     <path id="DejaVuSans-Bold-72" d="M 3138 2547 
Q 2991 2616 2845 2648 
Q 2700 2681 2553 2681 
Q 2122 2681 1889 2404 
Q 1656 2128 1656 1613 
L 1656 0 
L 538 0 
L 538 3500 
L 1656 3500 
L 1656 2925 
Q 1872 3269 2151 3426 
Q 2431 3584 2822 3584 
Q 2878 3584 2943 3579 
Q 3009 3575 3134 3559 
L 3138 2547 
z
" transform="scale(0.015625)"/>
     <path id="DejaVuSans-Bold-68" d="M 4056 2131 
L 4056 0 
L 2931 0 
L 2931 347 
L 2931 1625 
Q 2931 2084 2911 2256 
Q 2891 2428 2841 2509 
Q 2775 2619 2662 2680 
Q 2550 2741 2406 2741 
Q 2056 2741 1856 2470 
Q 1656 2200 1656 1722 
L 1656 0 
L 538 0 
L 538 4863 
L 1656 4863 
L 1656 2988 
Q 1909 3294 2193 3439 
Q 2478 3584 2822 3584 
Q 3428 3584 3742 3212 
Q 4056 2841 4056 2131 
z
" transform="scale(0.015625)"/>
     <path id="DejaVuSans-Bold-66" d="M 2841 4863 
L 2841 4128 
L 2222 4128 
Q 1984 4128 1890 4042 
Q 1797 3956 1797 3744 
L 1797 3500 
L 2753 3500 
L 2753 2700 
L 1797 2700 
L 1797 0 
L 678 0 
L 678 2700 
L 122 2700 
L 122 3500 
L 678 3500 
L 678 3744 
Q 678 4316 997 4589 
Q 1316 4863 1984 4863 
L 2841 4863 
z
" transform="scale(0.015625)"/>
     <path id="DejaVuSans-Bold-4c" d="M 588 4666 
L 1791 4666 
L 1791 909 
L 3903 909 
L 3903 0 
L 588 0 
L 588 4666 
z
" transform="scale(0.015625)"/>
     <path id="DejaVuSans-Bold-3f" d="M 2216 1575 
L 1088 1575 
L 1088 1728 
Q 1088 1984 1191 2182 
Q 1294 2381 1625 2688 
L 1825 2869 
Q 2003 3031 2086 3175 
Q 2169 3319 2169 3463 
Q 2169 3681 2019 3804 
Q 1869 3928 1600 3928 
Q 1347 3928 1053 3823 
Q 759 3719 441 3513 
L 441 4494 
Q 819 4625 1131 4687 
Q 1444 4750 1734 4750 
Q 2497 4750 2897 4439 
Q 3297 4128 3297 3531 
Q 3297 3225 3175 2983 
Q 3053 2741 2759 2463 
L 2559 2284 
Q 2347 2091 2281 1973 
Q 2216 1856 2216 1716 
L 2216 1575 
z
M 1088 1113 
L 2216 1113 
L 2216 0 
L 1088 0 
L 1088 1113 
z
" transform="scale(0.015625)"/>
    </defs>
    <use xlink:href="#DejaVuSans-Bold-48"/>
    <use xlink:href="#DejaVuSans-Bold-65" x="83.691406"/>
    <use xlink:href="#DejaVuSans-Bold-61" x="151.513672"/>
    <use xlink:href="#DejaVuSans-Bold-64" x="218.994141"/>
    <use xlink:href="#DejaVuSans-Bold-2d" x="290.576172"/>
    <use xlink:href="#DejaVuSans-Bold-6f" x="332.080078"/>
    <use xlink:href="#DejaVuSans-Bold-6e" x="400.78125"/>
    <use xlink:href="#DejaVuSans-Bold-6c" x="471.972656"/>
    <use xlink:href="#DejaVuSans-Bold-79" x="506.25"/>
    <use xlink:href="#DejaVuSans-Bold-20" x="571.435547"/>
    <use xlink:href="#DejaVuSans-Bold-63" x="606.25"/>
    <use xlink:href="#DejaVuSans-Bold-6f" x="665.527344"/>
    <use xlink:href="#DejaVuSans-Bold-6e" x="734.228516"/>
    <use xlink:href="#DejaVuSans-Bold-73" x="805.419922"/>
    <use xlink:href="#DejaVuSans-Bold-6f" x="864.941406"/>
    <use xlink:href="#DejaVuSans-Bold-6c" x="933.642578"/>
    <use xlink:href="#DejaVuSans-Bold-69" x="967.919922"/>
    <use xlink:href="#DejaVuSans-Bold-64" x="1002.197266"/>
    <use xlink:href="#DejaVuSans-Bold-61" x="1073.779297"/>
    <use xlink:href="#DejaVuSans-Bold-74" x="1141.259766"/>
    <use xlink:href="#DejaVuSans-Bold-69" x="1189.0625"/>
    <use xlink:href="#DejaVuSans-Bold-6f" x="1223.339844"/>
    <use xlink:href="#DejaVuSans-Bold-6e" x="1292.041016"/>
    <use xlink:href="#DejaVuSans-Bold-3a" x="1363.232422"/>
    <use xlink:href="#DejaVuSans-Bold-20" x="1403.222656"/>
    <use xlink:href="#DejaVuSans-Bold-64" x="1438.037109"/>
    <use xlink:href="#DejaVuSans-Bold-6f" x="1509.619141"/>
    <use xlink:href="#DejaVuSans-Bold-65" x="1578.320312"/>
    <use xlink:href="#DejaVuSans-Bold-73" x="1646.142578"/>
    <use xlink:href="#DejaVuSans-Bold-20" x="1705.664062"/>
    <use xlink:href="#DejaVuSans-Bold-56" x="1740.478516"/>
    <use xlink:href="#DejaVuSans-Bold-5f" x="1817.871094"/>
    <use xlink:href="#DejaVuSans-Bold-47" x="1867.871094"/>
    <use xlink:href="#DejaVuSans-Bold-20" x="1949.951172"/>
    <use xlink:href="#DejaVuSans-Bold-72" x="1984.765625"/>
    <use xlink:href="#DejaVuSans-Bold-65" x="2034.082031"/>
    <use xlink:href="#DejaVuSans-Bold-61" x="2101.904297"/>
    <use xlink:href="#DejaVuSans-Bold-63" x="2169.384766"/>
    <use xlink:href="#DejaVuSans-Bold-68" x="2228.662109"/>
    <use xlink:href="#DejaVuSans-Bold-20" x="2299.853516"/>
    <use xlink:href="#DejaVuSans-Bold-74" x="2334.667969"/>
    <use xlink:href="#DejaVuSans-Bold-68" x="2382.470703"/>
    <use xlink:href="#DejaVuSans-Bold-65" x="2453.662109"/>
    <use xlink:href="#DejaVuSans-Bold-20" x="2521.484375"/>
    <use xlink:href="#DejaVuSans-Bold-6c" x="2556.298828"/>
    <use xlink:href="#DejaVuSans-Bold-6f" x="2590.576172"/>
    <use xlink:href="#DejaVuSans-Bold-63" x="2659.277344"/>
    <use xlink:href="#DejaVuSans-Bold-61" x="2718.554688"/>
    <use xlink:href="#DejaVuSans-Bold-6c" x="2786.035156"/>
    <use xlink:href="#DejaVuSans-Bold-20" x="2820.3125"/>
    <use xlink:href="#DejaVuSans-Bold-72" x="2855.126953"/>
    <use xlink:href="#DejaVuSans-Bold-65" x="2904.443359"/>
    <use xlink:href="#DejaVuSans-Bold-66" x="2972.265625"/>
    <use xlink:href="#DejaVuSans-Bold-65" x="3015.771484"/>
    <use xlink:href="#DejaVuSans-Bold-72" x="3083.59375"/>
    <use xlink:href="#DejaVuSans-Bold-65" x="3132.910156"/>
    <use xlink:href="#DejaVuSans-Bold-6e" x="3200.732422"/>
    <use xlink:href="#DejaVuSans-Bold-63" x="3271.923828"/>
    <use xlink:href="#DejaVuSans-Bold-65" x="3331.201172"/>
    <use xlink:href="#DejaVuSans-Bold-20" x="3399.023438"/>
    <use xlink:href="#DejaVuSans-Bold-56" x="3433.837891"/>
    <use xlink:href="#DejaVuSans-Bold-5f" x="3511.230469"/>
    <use xlink:href="#DejaVuSans-Bold-4c" x="3561.230469"/>
    <use xlink:href="#DejaVuSans-Bold-3f" x="3624.951172"/>
   </g>
  </g>
 </g>
 <defs>
  <clipPath id="pefe7b9a9cd">
   <rect x="58.523438" y="49.536" width="226.482353" height="232.848"/>
  </clipPath>
  <clipPath id="p2d566557ac">
   <rect x="330.302261" y="49.536" width="226.482353" height="232.848"/>
  </clipPath>
  <clipPath id="p0401a29dc0">
   <rect x="602.081085" y="49.536" width="226.482353" height="232.848"/>
  </clipPath>
 </defs>
</svg>
