<?xml version="1.0" encoding="utf-8" standalone="no"?>
<!DOCTYPE svg PUBLIC "-//W3C//DTD SVG 1.1//EN"
  "http://www.w3.org/Graphics/SVG/1.1/DTD/svg11.dtd">
<svg xmlns:xlink="http://www.w3.org/1999/xlink" width="567.182466pt" height="323.674375pt" viewBox="0 0 567.182466 323.674375" xmlns="http://www.w3.org/2000/svg" version="1.1">
 <metadata>
  <rdf:RDF xmlns:dc="http://purl.org/dc/elements/1.1/" xmlns:cc="http://creativecommons.org/ns#" xmlns:rdf="http://www.w3.org/1999/02/22-rdf-syntax-ns#">
   <cc:Work>
    <dc:type rdf:resource="http://purl.org/dc/dcmitype/StillImage"/>
    <dc:date>2026-07-22T23:32:12.276283</dc:date>
    <dc:format>image/svg+xml</dc:format>
    <dc:creator>
     <cc:Agent>
      <dc:title>Matplotlib v3.7.1, https://matplotlib.org/</dc:title>
     </cc:Agent>
    </dc:creator>
   </cc:Work>
  </rdf:RDF>
 </metadata>
 <defs>
  <style type="text/css">*{stroke-linejoin: round; stroke-linecap: butt}</style>
 </defs>
 <g id="figure_1">
  <g id="patch_1">
   <path d="M 0 323.674375 
L 567.182466 323.674375 
L 567.182466 0 
L 0 0 
z
" style="fill: #ffffff"/>
  </g>
  <g id="axes_1">
   <g id="patch_2">
    <path d="M 52.439063 286.118125 
L 558.463127 286.118125 
L 558.463127 22.318125 
L 52.439063 22.318125 
z
" style="fill: #ffffff"/>
   </g>
   <g id="matplotlib.axis_1">
    <g id="xtick_1">
     <g id="line2d_1">
      <defs>
       <path id="m9beec7dd1c" d="M 0 0 
L 0 3.5 
" style="stroke: #000000; stroke-width: 0.8"/>
      </defs>
      <g>
       <use xlink:href="#m9beec7dd1c" x="75.440156" y="286.118125" style="stroke: #000000; stroke-width: 0.8"/>
      </g>
     </g>
     <g id="text_1">
      <!-- 0 -->
      <g transform="translate(72.258906 300.716562) scale(0.1 -0.1)">
       <defs>
        <path id="DejaVuSans-30" d="M 2034 4250 
Q 1547 4250 1301 3770 
Q 1056 3291 1056 2328 
Q 1056 1369 1301 889 
Q 1547 409 2034 409 
Q 2525 409 2770 889 
Q 3016 1369 3016 2328 
Q 3016 3291 2770 3770 
Q 2525 4250 2034 4250 
z
M 2034 4750 
Q 2819 4750 3233 4129 
Q 3647 3509 3647 2328 
Q 3647 1150 3233 529 
Q 2819 -91 2034 -91 
Q 1250 -91 836 529 
Q 422 1150 422 2328 
Q 422 3509 836 4129 
Q 1250 4750 2034 4750 
z
" transform="scale(0.015625)"/>
       </defs>
       <use xlink:href="#DejaVuSans-30"/>
      </g>
     </g>
    </g>
    <g id="xtick_2">
     <g id="line2d_2">
      <g>
       <use xlink:href="#m9beec7dd1c" x="169.803618" y="286.118125" style="stroke: #000000; stroke-width: 0.8"/>
      </g>
     </g>
     <g id="text_2">
      <!-- 200 -->
      <g transform="translate(160.259868 300.716562) scale(0.1 -0.1)">
       <defs>
        <path id="DejaVuSans-32" d="M 1228 531 
L 3431 531 
L 3431 0 
L 469 0 
L 469 531 
Q 828 903 1448 1529 
Q 2069 2156 2228 2338 
Q 2531 2678 2651 2914 
Q 2772 3150 2772 3378 
Q 2772 3750 2511 3984 
Q 2250 4219 1831 4219 
Q 1534 4219 1204 4116 
Q 875 4013 500 3803 
L 500 4441 
Q 881 4594 1212 4672 
Q 1544 4750 1819 4750 
Q 2544 4750 2975 4387 
Q 3406 4025 3406 3419 
Q 3406 3131 3298 2873 
Q 3191 2616 2906 2266 
Q 2828 2175 2409 1742 
Q 1991 1309 1228 531 
z
" transform="scale(0.015625)"/>
       </defs>
       <use xlink:href="#DejaVuSans-32"/>
       <use xlink:href="#DejaVuSans-30" x="63.623047"/>
       <use xlink:href="#DejaVuSans-30" x="127.246094"/>
      </g>
     </g>
    </g>
    <g id="xtick_3">
     <g id="line2d_3">
      <g>
       <use xlink:href="#m9beec7dd1c" x="264.16708" y="286.118125" style="stroke: #000000; stroke-width: 0.8"/>
      </g>
     </g>
     <g id="text_3">
      <!-- 400 -->
      <g transform="translate(254.62333 300.716562) scale(0.1 -0.1)">
       <defs>
        <path id="DejaVuSans-34" d="M 2419 4116 
L 825 1625 
L 2419 1625 
L 2419 4116 
z
M 2253 4666 
L 3047 4666 
L 3047 1625 
L 3713 1625 
L 3713 1100 
L 3047 1100 
L 3047 0 
L 2419 0 
L 2419 1100 
L 313 1100 
L 313 1709 
L 2253 4666 
z
" transform="scale(0.015625)"/>
       </defs>
       <use xlink:href="#DejaVuSans-34"/>
       <use xlink:href="#DejaVuSans-30" x="63.623047"/>
       <use xlink:href="#DejaVuSans-30" x="127.246094"/>
      </g>
     </g>
    </g>
    <g id="xtick_4">
     <g id="line2d_4">
      <g>
       <use xlink:href="#m9beec7dd1c" x="358.530542" y="286.118125" style="stroke: #000000; stroke-width: 0.8"/>
      </g>
     </g>
     <g id="text_4">
      <!-- 600 -->
      <g transform="translate(348.986792 300.716562) scale(0.1 -0.1)">
       <defs>
        <path id="DejaVuSans-36" d="M 2113 2584 
Q 1688 2584 1439 2293 
Q 1191 2003 1191 1497 
Q 1191 994 1439 701 
Q 1688 409 2113 409 
Q 2538 409 2786 701 
Q 3034 994 3034 1497 
Q 3034 2003 2786 2293 
Q 2538 2584 2113 2584 
z
M 3366 4563 
L 3366 3988 
Q 3128 4100 2886 4159 
Q 2644 4219 2406 4219 
Q 1781 4219 1451 3797 
Q 1122 3375 1075 2522 
Q 1259 2794 1537 2939 
Q 1816 3084 2150 3084 
Q 2853 3084 3261 2657 
Q 3669 2231 3669 1497 
Q 3669 778 3244 343 
Q 2819 -91 2113 -91 
Q 1303 -91 875 529 
Q 447 1150 447 2328 
Q 447 3434 972 4092 
Q 1497 4750 2381 4750 
Q 2619 4750 2861 4703 
Q 3103 4656 3366 4563 
z
" transform="scale(0.015625)"/>
       </defs>
       <use xlink:href="#DejaVuSans-36"/>
       <use xlink:href="#DejaVuSans-30" x="63.623047"/>
       <use xlink:href="#DejaVuSans-30" x="127.246094"/>
      </g>
     </g>
    </g>
    <g id="xtick_5">
     <g id="line2d_5">
      <g>
       <use xlink:href="#m9beec7dd1c" x="452.894004" y="286.118125" style="stroke: #000000; stroke-width: 0.8"/>
      </g>
     </g>
     <g id="text_5">
      <!-- 800 -->
      <g transform="translate(443.350254 300.716562) scale(0.1 -0.1)">
       <defs>
        <path id="DejaVuSans-38" d="M 2034 2216 
Q 1584 2216 1326 1975 
Q 1069 1734 1069 1313 
Q 1069 891 1326 650 
Q 1584 409 2034 409 
Q 2484 409 2743 651 
Q 3003 894 3003 1313 
Q 3003 1734 2745 1975 
Q 2488 2216 2034 2216 
z
M 1403 2484 
Q 997 2584 770 2862 
Q 544 3141 544 3541 
Q 544 4100 942 4425 
Q 1341 4750 2034 4750 
Q 2731 4750 3128 4425 
Q 3525 4100 3525 3541 
Q 3525 3141 3298 2862 
Q 3072 2584 2669 2484 
Q 3125 2378 3379 2068 
Q 3634 1759 3634 1313 
Q 3634 634 3220 271 
Q 2806 -91 2034 -91 
Q 1263 -91 848 271 
Q 434 634 434 1313 
Q 434 1759 690 2068 
Q 947 2378 1403 2484 
z
M 1172 3481 
Q 1172 3119 1398 2916 
Q 1625 2713 2034 2713 
Q 2441 2713 2670 2916 
Q 2900 3119 2900 3481 
Q 2900 3844 2670 4047 
Q 2441 4250 2034 4250 
Q 1625 4250 1398 4047 
Q 1172 3844 1172 3481 
z
" transform="scale(0.015625)"/>
       </defs>
       <use xlink:href="#DejaVuSans-38"/>
       <use xlink:href="#DejaVuSans-30" x="63.623047"/>
       <use xlink:href="#DejaVuSans-30" x="127.246094"/>
      </g>
     </g>
    </g>
    <g id="xtick_6">
     <g id="line2d_6">
      <g>
       <use xlink:href="#m9beec7dd1c" x="547.257466" y="286.118125" style="stroke: #000000; stroke-width: 0.8"/>
      </g>
     </g>
     <g id="text_6">
      <!-- 1000 -->
      <g transform="translate(534.532466 300.716562) scale(0.1 -0.1)">
       <defs>
        <path id="DejaVuSans-31" d="M 794 531 
L 1825 531 
L 1825 4091 
L 703 3866 
L 703 4441 
L 1819 4666 
L 2450 4666 
L 2450 531 
L 3481 531 
L 3481 0 
L 794 0 
L 794 531 
z
" transform="scale(0.015625)"/>
       </defs>
       <use xlink:href="#DejaVuSans-31"/>
       <use xlink:href="#DejaVuSans-30" x="63.623047"/>
       <use xlink:href="#DejaVuSans-30" x="127.246094"/>
       <use xlink:href="#DejaVuSans-30" x="190.869141"/>
      </g>
     </g>
    </g>
    <g id="text_7">
     <!-- global iter -->
     <g transform="translate(280.130782 314.394687) scale(0.1 -0.1)">
      <defs>
       <path id="DejaVuSans-67" d="M 2906 1791 
Q 2906 2416 2648 2759 
Q 2391 3103 1925 3103 
Q 1463 3103 1205 2759 
Q 947 2416 947 1791 
Q 947 1169 1205 825 
Q 1463 481 1925 481 
Q 2391 481 2648 825 
Q 2906 1169 2906 1791 
z
M 3481 434 
Q 3481 -459 3084 -895 
Q 2688 -1331 1869 -1331 
Q 1566 -1331 1297 -1286 
Q 1028 -1241 775 -1147 
L 775 -588 
Q 1028 -725 1275 -790 
Q 1522 -856 1778 -856 
Q 2344 -856 2625 -561 
Q 2906 -266 2906 331 
L 2906 616 
Q 2728 306 2450 153 
Q 2172 0 1784 0 
Q 1141 0 747 490 
Q 353 981 353 1791 
Q 353 2603 747 3093 
Q 1141 3584 1784 3584 
Q 2172 3584 2450 3431 
Q 2728 3278 2906 2969 
L 2906 3500 
L 3481 3500 
L 3481 434 
z
" transform="scale(0.015625)"/>
       <path id="DejaVuSans-6c" d="M 603 4863 
L 1178 4863 
L 1178 0 
L 603 0 
L 603 4863 
z
" transform="scale(0.015625)"/>
       <path id="DejaVuSans-6f" d="M 1959 3097 
Q 1497 3097 1228 2736 
Q 959 2375 959 1747 
Q 959 1119 1226 758 
Q 1494 397 1959 397 
Q 2419 397 2687 759 
Q 2956 1122 2956 1747 
Q 2956 2369 2687 2733 
Q 2419 3097 1959 3097 
z
M 1959 3584 
Q 2709 3584 3137 3096 
Q 3566 2609 3566 1747 
Q 3566 888 3137 398 
Q 2709 -91 1959 -91 
Q 1206 -91 779 398 
Q 353 888 353 1747 
Q 353 2609 779 3096 
Q 1206 3584 1959 3584 
z
" transform="scale(0.015625)"/>
       <path id="DejaVuSans-62" d="M 3116 1747 
Q 3116 2381 2855 2742 
Q 2594 3103 2138 3103 
Q 1681 3103 1420 2742 
Q 1159 2381 1159 1747 
Q 1159 1113 1420 752 
Q 1681 391 2138 391 
Q 2594 391 2855 752 
Q 3116 1113 3116 1747 
z
M 1159 2969 
Q 1341 3281 1617 3432 
Q 1894 3584 2278 3584 
Q 2916 3584 3314 3078 
Q 3713 2572 3713 1747 
Q 3713 922 3314 415 
Q 2916 -91 2278 -91 
Q 1894 -91 1617 61 
Q 1341 213 1159 525 
L 1159 0 
L 581 0 
L 581 4863 
L 1159 4863 
L 1159 2969 
z
" transform="scale(0.015625)"/>
       <path id="DejaVuSans-61" d="M 2194 1759 
Q 1497 1759 1228 1600 
Q 959 1441 959 1056 
Q 959 750 1161 570 
Q 1363 391 1709 391 
Q 2188 391 2477 730 
Q 2766 1069 2766 1631 
L 2766 1759 
L 2194 1759 
z
M 3341 1997 
L 3341 0 
L 2766 0 
L 2766 531 
Q 2569 213 2275 61 
Q 1981 -91 1556 -91 
Q 1019 -91 701 211 
Q 384 513 384 1019 
Q 384 1609 779 1909 
Q 1175 2209 1959 2209 
L 2766 2209 
L 2766 2266 
Q 2766 2663 2505 2880 
Q 2244 3097 1772 3097 
Q 1472 3097 1187 3025 
Q 903 2953 641 2809 
L 641 3341 
Q 956 3463 1253 3523 
Q 1550 3584 1831 3584 
Q 2591 3584 2966 3190 
Q 3341 2797 3341 1997 
z
" transform="scale(0.015625)"/>
       <path id="DejaVuSans-20" transform="scale(0.015625)"/>
       <path id="DejaVuSans-69" d="M 603 3500 
L 1178 3500 
L 1178 0 
L 603 0 
L 603 3500 
z
M 603 4863 
L 1178 4863 
L 1178 4134 
L 603 4134 
L 603 4863 
z
" transform="scale(0.015625)"/>
       <path id="DejaVuSans-74" d="M 1172 4494 
L 1172 3500 
L 2356 3500 
L 2356 3053 
L 1172 3053 
L 1172 1153 
Q 1172 725 1289 603 
Q 1406 481 1766 481 
L 2356 481 
L 2356 0 
L 1766 0 
Q 1100 0 847 248 
Q 594 497 594 1153 
L 594 3053 
L 172 3053 
L 172 3500 
L 594 3500 
L 594 4494 
L 1172 4494 
z
" transform="scale(0.015625)"/>
       <path id="DejaVuSans-65" d="M 3597 1894 
L 3597 1613 
L 953 1613 
Q 991 1019 1311 708 
Q 1631 397 2203 397 
Q 2534 397 2845 478 
Q 3156 559 3463 722 
L 3463 178 
Q 3153 47 2828 -22 
Q 2503 -91 2169 -91 
Q 1331 -91 842 396 
Q 353 884 353 1716 
Q 353 2575 817 3079 
Q 1281 3584 2069 3584 
Q 2775 3584 3186 3129 
Q 3597 2675 3597 1894 
z
M 3022 2063 
Q 3016 2534 2758 2815 
Q 2500 3097 2075 3097 
Q 1594 3097 1305 2825 
Q 1016 2553 972 2059 
L 3022 2063 
z
" transform="scale(0.015625)"/>
       <path id="DejaVuSans-72" d="M 2631 2963 
Q 2534 3019 2420 3045 
Q 2306 3072 2169 3072 
Q 1681 3072 1420 2755 
Q 1159 2438 1159 1844 
L 1159 0 
L 581 0 
L 581 3500 
L 1159 3500 
L 1159 2956 
Q 1341 3275 1631 3429 
Q 1922 3584 2338 3584 
Q 2397 3584 2469 3576 
Q 2541 3569 2628 3553 
L 2631 2963 
z
" transform="scale(0.015625)"/>
      </defs>
      <use xlink:href="#DejaVuSans-67"/>
      <use xlink:href="#DejaVuSans-6c" x="63.476562"/>
      <use xlink:href="#DejaVuSans-6f" x="91.259766"/>
      <use xlink:href="#DejaVuSans-62" x="152.441406"/>
      <use xlink:href="#DejaVuSans-61" x="215.917969"/>
      <use xlink:href="#DejaVuSans-6c" x="277.197266"/>
      <use xlink:href="#DejaVuSans-20" x="304.980469"/>
      <use xlink:href="#DejaVuSans-69" x="336.767578"/>
      <use xlink:href="#DejaVuSans-74" x="364.550781"/>
      <use xlink:href="#DejaVuSans-65" x="403.759766"/>
      <use xlink:href="#DejaVuSans-72" x="465.283203"/>
     </g>
    </g>
   </g>
   <g id="matplotlib.axis_2">
    <g id="ytick_1">
     <g id="line2d_7">
      <defs>
       <path id="m0e571893f1" d="M 0 0 
L -3.5 0 
" style="stroke: #000000; stroke-width: 0.8"/>
      </defs>
      <g>
       <use xlink:href="#m0e571893f1" x="52.439063" y="265.731773" style="stroke: #000000; stroke-width: 0.8"/>
      </g>
     </g>
     <g id="text_8">
      <!-- −1.5 -->
      <g transform="translate(21.15625 269.530992) scale(0.1 -0.1)">
       <defs>
        <path id="DejaVuSans-2212" d="M 678 2272 
L 4684 2272 
L 4684 1741 
L 678 1741 
L 678 2272 
z
" transform="scale(0.015625)"/>
        <path id="DejaVuSans-2e" d="M 684 794 
L 1344 794 
L 1344 0 
L 684 0 
L 684 794 
z
" transform="scale(0.015625)"/>
        <path id="DejaVuSans-35" d="M 691 4666 
L 3169 4666 
L 3169 4134 
L 1269 4134 
L 1269 2991 
Q 1406 3038 1543 3061 
Q 1681 3084 1819 3084 
Q 2600 3084 3056 2656 
Q 3513 2228 3513 1497 
Q 3513 744 3044 326 
Q 2575 -91 1722 -91 
Q 1428 -91 1123 -41 
Q 819 9 494 109 
L 494 744 
Q 775 591 1075 516 
Q 1375 441 1709 441 
Q 2250 441 2565 725 
Q 2881 1009 2881 1497 
Q 2881 1984 2565 2268 
Q 2250 2553 1709 2553 
Q 1456 2553 1204 2497 
Q 953 2441 691 2322 
L 691 4666 
z
" transform="scale(0.015625)"/>
       </defs>
       <use xlink:href="#DejaVuSans-2212"/>
       <use xlink:href="#DejaVuSans-31" x="83.789062"/>
       <use xlink:href="#DejaVuSans-2e" x="147.412109"/>
       <use xlink:href="#DejaVuSans-35" x="179.199219"/>
      </g>
     </g>
    </g>
    <g id="ytick_2">
     <g id="line2d_8">
      <g>
       <use xlink:href="#m0e571893f1" x="52.439063" y="233.683449" style="stroke: #000000; stroke-width: 0.8"/>
      </g>
     </g>
     <g id="text_9">
      <!-- −1.0 -->
      <g transform="translate(21.15625 237.482668) scale(0.1 -0.1)">
       <use xlink:href="#DejaVuSans-2212"/>
       <use xlink:href="#DejaVuSans-31" x="83.789062"/>
       <use xlink:href="#DejaVuSans-2e" x="147.412109"/>
       <use xlink:href="#DejaVuSans-30" x="179.199219"/>
      </g>
     </g>
    </g>
    <g id="ytick_3">
     <g id="line2d_9">
      <g>
       <use xlink:href="#m0e571893f1" x="52.439063" y="201.635126" style="stroke: #000000; stroke-width: 0.8"/>
      </g>
     </g>
     <g id="text_10">
      <!-- −0.5 -->
      <g transform="translate(21.15625 205.434345) scale(0.1 -0.1)">
       <use xlink:href="#DejaVuSans-2212"/>
       <use xlink:href="#DejaVuSans-30" x="83.789062"/>
       <use xlink:href="#DejaVuSans-2e" x="147.412109"/>
       <use xlink:href="#DejaVuSans-35" x="179.199219"/>
      </g>
     </g>
    </g>
    <g id="ytick_4">
     <g id="line2d_10">
      <g>
       <use xlink:href="#m0e571893f1" x="52.439063" y="169.586802" style="stroke: #000000; stroke-width: 0.8"/>
      </g>
     </g>
     <g id="text_11">
      <!-- 0.0 -->
      <g transform="translate(29.535938 173.386021) scale(0.1 -0.1)">
       <use xlink:href="#DejaVuSans-30"/>
       <use xlink:href="#DejaVuSans-2e" x="63.623047"/>
       <use xlink:href="#DejaVuSans-30" x="95.410156"/>
      </g>
     </g>
    </g>
    <g id="ytick_5">
     <g id="line2d_11">
      <g>
       <use xlink:href="#m0e571893f1" x="52.439063" y="137.538479" style="stroke: #000000; stroke-width: 0.8"/>
      </g>
     </g>
     <g id="text_12">
      <!-- 0.5 -->
      <g transform="translate(29.535938 141.337697) scale(0.1 -0.1)">
       <use xlink:href="#DejaVuSans-30"/>
       <use xlink:href="#DejaVuSans-2e" x="63.623047"/>
       <use xlink:href="#DejaVuSans-35" x="95.410156"/>
      </g>
     </g>
    </g>
    <g id="ytick_6">
     <g id="line2d_12">
      <g>
       <use xlink:href="#m0e571893f1" x="52.439063" y="105.490155" style="stroke: #000000; stroke-width: 0.8"/>
      </g>
     </g>
     <g id="text_13">
      <!-- 1.0 -->
      <g transform="translate(29.535938 109.289374) scale(0.1 -0.1)">
       <use xlink:href="#DejaVuSans-31"/>
       <use xlink:href="#DejaVuSans-2e" x="63.623047"/>
       <use xlink:href="#DejaVuSans-30" x="95.410156"/>
      </g>
     </g>
    </g>
    <g id="ytick_7">
     <g id="line2d_13">
      <g>
       <use xlink:href="#m0e571893f1" x="52.439063" y="73.441831" style="stroke: #000000; stroke-width: 0.8"/>
      </g>
     </g>
     <g id="text_14">
      <!-- 1.5 -->
      <g transform="translate(29.535938 77.24105) scale(0.1 -0.1)">
       <use xlink:href="#DejaVuSans-31"/>
       <use xlink:href="#DejaVuSans-2e" x="63.623047"/>
       <use xlink:href="#DejaVuSans-35" x="95.410156"/>
      </g>
     </g>
    </g>
    <g id="ytick_8">
     <g id="line2d_14">
      <g>
       <use xlink:href="#m0e571893f1" x="52.439063" y="41.393508" style="stroke: #000000; stroke-width: 0.8"/>
      </g>
     </g>
     <g id="text_15">
      <!-- 2.0 -->
      <g transform="translate(29.535938 45.192727) scale(0.1 -0.1)">
       <use xlink:href="#DejaVuSans-32"/>
       <use xlink:href="#DejaVuSans-2e" x="63.623047"/>
       <use xlink:href="#DejaVuSans-30" x="95.410156"/>
      </g>
     </g>
    </g>
    <g id="text_16">
     <!-- discounted value V_i^G -->
     <g transform="translate(14.798438 213.9525) rotate(-90) scale(0.1 -0.1)">
      <defs>
       <path id="DejaVuSans-64" d="M 2906 2969 
L 2906 4863 
L 3481 4863 
L 3481 0 
L 2906 0 
L 2906 525 
Q 2725 213 2448 61 
Q 2172 -91 1784 -91 
Q 1150 -91 751 415 
Q 353 922 353 1747 
Q 353 2572 751 3078 
Q 1150 3584 1784 3584 
Q 2172 3584 2448 3432 
Q 2725 3281 2906 2969 
z
M 947 1747 
Q 947 1113 1208 752 
Q 1469 391 1925 391 
Q 2381 391 2643 752 
Q 2906 1113 2906 1747 
Q 2906 2381 2643 2742 
Q 2381 3103 1925 3103 
Q 1469 3103 1208 2742 
Q 947 2381 947 1747 
z
" transform="scale(0.015625)"/>
       <path id="DejaVuSans-73" d="M 2834 3397 
L 2834 2853 
Q 2591 2978 2328 3040 
Q 2066 3103 1784 3103 
Q 1356 3103 1142 2972 
Q 928 2841 928 2578 
Q 928 2378 1081 2264 
Q 1234 2150 1697 2047 
L 1894 2003 
Q 2506 1872 2764 1633 
Q 3022 1394 3022 966 
Q 3022 478 2636 193 
Q 2250 -91 1575 -91 
Q 1294 -91 989 -36 
Q 684 19 347 128 
L 347 722 
Q 666 556 975 473 
Q 1284 391 1588 391 
Q 1994 391 2212 530 
Q 2431 669 2431 922 
Q 2431 1156 2273 1281 
Q 2116 1406 1581 1522 
L 1381 1569 
Q 847 1681 609 1914 
Q 372 2147 372 2553 
Q 372 3047 722 3315 
Q 1072 3584 1716 3584 
Q 2034 3584 2315 3537 
Q 2597 3491 2834 3397 
z
" transform="scale(0.015625)"/>
       <path id="DejaVuSans-63" d="M 3122 3366 
L 3122 2828 
Q 2878 2963 2633 3030 
Q 2388 3097 2138 3097 
Q 1578 3097 1268 2742 
Q 959 2388 959 1747 
Q 959 1106 1268 751 
Q 1578 397 2138 397 
Q 2388 397 2633 464 
Q 2878 531 3122 666 
L 3122 134 
Q 2881 22 2623 -34 
Q 2366 -91 2075 -91 
Q 1284 -91 818 406 
Q 353 903 353 1747 
Q 353 2603 823 3093 
Q 1294 3584 2113 3584 
Q 2378 3584 2631 3529 
Q 2884 3475 3122 3366 
z
" transform="scale(0.015625)"/>
       <path id="DejaVuSans-75" d="M 544 1381 
L 544 3500 
L 1119 3500 
L 1119 1403 
Q 1119 906 1312 657 
Q 1506 409 1894 409 
Q 2359 409 2629 706 
Q 2900 1003 2900 1516 
L 2900 3500 
L 3475 3500 
L 3475 0 
L 2900 0 
L 2900 538 
Q 2691 219 2414 64 
Q 2138 -91 1772 -91 
Q 1169 -91 856 284 
Q 544 659 544 1381 
z
M 1991 3584 
L 1991 3584 
z
" transform="scale(0.015625)"/>
       <path id="DejaVuSans-6e" d="M 3513 2113 
L 3513 0 
L 2938 0 
L 2938 2094 
Q 2938 2591 2744 2837 
Q 2550 3084 2163 3084 
Q 1697 3084 1428 2787 
Q 1159 2491 1159 1978 
L 1159 0 
L 581 0 
L 581 3500 
L 1159 3500 
L 1159 2956 
Q 1366 3272 1645 3428 
Q 1925 3584 2291 3584 
Q 2894 3584 3203 3211 
Q 3513 2838 3513 2113 
z
" transform="scale(0.015625)"/>
       <path id="DejaVuSans-76" d="M 191 3500 
L 800 3500 
L 1894 563 
L 2988 3500 
L 3597 3500 
L 2284 0 
L 1503 0 
L 191 3500 
z
" transform="scale(0.015625)"/>
       <path id="DejaVuSans-56" d="M 1831 0 
L 50 4666 
L 709 4666 
L 2188 738 
L 3669 4666 
L 4325 4666 
L 2547 0 
L 1831 0 
z
" transform="scale(0.015625)"/>
       <path id="DejaVuSans-5f" d="M 3263 -1063 
L 3263 -1509 
L -63 -1509 
L -63 -1063 
L 3263 -1063 
z
" transform="scale(0.015625)"/>
       <path id="DejaVuSans-5e" d="M 2988 4666 
L 4684 2925 
L 4056 2925 
L 2681 4159 
L 1306 2925 
L 678 2925 
L 2375 4666 
L 2988 4666 
z
" transform="scale(0.015625)"/>
       <path id="DejaVuSans-47" d="M 3809 666 
L 3809 1919 
L 2778 1919 
L 2778 2438 
L 4434 2438 
L 4434 434 
Q 4069 175 3628 42 
Q 3188 -91 2688 -91 
Q 1594 -91 976 548 
Q 359 1188 359 2328 
Q 359 3472 976 4111 
Q 1594 4750 2688 4750 
Q 3144 4750 3555 4637 
Q 3966 4525 4313 4306 
L 4313 3634 
Q 3963 3931 3569 4081 
Q 3175 4231 2741 4231 
Q 1884 4231 1454 3753 
Q 1025 3275 1025 2328 
Q 1025 1384 1454 906 
Q 1884 428 2741 428 
Q 3075 428 3337 486 
Q 3600 544 3809 666 
z
" transform="scale(0.015625)"/>
      </defs>
      <use xlink:href="#DejaVuSans-64"/>
      <use xlink:href="#DejaVuSans-69" x="63.476562"/>
      <use xlink:href="#DejaVuSans-73" x="91.259766"/>
      <use xlink:href="#DejaVuSans-63" x="143.359375"/>
      <use xlink:href="#DejaVuSans-6f" x="198.339844"/>
      <use xlink:href="#DejaVuSans-75" x="259.521484"/>
      <use xlink:href="#DejaVuSans-6e" x="322.900391"/>
      <use xlink:href="#DejaVuSans-74" x="386.279297"/>
      <use xlink:href="#DejaVuSans-65" x="425.488281"/>
      <use xlink:href="#DejaVuSans-64" x="487.011719"/>
      <use xlink:href="#DejaVuSans-20" x="550.488281"/>
      <use xlink:href="#DejaVuSans-76" x="582.275391"/>
      <use xlink:href="#DejaVuSans-61" x="641.455078"/>
      <use xlink:href="#DejaVuSans-6c" x="702.734375"/>
      <use xlink:href="#DejaVuSans-75" x="730.517578"/>
      <use xlink:href="#DejaVuSans-65" x="793.896484"/>
      <use xlink:href="#DejaVuSans-20" x="855.419922"/>
      <use xlink:href="#DejaVuSans-56" x="887.207031"/>
      <use xlink:href="#DejaVuSans-5f" x="955.615234"/>
      <use xlink:href="#DejaVuSans-69" x="1005.615234"/>
      <use xlink:href="#DejaVuSans-5e" x="1033.398438"/>
      <use xlink:href="#DejaVuSans-47" x="1117.1875"/>
     </g>
    </g>
   </g>
   <g id="line2d_15">
    <path d="M 75.440156 177.05122 
L 87.235589 173.903091 
L 99.031022 185.2807 
L 110.826455 169.138614 
L 122.621887 177.414883 
L 134.41732 182.164883 
L 146.212753 185.200583 
L 158.008186 189.069138 
L 169.803618 167.039312 
L 181.599051 169.327168 
L 193.394484 170.013617 
L 205.189917 187.064437 
L 216.985349 201.399174 
L 228.780782 239.013072 
L 240.576215 172.955958 
L 252.371647 167.937813 
L 264.16708 174.801112 
L 275.962513 193.088817 
L 287.757946 168.829296 
L 299.553378 191.200132 
L 311.348811 180.348486 
L 323.144244 178.810653 
L 334.939677 170.60763 
L 346.735109 176.737209 
L 358.530542 181.678002 
L 370.325975 171.210457 
L 382.121408 172.480621 
L 393.91684 185.804012 
L 405.712273 176.580171 
L 417.507706 176.931812 
L 429.303139 177.689496 
L 441.098571 175.704519 
L 452.894004 168.811298 
L 464.689437 171.162851 
L 476.48487 177.777761 
L 488.280302 174.88767 
L 500.075735 157.807811 
L 511.871168 177.022076 
L 523.666601 179.475663 
L 535.462033 180.110845 
" clip-path="url(#pe97665baf2)" style="fill: none; stroke: #1f77b4; stroke-width: 1.5; stroke-linecap: square"/>
    <defs>
     <path id="m5a2c6bf007" d="M 0 1.5 
C 0.397805 1.5 0.77937 1.341951 1.06066 1.06066 
C 1.341951 0.77937 1.5 0.397805 1.5 0 
C 1.5 -0.397805 1.341951 -0.77937 1.06066 -1.06066 
C 0.77937 -1.341951 0.397805 -1.5 0 -1.5 
C -0.397805 -1.5 -0.77937 -1.341951 -1.06066 -1.06066 
C -1.341951 -0.77937 -1.5 -0.397805 -1.5 0 
C -1.5 0.397805 -1.341951 0.77937 -1.06066 1.06066 
C -0.77937 1.341951 -0.397805 1.5 0 1.5 
z
" style="stroke: #1f77b4"/>
    </defs>
    <g clip-path="url(#pe97665baf2)">
     <use xlink:href="#m5a2c6bf007" x="75.440156" y="177.05122" style="fill: #1f77b4; stroke: #1f77b4"/>
     <use xlink:href="#m5a2c6bf007" x="87.235589" y="173.903091" style="fill: #1f77b4; stroke: #1f77b4"/>
     <use xlink:href="#m5a2c6bf007" x="99.031022" y="185.2807" style="fill: #1f77b4; stroke: #1f77b4"/>
     <use xlink:href="#m5a2c6bf007" x="110.826455" y="169.138614" style="fill: #1f77b4; stroke: #1f77b4"/>
     <use xlink:href="#m5a2c6bf007" x="122.621887" y="177.414883" style="fill: #1f77b4; stroke: #1f77b4"/>
     <use xlink:href="#m5a2c6bf007" x="134.41732" y="182.164883" style="fill: #1f77b4; stroke: #1f77b4"/>
     <use xlink:href="#m5a2c6bf007" x="146.212753" y="185.200583" style="fill: #1f77b4; stroke: #1f77b4"/>
     <use xlink:href="#m5a2c6bf007" x="158.008186" y="189.069138" style="fill: #1f77b4; stroke: #1f77b4"/>
     <use xlink:href="#m5a2c6bf007" x="169.803618" y="167.039312" style="fill: #1f77b4; stroke: #1f77b4"/>
     <use xlink:href="#m5a2c6bf007" x="181.599051" y="169.327168" style="fill: #1f77b4; stroke: #1f77b4"/>
     <use xlink:href="#m5a2c6bf007" x="193.394484" y="170.013617" style="fill: #1f77b4; stroke: #1f77b4"/>
     <use xlink:href="#m5a2c6bf007" x="205.189917" y="187.064437" style="fill: #1f77b4; stroke: #1f77b4"/>
     <use xlink:href="#m5a2c6bf007" x="216.985349" y="201.399174" style="fill: #1f77b4; stroke: #1f77b4"/>
     <use xlink:href="#m5a2c6bf007" x="228.780782" y="239.013072" style="fill: #1f77b4; stroke: #1f77b4"/>
     <use xlink:href="#m5a2c6bf007" x="240.576215" y="172.955958" style="fill: #1f77b4; stroke: #1f77b4"/>
     <use xlink:href="#m5a2c6bf007" x="252.371647" y="167.937813" style="fill: #1f77b4; stroke: #1f77b4"/>
     <use xlink:href="#m5a2c6bf007" x="264.16708" y="174.801112" style="fill: #1f77b4; stroke: #1f77b4"/>
     <use xlink:href="#m5a2c6bf007" x="275.962513" y="193.088817" style="fill: #1f77b4; stroke: #1f77b4"/>
     <use xlink:href="#m5a2c6bf007" x="287.757946" y="168.829296" style="fill: #1f77b4; stroke: #1f77b4"/>
     <use xlink:href="#m5a2c6bf007" x="299.553378" y="191.200132" style="fill: #1f77b4; stroke: #1f77b4"/>
     <use xlink:href="#m5a2c6bf007" x="311.348811" y="180.348486" style="fill: #1f77b4; stroke: #1f77b4"/>
     <use xlink:href="#m5a2c6bf007" x="323.144244" y="178.810653" style="fill: #1f77b4; stroke: #1f77b4"/>
     <use xlink:href="#m5a2c6bf007" x="334.939677" y="170.60763" style="fill: #1f77b4; stroke: #1f77b4"/>
     <use xlink:href="#m5a2c6bf007" x="346.735109" y="176.737209" style="fill: #1f77b4; stroke: #1f77b4"/>
     <use xlink:href="#m5a2c6bf007" x="358.530542" y="181.678002" style="fill: #1f77b4; stroke: #1f77b4"/>
     <use xlink:href="#m5a2c6bf007" x="370.325975" y="171.210457" style="fill: #1f77b4; stroke: #1f77b4"/>
     <use xlink:href="#m5a2c6bf007" x="382.121408" y="172.480621" style="fill: #1f77b4; stroke: #1f77b4"/>
     <use xlink:href="#m5a2c6bf007" x="393.91684" y="185.804012" style="fill: #1f77b4; stroke: #1f77b4"/>
     <use xlink:href="#m5a2c6bf007" x="405.712273" y="176.580171" style="fill: #1f77b4; stroke: #1f77b4"/>
     <use xlink:href="#m5a2c6bf007" x="417.507706" y="176.931812" style="fill: #1f77b4; stroke: #1f77b4"/>
     <use xlink:href="#m5a2c6bf007" x="429.303139" y="177.689496" style="fill: #1f77b4; stroke: #1f77b4"/>
     <use xlink:href="#m5a2c6bf007" x="441.098571" y="175.704519" style="fill: #1f77b4; stroke: #1f77b4"/>
     <use xlink:href="#m5a2c6bf007" x="452.894004" y="168.811298" style="fill: #1f77b4; stroke: #1f77b4"/>
     <use xlink:href="#m5a2c6bf007" x="464.689437" y="171.162851" style="fill: #1f77b4; stroke: #1f77b4"/>
     <use xlink:href="#m5a2c6bf007" x="476.48487" y="177.777761" style="fill: #1f77b4; stroke: #1f77b4"/>
     <use xlink:href="#m5a2c6bf007" x="488.280302" y="174.88767" style="fill: #1f77b4; stroke: #1f77b4"/>
     <use xlink:href="#m5a2c6bf007" x="500.075735" y="157.807811" style="fill: #1f77b4; stroke: #1f77b4"/>
     <use xlink:href="#m5a2c6bf007" x="511.871168" y="177.022076" style="fill: #1f77b4; stroke: #1f77b4"/>
     <use xlink:href="#m5a2c6bf007" x="523.666601" y="179.475663" style="fill: #1f77b4; stroke: #1f77b4"/>
     <use xlink:href="#m5a2c6bf007" x="535.462033" y="180.110845" style="fill: #1f77b4; stroke: #1f77b4"/>
    </g>
   </g>
   <g id="line2d_16">
    <path d="M 75.440156 47.012327 
L 87.235589 41.502237 
L 99.031022 63.34055 
L 110.826455 62.296306 
L 122.621887 46.327972 
L 134.41732 41.534424 
L 146.212753 86.408404 
L 158.008186 39.256561 
L 169.803618 60.209493 
L 181.599051 41.704896 
L 193.394484 69.813753 
L 205.189917 68.110995 
L 216.985349 73.937002 
L 228.780782 86.850453 
L 240.576215 49.838239 
L 252.371647 54.266955 
L 264.16708 61.437801 
L 275.962513 73.44434 
L 287.757946 65.653237 
L 299.553378 47.559206 
L 311.348811 91.450301 
L 323.144244 44.08114 
L 334.939677 77.934386 
L 346.735109 92.440035 
L 358.530542 73.104493 
L 370.325975 71.983472 
L 382.121408 59.156101 
L 393.91684 55.251344 
L 405.712273 56.104499 
L 417.507706 45.463403 
L 429.303139 58.155322 
L 441.098571 44.845767 
L 452.894004 56.608353 
L 464.689437 54.819742 
L 476.48487 34.530907 
L 488.280302 56.438638 
L 500.075735 57.620927 
L 511.871168 34.309034 
L 523.666601 37.321027 
L 535.462033 54.558132 
" clip-path="url(#pe97665baf2)" style="fill: none; stroke: #ff7f0e; stroke-width: 1.5; stroke-linecap: square"/>
    <defs>
     <path id="m43c45b57b6" d="M 0 1.5 
C 0.397805 1.5 0.77937 1.341951 1.06066 1.06066 
C 1.341951 0.77937 1.5 0.397805 1.5 0 
C 1.5 -0.397805 1.341951 -0.77937 1.06066 -1.06066 
C 0.77937 -1.341951 0.397805 -1.5 0 -1.5 
C -0.397805 -1.5 -0.77937 -1.341951 -1.06066 -1.06066 
C -1.341951 -0.77937 -1.5 -0.397805 -1.5 0 
C -1.5 0.397805 -1.341951 0.77937 -1.06066 1.06066 
C -0.77937 1.341951 -0.397805 1.5 0 1.5 
z
" style="stroke: #ff7f0e"/>
    </defs>
    <g clip-path="url(#pe97665baf2)">
     <use xlink:href="#m43c45b57b6" x="75.440156" y="47.012327" style="fill: #ff7f0e; stroke: #ff7f0e"/>
     <use xlink:href="#m43c45b57b6" x="87.235589" y="41.502237" style="fill: #ff7f0e; stroke: #ff7f0e"/>
     <use xlink:href="#m43c45b57b6" x="99.031022" y="63.34055" style="fill: #ff7f0e; stroke: #ff7f0e"/>
     <use xlink:href="#m43c45b57b6" x="110.826455" y="62.296306" style="fill: #ff7f0e; stroke: #ff7f0e"/>
     <use xlink:href="#m43c45b57b6" x="122.621887" y="46.327972" style="fill: #ff7f0e; stroke: #ff7f0e"/>
     <use xlink:href="#m43c45b57b6" x="134.41732" y="41.534424" style="fill: #ff7f0e; stroke: #ff7f0e"/>
     <use xlink:href="#m43c45b57b6" x="146.212753" y="86.408404" style="fill: #ff7f0e; stroke: #ff7f0e"/>
     <use xlink:href="#m43c45b57b6" x="158.008186" y="39.256561" style="fill: #ff7f0e; stroke: #ff7f0e"/>
     <use xlink:href="#m43c45b57b6" x="169.803618" y="60.209493" style="fill: #ff7f0e; stroke: #ff7f0e"/>
     <use xlink:href="#m43c45b57b6" x="181.599051" y="41.704896" style="fill: #ff7f0e; stroke: #ff7f0e"/>
     <use xlink:href="#m43c45b57b6" x="193.394484" y="69.813753" style="fill: #ff7f0e; stroke: #ff7f0e"/>
     <use xlink:href="#m43c45b57b6" x="205.189917" y="68.110995" style="fill: #ff7f0e; stroke: #ff7f0e"/>
     <use xlink:href="#m43c45b57b6" x="216.985349" y="73.937002" style="fill: #ff7f0e; stroke: #ff7f0e"/>
     <use xlink:href="#m43c45b57b6" x="228.780782" y="86.850453" style="fill: #ff7f0e; stroke: #ff7f0e"/>
     <use xlink:href="#m43c45b57b6" x="240.576215" y="49.838239" style="fill: #ff7f0e; stroke: #ff7f0e"/>
     <use xlink:href="#m43c45b57b6" x="252.371647" y="54.266955" style="fill: #ff7f0e; stroke: #ff7f0e"/>
     <use xlink:href="#m43c45b57b6" x="264.16708" y="61.437801" style="fill: #ff7f0e; stroke: #ff7f0e"/>
     <use xlink:href="#m43c45b57b6" x="275.962513" y="73.44434" style="fill: #ff7f0e; stroke: #ff7f0e"/>
     <use xlink:href="#m43c45b57b6" x="287.757946" y="65.653237" style="fill: #ff7f0e; stroke: #ff7f0e"/>
     <use xlink:href="#m43c45b57b6" x="299.553378" y="47.559206" style="fill: #ff7f0e; stroke: #ff7f0e"/>
     <use xlink:href="#m43c45b57b6" x="311.348811" y="91.450301" style="fill: #ff7f0e; stroke: #ff7f0e"/>
     <use xlink:href="#m43c45b57b6" x="323.144244" y="44.08114" style="fill: #ff7f0e; stroke: #ff7f0e"/>
     <use xlink:href="#m43c45b57b6" x="334.939677" y="77.934386" style="fill: #ff7f0e; stroke: #ff7f0e"/>
     <use xlink:href="#m43c45b57b6" x="346.735109" y="92.440035" style="fill: #ff7f0e; stroke: #ff7f0e"/>
     <use xlink:href="#m43c45b57b6" x="358.530542" y="73.104493" style="fill: #ff7f0e; stroke: #ff7f0e"/>
     <use xlink:href="#m43c45b57b6" x="370.325975" y="71.983472" style="fill: #ff7f0e; stroke: #ff7f0e"/>
     <use xlink:href="#m43c45b57b6" x="382.121408" y="59.156101" style="fill: #ff7f0e; stroke: #ff7f0e"/>
     <use xlink:href="#m43c45b57b6" x="393.91684" y="55.251344" style="fill: #ff7f0e; stroke: #ff7f0e"/>
     <use xlink:href="#m43c45b57b6" x="405.712273" y="56.104499" style="fill: #ff7f0e; stroke: #ff7f0e"/>
     <use xlink:href="#m43c45b57b6" x="417.507706" y="45.463403" style="fill: #ff7f0e; stroke: #ff7f0e"/>
     <use xlink:href="#m43c45b57b6" x="429.303139" y="58.155322" style="fill: #ff7f0e; stroke: #ff7f0e"/>
     <use xlink:href="#m43c45b57b6" x="441.098571" y="44.845767" style="fill: #ff7f0e; stroke: #ff7f0e"/>
     <use xlink:href="#m43c45b57b6" x="452.894004" y="56.608353" style="fill: #ff7f0e; stroke: #ff7f0e"/>
     <use xlink:href="#m43c45b57b6" x="464.689437" y="54.819742" style="fill: #ff7f0e; stroke: #ff7f0e"/>
     <use xlink:href="#m43c45b57b6" x="476.48487" y="34.530907" style="fill: #ff7f0e; stroke: #ff7f0e"/>
     <use xlink:href="#m43c45b57b6" x="488.280302" y="56.438638" style="fill: #ff7f0e; stroke: #ff7f0e"/>
     <use xlink:href="#m43c45b57b6" x="500.075735" y="57.620927" style="fill: #ff7f0e; stroke: #ff7f0e"/>
     <use xlink:href="#m43c45b57b6" x="511.871168" y="34.309034" style="fill: #ff7f0e; stroke: #ff7f0e"/>
     <use xlink:href="#m43c45b57b6" x="523.666601" y="37.321027" style="fill: #ff7f0e; stroke: #ff7f0e"/>
     <use xlink:href="#m43c45b57b6" x="535.462033" y="54.558132" style="fill: #ff7f0e; stroke: #ff7f0e"/>
    </g>
   </g>
   <g id="line2d_17">
    <path d="M 75.440156 143.883432 
L 87.235589 169.099779 
L 99.031022 201.650582 
L 110.826455 127.077919 
L 122.621887 131.267067 
L 134.41732 169.648015 
L 146.212753 186.917429 
L 158.008186 177.534208 
L 169.803618 184.862654 
L 181.599051 173.855782 
L 193.394484 204.565117 
L 205.189917 160.101772 
L 216.985349 231.120004 
L 228.780782 269.317321 
L 240.576215 187.550899 
L 252.371647 197.614998 
L 264.16708 176.672402 
L 275.962513 160.52311 
L 287.757946 210.98351 
L 299.553378 274.127216 
L 311.348811 185.953236 
L 323.144244 196.896271 
L 334.939677 178.295251 
L 346.735109 183.053582 
L 358.530542 265.511835 
L 370.325975 185.011811 
L 382.121408 260.658039 
L 393.91684 102.572722 
L 405.712273 162.044453 
L 417.507706 199.536002 
L 429.303139 194.626308 
L 441.098571 186.475114 
L 452.894004 168.086213 
L 464.689437 215.756087 
L 476.48487 188.170742 
L 488.280302 178.797947 
L 500.075735 135.728504 
L 511.871168 150.8007 
L 523.666601 204.748191 
L 535.462033 135.537406 
" clip-path="url(#pe97665baf2)" style="fill: none; stroke: #2ca02c; stroke-width: 1.5; stroke-linecap: square"/>
    <defs>
     <path id="m8b1c30ddcd" d="M 0 1.5 
C 0.397805 1.5 0.77937 1.341951 1.06066 1.06066 
C 1.341951 0.77937 1.5 0.397805 1.5 0 
C 1.5 -0.397805 1.341951 -0.77937 1.06066 -1.06066 
C 0.77937 -1.341951 0.397805 -1.5 0 -1.5 
C -0.397805 -1.5 -0.77937 -1.341951 -1.06066 -1.06066 
C -1.341951 -0.77937 -1.5 -0.397805 -1.5 0 
C -1.5 0.397805 -1.341951 0.77937 -1.06066 1.06066 
C -0.77937 1.341951 -0.397805 1.5 0 1.5 
z
" style="stroke: #2ca02c"/>
    </defs>
    <g clip-path="url(#pe97665baf2)">
     <use xlink:href="#m8b1c30ddcd" x="75.440156" y="143.883432" style="fill: #2ca02c; stroke: #2ca02c"/>
     <use xlink:href="#m8b1c30ddcd" x="87.235589" y="169.099779" style="fill: #2ca02c; stroke: #2ca02c"/>
     <use xlink:href="#m8b1c30ddcd" x="99.031022" y="201.650582" style="fill: #2ca02c; stroke: #2ca02c"/>
     <use xlink:href="#m8b1c30ddcd" x="110.826455" y="127.077919" style="fill: #2ca02c; stroke: #2ca02c"/>
     <use xlink:href="#m8b1c30ddcd" x="122.621887" y="131.267067" style="fill: #2ca02c; stroke: #2ca02c"/>
     <use xlink:href="#m8b1c30ddcd" x="134.41732" y="169.648015" style="fill: #2ca02c; stroke: #2ca02c"/>
     <use xlink:href="#m8b1c30ddcd" x="146.212753" y="186.917429" style="fill: #2ca02c; stroke: #2ca02c"/>
     <use xlink:href="#m8b1c30ddcd" x="158.008186" y="177.534208" style="fill: #2ca02c; stroke: #2ca02c"/>
     <use xlink:href="#m8b1c30ddcd" x="169.803618" y="184.862654" style="fill: #2ca02c; stroke: #2ca02c"/>
     <use xlink:href="#m8b1c30ddcd" x="181.599051" y="173.855782" style="fill: #2ca02c; stroke: #2ca02c"/>
     <use xlink:href="#m8b1c30ddcd" x="193.394484" y="204.565117" style="fill: #2ca02c; stroke: #2ca02c"/>
     <use xlink:href="#m8b1c30ddcd" x="205.189917" y="160.101772" style="fill: #2ca02c; stroke: #2ca02c"/>
     <use xlink:href="#m8b1c30ddcd" x="216.985349" y="231.120004" style="fill: #2ca02c; stroke: #2ca02c"/>
     <use xlink:href="#m8b1c30ddcd" x="228.780782" y="269.317321" style="fill: #2ca02c; stroke: #2ca02c"/>
     <use xlink:href="#m8b1c30ddcd" x="240.576215" y="187.550899" style="fill: #2ca02c; stroke: #2ca02c"/>
     <use xlink:href="#m8b1c30ddcd" x="252.371647" y="197.614998" style="fill: #2ca02c; stroke: #2ca02c"/>
     <use xlink:href="#m8b1c30ddcd" x="264.16708" y="176.672402" style="fill: #2ca02c; stroke: #2ca02c"/>
     <use xlink:href="#m8b1c30ddcd" x="275.962513" y="160.52311" style="fill: #2ca02c; stroke: #2ca02c"/>
     <use xlink:href="#m8b1c30ddcd" x="287.757946" y="210.98351" style="fill: #2ca02c; stroke: #2ca02c"/>
     <use xlink:href="#m8b1c30ddcd" x="299.553378" y="274.127216" style="fill: #2ca02c; stroke: #2ca02c"/>
     <use xlink:href="#m8b1c30ddcd" x="311.348811" y="185.953236" style="fill: #2ca02c; stroke: #2ca02c"/>
     <use xlink:href="#m8b1c30ddcd" x="323.144244" y="196.896271" style="fill: #2ca02c; stroke: #2ca02c"/>
     <use xlink:href="#m8b1c30ddcd" x="334.939677" y="178.295251" style="fill: #2ca02c; stroke: #2ca02c"/>
     <use xlink:href="#m8b1c30ddcd" x="346.735109" y="183.053582" style="fill: #2ca02c; stroke: #2ca02c"/>
     <use xlink:href="#m8b1c30ddcd" x="358.530542" y="265.511835" style="fill: #2ca02c; stroke: #2ca02c"/>
     <use xlink:href="#m8b1c30ddcd" x="370.325975" y="185.011811" style="fill: #2ca02c; stroke: #2ca02c"/>
     <use xlink:href="#m8b1c30ddcd" x="382.121408" y="260.658039" style="fill: #2ca02c; stroke: #2ca02c"/>
     <use xlink:href="#m8b1c30ddcd" x="393.91684" y="102.572722" style="fill: #2ca02c; stroke: #2ca02c"/>
     <use xlink:href="#m8b1c30ddcd" x="405.712273" y="162.044453" style="fill: #2ca02c; stroke: #2ca02c"/>
     <use xlink:href="#m8b1c30ddcd" x="417.507706" y="199.536002" style="fill: #2ca02c; stroke: #2ca02c"/>
     <use xlink:href="#m8b1c30ddcd" x="429.303139" y="194.626308" style="fill: #2ca02c; stroke: #2ca02c"/>
     <use xlink:href="#m8b1c30ddcd" x="441.098571" y="186.475114" style="fill: #2ca02c; stroke: #2ca02c"/>
     <use xlink:href="#m8b1c30ddcd" x="452.894004" y="168.086213" style="fill: #2ca02c; stroke: #2ca02c"/>
     <use xlink:href="#m8b1c30ddcd" x="464.689437" y="215.756087" style="fill: #2ca02c; stroke: #2ca02c"/>
     <use xlink:href="#m8b1c30ddcd" x="476.48487" y="188.170742" style="fill: #2ca02c; stroke: #2ca02c"/>
     <use xlink:href="#m8b1c30ddcd" x="488.280302" y="178.797947" style="fill: #2ca02c; stroke: #2ca02c"/>
     <use xlink:href="#m8b1c30ddcd" x="500.075735" y="135.728504" style="fill: #2ca02c; stroke: #2ca02c"/>
     <use xlink:href="#m8b1c30ddcd" x="511.871168" y="150.8007" style="fill: #2ca02c; stroke: #2ca02c"/>
     <use xlink:href="#m8b1c30ddcd" x="523.666601" y="204.748191" style="fill: #2ca02c; stroke: #2ca02c"/>
     <use xlink:href="#m8b1c30ddcd" x="535.462033" y="135.537406" style="fill: #2ca02c; stroke: #2ca02c"/>
    </g>
   </g>
   <g id="patch_3">
    <path d="M 52.439063 286.118125 
L 52.439063 22.318125 
" style="fill: none; stroke: #000000; stroke-width: 0.8; stroke-linejoin: miter; stroke-linecap: square"/>
   </g>
   <g id="patch_4">
    <path d="M 558.463127 286.118125 
L 558.463127 22.318125 
" style="fill: none; stroke: #000000; stroke-width: 0.8; stroke-linejoin: miter; stroke-linecap: square"/>
   </g>
   <g id="patch_5">
    <path d="M 52.439062 286.118125 
L 558.463127 286.118125 
" style="fill: none; stroke: #000000; stroke-width: 0.8; stroke-linejoin: miter; stroke-linecap: square"/>
   </g>
   <g id="patch_6">
    <path d="M 52.439062 22.318125 
L 558.463127 22.318125 
" style="fill: none; stroke: #000000; stroke-width: 0.8; stroke-linejoin: miter; stroke-linecap: square"/>
   </g>
   <g id="text_17">
    <!-- Task 4 global phase — each old task's value V_i^G (is one dominating?) -->
    <g transform="translate(89.608595 16.318125) scale(0.12 -0.12)">
     <defs>
      <path id="DejaVuSans-54" d="M -19 4666 
L 3928 4666 
L 3928 4134 
L 2272 4134 
L 2272 0 
L 1638 0 
L 1638 4134 
L -19 4134 
L -19 4666 
z
" transform="scale(0.015625)"/>
      <path id="DejaVuSans-6b" d="M 581 4863 
L 1159 4863 
L 1159 1991 
L 2875 3500 
L 3609 3500 
L 1753 1863 
L 3688 0 
L 2938 0 
L 1159 1709 
L 1159 0 
L 581 0 
L 581 4863 
z
" transform="scale(0.015625)"/>
      <path id="DejaVuSans-70" d="M 1159 525 
L 1159 -1331 
L 581 -1331 
L 581 3500 
L 1159 3500 
L 1159 2969 
Q 1341 3281 1617 3432 
Q 1894 3584 2278 3584 
Q 2916 3584 3314 3078 
Q 3713 2572 3713 1747 
Q 3713 922 3314 415 
Q 2916 -91 2278 -91 
Q 1894 -91 1617 61 
Q 1341 213 1159 525 
z
M 3116 1747 
Q 3116 2381 2855 2742 
Q 2594 3103 2138 3103 
Q 1681 3103 1420 2742 
Q 1159 2381 1159 1747 
Q 1159 1113 1420 752 
Q 1681 391 2138 391 
Q 2594 391 2855 752 
Q 3116 1113 3116 1747 
z
" transform="scale(0.015625)"/>
      <path id="DejaVuSans-68" d="M 3513 2113 
L 3513 0 
L 2938 0 
L 2938 2094 
Q 2938 2591 2744 2837 
Q 2550 3084 2163 3084 
Q 1697 3084 1428 2787 
Q 1159 2491 1159 1978 
L 1159 0 
L 581 0 
L 581 4863 
L 1159 4863 
L 1159 2956 
Q 1366 3272 1645 3428 
Q 1925 3584 2291 3584 
Q 2894 3584 3203 3211 
Q 3513 2838 3513 2113 
z
" transform="scale(0.015625)"/>
      <path id="DejaVuSans-2014" d="M 313 1978 
L 6088 1978 
L 6088 1528 
L 313 1528 
L 313 1978 
z
" transform="scale(0.015625)"/>
      <path id="DejaVuSans-27" d="M 1147 4666 
L 1147 2931 
L 616 2931 
L 616 4666 
L 1147 4666 
z
" transform="scale(0.015625)"/>
      <path id="DejaVuSans-28" d="M 1984 4856 
Q 1566 4138 1362 3434 
Q 1159 2731 1159 2009 
Q 1159 1288 1364 580 
Q 1569 -128 1984 -844 
L 1484 -844 
Q 1016 -109 783 600 
Q 550 1309 550 2009 
Q 550 2706 781 3412 
Q 1013 4119 1484 4856 
L 1984 4856 
z
" transform="scale(0.015625)"/>
      <path id="DejaVuSans-6d" d="M 3328 2828 
Q 3544 3216 3844 3400 
Q 4144 3584 4550 3584 
Q 5097 3584 5394 3201 
Q 5691 2819 5691 2113 
L 5691 0 
L 5113 0 
L 5113 2094 
Q 5113 2597 4934 2840 
Q 4756 3084 4391 3084 
Q 3944 3084 3684 2787 
Q 3425 2491 3425 1978 
L 3425 0 
L 2847 0 
L 2847 2094 
Q 2847 2600 2669 2842 
Q 2491 3084 2119 3084 
Q 1678 3084 1418 2786 
Q 1159 2488 1159 1978 
L 1159 0 
L 581 0 
L 581 3500 
L 1159 3500 
L 1159 2956 
Q 1356 3278 1631 3431 
Q 1906 3584 2284 3584 
Q 2666 3584 2933 3390 
Q 3200 3197 3328 2828 
z
" transform="scale(0.015625)"/>
      <path id="DejaVuSans-3f" d="M 1222 794 
L 1856 794 
L 1856 0 
L 1222 0 
L 1222 794 
z
M 1838 1253 
L 1241 1253 
L 1241 1734 
Q 1241 2050 1328 2253 
Q 1416 2456 1697 2725 
L 1978 3003 
Q 2156 3169 2236 3316 
Q 2316 3463 2316 3616 
Q 2316 3894 2111 4066 
Q 1906 4238 1569 4238 
Q 1322 4238 1042 4128 
Q 763 4019 459 3809 
L 459 4397 
Q 753 4575 1054 4662 
Q 1356 4750 1678 4750 
Q 2253 4750 2601 4447 
Q 2950 4144 2950 3647 
Q 2950 3409 2837 3195 
Q 2725 2981 2444 2713 
L 2169 2444 
Q 2022 2297 1961 2214 
Q 1900 2131 1875 2053 
Q 1856 1988 1847 1894 
Q 1838 1800 1838 1638 
L 1838 1253 
z
" transform="scale(0.015625)"/>
      <path id="DejaVuSans-29" d="M 513 4856 
L 1013 4856 
Q 1481 4119 1714 3412 
Q 1947 2706 1947 2009 
Q 1947 1309 1714 600 
Q 1481 -109 1013 -844 
L 513 -844 
Q 928 -128 1133 580 
Q 1338 1288 1338 2009 
Q 1338 2731 1133 3434 
Q 928 4138 513 4856 
z
" transform="scale(0.015625)"/>
     </defs>
     <use xlink:href="#DejaVuSans-54"/>
     <use xlink:href="#DejaVuSans-61" x="44.583984"/>
     <use xlink:href="#DejaVuSans-73" x="105.863281"/>
     <use xlink:href="#DejaVuSans-6b" x="157.962891"/>
     <use xlink:href="#DejaVuSans-20" x="215.873047"/>
     <use xlink:href="#DejaVuSans-34" x="247.660156"/>
     <use xlink:href="#DejaVuSans-20" x="311.283203"/>
     <use xlink:href="#DejaVuSans-67" x="343.070312"/>
     <use xlink:href="#DejaVuSans-6c" x="406.546875"/>
     <use xlink:href="#DejaVuSans-6f" x="434.330078"/>
     <use xlink:href="#DejaVuSans-62" x="495.511719"/>
     <use xlink:href="#DejaVuSans-61" x="558.988281"/>
     <use xlink:href="#DejaVuSans-6c" x="620.267578"/>
     <use xlink:href="#DejaVuSans-20" x="648.050781"/>
     <use xlink:href="#DejaVuSans-70" x="679.837891"/>
     <use xlink:href="#DejaVuSans-68" x="743.314453"/>
     <use xlink:href="#DejaVuSans-61" x="806.693359"/>
     <use xlink:href="#DejaVuSans-73" x="867.972656"/>
     <use xlink:href="#DejaVuSans-65" x="920.072266"/>
     <use xlink:href="#DejaVuSans-20" x="981.595703"/>
     <use xlink:href="#DejaVuSans-2014" x="1013.382812"/>
     <use xlink:href="#DejaVuSans-20" x="1113.382812"/>
     <use xlink:href="#DejaVuSans-65" x="1145.169922"/>
     <use xlink:href="#DejaVuSans-61" x="1206.693359"/>
     <use xlink:href="#DejaVuSans-63" x="1267.972656"/>
     <use xlink:href="#DejaVuSans-68" x="1322.953125"/>
     <use xlink:href="#DejaVuSans-20" x="1386.332031"/>
     <use xlink:href="#DejaVuSans-6f" x="1418.119141"/>
     <use xlink:href="#DejaVuSans-6c" x="1479.300781"/>
     <use xlink:href="#DejaVuSans-64" x="1507.083984"/>
     <use xlink:href="#DejaVuSans-20" x="1570.560547"/>
     <use xlink:href="#DejaVuSans-74" x="1602.347656"/>
     <use xlink:href="#DejaVuSans-61" x="1641.556641"/>
     <use xlink:href="#DejaVuSans-73" x="1702.835938"/>
     <use xlink:href="#DejaVuSans-6b" x="1754.935547"/>
     <use xlink:href="#DejaVuSans-27" x="1812.845703"/>
     <use xlink:href="#DejaVuSans-73" x="1840.335938"/>
     <use xlink:href="#DejaVuSans-20" x="1892.435547"/>
     <use xlink:href="#DejaVuSans-76" x="1924.222656"/>
     <use xlink:href="#DejaVuSans-61" x="1983.402344"/>
     <use xlink:href="#DejaVuSans-6c" x="2044.681641"/>
     <use xlink:href="#DejaVuSans-75" x="2072.464844"/>
     <use xlink:href="#DejaVuSans-65" x="2135.84375"/>
     <use xlink:href="#DejaVuSans-20" x="2197.367188"/>
     <use xlink:href="#DejaVuSans-56" x="2229.154297"/>
     <use xlink:href="#DejaVuSans-5f" x="2297.5625"/>
     <use xlink:href="#DejaVuSans-69" x="2347.5625"/>
     <use xlink:href="#DejaVuSans-5e" x="2375.345703"/>
     <use xlink:href="#DejaVuSans-47" x="2459.134766"/>
     <use xlink:href="#DejaVuSans-20" x="2536.625"/>
     <use xlink:href="#DejaVuSans-28" x="2568.412109"/>
     <use xlink:href="#DejaVuSans-69" x="2607.425781"/>
     <use xlink:href="#DejaVuSans-73" x="2635.208984"/>
     <use xlink:href="#DejaVuSans-20" x="2687.308594"/>
     <use xlink:href="#DejaVuSans-6f" x="2719.095703"/>
     <use xlink:href="#DejaVuSans-6e" x="2780.277344"/>
     <use xlink:href="#DejaVuSans-65" x="2843.65625"/>
     <use xlink:href="#DejaVuSans-20" x="2905.179688"/>
     <use xlink:href="#DejaVuSans-64" x="2936.966797"/>
     <use xlink:href="#DejaVuSans-6f" x="3000.443359"/>
     <use xlink:href="#DejaVuSans-6d" x="3061.625"/>
     <use xlink:href="#DejaVuSans-69" x="3159.037109"/>
     <use xlink:href="#DejaVuSans-6e" x="3186.820312"/>
     <use xlink:href="#DejaVuSans-61" x="3250.199219"/>
     <use xlink:href="#DejaVuSans-74" x="3311.478516"/>
     <use xlink:href="#DejaVuSans-69" x="3350.6875"/>
     <use xlink:href="#DejaVuSans-6e" x="3378.470703"/>
     <use xlink:href="#DejaVuSans-67" x="3441.849609"/>
     <use xlink:href="#DejaVuSans-3f" x="3505.326172"/>
     <use xlink:href="#DejaVuSans-29" x="3558.402344"/>
    </g>
   </g>
   <g id="legend_1">
    <g id="patch_7">
     <path d="M 58.039063 282.118125 
L 119.505313 282.118125 
Q 121.105312 282.118125 121.105312 280.518125 
L 121.105312 246.090625 
Q 121.105312 244.490625 119.505313 244.490625 
L 58.039063 244.490625 
Q 56.439063 244.490625 56.439063 246.090625 
L 56.439063 280.518125 
Q 56.439063 282.118125 58.039063 282.118125 
z
" style="fill: #ffffff; opacity: 0.8; stroke: #cccccc; stroke-linejoin: miter"/>
    </g>
    <g id="line2d_18">
     <path d="M 59.639063 250.969375 
L 67.639063 250.969375 
L 75.639063 250.969375 
" style="fill: none; stroke: #1f77b4; stroke-width: 1.5; stroke-linecap: square"/>
     <g>
      <use xlink:href="#m5a2c6bf007" x="67.639063" y="250.969375" style="fill: #1f77b4; stroke: #1f77b4"/>
     </g>
    </g>
    <g id="text_18">
     <!-- Pong -->
     <g transform="translate(82.039062 253.769375) scale(0.08 -0.08)">
      <defs>
       <path id="DejaVuSans-50" d="M 1259 4147 
L 1259 2394 
L 2053 2394 
Q 2494 2394 2734 2622 
Q 2975 2850 2975 3272 
Q 2975 3691 2734 3919 
Q 2494 4147 2053 4147 
L 1259 4147 
z
M 628 4666 
L 2053 4666 
Q 2838 4666 3239 4311 
Q 3641 3956 3641 3272 
Q 3641 2581 3239 2228 
Q 2838 1875 2053 1875 
L 1259 1875 
L 1259 0 
L 628 0 
L 628 4666 
z
" transform="scale(0.015625)"/>
      </defs>
      <use xlink:href="#DejaVuSans-50"/>
      <use xlink:href="#DejaVuSans-6f" x="56.677734"/>
      <use xlink:href="#DejaVuSans-6e" x="117.859375"/>
      <use xlink:href="#DejaVuSans-67" x="181.238281"/>
     </g>
    </g>
    <g id="line2d_19">
     <path d="M 59.639063 262.711875 
L 67.639063 262.711875 
L 75.639063 262.711875 
" style="fill: none; stroke: #ff7f0e; stroke-width: 1.5; stroke-linecap: square"/>
     <g>
      <use xlink:href="#m43c45b57b6" x="67.639063" y="262.711875" style="fill: #ff7f0e; stroke: #ff7f0e"/>
     </g>
    </g>
    <g id="text_19">
     <!-- Breakout -->
     <g transform="translate(82.039062 265.511875) scale(0.08 -0.08)">
      <defs>
       <path id="DejaVuSans-42" d="M 1259 2228 
L 1259 519 
L 2272 519 
Q 2781 519 3026 730 
Q 3272 941 3272 1375 
Q 3272 1813 3026 2020 
Q 2781 2228 2272 2228 
L 1259 2228 
z
M 1259 4147 
L 1259 2741 
L 2194 2741 
Q 2656 2741 2882 2914 
Q 3109 3088 3109 3444 
Q 3109 3797 2882 3972 
Q 2656 4147 2194 4147 
L 1259 4147 
z
M 628 4666 
L 2241 4666 
Q 2963 4666 3353 4366 
Q 3744 4066 3744 3513 
Q 3744 3084 3544 2831 
Q 3344 2578 2956 2516 
Q 3422 2416 3680 2098 
Q 3938 1781 3938 1306 
Q 3938 681 3513 340 
Q 3088 0 2303 0 
L 628 0 
L 628 4666 
z
" transform="scale(0.015625)"/>
      </defs>
      <use xlink:href="#DejaVuSans-42"/>
      <use xlink:href="#DejaVuSans-72" x="68.603516"/>
      <use xlink:href="#DejaVuSans-65" x="107.466797"/>
      <use xlink:href="#DejaVuSans-61" x="168.990234"/>
      <use xlink:href="#DejaVuSans-6b" x="230.269531"/>
      <use xlink:href="#DejaVuSans-6f" x="284.554688"/>
      <use xlink:href="#DejaVuSans-75" x="345.736328"/>
      <use xlink:href="#DejaVuSans-74" x="409.115234"/>
     </g>
    </g>
    <g id="line2d_20">
     <path d="M 59.639063 274.454375 
L 67.639063 274.454375 
L 75.639063 274.454375 
" style="fill: none; stroke: #2ca02c; stroke-width: 1.5; stroke-linecap: square"/>
     <g>
      <use xlink:href="#m8b1c30ddcd" x="67.639063" y="274.454375" style="fill: #2ca02c; stroke: #2ca02c"/>
     </g>
    </g>
    <g id="text_20">
     <!-- Boxing -->
     <g transform="translate(82.039062 277.254375) scale(0.08 -0.08)">
      <defs>
       <path id="DejaVuSans-78" d="M 3513 3500 
L 2247 1797 
L 3578 0 
L 2900 0 
L 1881 1375 
L 863 0 
L 184 0 
L 1544 1831 
L 300 3500 
L 978 3500 
L 1906 2253 
L 2834 3500 
L 3513 3500 
z
" transform="scale(0.015625)"/>
      </defs>
      <use xlink:href="#DejaVuSans-42"/>
      <use xlink:href="#DejaVuSans-6f" x="68.603516"/>
      <use xlink:href="#DejaVuSans-78" x="126.660156"/>
      <use xlink:href="#DejaVuSans-69" x="185.839844"/>
      <use xlink:href="#DejaVuSans-6e" x="213.623047"/>
      <use xlink:href="#DejaVuSans-67" x="277.001953"/>
     </g>
    </g>
   </g>
  </g>
 </g>
 <defs>
  <clipPath id="pe97665baf2">
   <rect x="52.439063" y="22.318125" width="506.024065" height="263.8"/>
  </clipPath>
 </defs>
</svg>
