<?xml version="1.0" encoding="utf-8" standalone="no"?>
<!DOCTYPE svg PUBLIC "-//W3C//DTD SVG 1.1//EN"
  "http://www.w3.org/Graphics/SVG/1.1/DTD/svg11.dtd">
<svg xmlns:xlink="http://www.w3.org/1999/xlink" width="566.987429pt" height="323.674375pt" viewBox="0 0 566.987429 323.674375" xmlns="http://www.w3.org/2000/svg" version="1.1">
 <metadata>
  <rdf:RDF xmlns:dc="http://purl.org/dc/elements/1.1/" xmlns:cc="http://creativecommons.org/ns#" xmlns:rdf="http://www.w3.org/1999/02/22-rdf-syntax-ns#">
   <cc:Work>
    <dc:type rdf:resource="http://purl.org/dc/dcmitype/StillImage"/>
    <dc:date>2026-07-22T13:57:48.817922</dc:date>
    <dc:format>image/svg+xml</dc:format>
    <dc:creator>
     <cc:Agent>
      <dc:title>Matplotlib v3.7.1, https://matplotlib.org/</dc:title>
     </cc:Agent>
    </dc:creator>
   </cc:Work>
  </rdf:RDF>
 </metadata>
 <defs>
  <style type="text/css">*{stroke-linejoin: round; stroke-linecap: butt}</style>
 </defs>
 <g id="figure_1">
  <g id="patch_1">
   <path d="M 0 323.674375 
L 566.987429 323.674375 
L 566.987429 0 
L 0 0 
z
" style="fill: #ffffff"/>
  </g>
  <g id="axes_1">
   <g id="patch_2">
    <path d="M 44.059375 286.118125 
L 558.45344 286.118125 
L 558.45344 22.318125 
L 44.059375 22.318125 
z
" style="fill: #ffffff"/>
   </g>
   <g id="matplotlib.axis_1">
    <g id="xtick_1">
     <g id="line2d_1">
      <defs>
       <path id="m4613fd04ab" d="M 0 0 
L 0 3.5 
" style="stroke: #000000; stroke-width: 0.8"/>
      </defs>
      <g>
       <use xlink:href="#m4613fd04ab" x="67.440923" y="286.118125" style="stroke: #000000; stroke-width: 0.8"/>
      </g>
     </g>
     <g id="text_1">
      <!-- 0 -->
      <g transform="translate(64.259673 300.716562) scale(0.1 -0.1)">
       <defs>
        <path id="DejaVuSans-30" d="M 2034 4250 
Q 1547 4250 1301 3770 
Q 1056 3291 1056 2328 
Q 1056 1369 1301 889 
Q 1547 409 2034 409 
Q 2525 409 2770 889 
Q 3016 1369 3016 2328 
Q 3016 3291 2770 3770 
Q 2525 4250 2034 4250 
z
M 2034 4750 
Q 2819 4750 3233 4129 
Q 3647 3509 3647 2328 
Q 3647 1150 3233 529 
Q 2819 -91 2034 -91 
Q 1250 -91 836 529 
Q 422 1150 422 2328 
Q 422 3509 836 4129 
Q 1250 4750 2034 4750 
z
" transform="scale(0.015625)"/>
       </defs>
       <use xlink:href="#DejaVuSans-30"/>
      </g>
     </g>
    </g>
    <g id="xtick_2">
     <g id="line2d_2">
      <g>
       <use xlink:href="#m4613fd04ab" x="163.365225" y="286.118125" style="stroke: #000000; stroke-width: 0.8"/>
      </g>
     </g>
     <g id="text_2">
      <!-- 200 -->
      <g transform="translate(153.821475 300.716562) scale(0.1 -0.1)">
       <defs>
        <path id="DejaVuSans-32" d="M 1228 531 
L 3431 531 
L 3431 0 
L 469 0 
L 469 531 
Q 828 903 1448 1529 
Q 2069 2156 2228 2338 
Q 2531 2678 2651 2914 
Q 2772 3150 2772 3378 
Q 2772 3750 2511 3984 
Q 2250 4219 1831 4219 
Q 1534 4219 1204 4116 
Q 875 4013 500 3803 
L 500 4441 
Q 881 4594 1212 4672 
Q 1544 4750 1819 4750 
Q 2544 4750 2975 4387 
Q 3406 4025 3406 3419 
Q 3406 3131 3298 2873 
Q 3191 2616 2906 2266 
Q 2828 2175 2409 1742 
Q 1991 1309 1228 531 
z
" transform="scale(0.015625)"/>
       </defs>
       <use xlink:href="#DejaVuSans-32"/>
       <use xlink:href="#DejaVuSans-30" x="63.623047"/>
       <use xlink:href="#DejaVuSans-30" x="127.246094"/>
      </g>
     </g>
    </g>
    <g id="xtick_3">
     <g id="line2d_3">
      <g>
       <use xlink:href="#m4613fd04ab" x="259.289526" y="286.118125" style="stroke: #000000; stroke-width: 0.8"/>
      </g>
     </g>
     <g id="text_3">
      <!-- 400 -->
      <g transform="translate(249.745776 300.716562) scale(0.1 -0.1)">
       <defs>
        <path id="DejaVuSans-34" d="M 2419 4116 
L 825 1625 
L 2419 1625 
L 2419 4116 
z
M 2253 4666 
L 3047 4666 
L 3047 1625 
L 3713 1625 
L 3713 1100 
L 3047 1100 
L 3047 0 
L 2419 0 
L 2419 1100 
L 313 1100 
L 313 1709 
L 2253 4666 
z
" transform="scale(0.015625)"/>
       </defs>
       <use xlink:href="#DejaVuSans-34"/>
       <use xlink:href="#DejaVuSans-30" x="63.623047"/>
       <use xlink:href="#DejaVuSans-30" x="127.246094"/>
      </g>
     </g>
    </g>
    <g id="xtick_4">
     <g id="line2d_4">
      <g>
       <use xlink:href="#m4613fd04ab" x="355.213827" y="286.118125" style="stroke: #000000; stroke-width: 0.8"/>
      </g>
     </g>
     <g id="text_4">
      <!-- 600 -->
      <g transform="translate(345.670077 300.716562) scale(0.1 -0.1)">
       <defs>
        <path id="DejaVuSans-36" d="M 2113 2584 
Q 1688 2584 1439 2293 
Q 1191 2003 1191 1497 
Q 1191 994 1439 701 
Q 1688 409 2113 409 
Q 2538 409 2786 701 
Q 3034 994 3034 1497 
Q 3034 2003 2786 2293 
Q 2538 2584 2113 2584 
z
M 3366 4563 
L 3366 3988 
Q 3128 4100 2886 4159 
Q 2644 4219 2406 4219 
Q 1781 4219 1451 3797 
Q 1122 3375 1075 2522 
Q 1259 2794 1537 2939 
Q 1816 3084 2150 3084 
Q 2853 3084 3261 2657 
Q 3669 2231 3669 1497 
Q 3669 778 3244 343 
Q 2819 -91 2113 -91 
Q 1303 -91 875 529 
Q 447 1150 447 2328 
Q 447 3434 972 4092 
Q 1497 4750 2381 4750 
Q 2619 4750 2861 4703 
Q 3103 4656 3366 4563 
z
" transform="scale(0.015625)"/>
       </defs>
       <use xlink:href="#DejaVuSans-36"/>
       <use xlink:href="#DejaVuSans-30" x="63.623047"/>
       <use xlink:href="#DejaVuSans-30" x="127.246094"/>
      </g>
     </g>
    </g>
    <g id="xtick_5">
     <g id="line2d_5">
      <g>
       <use xlink:href="#m4613fd04ab" x="451.138128" y="286.118125" style="stroke: #000000; stroke-width: 0.8"/>
      </g>
     </g>
     <g id="text_5">
      <!-- 800 -->
      <g transform="translate(441.594378 300.716562) scale(0.1 -0.1)">
       <defs>
        <path id="DejaVuSans-38" d="M 2034 2216 
Q 1584 2216 1326 1975 
Q 1069 1734 1069 1313 
Q 1069 891 1326 650 
Q 1584 409 2034 409 
Q 2484 409 2743 651 
Q 3003 894 3003 1313 
Q 3003 1734 2745 1975 
Q 2488 2216 2034 2216 
z
M 1403 2484 
Q 997 2584 770 2862 
Q 544 3141 544 3541 
Q 544 4100 942 4425 
Q 1341 4750 2034 4750 
Q 2731 4750 3128 4425 
Q 3525 4100 3525 3541 
Q 3525 3141 3298 2862 
Q 3072 2584 2669 2484 
Q 3125 2378 3379 2068 
Q 3634 1759 3634 1313 
Q 3634 634 3220 271 
Q 2806 -91 2034 -91 
Q 1263 -91 848 271 
Q 434 634 434 1313 
Q 434 1759 690 2068 
Q 947 2378 1403 2484 
z
M 1172 3481 
Q 1172 3119 1398 2916 
Q 1625 2713 2034 2713 
Q 2441 2713 2670 2916 
Q 2900 3119 2900 3481 
Q 2900 3844 2670 4047 
Q 2441 4250 2034 4250 
Q 1625 4250 1398 4047 
Q 1172 3844 1172 3481 
z
" transform="scale(0.015625)"/>
       </defs>
       <use xlink:href="#DejaVuSans-38"/>
       <use xlink:href="#DejaVuSans-30" x="63.623047"/>
       <use xlink:href="#DejaVuSans-30" x="127.246094"/>
      </g>
     </g>
    </g>
    <g id="xtick_6">
     <g id="line2d_6">
      <g>
       <use xlink:href="#m4613fd04ab" x="547.062429" y="286.118125" style="stroke: #000000; stroke-width: 0.8"/>
      </g>
     </g>
     <g id="text_6">
      <!-- 1000 -->
      <g transform="translate(534.337429 300.716562) scale(0.1 -0.1)">
       <defs>
        <path id="DejaVuSans-31" d="M 794 531 
L 1825 531 
L 1825 4091 
L 703 3866 
L 703 4441 
L 1819 4666 
L 2450 4666 
L 2450 531 
L 3481 531 
L 3481 0 
L 794 0 
L 794 531 
z
" transform="scale(0.015625)"/>
       </defs>
       <use xlink:href="#DejaVuSans-31"/>
       <use xlink:href="#DejaVuSans-30" x="63.623047"/>
       <use xlink:href="#DejaVuSans-30" x="127.246094"/>
       <use xlink:href="#DejaVuSans-30" x="190.869141"/>
      </g>
     </g>
    </g>
    <g id="text_7">
     <!-- global iter -->
     <g transform="translate(275.936095 314.394687) scale(0.1 -0.1)">
      <defs>
       <path id="DejaVuSans-67" d="M 2906 1791 
Q 2906 2416 2648 2759 
Q 2391 3103 1925 3103 
Q 1463 3103 1205 2759 
Q 947 2416 947 1791 
Q 947 1169 1205 825 
Q 1463 481 1925 481 
Q 2391 481 2648 825 
Q 2906 1169 2906 1791 
z
M 3481 434 
Q 3481 -459 3084 -895 
Q 2688 -1331 1869 -1331 
Q 1566 -1331 1297 -1286 
Q 1028 -1241 775 -1147 
L 775 -588 
Q 1028 -725 1275 -790 
Q 1522 -856 1778 -856 
Q 2344 -856 2625 -561 
Q 2906 -266 2906 331 
L 2906 616 
Q 2728 306 2450 153 
Q 2172 0 1784 0 
Q 1141 0 747 490 
Q 353 981 353 1791 
Q 353 2603 747 3093 
Q 1141 3584 1784 3584 
Q 2172 3584 2450 3431 
Q 2728 3278 2906 2969 
L 2906 3500 
L 3481 3500 
L 3481 434 
z
" transform="scale(0.015625)"/>
       <path id="DejaVuSans-6c" d="M 603 4863 
L 1178 4863 
L 1178 0 
L 603 0 
L 603 4863 
z
" transform="scale(0.015625)"/>
       <path id="DejaVuSans-6f" d="M 1959 3097 
Q 1497 3097 1228 2736 
Q 959 2375 959 1747 
Q 959 1119 1226 758 
Q 1494 397 1959 397 
Q 2419 397 2687 759 
Q 2956 1122 2956 1747 
Q 2956 2369 2687 2733 
Q 2419 3097 1959 3097 
z
M 1959 3584 
Q 2709 3584 3137 3096 
Q 3566 2609 3566 1747 
Q 3566 888 3137 398 
Q 2709 -91 1959 -91 
Q 1206 -91 779 398 
Q 353 888 353 1747 
Q 353 2609 779 3096 
Q 1206 3584 1959 3584 
z
" transform="scale(0.015625)"/>
       <path id="DejaVuSans-62" d="M 3116 1747 
Q 3116 2381 2855 2742 
Q 2594 3103 2138 3103 
Q 1681 3103 1420 2742 
Q 1159 2381 1159 1747 
Q 1159 1113 1420 752 
Q 1681 391 2138 391 
Q 2594 391 2855 752 
Q 3116 1113 3116 1747 
z
M 1159 2969 
Q 1341 3281 1617 3432 
Q 1894 3584 2278 3584 
Q 2916 3584 3314 3078 
Q 3713 2572 3713 1747 
Q 3713 922 3314 415 
Q 2916 -91 2278 -91 
Q 1894 -91 1617 61 
Q 1341 213 1159 525 
L 1159 0 
L 581 0 
L 581 4863 
L 1159 4863 
L 1159 2969 
z
" transform="scale(0.015625)"/>
       <path id="DejaVuSans-61" d="M 2194 1759 
Q 1497 1759 1228 1600 
Q 959 1441 959 1056 
Q 959 750 1161 570 
Q 1363 391 1709 391 
Q 2188 391 2477 730 
Q 2766 1069 2766 1631 
L 2766 1759 
L 2194 1759 
z
M 3341 1997 
L 3341 0 
L 2766 0 
L 2766 531 
Q 2569 213 2275 61 
Q 1981 -91 1556 -91 
Q 1019 -91 701 211 
Q 384 513 384 1019 
Q 384 1609 779 1909 
Q 1175 2209 1959 2209 
L 2766 2209 
L 2766 2266 
Q 2766 2663 2505 2880 
Q 2244 3097 1772 3097 
Q 1472 3097 1187 3025 
Q 903 2953 641 2809 
L 641 3341 
Q 956 3463 1253 3523 
Q 1550 3584 1831 3584 
Q 2591 3584 2966 3190 
Q 3341 2797 3341 1997 
z
" transform="scale(0.015625)"/>
       <path id="DejaVuSans-20" transform="scale(0.015625)"/>
       <path id="DejaVuSans-69" d="M 603 3500 
L 1178 3500 
L 1178 0 
L 603 0 
L 603 3500 
z
M 603 4863 
L 1178 4863 
L 1178 4134 
L 603 4134 
L 603 4863 
z
" transform="scale(0.015625)"/>
       <path id="DejaVuSans-74" d="M 1172 4494 
L 1172 3500 
L 2356 3500 
L 2356 3053 
L 1172 3053 
L 1172 1153 
Q 1172 725 1289 603 
Q 1406 481 1766 481 
L 2356 481 
L 2356 0 
L 1766 0 
Q 1100 0 847 248 
Q 594 497 594 1153 
L 594 3053 
L 172 3053 
L 172 3500 
L 594 3500 
L 594 4494 
L 1172 4494 
z
" transform="scale(0.015625)"/>
       <path id="DejaVuSans-65" d="M 3597 1894 
L 3597 1613 
L 953 1613 
Q 991 1019 1311 708 
Q 1631 397 2203 397 
Q 2534 397 2845 478 
Q 3156 559 3463 722 
L 3463 178 
Q 3153 47 2828 -22 
Q 2503 -91 2169 -91 
Q 1331 -91 842 396 
Q 353 884 353 1716 
Q 353 2575 817 3079 
Q 1281 3584 2069 3584 
Q 2775 3584 3186 3129 
Q 3597 2675 3597 1894 
z
M 3022 2063 
Q 3016 2534 2758 2815 
Q 2500 3097 2075 3097 
Q 1594 3097 1305 2825 
Q 1016 2553 972 2059 
L 3022 2063 
z
" transform="scale(0.015625)"/>
       <path id="DejaVuSans-72" d="M 2631 2963 
Q 2534 3019 2420 3045 
Q 2306 3072 2169 3072 
Q 1681 3072 1420 2755 
Q 1159 2438 1159 1844 
L 1159 0 
L 581 0 
L 581 3500 
L 1159 3500 
L 1159 2956 
Q 1341 3275 1631 3429 
Q 1922 3584 2338 3584 
Q 2397 3584 2469 3576 
Q 2541 3569 2628 3553 
L 2631 2963 
z
" transform="scale(0.015625)"/>
      </defs>
      <use xlink:href="#DejaVuSans-67"/>
      <use xlink:href="#DejaVuSans-6c" x="63.476562"/>
      <use xlink:href="#DejaVuSans-6f" x="91.259766"/>
      <use xlink:href="#DejaVuSans-62" x="152.441406"/>
      <use xlink:href="#DejaVuSans-61" x="215.917969"/>
      <use xlink:href="#DejaVuSans-6c" x="277.197266"/>
      <use xlink:href="#DejaVuSans-20" x="304.980469"/>
      <use xlink:href="#DejaVuSans-69" x="336.767578"/>
      <use xlink:href="#DejaVuSans-74" x="364.550781"/>
      <use xlink:href="#DejaVuSans-65" x="403.759766"/>
      <use xlink:href="#DejaVuSans-72" x="465.283203"/>
     </g>
    </g>
   </g>
   <g id="matplotlib.axis_2">
    <g id="ytick_1">
     <g id="line2d_7">
      <defs>
       <path id="m05f4843b80" d="M 0 0 
L -3.5 0 
" style="stroke: #000000; stroke-width: 0.8"/>
      </defs>
      <g>
       <use xlink:href="#m05f4843b80" x="44.059375" y="244.528033" style="stroke: #000000; stroke-width: 0.8"/>
      </g>
     </g>
     <g id="text_8">
      <!-- 0.0 -->
      <g transform="translate(21.15625 248.327252) scale(0.1 -0.1)">
       <defs>
        <path id="DejaVuSans-2e" d="M 684 794 
L 1344 794 
L 1344 0 
L 684 0 
L 684 794 
z
" transform="scale(0.015625)"/>
       </defs>
       <use xlink:href="#DejaVuSans-30"/>
       <use xlink:href="#DejaVuSans-2e" x="63.623047"/>
       <use xlink:href="#DejaVuSans-30" x="95.410156"/>
      </g>
     </g>
    </g>
    <g id="ytick_2">
     <g id="line2d_8">
      <g>
       <use xlink:href="#m05f4843b80" x="44.059375" y="194.873877" style="stroke: #000000; stroke-width: 0.8"/>
      </g>
     </g>
     <g id="text_9">
      <!-- 0.5 -->
      <g transform="translate(21.15625 198.673096) scale(0.1 -0.1)">
       <defs>
        <path id="DejaVuSans-35" d="M 691 4666 
L 3169 4666 
L 3169 4134 
L 1269 4134 
L 1269 2991 
Q 1406 3038 1543 3061 
Q 1681 3084 1819 3084 
Q 2600 3084 3056 2656 
Q 3513 2228 3513 1497 
Q 3513 744 3044 326 
Q 2575 -91 1722 -91 
Q 1428 -91 1123 -41 
Q 819 9 494 109 
L 494 744 
Q 775 591 1075 516 
Q 1375 441 1709 441 
Q 2250 441 2565 725 
Q 2881 1009 2881 1497 
Q 2881 1984 2565 2268 
Q 2250 2553 1709 2553 
Q 1456 2553 1204 2497 
Q 953 2441 691 2322 
L 691 4666 
z
" transform="scale(0.015625)"/>
       </defs>
       <use xlink:href="#DejaVuSans-30"/>
       <use xlink:href="#DejaVuSans-2e" x="63.623047"/>
       <use xlink:href="#DejaVuSans-35" x="95.410156"/>
      </g>
     </g>
    </g>
    <g id="ytick_3">
     <g id="line2d_9">
      <g>
       <use xlink:href="#m05f4843b80" x="44.059375" y="145.219721" style="stroke: #000000; stroke-width: 0.8"/>
      </g>
     </g>
     <g id="text_10">
      <!-- 1.0 -->
      <g transform="translate(21.15625 149.01894) scale(0.1 -0.1)">
       <use xlink:href="#DejaVuSans-31"/>
       <use xlink:href="#DejaVuSans-2e" x="63.623047"/>
       <use xlink:href="#DejaVuSans-30" x="95.410156"/>
      </g>
     </g>
    </g>
    <g id="ytick_4">
     <g id="line2d_10">
      <g>
       <use xlink:href="#m05f4843b80" x="44.059375" y="95.565565" style="stroke: #000000; stroke-width: 0.8"/>
      </g>
     </g>
     <g id="text_11">
      <!-- 1.5 -->
      <g transform="translate(21.15625 99.364784) scale(0.1 -0.1)">
       <use xlink:href="#DejaVuSans-31"/>
       <use xlink:href="#DejaVuSans-2e" x="63.623047"/>
       <use xlink:href="#DejaVuSans-35" x="95.410156"/>
      </g>
     </g>
    </g>
    <g id="ytick_5">
     <g id="line2d_11">
      <g>
       <use xlink:href="#m05f4843b80" x="44.059375" y="45.911409" style="stroke: #000000; stroke-width: 0.8"/>
      </g>
     </g>
     <g id="text_12">
      <!-- 2.0 -->
      <g transform="translate(21.15625 49.710628) scale(0.1 -0.1)">
       <use xlink:href="#DejaVuSans-32"/>
       <use xlink:href="#DejaVuSans-2e" x="63.623047"/>
       <use xlink:href="#DejaVuSans-30" x="95.410156"/>
      </g>
     </g>
    </g>
    <g id="text_13">
     <!-- discounted value V_i^G -->
     <g transform="translate(14.798438 213.9525) rotate(-90) scale(0.1 -0.1)">
      <defs>
       <path id="DejaVuSans-64" d="M 2906 2969 
L 2906 4863 
L 3481 4863 
L 3481 0 
L 2906 0 
L 2906 525 
Q 2725 213 2448 61 
Q 2172 -91 1784 -91 
Q 1150 -91 751 415 
Q 353 922 353 1747 
Q 353 2572 751 3078 
Q 1150 3584 1784 3584 
Q 2172 3584 2448 3432 
Q 2725 3281 2906 2969 
z
M 947 1747 
Q 947 1113 1208 752 
Q 1469 391 1925 391 
Q 2381 391 2643 752 
Q 2906 1113 2906 1747 
Q 2906 2381 2643 2742 
Q 2381 3103 1925 3103 
Q 1469 3103 1208 2742 
Q 947 2381 947 1747 
z
" transform="scale(0.015625)"/>
       <path id="DejaVuSans-73" d="M 2834 3397 
L 2834 2853 
Q 2591 2978 2328 3040 
Q 2066 3103 1784 3103 
Q 1356 3103 1142 2972 
Q 928 2841 928 2578 
Q 928 2378 1081 2264 
Q 1234 2150 1697 2047 
L 1894 2003 
Q 2506 1872 2764 1633 
Q 3022 1394 3022 966 
Q 3022 478 2636 193 
Q 2250 -91 1575 -91 
Q 1294 -91 989 -36 
Q 684 19 347 128 
L 347 722 
Q 666 556 975 473 
Q 1284 391 1588 391 
Q 1994 391 2212 530 
Q 2431 669 2431 922 
Q 2431 1156 2273 1281 
Q 2116 1406 1581 1522 
L 1381 1569 
Q 847 1681 609 1914 
Q 372 2147 372 2553 
Q 372 3047 722 3315 
Q 1072 3584 1716 3584 
Q 2034 3584 2315 3537 
Q 2597 3491 2834 3397 
z
" transform="scale(0.015625)"/>
       <path id="DejaVuSans-63" d="M 3122 3366 
L 3122 2828 
Q 2878 2963 2633 3030 
Q 2388 3097 2138 3097 
Q 1578 3097 1268 2742 
Q 959 2388 959 1747 
Q 959 1106 1268 751 
Q 1578 397 2138 397 
Q 2388 397 2633 464 
Q 2878 531 3122 666 
L 3122 134 
Q 2881 22 2623 -34 
Q 2366 -91 2075 -91 
Q 1284 -91 818 406 
Q 353 903 353 1747 
Q 353 2603 823 3093 
Q 1294 3584 2113 3584 
Q 2378 3584 2631 3529 
Q 2884 3475 3122 3366 
z
" transform="scale(0.015625)"/>
       <path id="DejaVuSans-75" d="M 544 1381 
L 544 3500 
L 1119 3500 
L 1119 1403 
Q 1119 906 1312 657 
Q 1506 409 1894 409 
Q 2359 409 2629 706 
Q 2900 1003 2900 1516 
L 2900 3500 
L 3475 3500 
L 3475 0 
L 2900 0 
L 2900 538 
Q 2691 219 2414 64 
Q 2138 -91 1772 -91 
Q 1169 -91 856 284 
Q 544 659 544 1381 
z
M 1991 3584 
L 1991 3584 
z
" transform="scale(0.015625)"/>
       <path id="DejaVuSans-6e" d="M 3513 2113 
L 3513 0 
L 2938 0 
L 2938 2094 
Q 2938 2591 2744 2837 
Q 2550 3084 2163 3084 
Q 1697 3084 1428 2787 
Q 1159 2491 1159 1978 
L 1159 0 
L 581 0 
L 581 3500 
L 1159 3500 
L 1159 2956 
Q 1366 3272 1645 3428 
Q 1925 3584 2291 3584 
Q 2894 3584 3203 3211 
Q 3513 2838 3513 2113 
z
" transform="scale(0.015625)"/>
       <path id="DejaVuSans-76" d="M 191 3500 
L 800 3500 
L 1894 563 
L 2988 3500 
L 3597 3500 
L 2284 0 
L 1503 0 
L 191 3500 
z
" transform="scale(0.015625)"/>
       <path id="DejaVuSans-56" d="M 1831 0 
L 50 4666 
L 709 4666 
L 2188 738 
L 3669 4666 
L 4325 4666 
L 2547 0 
L 1831 0 
z
" transform="scale(0.015625)"/>
       <path id="DejaVuSans-5f" d="M 3263 -1063 
L 3263 -1509 
L -63 -1509 
L -63 -1063 
L 3263 -1063 
z
" transform="scale(0.015625)"/>
       <path id="DejaVuSans-5e" d="M 2988 4666 
L 4684 2925 
L 4056 2925 
L 2681 4159 
L 1306 2925 
L 678 2925 
L 2375 4666 
L 2988 4666 
z
" transform="scale(0.015625)"/>
       <path id="DejaVuSans-47" d="M 3809 666 
L 3809 1919 
L 2778 1919 
L 2778 2438 
L 4434 2438 
L 4434 434 
Q 4069 175 3628 42 
Q 3188 -91 2688 -91 
Q 1594 -91 976 548 
Q 359 1188 359 2328 
Q 359 3472 976 4111 
Q 1594 4750 2688 4750 
Q 3144 4750 3555 4637 
Q 3966 4525 4313 4306 
L 4313 3634 
Q 3963 3931 3569 4081 
Q 3175 4231 2741 4231 
Q 1884 4231 1454 3753 
Q 1025 3275 1025 2328 
Q 1025 1384 1454 906 
Q 1884 428 2741 428 
Q 3075 428 3337 486 
Q 3600 544 3809 666 
z
" transform="scale(0.015625)"/>
      </defs>
      <use xlink:href="#DejaVuSans-64"/>
      <use xlink:href="#DejaVuSans-69" x="63.476562"/>
      <use xlink:href="#DejaVuSans-73" x="91.259766"/>
      <use xlink:href="#DejaVuSans-63" x="143.359375"/>
      <use xlink:href="#DejaVuSans-6f" x="198.339844"/>
      <use xlink:href="#DejaVuSans-75" x="259.521484"/>
      <use xlink:href="#DejaVuSans-6e" x="322.900391"/>
      <use xlink:href="#DejaVuSans-74" x="386.279297"/>
      <use xlink:href="#DejaVuSans-65" x="425.488281"/>
      <use xlink:href="#DejaVuSans-64" x="487.011719"/>
      <use xlink:href="#DejaVuSans-20" x="550.488281"/>
      <use xlink:href="#DejaVuSans-76" x="582.275391"/>
      <use xlink:href="#DejaVuSans-61" x="641.455078"/>
      <use xlink:href="#DejaVuSans-6c" x="702.734375"/>
      <use xlink:href="#DejaVuSans-75" x="730.517578"/>
      <use xlink:href="#DejaVuSans-65" x="793.896484"/>
      <use xlink:href="#DejaVuSans-20" x="855.419922"/>
      <use xlink:href="#DejaVuSans-56" x="887.207031"/>
      <use xlink:href="#DejaVuSans-5f" x="955.615234"/>
      <use xlink:href="#DejaVuSans-69" x="1005.615234"/>
      <use xlink:href="#DejaVuSans-5e" x="1033.398438"/>
      <use xlink:href="#DejaVuSans-47" x="1117.1875"/>
     </g>
    </g>
   </g>
   <g id="line2d_12">
    <path d="M 67.440923 263.02544 
L 79.431461 247.148692 
L 91.421999 251.496103 
L 103.412536 249.721024 
L 115.403074 272.674626 
L 127.393612 250.076712 
L 139.384149 255.51078 
L 151.374687 251.887209 
L 163.365225 241.833433 
L 175.355762 271.849064 
L 187.3463 244.805975 
L 199.336837 249.269839 
L 211.327375 260.896068 
L 223.317913 253.560996 
L 235.30845 271.141363 
L 247.298988 235.662101 
L 259.289526 272.318196 
L 271.280063 240.429491 
L 283.270601 244.016247 
L 295.261139 248.394571 
L 307.251676 249.927869 
L 319.242214 234.738231 
L 331.232751 245.439842 
L 343.223289 243.130652 
L 355.213827 248.753057 
L 367.204364 246.745784 
L 379.194902 254.631034 
L 391.18544 237.833502 
L 403.175977 273.537912 
L 415.166515 237.937629 
L 427.157053 271.467762 
L 439.14759 249.935164 
L 451.138128 259.569136 
L 463.128665 256.932044 
L 475.119203 240.235073 
L 487.109741 235.046808 
L 499.100278 241.94312 
L 511.090816 244.227112 
L 523.081354 274.127216 
L 535.071891 251.425809 
" clip-path="url(#p4f7b2f270a)" style="fill: none; stroke: #1f77b4; stroke-width: 1.5; stroke-linecap: square"/>
    <defs>
     <path id="mf08f41b5f7" d="M 0 1.5 
C 0.397805 1.5 0.77937 1.341951 1.06066 1.06066 
C 1.341951 0.77937 1.5 0.397805 1.5 0 
C 1.5 -0.397805 1.341951 -0.77937 1.06066 -1.06066 
C 0.77937 -1.341951 0.397805 -1.5 0 -1.5 
C -0.397805 -1.5 -0.77937 -1.341951 -1.06066 -1.06066 
C -1.341951 -0.77937 -1.5 -0.397805 -1.5 0 
C -1.5 0.397805 -1.341951 0.77937 -1.06066 1.06066 
C -0.77937 1.341951 -0.397805 1.5 0 1.5 
z
" style="stroke: #1f77b4"/>
    </defs>
    <g clip-path="url(#p4f7b2f270a)">
     <use xlink:href="#mf08f41b5f7" x="67.440923" y="263.02544" style="fill: #1f77b4; stroke: #1f77b4"/>
     <use xlink:href="#mf08f41b5f7" x="79.431461" y="247.148692" style="fill: #1f77b4; stroke: #1f77b4"/>
     <use xlink:href="#mf08f41b5f7" x="91.421999" y="251.496103" style="fill: #1f77b4; stroke: #1f77b4"/>
     <use xlink:href="#mf08f41b5f7" x="103.412536" y="249.721024" style="fill: #1f77b4; stroke: #1f77b4"/>
     <use xlink:href="#mf08f41b5f7" x="115.403074" y="272.674626" style="fill: #1f77b4; stroke: #1f77b4"/>
     <use xlink:href="#mf08f41b5f7" x="127.393612" y="250.076712" style="fill: #1f77b4; stroke: #1f77b4"/>
     <use xlink:href="#mf08f41b5f7" x="139.384149" y="255.51078" style="fill: #1f77b4; stroke: #1f77b4"/>
     <use xlink:href="#mf08f41b5f7" x="151.374687" y="251.887209" style="fill: #1f77b4; stroke: #1f77b4"/>
     <use xlink:href="#mf08f41b5f7" x="163.365225" y="241.833433" style="fill: #1f77b4; stroke: #1f77b4"/>
     <use xlink:href="#mf08f41b5f7" x="175.355762" y="271.849064" style="fill: #1f77b4; stroke: #1f77b4"/>
     <use xlink:href="#mf08f41b5f7" x="187.3463" y="244.805975" style="fill: #1f77b4; stroke: #1f77b4"/>
     <use xlink:href="#mf08f41b5f7" x="199.336837" y="249.269839" style="fill: #1f77b4; stroke: #1f77b4"/>
     <use xlink:href="#mf08f41b5f7" x="211.327375" y="260.896068" style="fill: #1f77b4; stroke: #1f77b4"/>
     <use xlink:href="#mf08f41b5f7" x="223.317913" y="253.560996" style="fill: #1f77b4; stroke: #1f77b4"/>
     <use xlink:href="#mf08f41b5f7" x="235.30845" y="271.141363" style="fill: #1f77b4; stroke: #1f77b4"/>
     <use xlink:href="#mf08f41b5f7" x="247.298988" y="235.662101" style="fill: #1f77b4; stroke: #1f77b4"/>
     <use xlink:href="#mf08f41b5f7" x="259.289526" y="272.318196" style="fill: #1f77b4; stroke: #1f77b4"/>
     <use xlink:href="#mf08f41b5f7" x="271.280063" y="240.429491" style="fill: #1f77b4; stroke: #1f77b4"/>
     <use xlink:href="#mf08f41b5f7" x="283.270601" y="244.016247" style="fill: #1f77b4; stroke: #1f77b4"/>
     <use xlink:href="#mf08f41b5f7" x="295.261139" y="248.394571" style="fill: #1f77b4; stroke: #1f77b4"/>
     <use xlink:href="#mf08f41b5f7" x="307.251676" y="249.927869" style="fill: #1f77b4; stroke: #1f77b4"/>
     <use xlink:href="#mf08f41b5f7" x="319.242214" y="234.738231" style="fill: #1f77b4; stroke: #1f77b4"/>
     <use xlink:href="#mf08f41b5f7" x="331.232751" y="245.439842" style="fill: #1f77b4; stroke: #1f77b4"/>
     <use xlink:href="#mf08f41b5f7" x="343.223289" y="243.130652" style="fill: #1f77b4; stroke: #1f77b4"/>
     <use xlink:href="#mf08f41b5f7" x="355.213827" y="248.753057" style="fill: #1f77b4; stroke: #1f77b4"/>
     <use xlink:href="#mf08f41b5f7" x="367.204364" y="246.745784" style="fill: #1f77b4; stroke: #1f77b4"/>
     <use xlink:href="#mf08f41b5f7" x="379.194902" y="254.631034" style="fill: #1f77b4; stroke: #1f77b4"/>
     <use xlink:href="#mf08f41b5f7" x="391.18544" y="237.833502" style="fill: #1f77b4; stroke: #1f77b4"/>
     <use xlink:href="#mf08f41b5f7" x="403.175977" y="273.537912" style="fill: #1f77b4; stroke: #1f77b4"/>
     <use xlink:href="#mf08f41b5f7" x="415.166515" y="237.937629" style="fill: #1f77b4; stroke: #1f77b4"/>
     <use xlink:href="#mf08f41b5f7" x="427.157053" y="271.467762" style="fill: #1f77b4; stroke: #1f77b4"/>
     <use xlink:href="#mf08f41b5f7" x="439.14759" y="249.935164" style="fill: #1f77b4; stroke: #1f77b4"/>
     <use xlink:href="#mf08f41b5f7" x="451.138128" y="259.569136" style="fill: #1f77b4; stroke: #1f77b4"/>
     <use xlink:href="#mf08f41b5f7" x="463.128665" y="256.932044" style="fill: #1f77b4; stroke: #1f77b4"/>
     <use xlink:href="#mf08f41b5f7" x="475.119203" y="240.235073" style="fill: #1f77b4; stroke: #1f77b4"/>
     <use xlink:href="#mf08f41b5f7" x="487.109741" y="235.046808" style="fill: #1f77b4; stroke: #1f77b4"/>
     <use xlink:href="#mf08f41b5f7" x="499.100278" y="241.94312" style="fill: #1f77b4; stroke: #1f77b4"/>
     <use xlink:href="#mf08f41b5f7" x="511.090816" y="244.227112" style="fill: #1f77b4; stroke: #1f77b4"/>
     <use xlink:href="#mf08f41b5f7" x="523.081354" y="274.127216" style="fill: #1f77b4; stroke: #1f77b4"/>
     <use xlink:href="#mf08f41b5f7" x="535.071891" y="251.425809" style="fill: #1f77b4; stroke: #1f77b4"/>
    </g>
   </g>
   <g id="line2d_13">
    <path d="M 67.440923 45.372847 
L 79.431461 48.701579 
L 91.421999 63.28807 
L 103.412536 81.365573 
L 115.403074 54.159589 
L 127.393612 52.510523 
L 139.384149 65.462332 
L 151.374687 70.997801 
L 163.365225 56.215314 
L 175.355762 60.238434 
L 187.3463 53.746028 
L 199.336837 61.745882 
L 211.327375 60.264171 
L 223.317913 62.875811 
L 235.30845 61.92295 
L 247.298988 53.277321 
L 259.289526 46.887215 
L 271.280063 74.441413 
L 283.270601 40.993411 
L 295.261139 68.600979 
L 307.251676 79.838724 
L 319.242214 47.541622 
L 331.232751 50.975716 
L 343.223289 72.070877 
L 355.213827 69.789619 
L 367.204364 47.820611 
L 379.194902 65.23966 
L 391.18544 42.847095 
L 403.175977 57.385431 
L 415.166515 34.309034 
L 427.157053 62.904527 
L 439.14759 64.128797 
L 451.138128 64.51566 
L 463.128665 70.098937 
L 475.119203 65.918308 
L 487.109741 61.937679 
L 499.100278 42.371153 
L 511.090816 56.696976 
L 523.081354 35.89107 
L 535.071891 45.808262 
" clip-path="url(#p4f7b2f270a)" style="fill: none; stroke: #ff7f0e; stroke-width: 1.5; stroke-linecap: square"/>
    <defs>
     <path id="mcf6f8997c9" d="M 0 1.5 
C 0.397805 1.5 0.77937 1.341951 1.06066 1.06066 
C 1.341951 0.77937 1.5 0.397805 1.5 0 
C 1.5 -0.397805 1.341951 -0.77937 1.06066 -1.06066 
C 0.77937 -1.341951 0.397805 -1.5 0 -1.5 
C -0.397805 -1.5 -0.77937 -1.341951 -1.06066 -1.06066 
C -1.341951 -0.77937 -1.5 -0.397805 -1.5 0 
C -1.5 0.397805 -1.341951 0.77937 -1.06066 1.06066 
C -0.77937 1.341951 -0.397805 1.5 0 1.5 
z
" style="stroke: #ff7f0e"/>
    </defs>
    <g clip-path="url(#p4f7b2f270a)">
     <use xlink:href="#mcf6f8997c9" x="67.440923" y="45.372847" style="fill: #ff7f0e; stroke: #ff7f0e"/>
     <use xlink:href="#mcf6f8997c9" x="79.431461" y="48.701579" style="fill: #ff7f0e; stroke: #ff7f0e"/>
     <use xlink:href="#mcf6f8997c9" x="91.421999" y="63.28807" style="fill: #ff7f0e; stroke: #ff7f0e"/>
     <use xlink:href="#mcf6f8997c9" x="103.412536" y="81.365573" style="fill: #ff7f0e; stroke: #ff7f0e"/>
     <use xlink:href="#mcf6f8997c9" x="115.403074" y="54.159589" style="fill: #ff7f0e; stroke: #ff7f0e"/>
     <use xlink:href="#mcf6f8997c9" x="127.393612" y="52.510523" style="fill: #ff7f0e; stroke: #ff7f0e"/>
     <use xlink:href="#mcf6f8997c9" x="139.384149" y="65.462332" style="fill: #ff7f0e; stroke: #ff7f0e"/>
     <use xlink:href="#mcf6f8997c9" x="151.374687" y="70.997801" style="fill: #ff7f0e; stroke: #ff7f0e"/>
     <use xlink:href="#mcf6f8997c9" x="163.365225" y="56.215314" style="fill: #ff7f0e; stroke: #ff7f0e"/>
     <use xlink:href="#mcf6f8997c9" x="175.355762" y="60.238434" style="fill: #ff7f0e; stroke: #ff7f0e"/>
     <use xlink:href="#mcf6f8997c9" x="187.3463" y="53.746028" style="fill: #ff7f0e; stroke: #ff7f0e"/>
     <use xlink:href="#mcf6f8997c9" x="199.336837" y="61.745882" style="fill: #ff7f0e; stroke: #ff7f0e"/>
     <use xlink:href="#mcf6f8997c9" x="211.327375" y="60.264171" style="fill: #ff7f0e; stroke: #ff7f0e"/>
     <use xlink:href="#mcf6f8997c9" x="223.317913" y="62.875811" style="fill: #ff7f0e; stroke: #ff7f0e"/>
     <use xlink:href="#mcf6f8997c9" x="235.30845" y="61.92295" style="fill: #ff7f0e; stroke: #ff7f0e"/>
     <use xlink:href="#mcf6f8997c9" x="247.298988" y="53.277321" style="fill: #ff7f0e; stroke: #ff7f0e"/>
     <use xlink:href="#mcf6f8997c9" x="259.289526" y="46.887215" style="fill: #ff7f0e; stroke: #ff7f0e"/>
     <use xlink:href="#mcf6f8997c9" x="271.280063" y="74.441413" style="fill: #ff7f0e; stroke: #ff7f0e"/>
     <use xlink:href="#mcf6f8997c9" x="283.270601" y="40.993411" style="fill: #ff7f0e; stroke: #ff7f0e"/>
     <use xlink:href="#mcf6f8997c9" x="295.261139" y="68.600979" style="fill: #ff7f0e; stroke: #ff7f0e"/>
     <use xlink:href="#mcf6f8997c9" x="307.251676" y="79.838724" style="fill: #ff7f0e; stroke: #ff7f0e"/>
     <use xlink:href="#mcf6f8997c9" x="319.242214" y="47.541622" style="fill: #ff7f0e; stroke: #ff7f0e"/>
     <use xlink:href="#mcf6f8997c9" x="331.232751" y="50.975716" style="fill: #ff7f0e; stroke: #ff7f0e"/>
     <use xlink:href="#mcf6f8997c9" x="343.223289" y="72.070877" style="fill: #ff7f0e; stroke: #ff7f0e"/>
     <use xlink:href="#mcf6f8997c9" x="355.213827" y="69.789619" style="fill: #ff7f0e; stroke: #ff7f0e"/>
     <use xlink:href="#mcf6f8997c9" x="367.204364" y="47.820611" style="fill: #ff7f0e; stroke: #ff7f0e"/>
     <use xlink:href="#mcf6f8997c9" x="379.194902" y="65.23966" style="fill: #ff7f0e; stroke: #ff7f0e"/>
     <use xlink:href="#mcf6f8997c9" x="391.18544" y="42.847095" style="fill: #ff7f0e; stroke: #ff7f0e"/>
     <use xlink:href="#mcf6f8997c9" x="403.175977" y="57.385431" style="fill: #ff7f0e; stroke: #ff7f0e"/>
     <use xlink:href="#mcf6f8997c9" x="415.166515" y="34.309034" style="fill: #ff7f0e; stroke: #ff7f0e"/>
     <use xlink:href="#mcf6f8997c9" x="427.157053" y="62.904527" style="fill: #ff7f0e; stroke: #ff7f0e"/>
     <use xlink:href="#mcf6f8997c9" x="439.14759" y="64.128797" style="fill: #ff7f0e; stroke: #ff7f0e"/>
     <use xlink:href="#mcf6f8997c9" x="451.138128" y="64.51566" style="fill: #ff7f0e; stroke: #ff7f0e"/>
     <use xlink:href="#mcf6f8997c9" x="463.128665" y="70.098937" style="fill: #ff7f0e; stroke: #ff7f0e"/>
     <use xlink:href="#mcf6f8997c9" x="475.119203" y="65.918308" style="fill: #ff7f0e; stroke: #ff7f0e"/>
     <use xlink:href="#mcf6f8997c9" x="487.109741" y="61.937679" style="fill: #ff7f0e; stroke: #ff7f0e"/>
     <use xlink:href="#mcf6f8997c9" x="499.100278" y="42.371153" style="fill: #ff7f0e; stroke: #ff7f0e"/>
     <use xlink:href="#mcf6f8997c9" x="511.090816" y="56.696976" style="fill: #ff7f0e; stroke: #ff7f0e"/>
     <use xlink:href="#mcf6f8997c9" x="523.081354" y="35.89107" style="fill: #ff7f0e; stroke: #ff7f0e"/>
     <use xlink:href="#mcf6f8997c9" x="535.071891" y="45.808262" style="fill: #ff7f0e; stroke: #ff7f0e"/>
    </g>
   </g>
   <g id="patch_3">
    <path d="M 44.059375 286.118125 
L 44.059375 22.318125 
" style="fill: none; stroke: #000000; stroke-width: 0.8; stroke-linejoin: miter; stroke-linecap: square"/>
   </g>
   <g id="patch_4">
    <path d="M 558.45344 286.118125 
L 558.45344 22.318125 
" style="fill: none; stroke: #000000; stroke-width: 0.8; stroke-linejoin: miter; stroke-linecap: square"/>
   </g>
   <g id="patch_5">
    <path d="M 44.059375 286.118125 
L 558.45344 286.118125 
" style="fill: none; stroke: #000000; stroke-width: 0.8; stroke-linejoin: miter; stroke-linecap: square"/>
   </g>
   <g id="patch_6">
    <path d="M 44.059375 22.318125 
L 558.45344 22.318125 
" style="fill: none; stroke: #000000; stroke-width: 0.8; stroke-linejoin: miter; stroke-linecap: square"/>
   </g>
   <g id="text_14">
    <!-- Task 3 global phase — each old task's value V_i^G (is one dominating?) -->
    <g transform="translate(85.413907 16.318125) scale(0.12 -0.12)">
     <defs>
      <path id="DejaVuSans-54" d="M -19 4666 
L 3928 4666 
L 3928 4134 
L 2272 4134 
L 2272 0 
L 1638 0 
L 1638 4134 
L -19 4134 
L -19 4666 
z
" transform="scale(0.015625)"/>
      <path id="DejaVuSans-6b" d="M 581 4863 
L 1159 4863 
L 1159 1991 
L 2875 3500 
L 3609 3500 
L 1753 1863 
L 3688 0 
L 2938 0 
L 1159 1709 
L 1159 0 
L 581 0 
L 581 4863 
z
" transform="scale(0.015625)"/>
      <path id="DejaVuSans-33" d="M 2597 2516 
Q 3050 2419 3304 2112 
Q 3559 1806 3559 1356 
Q 3559 666 3084 287 
Q 2609 -91 1734 -91 
Q 1441 -91 1130 -33 
Q 819 25 488 141 
L 488 750 
Q 750 597 1062 519 
Q 1375 441 1716 441 
Q 2309 441 2620 675 
Q 2931 909 2931 1356 
Q 2931 1769 2642 2001 
Q 2353 2234 1838 2234 
L 1294 2234 
L 1294 2753 
L 1863 2753 
Q 2328 2753 2575 2939 
Q 2822 3125 2822 3475 
Q 2822 3834 2567 4026 
Q 2313 4219 1838 4219 
Q 1578 4219 1281 4162 
Q 984 4106 628 3988 
L 628 4550 
Q 988 4650 1302 4700 
Q 1616 4750 1894 4750 
Q 2613 4750 3031 4423 
Q 3450 4097 3450 3541 
Q 3450 3153 3228 2886 
Q 3006 2619 2597 2516 
z
" transform="scale(0.015625)"/>
      <path id="DejaVuSans-70" d="M 1159 525 
L 1159 -1331 
L 581 -1331 
L 581 3500 
L 1159 3500 
L 1159 2969 
Q 1341 3281 1617 3432 
Q 1894 3584 2278 3584 
Q 2916 3584 3314 3078 
Q 3713 2572 3713 1747 
Q 3713 922 3314 415 
Q 2916 -91 2278 -91 
Q 1894 -91 1617 61 
Q 1341 213 1159 525 
z
M 3116 1747 
Q 3116 2381 2855 2742 
Q 2594 3103 2138 3103 
Q 1681 3103 1420 2742 
Q 1159 2381 1159 1747 
Q 1159 1113 1420 752 
Q 1681 391 2138 391 
Q 2594 391 2855 752 
Q 3116 1113 3116 1747 
z
" transform="scale(0.015625)"/>
      <path id="DejaVuSans-68" d="M 3513 2113 
L 3513 0 
L 2938 0 
L 2938 2094 
Q 2938 2591 2744 2837 
Q 2550 3084 2163 3084 
Q 1697 3084 1428 2787 
Q 1159 2491 1159 1978 
L 1159 0 
L 581 0 
L 581 4863 
L 1159 4863 
L 1159 2956 
Q 1366 3272 1645 3428 
Q 1925 3584 2291 3584 
Q 2894 3584 3203 3211 
Q 3513 2838 3513 2113 
z
" transform="scale(0.015625)"/>
      <path id="DejaVuSans-2014" d="M 313 1978 
L 6088 1978 
L 6088 1528 
L 313 1528 
L 313 1978 
z
" transform="scale(0.015625)"/>
      <path id="DejaVuSans-27" d="M 1147 4666 
L 1147 2931 
L 616 2931 
L 616 4666 
L 1147 4666 
z
" transform="scale(0.015625)"/>
      <path id="DejaVuSans-28" d="M 1984 4856 
Q 1566 4138 1362 3434 
Q 1159 2731 1159 2009 
Q 1159 1288 1364 580 
Q 1569 -128 1984 -844 
L 1484 -844 
Q 1016 -109 783 600 
Q 550 1309 550 2009 
Q 550 2706 781 3412 
Q 1013 4119 1484 4856 
L 1984 4856 
z
" transform="scale(0.015625)"/>
      <path id="DejaVuSans-6d" d="M 3328 2828 
Q 3544 3216 3844 3400 
Q 4144 3584 4550 3584 
Q 5097 3584 5394 3201 
Q 5691 2819 5691 2113 
L 5691 0 
L 5113 0 
L 5113 2094 
Q 5113 2597 4934 2840 
Q 4756 3084 4391 3084 
Q 3944 3084 3684 2787 
Q 3425 2491 3425 1978 
L 3425 0 
L 2847 0 
L 2847 2094 
Q 2847 2600 2669 2842 
Q 2491 3084 2119 3084 
Q 1678 3084 1418 2786 
Q 1159 2488 1159 1978 
L 1159 0 
L 581 0 
L 581 3500 
L 1159 3500 
L 1159 2956 
Q 1356 3278 1631 3431 
Q 1906 3584 2284 3584 
Q 2666 3584 2933 3390 
Q 3200 3197 3328 2828 
z
" transform="scale(0.015625)"/>
      <path id="DejaVuSans-3f" d="M 1222 794 
L 1856 794 
L 1856 0 
L 1222 0 
L 1222 794 
z
M 1838 1253 
L 1241 1253 
L 1241 1734 
Q 1241 2050 1328 2253 
Q 1416 2456 1697 2725 
L 1978 3003 
Q 2156 3169 2236 3316 
Q 2316 3463 2316 3616 
Q 2316 3894 2111 4066 
Q 1906 4238 1569 4238 
Q 1322 4238 1042 4128 
Q 763 4019 459 3809 
L 459 4397 
Q 753 4575 1054 4662 
Q 1356 4750 1678 4750 
Q 2253 4750 2601 4447 
Q 2950 4144 2950 3647 
Q 2950 3409 2837 3195 
Q 2725 2981 2444 2713 
L 2169 2444 
Q 2022 2297 1961 2214 
Q 1900 2131 1875 2053 
Q 1856 1988 1847 1894 
Q 1838 1800 1838 1638 
L 1838 1253 
z
" transform="scale(0.015625)"/>
      <path id="DejaVuSans-29" d="M 513 4856 
L 1013 4856 
Q 1481 4119 1714 3412 
Q 1947 2706 1947 2009 
Q 1947 1309 1714 600 
Q 1481 -109 1013 -844 
L 513 -844 
Q 928 -128 1133 580 
Q 1338 1288 1338 2009 
Q 1338 2731 1133 3434 
Q 928 4138 513 4856 
z
" transform="scale(0.015625)"/>
     </defs>
     <use xlink:href="#DejaVuSans-54"/>
     <use xlink:href="#DejaVuSans-61" x="44.583984"/>
     <use xlink:href="#DejaVuSans-73" x="105.863281"/>
     <use xlink:href="#DejaVuSans-6b" x="157.962891"/>
     <use xlink:href="#DejaVuSans-20" x="215.873047"/>
     <use xlink:href="#DejaVuSans-33" x="247.660156"/>
     <use xlink:href="#DejaVuSans-20" x="311.283203"/>
     <use xlink:href="#DejaVuSans-67" x="343.070312"/>
     <use xlink:href="#DejaVuSans-6c" x="406.546875"/>
     <use xlink:href="#DejaVuSans-6f" x="434.330078"/>
     <use xlink:href="#DejaVuSans-62" x="495.511719"/>
     <use xlink:href="#DejaVuSans-61" x="558.988281"/>
     <use xlink:href="#DejaVuSans-6c" x="620.267578"/>
     <use xlink:href="#DejaVuSans-20" x="648.050781"/>
     <use xlink:href="#DejaVuSans-70" x="679.837891"/>
     <use xlink:href="#DejaVuSans-68" x="743.314453"/>
     <use xlink:href="#DejaVuSans-61" x="806.693359"/>
     <use xlink:href="#DejaVuSans-73" x="867.972656"/>
     <use xlink:href="#DejaVuSans-65" x="920.072266"/>
     <use xlink:href="#DejaVuSans-20" x="981.595703"/>
     <use xlink:href="#DejaVuSans-2014" x="1013.382812"/>
     <use xlink:href="#DejaVuSans-20" x="1113.382812"/>
     <use xlink:href="#DejaVuSans-65" x="1145.169922"/>
     <use xlink:href="#DejaVuSans-61" x="1206.693359"/>
     <use xlink:href="#DejaVuSans-63" x="1267.972656"/>
     <use xlink:href="#DejaVuSans-68" x="1322.953125"/>
     <use xlink:href="#DejaVuSans-20" x="1386.332031"/>
     <use xlink:href="#DejaVuSans-6f" x="1418.119141"/>
     <use xlink:href="#DejaVuSans-6c" x="1479.300781"/>
     <use xlink:href="#DejaVuSans-64" x="1507.083984"/>
     <use xlink:href="#DejaVuSans-20" x="1570.560547"/>
     <use xlink:href="#DejaVuSans-74" x="1602.347656"/>
     <use xlink:href="#DejaVuSans-61" x="1641.556641"/>
     <use xlink:href="#DejaVuSans-73" x="1702.835938"/>
     <use xlink:href="#DejaVuSans-6b" x="1754.935547"/>
     <use xlink:href="#DejaVuSans-27" x="1812.845703"/>
     <use xlink:href="#DejaVuSans-73" x="1840.335938"/>
     <use xlink:href="#DejaVuSans-20" x="1892.435547"/>
     <use xlink:href="#DejaVuSans-76" x="1924.222656"/>
     <use xlink:href="#DejaVuSans-61" x="1983.402344"/>
     <use xlink:href="#DejaVuSans-6c" x="2044.681641"/>
     <use xlink:href="#DejaVuSans-75" x="2072.464844"/>
     <use xlink:href="#DejaVuSans-65" x="2135.84375"/>
     <use xlink:href="#DejaVuSans-20" x="2197.367188"/>
     <use xlink:href="#DejaVuSans-56" x="2229.154297"/>
     <use xlink:href="#DejaVuSans-5f" x="2297.5625"/>
     <use xlink:href="#DejaVuSans-69" x="2347.5625"/>
     <use xlink:href="#DejaVuSans-5e" x="2375.345703"/>
     <use xlink:href="#DejaVuSans-47" x="2459.134766"/>
     <use xlink:href="#DejaVuSans-20" x="2536.625"/>
     <use xlink:href="#DejaVuSans-28" x="2568.412109"/>
     <use xlink:href="#DejaVuSans-69" x="2607.425781"/>
     <use xlink:href="#DejaVuSans-73" x="2635.208984"/>
     <use xlink:href="#DejaVuSans-20" x="2687.308594"/>
     <use xlink:href="#DejaVuSans-6f" x="2719.095703"/>
     <use xlink:href="#DejaVuSans-6e" x="2780.277344"/>
     <use xlink:href="#DejaVuSans-65" x="2843.65625"/>
     <use xlink:href="#DejaVuSans-20" x="2905.179688"/>
     <use xlink:href="#DejaVuSans-64" x="2936.966797"/>
     <use xlink:href="#DejaVuSans-6f" x="3000.443359"/>
     <use xlink:href="#DejaVuSans-6d" x="3061.625"/>
     <use xlink:href="#DejaVuSans-69" x="3159.037109"/>
     <use xlink:href="#DejaVuSans-6e" x="3186.820312"/>
     <use xlink:href="#DejaVuSans-61" x="3250.199219"/>
     <use xlink:href="#DejaVuSans-74" x="3311.478516"/>
     <use xlink:href="#DejaVuSans-69" x="3350.6875"/>
     <use xlink:href="#DejaVuSans-6e" x="3378.470703"/>
     <use xlink:href="#DejaVuSans-67" x="3441.849609"/>
     <use xlink:href="#DejaVuSans-3f" x="3505.326172"/>
     <use xlink:href="#DejaVuSans-29" x="3558.402344"/>
    </g>
   </g>
   <g id="legend_1">
    <g id="patch_7">
     <path d="M 491.38719 167.160625 
L 552.85344 167.160625 
Q 554.45344 167.160625 554.45344 165.560625 
L 554.45344 142.875625 
Q 554.45344 141.275625 552.85344 141.275625 
L 491.38719 141.275625 
Q 489.78719 141.275625 489.78719 142.875625 
L 489.78719 165.560625 
Q 489.78719 167.160625 491.38719 167.160625 
z
" style="fill: #ffffff; opacity: 0.8; stroke: #cccccc; stroke-linejoin: miter"/>
    </g>
    <g id="line2d_14">
     <path d="M 492.98719 147.754375 
L 500.98719 147.754375 
L 508.98719 147.754375 
" style="fill: none; stroke: #1f77b4; stroke-width: 1.5; stroke-linecap: square"/>
     <g>
      <use xlink:href="#mf08f41b5f7" x="500.98719" y="147.754375" style="fill: #1f77b4; stroke: #1f77b4"/>
     </g>
    </g>
    <g id="text_15">
     <!-- Pong -->
     <g transform="translate(515.38719 150.554375) scale(0.08 -0.08)">
      <defs>
       <path id="DejaVuSans-50" d="M 1259 4147 
L 1259 2394 
L 2053 2394 
Q 2494 2394 2734 2622 
Q 2975 2850 2975 3272 
Q 2975 3691 2734 3919 
Q 2494 4147 2053 4147 
L 1259 4147 
z
M 628 4666 
L 2053 4666 
Q 2838 4666 3239 4311 
Q 3641 3956 3641 3272 
Q 3641 2581 3239 2228 
Q 2838 1875 2053 1875 
L 1259 1875 
L 1259 0 
L 628 0 
L 628 4666 
z
" transform="scale(0.015625)"/>
      </defs>
      <use xlink:href="#DejaVuSans-50"/>
      <use xlink:href="#DejaVuSans-6f" x="56.677734"/>
      <use xlink:href="#DejaVuSans-6e" x="117.859375"/>
      <use xlink:href="#DejaVuSans-67" x="181.238281"/>
     </g>
    </g>
    <g id="line2d_15">
     <path d="M 492.98719 159.496875 
L 500.98719 159.496875 
L 508.98719 159.496875 
" style="fill: none; stroke: #ff7f0e; stroke-width: 1.5; stroke-linecap: square"/>
     <g>
      <use xlink:href="#mcf6f8997c9" x="500.98719" y="159.496875" style="fill: #ff7f0e; stroke: #ff7f0e"/>
     </g>
    </g>
    <g id="text_16">
     <!-- Breakout -->
     <g transform="translate(515.38719 162.296875) scale(0.08 -0.08)">
      <defs>
       <path id="DejaVuSans-42" d="M 1259 2228 
L 1259 519 
L 2272 519 
Q 2781 519 3026 730 
Q 3272 941 3272 1375 
Q 3272 1813 3026 2020 
Q 2781 2228 2272 2228 
L 1259 2228 
z
M 1259 4147 
L 1259 2741 
L 2194 2741 
Q 2656 2741 2882 2914 
Q 3109 3088 3109 3444 
Q 3109 3797 2882 3972 
Q 2656 4147 2194 4147 
L 1259 4147 
z
M 628 4666 
L 2241 4666 
Q 2963 4666 3353 4366 
Q 3744 4066 3744 3513 
Q 3744 3084 3544 2831 
Q 3344 2578 2956 2516 
Q 3422 2416 3680 2098 
Q 3938 1781 3938 1306 
Q 3938 681 3513 340 
Q 3088 0 2303 0 
L 628 0 
L 628 4666 
z
" transform="scale(0.015625)"/>
      </defs>
      <use xlink:href="#DejaVuSans-42"/>
      <use xlink:href="#DejaVuSans-72" x="68.603516"/>
      <use xlink:href="#DejaVuSans-65" x="107.466797"/>
      <use xlink:href="#DejaVuSans-61" x="168.990234"/>
      <use xlink:href="#DejaVuSans-6b" x="230.269531"/>
      <use xlink:href="#DejaVuSans-6f" x="284.554688"/>
      <use xlink:href="#DejaVuSans-75" x="345.736328"/>
      <use xlink:href="#DejaVuSans-74" x="409.115234"/>
     </g>
    </g>
   </g>
  </g>
 </g>
 <defs>
  <clipPath id="p4f7b2f270a">
   <rect x="44.059375" y="22.318125" width="514.394065" height="263.8"/>
  </clipPath>
 </defs>
</svg>
