<?xml version="1.0" encoding="utf-8" standalone="no"?>
<!DOCTYPE svg PUBLIC "-//W3C//DTD SVG 1.1//EN"
  "http://www.w3.org/Graphics/SVG/1.1/DTD/svg11.dtd">
<svg xmlns:xlink="http://www.w3.org/1999/xlink" width="516.6pt" height="333.95625pt" viewBox="0 0 516.6 333.95625" xmlns="http://www.w3.org/2000/svg" version="1.1">
 <metadata>
  <rdf:RDF xmlns:dc="http://purl.org/dc/elements/1.1/" xmlns:cc="http://creativecommons.org/ns#" xmlns:rdf="http://www.w3.org/1999/02/22-rdf-syntax-ns#">
   <cc:Work>
    <dc:type rdf:resource="http://purl.org/dc/dcmitype/StillImage"/>
    <dc:date>2026-07-09T16:12:50.465444</dc:date>
    <dc:format>image/svg+xml</dc:format>
    <dc:creator>
     <cc:Agent>
      <dc:title>Matplotlib v3.10.1, https://matplotlib.org/</dc:title>
     </cc:Agent>
    </dc:creator>
   </cc:Work>
  </rdf:RDF>
 </metadata>
 <defs>
  <style type="text/css">*{stroke-linejoin: round; stroke-linecap: butt}</style>
 </defs>
 <g id="figure_1">
  <g id="patch_1">
   <path d="M 0 333.95625 
L 516.6 333.95625 
L 516.6 0 
L 0 0 
z
" style="fill: #ffffff"/>
  </g>
  <g id="axes_1">
   <g id="patch_2">
    <path d="M 37.332 147.28905 
L 208.08 147.28905 
Q 212.0976 147.28905 212.0976 143.80425 
L 212.0976 65.39625 
Q 212.0976 61.91145 208.08 61.91145 
L 37.332 61.91145 
Q 33.3144 61.91145 33.3144 65.39625 
L 33.3144 143.80425 
Q 33.3144 147.28905 37.332 147.28905 
z
" clip-path="url(#p1df7522666)" style="fill: #ffffff; stroke: #2563eb; stroke-width: 1.5; stroke-linejoin: miter"/>
   </g>
   <g id="patch_3">
    <path d="M 308.52 147.28905 
L 479.268 147.28905 
Q 483.2856 147.28905 483.2856 143.80425 
L 483.2856 65.39625 
Q 483.2856 61.91145 479.268 61.91145 
L 308.52 61.91145 
Q 304.5024 61.91145 304.5024 65.39625 
L 304.5024 143.80425 
Q 304.5024 147.28905 308.52 147.28905 
z
" clip-path="url(#p1df7522666)" style="fill: #ffffff; stroke: #d97706; stroke-width: 1.5; stroke-linejoin: miter"/>
   </g>
   <g id="patch_4">
    <path d="M 210.081566 91.53225 
Q 258.301919 91.53225 304.845221 91.53225 
" clip-path="url(#p1df7522666)" style="fill: none; stroke: #495057; stroke-width: 1.5; stroke-linecap: round"/>
    <path d="M 297.645221 87.93225 
L 304.845221 91.53225 
L 297.645221 95.13225 
z
" clip-path="url(#p1df7522666)" style="fill: #495057; stroke: #495057; stroke-width: 1.5; stroke-linecap: round"/>
   </g>
   <g id="patch_5">
    <path d="M 306.518434 126.38025 
Q 258.298081 126.38025 211.754779 126.38025 
" clip-path="url(#p1df7522666)" style="fill: none; stroke: #495057; stroke-width: 1.5; stroke-linecap: round"/>
    <path d="M 218.954779 129.98025 
L 211.754779 126.38025 
L 218.954779 122.78025 
z
" clip-path="url(#p1df7522666)" style="fill: #495057; stroke: #495057; stroke-width: 1.5; stroke-linecap: round"/>
   </g>
   <g id="patch_6">
    <path d="M 162.882 225.69705 
L 353.718 225.69705 
Q 357.7356 225.69705 357.7356 222.21225 
L 357.7356 178.65225 
Q 357.7356 175.16745 353.718 175.16745 
L 162.882 175.16745 
Q 158.8644 175.16745 158.8644 178.65225 
L 158.8644 222.21225 
Q 158.8644 225.69705 162.882 225.69705 
z
" clip-path="url(#p1df7522666)" style="fill: #ffffff; stroke: #059669; stroke-width: 1.5; stroke-linejoin: miter"/>
   </g>
   <g id="patch_7">
    <path d="M 124.438443 144.806045 
Q 152.837894 161.228189 180.075906 176.978724 
" clip-path="url(#p1df7522666)" style="fill: none; stroke: #059669; stroke-width: 1.2; stroke-linecap: round"/>
    <path d="M 176.629712 171.751512 
L 180.075906 176.978724 
L 173.82642 176.599353 
z
" clip-path="url(#p1df7522666)" style="fill: #059669; stroke: #059669; stroke-width: 1.2; stroke-linecap: round"/>
   </g>
   <g id="patch_8">
    <path d="M 392.161557 144.806045 
Q 363.762106 161.228189 336.524094 176.978724 
" clip-path="url(#p1df7522666)" style="fill: none; stroke: #059669; stroke-width: 1.2; stroke-linecap: round"/>
    <path d="M 342.77358 176.599353 
L 336.524094 176.978724 
L 339.970288 171.751512 
z
" clip-path="url(#p1df7522666)" style="fill: #059669; stroke: #059669; stroke-width: 1.2; stroke-linecap: round"/>
   </g>
   <g id="patch_9">
    <path d="M 162.882 304.10505 
L 353.718 304.10505 
Q 357.7356 304.10505 357.7356 300.62025 
L 357.7356 257.06025 
Q 357.7356 253.57545 353.718 253.57545 
L 162.882 253.57545 
Q 158.8644 253.57545 158.8644 257.06025 
L 158.8644 300.62025 
Q 158.8644 304.10505 162.882 304.10505 
z
" clip-path="url(#p1df7522666)" style="fill: #ffffff; stroke: #7c3aed; stroke-width: 1.5; stroke-linejoin: miter"/>
   </g>
   <g id="patch_10">
    <path d="M 392.687696 145.404516 
Q 351.206183 200.433333 310.397669 254.56936 
" clip-path="url(#p1df7522666)" style="fill: none; stroke-dasharray: 3.7,1.6; stroke-dashoffset: 0; stroke: #6c757d; stroke-linecap: round"/>
    <path d="M 316.004475 251.783014 
L 310.397669 254.56936 
L 311.532675 248.412108 
z
" clip-path="url(#p1df7522666)" style="fill: #6c757d; stroke-dasharray: 3.7,1.6; stroke-dashoffset: 0; stroke: #6c757d; stroke-linecap: round"/>
   </g>
   <g id="text_1">
    <!-- LOCAL  $\pi_\theta$ -->
    <g style="fill: #212529" transform="translate(98.206 90.707906) scale(0.1 -0.1)">
     <defs>
      <path id="Helvetica-4c" d="M 488 4591 
L 1109 4591 
L 1109 547 
L 3434 547 
L 3434 0 
L 488 0 
L 488 4591 
z
" transform="scale(0.015625)"/>
      <path id="Helvetica-4f" d="M 2469 4716 
Q 3684 4716 4269 3934 
Q 4725 3325 4725 2375 
Q 4725 1347 4203 666 
Q 3591 -134 2456 -134 
Q 1397 -134 791 566 
Q 250 1241 250 2272 
Q 250 3203 713 3866 
Q 1306 4716 2469 4716 
z
M 2531 422 
Q 3353 422 3720 1011 
Q 4088 1600 4088 2366 
Q 4088 3175 3664 3669 
Q 3241 4163 2506 4163 
Q 1794 4163 1344 3673 
Q 894 3184 894 2231 
Q 894 1469 1280 945 
Q 1666 422 2531 422 
z
M 2488 4716 
L 2488 4716 
z
" transform="scale(0.015625)"/>
      <path id="Helvetica-43" d="M 2422 4716 
Q 3294 4716 3775 4256 
Q 4256 3797 4309 3213 
L 3703 3213 
Q 3600 3656 3292 3915 
Q 2984 4175 2428 4175 
Q 1750 4175 1333 3698 
Q 916 3222 916 2238 
Q 916 1431 1292 929 
Q 1669 428 2416 428 
Q 3103 428 3463 956 
Q 3653 1234 3747 1688 
L 4353 1688 
Q 4272 963 3816 472 
Q 3269 -119 2341 -119 
Q 1541 -119 997 366 
Q 281 1006 281 2344 
Q 281 3359 819 4009 
Q 1400 4716 2422 4716 
z
M 2297 4716 
L 2297 4716 
z
" transform="scale(0.015625)"/>
      <path id="Helvetica-41" d="M 2844 1881 
L 2147 3909 
L 1406 1881 
L 2844 1881 
z
M 1822 4591 
L 2525 4591 
L 4191 0 
L 3509 0 
L 3044 1375 
L 1228 1375 
L 731 0 
L 94 0 
L 1822 4591 
z
" transform="scale(0.015625)"/>
      <path id="Helvetica-20" transform="scale(0.015625)"/>
      <path id="DejaVuSans-Oblique-3c0" d="M 584 3500 
L 3938 3500 
L 3825 2925 
L 3384 2925 
L 2966 775 
Q 2922 550 2981 450 
Q 3038 353 3209 353 
Q 3256 353 3325 363 
Q 3397 369 3419 372 
L 3338 -44 
Q 3222 -84 3103 -103 
Q 2981 -122 2866 -122 
Q 2491 -122 2388 81 
Q 2284 288 2391 838 
L 2797 2925 
L 1506 2925 
L 938 0 
L 350 0 
L 919 2925 
L 472 2925 
L 584 3500 
z
" transform="scale(0.015625)"/>
      <path id="DejaVuSans-Oblique-3b8" d="M 2913 2219 
L 925 2219 
Q 791 1284 928 888 
Q 1100 400 1566 400 
Q 2034 400 2391 891 
Q 2703 1322 2913 2219 
z
M 3009 2750 
Q 3094 3638 2984 3950 
Q 2813 4444 2353 4444 
Q 1875 4444 1525 3956 
Q 1250 3563 1034 2750 
L 3009 2750 
z
M 2444 4913 
Q 3194 4913 3494 4250 
Q 3794 3591 3566 2422 
Q 3341 1256 2781 594 
Q 2225 -72 1475 -72 
Q 722 -72 425 594 
Q 128 1256 353 2422 
Q 581 3591 1134 4250 
Q 1691 4913 2444 4913 
z
" transform="scale(0.015625)"/>
     </defs>
     <use xlink:href="#Helvetica-4c" transform="translate(0 0.3125)"/>
     <use xlink:href="#Helvetica-4f" transform="translate(55.615234 0.3125)"/>
     <use xlink:href="#Helvetica-43" transform="translate(133.398438 0.3125)"/>
     <use xlink:href="#Helvetica-41" transform="translate(205.615234 0.3125)"/>
     <use xlink:href="#Helvetica-4c" transform="translate(272.314453 0.3125)"/>
     <use xlink:href="#Helvetica-20" transform="translate(327.929688 0.3125)"/>
     <use xlink:href="#Helvetica-20" transform="translate(355.712891 0.3125)"/>
     <use xlink:href="#DejaVuSans-Oblique-3c0" transform="translate(383.496094 0.3125)"/>
     <use xlink:href="#DejaVuSans-Oblique-3b8" transform="translate(443.701172 -16.09375) scale(0.7)"/>
    </g>
    <!-- max current-task lead -->
    <g style="fill: #212529" transform="translate(74.635688 101.400406) scale(0.1 -0.1)">
     <defs>
      <path id="Helvetica-6d" d="M 413 3347 
L 969 3347 
L 969 2872 
Q 1169 3119 1331 3231 
Q 1609 3422 1963 3422 
Q 2363 3422 2606 3225 
Q 2744 3113 2856 2894 
Q 3044 3163 3297 3292 
Q 3550 3422 3866 3422 
Q 4541 3422 4784 2934 
Q 4916 2672 4916 2228 
L 4916 0 
L 4331 0 
L 4331 2325 
Q 4331 2659 4164 2784 
Q 3997 2909 3756 2909 
Q 3425 2909 3186 2687 
Q 2947 2466 2947 1947 
L 2947 0 
L 2375 0 
L 2375 2184 
Q 2375 2525 2294 2681 
Q 2166 2916 1816 2916 
Q 1497 2916 1236 2669 
Q 975 2422 975 1775 
L 975 0 
L 413 0 
L 413 3347 
z
" transform="scale(0.015625)"/>
      <path id="Helvetica-61" d="M 844 891 
Q 844 647 1022 506 
Q 1200 366 1444 366 
Q 1741 366 2019 503 
Q 2488 731 2488 1250 
L 2488 1703 
Q 2384 1638 2221 1594 
Q 2059 1550 1903 1531 
L 1563 1488 
Q 1256 1447 1103 1359 
Q 844 1213 844 891 
z
M 2206 2028 
Q 2400 2053 2466 2191 
Q 2503 2266 2503 2406 
Q 2503 2694 2298 2823 
Q 2094 2953 1713 2953 
Q 1272 2953 1088 2716 
Q 984 2584 953 2325 
L 428 2325 
Q 444 2944 830 3186 
Q 1216 3428 1725 3428 
Q 2316 3428 2684 3203 
Q 3050 2978 3050 2503 
L 3050 575 
Q 3050 488 3086 434 
Q 3122 381 3238 381 
Q 3275 381 3322 386 
Q 3369 391 3422 400 
L 3422 -16 
Q 3291 -53 3222 -62 
Q 3153 -72 3034 -72 
Q 2744 -72 2613 134 
Q 2544 244 2516 444 
Q 2344 219 2022 53 
Q 1700 -113 1313 -113 
Q 847 -113 551 170 
Q 256 453 256 878 
Q 256 1344 547 1600 
Q 838 1856 1309 1916 
L 2206 2028 
z
M 1741 3428 
L 1741 3428 
z
" transform="scale(0.015625)"/>
      <path id="Helvetica-78" d="M 94 3347 
L 822 3347 
L 1591 2169 
L 2369 3347 
L 3053 3331 
L 1925 1716 
L 3103 0 
L 2384 0 
L 1553 1256 
L 747 0 
L 34 0 
L 1213 1716 
L 94 3347 
z
" transform="scale(0.015625)"/>
      <path id="Helvetica-63" d="M 1703 3444 
Q 2269 3444 2623 3169 
Q 2978 2894 3050 2222 
L 2503 2222 
Q 2453 2531 2275 2736 
Q 2097 2941 1703 2941 
Q 1166 2941 934 2416 
Q 784 2075 784 1575 
Q 784 1072 996 728 
Q 1209 384 1666 384 
Q 2016 384 2220 598 
Q 2425 813 2503 1184 
L 3050 1184 
Q 2956 519 2581 211 
Q 2206 -97 1622 -97 
Q 966 -97 575 383 
Q 184 863 184 1581 
Q 184 2463 612 2953 
Q 1041 3444 1703 3444 
z
M 1616 3428 
L 1616 3428 
z
" transform="scale(0.015625)"/>
      <path id="Helvetica-75" d="M 975 3347 
L 975 1125 
Q 975 869 1056 706 
Q 1206 406 1616 406 
Q 2203 406 2416 931 
Q 2531 1213 2531 1703 
L 2531 3347 
L 3094 3347 
L 3094 0 
L 2563 0 
L 2569 494 
Q 2459 303 2297 172 
Q 1975 -91 1516 -91 
Q 800 -91 541 388 
Q 400 644 400 1072 
L 400 3347 
L 975 3347 
z
M 1747 3428 
L 1747 3428 
z
" transform="scale(0.015625)"/>
      <path id="Helvetica-72" d="M 428 3347 
L 963 3347 
L 963 2769 
Q 1028 2938 1284 3180 
Q 1541 3422 1875 3422 
Q 1891 3422 1928 3419 
Q 1966 3416 2056 3406 
L 2056 2813 
Q 2006 2822 1964 2825 
Q 1922 2828 1872 2828 
Q 1447 2828 1219 2554 
Q 991 2281 991 1925 
L 991 0 
L 428 0 
L 428 3347 
z
" transform="scale(0.015625)"/>
      <path id="Helvetica-65" d="M 1806 3422 
Q 2163 3422 2497 3255 
Q 2831 3088 3006 2822 
Q 3175 2569 3231 2231 
Q 3281 2000 3281 1494 
L 828 1494 
Q 844 984 1069 676 
Q 1294 369 1766 369 
Q 2206 369 2469 659 
Q 2619 828 2681 1050 
L 3234 1050 
Q 3213 866 3089 639 
Q 2966 413 2813 269 
Q 2556 19 2178 -69 
Q 1975 -119 1719 -119 
Q 1094 -119 659 336 
Q 225 791 225 1609 
Q 225 2416 662 2919 
Q 1100 3422 1806 3422 
z
M 2703 1941 
Q 2669 2306 2544 2525 
Q 2313 2931 1772 2931 
Q 1384 2931 1121 2651 
Q 859 2372 844 1941 
L 2703 1941 
z
M 1753 3428 
L 1753 3428 
z
" transform="scale(0.015625)"/>
      <path id="Helvetica-6e" d="M 413 3347 
L 947 3347 
L 947 2872 
Q 1184 3166 1450 3294 
Q 1716 3422 2041 3422 
Q 2753 3422 3003 2925 
Q 3141 2653 3141 2147 
L 3141 0 
L 2569 0 
L 2569 2109 
Q 2569 2416 2478 2603 
Q 2328 2916 1934 2916 
Q 1734 2916 1606 2875 
Q 1375 2806 1200 2600 
Q 1059 2434 1017 2257 
Q 975 2081 975 1753 
L 975 0 
L 413 0 
L 413 3347 
z
M 1734 3428 
L 1734 3428 
z
" transform="scale(0.015625)"/>
      <path id="Helvetica-74" d="M 525 4281 
L 1094 4281 
L 1094 3347 
L 1628 3347 
L 1628 2888 
L 1094 2888 
L 1094 703 
Q 1094 528 1213 469 
Q 1278 434 1431 434 
Q 1472 434 1519 436 
Q 1566 438 1628 444 
L 1628 0 
Q 1531 -28 1426 -40 
Q 1322 -53 1200 -53 
Q 806 -53 665 148 
Q 525 350 525 672 
L 525 2888 
L 72 2888 
L 72 3347 
L 525 3347 
L 525 4281 
z
" transform="scale(0.015625)"/>
      <path id="Helvetica-2d" d="M 266 2072 
L 1834 2072 
L 1834 1494 
L 266 1494 
L 266 2072 
z
" transform="scale(0.015625)"/>
      <path id="Helvetica-73" d="M 747 1050 
Q 772 769 888 619 
Q 1100 347 1625 347 
Q 1938 347 2175 483 
Q 2413 619 2413 903 
Q 2413 1119 2222 1231 
Q 2100 1300 1741 1391 
L 1294 1503 
Q 866 1609 663 1741 
Q 300 1969 300 2372 
Q 300 2847 642 3140 
Q 984 3434 1563 3434 
Q 2319 3434 2653 2991 
Q 2863 2709 2856 2384 
L 2325 2384 
Q 2309 2575 2191 2731 
Q 1997 2953 1519 2953 
Q 1200 2953 1036 2831 
Q 872 2709 872 2509 
Q 872 2291 1088 2159 
Q 1213 2081 1456 2022 
L 1828 1931 
Q 2434 1784 2641 1647 
Q 2969 1431 2969 969 
Q 2969 522 2630 197 
Q 2291 -128 1597 -128 
Q 850 -128 539 211 
Q 228 550 206 1050 
L 747 1050 
z
M 1578 3428 
L 1578 3428 
z
" transform="scale(0.015625)"/>
      <path id="Helvetica-6b" d="M 400 4591 
L 941 4591 
L 941 1925 
L 2384 3347 
L 3103 3347 
L 1822 2094 
L 3175 0 
L 2456 0 
L 1413 1688 
L 941 1256 
L 941 0 
L 400 0 
L 400 4591 
z
" transform="scale(0.015625)"/>
      <path id="Helvetica-6c" d="M 428 4591 
L 991 4591 
L 991 0 
L 428 0 
L 428 4591 
z
" transform="scale(0.015625)"/>
      <path id="Helvetica-64" d="M 769 1634 
Q 769 1097 997 734 
Q 1225 372 1728 372 
Q 2119 372 2370 708 
Q 2622 1044 2622 1672 
Q 2622 2306 2362 2611 
Q 2103 2916 1722 2916 
Q 1297 2916 1033 2591 
Q 769 2266 769 1634 
z
M 1616 3406 
Q 2000 3406 2259 3244 
Q 2409 3150 2600 2916 
L 2600 4606 
L 3141 4606 
L 3141 0 
L 2634 0 
L 2634 466 
Q 2438 156 2169 18 
Q 1900 -119 1553 -119 
Q 994 -119 584 351 
Q 175 822 175 1603 
Q 175 2334 548 2870 
Q 922 3406 1616 3406 
z
" transform="scale(0.015625)"/>
     </defs>
     <use xlink:href="#Helvetica-6d"/>
     <use xlink:href="#Helvetica-61" transform="translate(83.300781 0)"/>
     <use xlink:href="#Helvetica-78" transform="translate(138.916016 0)"/>
     <use xlink:href="#Helvetica-20" transform="translate(188.916016 0)"/>
     <use xlink:href="#Helvetica-63" transform="translate(216.699219 0)"/>
     <use xlink:href="#Helvetica-75" transform="translate(266.699219 0)"/>
     <use xlink:href="#Helvetica-72" transform="translate(322.314453 0)"/>
     <use xlink:href="#Helvetica-72" transform="translate(355.615234 0)"/>
     <use xlink:href="#Helvetica-65" transform="translate(388.916016 0)"/>
     <use xlink:href="#Helvetica-6e" transform="translate(444.53125 0)"/>
     <use xlink:href="#Helvetica-74" transform="translate(500.146484 0)"/>
     <use xlink:href="#Helvetica-2d" transform="translate(527.929688 0)"/>
     <use xlink:href="#Helvetica-74" transform="translate(561.230469 0)"/>
     <use xlink:href="#Helvetica-61" transform="translate(589.013672 0)"/>
     <use xlink:href="#Helvetica-73" transform="translate(644.628906 0)"/>
     <use xlink:href="#Helvetica-6b" transform="translate(694.628906 0)"/>
     <use xlink:href="#Helvetica-20" transform="translate(744.628906 0)"/>
     <use xlink:href="#Helvetica-6c" transform="translate(772.412109 0)"/>
     <use xlink:href="#Helvetica-65" transform="translate(794.628906 0)"/>
     <use xlink:href="#Helvetica-61" transform="translate(850.244141 0)"/>
     <use xlink:href="#Helvetica-64" transform="translate(905.859375 0)"/>
    </g>
    <!-- s.t. per-task $\lambda_i$ hold -->
    <g style="fill: #212529" transform="translate(80.256 112.604781) scale(0.1 -0.1)">
     <defs>
      <path id="Helvetica-2e" d="M 547 681 
L 1200 681 
L 1200 0 
L 547 0 
L 547 681 
z
" transform="scale(0.015625)"/>
      <path id="Helvetica-70" d="M 1825 378 
Q 2219 378 2480 708 
Q 2741 1038 2741 1694 
Q 2741 2094 2625 2381 
Q 2406 2934 1825 2934 
Q 1241 2934 1025 2350 
Q 909 2038 909 1556 
Q 909 1169 1025 897 
Q 1244 378 1825 378 
z
M 369 3331 
L 916 3331 
L 916 2888 
Q 1084 3116 1284 3241 
Q 1569 3428 1953 3428 
Q 2522 3428 2919 2992 
Q 3316 2556 3316 1747 
Q 3316 653 2744 184 
Q 2381 -113 1900 -113 
Q 1522 -113 1266 53 
Q 1116 147 931 375 
L 931 -1334 
L 369 -1334 
L 369 3331 
z
" transform="scale(0.015625)"/>
      <path id="DejaVuSans-Oblique-3bb" d="M 2350 4316 
L 3125 0 
L 2516 0 
L 2038 2588 
L 328 0 
L -281 0 
L 1903 3356 
L 1794 3975 
Q 1725 4369 1391 4369 
L 1091 4369 
L 1184 4863 
L 1550 4856 
Q 2253 4847 2350 4316 
z
" transform="scale(0.015625)"/>
      <path id="DejaVuSans-Oblique-69" d="M 1172 4863 
L 1747 4863 
L 1606 4134 
L 1031 4134 
L 1172 4863 
z
M 909 3500 
L 1484 3500 
L 800 0 
L 225 0 
L 909 3500 
z
" transform="scale(0.015625)"/>
      <path id="Helvetica-68" d="M 413 4606 
L 975 4606 
L 975 2894 
Q 1175 3147 1334 3250 
Q 1606 3428 2013 3428 
Q 2741 3428 3000 2919 
Q 3141 2641 3141 2147 
L 3141 0 
L 2563 0 
L 2563 2109 
Q 2563 2478 2469 2650 
Q 2316 2925 1894 2925 
Q 1544 2925 1259 2684 
Q 975 2444 975 1775 
L 975 0 
L 413 0 
L 413 4606 
z
" transform="scale(0.015625)"/>
      <path id="Helvetica-6f" d="M 1741 363 
Q 2300 363 2508 786 
Q 2716 1209 2716 1728 
Q 2716 2197 2566 2491 
Q 2328 2953 1747 2953 
Q 1231 2953 997 2559 
Q 763 2166 763 1609 
Q 763 1075 997 719 
Q 1231 363 1741 363 
z
M 1763 3444 
Q 2409 3444 2856 3012 
Q 3303 2581 3303 1744 
Q 3303 934 2909 406 
Q 2516 -122 1688 -122 
Q 997 -122 590 345 
Q 184 813 184 1600 
Q 184 2444 612 2944 
Q 1041 3444 1763 3444 
z
M 1744 3428 
L 1744 3428 
z
" transform="scale(0.015625)"/>
     </defs>
     <use xlink:href="#Helvetica-73" transform="translate(0 0.015625)"/>
     <use xlink:href="#Helvetica-2e" transform="translate(50 0.015625)"/>
     <use xlink:href="#Helvetica-74" transform="translate(77.783203 0.015625)"/>
     <use xlink:href="#Helvetica-2e" transform="translate(105.566406 0.015625)"/>
     <use xlink:href="#Helvetica-20" transform="translate(133.349609 0.015625)"/>
     <use xlink:href="#Helvetica-70" transform="translate(161.132812 0.015625)"/>
     <use xlink:href="#Helvetica-65" transform="translate(216.748047 0.015625)"/>
     <use xlink:href="#Helvetica-72" transform="translate(272.363281 0.015625)"/>
     <use xlink:href="#Helvetica-2d" transform="translate(305.664062 0.015625)"/>
     <use xlink:href="#Helvetica-74" transform="translate(338.964844 0.015625)"/>
     <use xlink:href="#Helvetica-61" transform="translate(366.748047 0.015625)"/>
     <use xlink:href="#Helvetica-73" transform="translate(422.363281 0.015625)"/>
     <use xlink:href="#Helvetica-6b" transform="translate(472.363281 0.015625)"/>
     <use xlink:href="#Helvetica-20" transform="translate(522.363281 0.015625)"/>
     <use xlink:href="#DejaVuSans-Oblique-3bb" transform="translate(550.146484 0.015625)"/>
     <use xlink:href="#DejaVuSans-Oblique-69" transform="translate(609.326172 -16.390625) scale(0.7)"/>
     <use xlink:href="#Helvetica-20" transform="translate(631.508789 0.015625)"/>
     <use xlink:href="#Helvetica-68" transform="translate(659.291992 0.015625)"/>
     <use xlink:href="#Helvetica-6f" transform="translate(714.907227 0.015625)"/>
     <use xlink:href="#Helvetica-6c" transform="translate(770.522461 0.015625)"/>
     <use xlink:href="#Helvetica-64" transform="translate(792.739258 0.015625)"/>
    </g>
    <!-- past tasks (squared hinge) -->
    <g style="fill: #212529" transform="translate(63.789594 123.453531) scale(0.1 -0.1)">
     <defs>
      <path id="Helvetica-28" d="M 1894 4666 
Q 1403 3713 1256 3263 
Q 1034 2578 1034 1681 
Q 1034 775 1288 25 
Q 1444 -438 1903 -1306 
L 1525 -1306 
Q 1069 -594 959 -397 
Q 850 -200 722 138 
Q 547 600 478 1125 
Q 444 1397 444 1644 
Q 444 2569 734 3291 
Q 919 3750 1503 4666 
L 1894 4666 
z
" transform="scale(0.015625)"/>
      <path id="Helvetica-71" d="M 775 1628 
Q 775 1194 897 900 
Q 1113 378 1669 378 
Q 2256 378 2478 928 
Q 2600 1231 2600 1703 
Q 2600 2138 2466 2428 
Q 2238 2925 1663 2925 
Q 1297 2925 1036 2608 
Q 775 2291 775 1628 
z
M 1606 3422 
Q 2022 3422 2306 3213 
Q 2463 3100 2606 2881 
L 2606 3347 
L 3141 3347 
L 3141 -1334 
L 2575 -1334 
L 2575 384 
Q 2434 159 2186 26 
Q 1938 -106 1566 -106 
Q 1031 -106 609 312 
Q 188 731 188 1588 
Q 188 2391 583 2906 
Q 978 3422 1606 3422 
z
" transform="scale(0.015625)"/>
      <path id="Helvetica-69" d="M 413 3331 
L 984 3331 
L 984 0 
L 413 0 
L 413 3331 
z
M 413 4591 
L 984 4591 
L 984 3953 
L 413 3953 
L 413 4591 
z
" transform="scale(0.015625)"/>
      <path id="Helvetica-67" d="M 1594 3406 
Q 1988 3406 2281 3213 
Q 2441 3103 2606 2894 
L 2606 3316 
L 3125 3316 
L 3125 272 
Q 3125 -366 2938 -734 
Q 2588 -1416 1616 -1416 
Q 1075 -1416 706 -1173 
Q 338 -931 294 -416 
L 866 -416 
Q 906 -641 1028 -763 
Q 1219 -950 1628 -950 
Q 2275 -950 2475 -494 
Q 2594 -225 2584 466 
Q 2416 209 2178 84 
Q 1941 -41 1550 -41 
Q 1006 -41 598 345 
Q 191 731 191 1622 
Q 191 2463 602 2934 
Q 1013 3406 1594 3406 
z
M 2606 1688 
Q 2606 2309 2350 2609 
Q 2094 2909 1697 2909 
Q 1103 2909 884 2353 
Q 769 2056 769 1575 
Q 769 1009 998 714 
Q 1228 419 1616 419 
Q 2222 419 2469 966 
Q 2606 1275 2606 1688 
z
M 1659 3428 
L 1659 3428 
z
" transform="scale(0.015625)"/>
      <path id="Helvetica-29" d="M 222 -1306 
Q 719 -338 863 106 
Q 1081 778 1081 1681 
Q 1081 2584 828 3334 
Q 672 3797 213 4666 
L 591 4666 
Q 1072 3897 1173 3717 
Q 1275 3538 1394 3222 
Q 1544 2831 1608 2450 
Q 1672 2069 1672 1716 
Q 1672 791 1378 66 
Q 1194 -400 613 -1306 
L 222 -1306 
z
" transform="scale(0.015625)"/>
     </defs>
     <use xlink:href="#Helvetica-70"/>
     <use xlink:href="#Helvetica-61" transform="translate(55.615234 0)"/>
     <use xlink:href="#Helvetica-73" transform="translate(111.230469 0)"/>
     <use xlink:href="#Helvetica-74" transform="translate(161.230469 0)"/>
     <use xlink:href="#Helvetica-20" transform="translate(189.013672 0)"/>
     <use xlink:href="#Helvetica-74" transform="translate(216.796875 0)"/>
     <use xlink:href="#Helvetica-61" transform="translate(244.580078 0)"/>
     <use xlink:href="#Helvetica-73" transform="translate(300.195312 0)"/>
     <use xlink:href="#Helvetica-6b" transform="translate(350.195312 0)"/>
     <use xlink:href="#Helvetica-73" transform="translate(400.195312 0)"/>
     <use xlink:href="#Helvetica-20" transform="translate(450.195312 0)"/>
     <use xlink:href="#Helvetica-28" transform="translate(477.978516 0)"/>
     <use xlink:href="#Helvetica-73" transform="translate(511.279297 0)"/>
     <use xlink:href="#Helvetica-71" transform="translate(561.279297 0)"/>
     <use xlink:href="#Helvetica-75" transform="translate(616.894531 0)"/>
     <use xlink:href="#Helvetica-61" transform="translate(672.509766 0)"/>
     <use xlink:href="#Helvetica-72" transform="translate(728.125 0)"/>
     <use xlink:href="#Helvetica-65" transform="translate(761.425781 0)"/>
     <use xlink:href="#Helvetica-64" transform="translate(817.041016 0)"/>
     <use xlink:href="#Helvetica-20" transform="translate(872.65625 0)"/>
     <use xlink:href="#Helvetica-68" transform="translate(900.439453 0)"/>
     <use xlink:href="#Helvetica-69" transform="translate(956.054688 0)"/>
     <use xlink:href="#Helvetica-6e" transform="translate(978.271484 0)"/>
     <use xlink:href="#Helvetica-67" transform="translate(1033.886719 0)"/>
     <use xlink:href="#Helvetica-65" transform="translate(1089.501953 0)"/>
     <use xlink:href="#Helvetica-29" transform="translate(1145.117188 0)"/>
    </g>
   </g>
   <g id="text_2">
    <!-- GLOBAL  $\pi_\phi$ -->
    <g style="fill: #212529" transform="translate(365.644 90.673687) scale(0.1 -0.1)">
     <defs>
      <path id="Helvetica-47" d="M 2472 4709 
Q 3119 4709 3591 4459 
Q 4275 4100 4428 3200 
L 3813 3200 
Q 3700 3703 3347 3933 
Q 2994 4163 2456 4163 
Q 1819 4163 1383 3684 
Q 947 3206 947 2259 
Q 947 1441 1306 927 
Q 1666 413 2478 413 
Q 3100 413 3508 773 
Q 3916 1134 3925 1941 
L 2488 1941 
L 2488 2456 
L 4503 2456 
L 4503 0 
L 4103 0 
L 3953 591 
Q 3638 244 3394 109 
Q 2984 -122 2353 -122 
Q 1538 -122 950 406 
Q 309 1069 309 2225 
Q 309 3378 934 4059 
Q 1528 4709 2472 4709 
z
M 2369 4716 
L 2369 4716 
z
" transform="scale(0.015625)"/>
      <path id="Helvetica-42" d="M 2213 2650 
Q 2606 2650 2825 2759 
Q 3169 2931 3169 3378 
Q 3169 3828 2803 3984 
Q 2597 4072 2191 4072 
L 1081 4072 
L 1081 2650 
L 2213 2650 
z
M 2422 531 
Q 2994 531 3238 863 
Q 3391 1072 3391 1369 
Q 3391 1869 2944 2050 
Q 2706 2147 2316 2147 
L 1081 2147 
L 1081 531 
L 2422 531 
z
M 472 4591 
L 2444 4591 
Q 3250 4591 3591 4109 
Q 3791 3825 3791 3453 
Q 3791 3019 3544 2741 
Q 3416 2594 3175 2472 
Q 3528 2338 3703 2169 
Q 4013 1869 4013 1341 
Q 4013 897 3734 538 
Q 3319 0 2413 0 
L 472 0 
L 472 4591 
z
" transform="scale(0.015625)"/>
      <path id="DejaVuSans-Oblique-3d5" d="M 2991 4863 
L 2738 3572 
Q 3363 3572 3684 3094 
Q 4016 2606 3850 1747 
Q 3681 888 3159 400 
Q 2653 -78 2028 -78 
L 1784 -1331 
L 1213 -1331 
L 1456 -78 
Q 834 -78 509 400 
Q 178 888 347 1747 
Q 513 2606 1034 3094 
Q 1544 3572 2166 3572 
L 2419 4863 
L 2991 4863 
z
M 2128 434 
Q 2481 434 2784 756 
Q 3116 1116 3244 1747 
Q 3369 2372 3169 2738 
Q 2991 3059 2638 3059 
L 2128 434 
z
M 1556 434 
L 2066 3059 
Q 1716 3059 1413 2738 
Q 1072 2372 953 1747 
Q 834 1116 1028 756 
Q 1203 434 1556 434 
z
" transform="scale(0.015625)"/>
     </defs>
     <use xlink:href="#Helvetica-47" transform="translate(0 0.3125)"/>
     <use xlink:href="#Helvetica-4c" transform="translate(77.783203 0.3125)"/>
     <use xlink:href="#Helvetica-4f" transform="translate(133.398438 0.3125)"/>
     <use xlink:href="#Helvetica-42" transform="translate(211.181641 0.3125)"/>
     <use xlink:href="#Helvetica-41" transform="translate(277.880859 0.3125)"/>
     <use xlink:href="#Helvetica-4c" transform="translate(344.580078 0.3125)"/>
     <use xlink:href="#Helvetica-20" transform="translate(400.195312 0.3125)"/>
     <use xlink:href="#Helvetica-20" transform="translate(427.978516 0.3125)"/>
     <use xlink:href="#DejaVuSans-Oblique-3c0" transform="translate(455.761719 0.3125)"/>
     <use xlink:href="#DejaVuSans-Oblique-3d5" transform="translate(515.966797 -16.09375) scale(0.7)"/>
    </g>
    <!-- max past-task lead -->
    <g style="fill: #212529" transform="translate(351.933844 102.409937) scale(0.1 -0.1)">
     <use xlink:href="#Helvetica-6d"/>
     <use xlink:href="#Helvetica-61" transform="translate(83.300781 0)"/>
     <use xlink:href="#Helvetica-78" transform="translate(138.916016 0)"/>
     <use xlink:href="#Helvetica-20" transform="translate(188.916016 0)"/>
     <use xlink:href="#Helvetica-70" transform="translate(216.699219 0)"/>
     <use xlink:href="#Helvetica-61" transform="translate(272.314453 0)"/>
     <use xlink:href="#Helvetica-73" transform="translate(327.929688 0)"/>
     <use xlink:href="#Helvetica-74" transform="translate(377.929688 0)"/>
     <use xlink:href="#Helvetica-2d" transform="translate(405.712891 0)"/>
     <use xlink:href="#Helvetica-74" transform="translate(439.013672 0)"/>
     <use xlink:href="#Helvetica-61" transform="translate(466.796875 0)"/>
     <use xlink:href="#Helvetica-73" transform="translate(522.412109 0)"/>
     <use xlink:href="#Helvetica-6b" transform="translate(572.412109 0)"/>
     <use xlink:href="#Helvetica-20" transform="translate(622.412109 0)"/>
     <use xlink:href="#Helvetica-6c" transform="translate(650.195312 0)"/>
     <use xlink:href="#Helvetica-65" transform="translate(672.412109 0)"/>
     <use xlink:href="#Helvetica-61" transform="translate(728.027344 0)"/>
     <use xlink:href="#Helvetica-64" transform="translate(783.642578 0)"/>
    </g>
    <!-- s.t. $\mu$ holds the -->
    <g style="fill: #212529" transform="translate(360.944 113.134312) scale(0.1 -0.1)">
     <defs>
      <path id="DejaVuSans-Oblique-3bc" d="M -84 -1331 
L 856 3500 
L 1434 3500 
L 1009 1322 
Q 997 1256 987 1175 
Q 978 1094 978 1013 
Q 978 722 1161 565 
Q 1344 409 1684 409 
Q 2147 409 2431 671 
Q 2716 934 2816 1459 
L 3213 3500 
L 3788 3500 
L 3266 809 
Q 3253 750 3248 706 
Q 3244 663 3244 628 
Q 3244 531 3283 486 
Q 3322 441 3406 441 
Q 3438 441 3492 456 
Q 3547 472 3647 513 
L 3559 50 
Q 3422 -19 3297 -55 
Q 3172 -91 3053 -91 
Q 2847 -91 2730 40 
Q 2613 172 2613 403 
Q 2438 153 2195 31 
Q 1953 -91 1625 -91 
Q 1334 -91 1117 43 
Q 900 178 831 397 
L 494 -1331 
L -84 -1331 
z
" transform="scale(0.015625)"/>
     </defs>
     <use xlink:href="#Helvetica-73" transform="translate(0 0.03125)"/>
     <use xlink:href="#Helvetica-2e" transform="translate(50 0.03125)"/>
     <use xlink:href="#Helvetica-74" transform="translate(77.783203 0.03125)"/>
     <use xlink:href="#Helvetica-2e" transform="translate(105.566406 0.03125)"/>
     <use xlink:href="#Helvetica-20" transform="translate(133.349609 0.03125)"/>
     <use xlink:href="#DejaVuSans-Oblique-3bc" transform="translate(161.132812 0.03125)"/>
     <use xlink:href="#Helvetica-20" transform="translate(224.755859 0.03125)"/>
     <use xlink:href="#Helvetica-68" transform="translate(252.539062 0.03125)"/>
     <use xlink:href="#Helvetica-6f" transform="translate(308.154297 0.03125)"/>
     <use xlink:href="#Helvetica-6c" transform="translate(363.769531 0.03125)"/>
     <use xlink:href="#Helvetica-64" transform="translate(385.986328 0.03125)"/>
     <use xlink:href="#Helvetica-73" transform="translate(441.601562 0.03125)"/>
     <use xlink:href="#Helvetica-20" transform="translate(491.601562 0.03125)"/>
     <use xlink:href="#Helvetica-74" transform="translate(519.384766 0.03125)"/>
     <use xlink:href="#Helvetica-68" transform="translate(547.167969 0.03125)"/>
     <use xlink:href="#Helvetica-65" transform="translate(602.783203 0.03125)"/>
    </g>
    <!-- current task -->
    <g style="fill: #212529" transform="translate(367.77525 123.842437) scale(0.1 -0.1)">
     <use xlink:href="#Helvetica-63"/>
     <use xlink:href="#Helvetica-75" transform="translate(50 0)"/>
     <use xlink:href="#Helvetica-72" transform="translate(105.615234 0)"/>
     <use xlink:href="#Helvetica-72" transform="translate(138.916016 0)"/>
     <use xlink:href="#Helvetica-65" transform="translate(172.216797 0)"/>
     <use xlink:href="#Helvetica-6e" transform="translate(227.832031 0)"/>
     <use xlink:href="#Helvetica-74" transform="translate(283.447266 0)"/>
     <use xlink:href="#Helvetica-20" transform="translate(311.230469 0)"/>
     <use xlink:href="#Helvetica-74" transform="translate(339.013672 0)"/>
     <use xlink:href="#Helvetica-61" transform="translate(366.796875 0)"/>
     <use xlink:href="#Helvetica-73" transform="translate(422.412109 0)"/>
     <use xlink:href="#Helvetica-6b" transform="translate(472.412109 0)"/>
    </g>
   </g>
   <g id="text_3">
    <!-- freeze local, -->
    <g style="fill: #6c757d" transform="translate(235.387188 69.351719) scale(0.085 -0.085)">
     <defs>
      <path id="Helvetica-66" d="M 553 3856 
Q 566 4206 675 4369 
Q 872 4656 1434 4656 
Q 1488 4656 1544 4653 
Q 1600 4650 1672 4644 
L 1672 4131 
Q 1584 4138 1545 4139 
Q 1506 4141 1472 4141 
Q 1216 4141 1166 4008 
Q 1116 3875 1116 3331 
L 1672 3331 
L 1672 2888 
L 1109 2888 
L 1109 0 
L 553 0 
L 553 2888 
L 88 2888 
L 88 3331 
L 553 3331 
L 553 3856 
z
" transform="scale(0.015625)"/>
      <path id="Helvetica-7a" d="M 163 444 
L 2147 2844 
L 309 2844 
L 309 3347 
L 2903 3347 
L 2903 2888 
L 931 503 
L 2963 503 
L 2963 0 
L 163 0 
L 163 444 
z
M 1609 3428 
L 1609 3428 
z
" transform="scale(0.015625)"/>
      <path id="Helvetica-2c" d="M 531 -653 
Q 747 -616 834 -350 
Q 881 -209 881 -78 
Q 881 -56 879 -39 
Q 878 -22 872 0 
L 531 0 
L 531 681 
L 1200 681 
L 1200 50 
Q 1200 -322 1050 -603 
Q 900 -884 531 -950 
L 531 -653 
z
" transform="scale(0.015625)"/>
     </defs>
     <use xlink:href="#Helvetica-66"/>
     <use xlink:href="#Helvetica-72" transform="translate(27.783203 0)"/>
     <use xlink:href="#Helvetica-65" transform="translate(61.083984 0)"/>
     <use xlink:href="#Helvetica-65" transform="translate(116.699219 0)"/>
     <use xlink:href="#Helvetica-7a" transform="translate(172.314453 0)"/>
     <use xlink:href="#Helvetica-65" transform="translate(222.314453 0)"/>
     <use xlink:href="#Helvetica-20" transform="translate(277.929688 0)"/>
     <use xlink:href="#Helvetica-6c" transform="translate(305.712891 0)"/>
     <use xlink:href="#Helvetica-6f" transform="translate(327.929688 0)"/>
     <use xlink:href="#Helvetica-63" transform="translate(383.544922 0)"/>
     <use xlink:href="#Helvetica-61" transform="translate(433.544922 0)"/>
     <use xlink:href="#Helvetica-6c" transform="translate(489.160156 0)"/>
     <use xlink:href="#Helvetica-2c" transform="translate(511.376953 0)"/>
    </g>
    <!-- train global -->
    <g style="fill: #6c757d" transform="translate(237.510195 78.46425) scale(0.085 -0.085)">
     <defs>
      <path id="Helvetica-62" d="M 369 4606 
L 916 4606 
L 916 2941 
Q 1100 3181 1356 3307 
Q 1613 3434 1913 3434 
Q 2538 3434 2927 3004 
Q 3316 2575 3316 1738 
Q 3316 944 2931 419 
Q 2547 -106 1866 -106 
Q 1484 -106 1222 78 
Q 1066 188 888 428 
L 888 0 
L 369 0 
L 369 4606 
z
M 1831 391 
Q 2288 391 2514 753 
Q 2741 1116 2741 1709 
Q 2741 2238 2514 2584 
Q 2288 2931 1847 2931 
Q 1463 2931 1173 2647 
Q 884 2363 884 1709 
Q 884 1238 1003 944 
Q 1225 391 1831 391 
z
" transform="scale(0.015625)"/>
     </defs>
     <use xlink:href="#Helvetica-74"/>
     <use xlink:href="#Helvetica-72" transform="translate(27.783203 0)"/>
     <use xlink:href="#Helvetica-61" transform="translate(61.083984 0)"/>
     <use xlink:href="#Helvetica-69" transform="translate(116.699219 0)"/>
     <use xlink:href="#Helvetica-6e" transform="translate(138.916016 0)"/>
     <use xlink:href="#Helvetica-20" transform="translate(194.53125 0)"/>
     <use xlink:href="#Helvetica-67" transform="translate(222.314453 0)"/>
     <use xlink:href="#Helvetica-6c" transform="translate(277.929688 0)"/>
     <use xlink:href="#Helvetica-6f" transform="translate(300.146484 0)"/>
     <use xlink:href="#Helvetica-62" transform="translate(355.761719 0)"/>
     <use xlink:href="#Helvetica-61" transform="translate(411.376953 0)"/>
     <use xlink:href="#Helvetica-6c" transform="translate(466.992188 0)"/>
    </g>
   </g>
   <g id="text_4">
    <!-- freeze global, -->
    <g style="fill: #6c757d" transform="translate(232.785391 141.251625) scale(0.085 -0.085)">
     <use xlink:href="#Helvetica-66"/>
     <use xlink:href="#Helvetica-72" transform="translate(27.783203 0)"/>
     <use xlink:href="#Helvetica-65" transform="translate(61.083984 0)"/>
     <use xlink:href="#Helvetica-65" transform="translate(116.699219 0)"/>
     <use xlink:href="#Helvetica-7a" transform="translate(172.314453 0)"/>
     <use xlink:href="#Helvetica-65" transform="translate(222.314453 0)"/>
     <use xlink:href="#Helvetica-20" transform="translate(277.929688 0)"/>
     <use xlink:href="#Helvetica-67" transform="translate(305.712891 0)"/>
     <use xlink:href="#Helvetica-6c" transform="translate(361.328125 0)"/>
     <use xlink:href="#Helvetica-6f" transform="translate(383.544922 0)"/>
     <use xlink:href="#Helvetica-62" transform="translate(439.160156 0)"/>
     <use xlink:href="#Helvetica-61" transform="translate(494.775391 0)"/>
     <use xlink:href="#Helvetica-6c" transform="translate(550.390625 0)"/>
     <use xlink:href="#Helvetica-2c" transform="translate(572.607422 0)"/>
    </g>
    <!-- train local ($\theta^{(0)}=\phi$) -->
    <g style="fill: #6c757d" transform="translate(220.815 152.51625) scale(0.085 -0.085)">
     <defs>
      <path id="DejaVuSans-28" d="M 1984 4856 
Q 1566 4138 1362 3434 
Q 1159 2731 1159 2009 
Q 1159 1288 1364 580 
Q 1569 -128 1984 -844 
L 1484 -844 
Q 1016 -109 783 600 
Q 550 1309 550 2009 
Q 550 2706 781 3412 
Q 1013 4119 1484 4856 
L 1984 4856 
z
" transform="scale(0.015625)"/>
      <path id="DejaVuSans-30" d="M 2034 4250 
Q 1547 4250 1301 3770 
Q 1056 3291 1056 2328 
Q 1056 1369 1301 889 
Q 1547 409 2034 409 
Q 2525 409 2770 889 
Q 3016 1369 3016 2328 
Q 3016 3291 2770 3770 
Q 2525 4250 2034 4250 
z
M 2034 4750 
Q 2819 4750 3233 4129 
Q 3647 3509 3647 2328 
Q 3647 1150 3233 529 
Q 2819 -91 2034 -91 
Q 1250 -91 836 529 
Q 422 1150 422 2328 
Q 422 3509 836 4129 
Q 1250 4750 2034 4750 
z
" transform="scale(0.015625)"/>
      <path id="DejaVuSans-29" d="M 513 4856 
L 1013 4856 
Q 1481 4119 1714 3412 
Q 1947 2706 1947 2009 
Q 1947 1309 1714 600 
Q 1481 -109 1013 -844 
L 513 -844 
Q 928 -128 1133 580 
Q 1338 1288 1338 2009 
Q 1338 2731 1133 3434 
Q 928 4138 513 4856 
z
" transform="scale(0.015625)"/>
      <path id="DejaVuSans-3d" d="M 678 2906 
L 4684 2906 
L 4684 2381 
L 678 2381 
L 678 2906 
z
M 678 1631 
L 4684 1631 
L 4684 1100 
L 678 1100 
L 678 1631 
z
" transform="scale(0.015625)"/>
     </defs>
     <use xlink:href="#Helvetica-74" transform="translate(0 0.60625)"/>
     <use xlink:href="#Helvetica-72" transform="translate(27.783203 0.60625)"/>
     <use xlink:href="#Helvetica-61" transform="translate(61.083984 0.60625)"/>
     <use xlink:href="#Helvetica-69" transform="translate(116.699219 0.60625)"/>
     <use xlink:href="#Helvetica-6e" transform="translate(138.916016 0.60625)"/>
     <use xlink:href="#Helvetica-20" transform="translate(194.53125 0.60625)"/>
     <use xlink:href="#Helvetica-6c" transform="translate(222.314453 0.60625)"/>
     <use xlink:href="#Helvetica-6f" transform="translate(244.53125 0.60625)"/>
     <use xlink:href="#Helvetica-63" transform="translate(300.146484 0.60625)"/>
     <use xlink:href="#Helvetica-61" transform="translate(350.146484 0.60625)"/>
     <use xlink:href="#Helvetica-6c" transform="translate(405.761719 0.60625)"/>
     <use xlink:href="#Helvetica-20" transform="translate(427.978516 0.60625)"/>
     <use xlink:href="#Helvetica-28" transform="translate(455.761719 0.60625)"/>
     <use xlink:href="#DejaVuSans-Oblique-3b8" transform="translate(489.0625 0.60625)"/>
     <use xlink:href="#DejaVuSans-28" transform="translate(557.801224 38.8875) scale(0.7)"/>
     <use xlink:href="#DejaVuSans-30" transform="translate(585.110794 38.8875) scale(0.7)"/>
     <use xlink:href="#DejaVuSans-29" transform="translate(629.646927 38.8875) scale(0.7)"/>
     <use xlink:href="#DejaVuSans-3d" transform="translate(679.173294 0.60625)"/>
     <use xlink:href="#DejaVuSans-Oblique-3d5" transform="translate(782.444779 0.60625)"/>
     <use xlink:href="#Helvetica-29" transform="translate(848.411576 0.60625)"/>
    </g>
   </g>
   <g id="text_5">
    <!-- one-sided squared constraint -->
    <g style="fill: #212529" transform="translate(193.820312 196.656937) scale(0.1 -0.1)">
     <use xlink:href="#Helvetica-6f"/>
     <use xlink:href="#Helvetica-6e" transform="translate(55.615234 0)"/>
     <use xlink:href="#Helvetica-65" transform="translate(111.230469 0)"/>
     <use xlink:href="#Helvetica-2d" transform="translate(166.845703 0)"/>
     <use xlink:href="#Helvetica-73" transform="translate(200.146484 0)"/>
     <use xlink:href="#Helvetica-69" transform="translate(250.146484 0)"/>
     <use xlink:href="#Helvetica-64" transform="translate(272.363281 0)"/>
     <use xlink:href="#Helvetica-65" transform="translate(327.978516 0)"/>
     <use xlink:href="#Helvetica-64" transform="translate(383.59375 0)"/>
     <use xlink:href="#Helvetica-20" transform="translate(439.208984 0)"/>
     <use xlink:href="#Helvetica-73" transform="translate(466.992188 0)"/>
     <use xlink:href="#Helvetica-71" transform="translate(516.992188 0)"/>
     <use xlink:href="#Helvetica-75" transform="translate(572.607422 0)"/>
     <use xlink:href="#Helvetica-61" transform="translate(628.222656 0)"/>
     <use xlink:href="#Helvetica-72" transform="translate(683.837891 0)"/>
     <use xlink:href="#Helvetica-65" transform="translate(717.138672 0)"/>
     <use xlink:href="#Helvetica-64" transform="translate(772.753906 0)"/>
     <use xlink:href="#Helvetica-20" transform="translate(828.369141 0)"/>
     <use xlink:href="#Helvetica-63" transform="translate(856.152344 0)"/>
     <use xlink:href="#Helvetica-6f" transform="translate(906.152344 0)"/>
     <use xlink:href="#Helvetica-6e" transform="translate(961.767578 0)"/>
     <use xlink:href="#Helvetica-73" transform="translate(1017.382812 0)"/>
     <use xlink:href="#Helvetica-74" transform="translate(1067.382812 0)"/>
     <use xlink:href="#Helvetica-72" transform="translate(1095.166016 0)"/>
     <use xlink:href="#Helvetica-61" transform="translate(1128.466797 0)"/>
     <use xlink:href="#Helvetica-69" transform="translate(1184.082031 0)"/>
     <use xlink:href="#Helvetica-6e" transform="translate(1206.298828 0)"/>
     <use xlink:href="#Helvetica-74" transform="translate(1261.914062 0)"/>
    </g>
    <!-- $F=\max(0, V_{ref}-V)^2 \leq \epsilon$ -->
    <g style="fill: #212529" transform="translate(199.55 209.320063) scale(0.1 -0.1)">
     <defs>
      <path id="DejaVuSans-Oblique-46" d="M 1081 4666 
L 3756 4666 
L 3653 4134 
L 1606 4134 
L 1338 2759 
L 3188 2759 
L 3084 2228 
L 1234 2228 
L 800 0 
L 172 0 
L 1081 4666 
z
" transform="scale(0.015625)"/>
      <path id="DejaVuSans-6d" d="M 3328 2828 
Q 3544 3216 3844 3400 
Q 4144 3584 4550 3584 
Q 5097 3584 5394 3201 
Q 5691 2819 5691 2113 
L 5691 0 
L 5113 0 
L 5113 2094 
Q 5113 2597 4934 2840 
Q 4756 3084 4391 3084 
Q 3944 3084 3684 2787 
Q 3425 2491 3425 1978 
L 3425 0 
L 2847 0 
L 2847 2094 
Q 2847 2600 2669 2842 
Q 2491 3084 2119 3084 
Q 1678 3084 1418 2786 
Q 1159 2488 1159 1978 
L 1159 0 
L 581 0 
L 581 3500 
L 1159 3500 
L 1159 2956 
Q 1356 3278 1631 3431 
Q 1906 3584 2284 3584 
Q 2666 3584 2933 3390 
Q 3200 3197 3328 2828 
z
" transform="scale(0.015625)"/>
      <path id="DejaVuSans-61" d="M 2194 1759 
Q 1497 1759 1228 1600 
Q 959 1441 959 1056 
Q 959 750 1161 570 
Q 1363 391 1709 391 
Q 2188 391 2477 730 
Q 2766 1069 2766 1631 
L 2766 1759 
L 2194 1759 
z
M 3341 1997 
L 3341 0 
L 2766 0 
L 2766 531 
Q 2569 213 2275 61 
Q 1981 -91 1556 -91 
Q 1019 -91 701 211 
Q 384 513 384 1019 
Q 384 1609 779 1909 
Q 1175 2209 1959 2209 
L 2766 2209 
L 2766 2266 
Q 2766 2663 2505 2880 
Q 2244 3097 1772 3097 
Q 1472 3097 1187 3025 
Q 903 2953 641 2809 
L 641 3341 
Q 956 3463 1253 3523 
Q 1550 3584 1831 3584 
Q 2591 3584 2966 3190 
Q 3341 2797 3341 1997 
z
" transform="scale(0.015625)"/>
      <path id="DejaVuSans-78" d="M 3513 3500 
L 2247 1797 
L 3578 0 
L 2900 0 
L 1881 1375 
L 863 0 
L 184 0 
L 1544 1831 
L 300 3500 
L 978 3500 
L 1906 2253 
L 2834 3500 
L 3513 3500 
z
" transform="scale(0.015625)"/>
      <path id="DejaVuSans-2c" d="M 750 794 
L 1409 794 
L 1409 256 
L 897 -744 
L 494 -744 
L 750 256 
L 750 794 
z
" transform="scale(0.015625)"/>
      <path id="DejaVuSans-Oblique-56" d="M 1319 0 
L 500 4666 
L 1119 4666 
L 1797 653 
L 4063 4666 
L 4750 4666 
L 2053 0 
L 1319 0 
z
" transform="scale(0.015625)"/>
      <path id="DejaVuSans-Oblique-72" d="M 2853 2969 
Q 2766 3016 2653 3041 
Q 2541 3066 2413 3066 
Q 1953 3066 1609 2717 
Q 1266 2369 1153 1784 
L 800 0 
L 225 0 
L 909 3500 
L 1484 3500 
L 1375 2956 
Q 1603 3259 1920 3421 
Q 2238 3584 2597 3584 
Q 2691 3584 2781 3573 
Q 2872 3563 2963 3538 
L 2853 2969 
z
" transform="scale(0.015625)"/>
      <path id="DejaVuSans-Oblique-65" d="M 3078 2063 
Q 3088 2113 3092 2166 
Q 3097 2219 3097 2272 
Q 3097 2653 2873 2875 
Q 2650 3097 2266 3097 
Q 1838 3097 1509 2826 
Q 1181 2556 1013 2059 
L 3078 2063 
z
M 3578 1613 
L 903 1613 
Q 884 1494 878 1425 
Q 872 1356 872 1306 
Q 872 872 1139 634 
Q 1406 397 1894 397 
Q 2269 397 2603 481 
Q 2938 566 3225 728 
L 3116 159 
Q 2806 34 2476 -28 
Q 2147 -91 1806 -91 
Q 1078 -91 686 257 
Q 294 606 294 1247 
Q 294 1794 489 2264 
Q 684 2734 1063 3103 
Q 1306 3334 1642 3459 
Q 1978 3584 2356 3584 
Q 2950 3584 3301 3228 
Q 3653 2872 3653 2272 
Q 3653 2128 3634 1964 
Q 3616 1800 3578 1613 
z
" transform="scale(0.015625)"/>
      <path id="DejaVuSans-Oblique-66" d="M 3059 4863 
L 2969 4384 
L 2419 4384 
Q 2106 4384 1964 4261 
Q 1822 4138 1753 3809 
L 1691 3500 
L 2638 3500 
L 2553 3053 
L 1606 3053 
L 1013 0 
L 434 0 
L 1031 3053 
L 481 3053 
L 563 3500 
L 1113 3500 
L 1159 3744 
Q 1278 4363 1576 4613 
Q 1875 4863 2516 4863 
L 3059 4863 
z
" transform="scale(0.015625)"/>
      <path id="DejaVuSans-2212" d="M 678 2272 
L 4684 2272 
L 4684 1741 
L 678 1741 
L 678 2272 
z
" transform="scale(0.015625)"/>
      <path id="DejaVuSans-32" d="M 1228 531 
L 3431 531 
L 3431 0 
L 469 0 
L 469 531 
Q 828 903 1448 1529 
Q 2069 2156 2228 2338 
Q 2531 2678 2651 2914 
Q 2772 3150 2772 3378 
Q 2772 3750 2511 3984 
Q 2250 4219 1831 4219 
Q 1534 4219 1204 4116 
Q 875 4013 500 3803 
L 500 4441 
Q 881 4594 1212 4672 
Q 1544 4750 1819 4750 
Q 2544 4750 2975 4387 
Q 3406 4025 3406 3419 
Q 3406 3131 3298 2873 
Q 3191 2616 2906 2266 
Q 2828 2175 2409 1742 
Q 1991 1309 1228 531 
z
" transform="scale(0.015625)"/>
      <path id="DejaVuSans-2264" d="M 4684 3175 
L 1684 2309 
L 4684 1453 
L 4684 897 
L 678 2047 
L 678 2578 
L 4684 3725 
L 4684 3175 
z
M 678 531 
L 4684 531 
L 4684 0 
L 678 0 
L 678 531 
z
" transform="scale(0.015625)"/>
      <path id="DejaVuSans-Oblique-3b5" d="M 1263 1888 
Q 925 1963 778 2166 
Q 669 2309 669 2503 
Q 669 3034 1175 3344 
Q 1575 3588 2188 3588 
Q 2425 3588 2684 3550 
Q 2944 3513 3234 3438 
L 3134 2916 
Q 2847 3006 2606 3047 
Q 2359 3088 2138 3088 
Q 1766 3088 1522 2944 
Q 1228 2772 1228 2522 
Q 1228 2356 1381 2241 
Q 1563 2103 1925 2103 
L 2409 2103 
L 2319 1628 
L 1856 1628 
Q 1425 1628 1172 1469 
Q 828 1253 828 916 
Q 828 703 1013 563 
Q 1244 388 1716 388 
Q 2006 388 2284 444 
Q 2563 503 2806 619 
L 2700 84 
Q 2403 -3 2131 -47 
Q 1859 -91 1609 -91 
Q 866 -91 516 194 
Q 250 413 250 781 
Q 250 1278 600 1584 
Q 859 1813 1263 1888 
z
" transform="scale(0.015625)"/>
     </defs>
     <use xlink:href="#DejaVuSans-Oblique-46" transform="translate(0 0.765625)"/>
     <use xlink:href="#DejaVuSans-3d" transform="translate(77.001953 0.765625)"/>
     <use xlink:href="#DejaVuSans-6d" transform="translate(180.273438 0.765625)"/>
     <use xlink:href="#DejaVuSans-61" transform="translate(277.685547 0.765625)"/>
     <use xlink:href="#DejaVuSans-78" transform="translate(338.964844 0.765625)"/>
     <use xlink:href="#DejaVuSans-28" transform="translate(398.144531 0.765625)"/>
     <use xlink:href="#DejaVuSans-30" transform="translate(437.158203 0.765625)"/>
     <use xlink:href="#DejaVuSans-2c" transform="translate(500.78125 0.765625)"/>
     <use xlink:href="#DejaVuSans-Oblique-56" transform="translate(552.050781 0.765625)"/>
     <use xlink:href="#DejaVuSans-Oblique-72" transform="translate(620.458984 -15.640625) scale(0.7)"/>
     <use xlink:href="#DejaVuSans-Oblique-65" transform="translate(649.238281 -15.640625) scale(0.7)"/>
     <use xlink:href="#DejaVuSans-Oblique-66" transform="translate(692.304688 -15.640625) scale(0.7)"/>
     <use xlink:href="#DejaVuSans-2212" transform="translate(739.165039 0.765625)"/>
     <use xlink:href="#DejaVuSans-Oblique-56" transform="translate(842.436523 0.765625)"/>
     <use xlink:href="#DejaVuSans-29" transform="translate(910.844727 0.765625)"/>
     <use xlink:href="#DejaVuSans-32" transform="translate(950.81543 39.046875) scale(0.7)"/>
     <use xlink:href="#DejaVuSans-2264" transform="translate(1017.568359 0.765625)"/>
     <use xlink:href="#DejaVuSans-Oblique-3b5" transform="translate(1120.839844 0.765625)"/>
    </g>
   </g>
   <g id="text_6">
    <!-- deploy GLOBAL $\pi_\phi$ -->
    <g style="fill: #212529" transform="translate(215.3 275.599938) scale(0.1 -0.1)">
     <defs>
      <path id="Helvetica-79" d="M 2503 3347 
L 3125 3347 
Q 3006 3025 2597 1878 
Q 2291 1016 2084 472 
Q 1597 -809 1397 -1090 
Q 1197 -1372 709 -1372 
Q 591 -1372 527 -1362 
Q 463 -1353 369 -1328 
L 369 -816 
Q 516 -856 581 -865 
Q 647 -875 697 -875 
Q 853 -875 926 -823 
Q 1000 -772 1050 -697 
Q 1066 -672 1162 -440 
Q 1259 -209 1303 -97 
L 66 3347 
L 703 3347 
L 1600 622 
L 2503 3347 
z
M 1597 3428 
L 1597 3428 
z
" transform="scale(0.015625)"/>
     </defs>
     <use xlink:href="#Helvetica-64" transform="translate(0 0.3125)"/>
     <use xlink:href="#Helvetica-65" transform="translate(55.615234 0.3125)"/>
     <use xlink:href="#Helvetica-70" transform="translate(111.230469 0.3125)"/>
     <use xlink:href="#Helvetica-6c" transform="translate(166.845703 0.3125)"/>
     <use xlink:href="#Helvetica-6f" transform="translate(189.0625 0.3125)"/>
     <use xlink:href="#Helvetica-79" transform="translate(244.677734 0.3125)"/>
     <use xlink:href="#Helvetica-20" transform="translate(294.677734 0.3125)"/>
     <use xlink:href="#Helvetica-47" transform="translate(322.460938 0.3125)"/>
     <use xlink:href="#Helvetica-4c" transform="translate(400.244141 0.3125)"/>
     <use xlink:href="#Helvetica-4f" transform="translate(455.859375 0.3125)"/>
     <use xlink:href="#Helvetica-42" transform="translate(533.642578 0.3125)"/>
     <use xlink:href="#Helvetica-41" transform="translate(600.341797 0.3125)"/>
     <use xlink:href="#Helvetica-4c" transform="translate(667.041016 0.3125)"/>
     <use xlink:href="#Helvetica-20" transform="translate(722.65625 0.3125)"/>
     <use xlink:href="#DejaVuSans-Oblique-3c0" transform="translate(750.439453 0.3125)"/>
     <use xlink:href="#DejaVuSans-Oblique-3d5" transform="translate(810.644531 -16.09375) scale(0.7)"/>
    </g>
    <!-- (consolidates all tasks) -->
    <g style="fill: #212529" transform="translate(207.726562 287.396187) scale(0.1 -0.1)">
     <use xlink:href="#Helvetica-28"/>
     <use xlink:href="#Helvetica-63" transform="translate(33.300781 0)"/>
     <use xlink:href="#Helvetica-6f" transform="translate(83.300781 0)"/>
     <use xlink:href="#Helvetica-6e" transform="translate(138.916016 0)"/>
     <use xlink:href="#Helvetica-73" transform="translate(194.53125 0)"/>
     <use xlink:href="#Helvetica-6f" transform="translate(244.53125 0)"/>
     <use xlink:href="#Helvetica-6c" transform="translate(300.146484 0)"/>
     <use xlink:href="#Helvetica-69" transform="translate(322.363281 0)"/>
     <use xlink:href="#Helvetica-64" transform="translate(344.580078 0)"/>
     <use xlink:href="#Helvetica-61" transform="translate(400.195312 0)"/>
     <use xlink:href="#Helvetica-74" transform="translate(455.810547 0)"/>
     <use xlink:href="#Helvetica-65" transform="translate(483.59375 0)"/>
     <use xlink:href="#Helvetica-73" transform="translate(539.208984 0)"/>
     <use xlink:href="#Helvetica-20" transform="translate(589.208984 0)"/>
     <use xlink:href="#Helvetica-61" transform="translate(616.992188 0)"/>
     <use xlink:href="#Helvetica-6c" transform="translate(672.607422 0)"/>
     <use xlink:href="#Helvetica-6c" transform="translate(694.824219 0)"/>
     <use xlink:href="#Helvetica-20" transform="translate(717.041016 0)"/>
     <use xlink:href="#Helvetica-74" transform="translate(744.824219 0)"/>
     <use xlink:href="#Helvetica-61" transform="translate(772.607422 0)"/>
     <use xlink:href="#Helvetica-73" transform="translate(828.222656 0)"/>
     <use xlink:href="#Helvetica-6b" transform="translate(878.222656 0)"/>
     <use xlink:href="#Helvetica-73" transform="translate(928.222656 0)"/>
     <use xlink:href="#Helvetica-29" transform="translate(978.222656 0)"/>
    </g>
   </g>
   <g id="text_7">
    <!-- Method: alternating local/global primal-dual updates under a min-max value constraint -->
    <g style="fill: #212529" transform="translate(30.525 15.83625) scale(0.12 -0.12)">
     <defs>
      <path id="Helvetica-4d" d="M 472 4591 
L 1363 4591 
L 2681 709 
L 3991 4591 
L 4872 4591 
L 4872 0 
L 4281 0 
L 4281 2709 
Q 4281 2850 4287 3175 
Q 4294 3500 4294 3872 
L 2984 0 
L 2369 0 
L 1050 3872 
L 1050 3731 
Q 1050 3563 1058 3217 
Q 1066 2872 1066 2709 
L 1066 0 
L 472 0 
L 472 4591 
z
" transform="scale(0.015625)"/>
      <path id="Helvetica-3a" d="M 709 3303 
L 1363 3303 
L 1363 2622 
L 709 2622 
L 709 3303 
z
M 709 681 
L 1363 681 
L 1363 0 
L 709 0 
L 709 681 
z
" transform="scale(0.015625)"/>
      <path id="Helvetica-2f" d="M 1456 4591 
L 1931 4591 
L 475 0 
L 0 0 
L 1456 4591 
z
" transform="scale(0.015625)"/>
      <path id="Helvetica-76" d="M 688 3347 
L 1581 622 
L 2516 3347 
L 3131 3347 
L 1869 0 
L 1269 0 
L 34 3347 
L 688 3347 
z
" transform="scale(0.015625)"/>
     </defs>
     <use xlink:href="#Helvetica-4d"/>
     <use xlink:href="#Helvetica-65" transform="translate(83.300781 0)"/>
     <use xlink:href="#Helvetica-74" transform="translate(138.916016 0)"/>
     <use xlink:href="#Helvetica-68" transform="translate(166.699219 0)"/>
     <use xlink:href="#Helvetica-6f" transform="translate(222.314453 0)"/>
     <use xlink:href="#Helvetica-64" transform="translate(277.929688 0)"/>
     <use xlink:href="#Helvetica-3a" transform="translate(333.544922 0)"/>
     <use xlink:href="#Helvetica-20" transform="translate(361.328125 0)"/>
     <use xlink:href="#Helvetica-61" transform="translate(389.111328 0)"/>
     <use xlink:href="#Helvetica-6c" transform="translate(444.726562 0)"/>
     <use xlink:href="#Helvetica-74" transform="translate(466.943359 0)"/>
     <use xlink:href="#Helvetica-65" transform="translate(494.726562 0)"/>
     <use xlink:href="#Helvetica-72" transform="translate(550.341797 0)"/>
     <use xlink:href="#Helvetica-6e" transform="translate(583.642578 0)"/>
     <use xlink:href="#Helvetica-61" transform="translate(639.257812 0)"/>
     <use xlink:href="#Helvetica-74" transform="translate(694.873047 0)"/>
     <use xlink:href="#Helvetica-69" transform="translate(722.65625 0)"/>
     <use xlink:href="#Helvetica-6e" transform="translate(744.873047 0)"/>
     <use xlink:href="#Helvetica-67" transform="translate(800.488281 0)"/>
     <use xlink:href="#Helvetica-20" transform="translate(856.103516 0)"/>
     <use xlink:href="#Helvetica-6c" transform="translate(883.886719 0)"/>
     <use xlink:href="#Helvetica-6f" transform="translate(906.103516 0)"/>
     <use xlink:href="#Helvetica-63" transform="translate(961.71875 0)"/>
     <use xlink:href="#Helvetica-61" transform="translate(1011.71875 0)"/>
     <use xlink:href="#Helvetica-6c" transform="translate(1067.333984 0)"/>
     <use xlink:href="#Helvetica-2f" transform="translate(1089.550781 0)"/>
     <use xlink:href="#Helvetica-67" transform="translate(1117.333984 0)"/>
     <use xlink:href="#Helvetica-6c" transform="translate(1172.949219 0)"/>
     <use xlink:href="#Helvetica-6f" transform="translate(1195.166016 0)"/>
     <use xlink:href="#Helvetica-62" transform="translate(1250.78125 0)"/>
     <use xlink:href="#Helvetica-61" transform="translate(1306.396484 0)"/>
     <use xlink:href="#Helvetica-6c" transform="translate(1362.011719 0)"/>
     <use xlink:href="#Helvetica-20" transform="translate(1384.228516 0)"/>
     <use xlink:href="#Helvetica-70" transform="translate(1412.011719 0)"/>
     <use xlink:href="#Helvetica-72" transform="translate(1467.626953 0)"/>
     <use xlink:href="#Helvetica-69" transform="translate(1500.927734 0)"/>
     <use xlink:href="#Helvetica-6d" transform="translate(1523.144531 0)"/>
     <use xlink:href="#Helvetica-61" transform="translate(1606.445312 0)"/>
     <use xlink:href="#Helvetica-6c" transform="translate(1662.060547 0)"/>
     <use xlink:href="#Helvetica-2d" transform="translate(1684.277344 0)"/>
     <use xlink:href="#Helvetica-64" transform="translate(1717.578125 0)"/>
     <use xlink:href="#Helvetica-75" transform="translate(1773.193359 0)"/>
     <use xlink:href="#Helvetica-61" transform="translate(1828.808594 0)"/>
     <use xlink:href="#Helvetica-6c" transform="translate(1884.423828 0)"/>
     <use xlink:href="#Helvetica-20" transform="translate(1906.640625 0)"/>
     <use xlink:href="#Helvetica-75" transform="translate(1934.423828 0)"/>
     <use xlink:href="#Helvetica-70" transform="translate(1990.039062 0)"/>
     <use xlink:href="#Helvetica-64" transform="translate(2045.654297 0)"/>
     <use xlink:href="#Helvetica-61" transform="translate(2101.269531 0)"/>
     <use xlink:href="#Helvetica-74" transform="translate(2156.884766 0)"/>
     <use xlink:href="#Helvetica-65" transform="translate(2184.667969 0)"/>
     <use xlink:href="#Helvetica-73" transform="translate(2240.283203 0)"/>
     <use xlink:href="#Helvetica-20" transform="translate(2290.283203 0)"/>
     <use xlink:href="#Helvetica-75" transform="translate(2318.066406 0)"/>
     <use xlink:href="#Helvetica-6e" transform="translate(2373.681641 0)"/>
     <use xlink:href="#Helvetica-64" transform="translate(2429.296875 0)"/>
     <use xlink:href="#Helvetica-65" transform="translate(2484.912109 0)"/>
     <use xlink:href="#Helvetica-72" transform="translate(2540.527344 0)"/>
     <use xlink:href="#Helvetica-20" transform="translate(2573.828125 0)"/>
     <use xlink:href="#Helvetica-61" transform="translate(2601.611328 0)"/>
     <use xlink:href="#Helvetica-20" transform="translate(2657.226562 0)"/>
     <use xlink:href="#Helvetica-6d" transform="translate(2685.009766 0)"/>
     <use xlink:href="#Helvetica-69" transform="translate(2768.310547 0)"/>
     <use xlink:href="#Helvetica-6e" transform="translate(2790.527344 0)"/>
     <use xlink:href="#Helvetica-2d" transform="translate(2846.142578 0)"/>
     <use xlink:href="#Helvetica-6d" transform="translate(2879.443359 0)"/>
     <use xlink:href="#Helvetica-61" transform="translate(2962.744141 0)"/>
     <use xlink:href="#Helvetica-78" transform="translate(3018.359375 0)"/>
     <use xlink:href="#Helvetica-20" transform="translate(3068.359375 0)"/>
     <use xlink:href="#Helvetica-76" transform="translate(3096.142578 0)"/>
     <use xlink:href="#Helvetica-61" transform="translate(3146.142578 0)"/>
     <use xlink:href="#Helvetica-6c" transform="translate(3201.757812 0)"/>
     <use xlink:href="#Helvetica-75" transform="translate(3223.974609 0)"/>
     <use xlink:href="#Helvetica-65" transform="translate(3279.589844 0)"/>
     <use xlink:href="#Helvetica-20" transform="translate(3335.205078 0)"/>
     <use xlink:href="#Helvetica-63" transform="translate(3362.988281 0)"/>
     <use xlink:href="#Helvetica-6f" transform="translate(3412.988281 0)"/>
     <use xlink:href="#Helvetica-6e" transform="translate(3468.603516 0)"/>
     <use xlink:href="#Helvetica-73" transform="translate(3524.21875 0)"/>
     <use xlink:href="#Helvetica-74" transform="translate(3574.21875 0)"/>
     <use xlink:href="#Helvetica-72" transform="translate(3602.001953 0)"/>
     <use xlink:href="#Helvetica-61" transform="translate(3635.302734 0)"/>
     <use xlink:href="#Helvetica-69" transform="translate(3690.917969 0)"/>
     <use xlink:href="#Helvetica-6e" transform="translate(3713.134766 0)"/>
     <use xlink:href="#Helvetica-74" transform="translate(3768.75 0)"/>
    </g>
   </g>
  </g>
 </g>
 <defs>
  <clipPath id="p1df7522666">
   <rect x="7.2" y="21.83625" width="502.2" height="304.92"/>
  </clipPath>
 </defs>
</svg>
