<?xml version="1.0" encoding="utf-8" standalone="no"?>
<!DOCTYPE svg PUBLIC "-//W3C//DTD SVG 1.1//EN"
  "http://www.w3.org/Graphics/SVG/1.1/DTD/svg11.dtd">
<svg xmlns:xlink="http://www.w3.org/1999/xlink" width="821.02125pt" height="319.94025pt" viewBox="0 0 821.02125 319.94025" xmlns="http://www.w3.org/2000/svg" version="1.1">
 <metadata>
  <rdf:RDF xmlns:dc="http://purl.org/dc/elements/1.1/" xmlns:cc="http://creativecommons.org/ns#" xmlns:rdf="http://www.w3.org/1999/02/22-rdf-syntax-ns#">
   <cc:Work>
    <dc:type rdf:resource="http://purl.org/dc/dcmitype/StillImage"/>
    <dc:date>2026-07-22T23:30:46.879432</dc:date>
    <dc:format>image/svg+xml</dc:format>
    <dc:creator>
     <cc:Agent>
      <dc:title>Matplotlib v3.7.1, https://matplotlib.org/</dc:title>
     </cc:Agent>
    </dc:creator>
   </cc:Work>
  </rdf:RDF>
 </metadata>
 <defs>
  <style type="text/css">*{stroke-linejoin: round; stroke-linecap: butt}</style>
 </defs>
 <g id="figure_1">
  <g id="patch_1">
   <path d="M 0 319.94025 
L 821.02125 319.94025 
L 821.02125 0 
L 0 0 
z
" style="fill: #ffffff"/>
  </g>
  <g id="axes_1">
   <g id="patch_2">
    <path d="M 43.78125 282.384 
L 270.263603 282.384 
L 270.263603 49.536 
L 43.78125 49.536 
z
" style="fill: #ffffff"/>
   </g>
   <g id="matplotlib.axis_1">
    <g id="xtick_1">
     <g id="line2d_1">
      <defs>
       <path id="m094e474f98" d="M 0 0 
L 0 3.5 
" style="stroke: #000000; stroke-width: 0.8"/>
      </defs>
      <g>
       <use xlink:href="#m094e474f98" x="54.075902" y="282.384" style="stroke: #000000; stroke-width: 0.8"/>
      </g>
     </g>
     <g id="text_1">
      <!-- 0 -->
      <g transform="translate(50.894652 296.982438) scale(0.1 -0.1)">
       <defs>
        <path id="DejaVuSans-30" d="M 2034 4250 
Q 1547 4250 1301 3770 
Q 1056 3291 1056 2328 
Q 1056 1369 1301 889 
Q 1547 409 2034 409 
Q 2525 409 2770 889 
Q 3016 1369 3016 2328 
Q 3016 3291 2770 3770 
Q 2525 4250 2034 4250 
z
M 2034 4750 
Q 2819 4750 3233 4129 
Q 3647 3509 3647 2328 
Q 3647 1150 3233 529 
Q 2819 -91 2034 -91 
Q 1250 -91 836 529 
Q 422 1150 422 2328 
Q 422 3509 836 4129 
Q 1250 4750 2034 4750 
z
" transform="scale(0.015625)"/>
       </defs>
       <use xlink:href="#DejaVuSans-30"/>
      </g>
     </g>
    </g>
    <g id="xtick_2">
     <g id="line2d_2">
      <g>
       <use xlink:href="#m094e474f98" x="105.613587" y="282.384" style="stroke: #000000; stroke-width: 0.8"/>
      </g>
     </g>
     <g id="text_2">
      <!-- 200 -->
      <g transform="translate(96.069837 296.982438) scale(0.1 -0.1)">
       <defs>
        <path id="DejaVuSans-32" d="M 1228 531 
L 3431 531 
L 3431 0 
L 469 0 
L 469 531 
Q 828 903 1448 1529 
Q 2069 2156 2228 2338 
Q 2531 2678 2651 2914 
Q 2772 3150 2772 3378 
Q 2772 3750 2511 3984 
Q 2250 4219 1831 4219 
Q 1534 4219 1204 4116 
Q 875 4013 500 3803 
L 500 4441 
Q 881 4594 1212 4672 
Q 1544 4750 1819 4750 
Q 2544 4750 2975 4387 
Q 3406 4025 3406 3419 
Q 3406 3131 3298 2873 
Q 3191 2616 2906 2266 
Q 2828 2175 2409 1742 
Q 1991 1309 1228 531 
z
" transform="scale(0.015625)"/>
       </defs>
       <use xlink:href="#DejaVuSans-32"/>
       <use xlink:href="#DejaVuSans-30" x="63.623047"/>
       <use xlink:href="#DejaVuSans-30" x="127.246094"/>
      </g>
     </g>
    </g>
    <g id="xtick_3">
     <g id="line2d_3">
      <g>
       <use xlink:href="#m094e474f98" x="157.151271" y="282.384" style="stroke: #000000; stroke-width: 0.8"/>
      </g>
     </g>
     <g id="text_3">
      <!-- 400 -->
      <g transform="translate(147.607521 296.982438) scale(0.1 -0.1)">
       <defs>
        <path id="DejaVuSans-34" d="M 2419 4116 
L 825 1625 
L 2419 1625 
L 2419 4116 
z
M 2253 4666 
L 3047 4666 
L 3047 1625 
L 3713 1625 
L 3713 1100 
L 3047 1100 
L 3047 0 
L 2419 0 
L 2419 1100 
L 313 1100 
L 313 1709 
L 2253 4666 
z
" transform="scale(0.015625)"/>
       </defs>
       <use xlink:href="#DejaVuSans-34"/>
       <use xlink:href="#DejaVuSans-30" x="63.623047"/>
       <use xlink:href="#DejaVuSans-30" x="127.246094"/>
      </g>
     </g>
    </g>
    <g id="xtick_4">
     <g id="line2d_4">
      <g>
       <use xlink:href="#m094e474f98" x="208.688955" y="282.384" style="stroke: #000000; stroke-width: 0.8"/>
      </g>
     </g>
     <g id="text_4">
      <!-- 600 -->
      <g transform="translate(199.145205 296.982438) scale(0.1 -0.1)">
       <defs>
        <path id="DejaVuSans-36" d="M 2113 2584 
Q 1688 2584 1439 2293 
Q 1191 2003 1191 1497 
Q 1191 994 1439 701 
Q 1688 409 2113 409 
Q 2538 409 2786 701 
Q 3034 994 3034 1497 
Q 3034 2003 2786 2293 
Q 2538 2584 2113 2584 
z
M 3366 4563 
L 3366 3988 
Q 3128 4100 2886 4159 
Q 2644 4219 2406 4219 
Q 1781 4219 1451 3797 
Q 1122 3375 1075 2522 
Q 1259 2794 1537 2939 
Q 1816 3084 2150 3084 
Q 2853 3084 3261 2657 
Q 3669 2231 3669 1497 
Q 3669 778 3244 343 
Q 2819 -91 2113 -91 
Q 1303 -91 875 529 
Q 447 1150 447 2328 
Q 447 3434 972 4092 
Q 1497 4750 2381 4750 
Q 2619 4750 2861 4703 
Q 3103 4656 3366 4563 
z
" transform="scale(0.015625)"/>
       </defs>
       <use xlink:href="#DejaVuSans-36"/>
       <use xlink:href="#DejaVuSans-30" x="63.623047"/>
       <use xlink:href="#DejaVuSans-30" x="127.246094"/>
      </g>
     </g>
    </g>
    <g id="xtick_5">
     <g id="line2d_5">
      <g>
       <use xlink:href="#m094e474f98" x="260.226639" y="282.384" style="stroke: #000000; stroke-width: 0.8"/>
      </g>
     </g>
     <g id="text_5">
      <!-- 800 -->
      <g transform="translate(250.682889 296.982438) scale(0.1 -0.1)">
       <defs>
        <path id="DejaVuSans-38" d="M 2034 2216 
Q 1584 2216 1326 1975 
Q 1069 1734 1069 1313 
Q 1069 891 1326 650 
Q 1584 409 2034 409 
Q 2484 409 2743 651 
Q 3003 894 3003 1313 
Q 3003 1734 2745 1975 
Q 2488 2216 2034 2216 
z
M 1403 2484 
Q 997 2584 770 2862 
Q 544 3141 544 3541 
Q 544 4100 942 4425 
Q 1341 4750 2034 4750 
Q 2731 4750 3128 4425 
Q 3525 4100 3525 3541 
Q 3525 3141 3298 2862 
Q 3072 2584 2669 2484 
Q 3125 2378 3379 2068 
Q 3634 1759 3634 1313 
Q 3634 634 3220 271 
Q 2806 -91 2034 -91 
Q 1263 -91 848 271 
Q 434 634 434 1313 
Q 434 1759 690 2068 
Q 947 2378 1403 2484 
z
M 1172 3481 
Q 1172 3119 1398 2916 
Q 1625 2713 2034 2713 
Q 2441 2713 2670 2916 
Q 2900 3119 2900 3481 
Q 2900 3844 2670 4047 
Q 2441 4250 2034 4250 
Q 1625 4250 1398 4047 
Q 1172 3844 1172 3481 
z
" transform="scale(0.015625)"/>
       </defs>
       <use xlink:href="#DejaVuSans-38"/>
       <use xlink:href="#DejaVuSans-30" x="63.623047"/>
       <use xlink:href="#DejaVuSans-30" x="127.246094"/>
      </g>
     </g>
    </g>
    <g id="text_6">
     <!-- global iter -->
     <g transform="translate(131.702114 310.660563) scale(0.1 -0.1)">
      <defs>
       <path id="DejaVuSans-67" d="M 2906 1791 
Q 2906 2416 2648 2759 
Q 2391 3103 1925 3103 
Q 1463 3103 1205 2759 
Q 947 2416 947 1791 
Q 947 1169 1205 825 
Q 1463 481 1925 481 
Q 2391 481 2648 825 
Q 2906 1169 2906 1791 
z
M 3481 434 
Q 3481 -459 3084 -895 
Q 2688 -1331 1869 -1331 
Q 1566 -1331 1297 -1286 
Q 1028 -1241 775 -1147 
L 775 -588 
Q 1028 -725 1275 -790 
Q 1522 -856 1778 -856 
Q 2344 -856 2625 -561 
Q 2906 -266 2906 331 
L 2906 616 
Q 2728 306 2450 153 
Q 2172 0 1784 0 
Q 1141 0 747 490 
Q 353 981 353 1791 
Q 353 2603 747 3093 
Q 1141 3584 1784 3584 
Q 2172 3584 2450 3431 
Q 2728 3278 2906 2969 
L 2906 3500 
L 3481 3500 
L 3481 434 
z
" transform="scale(0.015625)"/>
       <path id="DejaVuSans-6c" d="M 603 4863 
L 1178 4863 
L 1178 0 
L 603 0 
L 603 4863 
z
" transform="scale(0.015625)"/>
       <path id="DejaVuSans-6f" d="M 1959 3097 
Q 1497 3097 1228 2736 
Q 959 2375 959 1747 
Q 959 1119 1226 758 
Q 1494 397 1959 397 
Q 2419 397 2687 759 
Q 2956 1122 2956 1747 
Q 2956 2369 2687 2733 
Q 2419 3097 1959 3097 
z
M 1959 3584 
Q 2709 3584 3137 3096 
Q 3566 2609 3566 1747 
Q 3566 888 3137 398 
Q 2709 -91 1959 -91 
Q 1206 -91 779 398 
Q 353 888 353 1747 
Q 353 2609 779 3096 
Q 1206 3584 1959 3584 
z
" transform="scale(0.015625)"/>
       <path id="DejaVuSans-62" d="M 3116 1747 
Q 3116 2381 2855 2742 
Q 2594 3103 2138 3103 
Q 1681 3103 1420 2742 
Q 1159 2381 1159 1747 
Q 1159 1113 1420 752 
Q 1681 391 2138 391 
Q 2594 391 2855 752 
Q 3116 1113 3116 1747 
z
M 1159 2969 
Q 1341 3281 1617 3432 
Q 1894 3584 2278 3584 
Q 2916 3584 3314 3078 
Q 3713 2572 3713 1747 
Q 3713 922 3314 415 
Q 2916 -91 2278 -91 
Q 1894 -91 1617 61 
Q 1341 213 1159 525 
L 1159 0 
L 581 0 
L 581 4863 
L 1159 4863 
L 1159 2969 
z
" transform="scale(0.015625)"/>
       <path id="DejaVuSans-61" d="M 2194 1759 
Q 1497 1759 1228 1600 
Q 959 1441 959 1056 
Q 959 750 1161 570 
Q 1363 391 1709 391 
Q 2188 391 2477 730 
Q 2766 1069 2766 1631 
L 2766 1759 
L 2194 1759 
z
M 3341 1997 
L 3341 0 
L 2766 0 
L 2766 531 
Q 2569 213 2275 61 
Q 1981 -91 1556 -91 
Q 1019 -91 701 211 
Q 384 513 384 1019 
Q 384 1609 779 1909 
Q 1175 2209 1959 2209 
L 2766 2209 
L 2766 2266 
Q 2766 2663 2505 2880 
Q 2244 3097 1772 3097 
Q 1472 3097 1187 3025 
Q 903 2953 641 2809 
L 641 3341 
Q 956 3463 1253 3523 
Q 1550 3584 1831 3584 
Q 2591 3584 2966 3190 
Q 3341 2797 3341 1997 
z
" transform="scale(0.015625)"/>
       <path id="DejaVuSans-20" transform="scale(0.015625)"/>
       <path id="DejaVuSans-69" d="M 603 3500 
L 1178 3500 
L 1178 0 
L 603 0 
L 603 3500 
z
M 603 4863 
L 1178 4863 
L 1178 4134 
L 603 4134 
L 603 4863 
z
" transform="scale(0.015625)"/>
       <path id="DejaVuSans-74" d="M 1172 4494 
L 1172 3500 
L 2356 3500 
L 2356 3053 
L 1172 3053 
L 1172 1153 
Q 1172 725 1289 603 
Q 1406 481 1766 481 
L 2356 481 
L 2356 0 
L 1766 0 
Q 1100 0 847 248 
Q 594 497 594 1153 
L 594 3053 
L 172 3053 
L 172 3500 
L 594 3500 
L 594 4494 
L 1172 4494 
z
" transform="scale(0.015625)"/>
       <path id="DejaVuSans-65" d="M 3597 1894 
L 3597 1613 
L 953 1613 
Q 991 1019 1311 708 
Q 1631 397 2203 397 
Q 2534 397 2845 478 
Q 3156 559 3463 722 
L 3463 178 
Q 3153 47 2828 -22 
Q 2503 -91 2169 -91 
Q 1331 -91 842 396 
Q 353 884 353 1716 
Q 353 2575 817 3079 
Q 1281 3584 2069 3584 
Q 2775 3584 3186 3129 
Q 3597 2675 3597 1894 
z
M 3022 2063 
Q 3016 2534 2758 2815 
Q 2500 3097 2075 3097 
Q 1594 3097 1305 2825 
Q 1016 2553 972 2059 
L 3022 2063 
z
" transform="scale(0.015625)"/>
       <path id="DejaVuSans-72" d="M 2631 2963 
Q 2534 3019 2420 3045 
Q 2306 3072 2169 3072 
Q 1681 3072 1420 2755 
Q 1159 2438 1159 1844 
L 1159 0 
L 581 0 
L 581 3500 
L 1159 3500 
L 1159 2956 
Q 1341 3275 1631 3429 
Q 1922 3584 2338 3584 
Q 2397 3584 2469 3576 
Q 2541 3569 2628 3553 
L 2631 2963 
z
" transform="scale(0.015625)"/>
      </defs>
      <use xlink:href="#DejaVuSans-67"/>
      <use xlink:href="#DejaVuSans-6c" x="63.476562"/>
      <use xlink:href="#DejaVuSans-6f" x="91.259766"/>
      <use xlink:href="#DejaVuSans-62" x="152.441406"/>
      <use xlink:href="#DejaVuSans-61" x="215.917969"/>
      <use xlink:href="#DejaVuSans-6c" x="277.197266"/>
      <use xlink:href="#DejaVuSans-20" x="304.980469"/>
      <use xlink:href="#DejaVuSans-69" x="336.767578"/>
      <use xlink:href="#DejaVuSans-74" x="364.550781"/>
      <use xlink:href="#DejaVuSans-65" x="403.759766"/>
      <use xlink:href="#DejaVuSans-72" x="465.283203"/>
     </g>
    </g>
   </g>
   <g id="matplotlib.axis_2">
    <g id="ytick_1">
     <g id="line2d_6">
      <defs>
       <path id="m074b21c2d1" d="M 0 0 
L -3.5 0 
" style="stroke: #000000; stroke-width: 0.8"/>
      </defs>
      <g>
       <use xlink:href="#m074b21c2d1" x="43.78125" y="266.410524" style="stroke: #000000; stroke-width: 0.8"/>
      </g>
     </g>
     <g id="text_7">
      <!-- 0.6 -->
      <g transform="translate(20.878125 270.209743) scale(0.1 -0.1)">
       <defs>
        <path id="DejaVuSans-2e" d="M 684 794 
L 1344 794 
L 1344 0 
L 684 0 
L 684 794 
z
" transform="scale(0.015625)"/>
       </defs>
       <use xlink:href="#DejaVuSans-30"/>
       <use xlink:href="#DejaVuSans-2e" x="63.623047"/>
       <use xlink:href="#DejaVuSans-36" x="95.410156"/>
      </g>
     </g>
    </g>
    <g id="ytick_2">
     <g id="line2d_7">
      <g>
       <use xlink:href="#m074b21c2d1" x="43.78125" y="238.218949" style="stroke: #000000; stroke-width: 0.8"/>
      </g>
     </g>
     <g id="text_8">
      <!-- 0.8 -->
      <g transform="translate(20.878125 242.018168) scale(0.1 -0.1)">
       <use xlink:href="#DejaVuSans-30"/>
       <use xlink:href="#DejaVuSans-2e" x="63.623047"/>
       <use xlink:href="#DejaVuSans-38" x="95.410156"/>
      </g>
     </g>
    </g>
    <g id="ytick_3">
     <g id="line2d_8">
      <g>
       <use xlink:href="#m074b21c2d1" x="43.78125" y="210.027375" style="stroke: #000000; stroke-width: 0.8"/>
      </g>
     </g>
     <g id="text_9">
      <!-- 1.0 -->
      <g transform="translate(20.878125 213.826593) scale(0.1 -0.1)">
       <defs>
        <path id="DejaVuSans-31" d="M 794 531 
L 1825 531 
L 1825 4091 
L 703 3866 
L 703 4441 
L 1819 4666 
L 2450 4666 
L 2450 531 
L 3481 531 
L 3481 0 
L 794 0 
L 794 531 
z
" transform="scale(0.015625)"/>
       </defs>
       <use xlink:href="#DejaVuSans-31"/>
       <use xlink:href="#DejaVuSans-2e" x="63.623047"/>
       <use xlink:href="#DejaVuSans-30" x="95.410156"/>
      </g>
     </g>
    </g>
    <g id="ytick_4">
     <g id="line2d_9">
      <g>
       <use xlink:href="#m074b21c2d1" x="43.78125" y="181.8358" style="stroke: #000000; stroke-width: 0.8"/>
      </g>
     </g>
     <g id="text_10">
      <!-- 1.2 -->
      <g transform="translate(20.878125 185.635019) scale(0.1 -0.1)">
       <use xlink:href="#DejaVuSans-31"/>
       <use xlink:href="#DejaVuSans-2e" x="63.623047"/>
       <use xlink:href="#DejaVuSans-32" x="95.410156"/>
      </g>
     </g>
    </g>
    <g id="ytick_5">
     <g id="line2d_10">
      <g>
       <use xlink:href="#m074b21c2d1" x="43.78125" y="153.644225" style="stroke: #000000; stroke-width: 0.8"/>
      </g>
     </g>
     <g id="text_11">
      <!-- 1.4 -->
      <g transform="translate(20.878125 157.443444) scale(0.1 -0.1)">
       <use xlink:href="#DejaVuSans-31"/>
       <use xlink:href="#DejaVuSans-2e" x="63.623047"/>
       <use xlink:href="#DejaVuSans-34" x="95.410156"/>
      </g>
     </g>
    </g>
    <g id="ytick_6">
     <g id="line2d_11">
      <g>
       <use xlink:href="#m074b21c2d1" x="43.78125" y="125.452651" style="stroke: #000000; stroke-width: 0.8"/>
      </g>
     </g>
     <g id="text_12">
      <!-- 1.6 -->
      <g transform="translate(20.878125 129.251869) scale(0.1 -0.1)">
       <use xlink:href="#DejaVuSans-31"/>
       <use xlink:href="#DejaVuSans-2e" x="63.623047"/>
       <use xlink:href="#DejaVuSans-36" x="95.410156"/>
      </g>
     </g>
    </g>
    <g id="ytick_7">
     <g id="line2d_12">
      <g>
       <use xlink:href="#m074b21c2d1" x="43.78125" y="97.261076" style="stroke: #000000; stroke-width: 0.8"/>
      </g>
     </g>
     <g id="text_13">
      <!-- 1.8 -->
      <g transform="translate(20.878125 101.060295) scale(0.1 -0.1)">
       <use xlink:href="#DejaVuSans-31"/>
       <use xlink:href="#DejaVuSans-2e" x="63.623047"/>
       <use xlink:href="#DejaVuSans-38" x="95.410156"/>
      </g>
     </g>
    </g>
    <g id="ytick_8">
     <g id="line2d_13">
      <g>
       <use xlink:href="#m074b21c2d1" x="43.78125" y="69.069501" style="stroke: #000000; stroke-width: 0.8"/>
      </g>
     </g>
     <g id="text_14">
      <!-- 2.0 -->
      <g transform="translate(20.878125 72.86872) scale(0.1 -0.1)">
       <use xlink:href="#DejaVuSans-32"/>
       <use xlink:href="#DejaVuSans-2e" x="63.623047"/>
       <use xlink:href="#DejaVuSans-30" x="95.410156"/>
      </g>
     </g>
    </g>
    <g id="text_15">
     <!-- discounted value -->
     <g transform="translate(14.798438 208.731875) rotate(-90) scale(0.1 -0.1)">
      <defs>
       <path id="DejaVuSans-64" d="M 2906 2969 
L 2906 4863 
L 3481 4863 
L 3481 0 
L 2906 0 
L 2906 525 
Q 2725 213 2448 61 
Q 2172 -91 1784 -91 
Q 1150 -91 751 415 
Q 353 922 353 1747 
Q 353 2572 751 3078 
Q 1150 3584 1784 3584 
Q 2172 3584 2448 3432 
Q 2725 3281 2906 2969 
z
M 947 1747 
Q 947 1113 1208 752 
Q 1469 391 1925 391 
Q 2381 391 2643 752 
Q 2906 1113 2906 1747 
Q 2906 2381 2643 2742 
Q 2381 3103 1925 3103 
Q 1469 3103 1208 2742 
Q 947 2381 947 1747 
z
" transform="scale(0.015625)"/>
       <path id="DejaVuSans-73" d="M 2834 3397 
L 2834 2853 
Q 2591 2978 2328 3040 
Q 2066 3103 1784 3103 
Q 1356 3103 1142 2972 
Q 928 2841 928 2578 
Q 928 2378 1081 2264 
Q 1234 2150 1697 2047 
L 1894 2003 
Q 2506 1872 2764 1633 
Q 3022 1394 3022 966 
Q 3022 478 2636 193 
Q 2250 -91 1575 -91 
Q 1294 -91 989 -36 
Q 684 19 347 128 
L 347 722 
Q 666 556 975 473 
Q 1284 391 1588 391 
Q 1994 391 2212 530 
Q 2431 669 2431 922 
Q 2431 1156 2273 1281 
Q 2116 1406 1581 1522 
L 1381 1569 
Q 847 1681 609 1914 
Q 372 2147 372 2553 
Q 372 3047 722 3315 
Q 1072 3584 1716 3584 
Q 2034 3584 2315 3537 
Q 2597 3491 2834 3397 
z
" transform="scale(0.015625)"/>
       <path id="DejaVuSans-63" d="M 3122 3366 
L 3122 2828 
Q 2878 2963 2633 3030 
Q 2388 3097 2138 3097 
Q 1578 3097 1268 2742 
Q 959 2388 959 1747 
Q 959 1106 1268 751 
Q 1578 397 2138 397 
Q 2388 397 2633 464 
Q 2878 531 3122 666 
L 3122 134 
Q 2881 22 2623 -34 
Q 2366 -91 2075 -91 
Q 1284 -91 818 406 
Q 353 903 353 1747 
Q 353 2603 823 3093 
Q 1294 3584 2113 3584 
Q 2378 3584 2631 3529 
Q 2884 3475 3122 3366 
z
" transform="scale(0.015625)"/>
       <path id="DejaVuSans-75" d="M 544 1381 
L 544 3500 
L 1119 3500 
L 1119 1403 
Q 1119 906 1312 657 
Q 1506 409 1894 409 
Q 2359 409 2629 706 
Q 2900 1003 2900 1516 
L 2900 3500 
L 3475 3500 
L 3475 0 
L 2900 0 
L 2900 538 
Q 2691 219 2414 64 
Q 2138 -91 1772 -91 
Q 1169 -91 856 284 
Q 544 659 544 1381 
z
M 1991 3584 
L 1991 3584 
z
" transform="scale(0.015625)"/>
       <path id="DejaVuSans-6e" d="M 3513 2113 
L 3513 0 
L 2938 0 
L 2938 2094 
Q 2938 2591 2744 2837 
Q 2550 3084 2163 3084 
Q 1697 3084 1428 2787 
Q 1159 2491 1159 1978 
L 1159 0 
L 581 0 
L 581 3500 
L 1159 3500 
L 1159 2956 
Q 1366 3272 1645 3428 
Q 1925 3584 2291 3584 
Q 2894 3584 3203 3211 
Q 3513 2838 3513 2113 
z
" transform="scale(0.015625)"/>
       <path id="DejaVuSans-76" d="M 191 3500 
L 800 3500 
L 1894 563 
L 2988 3500 
L 3597 3500 
L 2284 0 
L 1503 0 
L 191 3500 
z
" transform="scale(0.015625)"/>
      </defs>
      <use xlink:href="#DejaVuSans-64"/>
      <use xlink:href="#DejaVuSans-69" x="63.476562"/>
      <use xlink:href="#DejaVuSans-73" x="91.259766"/>
      <use xlink:href="#DejaVuSans-63" x="143.359375"/>
      <use xlink:href="#DejaVuSans-6f" x="198.339844"/>
      <use xlink:href="#DejaVuSans-75" x="259.521484"/>
      <use xlink:href="#DejaVuSans-6e" x="322.900391"/>
      <use xlink:href="#DejaVuSans-74" x="386.279297"/>
      <use xlink:href="#DejaVuSans-65" x="425.488281"/>
      <use xlink:href="#DejaVuSans-64" x="487.011719"/>
      <use xlink:href="#DejaVuSans-20" x="550.488281"/>
      <use xlink:href="#DejaVuSans-76" x="582.275391"/>
      <use xlink:href="#DejaVuSans-61" x="641.455078"/>
      <use xlink:href="#DejaVuSans-6c" x="702.734375"/>
      <use xlink:href="#DejaVuSans-75" x="730.517578"/>
      <use xlink:href="#DejaVuSans-65" x="793.896484"/>
     </g>
    </g>
   </g>
   <g id="line2d_14">
    <path d="M 54.075902 76.823244 
L 60.518113 76.823244 
L 66.960323 76.823244 
L 73.402534 76.823244 
L 79.844744 76.823244 
L 86.286955 76.823244 
L 92.471477 76.823244 
L 92.729166 76.823244 
L 99.171376 76.823244 
L 105.355898 76.823244 
L 105.613587 76.823244 
L 112.055797 76.823244 
L 118.240319 76.823244 
L 118.498008 76.823244 
L 124.940218 76.823244 
L 131.12474 76.823244 
L 131.382429 76.823244 
L 137.824639 76.823244 
L 144.009161 76.823244 
L 144.26685 76.823244 
L 150.70906 76.823244 
L 156.893582 76.823244 
L 157.151271 76.823244 
L 163.593481 76.823244 
L 169.778003 76.823244 
L 170.035692 76.823244 
L 176.477902 76.823244 
L 182.662424 76.823244 
L 182.920113 76.823244 
L 189.362323 76.823244 
L 195.546845 76.823244 
L 195.804534 76.823244 
L 202.246744 76.823244 
L 208.431266 76.823244 
L 208.688955 76.823244 
L 215.131165 76.823244 
L 221.315687 76.823244 
L 221.573376 76.823244 
L 228.015586 76.823244 
L 234.200108 76.823244 
L 234.457797 76.823244 
L 240.900007 76.823244 
L 247.08453 76.823244 
L 247.342218 76.823244 
L 253.784428 76.823244 
L 259.968951 76.823244 
" clip-path="url(#p547161dee1)" style="fill: none; stroke-dasharray: 7.4,3.2; stroke-dashoffset: 0; stroke: #333333; stroke-width: 2"/>
   </g>
   <g id="line2d_15">
    <path d="M 54.075902 60.12 
L 60.518113 271.8 
L 66.960323 200.82847 
L 73.402534 123.773819 
L 79.844744 129.516434 
L 86.286955 97.918841 
L 92.471477 97.918841 
L 92.729166 98.946568 
L 99.171376 105.539002 
L 105.355898 105.539002 
L 105.613587 99.153693 
L 112.055797 76.122642 
L 118.240319 76.122642 
L 118.498008 110.761811 
L 124.940218 111.888662 
L 131.12474 111.888662 
L 131.382429 119.573185 
L 137.824639 133.824456 
L 144.009161 133.824456 
L 144.26685 107.325915 
L 150.70906 89.14201 
L 156.893582 89.14201 
L 157.151271 109.697397 
L 163.593481 103.972863 
L 169.778003 103.972863 
L 170.035692 101.881028 
L 176.477902 101.187036 
L 182.662424 101.187036 
L 182.920113 87.68596 
L 189.362323 100.129923 
L 195.546845 100.129923 
L 195.804534 115.57719 
L 202.246744 101.319209 
L 208.431266 101.319209 
L 208.688955 76.451708 
L 215.131165 97.091832 
L 221.315687 97.091832 
L 221.573376 98.529696 
L 228.015586 106.174966 
L 234.200108 106.174966 
L 234.457797 118.883203 
L 240.900007 92.437163 
L 247.08453 92.437163 
L 247.342218 88.809687 
L 253.784428 92.515638 
L 259.968951 92.515638 
" clip-path="url(#p547161dee1)" style="fill: none; stroke: #1b9e77; stroke-width: 1.5; stroke-linecap: square"/>
    <defs>
     <path id="m66a666b2c5" d="M 0 1.5 
C 0.397805 1.5 0.77937 1.341951 1.06066 1.06066 
C 1.341951 0.77937 1.5 0.397805 1.5 0 
C 1.5 -0.397805 1.341951 -0.77937 1.06066 -1.06066 
C 0.77937 -1.341951 0.397805 -1.5 0 -1.5 
C -0.397805 -1.5 -0.77937 -1.341951 -1.06066 -1.06066 
C -1.341951 -0.77937 -1.5 -0.397805 -1.5 0 
C -1.5 0.397805 -1.341951 0.77937 -1.06066 1.06066 
C -0.77937 1.341951 -0.397805 1.5 0 1.5 
z
" style="stroke: #1b9e77"/>
    </defs>
    <g clip-path="url(#p547161dee1)">
     <use xlink:href="#m66a666b2c5" x="54.075902" y="60.12" style="fill: #1b9e77; stroke: #1b9e77"/>
     <use xlink:href="#m66a666b2c5" x="60.518113" y="271.8" style="fill: #1b9e77; stroke: #1b9e77"/>
     <use xlink:href="#m66a666b2c5" x="66.960323" y="200.82847" style="fill: #1b9e77; stroke: #1b9e77"/>
     <use xlink:href="#m66a666b2c5" x="73.402534" y="123.773819" style="fill: #1b9e77; stroke: #1b9e77"/>
     <use xlink:href="#m66a666b2c5" x="79.844744" y="129.516434" style="fill: #1b9e77; stroke: #1b9e77"/>
     <use xlink:href="#m66a666b2c5" x="86.286955" y="97.918841" style="fill: #1b9e77; stroke: #1b9e77"/>
     <use xlink:href="#m66a666b2c5" x="92.471477" y="97.918841" style="fill: #1b9e77; stroke: #1b9e77"/>
     <use xlink:href="#m66a666b2c5" x="92.729166" y="98.946568" style="fill: #1b9e77; stroke: #1b9e77"/>
     <use xlink:href="#m66a666b2c5" x="99.171376" y="105.539002" style="fill: #1b9e77; stroke: #1b9e77"/>
     <use xlink:href="#m66a666b2c5" x="105.355898" y="105.539002" style="fill: #1b9e77; stroke: #1b9e77"/>
     <use xlink:href="#m66a666b2c5" x="105.613587" y="99.153693" style="fill: #1b9e77; stroke: #1b9e77"/>
     <use xlink:href="#m66a666b2c5" x="112.055797" y="76.122642" style="fill: #1b9e77; stroke: #1b9e77"/>
     <use xlink:href="#m66a666b2c5" x="118.240319" y="76.122642" style="fill: #1b9e77; stroke: #1b9e77"/>
     <use xlink:href="#m66a666b2c5" x="118.498008" y="110.761811" style="fill: #1b9e77; stroke: #1b9e77"/>
     <use xlink:href="#m66a666b2c5" x="124.940218" y="111.888662" style="fill: #1b9e77; stroke: #1b9e77"/>
     <use xlink:href="#m66a666b2c5" x="131.12474" y="111.888662" style="fill: #1b9e77; stroke: #1b9e77"/>
     <use xlink:href="#m66a666b2c5" x="131.382429" y="119.573185" style="fill: #1b9e77; stroke: #1b9e77"/>
     <use xlink:href="#m66a666b2c5" x="137.824639" y="133.824456" style="fill: #1b9e77; stroke: #1b9e77"/>
     <use xlink:href="#m66a666b2c5" x="144.009161" y="133.824456" style="fill: #1b9e77; stroke: #1b9e77"/>
     <use xlink:href="#m66a666b2c5" x="144.26685" y="107.325915" style="fill: #1b9e77; stroke: #1b9e77"/>
     <use xlink:href="#m66a666b2c5" x="150.70906" y="89.14201" style="fill: #1b9e77; stroke: #1b9e77"/>
     <use xlink:href="#m66a666b2c5" x="156.893582" y="89.14201" style="fill: #1b9e77; stroke: #1b9e77"/>
     <use xlink:href="#m66a666b2c5" x="157.151271" y="109.697397" style="fill: #1b9e77; stroke: #1b9e77"/>
     <use xlink:href="#m66a666b2c5" x="163.593481" y="103.972863" style="fill: #1b9e77; stroke: #1b9e77"/>
     <use xlink:href="#m66a666b2c5" x="169.778003" y="103.972863" style="fill: #1b9e77; stroke: #1b9e77"/>
     <use xlink:href="#m66a666b2c5" x="170.035692" y="101.881028" style="fill: #1b9e77; stroke: #1b9e77"/>
     <use xlink:href="#m66a666b2c5" x="176.477902" y="101.187036" style="fill: #1b9e77; stroke: #1b9e77"/>
     <use xlink:href="#m66a666b2c5" x="182.662424" y="101.187036" style="fill: #1b9e77; stroke: #1b9e77"/>
     <use xlink:href="#m66a666b2c5" x="182.920113" y="87.68596" style="fill: #1b9e77; stroke: #1b9e77"/>
     <use xlink:href="#m66a666b2c5" x="189.362323" y="100.129923" style="fill: #1b9e77; stroke: #1b9e77"/>
     <use xlink:href="#m66a666b2c5" x="195.546845" y="100.129923" style="fill: #1b9e77; stroke: #1b9e77"/>
     <use xlink:href="#m66a666b2c5" x="195.804534" y="115.57719" style="fill: #1b9e77; stroke: #1b9e77"/>
     <use xlink:href="#m66a666b2c5" x="202.246744" y="101.319209" style="fill: #1b9e77; stroke: #1b9e77"/>
     <use xlink:href="#m66a666b2c5" x="208.431266" y="101.319209" style="fill: #1b9e77; stroke: #1b9e77"/>
     <use xlink:href="#m66a666b2c5" x="208.688955" y="76.451708" style="fill: #1b9e77; stroke: #1b9e77"/>
     <use xlink:href="#m66a666b2c5" x="215.131165" y="97.091832" style="fill: #1b9e77; stroke: #1b9e77"/>
     <use xlink:href="#m66a666b2c5" x="221.315687" y="97.091832" style="fill: #1b9e77; stroke: #1b9e77"/>
     <use xlink:href="#m66a666b2c5" x="221.573376" y="98.529696" style="fill: #1b9e77; stroke: #1b9e77"/>
     <use xlink:href="#m66a666b2c5" x="228.015586" y="106.174966" style="fill: #1b9e77; stroke: #1b9e77"/>
     <use xlink:href="#m66a666b2c5" x="234.200108" y="106.174966" style="fill: #1b9e77; stroke: #1b9e77"/>
     <use xlink:href="#m66a666b2c5" x="234.457797" y="118.883203" style="fill: #1b9e77; stroke: #1b9e77"/>
     <use xlink:href="#m66a666b2c5" x="240.900007" y="92.437163" style="fill: #1b9e77; stroke: #1b9e77"/>
     <use xlink:href="#m66a666b2c5" x="247.08453" y="92.437163" style="fill: #1b9e77; stroke: #1b9e77"/>
     <use xlink:href="#m66a666b2c5" x="247.342218" y="88.809687" style="fill: #1b9e77; stroke: #1b9e77"/>
     <use xlink:href="#m66a666b2c5" x="253.784428" y="92.515638" style="fill: #1b9e77; stroke: #1b9e77"/>
     <use xlink:href="#m66a666b2c5" x="259.968951" y="92.515638" style="fill: #1b9e77; stroke: #1b9e77"/>
    </g>
   </g>
   <g id="patch_3">
    <path d="M 43.78125 282.384 
L 43.78125 49.536 
" style="fill: none; stroke: #000000; stroke-width: 0.8; stroke-linejoin: miter; stroke-linecap: square"/>
   </g>
   <g id="patch_4">
    <path d="M 270.263603 282.384 
L 270.263603 49.536 
" style="fill: none; stroke: #000000; stroke-width: 0.8; stroke-linejoin: miter; stroke-linecap: square"/>
   </g>
   <g id="patch_5">
    <path d="M 43.78125 282.384 
L 270.263603 282.384 
" style="fill: none; stroke: #000000; stroke-width: 0.8; stroke-linejoin: miter; stroke-linecap: square"/>
   </g>
   <g id="patch_6">
    <path d="M 43.78125 49.536 
L 270.263603 49.536 
" style="fill: none; stroke: #000000; stroke-width: 0.8; stroke-linejoin: miter; stroke-linecap: square"/>
   </g>
   <g id="text_16">
    <!-- task 2: Breakout -->
    <g transform="translate(107.841176 43.536) scale(0.12 -0.12)">
     <defs>
      <path id="DejaVuSans-6b" d="M 581 4863 
L 1159 4863 
L 1159 1991 
L 2875 3500 
L 3609 3500 
L 1753 1863 
L 3688 0 
L 2938 0 
L 1159 1709 
L 1159 0 
L 581 0 
L 581 4863 
z
" transform="scale(0.015625)"/>
      <path id="DejaVuSans-3a" d="M 750 794 
L 1409 794 
L 1409 0 
L 750 0 
L 750 794 
z
M 750 3309 
L 1409 3309 
L 1409 2516 
L 750 2516 
L 750 3309 
z
" transform="scale(0.015625)"/>
      <path id="DejaVuSans-42" d="M 1259 2228 
L 1259 519 
L 2272 519 
Q 2781 519 3026 730 
Q 3272 941 3272 1375 
Q 3272 1813 3026 2020 
Q 2781 2228 2272 2228 
L 1259 2228 
z
M 1259 4147 
L 1259 2741 
L 2194 2741 
Q 2656 2741 2882 2914 
Q 3109 3088 3109 3444 
Q 3109 3797 2882 3972 
Q 2656 4147 2194 4147 
L 1259 4147 
z
M 628 4666 
L 2241 4666 
Q 2963 4666 3353 4366 
Q 3744 4066 3744 3513 
Q 3744 3084 3544 2831 
Q 3344 2578 2956 2516 
Q 3422 2416 3680 2098 
Q 3938 1781 3938 1306 
Q 3938 681 3513 340 
Q 3088 0 2303 0 
L 628 0 
L 628 4666 
z
" transform="scale(0.015625)"/>
     </defs>
     <use xlink:href="#DejaVuSans-74"/>
     <use xlink:href="#DejaVuSans-61" x="39.208984"/>
     <use xlink:href="#DejaVuSans-73" x="100.488281"/>
     <use xlink:href="#DejaVuSans-6b" x="152.587891"/>
     <use xlink:href="#DejaVuSans-20" x="210.498047"/>
     <use xlink:href="#DejaVuSans-32" x="242.285156"/>
     <use xlink:href="#DejaVuSans-3a" x="305.908203"/>
     <use xlink:href="#DejaVuSans-20" x="339.599609"/>
     <use xlink:href="#DejaVuSans-42" x="371.386719"/>
     <use xlink:href="#DejaVuSans-72" x="439.990234"/>
     <use xlink:href="#DejaVuSans-65" x="478.853516"/>
     <use xlink:href="#DejaVuSans-61" x="540.376953"/>
     <use xlink:href="#DejaVuSans-6b" x="601.65625"/>
     <use xlink:href="#DejaVuSans-6f" x="655.941406"/>
     <use xlink:href="#DejaVuSans-75" x="717.123047"/>
     <use xlink:href="#DejaVuSans-74" x="780.501953"/>
    </g>
   </g>
   <g id="legend_1">
    <g id="patch_7">
     <path d="M 145.189853 278.384 
L 264.663603 278.384 
Q 266.263603 278.384 266.263603 276.784 
L 266.263603 253.654 
Q 266.263603 252.054 264.663603 252.054 
L 145.189853 252.054 
Q 143.589853 252.054 143.589853 253.654 
L 143.589853 276.784 
Q 143.589853 278.384 145.189853 278.384 
z
" style="fill: #ffffff; opacity: 0.8; stroke: #cccccc; stroke-linejoin: miter"/>
    </g>
    <g id="line2d_16">
     <path d="M 146.789853 258.53275 
L 154.789853 258.53275 
L 162.789853 258.53275 
" style="fill: none; stroke-dasharray: 7.4,3.2; stroke-dashoffset: 0; stroke: #333333; stroke-width: 2"/>
    </g>
    <g id="text_17">
     <!-- V_L (local ref, frozen) -->
     <g transform="translate(169.189853 261.33275) scale(0.08 -0.08)">
      <defs>
       <path id="DejaVuSans-56" d="M 1831 0 
L 50 4666 
L 709 4666 
L 2188 738 
L 3669 4666 
L 4325 4666 
L 2547 0 
L 1831 0 
z
" transform="scale(0.015625)"/>
       <path id="DejaVuSans-5f" d="M 3263 -1063 
L 3263 -1509 
L -63 -1509 
L -63 -1063 
L 3263 -1063 
z
" transform="scale(0.015625)"/>
       <path id="DejaVuSans-4c" d="M 628 4666 
L 1259 4666 
L 1259 531 
L 3531 531 
L 3531 0 
L 628 0 
L 628 4666 
z
" transform="scale(0.015625)"/>
       <path id="DejaVuSans-28" d="M 1984 4856 
Q 1566 4138 1362 3434 
Q 1159 2731 1159 2009 
Q 1159 1288 1364 580 
Q 1569 -128 1984 -844 
L 1484 -844 
Q 1016 -109 783 600 
Q 550 1309 550 2009 
Q 550 2706 781 3412 
Q 1013 4119 1484 4856 
L 1984 4856 
z
" transform="scale(0.015625)"/>
       <path id="DejaVuSans-66" d="M 2375 4863 
L 2375 4384 
L 1825 4384 
Q 1516 4384 1395 4259 
Q 1275 4134 1275 3809 
L 1275 3500 
L 2222 3500 
L 2222 3053 
L 1275 3053 
L 1275 0 
L 697 0 
L 697 3053 
L 147 3053 
L 147 3500 
L 697 3500 
L 697 3744 
Q 697 4328 969 4595 
Q 1241 4863 1831 4863 
L 2375 4863 
z
" transform="scale(0.015625)"/>
       <path id="DejaVuSans-2c" d="M 750 794 
L 1409 794 
L 1409 256 
L 897 -744 
L 494 -744 
L 750 256 
L 750 794 
z
" transform="scale(0.015625)"/>
       <path id="DejaVuSans-7a" d="M 353 3500 
L 3084 3500 
L 3084 2975 
L 922 459 
L 3084 459 
L 3084 0 
L 275 0 
L 275 525 
L 2438 3041 
L 353 3041 
L 353 3500 
z
" transform="scale(0.015625)"/>
       <path id="DejaVuSans-29" d="M 513 4856 
L 1013 4856 
Q 1481 4119 1714 3412 
Q 1947 2706 1947 2009 
Q 1947 1309 1714 600 
Q 1481 -109 1013 -844 
L 513 -844 
Q 928 -128 1133 580 
Q 1338 1288 1338 2009 
Q 1338 2731 1133 3434 
Q 928 4138 513 4856 
z
" transform="scale(0.015625)"/>
      </defs>
      <use xlink:href="#DejaVuSans-56"/>
      <use xlink:href="#DejaVuSans-5f" x="68.408203"/>
      <use xlink:href="#DejaVuSans-4c" x="118.408203"/>
      <use xlink:href="#DejaVuSans-20" x="174.121094"/>
      <use xlink:href="#DejaVuSans-28" x="205.908203"/>
      <use xlink:href="#DejaVuSans-6c" x="244.921875"/>
      <use xlink:href="#DejaVuSans-6f" x="272.705078"/>
      <use xlink:href="#DejaVuSans-63" x="333.886719"/>
      <use xlink:href="#DejaVuSans-61" x="388.867188"/>
      <use xlink:href="#DejaVuSans-6c" x="450.146484"/>
      <use xlink:href="#DejaVuSans-20" x="477.929688"/>
      <use xlink:href="#DejaVuSans-72" x="509.716797"/>
      <use xlink:href="#DejaVuSans-65" x="548.580078"/>
      <use xlink:href="#DejaVuSans-66" x="610.103516"/>
      <use xlink:href="#DejaVuSans-2c" x="645.308594"/>
      <use xlink:href="#DejaVuSans-20" x="677.095703"/>
      <use xlink:href="#DejaVuSans-66" x="708.882812"/>
      <use xlink:href="#DejaVuSans-72" x="744.087891"/>
      <use xlink:href="#DejaVuSans-6f" x="782.951172"/>
      <use xlink:href="#DejaVuSans-7a" x="844.132812"/>
      <use xlink:href="#DejaVuSans-65" x="896.623047"/>
      <use xlink:href="#DejaVuSans-6e" x="958.146484"/>
      <use xlink:href="#DejaVuSans-29" x="1021.525391"/>
     </g>
    </g>
    <g id="line2d_17">
     <path d="M 146.789853 270.49775 
L 154.789853 270.49775 
L 162.789853 270.49775 
" style="fill: none; stroke: #1b9e77; stroke-width: 1.5; stroke-linecap: square"/>
     <g>
      <use xlink:href="#m66a666b2c5" x="154.789853" y="270.49775" style="fill: #1b9e77; stroke: #1b9e77"/>
     </g>
    </g>
    <g id="text_18">
     <!-- V_G (global, head-only) -->
     <g transform="translate(169.189853 273.29775) scale(0.08 -0.08)">
      <defs>
       <path id="DejaVuSans-47" d="M 3809 666 
L 3809 1919 
L 2778 1919 
L 2778 2438 
L 4434 2438 
L 4434 434 
Q 4069 175 3628 42 
Q 3188 -91 2688 -91 
Q 1594 -91 976 548 
Q 359 1188 359 2328 
Q 359 3472 976 4111 
Q 1594 4750 2688 4750 
Q 3144 4750 3555 4637 
Q 3966 4525 4313 4306 
L 4313 3634 
Q 3963 3931 3569 4081 
Q 3175 4231 2741 4231 
Q 1884 4231 1454 3753 
Q 1025 3275 1025 2328 
Q 1025 1384 1454 906 
Q 1884 428 2741 428 
Q 3075 428 3337 486 
Q 3600 544 3809 666 
z
" transform="scale(0.015625)"/>
       <path id="DejaVuSans-68" d="M 3513 2113 
L 3513 0 
L 2938 0 
L 2938 2094 
Q 2938 2591 2744 2837 
Q 2550 3084 2163 3084 
Q 1697 3084 1428 2787 
Q 1159 2491 1159 1978 
L 1159 0 
L 581 0 
L 581 4863 
L 1159 4863 
L 1159 2956 
Q 1366 3272 1645 3428 
Q 1925 3584 2291 3584 
Q 2894 3584 3203 3211 
Q 3513 2838 3513 2113 
z
" transform="scale(0.015625)"/>
       <path id="DejaVuSans-2d" d="M 313 2009 
L 1997 2009 
L 1997 1497 
L 313 1497 
L 313 2009 
z
" transform="scale(0.015625)"/>
       <path id="DejaVuSans-79" d="M 2059 -325 
Q 1816 -950 1584 -1140 
Q 1353 -1331 966 -1331 
L 506 -1331 
L 506 -850 
L 844 -850 
Q 1081 -850 1212 -737 
Q 1344 -625 1503 -206 
L 1606 56 
L 191 3500 
L 800 3500 
L 1894 763 
L 2988 3500 
L 3597 3500 
L 2059 -325 
z
" transform="scale(0.015625)"/>
      </defs>
      <use xlink:href="#DejaVuSans-56"/>
      <use xlink:href="#DejaVuSans-5f" x="68.408203"/>
      <use xlink:href="#DejaVuSans-47" x="118.408203"/>
      <use xlink:href="#DejaVuSans-20" x="195.898438"/>
      <use xlink:href="#DejaVuSans-28" x="227.685547"/>
      <use xlink:href="#DejaVuSans-67" x="266.699219"/>
      <use xlink:href="#DejaVuSans-6c" x="330.175781"/>
      <use xlink:href="#DejaVuSans-6f" x="357.958984"/>
      <use xlink:href="#DejaVuSans-62" x="419.140625"/>
      <use xlink:href="#DejaVuSans-61" x="482.617188"/>
      <use xlink:href="#DejaVuSans-6c" x="543.896484"/>
      <use xlink:href="#DejaVuSans-2c" x="571.679688"/>
      <use xlink:href="#DejaVuSans-20" x="603.466797"/>
      <use xlink:href="#DejaVuSans-68" x="635.253906"/>
      <use xlink:href="#DejaVuSans-65" x="698.632812"/>
      <use xlink:href="#DejaVuSans-61" x="760.15625"/>
      <use xlink:href="#DejaVuSans-64" x="821.435547"/>
      <use xlink:href="#DejaVuSans-2d" x="884.912109"/>
      <use xlink:href="#DejaVuSans-6f" x="922.871094"/>
      <use xlink:href="#DejaVuSans-6e" x="984.052734"/>
      <use xlink:href="#DejaVuSans-6c" x="1047.431641"/>
      <use xlink:href="#DejaVuSans-79" x="1075.214844"/>
      <use xlink:href="#DejaVuSans-29" x="1134.394531"/>
     </g>
    </g>
   </g>
  </g>
  <g id="axes_2">
   <g id="patch_8">
    <path d="M 315.560074 282.384 
L 542.042426 282.384 
L 542.042426 49.536 
L 315.560074 49.536 
z
" style="fill: #ffffff"/>
   </g>
   <g id="matplotlib.axis_3">
    <g id="xtick_6">
     <g id="line2d_18">
      <g>
       <use xlink:href="#m094e474f98" x="325.854726" y="282.384" style="stroke: #000000; stroke-width: 0.8"/>
      </g>
     </g>
     <g id="text_19">
      <!-- 0 -->
      <g transform="translate(322.673476 296.982438) scale(0.1 -0.1)">
       <use xlink:href="#DejaVuSans-30"/>
      </g>
     </g>
    </g>
    <g id="xtick_7">
     <g id="line2d_19">
      <g>
       <use xlink:href="#m094e474f98" x="377.39241" y="282.384" style="stroke: #000000; stroke-width: 0.8"/>
      </g>
     </g>
     <g id="text_20">
      <!-- 200 -->
      <g transform="translate(367.84866 296.982438) scale(0.1 -0.1)">
       <use xlink:href="#DejaVuSans-32"/>
       <use xlink:href="#DejaVuSans-30" x="63.623047"/>
       <use xlink:href="#DejaVuSans-30" x="127.246094"/>
      </g>
     </g>
    </g>
    <g id="xtick_8">
     <g id="line2d_20">
      <g>
       <use xlink:href="#m094e474f98" x="428.930094" y="282.384" style="stroke: #000000; stroke-width: 0.8"/>
      </g>
     </g>
     <g id="text_21">
      <!-- 400 -->
      <g transform="translate(419.386344 296.982438) scale(0.1 -0.1)">
       <use xlink:href="#DejaVuSans-34"/>
       <use xlink:href="#DejaVuSans-30" x="63.623047"/>
       <use xlink:href="#DejaVuSans-30" x="127.246094"/>
      </g>
     </g>
    </g>
    <g id="xtick_9">
     <g id="line2d_21">
      <g>
       <use xlink:href="#m094e474f98" x="480.467778" y="282.384" style="stroke: #000000; stroke-width: 0.8"/>
      </g>
     </g>
     <g id="text_22">
      <!-- 600 -->
      <g transform="translate(470.924028 296.982438) scale(0.1 -0.1)">
       <use xlink:href="#DejaVuSans-36"/>
       <use xlink:href="#DejaVuSans-30" x="63.623047"/>
       <use xlink:href="#DejaVuSans-30" x="127.246094"/>
      </g>
     </g>
    </g>
    <g id="xtick_10">
     <g id="line2d_22">
      <g>
       <use xlink:href="#m094e474f98" x="532.005462" y="282.384" style="stroke: #000000; stroke-width: 0.8"/>
      </g>
     </g>
     <g id="text_23">
      <!-- 800 -->
      <g transform="translate(522.461712 296.982438) scale(0.1 -0.1)">
       <use xlink:href="#DejaVuSans-38"/>
       <use xlink:href="#DejaVuSans-30" x="63.623047"/>
       <use xlink:href="#DejaVuSans-30" x="127.246094"/>
      </g>
     </g>
    </g>
    <g id="text_24">
     <!-- global iter -->
     <g transform="translate(403.480937 310.660563) scale(0.1 -0.1)">
      <use xlink:href="#DejaVuSans-67"/>
      <use xlink:href="#DejaVuSans-6c" x="63.476562"/>
      <use xlink:href="#DejaVuSans-6f" x="91.259766"/>
      <use xlink:href="#DejaVuSans-62" x="152.441406"/>
      <use xlink:href="#DejaVuSans-61" x="215.917969"/>
      <use xlink:href="#DejaVuSans-6c" x="277.197266"/>
      <use xlink:href="#DejaVuSans-20" x="304.980469"/>
      <use xlink:href="#DejaVuSans-69" x="336.767578"/>
      <use xlink:href="#DejaVuSans-74" x="364.550781"/>
      <use xlink:href="#DejaVuSans-65" x="403.759766"/>
      <use xlink:href="#DejaVuSans-72" x="465.283203"/>
     </g>
    </g>
   </g>
   <g id="matplotlib.axis_4">
    <g id="ytick_9">
     <g id="line2d_23">
      <g>
       <use xlink:href="#m074b21c2d1" x="315.560074" y="270.443379" style="stroke: #000000; stroke-width: 0.8"/>
      </g>
     </g>
     <g id="text_25">
      <!-- −1.25 -->
      <g transform="translate(277.914761 274.242597) scale(0.1 -0.1)">
       <defs>
        <path id="DejaVuSans-2212" d="M 678 2272 
L 4684 2272 
L 4684 1741 
L 678 1741 
L 678 2272 
z
" transform="scale(0.015625)"/>
        <path id="DejaVuSans-35" d="M 691 4666 
L 3169 4666 
L 3169 4134 
L 1269 4134 
L 1269 2991 
Q 1406 3038 1543 3061 
Q 1681 3084 1819 3084 
Q 2600 3084 3056 2656 
Q 3513 2228 3513 1497 
Q 3513 744 3044 326 
Q 2575 -91 1722 -91 
Q 1428 -91 1123 -41 
Q 819 9 494 109 
L 494 744 
Q 775 591 1075 516 
Q 1375 441 1709 441 
Q 2250 441 2565 725 
Q 2881 1009 2881 1497 
Q 2881 1984 2565 2268 
Q 2250 2553 1709 2553 
Q 1456 2553 1204 2497 
Q 953 2441 691 2322 
L 691 4666 
z
" transform="scale(0.015625)"/>
       </defs>
       <use xlink:href="#DejaVuSans-2212"/>
       <use xlink:href="#DejaVuSans-31" x="83.789062"/>
       <use xlink:href="#DejaVuSans-2e" x="147.412109"/>
       <use xlink:href="#DejaVuSans-32" x="179.199219"/>
       <use xlink:href="#DejaVuSans-35" x="242.822266"/>
      </g>
     </g>
    </g>
    <g id="ytick_10">
     <g id="line2d_24">
      <g>
       <use xlink:href="#m074b21c2d1" x="315.560074" y="240.71104" style="stroke: #000000; stroke-width: 0.8"/>
      </g>
     </g>
     <g id="text_26">
      <!-- −1.00 -->
      <g transform="translate(277.914761 244.510259) scale(0.1 -0.1)">
       <use xlink:href="#DejaVuSans-2212"/>
       <use xlink:href="#DejaVuSans-31" x="83.789062"/>
       <use xlink:href="#DejaVuSans-2e" x="147.412109"/>
       <use xlink:href="#DejaVuSans-30" x="179.199219"/>
       <use xlink:href="#DejaVuSans-30" x="242.822266"/>
      </g>
     </g>
    </g>
    <g id="ytick_11">
     <g id="line2d_25">
      <g>
       <use xlink:href="#m074b21c2d1" x="315.560074" y="210.978701" style="stroke: #000000; stroke-width: 0.8"/>
      </g>
     </g>
     <g id="text_27">
      <!-- −0.75 -->
      <g transform="translate(277.914761 214.77792) scale(0.1 -0.1)">
       <defs>
        <path id="DejaVuSans-37" d="M 525 4666 
L 3525 4666 
L 3525 4397 
L 1831 0 
L 1172 0 
L 2766 4134 
L 525 4134 
L 525 4666 
z
" transform="scale(0.015625)"/>
       </defs>
       <use xlink:href="#DejaVuSans-2212"/>
       <use xlink:href="#DejaVuSans-30" x="83.789062"/>
       <use xlink:href="#DejaVuSans-2e" x="147.412109"/>
       <use xlink:href="#DejaVuSans-37" x="179.199219"/>
       <use xlink:href="#DejaVuSans-35" x="242.822266"/>
      </g>
     </g>
    </g>
    <g id="ytick_12">
     <g id="line2d_26">
      <g>
       <use xlink:href="#m074b21c2d1" x="315.560074" y="181.246363" style="stroke: #000000; stroke-width: 0.8"/>
      </g>
     </g>
     <g id="text_28">
      <!-- −0.50 -->
      <g transform="translate(277.914761 185.045581) scale(0.1 -0.1)">
       <use xlink:href="#DejaVuSans-2212"/>
       <use xlink:href="#DejaVuSans-30" x="83.789062"/>
       <use xlink:href="#DejaVuSans-2e" x="147.412109"/>
       <use xlink:href="#DejaVuSans-35" x="179.199219"/>
       <use xlink:href="#DejaVuSans-30" x="242.822266"/>
      </g>
     </g>
    </g>
    <g id="ytick_13">
     <g id="line2d_27">
      <g>
       <use xlink:href="#m074b21c2d1" x="315.560074" y="151.514024" style="stroke: #000000; stroke-width: 0.8"/>
      </g>
     </g>
     <g id="text_29">
      <!-- −0.25 -->
      <g transform="translate(277.914761 155.313243) scale(0.1 -0.1)">
       <use xlink:href="#DejaVuSans-2212"/>
       <use xlink:href="#DejaVuSans-30" x="83.789062"/>
       <use xlink:href="#DejaVuSans-2e" x="147.412109"/>
       <use xlink:href="#DejaVuSans-32" x="179.199219"/>
       <use xlink:href="#DejaVuSans-35" x="242.822266"/>
      </g>
     </g>
    </g>
    <g id="ytick_14">
     <g id="line2d_28">
      <g>
       <use xlink:href="#m074b21c2d1" x="315.560074" y="121.781685" style="stroke: #000000; stroke-width: 0.8"/>
      </g>
     </g>
     <g id="text_30">
      <!-- 0.00 -->
      <g transform="translate(286.294449 125.580904) scale(0.1 -0.1)">
       <use xlink:href="#DejaVuSans-30"/>
       <use xlink:href="#DejaVuSans-2e" x="63.623047"/>
       <use xlink:href="#DejaVuSans-30" x="95.410156"/>
       <use xlink:href="#DejaVuSans-30" x="159.033203"/>
      </g>
     </g>
    </g>
    <g id="ytick_15">
     <g id="line2d_29">
      <g>
       <use xlink:href="#m074b21c2d1" x="315.560074" y="92.049347" style="stroke: #000000; stroke-width: 0.8"/>
      </g>
     </g>
     <g id="text_31">
      <!-- 0.25 -->
      <g transform="translate(286.294449 95.848565) scale(0.1 -0.1)">
       <use xlink:href="#DejaVuSans-30"/>
       <use xlink:href="#DejaVuSans-2e" x="63.623047"/>
       <use xlink:href="#DejaVuSans-32" x="95.410156"/>
       <use xlink:href="#DejaVuSans-35" x="159.033203"/>
      </g>
     </g>
    </g>
    <g id="ytick_16">
     <g id="line2d_30">
      <g>
       <use xlink:href="#m074b21c2d1" x="315.560074" y="62.317008" style="stroke: #000000; stroke-width: 0.8"/>
      </g>
     </g>
     <g id="text_32">
      <!-- 0.50 -->
      <g transform="translate(286.294449 66.116227) scale(0.1 -0.1)">
       <use xlink:href="#DejaVuSans-30"/>
       <use xlink:href="#DejaVuSans-2e" x="63.623047"/>
       <use xlink:href="#DejaVuSans-35" x="95.410156"/>
       <use xlink:href="#DejaVuSans-30" x="159.033203"/>
      </g>
     </g>
    </g>
    <g id="text_33">
     <!-- discounted value -->
     <g transform="translate(271.835074 208.731875) rotate(-90) scale(0.1 -0.1)">
      <use xlink:href="#DejaVuSans-64"/>
      <use xlink:href="#DejaVuSans-69" x="63.476562"/>
      <use xlink:href="#DejaVuSans-73" x="91.259766"/>
      <use xlink:href="#DejaVuSans-63" x="143.359375"/>
      <use xlink:href="#DejaVuSans-6f" x="198.339844"/>
      <use xlink:href="#DejaVuSans-75" x="259.521484"/>
      <use xlink:href="#DejaVuSans-6e" x="322.900391"/>
      <use xlink:href="#DejaVuSans-74" x="386.279297"/>
      <use xlink:href="#DejaVuSans-65" x="425.488281"/>
      <use xlink:href="#DejaVuSans-64" x="487.011719"/>
      <use xlink:href="#DejaVuSans-20" x="550.488281"/>
      <use xlink:href="#DejaVuSans-76" x="582.275391"/>
      <use xlink:href="#DejaVuSans-61" x="641.455078"/>
      <use xlink:href="#DejaVuSans-6c" x="702.734375"/>
      <use xlink:href="#DejaVuSans-75" x="730.517578"/>
      <use xlink:href="#DejaVuSans-65" x="793.896484"/>
     </g>
    </g>
   </g>
   <g id="line2d_31">
    <path d="M 325.854726 145.151338 
L 332.296936 145.151338 
L 338.739147 145.151338 
L 345.181357 145.151338 
L 351.623568 145.151338 
L 358.065779 145.151338 
L 364.250301 145.151338 
L 364.507989 145.151338 
L 370.9502 145.151338 
L 377.134722 145.151338 
L 377.39241 145.151338 
L 383.834621 145.151338 
L 390.019143 145.151338 
L 390.276831 145.151338 
L 396.719042 145.151338 
L 402.903564 145.151338 
L 403.161252 145.151338 
L 409.603463 145.151338 
L 415.787985 145.151338 
L 416.045673 145.151338 
L 422.487884 145.151338 
L 428.672406 145.151338 
L 428.930094 145.151338 
L 435.372305 145.151338 
L 441.556827 145.151338 
L 441.814515 145.151338 
L 448.256726 145.151338 
L 454.441248 145.151338 
L 454.698936 145.151338 
L 461.141147 145.151338 
L 467.325669 145.151338 
L 467.583357 145.151338 
L 474.025568 145.151338 
L 480.21009 145.151338 
L 480.467778 145.151338 
L 486.909989 145.151338 
L 493.094511 145.151338 
L 493.352199 145.151338 
L 499.79441 145.151338 
L 505.978932 145.151338 
L 506.23662 145.151338 
L 512.678831 145.151338 
L 518.863353 145.151338 
L 519.121041 145.151338 
L 525.563252 145.151338 
L 531.747774 145.151338 
" clip-path="url(#pbaece7a9b7)" style="fill: none; stroke-dasharray: 7.4,3.2; stroke-dashoffset: 0; stroke: #333333; stroke-width: 2"/>
   </g>
   <g id="line2d_32">
    <path d="M 325.854726 63.737616 
L 332.296936 153.003918 
L 338.739147 122.628198 
L 345.181357 123.189506 
L 351.623568 174.929982 
L 358.065779 76.220515 
L 364.250301 76.220515 
L 364.507989 60.12 
L 370.9502 150.283944 
L 377.134722 150.283944 
L 377.39241 271.8 
L 383.834621 158.210404 
L 390.019143 158.210404 
L 390.276831 170.006231 
L 396.719042 180.376294 
L 402.903564 180.376294 
L 403.161252 203.996363 
L 409.603463 250.521035 
L 415.787985 250.521035 
L 416.045673 92.951891 
L 422.487884 110.636304 
L 428.672406 110.636304 
L 428.930094 150.994343 
L 435.372305 145.146026 
L 441.556827 145.146026 
L 441.814515 224.648282 
L 448.256726 169.713208 
L 454.441248 169.713208 
L 454.698936 143.485202 
L 461.141147 98.84288 
L 467.325669 98.84288 
L 467.583357 157.576191 
L 474.025568 131.337292 
L 480.21009 131.337292 
L 480.467778 137.798181 
L 486.909989 72.077386 
L 493.094511 72.077386 
L 493.352199 169.503162 
L 499.79441 106.792893 
L 505.978932 106.792893 
L 506.23662 156.450486 
L 512.678831 197.209929 
L 518.863353 197.209929 
L 519.121041 132.782205 
L 525.563252 100.496817 
L 531.747774 100.496817 
" clip-path="url(#pbaece7a9b7)" style="fill: none; stroke: #1b9e77; stroke-width: 1.5; stroke-linecap: square"/>
    <g clip-path="url(#pbaece7a9b7)">
     <use xlink:href="#m66a666b2c5" x="325.854726" y="63.737616" style="fill: #1b9e77; stroke: #1b9e77"/>
     <use xlink:href="#m66a666b2c5" x="332.296936" y="153.003918" style="fill: #1b9e77; stroke: #1b9e77"/>
     <use xlink:href="#m66a666b2c5" x="338.739147" y="122.628198" style="fill: #1b9e77; stroke: #1b9e77"/>
     <use xlink:href="#m66a666b2c5" x="345.181357" y="123.189506" style="fill: #1b9e77; stroke: #1b9e77"/>
     <use xlink:href="#m66a666b2c5" x="351.623568" y="174.929982" style="fill: #1b9e77; stroke: #1b9e77"/>
     <use xlink:href="#m66a666b2c5" x="358.065779" y="76.220515" style="fill: #1b9e77; stroke: #1b9e77"/>
     <use xlink:href="#m66a666b2c5" x="364.250301" y="76.220515" style="fill: #1b9e77; stroke: #1b9e77"/>
     <use xlink:href="#m66a666b2c5" x="364.507989" y="60.12" style="fill: #1b9e77; stroke: #1b9e77"/>
     <use xlink:href="#m66a666b2c5" x="370.9502" y="150.283944" style="fill: #1b9e77; stroke: #1b9e77"/>
     <use xlink:href="#m66a666b2c5" x="377.134722" y="150.283944" style="fill: #1b9e77; stroke: #1b9e77"/>
     <use xlink:href="#m66a666b2c5" x="377.39241" y="271.8" style="fill: #1b9e77; stroke: #1b9e77"/>
     <use xlink:href="#m66a666b2c5" x="383.834621" y="158.210404" style="fill: #1b9e77; stroke: #1b9e77"/>
     <use xlink:href="#m66a666b2c5" x="390.019143" y="158.210404" style="fill: #1b9e77; stroke: #1b9e77"/>
     <use xlink:href="#m66a666b2c5" x="390.276831" y="170.006231" style="fill: #1b9e77; stroke: #1b9e77"/>
     <use xlink:href="#m66a666b2c5" x="396.719042" y="180.376294" style="fill: #1b9e77; stroke: #1b9e77"/>
     <use xlink:href="#m66a666b2c5" x="402.903564" y="180.376294" style="fill: #1b9e77; stroke: #1b9e77"/>
     <use xlink:href="#m66a666b2c5" x="403.161252" y="203.996363" style="fill: #1b9e77; stroke: #1b9e77"/>
     <use xlink:href="#m66a666b2c5" x="409.603463" y="250.521035" style="fill: #1b9e77; stroke: #1b9e77"/>
     <use xlink:href="#m66a666b2c5" x="415.787985" y="250.521035" style="fill: #1b9e77; stroke: #1b9e77"/>
     <use xlink:href="#m66a666b2c5" x="416.045673" y="92.951891" style="fill: #1b9e77; stroke: #1b9e77"/>
     <use xlink:href="#m66a666b2c5" x="422.487884" y="110.636304" style="fill: #1b9e77; stroke: #1b9e77"/>
     <use xlink:href="#m66a666b2c5" x="428.672406" y="110.636304" style="fill: #1b9e77; stroke: #1b9e77"/>
     <use xlink:href="#m66a666b2c5" x="428.930094" y="150.994343" style="fill: #1b9e77; stroke: #1b9e77"/>
     <use xlink:href="#m66a666b2c5" x="435.372305" y="145.146026" style="fill: #1b9e77; stroke: #1b9e77"/>
     <use xlink:href="#m66a666b2c5" x="441.556827" y="145.146026" style="fill: #1b9e77; stroke: #1b9e77"/>
     <use xlink:href="#m66a666b2c5" x="441.814515" y="224.648282" style="fill: #1b9e77; stroke: #1b9e77"/>
     <use xlink:href="#m66a666b2c5" x="448.256726" y="169.713208" style="fill: #1b9e77; stroke: #1b9e77"/>
     <use xlink:href="#m66a666b2c5" x="454.441248" y="169.713208" style="fill: #1b9e77; stroke: #1b9e77"/>
     <use xlink:href="#m66a666b2c5" x="454.698936" y="143.485202" style="fill: #1b9e77; stroke: #1b9e77"/>
     <use xlink:href="#m66a666b2c5" x="461.141147" y="98.84288" style="fill: #1b9e77; stroke: #1b9e77"/>
     <use xlink:href="#m66a666b2c5" x="467.325669" y="98.84288" style="fill: #1b9e77; stroke: #1b9e77"/>
     <use xlink:href="#m66a666b2c5" x="467.583357" y="157.576191" style="fill: #1b9e77; stroke: #1b9e77"/>
     <use xlink:href="#m66a666b2c5" x="474.025568" y="131.337292" style="fill: #1b9e77; stroke: #1b9e77"/>
     <use xlink:href="#m66a666b2c5" x="480.21009" y="131.337292" style="fill: #1b9e77; stroke: #1b9e77"/>
     <use xlink:href="#m66a666b2c5" x="480.467778" y="137.798181" style="fill: #1b9e77; stroke: #1b9e77"/>
     <use xlink:href="#m66a666b2c5" x="486.909989" y="72.077386" style="fill: #1b9e77; stroke: #1b9e77"/>
     <use xlink:href="#m66a666b2c5" x="493.094511" y="72.077386" style="fill: #1b9e77; stroke: #1b9e77"/>
     <use xlink:href="#m66a666b2c5" x="493.352199" y="169.503162" style="fill: #1b9e77; stroke: #1b9e77"/>
     <use xlink:href="#m66a666b2c5" x="499.79441" y="106.792893" style="fill: #1b9e77; stroke: #1b9e77"/>
     <use xlink:href="#m66a666b2c5" x="505.978932" y="106.792893" style="fill: #1b9e77; stroke: #1b9e77"/>
     <use xlink:href="#m66a666b2c5" x="506.23662" y="156.450486" style="fill: #1b9e77; stroke: #1b9e77"/>
     <use xlink:href="#m66a666b2c5" x="512.678831" y="197.209929" style="fill: #1b9e77; stroke: #1b9e77"/>
     <use xlink:href="#m66a666b2c5" x="518.863353" y="197.209929" style="fill: #1b9e77; stroke: #1b9e77"/>
     <use xlink:href="#m66a666b2c5" x="519.121041" y="132.782205" style="fill: #1b9e77; stroke: #1b9e77"/>
     <use xlink:href="#m66a666b2c5" x="525.563252" y="100.496817" style="fill: #1b9e77; stroke: #1b9e77"/>
     <use xlink:href="#m66a666b2c5" x="531.747774" y="100.496817" style="fill: #1b9e77; stroke: #1b9e77"/>
    </g>
   </g>
   <g id="patch_9">
    <path d="M 315.560074 282.384 
L 315.560074 49.536 
" style="fill: none; stroke: #000000; stroke-width: 0.8; stroke-linejoin: miter; stroke-linecap: square"/>
   </g>
   <g id="patch_10">
    <path d="M 542.042426 282.384 
L 542.042426 49.536 
" style="fill: none; stroke: #000000; stroke-width: 0.8; stroke-linejoin: miter; stroke-linecap: square"/>
   </g>
   <g id="patch_11">
    <path d="M 315.560074 282.384 
L 542.042426 282.384 
" style="fill: none; stroke: #000000; stroke-width: 0.8; stroke-linejoin: miter; stroke-linecap: square"/>
   </g>
   <g id="patch_12">
    <path d="M 315.560074 49.536 
L 542.042426 49.536 
" style="fill: none; stroke: #000000; stroke-width: 0.8; stroke-linejoin: miter; stroke-linecap: square"/>
   </g>
   <g id="text_34">
    <!-- task 3: Boxing -->
    <g transform="translate(386.089687 43.536) scale(0.12 -0.12)">
     <defs>
      <path id="DejaVuSans-33" d="M 2597 2516 
Q 3050 2419 3304 2112 
Q 3559 1806 3559 1356 
Q 3559 666 3084 287 
Q 2609 -91 1734 -91 
Q 1441 -91 1130 -33 
Q 819 25 488 141 
L 488 750 
Q 750 597 1062 519 
Q 1375 441 1716 441 
Q 2309 441 2620 675 
Q 2931 909 2931 1356 
Q 2931 1769 2642 2001 
Q 2353 2234 1838 2234 
L 1294 2234 
L 1294 2753 
L 1863 2753 
Q 2328 2753 2575 2939 
Q 2822 3125 2822 3475 
Q 2822 3834 2567 4026 
Q 2313 4219 1838 4219 
Q 1578 4219 1281 4162 
Q 984 4106 628 3988 
L 628 4550 
Q 988 4650 1302 4700 
Q 1616 4750 1894 4750 
Q 2613 4750 3031 4423 
Q 3450 4097 3450 3541 
Q 3450 3153 3228 2886 
Q 3006 2619 2597 2516 
z
" transform="scale(0.015625)"/>
      <path id="DejaVuSans-78" d="M 3513 3500 
L 2247 1797 
L 3578 0 
L 2900 0 
L 1881 1375 
L 863 0 
L 184 0 
L 1544 1831 
L 300 3500 
L 978 3500 
L 1906 2253 
L 2834 3500 
L 3513 3500 
z
" transform="scale(0.015625)"/>
     </defs>
     <use xlink:href="#DejaVuSans-74"/>
     <use xlink:href="#DejaVuSans-61" x="39.208984"/>
     <use xlink:href="#DejaVuSans-73" x="100.488281"/>
     <use xlink:href="#DejaVuSans-6b" x="152.587891"/>
     <use xlink:href="#DejaVuSans-20" x="210.498047"/>
     <use xlink:href="#DejaVuSans-33" x="242.285156"/>
     <use xlink:href="#DejaVuSans-3a" x="305.908203"/>
     <use xlink:href="#DejaVuSans-20" x="339.599609"/>
     <use xlink:href="#DejaVuSans-42" x="371.386719"/>
     <use xlink:href="#DejaVuSans-6f" x="439.990234"/>
     <use xlink:href="#DejaVuSans-78" x="498.046875"/>
     <use xlink:href="#DejaVuSans-69" x="557.226562"/>
     <use xlink:href="#DejaVuSans-6e" x="585.009766"/>
     <use xlink:href="#DejaVuSans-67" x="648.388672"/>
    </g>
   </g>
   <g id="legend_2">
    <g id="patch_13">
     <path d="M 416.968676 278.384 
L 536.442426 278.384 
Q 538.042426 278.384 538.042426 276.784 
L 538.042426 253.654 
Q 538.042426 252.054 536.442426 252.054 
L 416.968676 252.054 
Q 415.368676 252.054 415.368676 253.654 
L 415.368676 276.784 
Q 415.368676 278.384 416.968676 278.384 
z
" style="fill: #ffffff; opacity: 0.8; stroke: #cccccc; stroke-linejoin: miter"/>
    </g>
    <g id="line2d_33">
     <path d="M 418.568676 258.53275 
L 426.568676 258.53275 
L 434.568676 258.53275 
" style="fill: none; stroke-dasharray: 7.4,3.2; stroke-dashoffset: 0; stroke: #333333; stroke-width: 2"/>
    </g>
    <g id="text_35">
     <!-- V_L (local ref, frozen) -->
     <g transform="translate(440.968676 261.33275) scale(0.08 -0.08)">
      <use xlink:href="#DejaVuSans-56"/>
      <use xlink:href="#DejaVuSans-5f" x="68.408203"/>
      <use xlink:href="#DejaVuSans-4c" x="118.408203"/>
      <use xlink:href="#DejaVuSans-20" x="174.121094"/>
      <use xlink:href="#DejaVuSans-28" x="205.908203"/>
      <use xlink:href="#DejaVuSans-6c" x="244.921875"/>
      <use xlink:href="#DejaVuSans-6f" x="272.705078"/>
      <use xlink:href="#DejaVuSans-63" x="333.886719"/>
      <use xlink:href="#DejaVuSans-61" x="388.867188"/>
      <use xlink:href="#DejaVuSans-6c" x="450.146484"/>
      <use xlink:href="#DejaVuSans-20" x="477.929688"/>
      <use xlink:href="#DejaVuSans-72" x="509.716797"/>
      <use xlink:href="#DejaVuSans-65" x="548.580078"/>
      <use xlink:href="#DejaVuSans-66" x="610.103516"/>
      <use xlink:href="#DejaVuSans-2c" x="645.308594"/>
      <use xlink:href="#DejaVuSans-20" x="677.095703"/>
      <use xlink:href="#DejaVuSans-66" x="708.882812"/>
      <use xlink:href="#DejaVuSans-72" x="744.087891"/>
      <use xlink:href="#DejaVuSans-6f" x="782.951172"/>
      <use xlink:href="#DejaVuSans-7a" x="844.132812"/>
      <use xlink:href="#DejaVuSans-65" x="896.623047"/>
      <use xlink:href="#DejaVuSans-6e" x="958.146484"/>
      <use xlink:href="#DejaVuSans-29" x="1021.525391"/>
     </g>
    </g>
    <g id="line2d_34">
     <path d="M 418.568676 270.49775 
L 426.568676 270.49775 
L 434.568676 270.49775 
" style="fill: none; stroke: #1b9e77; stroke-width: 1.5; stroke-linecap: square"/>
     <g>
      <use xlink:href="#m66a666b2c5" x="426.568676" y="270.49775" style="fill: #1b9e77; stroke: #1b9e77"/>
     </g>
    </g>
    <g id="text_36">
     <!-- V_G (global, head-only) -->
     <g transform="translate(440.968676 273.29775) scale(0.08 -0.08)">
      <use xlink:href="#DejaVuSans-56"/>
      <use xlink:href="#DejaVuSans-5f" x="68.408203"/>
      <use xlink:href="#DejaVuSans-47" x="118.408203"/>
      <use xlink:href="#DejaVuSans-20" x="195.898438"/>
      <use xlink:href="#DejaVuSans-28" x="227.685547"/>
      <use xlink:href="#DejaVuSans-67" x="266.699219"/>
      <use xlink:href="#DejaVuSans-6c" x="330.175781"/>
      <use xlink:href="#DejaVuSans-6f" x="357.958984"/>
      <use xlink:href="#DejaVuSans-62" x="419.140625"/>
      <use xlink:href="#DejaVuSans-61" x="482.617188"/>
      <use xlink:href="#DejaVuSans-6c" x="543.896484"/>
      <use xlink:href="#DejaVuSans-2c" x="571.679688"/>
      <use xlink:href="#DejaVuSans-20" x="603.466797"/>
      <use xlink:href="#DejaVuSans-68" x="635.253906"/>
      <use xlink:href="#DejaVuSans-65" x="698.632812"/>
      <use xlink:href="#DejaVuSans-61" x="760.15625"/>
      <use xlink:href="#DejaVuSans-64" x="821.435547"/>
      <use xlink:href="#DejaVuSans-2d" x="884.912109"/>
      <use xlink:href="#DejaVuSans-6f" x="922.871094"/>
      <use xlink:href="#DejaVuSans-6e" x="984.052734"/>
      <use xlink:href="#DejaVuSans-6c" x="1047.431641"/>
      <use xlink:href="#DejaVuSans-79" x="1075.214844"/>
      <use xlink:href="#DejaVuSans-29" x="1134.394531"/>
     </g>
    </g>
   </g>
  </g>
  <g id="axes_3">
   <g id="patch_14">
    <path d="M 587.338897 282.384 
L 813.82125 282.384 
L 813.82125 49.536 
L 587.338897 49.536 
z
" style="fill: #ffffff"/>
   </g>
   <g id="matplotlib.axis_5">
    <g id="xtick_11">
     <g id="line2d_35">
      <g>
       <use xlink:href="#m094e474f98" x="597.633549" y="282.384" style="stroke: #000000; stroke-width: 0.8"/>
      </g>
     </g>
     <g id="text_37">
      <!-- 0 -->
      <g transform="translate(594.452299 296.982438) scale(0.1 -0.1)">
       <use xlink:href="#DejaVuSans-30"/>
      </g>
     </g>
    </g>
    <g id="xtick_12">
     <g id="line2d_36">
      <g>
       <use xlink:href="#m094e474f98" x="649.171234" y="282.384" style="stroke: #000000; stroke-width: 0.8"/>
      </g>
     </g>
     <g id="text_38">
      <!-- 200 -->
      <g transform="translate(639.627484 296.982438) scale(0.1 -0.1)">
       <use xlink:href="#DejaVuSans-32"/>
       <use xlink:href="#DejaVuSans-30" x="63.623047"/>
       <use xlink:href="#DejaVuSans-30" x="127.246094"/>
      </g>
     </g>
    </g>
    <g id="xtick_13">
     <g id="line2d_37">
      <g>
       <use xlink:href="#m094e474f98" x="700.708918" y="282.384" style="stroke: #000000; stroke-width: 0.8"/>
      </g>
     </g>
     <g id="text_39">
      <!-- 400 -->
      <g transform="translate(691.165168 296.982438) scale(0.1 -0.1)">
       <use xlink:href="#DejaVuSans-34"/>
       <use xlink:href="#DejaVuSans-30" x="63.623047"/>
       <use xlink:href="#DejaVuSans-30" x="127.246094"/>
      </g>
     </g>
    </g>
    <g id="xtick_14">
     <g id="line2d_38">
      <g>
       <use xlink:href="#m094e474f98" x="752.246602" y="282.384" style="stroke: #000000; stroke-width: 0.8"/>
      </g>
     </g>
     <g id="text_40">
      <!-- 600 -->
      <g transform="translate(742.702852 296.982438) scale(0.1 -0.1)">
       <use xlink:href="#DejaVuSans-36"/>
       <use xlink:href="#DejaVuSans-30" x="63.623047"/>
       <use xlink:href="#DejaVuSans-30" x="127.246094"/>
      </g>
     </g>
    </g>
    <g id="xtick_15">
     <g id="line2d_39">
      <g>
       <use xlink:href="#m094e474f98" x="803.784286" y="282.384" style="stroke: #000000; stroke-width: 0.8"/>
      </g>
     </g>
     <g id="text_41">
      <!-- 800 -->
      <g transform="translate(794.240536 296.982438) scale(0.1 -0.1)">
       <use xlink:href="#DejaVuSans-38"/>
       <use xlink:href="#DejaVuSans-30" x="63.623047"/>
       <use xlink:href="#DejaVuSans-30" x="127.246094"/>
      </g>
     </g>
    </g>
    <g id="text_42">
     <!-- global iter -->
     <g transform="translate(675.259761 310.660563) scale(0.1 -0.1)">
      <use xlink:href="#DejaVuSans-67"/>
      <use xlink:href="#DejaVuSans-6c" x="63.476562"/>
      <use xlink:href="#DejaVuSans-6f" x="91.259766"/>
      <use xlink:href="#DejaVuSans-62" x="152.441406"/>
      <use xlink:href="#DejaVuSans-61" x="215.917969"/>
      <use xlink:href="#DejaVuSans-6c" x="277.197266"/>
      <use xlink:href="#DejaVuSans-20" x="304.980469"/>
      <use xlink:href="#DejaVuSans-69" x="336.767578"/>
      <use xlink:href="#DejaVuSans-74" x="364.550781"/>
      <use xlink:href="#DejaVuSans-65" x="403.759766"/>
      <use xlink:href="#DejaVuSans-72" x="465.283203"/>
     </g>
    </g>
   </g>
   <g id="matplotlib.axis_6">
    <g id="ytick_17">
     <g id="line2d_40">
      <g>
       <use xlink:href="#m074b21c2d1" x="587.338897" y="268.124033" style="stroke: #000000; stroke-width: 0.8"/>
      </g>
     </g>
     <g id="text_43">
      <!-- 1.6 -->
      <g transform="translate(564.435772 271.923252) scale(0.1 -0.1)">
       <use xlink:href="#DejaVuSans-31"/>
       <use xlink:href="#DejaVuSans-2e" x="63.623047"/>
       <use xlink:href="#DejaVuSans-36" x="95.410156"/>
      </g>
     </g>
    </g>
    <g id="ytick_18">
     <g id="line2d_41">
      <g>
       <use xlink:href="#m074b21c2d1" x="587.338897" y="240.013196" style="stroke: #000000; stroke-width: 0.8"/>
      </g>
     </g>
     <g id="text_44">
      <!-- 1.8 -->
      <g transform="translate(564.435772 243.812415) scale(0.1 -0.1)">
       <use xlink:href="#DejaVuSans-31"/>
       <use xlink:href="#DejaVuSans-2e" x="63.623047"/>
       <use xlink:href="#DejaVuSans-38" x="95.410156"/>
      </g>
     </g>
    </g>
    <g id="ytick_19">
     <g id="line2d_42">
      <g>
       <use xlink:href="#m074b21c2d1" x="587.338897" y="211.902359" style="stroke: #000000; stroke-width: 0.8"/>
      </g>
     </g>
     <g id="text_45">
      <!-- 2.0 -->
      <g transform="translate(564.435772 215.701578) scale(0.1 -0.1)">
       <use xlink:href="#DejaVuSans-32"/>
       <use xlink:href="#DejaVuSans-2e" x="63.623047"/>
       <use xlink:href="#DejaVuSans-30" x="95.410156"/>
      </g>
     </g>
    </g>
    <g id="ytick_20">
     <g id="line2d_43">
      <g>
       <use xlink:href="#m074b21c2d1" x="587.338897" y="183.791522" style="stroke: #000000; stroke-width: 0.8"/>
      </g>
     </g>
     <g id="text_46">
      <!-- 2.2 -->
      <g transform="translate(564.435772 187.590741) scale(0.1 -0.1)">
       <use xlink:href="#DejaVuSans-32"/>
       <use xlink:href="#DejaVuSans-2e" x="63.623047"/>
       <use xlink:href="#DejaVuSans-32" x="95.410156"/>
      </g>
     </g>
    </g>
    <g id="ytick_21">
     <g id="line2d_44">
      <g>
       <use xlink:href="#m074b21c2d1" x="587.338897" y="155.680685" style="stroke: #000000; stroke-width: 0.8"/>
      </g>
     </g>
     <g id="text_47">
      <!-- 2.4 -->
      <g transform="translate(564.435772 159.479904) scale(0.1 -0.1)">
       <use xlink:href="#DejaVuSans-32"/>
       <use xlink:href="#DejaVuSans-2e" x="63.623047"/>
       <use xlink:href="#DejaVuSans-34" x="95.410156"/>
      </g>
     </g>
    </g>
    <g id="ytick_22">
     <g id="line2d_45">
      <g>
       <use xlink:href="#m074b21c2d1" x="587.338897" y="127.569848" style="stroke: #000000; stroke-width: 0.8"/>
      </g>
     </g>
     <g id="text_48">
      <!-- 2.6 -->
      <g transform="translate(564.435772 131.369067) scale(0.1 -0.1)">
       <use xlink:href="#DejaVuSans-32"/>
       <use xlink:href="#DejaVuSans-2e" x="63.623047"/>
       <use xlink:href="#DejaVuSans-36" x="95.410156"/>
      </g>
     </g>
    </g>
    <g id="ytick_23">
     <g id="line2d_46">
      <g>
       <use xlink:href="#m074b21c2d1" x="587.338897" y="99.459012" style="stroke: #000000; stroke-width: 0.8"/>
      </g>
     </g>
     <g id="text_49">
      <!-- 2.8 -->
      <g transform="translate(564.435772 103.25823) scale(0.1 -0.1)">
       <use xlink:href="#DejaVuSans-32"/>
       <use xlink:href="#DejaVuSans-2e" x="63.623047"/>
       <use xlink:href="#DejaVuSans-38" x="95.410156"/>
      </g>
     </g>
    </g>
    <g id="ytick_24">
     <g id="line2d_47">
      <g>
       <use xlink:href="#m074b21c2d1" x="587.338897" y="71.348175" style="stroke: #000000; stroke-width: 0.8"/>
      </g>
     </g>
     <g id="text_50">
      <!-- 3.0 -->
      <g transform="translate(564.435772 75.147393) scale(0.1 -0.1)">
       <use xlink:href="#DejaVuSans-33"/>
       <use xlink:href="#DejaVuSans-2e" x="63.623047"/>
       <use xlink:href="#DejaVuSans-30" x="95.410156"/>
      </g>
     </g>
    </g>
    <g id="text_51">
     <!-- discounted value -->
     <g transform="translate(558.356085 208.731875) rotate(-90) scale(0.1 -0.1)">
      <use xlink:href="#DejaVuSans-64"/>
      <use xlink:href="#DejaVuSans-69" x="63.476562"/>
      <use xlink:href="#DejaVuSans-73" x="91.259766"/>
      <use xlink:href="#DejaVuSans-63" x="143.359375"/>
      <use xlink:href="#DejaVuSans-6f" x="198.339844"/>
      <use xlink:href="#DejaVuSans-75" x="259.521484"/>
      <use xlink:href="#DejaVuSans-6e" x="322.900391"/>
      <use xlink:href="#DejaVuSans-74" x="386.279297"/>
      <use xlink:href="#DejaVuSans-65" x="425.488281"/>
      <use xlink:href="#DejaVuSans-64" x="487.011719"/>
      <use xlink:href="#DejaVuSans-20" x="550.488281"/>
      <use xlink:href="#DejaVuSans-76" x="582.275391"/>
      <use xlink:href="#DejaVuSans-61" x="641.455078"/>
      <use xlink:href="#DejaVuSans-6c" x="702.734375"/>
      <use xlink:href="#DejaVuSans-75" x="730.517578"/>
      <use xlink:href="#DejaVuSans-65" x="793.896484"/>
     </g>
    </g>
   </g>
   <g id="line2d_48">
    <path d="M 597.633549 129.823108 
L 604.07576 129.823108 
L 610.51797 129.823108 
L 616.960181 129.823108 
L 623.402392 129.823108 
L 629.844602 129.823108 
L 636.029124 129.823108 
L 636.286813 129.823108 
L 642.729023 129.823108 
L 648.913545 129.823108 
L 649.171234 129.823108 
L 655.613444 129.823108 
L 661.797966 129.823108 
L 662.055655 129.823108 
L 668.497865 129.823108 
L 674.682387 129.823108 
L 674.940076 129.823108 
L 681.382286 129.823108 
L 687.566808 129.823108 
L 687.824497 129.823108 
L 694.266707 129.823108 
L 700.451229 129.823108 
L 700.708918 129.823108 
L 707.151128 129.823108 
L 713.33565 129.823108 
L 713.593339 129.823108 
L 720.035549 129.823108 
L 726.220071 129.823108 
L 726.47776 129.823108 
L 732.91997 129.823108 
L 739.104492 129.823108 
L 739.362181 129.823108 
L 745.804391 129.823108 
L 751.988913 129.823108 
L 752.246602 129.823108 
L 758.688812 129.823108 
L 764.873334 129.823108 
L 765.131023 129.823108 
L 771.573233 129.823108 
L 777.757756 129.823108 
L 778.015444 129.823108 
L 784.457654 129.823108 
L 790.642177 129.823108 
L 790.899865 129.823108 
L 797.342075 129.823108 
L 803.526598 129.823108 
" clip-path="url(#pa0390d154e)" style="fill: none; stroke-dasharray: 7.4,3.2; stroke-dashoffset: 0; stroke: #333333; stroke-width: 2"/>
   </g>
   <g id="line2d_49">
    <path d="M 597.633549 180.633995 
L 604.07576 227.787805 
L 610.51797 119.110335 
L 616.960181 176.63605 
L 623.402392 176.943928 
L 629.844602 206.207141 
L 636.029124 206.207141 
L 636.286813 184.617628 
L 642.729023 116.633725 
L 648.913545 116.633725 
L 649.171234 122.868189 
L 655.613444 205.13487 
L 661.797966 205.13487 
L 662.055655 179.61223 
L 668.497865 271.8 
L 674.682387 271.8 
L 674.940076 186.975169 
L 681.382286 201.32102 
L 687.566808 201.32102 
L 687.824497 79.355717 
L 694.266707 168.642242 
L 700.451229 168.642242 
L 700.708918 196.836501 
L 707.151128 124.475499 
L 713.33565 124.475499 
L 713.593339 154.945935 
L 720.035549 145.239444 
L 726.220071 145.239444 
L 726.47776 119.323722 
L 732.91997 60.12 
L 739.104492 60.12 
L 739.362181 215.651964 
L 745.804391 135.231632 
L 751.988913 135.231632 
L 752.246602 126.687421 
L 758.688812 136.267555 
L 764.873334 136.267555 
L 765.131023 162.669125 
L 771.573233 134.746874 
L 777.757756 134.746874 
L 778.015444 97.978961 
L 784.457654 165.799979 
L 790.642177 165.799979 
L 790.899865 88.990314 
L 797.342075 161.116389 
L 803.526598 161.116389 
" clip-path="url(#pa0390d154e)" style="fill: none; stroke: #1b9e77; stroke-width: 1.5; stroke-linecap: square"/>
    <g clip-path="url(#pa0390d154e)">
     <use xlink:href="#m66a666b2c5" x="597.633549" y="180.633995" style="fill: #1b9e77; stroke: #1b9e77"/>
     <use xlink:href="#m66a666b2c5" x="604.07576" y="227.787805" style="fill: #1b9e77; stroke: #1b9e77"/>
     <use xlink:href="#m66a666b2c5" x="610.51797" y="119.110335" style="fill: #1b9e77; stroke: #1b9e77"/>
     <use xlink:href="#m66a666b2c5" x="616.960181" y="176.63605" style="fill: #1b9e77; stroke: #1b9e77"/>
     <use xlink:href="#m66a666b2c5" x="623.402392" y="176.943928" style="fill: #1b9e77; stroke: #1b9e77"/>
     <use xlink:href="#m66a666b2c5" x="629.844602" y="206.207141" style="fill: #1b9e77; stroke: #1b9e77"/>
     <use xlink:href="#m66a666b2c5" x="636.029124" y="206.207141" style="fill: #1b9e77; stroke: #1b9e77"/>
     <use xlink:href="#m66a666b2c5" x="636.286813" y="184.617628" style="fill: #1b9e77; stroke: #1b9e77"/>
     <use xlink:href="#m66a666b2c5" x="642.729023" y="116.633725" style="fill: #1b9e77; stroke: #1b9e77"/>
     <use xlink:href="#m66a666b2c5" x="648.913545" y="116.633725" style="fill: #1b9e77; stroke: #1b9e77"/>
     <use xlink:href="#m66a666b2c5" x="649.171234" y="122.868189" style="fill: #1b9e77; stroke: #1b9e77"/>
     <use xlink:href="#m66a666b2c5" x="655.613444" y="205.13487" style="fill: #1b9e77; stroke: #1b9e77"/>
     <use xlink:href="#m66a666b2c5" x="661.797966" y="205.13487" style="fill: #1b9e77; stroke: #1b9e77"/>
     <use xlink:href="#m66a666b2c5" x="662.055655" y="179.61223" style="fill: #1b9e77; stroke: #1b9e77"/>
     <use xlink:href="#m66a666b2c5" x="668.497865" y="271.8" style="fill: #1b9e77; stroke: #1b9e77"/>
     <use xlink:href="#m66a666b2c5" x="674.682387" y="271.8" style="fill: #1b9e77; stroke: #1b9e77"/>
     <use xlink:href="#m66a666b2c5" x="674.940076" y="186.975169" style="fill: #1b9e77; stroke: #1b9e77"/>
     <use xlink:href="#m66a666b2c5" x="681.382286" y="201.32102" style="fill: #1b9e77; stroke: #1b9e77"/>
     <use xlink:href="#m66a666b2c5" x="687.566808" y="201.32102" style="fill: #1b9e77; stroke: #1b9e77"/>
     <use xlink:href="#m66a666b2c5" x="687.824497" y="79.355717" style="fill: #1b9e77; stroke: #1b9e77"/>
     <use xlink:href="#m66a666b2c5" x="694.266707" y="168.642242" style="fill: #1b9e77; stroke: #1b9e77"/>
     <use xlink:href="#m66a666b2c5" x="700.451229" y="168.642242" style="fill: #1b9e77; stroke: #1b9e77"/>
     <use xlink:href="#m66a666b2c5" x="700.708918" y="196.836501" style="fill: #1b9e77; stroke: #1b9e77"/>
     <use xlink:href="#m66a666b2c5" x="707.151128" y="124.475499" style="fill: #1b9e77; stroke: #1b9e77"/>
     <use xlink:href="#m66a666b2c5" x="713.33565" y="124.475499" style="fill: #1b9e77; stroke: #1b9e77"/>
     <use xlink:href="#m66a666b2c5" x="713.593339" y="154.945935" style="fill: #1b9e77; stroke: #1b9e77"/>
     <use xlink:href="#m66a666b2c5" x="720.035549" y="145.239444" style="fill: #1b9e77; stroke: #1b9e77"/>
     <use xlink:href="#m66a666b2c5" x="726.220071" y="145.239444" style="fill: #1b9e77; stroke: #1b9e77"/>
     <use xlink:href="#m66a666b2c5" x="726.47776" y="119.323722" style="fill: #1b9e77; stroke: #1b9e77"/>
     <use xlink:href="#m66a666b2c5" x="732.91997" y="60.12" style="fill: #1b9e77; stroke: #1b9e77"/>
     <use xlink:href="#m66a666b2c5" x="739.104492" y="60.12" style="fill: #1b9e77; stroke: #1b9e77"/>
     <use xlink:href="#m66a666b2c5" x="739.362181" y="215.651964" style="fill: #1b9e77; stroke: #1b9e77"/>
     <use xlink:href="#m66a666b2c5" x="745.804391" y="135.231632" style="fill: #1b9e77; stroke: #1b9e77"/>
     <use xlink:href="#m66a666b2c5" x="751.988913" y="135.231632" style="fill: #1b9e77; stroke: #1b9e77"/>
     <use xlink:href="#m66a666b2c5" x="752.246602" y="126.687421" style="fill: #1b9e77; stroke: #1b9e77"/>
     <use xlink:href="#m66a666b2c5" x="758.688812" y="136.267555" style="fill: #1b9e77; stroke: #1b9e77"/>
     <use xlink:href="#m66a666b2c5" x="764.873334" y="136.267555" style="fill: #1b9e77; stroke: #1b9e77"/>
     <use xlink:href="#m66a666b2c5" x="765.131023" y="162.669125" style="fill: #1b9e77; stroke: #1b9e77"/>
     <use xlink:href="#m66a666b2c5" x="771.573233" y="134.746874" style="fill: #1b9e77; stroke: #1b9e77"/>
     <use xlink:href="#m66a666b2c5" x="777.757756" y="134.746874" style="fill: #1b9e77; stroke: #1b9e77"/>
     <use xlink:href="#m66a666b2c5" x="778.015444" y="97.978961" style="fill: #1b9e77; stroke: #1b9e77"/>
     <use xlink:href="#m66a666b2c5" x="784.457654" y="165.799979" style="fill: #1b9e77; stroke: #1b9e77"/>
     <use xlink:href="#m66a666b2c5" x="790.642177" y="165.799979" style="fill: #1b9e77; stroke: #1b9e77"/>
     <use xlink:href="#m66a666b2c5" x="790.899865" y="88.990314" style="fill: #1b9e77; stroke: #1b9e77"/>
     <use xlink:href="#m66a666b2c5" x="797.342075" y="161.116389" style="fill: #1b9e77; stroke: #1b9e77"/>
     <use xlink:href="#m66a666b2c5" x="803.526598" y="161.116389" style="fill: #1b9e77; stroke: #1b9e77"/>
    </g>
   </g>
   <g id="patch_15">
    <path d="M 587.338897 282.384 
L 587.338897 49.536 
" style="fill: none; stroke: #000000; stroke-width: 0.8; stroke-linejoin: miter; stroke-linecap: square"/>
   </g>
   <g id="patch_16">
    <path d="M 813.82125 282.384 
L 813.82125 49.536 
" style="fill: none; stroke: #000000; stroke-width: 0.8; stroke-linejoin: miter; stroke-linecap: square"/>
   </g>
   <g id="patch_17">
    <path d="M 587.338897 282.384 
L 813.82125 282.384 
" style="fill: none; stroke: #000000; stroke-width: 0.8; stroke-linejoin: miter; stroke-linecap: square"/>
   </g>
   <g id="patch_18">
    <path d="M 587.338897 49.536 
L 813.82125 49.536 
" style="fill: none; stroke: #000000; stroke-width: 0.8; stroke-linejoin: miter; stroke-linecap: square"/>
   </g>
   <g id="text_52">
    <!-- task 4: SpaceInvaders -->
    <g transform="translate(634.118824 43.536) scale(0.12 -0.12)">
     <defs>
      <path id="DejaVuSans-53" d="M 3425 4513 
L 3425 3897 
Q 3066 4069 2747 4153 
Q 2428 4238 2131 4238 
Q 1616 4238 1336 4038 
Q 1056 3838 1056 3469 
Q 1056 3159 1242 3001 
Q 1428 2844 1947 2747 
L 2328 2669 
Q 3034 2534 3370 2195 
Q 3706 1856 3706 1288 
Q 3706 609 3251 259 
Q 2797 -91 1919 -91 
Q 1588 -91 1214 -16 
Q 841 59 441 206 
L 441 856 
Q 825 641 1194 531 
Q 1563 422 1919 422 
Q 2459 422 2753 634 
Q 3047 847 3047 1241 
Q 3047 1584 2836 1778 
Q 2625 1972 2144 2069 
L 1759 2144 
Q 1053 2284 737 2584 
Q 422 2884 422 3419 
Q 422 4038 858 4394 
Q 1294 4750 2059 4750 
Q 2388 4750 2728 4690 
Q 3069 4631 3425 4513 
z
" transform="scale(0.015625)"/>
      <path id="DejaVuSans-70" d="M 1159 525 
L 1159 -1331 
L 581 -1331 
L 581 3500 
L 1159 3500 
L 1159 2969 
Q 1341 3281 1617 3432 
Q 1894 3584 2278 3584 
Q 2916 3584 3314 3078 
Q 3713 2572 3713 1747 
Q 3713 922 3314 415 
Q 2916 -91 2278 -91 
Q 1894 -91 1617 61 
Q 1341 213 1159 525 
z
M 3116 1747 
Q 3116 2381 2855 2742 
Q 2594 3103 2138 3103 
Q 1681 3103 1420 2742 
Q 1159 2381 1159 1747 
Q 1159 1113 1420 752 
Q 1681 391 2138 391 
Q 2594 391 2855 752 
Q 3116 1113 3116 1747 
z
" transform="scale(0.015625)"/>
      <path id="DejaVuSans-49" d="M 628 4666 
L 1259 4666 
L 1259 0 
L 628 0 
L 628 4666 
z
" transform="scale(0.015625)"/>
     </defs>
     <use xlink:href="#DejaVuSans-74"/>
     <use xlink:href="#DejaVuSans-61" x="39.208984"/>
     <use xlink:href="#DejaVuSans-73" x="100.488281"/>
     <use xlink:href="#DejaVuSans-6b" x="152.587891"/>
     <use xlink:href="#DejaVuSans-20" x="210.498047"/>
     <use xlink:href="#DejaVuSans-34" x="242.285156"/>
     <use xlink:href="#DejaVuSans-3a" x="305.908203"/>
     <use xlink:href="#DejaVuSans-20" x="339.599609"/>
     <use xlink:href="#DejaVuSans-53" x="371.386719"/>
     <use xlink:href="#DejaVuSans-70" x="434.863281"/>
     <use xlink:href="#DejaVuSans-61" x="498.339844"/>
     <use xlink:href="#DejaVuSans-63" x="559.619141"/>
     <use xlink:href="#DejaVuSans-65" x="614.599609"/>
     <use xlink:href="#DejaVuSans-49" x="676.123047"/>
     <use xlink:href="#DejaVuSans-6e" x="705.615234"/>
     <use xlink:href="#DejaVuSans-76" x="768.994141"/>
     <use xlink:href="#DejaVuSans-61" x="828.173828"/>
     <use xlink:href="#DejaVuSans-64" x="889.453125"/>
     <use xlink:href="#DejaVuSans-65" x="952.929688"/>
     <use xlink:href="#DejaVuSans-72" x="1014.453125"/>
     <use xlink:href="#DejaVuSans-73" x="1055.566406"/>
    </g>
   </g>
   <g id="legend_3">
    <g id="patch_19">
     <path d="M 688.7475 278.384 
L 808.22125 278.384 
Q 809.82125 278.384 809.82125 276.784 
L 809.82125 253.654 
Q 809.82125 252.054 808.22125 252.054 
L 688.7475 252.054 
Q 687.1475 252.054 687.1475 253.654 
L 687.1475 276.784 
Q 687.1475 278.384 688.7475 278.384 
z
" style="fill: #ffffff; opacity: 0.8; stroke: #cccccc; stroke-linejoin: miter"/>
    </g>
    <g id="line2d_50">
     <path d="M 690.3475 258.53275 
L 698.3475 258.53275 
L 706.3475 258.53275 
" style="fill: none; stroke-dasharray: 7.4,3.2; stroke-dashoffset: 0; stroke: #333333; stroke-width: 2"/>
    </g>
    <g id="text_53">
     <!-- V_L (local ref, frozen) -->
     <g transform="translate(712.7475 261.33275) scale(0.08 -0.08)">
      <use xlink:href="#DejaVuSans-56"/>
      <use xlink:href="#DejaVuSans-5f" x="68.408203"/>
      <use xlink:href="#DejaVuSans-4c" x="118.408203"/>
      <use xlink:href="#DejaVuSans-20" x="174.121094"/>
      <use xlink:href="#DejaVuSans-28" x="205.908203"/>
      <use xlink:href="#DejaVuSans-6c" x="244.921875"/>
      <use xlink:href="#DejaVuSans-6f" x="272.705078"/>
      <use xlink:href="#DejaVuSans-63" x="333.886719"/>
      <use xlink:href="#DejaVuSans-61" x="388.867188"/>
      <use xlink:href="#DejaVuSans-6c" x="450.146484"/>
      <use xlink:href="#DejaVuSans-20" x="477.929688"/>
      <use xlink:href="#DejaVuSans-72" x="509.716797"/>
      <use xlink:href="#DejaVuSans-65" x="548.580078"/>
      <use xlink:href="#DejaVuSans-66" x="610.103516"/>
      <use xlink:href="#DejaVuSans-2c" x="645.308594"/>
      <use xlink:href="#DejaVuSans-20" x="677.095703"/>
      <use xlink:href="#DejaVuSans-66" x="708.882812"/>
      <use xlink:href="#DejaVuSans-72" x="744.087891"/>
      <use xlink:href="#DejaVuSans-6f" x="782.951172"/>
      <use xlink:href="#DejaVuSans-7a" x="844.132812"/>
      <use xlink:href="#DejaVuSans-65" x="896.623047"/>
      <use xlink:href="#DejaVuSans-6e" x="958.146484"/>
      <use xlink:href="#DejaVuSans-29" x="1021.525391"/>
     </g>
    </g>
    <g id="line2d_51">
     <path d="M 690.3475 270.49775 
L 698.3475 270.49775 
L 706.3475 270.49775 
" style="fill: none; stroke: #1b9e77; stroke-width: 1.5; stroke-linecap: square"/>
     <g>
      <use xlink:href="#m66a666b2c5" x="698.3475" y="270.49775" style="fill: #1b9e77; stroke: #1b9e77"/>
     </g>
    </g>
    <g id="text_54">
     <!-- V_G (global, head-only) -->
     <g transform="translate(712.7475 273.29775) scale(0.08 -0.08)">
      <use xlink:href="#DejaVuSans-56"/>
      <use xlink:href="#DejaVuSans-5f" x="68.408203"/>
      <use xlink:href="#DejaVuSans-47" x="118.408203"/>
      <use xlink:href="#DejaVuSans-20" x="195.898438"/>
      <use xlink:href="#DejaVuSans-28" x="227.685547"/>
      <use xlink:href="#DejaVuSans-67" x="266.699219"/>
      <use xlink:href="#DejaVuSans-6c" x="330.175781"/>
      <use xlink:href="#DejaVuSans-6f" x="357.958984"/>
      <use xlink:href="#DejaVuSans-62" x="419.140625"/>
      <use xlink:href="#DejaVuSans-61" x="482.617188"/>
      <use xlink:href="#DejaVuSans-6c" x="543.896484"/>
      <use xlink:href="#DejaVuSans-2c" x="571.679688"/>
      <use xlink:href="#DejaVuSans-20" x="603.466797"/>
      <use xlink:href="#DejaVuSans-68" x="635.253906"/>
      <use xlink:href="#DejaVuSans-65" x="698.632812"/>
      <use xlink:href="#DejaVuSans-61" x="760.15625"/>
      <use xlink:href="#DejaVuSans-64" x="821.435547"/>
      <use xlink:href="#DejaVuSans-2d" x="884.912109"/>
      <use xlink:href="#DejaVuSans-6f" x="922.871094"/>
      <use xlink:href="#DejaVuSans-6e" x="984.052734"/>
      <use xlink:href="#DejaVuSans-6c" x="1047.431641"/>
      <use xlink:href="#DejaVuSans-79" x="1075.214844"/>
      <use xlink:href="#DejaVuSans-29" x="1134.394531"/>
     </g>
    </g>
   </g>
  </g>
  <g id="text_55">
   <!-- Head-only consolidation: does V_G reach the local reference V_L? -->
   <g transform="translate(195.403125 16.318125) scale(0.12 -0.12)">
    <defs>
     <path id="DejaVuSans-Bold-48" d="M 588 4666 
L 1791 4666 
L 1791 2888 
L 3566 2888 
L 3566 4666 
L 4769 4666 
L 4769 0 
L 3566 0 
L 3566 1978 
L 1791 1978 
L 1791 0 
L 588 0 
L 588 4666 
z
" transform="scale(0.015625)"/>
     <path id="DejaVuSans-Bold-65" d="M 4031 1759 
L 4031 1441 
L 1416 1441 
Q 1456 1047 1700 850 
Q 1944 653 2381 653 
Q 2734 653 3104 758 
Q 3475 863 3866 1075 
L 3866 213 
Q 3469 63 3072 -14 
Q 2675 -91 2278 -91 
Q 1328 -91 801 392 
Q 275 875 275 1747 
Q 275 2603 792 3093 
Q 1309 3584 2216 3584 
Q 3041 3584 3536 3087 
Q 4031 2591 4031 1759 
z
M 2881 2131 
Q 2881 2450 2695 2645 
Q 2509 2841 2209 2841 
Q 1884 2841 1681 2658 
Q 1478 2475 1428 2131 
L 2881 2131 
z
" transform="scale(0.015625)"/>
     <path id="DejaVuSans-Bold-61" d="M 2106 1575 
Q 1756 1575 1579 1456 
Q 1403 1338 1403 1106 
Q 1403 894 1545 773 
Q 1688 653 1941 653 
Q 2256 653 2472 879 
Q 2688 1106 2688 1447 
L 2688 1575 
L 2106 1575 
z
M 3816 1997 
L 3816 0 
L 2688 0 
L 2688 519 
Q 2463 200 2181 54 
Q 1900 -91 1497 -91 
Q 953 -91 614 226 
Q 275 544 275 1050 
Q 275 1666 698 1953 
Q 1122 2241 2028 2241 
L 2688 2241 
L 2688 2328 
Q 2688 2594 2478 2717 
Q 2269 2841 1825 2841 
Q 1466 2841 1156 2769 
Q 847 2697 581 2553 
L 581 3406 
Q 941 3494 1303 3539 
Q 1666 3584 2028 3584 
Q 2975 3584 3395 3211 
Q 3816 2838 3816 1997 
z
" transform="scale(0.015625)"/>
     <path id="DejaVuSans-Bold-64" d="M 2919 2988 
L 2919 4863 
L 4044 4863 
L 4044 0 
L 2919 0 
L 2919 506 
Q 2688 197 2409 53 
Q 2131 -91 1766 -91 
Q 1119 -91 703 423 
Q 288 938 288 1747 
Q 288 2556 703 3070 
Q 1119 3584 1766 3584 
Q 2128 3584 2408 3439 
Q 2688 3294 2919 2988 
z
M 2181 722 
Q 2541 722 2730 984 
Q 2919 1247 2919 1747 
Q 2919 2247 2730 2509 
Q 2541 2772 2181 2772 
Q 1825 2772 1636 2509 
Q 1447 2247 1447 1747 
Q 1447 1247 1636 984 
Q 1825 722 2181 722 
z
" transform="scale(0.015625)"/>
     <path id="DejaVuSans-Bold-2d" d="M 347 2297 
L 2309 2297 
L 2309 1388 
L 347 1388 
L 347 2297 
z
" transform="scale(0.015625)"/>
     <path id="DejaVuSans-Bold-6f" d="M 2203 2784 
Q 1831 2784 1636 2517 
Q 1441 2250 1441 1747 
Q 1441 1244 1636 976 
Q 1831 709 2203 709 
Q 2569 709 2762 976 
Q 2956 1244 2956 1747 
Q 2956 2250 2762 2517 
Q 2569 2784 2203 2784 
z
M 2203 3584 
Q 3106 3584 3614 3096 
Q 4122 2609 4122 1747 
Q 4122 884 3614 396 
Q 3106 -91 2203 -91 
Q 1297 -91 786 396 
Q 275 884 275 1747 
Q 275 2609 786 3096 
Q 1297 3584 2203 3584 
z
" transform="scale(0.015625)"/>
     <path id="DejaVuSans-Bold-6e" d="M 4056 2131 
L 4056 0 
L 2931 0 
L 2931 347 
L 2931 1631 
Q 2931 2084 2911 2256 
Q 2891 2428 2841 2509 
Q 2775 2619 2662 2680 
Q 2550 2741 2406 2741 
Q 2056 2741 1856 2470 
Q 1656 2200 1656 1722 
L 1656 0 
L 538 0 
L 538 3500 
L 1656 3500 
L 1656 2988 
Q 1909 3294 2193 3439 
Q 2478 3584 2822 3584 
Q 3428 3584 3742 3212 
Q 4056 2841 4056 2131 
z
" transform="scale(0.015625)"/>
     <path id="DejaVuSans-Bold-6c" d="M 538 4863 
L 1656 4863 
L 1656 0 
L 538 0 
L 538 4863 
z
" transform="scale(0.015625)"/>
     <path id="DejaVuSans-Bold-79" d="M 78 3500 
L 1197 3500 
L 2138 1125 
L 2938 3500 
L 4056 3500 
L 2584 -331 
Q 2363 -916 2067 -1148 
Q 1772 -1381 1288 -1381 
L 641 -1381 
L 641 -647 
L 991 -647 
Q 1275 -647 1404 -556 
Q 1534 -466 1606 -231 
L 1638 -134 
L 78 3500 
z
" transform="scale(0.015625)"/>
     <path id="DejaVuSans-Bold-20" transform="scale(0.015625)"/>
     <path id="DejaVuSans-Bold-63" d="M 3366 3391 
L 3366 2478 
Q 3138 2634 2908 2709 
Q 2678 2784 2431 2784 
Q 1963 2784 1702 2511 
Q 1441 2238 1441 1747 
Q 1441 1256 1702 982 
Q 1963 709 2431 709 
Q 2694 709 2930 787 
Q 3166 866 3366 1019 
L 3366 103 
Q 3103 6 2833 -42 
Q 2563 -91 2291 -91 
Q 1344 -91 809 395 
Q 275 881 275 1747 
Q 275 2613 809 3098 
Q 1344 3584 2291 3584 
Q 2566 3584 2833 3536 
Q 3100 3488 3366 3391 
z
" transform="scale(0.015625)"/>
     <path id="DejaVuSans-Bold-73" d="M 3272 3391 
L 3272 2541 
Q 2913 2691 2578 2766 
Q 2244 2841 1947 2841 
Q 1628 2841 1473 2761 
Q 1319 2681 1319 2516 
Q 1319 2381 1436 2309 
Q 1553 2238 1856 2203 
L 2053 2175 
Q 2913 2066 3209 1816 
Q 3506 1566 3506 1031 
Q 3506 472 3093 190 
Q 2681 -91 1863 -91 
Q 1516 -91 1145 -36 
Q 775 19 384 128 
L 384 978 
Q 719 816 1070 734 
Q 1422 653 1784 653 
Q 2113 653 2278 743 
Q 2444 834 2444 1013 
Q 2444 1163 2330 1236 
Q 2216 1309 1875 1350 
L 1678 1375 
Q 931 1469 631 1722 
Q 331 1975 331 2491 
Q 331 3047 712 3315 
Q 1094 3584 1881 3584 
Q 2191 3584 2531 3537 
Q 2872 3491 3272 3391 
z
" transform="scale(0.015625)"/>
     <path id="DejaVuSans-Bold-69" d="M 538 3500 
L 1656 3500 
L 1656 0 
L 538 0 
L 538 3500 
z
M 538 4863 
L 1656 4863 
L 1656 3950 
L 538 3950 
L 538 4863 
z
" transform="scale(0.015625)"/>
     <path id="DejaVuSans-Bold-74" d="M 1759 4494 
L 1759 3500 
L 2913 3500 
L 2913 2700 
L 1759 2700 
L 1759 1216 
Q 1759 972 1856 886 
Q 1953 800 2241 800 
L 2816 800 
L 2816 0 
L 1856 0 
Q 1194 0 917 276 
Q 641 553 641 1216 
L 641 2700 
L 84 2700 
L 84 3500 
L 641 3500 
L 641 4494 
L 1759 4494 
z
" transform="scale(0.015625)"/>
     <path id="DejaVuSans-Bold-3a" d="M 716 3500 
L 1844 3500 
L 1844 2291 
L 716 2291 
L 716 3500 
z
M 716 1209 
L 1844 1209 
L 1844 0 
L 716 0 
L 716 1209 
z
" transform="scale(0.015625)"/>
     <path id="DejaVuSans-Bold-56" d="M 31 4666 
L 1241 4666 
L 2478 1222 
L 3713 4666 
L 4922 4666 
L 3194 0 
L 1759 0 
L 31 4666 
z
" transform="scale(0.015625)"/>
     <path id="DejaVuSans-Bold-5f" d="M 3200 -916 
L 3200 -1509 
L 0 -1509 
L 0 -916 
L 3200 -916 
z
" transform="scale(0.015625)"/>
     <path id="DejaVuSans-Bold-47" d="M 4781 347 
Q 4331 128 3847 18 
Q 3363 -91 2847 -91 
Q 1681 -91 1000 561 
Q 319 1213 319 2328 
Q 319 3456 1012 4103 
Q 1706 4750 2913 4750 
Q 3378 4750 3804 4662 
Q 4231 4575 4609 4403 
L 4609 3438 
Q 4219 3659 3833 3768 
Q 3447 3878 3059 3878 
Q 2341 3878 1952 3476 
Q 1563 3075 1563 2328 
Q 1563 1588 1938 1184 
Q 2313 781 3003 781 
Q 3191 781 3352 804 
Q 3513 828 3641 878 
L 3641 1784 
L 2906 1784 
L 2906 2591 
L 4781 2591 
L 4781 347 
z
" transform="scale(0.015625)"/>
     <path id="DejaVuSans-Bold-72" d="M 3138 2547 
Q 2991 2616 2845 2648 
Q 2700 2681 2553 2681 
Q 2122 2681 1889 2404 
Q 1656 2128 1656 1613 
L 1656 0 
L 538 0 
L 538 3500 
L 1656 3500 
L 1656 2925 
Q 1872 3269 2151 3426 
Q 2431 3584 2822 3584 
Q 2878 3584 2943 3579 
Q 3009 3575 3134 3559 
L 3138 2547 
z
" transform="scale(0.015625)"/>
     <path id="DejaVuSans-Bold-68" d="M 4056 2131 
L 4056 0 
L 2931 0 
L 2931 347 
L 2931 1625 
Q 2931 2084 2911 2256 
Q 2891 2428 2841 2509 
Q 2775 2619 2662 2680 
Q 2550 2741 2406 2741 
Q 2056 2741 1856 2470 
Q 1656 2200 1656 1722 
L 1656 0 
L 538 0 
L 538 4863 
L 1656 4863 
L 1656 2988 
Q 1909 3294 2193 3439 
Q 2478 3584 2822 3584 
Q 3428 3584 3742 3212 
Q 4056 2841 4056 2131 
z
" transform="scale(0.015625)"/>
     <path id="DejaVuSans-Bold-66" d="M 2841 4863 
L 2841 4128 
L 2222 4128 
Q 1984 4128 1890 4042 
Q 1797 3956 1797 3744 
L 1797 3500 
L 2753 3500 
L 2753 2700 
L 1797 2700 
L 1797 0 
L 678 0 
L 678 2700 
L 122 2700 
L 122 3500 
L 678 3500 
L 678 3744 
Q 678 4316 997 4589 
Q 1316 4863 1984 4863 
L 2841 4863 
z
" transform="scale(0.015625)"/>
     <path id="DejaVuSans-Bold-4c" d="M 588 4666 
L 1791 4666 
L 1791 909 
L 3903 909 
L 3903 0 
L 588 0 
L 588 4666 
z
" transform="scale(0.015625)"/>
     <path id="DejaVuSans-Bold-3f" d="M 2216 1575 
L 1088 1575 
L 1088 1728 
Q 1088 1984 1191 2182 
Q 1294 2381 1625 2688 
L 1825 2869 
Q 2003 3031 2086 3175 
Q 2169 3319 2169 3463 
Q 2169 3681 2019 3804 
Q 1869 3928 1600 3928 
Q 1347 3928 1053 3823 
Q 759 3719 441 3513 
L 441 4494 
Q 819 4625 1131 4687 
Q 1444 4750 1734 4750 
Q 2497 4750 2897 4439 
Q 3297 4128 3297 3531 
Q 3297 3225 3175 2983 
Q 3053 2741 2759 2463 
L 2559 2284 
Q 2347 2091 2281 1973 
Q 2216 1856 2216 1716 
L 2216 1575 
z
M 1088 1113 
L 2216 1113 
L 2216 0 
L 1088 0 
L 1088 1113 
z
" transform="scale(0.015625)"/>
    </defs>
    <use xlink:href="#DejaVuSans-Bold-48"/>
    <use xlink:href="#DejaVuSans-Bold-65" x="83.691406"/>
    <use xlink:href="#DejaVuSans-Bold-61" x="151.513672"/>
    <use xlink:href="#DejaVuSans-Bold-64" x="218.994141"/>
    <use xlink:href="#DejaVuSans-Bold-2d" x="290.576172"/>
    <use xlink:href="#DejaVuSans-Bold-6f" x="332.080078"/>
    <use xlink:href="#DejaVuSans-Bold-6e" x="400.78125"/>
    <use xlink:href="#DejaVuSans-Bold-6c" x="471.972656"/>
    <use xlink:href="#DejaVuSans-Bold-79" x="506.25"/>
    <use xlink:href="#DejaVuSans-Bold-20" x="571.435547"/>
    <use xlink:href="#DejaVuSans-Bold-63" x="606.25"/>
    <use xlink:href="#DejaVuSans-Bold-6f" x="665.527344"/>
    <use xlink:href="#DejaVuSans-Bold-6e" x="734.228516"/>
    <use xlink:href="#DejaVuSans-Bold-73" x="805.419922"/>
    <use xlink:href="#DejaVuSans-Bold-6f" x="864.941406"/>
    <use xlink:href="#DejaVuSans-Bold-6c" x="933.642578"/>
    <use xlink:href="#DejaVuSans-Bold-69" x="967.919922"/>
    <use xlink:href="#DejaVuSans-Bold-64" x="1002.197266"/>
    <use xlink:href="#DejaVuSans-Bold-61" x="1073.779297"/>
    <use xlink:href="#DejaVuSans-Bold-74" x="1141.259766"/>
    <use xlink:href="#DejaVuSans-Bold-69" x="1189.0625"/>
    <use xlink:href="#DejaVuSans-Bold-6f" x="1223.339844"/>
    <use xlink:href="#DejaVuSans-Bold-6e" x="1292.041016"/>
    <use xlink:href="#DejaVuSans-Bold-3a" x="1363.232422"/>
    <use xlink:href="#DejaVuSans-Bold-20" x="1403.222656"/>
    <use xlink:href="#DejaVuSans-Bold-64" x="1438.037109"/>
    <use xlink:href="#DejaVuSans-Bold-6f" x="1509.619141"/>
    <use xlink:href="#DejaVuSans-Bold-65" x="1578.320312"/>
    <use xlink:href="#DejaVuSans-Bold-73" x="1646.142578"/>
    <use xlink:href="#DejaVuSans-Bold-20" x="1705.664062"/>
    <use xlink:href="#DejaVuSans-Bold-56" x="1740.478516"/>
    <use xlink:href="#DejaVuSans-Bold-5f" x="1817.871094"/>
    <use xlink:href="#DejaVuSans-Bold-47" x="1867.871094"/>
    <use xlink:href="#DejaVuSans-Bold-20" x="1949.951172"/>
    <use xlink:href="#DejaVuSans-Bold-72" x="1984.765625"/>
    <use xlink:href="#DejaVuSans-Bold-65" x="2034.082031"/>
    <use xlink:href="#DejaVuSans-Bold-61" x="2101.904297"/>
    <use xlink:href="#DejaVuSans-Bold-63" x="2169.384766"/>
    <use xlink:href="#DejaVuSans-Bold-68" x="2228.662109"/>
    <use xlink:href="#DejaVuSans-Bold-20" x="2299.853516"/>
    <use xlink:href="#DejaVuSans-Bold-74" x="2334.667969"/>
    <use xlink:href="#DejaVuSans-Bold-68" x="2382.470703"/>
    <use xlink:href="#DejaVuSans-Bold-65" x="2453.662109"/>
    <use xlink:href="#DejaVuSans-Bold-20" x="2521.484375"/>
    <use xlink:href="#DejaVuSans-Bold-6c" x="2556.298828"/>
    <use xlink:href="#DejaVuSans-Bold-6f" x="2590.576172"/>
    <use xlink:href="#DejaVuSans-Bold-63" x="2659.277344"/>
    <use xlink:href="#DejaVuSans-Bold-61" x="2718.554688"/>
    <use xlink:href="#DejaVuSans-Bold-6c" x="2786.035156"/>
    <use xlink:href="#DejaVuSans-Bold-20" x="2820.3125"/>
    <use xlink:href="#DejaVuSans-Bold-72" x="2855.126953"/>
    <use xlink:href="#DejaVuSans-Bold-65" x="2904.443359"/>
    <use xlink:href="#DejaVuSans-Bold-66" x="2972.265625"/>
    <use xlink:href="#DejaVuSans-Bold-65" x="3015.771484"/>
    <use xlink:href="#DejaVuSans-Bold-72" x="3083.59375"/>
    <use xlink:href="#DejaVuSans-Bold-65" x="3132.910156"/>
    <use xlink:href="#DejaVuSans-Bold-6e" x="3200.732422"/>
    <use xlink:href="#DejaVuSans-Bold-63" x="3271.923828"/>
    <use xlink:href="#DejaVuSans-Bold-65" x="3331.201172"/>
    <use xlink:href="#DejaVuSans-Bold-20" x="3399.023438"/>
    <use xlink:href="#DejaVuSans-Bold-56" x="3433.837891"/>
    <use xlink:href="#DejaVuSans-Bold-5f" x="3511.230469"/>
    <use xlink:href="#DejaVuSans-Bold-4c" x="3561.230469"/>
    <use xlink:href="#DejaVuSans-Bold-3f" x="3624.951172"/>
   </g>
  </g>
 </g>
 <defs>
  <clipPath id="p547161dee1">
   <rect x="43.78125" y="49.536" width="226.482353" height="232.848"/>
  </clipPath>
  <clipPath id="pbaece7a9b7">
   <rect x="315.560074" y="49.536" width="226.482353" height="232.848"/>
  </clipPath>
  <clipPath id="pa0390d154e">
   <rect x="587.338897" y="49.536" width="226.482353" height="232.848"/>
  </clipPath>
 </defs>
</svg>
