<?xml version="1.0" encoding="utf-8" standalone="no"?>
<!DOCTYPE svg PUBLIC "-//W3C//DTD SVG 1.1//EN"
  "http://www.w3.org/Graphics/SVG/1.1/DTD/svg11.dtd">
<svg xmlns:xlink="http://www.w3.org/1999/xlink" width="640.795313pt" height="427.000937pt" viewBox="0 0 640.795313 427.000937" xmlns="http://www.w3.org/2000/svg" version="1.1">
 <metadata>
  <rdf:RDF xmlns:dc="http://purl.org/dc/elements/1.1/" xmlns:cc="http://creativecommons.org/ns#" xmlns:rdf="http://www.w3.org/1999/02/22-rdf-syntax-ns#">
   <cc:Work>
    <dc:type rdf:resource="http://purl.org/dc/dcmitype/StillImage"/>
    <dc:date>2026-07-09T15:57:54.839871</dc:date>
    <dc:format>image/svg+xml</dc:format>
    <dc:creator>
     <cc:Agent>
      <dc:title>Matplotlib v3.10.1, https://matplotlib.org/</dc:title>
     </cc:Agent>
    </dc:creator>
   </cc:Work>
  </rdf:RDF>
 </metadata>
 <defs>
  <style type="text/css">*{stroke-linejoin: round; stroke-linecap: butt}</style>
 </defs>
 <g id="figure_1">
  <g id="patch_1">
   <path d="M 0 427.000937 
L 640.795313 427.000937 
L 640.795313 0 
L 0 0 
z
" style="fill: #ffffff"/>
  </g>
  <g id="axes_1">
   <g id="patch_2">
    <path d="M 46.942188 197.04 
L 577.092188 197.04 
L 577.092188 46.08 
L 46.942188 46.08 
z
" style="fill: #ffffff"/>
   </g>
   <g id="matplotlib.axis_1">
    <g id="xtick_1">
     <g id="line2d_1">
      <path d="M 71.039915 197.04 
L 71.039915 46.08 
" clip-path="url(#p3d7c065552)" style="fill: none; stroke: #e9ecef; stroke-width: 0.7; stroke-linecap: square"/>
     </g>
     <g id="line2d_2">
      <defs>
       <path id="m416f65717f" d="M 0 0 
L 0 3.5 
" style="stroke: #6c757d; stroke-width: 0.8"/>
      </defs>
      <g>
       <use xlink:href="#m416f65717f" x="71.039915" y="197.04" style="fill: #6c757d; stroke: #6c757d; stroke-width: 0.8"/>
      </g>
     </g>
     <g id="text_1">
      <!-- 0 -->
      <g style="fill: #6c757d" transform="translate(68.259446 211.213437) scale(0.1 -0.1)">
       <defs>
        <path id="Helvetica-30" d="M 1731 4475 
Q 2600 4475 2988 3759 
Q 3288 3206 3288 2244 
Q 3288 1331 3016 734 
Q 2622 -122 1728 -122 
Q 922 -122 528 578 
Q 200 1163 200 2147 
Q 200 2909 397 3456 
Q 766 4475 1731 4475 
z
M 1725 391 
Q 2163 391 2422 778 
Q 2681 1166 2681 2222 
Q 2681 2984 2493 3476 
Q 2306 3969 1766 3969 
Q 1269 3969 1039 3501 
Q 809 3034 809 2125 
Q 809 1441 956 1025 
Q 1181 391 1725 391 
z
" transform="scale(0.015625)"/>
       </defs>
       <use xlink:href="#Helvetica-30"/>
      </g>
     </g>
    </g>
    <g id="xtick_2">
     <g id="line2d_3">
      <path d="M 138.920837 197.04 
L 138.920837 46.08 
" clip-path="url(#p3d7c065552)" style="fill: none; stroke: #e9ecef; stroke-width: 0.7; stroke-linecap: square"/>
     </g>
     <g id="line2d_4">
      <g>
       <use xlink:href="#m416f65717f" x="138.920837" y="197.04" style="fill: #6c757d; stroke: #6c757d; stroke-width: 0.8"/>
      </g>
     </g>
     <g id="text_2">
      <!-- 10 -->
      <g style="fill: #6c757d" transform="translate(133.359899 211.213437) scale(0.1 -0.1)">
       <defs>
        <path id="Helvetica-31" d="M 613 3169 
L 613 3600 
Q 1222 3659 1462 3798 
Q 1703 3938 1822 4456 
L 2266 4456 
L 2266 0 
L 1666 0 
L 1666 3169 
L 613 3169 
z
" transform="scale(0.015625)"/>
       </defs>
       <use xlink:href="#Helvetica-31"/>
       <use xlink:href="#Helvetica-30" transform="translate(55.615234 0)"/>
      </g>
     </g>
    </g>
    <g id="xtick_3">
     <g id="line2d_5">
      <path d="M 206.801759 197.04 
L 206.801759 46.08 
" clip-path="url(#p3d7c065552)" style="fill: none; stroke: #e9ecef; stroke-width: 0.7; stroke-linecap: square"/>
     </g>
     <g id="line2d_6">
      <g>
       <use xlink:href="#m416f65717f" x="206.801759" y="197.04" style="fill: #6c757d; stroke: #6c757d; stroke-width: 0.8"/>
      </g>
     </g>
     <g id="text_3">
      <!-- 20 -->
      <g style="fill: #6c757d" transform="translate(201.240821 211.213437) scale(0.1 -0.1)">
       <defs>
        <path id="Helvetica-32" d="M 200 0 
Q 231 578 439 1006 
Q 647 1434 1250 1784 
L 1850 2131 
Q 2253 2366 2416 2531 
Q 2672 2791 2672 3125 
Q 2672 3516 2437 3745 
Q 2203 3975 1813 3975 
Q 1234 3975 1013 3538 
Q 894 3303 881 2888 
L 309 2888 
Q 319 3472 525 3841 
Q 891 4491 1816 4491 
Q 2584 4491 2939 4075 
Q 3294 3659 3294 3150 
Q 3294 2613 2916 2231 
Q 2697 2009 2131 1694 
L 1703 1456 
Q 1397 1288 1222 1134 
Q 909 863 828 531 
L 3272 531 
L 3272 0 
L 200 0 
z
" transform="scale(0.015625)"/>
       </defs>
       <use xlink:href="#Helvetica-32"/>
       <use xlink:href="#Helvetica-30" transform="translate(55.615234 0)"/>
      </g>
     </g>
    </g>
    <g id="xtick_4">
     <g id="line2d_7">
      <path d="M 274.68268 197.04 
L 274.68268 46.08 
" clip-path="url(#p3d7c065552)" style="fill: none; stroke: #e9ecef; stroke-width: 0.7; stroke-linecap: square"/>
     </g>
     <g id="line2d_8">
      <g>
       <use xlink:href="#m416f65717f" x="274.68268" y="197.04" style="fill: #6c757d; stroke: #6c757d; stroke-width: 0.8"/>
      </g>
     </g>
     <g id="text_4">
      <!-- 30 -->
      <g style="fill: #6c757d" transform="translate(269.121743 211.213437) scale(0.1 -0.1)">
       <defs>
        <path id="Helvetica-33" d="M 1663 -122 
Q 869 -122 511 314 
Q 153 750 153 1375 
L 741 1375 
Q 778 941 903 744 
Q 1122 391 1694 391 
Q 2138 391 2406 628 
Q 2675 866 2675 1241 
Q 2675 1703 2392 1887 
Q 2109 2072 1606 2072 
Q 1550 2072 1492 2070 
Q 1434 2069 1375 2066 
L 1375 2563 
Q 1463 2553 1522 2550 
Q 1581 2547 1650 2547 
Q 1966 2547 2169 2647 
Q 2525 2822 2525 3272 
Q 2525 3606 2287 3787 
Q 2050 3969 1734 3969 
Q 1172 3969 956 3594 
Q 838 3388 822 3006 
L 266 3006 
Q 266 3506 466 3856 
Q 809 4481 1675 4481 
Q 2359 4481 2734 4176 
Q 3109 3872 3109 3294 
Q 3109 2881 2888 2625 
Q 2750 2466 2531 2375 
Q 2884 2278 3082 2001 
Q 3281 1725 3281 1325 
Q 3281 684 2859 281 
Q 2438 -122 1663 -122 
z
" transform="scale(0.015625)"/>
       </defs>
       <use xlink:href="#Helvetica-33"/>
       <use xlink:href="#Helvetica-30" transform="translate(55.615234 0)"/>
      </g>
     </g>
    </g>
    <g id="xtick_5">
     <g id="line2d_9">
      <path d="M 342.563602 197.04 
L 342.563602 46.08 
" clip-path="url(#p3d7c065552)" style="fill: none; stroke: #e9ecef; stroke-width: 0.7; stroke-linecap: square"/>
     </g>
     <g id="line2d_10">
      <g>
       <use xlink:href="#m416f65717f" x="342.563602" y="197.04" style="fill: #6c757d; stroke: #6c757d; stroke-width: 0.8"/>
      </g>
     </g>
     <g id="text_5">
      <!-- 40 -->
      <g style="fill: #6c757d" transform="translate(337.002665 211.213437) scale(0.1 -0.1)">
       <defs>
        <path id="Helvetica-34" d="M 2116 1584 
L 2116 3613 
L 681 1584 
L 2116 1584 
z
M 2125 0 
L 2125 1094 
L 163 1094 
L 163 1644 
L 2213 4488 
L 2688 4488 
L 2688 1584 
L 3347 1584 
L 3347 1094 
L 2688 1094 
L 2688 0 
L 2125 0 
z
" transform="scale(0.015625)"/>
       </defs>
       <use xlink:href="#Helvetica-34"/>
       <use xlink:href="#Helvetica-30" transform="translate(55.615234 0)"/>
      </g>
     </g>
    </g>
    <g id="xtick_6">
     <g id="line2d_11">
      <path d="M 410.444524 197.04 
L 410.444524 46.08 
" clip-path="url(#p3d7c065552)" style="fill: none; stroke: #e9ecef; stroke-width: 0.7; stroke-linecap: square"/>
     </g>
     <g id="line2d_12">
      <g>
       <use xlink:href="#m416f65717f" x="410.444524" y="197.04" style="fill: #6c757d; stroke: #6c757d; stroke-width: 0.8"/>
      </g>
     </g>
     <g id="text_6">
      <!-- 50 -->
      <g style="fill: #6c757d" transform="translate(404.883587 211.213437) scale(0.1 -0.1)">
       <defs>
        <path id="Helvetica-35" d="M 791 1141 
Q 847 659 1238 475 
Q 1438 381 1700 381 
Q 2200 381 2440 700 
Q 2681 1019 2681 1406 
Q 2681 1875 2395 2131 
Q 2109 2388 1709 2388 
Q 1419 2388 1211 2275 
Q 1003 2163 856 1963 
L 369 1991 
L 709 4400 
L 3034 4400 
L 3034 3856 
L 1131 3856 
L 941 2613 
Q 1097 2731 1238 2791 
Q 1488 2894 1816 2894 
Q 2431 2894 2859 2497 
Q 3288 2100 3288 1491 
Q 3288 856 2895 371 
Q 2503 -113 1644 -113 
Q 1097 -113 676 195 
Q 256 503 206 1141 
L 791 1141 
z
" transform="scale(0.015625)"/>
       </defs>
       <use xlink:href="#Helvetica-35"/>
       <use xlink:href="#Helvetica-30" transform="translate(55.615234 0)"/>
      </g>
     </g>
    </g>
    <g id="xtick_7">
     <g id="line2d_13">
      <path d="M 478.325446 197.04 
L 478.325446 46.08 
" clip-path="url(#p3d7c065552)" style="fill: none; stroke: #e9ecef; stroke-width: 0.7; stroke-linecap: square"/>
     </g>
     <g id="line2d_14">
      <g>
       <use xlink:href="#m416f65717f" x="478.325446" y="197.04" style="fill: #6c757d; stroke: #6c757d; stroke-width: 0.8"/>
      </g>
     </g>
     <g id="text_7">
      <!-- 60 -->
      <g style="fill: #6c757d" transform="translate(472.764509 211.213437) scale(0.1 -0.1)">
       <defs>
        <path id="Helvetica-36" d="M 1872 4494 
Q 2622 4494 2917 4105 
Q 3213 3716 3213 3303 
L 2656 3303 
Q 2606 3569 2497 3719 
Q 2294 4000 1881 4000 
Q 1409 4000 1131 3564 
Q 853 3128 822 2316 
Q 1016 2600 1309 2741 
Q 1578 2866 1909 2866 
Q 2472 2866 2890 2506 
Q 3309 2147 3309 1434 
Q 3309 825 2912 354 
Q 2516 -116 1781 -116 
Q 1153 -116 697 361 
Q 241 838 241 1966 
Q 241 2800 444 3381 
Q 834 4494 1872 4494 
z
M 1831 384 
Q 2275 384 2495 682 
Q 2716 981 2716 1388 
Q 2716 1731 2519 2042 
Q 2322 2353 1803 2353 
Q 1441 2353 1167 2112 
Q 894 1872 894 1388 
Q 894 963 1142 673 
Q 1391 384 1831 384 
z
" transform="scale(0.015625)"/>
       </defs>
       <use xlink:href="#Helvetica-36"/>
       <use xlink:href="#Helvetica-30" transform="translate(55.615234 0)"/>
      </g>
     </g>
    </g>
    <g id="xtick_8">
     <g id="line2d_15">
      <path d="M 546.206368 197.04 
L 546.206368 46.08 
" clip-path="url(#p3d7c065552)" style="fill: none; stroke: #e9ecef; stroke-width: 0.7; stroke-linecap: square"/>
     </g>
     <g id="line2d_16">
      <g>
       <use xlink:href="#m416f65717f" x="546.206368" y="197.04" style="fill: #6c757d; stroke: #6c757d; stroke-width: 0.8"/>
      </g>
     </g>
     <g id="text_8">
      <!-- 70 -->
      <g style="fill: #6c757d" transform="translate(540.645431 211.213437) scale(0.1 -0.1)">
       <defs>
        <path id="Helvetica-37" d="M 3347 4400 
L 3347 3909 
Q 3131 3700 2773 3181 
Q 2416 2663 2141 2063 
Q 1869 1478 1728 997 
Q 1638 688 1494 0 
L 872 0 
Q 1084 1281 1809 2550 
Q 2238 3294 2709 3834 
L 234 3834 
L 234 4400 
L 3347 4400 
z
" transform="scale(0.015625)"/>
       </defs>
       <use xlink:href="#Helvetica-37"/>
       <use xlink:href="#Helvetica-30" transform="translate(55.615234 0)"/>
      </g>
     </g>
    </g>
   </g>
   <g id="matplotlib.axis_2">
    <g id="ytick_1">
     <g id="line2d_17">
      <path d="M 46.942188 190.178182 
L 577.092188 190.178182 
" clip-path="url(#p3d7c065552)" style="fill: none; stroke: #e9ecef; stroke-width: 0.7; stroke-linecap: square"/>
     </g>
     <g id="line2d_18">
      <defs>
       <path id="m5ff9ab330d" d="M 0 0 
L -3.5 0 
" style="stroke: #6c757d; stroke-width: 0.8"/>
      </defs>
      <g>
       <use xlink:href="#m5ff9ab330d" x="46.942188" y="190.178182" style="fill: #6c757d; stroke: #6c757d; stroke-width: 0.8"/>
      </g>
     </g>
     <g id="text_9">
      <!-- 0.00 -->
      <g style="fill: #2563eb" transform="translate(20.48125 193.764901) scale(0.1 -0.1)">
       <defs>
        <path id="Helvetica-2e" d="M 547 681 
L 1200 681 
L 1200 0 
L 547 0 
L 547 681 
z
" transform="scale(0.015625)"/>
       </defs>
       <use xlink:href="#Helvetica-30"/>
       <use xlink:href="#Helvetica-2e" transform="translate(55.615234 0)"/>
       <use xlink:href="#Helvetica-30" transform="translate(83.398438 0)"/>
       <use xlink:href="#Helvetica-30" transform="translate(139.013672 0)"/>
      </g>
     </g>
    </g>
    <g id="ytick_2">
     <g id="line2d_19">
      <path d="M 46.942188 164.177298 
L 577.092188 164.177298 
" clip-path="url(#p3d7c065552)" style="fill: none; stroke: #e9ecef; stroke-width: 0.7; stroke-linecap: square"/>
     </g>
     <g id="line2d_20">
      <g>
       <use xlink:href="#m5ff9ab330d" x="46.942188" y="164.177298" style="fill: #6c757d; stroke: #6c757d; stroke-width: 0.8"/>
      </g>
     </g>
     <g id="text_10">
      <!-- 0.25 -->
      <g style="fill: #2563eb" transform="translate(20.48125 167.764017) scale(0.1 -0.1)">
       <use xlink:href="#Helvetica-30"/>
       <use xlink:href="#Helvetica-2e" transform="translate(55.615234 0)"/>
       <use xlink:href="#Helvetica-32" transform="translate(83.398438 0)"/>
       <use xlink:href="#Helvetica-35" transform="translate(139.013672 0)"/>
      </g>
     </g>
    </g>
    <g id="ytick_3">
     <g id="line2d_21">
      <path d="M 46.942188 138.176414 
L 577.092188 138.176414 
" clip-path="url(#p3d7c065552)" style="fill: none; stroke: #e9ecef; stroke-width: 0.7; stroke-linecap: square"/>
     </g>
     <g id="line2d_22">
      <g>
       <use xlink:href="#m5ff9ab330d" x="46.942188" y="138.176414" style="fill: #6c757d; stroke: #6c757d; stroke-width: 0.8"/>
      </g>
     </g>
     <g id="text_11">
      <!-- 0.50 -->
      <g style="fill: #2563eb" transform="translate(20.48125 141.763133) scale(0.1 -0.1)">
       <use xlink:href="#Helvetica-30"/>
       <use xlink:href="#Helvetica-2e" transform="translate(55.615234 0)"/>
       <use xlink:href="#Helvetica-35" transform="translate(83.398438 0)"/>
       <use xlink:href="#Helvetica-30" transform="translate(139.013672 0)"/>
      </g>
     </g>
    </g>
    <g id="ytick_4">
     <g id="line2d_23">
      <path d="M 46.942188 112.17553 
L 577.092188 112.17553 
" clip-path="url(#p3d7c065552)" style="fill: none; stroke: #e9ecef; stroke-width: 0.7; stroke-linecap: square"/>
     </g>
     <g id="line2d_24">
      <g>
       <use xlink:href="#m5ff9ab330d" x="46.942188" y="112.17553" style="fill: #6c757d; stroke: #6c757d; stroke-width: 0.8"/>
      </g>
     </g>
     <g id="text_12">
      <!-- 0.75 -->
      <g style="fill: #2563eb" transform="translate(20.48125 115.762249) scale(0.1 -0.1)">
       <use xlink:href="#Helvetica-30"/>
       <use xlink:href="#Helvetica-2e" transform="translate(55.615234 0)"/>
       <use xlink:href="#Helvetica-37" transform="translate(83.398438 0)"/>
       <use xlink:href="#Helvetica-35" transform="translate(139.013672 0)"/>
      </g>
     </g>
    </g>
    <g id="ytick_5">
     <g id="line2d_25">
      <path d="M 46.942188 86.174646 
L 577.092188 86.174646 
" clip-path="url(#p3d7c065552)" style="fill: none; stroke: #e9ecef; stroke-width: 0.7; stroke-linecap: square"/>
     </g>
     <g id="line2d_26">
      <g>
       <use xlink:href="#m5ff9ab330d" x="46.942188" y="86.174646" style="fill: #6c757d; stroke: #6c757d; stroke-width: 0.8"/>
      </g>
     </g>
     <g id="text_13">
      <!-- 1.00 -->
      <g style="fill: #2563eb" transform="translate(20.48125 89.761365) scale(0.1 -0.1)">
       <use xlink:href="#Helvetica-31"/>
       <use xlink:href="#Helvetica-2e" transform="translate(55.615234 0)"/>
       <use xlink:href="#Helvetica-30" transform="translate(83.398438 0)"/>
       <use xlink:href="#Helvetica-30" transform="translate(139.013672 0)"/>
      </g>
     </g>
    </g>
    <g id="ytick_6">
     <g id="line2d_27">
      <path d="M 46.942188 60.173762 
L 577.092188 60.173762 
" clip-path="url(#p3d7c065552)" style="fill: none; stroke: #e9ecef; stroke-width: 0.7; stroke-linecap: square"/>
     </g>
     <g id="line2d_28">
      <g>
       <use xlink:href="#m5ff9ab330d" x="46.942188" y="60.173762" style="fill: #6c757d; stroke: #6c757d; stroke-width: 0.8"/>
      </g>
     </g>
     <g id="text_14">
      <!-- 1.25 -->
      <g style="fill: #2563eb" transform="translate(20.48125 63.760481) scale(0.1 -0.1)">
       <use xlink:href="#Helvetica-31"/>
       <use xlink:href="#Helvetica-2e" transform="translate(55.615234 0)"/>
       <use xlink:href="#Helvetica-32" transform="translate(83.398438 0)"/>
       <use xlink:href="#Helvetica-35" transform="translate(139.013672 0)"/>
      </g>
     </g>
    </g>
    <g id="text_15">
     <!-- dual multiplier -->
     <g style="fill: #2563eb" transform="translate(14.396875 152.405312) rotate(-90) scale(0.1 -0.1)">
      <defs>
       <path id="Helvetica-64" d="M 769 1634 
Q 769 1097 997 734 
Q 1225 372 1728 372 
Q 2119 372 2370 708 
Q 2622 1044 2622 1672 
Q 2622 2306 2362 2611 
Q 2103 2916 1722 2916 
Q 1297 2916 1033 2591 
Q 769 2266 769 1634 
z
M 1616 3406 
Q 2000 3406 2259 3244 
Q 2409 3150 2600 2916 
L 2600 4606 
L 3141 4606 
L 3141 0 
L 2634 0 
L 2634 466 
Q 2438 156 2169 18 
Q 1900 -119 1553 -119 
Q 994 -119 584 351 
Q 175 822 175 1603 
Q 175 2334 548 2870 
Q 922 3406 1616 3406 
z
" transform="scale(0.015625)"/>
       <path id="Helvetica-75" d="M 975 3347 
L 975 1125 
Q 975 869 1056 706 
Q 1206 406 1616 406 
Q 2203 406 2416 931 
Q 2531 1213 2531 1703 
L 2531 3347 
L 3094 3347 
L 3094 0 
L 2563 0 
L 2569 494 
Q 2459 303 2297 172 
Q 1975 -91 1516 -91 
Q 800 -91 541 388 
Q 400 644 400 1072 
L 400 3347 
L 975 3347 
z
M 1747 3428 
L 1747 3428 
z
" transform="scale(0.015625)"/>
       <path id="Helvetica-61" d="M 844 891 
Q 844 647 1022 506 
Q 1200 366 1444 366 
Q 1741 366 2019 503 
Q 2488 731 2488 1250 
L 2488 1703 
Q 2384 1638 2221 1594 
Q 2059 1550 1903 1531 
L 1563 1488 
Q 1256 1447 1103 1359 
Q 844 1213 844 891 
z
M 2206 2028 
Q 2400 2053 2466 2191 
Q 2503 2266 2503 2406 
Q 2503 2694 2298 2823 
Q 2094 2953 1713 2953 
Q 1272 2953 1088 2716 
Q 984 2584 953 2325 
L 428 2325 
Q 444 2944 830 3186 
Q 1216 3428 1725 3428 
Q 2316 3428 2684 3203 
Q 3050 2978 3050 2503 
L 3050 575 
Q 3050 488 3086 434 
Q 3122 381 3238 381 
Q 3275 381 3322 386 
Q 3369 391 3422 400 
L 3422 -16 
Q 3291 -53 3222 -62 
Q 3153 -72 3034 -72 
Q 2744 -72 2613 134 
Q 2544 244 2516 444 
Q 2344 219 2022 53 
Q 1700 -113 1313 -113 
Q 847 -113 551 170 
Q 256 453 256 878 
Q 256 1344 547 1600 
Q 838 1856 1309 1916 
L 2206 2028 
z
M 1741 3428 
L 1741 3428 
z
" transform="scale(0.015625)"/>
       <path id="Helvetica-6c" d="M 428 4591 
L 991 4591 
L 991 0 
L 428 0 
L 428 4591 
z
" transform="scale(0.015625)"/>
       <path id="Helvetica-20" transform="scale(0.015625)"/>
       <path id="Helvetica-6d" d="M 413 3347 
L 969 3347 
L 969 2872 
Q 1169 3119 1331 3231 
Q 1609 3422 1963 3422 
Q 2363 3422 2606 3225 
Q 2744 3113 2856 2894 
Q 3044 3163 3297 3292 
Q 3550 3422 3866 3422 
Q 4541 3422 4784 2934 
Q 4916 2672 4916 2228 
L 4916 0 
L 4331 0 
L 4331 2325 
Q 4331 2659 4164 2784 
Q 3997 2909 3756 2909 
Q 3425 2909 3186 2687 
Q 2947 2466 2947 1947 
L 2947 0 
L 2375 0 
L 2375 2184 
Q 2375 2525 2294 2681 
Q 2166 2916 1816 2916 
Q 1497 2916 1236 2669 
Q 975 2422 975 1775 
L 975 0 
L 413 0 
L 413 3347 
z
" transform="scale(0.015625)"/>
       <path id="Helvetica-74" d="M 525 4281 
L 1094 4281 
L 1094 3347 
L 1628 3347 
L 1628 2888 
L 1094 2888 
L 1094 703 
Q 1094 528 1213 469 
Q 1278 434 1431 434 
Q 1472 434 1519 436 
Q 1566 438 1628 444 
L 1628 0 
Q 1531 -28 1426 -40 
Q 1322 -53 1200 -53 
Q 806 -53 665 148 
Q 525 350 525 672 
L 525 2888 
L 72 2888 
L 72 3347 
L 525 3347 
L 525 4281 
z
" transform="scale(0.015625)"/>
       <path id="Helvetica-69" d="M 413 3331 
L 984 3331 
L 984 0 
L 413 0 
L 413 3331 
z
M 413 4591 
L 984 4591 
L 984 3953 
L 413 3953 
L 413 4591 
z
" transform="scale(0.015625)"/>
       <path id="Helvetica-70" d="M 1825 378 
Q 2219 378 2480 708 
Q 2741 1038 2741 1694 
Q 2741 2094 2625 2381 
Q 2406 2934 1825 2934 
Q 1241 2934 1025 2350 
Q 909 2038 909 1556 
Q 909 1169 1025 897 
Q 1244 378 1825 378 
z
M 369 3331 
L 916 3331 
L 916 2888 
Q 1084 3116 1284 3241 
Q 1569 3428 1953 3428 
Q 2522 3428 2919 2992 
Q 3316 2556 3316 1747 
Q 3316 653 2744 184 
Q 2381 -113 1900 -113 
Q 1522 -113 1266 53 
Q 1116 147 931 375 
L 931 -1334 
L 369 -1334 
L 369 3331 
z
" transform="scale(0.015625)"/>
       <path id="Helvetica-65" d="M 1806 3422 
Q 2163 3422 2497 3255 
Q 2831 3088 3006 2822 
Q 3175 2569 3231 2231 
Q 3281 2000 3281 1494 
L 828 1494 
Q 844 984 1069 676 
Q 1294 369 1766 369 
Q 2206 369 2469 659 
Q 2619 828 2681 1050 
L 3234 1050 
Q 3213 866 3089 639 
Q 2966 413 2813 269 
Q 2556 19 2178 -69 
Q 1975 -119 1719 -119 
Q 1094 -119 659 336 
Q 225 791 225 1609 
Q 225 2416 662 2919 
Q 1100 3422 1806 3422 
z
M 2703 1941 
Q 2669 2306 2544 2525 
Q 2313 2931 1772 2931 
Q 1384 2931 1121 2651 
Q 859 2372 844 1941 
L 2703 1941 
z
M 1753 3428 
L 1753 3428 
z
" transform="scale(0.015625)"/>
       <path id="Helvetica-72" d="M 428 3347 
L 963 3347 
L 963 2769 
Q 1028 2938 1284 3180 
Q 1541 3422 1875 3422 
Q 1891 3422 1928 3419 
Q 1966 3416 2056 3406 
L 2056 2813 
Q 2006 2822 1964 2825 
Q 1922 2828 1872 2828 
Q 1447 2828 1219 2554 
Q 991 2281 991 1925 
L 991 0 
L 428 0 
L 428 3347 
z
" transform="scale(0.015625)"/>
      </defs>
      <use xlink:href="#Helvetica-64"/>
      <use xlink:href="#Helvetica-75" transform="translate(55.615234 0)"/>
      <use xlink:href="#Helvetica-61" transform="translate(111.230469 0)"/>
      <use xlink:href="#Helvetica-6c" transform="translate(166.845703 0)"/>
      <use xlink:href="#Helvetica-20" transform="translate(189.0625 0)"/>
      <use xlink:href="#Helvetica-6d" transform="translate(216.845703 0)"/>
      <use xlink:href="#Helvetica-75" transform="translate(300.146484 0)"/>
      <use xlink:href="#Helvetica-6c" transform="translate(355.761719 0)"/>
      <use xlink:href="#Helvetica-74" transform="translate(377.978516 0)"/>
      <use xlink:href="#Helvetica-69" transform="translate(405.761719 0)"/>
      <use xlink:href="#Helvetica-70" transform="translate(427.978516 0)"/>
      <use xlink:href="#Helvetica-6c" transform="translate(483.59375 0)"/>
      <use xlink:href="#Helvetica-69" transform="translate(505.810547 0)"/>
      <use xlink:href="#Helvetica-65" transform="translate(528.027344 0)"/>
      <use xlink:href="#Helvetica-72" transform="translate(583.642578 0)"/>
     </g>
    </g>
   </g>
   <g id="line2d_29">
    <path d="M 71.039915 190.178182 
L 77.828007 52.941818 
L 84.616099 86.168747 
L 91.404191 119.429168 
L 98.192284 152.69238 
L 104.980376 185.956161 
L 111.768468 190.178182 
L 118.55656 190.178182 
L 125.344652 190.178182 
L 132.132744 190.178182 
L 138.920837 190.178182 
L 145.708929 190.178182 
L 152.497021 190.178182 
L 159.285113 190.178182 
L 166.073205 190.178182 
L 172.861298 190.178182 
L 179.64939 190.178182 
L 186.437482 190.178182 
L 193.225574 190.178182 
L 200.013666 190.178182 
L 206.801759 190.178182 
L 213.589851 190.178182 
L 220.377943 190.178182 
L 227.166035 190.178182 
L 233.954127 190.178182 
L 240.74222 190.178182 
L 247.530312 190.178182 
L 254.318404 190.178182 
L 261.106496 190.178182 
L 267.894588 190.178182 
L 274.68268 190.178182 
L 281.470773 190.178182 
L 288.258865 190.178182 
L 295.046957 190.178182 
L 301.835049 190.178182 
L 308.623141 190.178182 
L 315.411234 190.178182 
L 322.199326 190.067915 
L 328.987418 190.178182 
L 335.77551 190.178182 
L 342.563602 190.178182 
L 349.351695 190.178182 
L 356.139787 190.178182 
L 362.927879 190.178182 
L 369.715971 190.178182 
L 376.504063 190.178182 
L 383.292155 190.178182 
L 390.080248 190.178182 
L 396.86834 190.178182 
L 403.656432 186.702126 
L 410.444524 190.178182 
L 417.232616 190.178182 
L 424.020709 190.178182 
L 430.808801 190.178182 
L 437.596893 190.178182 
L 444.384985 190.178182 
L 451.173077 190.178182 
L 457.96117 190.178182 
L 464.749262 190.178182 
L 471.537354 190.178182 
L 478.325446 190.178182 
L 485.113538 190.178182 
L 491.901631 190.178182 
L 498.689723 190.178182 
L 505.477815 190.178182 
L 512.265907 190.178182 
L 519.053999 190.178182 
L 525.842091 190.178182 
L 532.630184 190.178182 
L 539.418276 190.178182 
L 546.206368 190.178182 
L 552.99446 190.178182 
" clip-path="url(#p3d7c065552)" style="fill: none; stroke: #2563eb; stroke-width: 2; stroke-linecap: square"/>
   </g>
   <g id="patch_3">
    <path d="M 46.942188 197.04 
L 46.942188 46.08 
" style="fill: none; stroke: #495057; stroke-width: 0.8; stroke-linejoin: miter; stroke-linecap: square"/>
   </g>
   <g id="patch_4">
    <path d="M 46.942188 197.04 
L 577.092188 197.04 
" style="fill: none; stroke: #495057; stroke-width: 0.8; stroke-linejoin: miter; stroke-linecap: square"/>
   </g>
   <g id="text_16">
    <!-- Local phase: max multiplier $\lambda$ and total squared shortfall $F_L$ -->
    <g style="fill: #212529" transform="translate(168.742188 40.08) scale(0.11 -0.11)">
     <defs>
      <path id="Helvetica-4c" d="M 488 4591 
L 1109 4591 
L 1109 547 
L 3434 547 
L 3434 0 
L 488 0 
L 488 4591 
z
" transform="scale(0.015625)"/>
      <path id="Helvetica-6f" d="M 1741 363 
Q 2300 363 2508 786 
Q 2716 1209 2716 1728 
Q 2716 2197 2566 2491 
Q 2328 2953 1747 2953 
Q 1231 2953 997 2559 
Q 763 2166 763 1609 
Q 763 1075 997 719 
Q 1231 363 1741 363 
z
M 1763 3444 
Q 2409 3444 2856 3012 
Q 3303 2581 3303 1744 
Q 3303 934 2909 406 
Q 2516 -122 1688 -122 
Q 997 -122 590 345 
Q 184 813 184 1600 
Q 184 2444 612 2944 
Q 1041 3444 1763 3444 
z
M 1744 3428 
L 1744 3428 
z
" transform="scale(0.015625)"/>
      <path id="Helvetica-63" d="M 1703 3444 
Q 2269 3444 2623 3169 
Q 2978 2894 3050 2222 
L 2503 2222 
Q 2453 2531 2275 2736 
Q 2097 2941 1703 2941 
Q 1166 2941 934 2416 
Q 784 2075 784 1575 
Q 784 1072 996 728 
Q 1209 384 1666 384 
Q 2016 384 2220 598 
Q 2425 813 2503 1184 
L 3050 1184 
Q 2956 519 2581 211 
Q 2206 -97 1622 -97 
Q 966 -97 575 383 
Q 184 863 184 1581 
Q 184 2463 612 2953 
Q 1041 3444 1703 3444 
z
M 1616 3428 
L 1616 3428 
z
" transform="scale(0.015625)"/>
      <path id="Helvetica-68" d="M 413 4606 
L 975 4606 
L 975 2894 
Q 1175 3147 1334 3250 
Q 1606 3428 2013 3428 
Q 2741 3428 3000 2919 
Q 3141 2641 3141 2147 
L 3141 0 
L 2563 0 
L 2563 2109 
Q 2563 2478 2469 2650 
Q 2316 2925 1894 2925 
Q 1544 2925 1259 2684 
Q 975 2444 975 1775 
L 975 0 
L 413 0 
L 413 4606 
z
" transform="scale(0.015625)"/>
      <path id="Helvetica-73" d="M 747 1050 
Q 772 769 888 619 
Q 1100 347 1625 347 
Q 1938 347 2175 483 
Q 2413 619 2413 903 
Q 2413 1119 2222 1231 
Q 2100 1300 1741 1391 
L 1294 1503 
Q 866 1609 663 1741 
Q 300 1969 300 2372 
Q 300 2847 642 3140 
Q 984 3434 1563 3434 
Q 2319 3434 2653 2991 
Q 2863 2709 2856 2384 
L 2325 2384 
Q 2309 2575 2191 2731 
Q 1997 2953 1519 2953 
Q 1200 2953 1036 2831 
Q 872 2709 872 2509 
Q 872 2291 1088 2159 
Q 1213 2081 1456 2022 
L 1828 1931 
Q 2434 1784 2641 1647 
Q 2969 1431 2969 969 
Q 2969 522 2630 197 
Q 2291 -128 1597 -128 
Q 850 -128 539 211 
Q 228 550 206 1050 
L 747 1050 
z
M 1578 3428 
L 1578 3428 
z
" transform="scale(0.015625)"/>
      <path id="Helvetica-3a" d="M 709 3303 
L 1363 3303 
L 1363 2622 
L 709 2622 
L 709 3303 
z
M 709 681 
L 1363 681 
L 1363 0 
L 709 0 
L 709 681 
z
" transform="scale(0.015625)"/>
      <path id="Helvetica-78" d="M 94 3347 
L 822 3347 
L 1591 2169 
L 2369 3347 
L 3053 3331 
L 1925 1716 
L 3103 0 
L 2384 0 
L 1553 1256 
L 747 0 
L 34 0 
L 1213 1716 
L 94 3347 
z
" transform="scale(0.015625)"/>
      <path id="DejaVuSans-Oblique-3bb" d="M 2350 4316 
L 3125 0 
L 2516 0 
L 2038 2588 
L 328 0 
L -281 0 
L 1903 3356 
L 1794 3975 
Q 1725 4369 1391 4369 
L 1091 4369 
L 1184 4863 
L 1550 4856 
Q 2253 4847 2350 4316 
z
" transform="scale(0.015625)"/>
      <path id="Helvetica-6e" d="M 413 3347 
L 947 3347 
L 947 2872 
Q 1184 3166 1450 3294 
Q 1716 3422 2041 3422 
Q 2753 3422 3003 2925 
Q 3141 2653 3141 2147 
L 3141 0 
L 2569 0 
L 2569 2109 
Q 2569 2416 2478 2603 
Q 2328 2916 1934 2916 
Q 1734 2916 1606 2875 
Q 1375 2806 1200 2600 
Q 1059 2434 1017 2257 
Q 975 2081 975 1753 
L 975 0 
L 413 0 
L 413 3347 
z
M 1734 3428 
L 1734 3428 
z
" transform="scale(0.015625)"/>
      <path id="Helvetica-71" d="M 775 1628 
Q 775 1194 897 900 
Q 1113 378 1669 378 
Q 2256 378 2478 928 
Q 2600 1231 2600 1703 
Q 2600 2138 2466 2428 
Q 2238 2925 1663 2925 
Q 1297 2925 1036 2608 
Q 775 2291 775 1628 
z
M 1606 3422 
Q 2022 3422 2306 3213 
Q 2463 3100 2606 2881 
L 2606 3347 
L 3141 3347 
L 3141 -1334 
L 2575 -1334 
L 2575 384 
Q 2434 159 2186 26 
Q 1938 -106 1566 -106 
Q 1031 -106 609 312 
Q 188 731 188 1588 
Q 188 2391 583 2906 
Q 978 3422 1606 3422 
z
" transform="scale(0.015625)"/>
      <path id="Helvetica-66" d="M 553 3856 
Q 566 4206 675 4369 
Q 872 4656 1434 4656 
Q 1488 4656 1544 4653 
Q 1600 4650 1672 4644 
L 1672 4131 
Q 1584 4138 1545 4139 
Q 1506 4141 1472 4141 
Q 1216 4141 1166 4008 
Q 1116 3875 1116 3331 
L 1672 3331 
L 1672 2888 
L 1109 2888 
L 1109 0 
L 553 0 
L 553 2888 
L 88 2888 
L 88 3331 
L 553 3331 
L 553 3856 
z
" transform="scale(0.015625)"/>
      <path id="DejaVuSans-Oblique-46" d="M 1081 4666 
L 3756 4666 
L 3653 4134 
L 1606 4134 
L 1338 2759 
L 3188 2759 
L 3084 2228 
L 1234 2228 
L 800 0 
L 172 0 
L 1081 4666 
z
" transform="scale(0.015625)"/>
      <path id="DejaVuSans-Oblique-4c" d="M 1075 4666 
L 1709 4666 
L 909 525 
L 3181 525 
L 3078 0 
L 172 0 
L 1075 4666 
z
" transform="scale(0.015625)"/>
     </defs>
     <use xlink:href="#Helvetica-4c" transform="translate(0 0.015625)"/>
     <use xlink:href="#Helvetica-6f" transform="translate(55.615234 0.015625)"/>
     <use xlink:href="#Helvetica-63" transform="translate(111.230469 0.015625)"/>
     <use xlink:href="#Helvetica-61" transform="translate(161.230469 0.015625)"/>
     <use xlink:href="#Helvetica-6c" transform="translate(216.845703 0.015625)"/>
     <use xlink:href="#Helvetica-20" transform="translate(239.0625 0.015625)"/>
     <use xlink:href="#Helvetica-70" transform="translate(266.845703 0.015625)"/>
     <use xlink:href="#Helvetica-68" transform="translate(322.460938 0.015625)"/>
     <use xlink:href="#Helvetica-61" transform="translate(378.076172 0.015625)"/>
     <use xlink:href="#Helvetica-73" transform="translate(433.691406 0.015625)"/>
     <use xlink:href="#Helvetica-65" transform="translate(483.691406 0.015625)"/>
     <use xlink:href="#Helvetica-3a" transform="translate(539.306641 0.015625)"/>
     <use xlink:href="#Helvetica-20" transform="translate(567.089844 0.015625)"/>
     <use xlink:href="#Helvetica-6d" transform="translate(594.873047 0.015625)"/>
     <use xlink:href="#Helvetica-61" transform="translate(678.173828 0.015625)"/>
     <use xlink:href="#Helvetica-78" transform="translate(733.789062 0.015625)"/>
     <use xlink:href="#Helvetica-20" transform="translate(783.789062 0.015625)"/>
     <use xlink:href="#Helvetica-6d" transform="translate(811.572266 0.015625)"/>
     <use xlink:href="#Helvetica-75" transform="translate(894.873047 0.015625)"/>
     <use xlink:href="#Helvetica-6c" transform="translate(950.488281 0.015625)"/>
     <use xlink:href="#Helvetica-74" transform="translate(972.705078 0.015625)"/>
     <use xlink:href="#Helvetica-69" transform="translate(1000.488281 0.015625)"/>
     <use xlink:href="#Helvetica-70" transform="translate(1022.705078 0.015625)"/>
     <use xlink:href="#Helvetica-6c" transform="translate(1078.320312 0.015625)"/>
     <use xlink:href="#Helvetica-69" transform="translate(1100.537109 0.015625)"/>
     <use xlink:href="#Helvetica-65" transform="translate(1122.753906 0.015625)"/>
     <use xlink:href="#Helvetica-72" transform="translate(1178.369141 0.015625)"/>
     <use xlink:href="#Helvetica-20" transform="translate(1211.669922 0.015625)"/>
     <use xlink:href="#DejaVuSans-Oblique-3bb" transform="translate(1239.453125 0.015625)"/>
     <use xlink:href="#Helvetica-20" transform="translate(1298.632812 0.015625)"/>
     <use xlink:href="#Helvetica-61" transform="translate(1326.416016 0.015625)"/>
     <use xlink:href="#Helvetica-6e" transform="translate(1382.03125 0.015625)"/>
     <use xlink:href="#Helvetica-64" transform="translate(1437.646484 0.015625)"/>
     <use xlink:href="#Helvetica-20" transform="translate(1493.261719 0.015625)"/>
     <use xlink:href="#Helvetica-74" transform="translate(1521.044922 0.015625)"/>
     <use xlink:href="#Helvetica-6f" transform="translate(1548.828125 0.015625)"/>
     <use xlink:href="#Helvetica-74" transform="translate(1604.443359 0.015625)"/>
     <use xlink:href="#Helvetica-61" transform="translate(1632.226562 0.015625)"/>
     <use xlink:href="#Helvetica-6c" transform="translate(1687.841797 0.015625)"/>
     <use xlink:href="#Helvetica-20" transform="translate(1710.058594 0.015625)"/>
     <use xlink:href="#Helvetica-73" transform="translate(1737.841797 0.015625)"/>
     <use xlink:href="#Helvetica-71" transform="translate(1787.841797 0.015625)"/>
     <use xlink:href="#Helvetica-75" transform="translate(1843.457031 0.015625)"/>
     <use xlink:href="#Helvetica-61" transform="translate(1899.072266 0.015625)"/>
     <use xlink:href="#Helvetica-72" transform="translate(1954.6875 0.015625)"/>
     <use xlink:href="#Helvetica-65" transform="translate(1987.988281 0.015625)"/>
     <use xlink:href="#Helvetica-64" transform="translate(2043.603516 0.015625)"/>
     <use xlink:href="#Helvetica-20" transform="translate(2099.21875 0.015625)"/>
     <use xlink:href="#Helvetica-73" transform="translate(2127.001953 0.015625)"/>
     <use xlink:href="#Helvetica-68" transform="translate(2177.001953 0.015625)"/>
     <use xlink:href="#Helvetica-6f" transform="translate(2232.617188 0.015625)"/>
     <use xlink:href="#Helvetica-72" transform="translate(2288.232422 0.015625)"/>
     <use xlink:href="#Helvetica-74" transform="translate(2321.533203 0.015625)"/>
     <use xlink:href="#Helvetica-66" transform="translate(2349.316406 0.015625)"/>
     <use xlink:href="#Helvetica-61" transform="translate(2377.099609 0.015625)"/>
     <use xlink:href="#Helvetica-6c" transform="translate(2432.714844 0.015625)"/>
     <use xlink:href="#Helvetica-6c" transform="translate(2454.931641 0.015625)"/>
     <use xlink:href="#Helvetica-20" transform="translate(2477.148438 0.015625)"/>
     <use xlink:href="#DejaVuSans-Oblique-46" transform="translate(2504.931641 0.015625)"/>
     <use xlink:href="#DejaVuSans-Oblique-4c" transform="translate(2562.451172 -16.390625) scale(0.7)"/>
    </g>
   </g>
   <g id="legend_1">
    <g id="line2d_30">
     <path d="M 480.775313 57.87 
L 489.775313 57.87 
L 498.775313 57.87 
" style="fill: none; stroke: #2563eb; stroke-width: 2; stroke-linecap: square"/>
    </g>
    <g id="text_17">
     <!-- $\lambda$ (dual) -->
     <g style="fill: #212529" transform="translate(505.975313 61.02) scale(0.09 -0.09)">
      <defs>
       <path id="Helvetica-28" d="M 1894 4666 
Q 1403 3713 1256 3263 
Q 1034 2578 1034 1681 
Q 1034 775 1288 25 
Q 1444 -438 1903 -1306 
L 1525 -1306 
Q 1069 -594 959 -397 
Q 850 -200 722 138 
Q 547 600 478 1125 
Q 444 1397 444 1644 
Q 444 2569 734 3291 
Q 919 3750 1503 4666 
L 1894 4666 
z
" transform="scale(0.015625)"/>
       <path id="Helvetica-29" d="M 222 -1306 
Q 719 -338 863 106 
Q 1081 778 1081 1681 
Q 1081 2584 828 3334 
Q 672 3797 213 4666 
L 591 4666 
Q 1072 3897 1173 3717 
Q 1275 3538 1394 3222 
Q 1544 2831 1608 2450 
Q 1672 2069 1672 1716 
Q 1672 791 1378 66 
Q 1194 -400 613 -1306 
L 222 -1306 
z
" transform="scale(0.015625)"/>
      </defs>
      <use xlink:href="#DejaVuSans-Oblique-3bb" transform="translate(0 0.015625)"/>
      <use xlink:href="#Helvetica-20" transform="translate(59.179688 0.015625)"/>
      <use xlink:href="#Helvetica-28" transform="translate(86.962891 0.015625)"/>
      <use xlink:href="#Helvetica-64" transform="translate(120.263672 0.015625)"/>
      <use xlink:href="#Helvetica-75" transform="translate(175.878906 0.015625)"/>
      <use xlink:href="#Helvetica-61" transform="translate(231.494141 0.015625)"/>
      <use xlink:href="#Helvetica-6c" transform="translate(287.109375 0.015625)"/>
      <use xlink:href="#Helvetica-29" transform="translate(309.326172 0.015625)"/>
     </g>
    </g>
    <g id="line2d_31">
     <path d="M 480.775313 70.782187 
L 489.775313 70.782187 
L 498.775313 70.782187 
" style="fill: none; stroke: #d97706; stroke-width: 1.5; stroke-linecap: square"/>
    </g>
    <g id="text_18">
     <!-- F_L (constraint) -->
     <g style="fill: #212529" transform="translate(505.975313 73.932187) scale(0.09 -0.09)">
      <defs>
       <path id="Helvetica-46" d="M 547 4591 
L 3731 4591 
L 3731 4028 
L 1169 4028 
L 1169 2634 
L 3422 2634 
L 3422 2088 
L 1169 2088 
L 1169 0 
L 547 0 
L 547 4591 
z
" transform="scale(0.015625)"/>
       <path id="Helvetica-5f" d="M 0 -800 
L 0 -484 
L 3559 -484 
L 3559 -800 
L 0 -800 
z
" transform="scale(0.015625)"/>
      </defs>
      <use xlink:href="#Helvetica-46"/>
      <use xlink:href="#Helvetica-5f" transform="translate(61.083984 0)"/>
      <use xlink:href="#Helvetica-4c" transform="translate(116.699219 0)"/>
      <use xlink:href="#Helvetica-20" transform="translate(172.314453 0)"/>
      <use xlink:href="#Helvetica-28" transform="translate(200.097656 0)"/>
      <use xlink:href="#Helvetica-63" transform="translate(233.398438 0)"/>
      <use xlink:href="#Helvetica-6f" transform="translate(283.398438 0)"/>
      <use xlink:href="#Helvetica-6e" transform="translate(339.013672 0)"/>
      <use xlink:href="#Helvetica-73" transform="translate(394.628906 0)"/>
      <use xlink:href="#Helvetica-74" transform="translate(444.628906 0)"/>
      <use xlink:href="#Helvetica-72" transform="translate(472.412109 0)"/>
      <use xlink:href="#Helvetica-61" transform="translate(505.712891 0)"/>
      <use xlink:href="#Helvetica-69" transform="translate(561.328125 0)"/>
      <use xlink:href="#Helvetica-6e" transform="translate(583.544922 0)"/>
      <use xlink:href="#Helvetica-74" transform="translate(639.160156 0)"/>
      <use xlink:href="#Helvetica-29" transform="translate(666.943359 0)"/>
     </g>
    </g>
   </g>
  </g>
  <g id="axes_2">
   <g id="patch_5">
    <path d="M 46.942188 390.04 
L 577.092188 390.04 
L 577.092188 239.08 
L 46.942188 239.08 
z
" style="fill: #ffffff"/>
   </g>
   <g id="matplotlib.axis_3">
    <g id="xtick_9">
     <g id="line2d_32">
      <path d="M 71.039915 390.04 
L 71.039915 239.08 
" clip-path="url(#pdeed65f44c)" style="fill: none; stroke: #e9ecef; stroke-width: 0.7; stroke-linecap: square"/>
     </g>
     <g id="line2d_33">
      <g>
       <use xlink:href="#m416f65717f" x="71.039915" y="390.04" style="fill: #6c757d; stroke: #6c757d; stroke-width: 0.8"/>
      </g>
     </g>
     <g id="text_19">
      <!-- 0 -->
      <g style="fill: #6c757d" transform="translate(68.259446 404.213437) scale(0.1 -0.1)">
       <use xlink:href="#Helvetica-30"/>
      </g>
     </g>
    </g>
    <g id="xtick_10">
     <g id="line2d_34">
      <path d="M 138.920837 390.04 
L 138.920837 239.08 
" clip-path="url(#pdeed65f44c)" style="fill: none; stroke: #e9ecef; stroke-width: 0.7; stroke-linecap: square"/>
     </g>
     <g id="line2d_35">
      <g>
       <use xlink:href="#m416f65717f" x="138.920837" y="390.04" style="fill: #6c757d; stroke: #6c757d; stroke-width: 0.8"/>
      </g>
     </g>
     <g id="text_20">
      <!-- 10 -->
      <g style="fill: #6c757d" transform="translate(133.359899 404.213437) scale(0.1 -0.1)">
       <use xlink:href="#Helvetica-31"/>
       <use xlink:href="#Helvetica-30" transform="translate(55.615234 0)"/>
      </g>
     </g>
    </g>
    <g id="xtick_11">
     <g id="line2d_36">
      <path d="M 206.801759 390.04 
L 206.801759 239.08 
" clip-path="url(#pdeed65f44c)" style="fill: none; stroke: #e9ecef; stroke-width: 0.7; stroke-linecap: square"/>
     </g>
     <g id="line2d_37">
      <g>
       <use xlink:href="#m416f65717f" x="206.801759" y="390.04" style="fill: #6c757d; stroke: #6c757d; stroke-width: 0.8"/>
      </g>
     </g>
     <g id="text_21">
      <!-- 20 -->
      <g style="fill: #6c757d" transform="translate(201.240821 404.213437) scale(0.1 -0.1)">
       <use xlink:href="#Helvetica-32"/>
       <use xlink:href="#Helvetica-30" transform="translate(55.615234 0)"/>
      </g>
     </g>
    </g>
    <g id="xtick_12">
     <g id="line2d_38">
      <path d="M 274.68268 390.04 
L 274.68268 239.08 
" clip-path="url(#pdeed65f44c)" style="fill: none; stroke: #e9ecef; stroke-width: 0.7; stroke-linecap: square"/>
     </g>
     <g id="line2d_39">
      <g>
       <use xlink:href="#m416f65717f" x="274.68268" y="390.04" style="fill: #6c757d; stroke: #6c757d; stroke-width: 0.8"/>
      </g>
     </g>
     <g id="text_22">
      <!-- 30 -->
      <g style="fill: #6c757d" transform="translate(269.121743 404.213437) scale(0.1 -0.1)">
       <use xlink:href="#Helvetica-33"/>
       <use xlink:href="#Helvetica-30" transform="translate(55.615234 0)"/>
      </g>
     </g>
    </g>
    <g id="xtick_13">
     <g id="line2d_40">
      <path d="M 342.563602 390.04 
L 342.563602 239.08 
" clip-path="url(#pdeed65f44c)" style="fill: none; stroke: #e9ecef; stroke-width: 0.7; stroke-linecap: square"/>
     </g>
     <g id="line2d_41">
      <g>
       <use xlink:href="#m416f65717f" x="342.563602" y="390.04" style="fill: #6c757d; stroke: #6c757d; stroke-width: 0.8"/>
      </g>
     </g>
     <g id="text_23">
      <!-- 40 -->
      <g style="fill: #6c757d" transform="translate(337.002665 404.213437) scale(0.1 -0.1)">
       <use xlink:href="#Helvetica-34"/>
       <use xlink:href="#Helvetica-30" transform="translate(55.615234 0)"/>
      </g>
     </g>
    </g>
    <g id="xtick_14">
     <g id="line2d_42">
      <path d="M 410.444524 390.04 
L 410.444524 239.08 
" clip-path="url(#pdeed65f44c)" style="fill: none; stroke: #e9ecef; stroke-width: 0.7; stroke-linecap: square"/>
     </g>
     <g id="line2d_43">
      <g>
       <use xlink:href="#m416f65717f" x="410.444524" y="390.04" style="fill: #6c757d; stroke: #6c757d; stroke-width: 0.8"/>
      </g>
     </g>
     <g id="text_24">
      <!-- 50 -->
      <g style="fill: #6c757d" transform="translate(404.883587 404.213437) scale(0.1 -0.1)">
       <use xlink:href="#Helvetica-35"/>
       <use xlink:href="#Helvetica-30" transform="translate(55.615234 0)"/>
      </g>
     </g>
    </g>
    <g id="xtick_15">
     <g id="line2d_44">
      <path d="M 478.325446 390.04 
L 478.325446 239.08 
" clip-path="url(#pdeed65f44c)" style="fill: none; stroke: #e9ecef; stroke-width: 0.7; stroke-linecap: square"/>
     </g>
     <g id="line2d_45">
      <g>
       <use xlink:href="#m416f65717f" x="478.325446" y="390.04" style="fill: #6c757d; stroke: #6c757d; stroke-width: 0.8"/>
      </g>
     </g>
     <g id="text_25">
      <!-- 60 -->
      <g style="fill: #6c757d" transform="translate(472.764509 404.213437) scale(0.1 -0.1)">
       <use xlink:href="#Helvetica-36"/>
       <use xlink:href="#Helvetica-30" transform="translate(55.615234 0)"/>
      </g>
     </g>
    </g>
    <g id="xtick_16">
     <g id="line2d_46">
      <path d="M 546.206368 390.04 
L 546.206368 239.08 
" clip-path="url(#pdeed65f44c)" style="fill: none; stroke: #e9ecef; stroke-width: 0.7; stroke-linecap: square"/>
     </g>
     <g id="line2d_47">
      <g>
       <use xlink:href="#m416f65717f" x="546.206368" y="390.04" style="fill: #6c757d; stroke: #6c757d; stroke-width: 0.8"/>
      </g>
     </g>
     <g id="text_26">
      <!-- 70 -->
      <g style="fill: #6c757d" transform="translate(540.645431 404.213437) scale(0.1 -0.1)">
       <use xlink:href="#Helvetica-37"/>
       <use xlink:href="#Helvetica-30" transform="translate(55.615234 0)"/>
      </g>
     </g>
    </g>
    <g id="text_27">
     <!-- Logged primal steps (phases concatenated in order) -->
     <g style="fill: #212529" transform="translate(196.401563 417.588437) scale(0.1 -0.1)">
      <defs>
       <path id="Helvetica-67" d="M 1594 3406 
Q 1988 3406 2281 3213 
Q 2441 3103 2606 2894 
L 2606 3316 
L 3125 3316 
L 3125 272 
Q 3125 -366 2938 -734 
Q 2588 -1416 1616 -1416 
Q 1075 -1416 706 -1173 
Q 338 -931 294 -416 
L 866 -416 
Q 906 -641 1028 -763 
Q 1219 -950 1628 -950 
Q 2275 -950 2475 -494 
Q 2594 -225 2584 466 
Q 2416 209 2178 84 
Q 1941 -41 1550 -41 
Q 1006 -41 598 345 
Q 191 731 191 1622 
Q 191 2463 602 2934 
Q 1013 3406 1594 3406 
z
M 2606 1688 
Q 2606 2309 2350 2609 
Q 2094 2909 1697 2909 
Q 1103 2909 884 2353 
Q 769 2056 769 1575 
Q 769 1009 998 714 
Q 1228 419 1616 419 
Q 2222 419 2469 966 
Q 2606 1275 2606 1688 
z
M 1659 3428 
L 1659 3428 
z
" transform="scale(0.015625)"/>
      </defs>
      <use xlink:href="#Helvetica-4c"/>
      <use xlink:href="#Helvetica-6f" transform="translate(55.615234 0)"/>
      <use xlink:href="#Helvetica-67" transform="translate(111.230469 0)"/>
      <use xlink:href="#Helvetica-67" transform="translate(166.845703 0)"/>
      <use xlink:href="#Helvetica-65" transform="translate(222.460938 0)"/>
      <use xlink:href="#Helvetica-64" transform="translate(278.076172 0)"/>
      <use xlink:href="#Helvetica-20" transform="translate(333.691406 0)"/>
      <use xlink:href="#Helvetica-70" transform="translate(361.474609 0)"/>
      <use xlink:href="#Helvetica-72" transform="translate(417.089844 0)"/>
      <use xlink:href="#Helvetica-69" transform="translate(450.390625 0)"/>
      <use xlink:href="#Helvetica-6d" transform="translate(472.607422 0)"/>
      <use xlink:href="#Helvetica-61" transform="translate(555.908203 0)"/>
      <use xlink:href="#Helvetica-6c" transform="translate(611.523438 0)"/>
      <use xlink:href="#Helvetica-20" transform="translate(633.740234 0)"/>
      <use xlink:href="#Helvetica-73" transform="translate(661.523438 0)"/>
      <use xlink:href="#Helvetica-74" transform="translate(711.523438 0)"/>
      <use xlink:href="#Helvetica-65" transform="translate(739.306641 0)"/>
      <use xlink:href="#Helvetica-70" transform="translate(794.921875 0)"/>
      <use xlink:href="#Helvetica-73" transform="translate(850.537109 0)"/>
      <use xlink:href="#Helvetica-20" transform="translate(900.537109 0)"/>
      <use xlink:href="#Helvetica-28" transform="translate(928.320312 0)"/>
      <use xlink:href="#Helvetica-70" transform="translate(961.621094 0)"/>
      <use xlink:href="#Helvetica-68" transform="translate(1017.236328 0)"/>
      <use xlink:href="#Helvetica-61" transform="translate(1072.851562 0)"/>
      <use xlink:href="#Helvetica-73" transform="translate(1128.466797 0)"/>
      <use xlink:href="#Helvetica-65" transform="translate(1178.466797 0)"/>
      <use xlink:href="#Helvetica-73" transform="translate(1234.082031 0)"/>
      <use xlink:href="#Helvetica-20" transform="translate(1284.082031 0)"/>
      <use xlink:href="#Helvetica-63" transform="translate(1311.865234 0)"/>
      <use xlink:href="#Helvetica-6f" transform="translate(1361.865234 0)"/>
      <use xlink:href="#Helvetica-6e" transform="translate(1417.480469 0)"/>
      <use xlink:href="#Helvetica-63" transform="translate(1473.095703 0)"/>
      <use xlink:href="#Helvetica-61" transform="translate(1523.095703 0)"/>
      <use xlink:href="#Helvetica-74" transform="translate(1578.710938 0)"/>
      <use xlink:href="#Helvetica-65" transform="translate(1606.494141 0)"/>
      <use xlink:href="#Helvetica-6e" transform="translate(1662.109375 0)"/>
      <use xlink:href="#Helvetica-61" transform="translate(1717.724609 0)"/>
      <use xlink:href="#Helvetica-74" transform="translate(1773.339844 0)"/>
      <use xlink:href="#Helvetica-65" transform="translate(1801.123047 0)"/>
      <use xlink:href="#Helvetica-64" transform="translate(1856.738281 0)"/>
      <use xlink:href="#Helvetica-20" transform="translate(1912.353516 0)"/>
      <use xlink:href="#Helvetica-69" transform="translate(1940.136719 0)"/>
      <use xlink:href="#Helvetica-6e" transform="translate(1962.353516 0)"/>
      <use xlink:href="#Helvetica-20" transform="translate(2017.96875 0)"/>
      <use xlink:href="#Helvetica-6f" transform="translate(2045.751953 0)"/>
      <use xlink:href="#Helvetica-72" transform="translate(2101.367188 0)"/>
      <use xlink:href="#Helvetica-64" transform="translate(2134.667969 0)"/>
      <use xlink:href="#Helvetica-65" transform="translate(2190.283203 0)"/>
      <use xlink:href="#Helvetica-72" transform="translate(2245.898438 0)"/>
      <use xlink:href="#Helvetica-29" transform="translate(2279.199219 0)"/>
     </g>
    </g>
   </g>
   <g id="matplotlib.axis_4">
    <g id="ytick_7">
     <g id="line2d_48">
      <path d="M 46.942188 383.178182 
L 577.092188 383.178182 
" clip-path="url(#pdeed65f44c)" style="fill: none; stroke: #e9ecef; stroke-width: 0.7; stroke-linecap: square"/>
     </g>
     <g id="line2d_49">
      <g>
       <use xlink:href="#m5ff9ab330d" x="46.942188" y="383.178182" style="fill: #6c757d; stroke: #6c757d; stroke-width: 0.8"/>
      </g>
     </g>
     <g id="text_28">
      <!-- 0 -->
      <g style="fill: #2563eb" transform="translate(34.38125 386.764901) scale(0.1 -0.1)">
       <use xlink:href="#Helvetica-30"/>
      </g>
     </g>
    </g>
    <g id="ytick_8">
     <g id="line2d_50">
      <path d="M 46.942188 340.248127 
L 577.092188 340.248127 
" clip-path="url(#pdeed65f44c)" style="fill: none; stroke: #e9ecef; stroke-width: 0.7; stroke-linecap: square"/>
     </g>
     <g id="line2d_51">
      <g>
       <use xlink:href="#m5ff9ab330d" x="46.942188" y="340.248127" style="fill: #6c757d; stroke: #6c757d; stroke-width: 0.8"/>
      </g>
     </g>
     <g id="text_29">
      <!-- 1 -->
      <g style="fill: #2563eb" transform="translate(34.38125 343.834846) scale(0.1 -0.1)">
       <use xlink:href="#Helvetica-31"/>
      </g>
     </g>
    </g>
    <g id="ytick_9">
     <g id="line2d_52">
      <path d="M 46.942188 297.318072 
L 577.092188 297.318072 
" clip-path="url(#pdeed65f44c)" style="fill: none; stroke: #e9ecef; stroke-width: 0.7; stroke-linecap: square"/>
     </g>
     <g id="line2d_53">
      <g>
       <use xlink:href="#m5ff9ab330d" x="46.942188" y="297.318072" style="fill: #6c757d; stroke: #6c757d; stroke-width: 0.8"/>
      </g>
     </g>
     <g id="text_30">
      <!-- 2 -->
      <g style="fill: #2563eb" transform="translate(34.38125 300.904791) scale(0.1 -0.1)">
       <use xlink:href="#Helvetica-32"/>
      </g>
     </g>
    </g>
    <g id="ytick_10">
     <g id="line2d_54">
      <path d="M 46.942188 254.388017 
L 577.092188 254.388017 
" clip-path="url(#pdeed65f44c)" style="fill: none; stroke: #e9ecef; stroke-width: 0.7; stroke-linecap: square"/>
     </g>
     <g id="line2d_55">
      <g>
       <use xlink:href="#m5ff9ab330d" x="46.942188" y="254.388017" style="fill: #6c757d; stroke: #6c757d; stroke-width: 0.8"/>
      </g>
     </g>
     <g id="text_31">
      <!-- 3 -->
      <g style="fill: #2563eb" transform="translate(34.38125 257.974736) scale(0.1 -0.1)">
       <use xlink:href="#Helvetica-33"/>
      </g>
     </g>
    </g>
    <g id="text_32">
     <!-- dual multiplier -->
     <g style="fill: #2563eb" transform="translate(28.296875 345.405312) rotate(-90) scale(0.1 -0.1)">
      <use xlink:href="#Helvetica-64"/>
      <use xlink:href="#Helvetica-75" transform="translate(55.615234 0)"/>
      <use xlink:href="#Helvetica-61" transform="translate(111.230469 0)"/>
      <use xlink:href="#Helvetica-6c" transform="translate(166.845703 0)"/>
      <use xlink:href="#Helvetica-20" transform="translate(189.0625 0)"/>
      <use xlink:href="#Helvetica-6d" transform="translate(216.845703 0)"/>
      <use xlink:href="#Helvetica-75" transform="translate(300.146484 0)"/>
      <use xlink:href="#Helvetica-6c" transform="translate(355.761719 0)"/>
      <use xlink:href="#Helvetica-74" transform="translate(377.978516 0)"/>
      <use xlink:href="#Helvetica-69" transform="translate(405.761719 0)"/>
      <use xlink:href="#Helvetica-70" transform="translate(427.978516 0)"/>
      <use xlink:href="#Helvetica-6c" transform="translate(483.59375 0)"/>
      <use xlink:href="#Helvetica-69" transform="translate(505.810547 0)"/>
      <use xlink:href="#Helvetica-65" transform="translate(528.027344 0)"/>
      <use xlink:href="#Helvetica-72" transform="translate(583.642578 0)"/>
     </g>
    </g>
   </g>
   <g id="line2d_56">
    <path d="M 71.039915 281.471135 
L 77.828007 287.869033 
L 84.616099 301.071583 
L 91.404191 314.809201 
L 98.192284 328.546818 
L 104.980376 342.284436 
L 111.768468 356.022053 
L 118.55656 369.759671 
L 125.344652 383.178182 
L 132.132744 383.178182 
L 138.920837 383.178182 
L 145.708929 383.178182 
L 152.497021 381.274093 
L 159.285113 327.538701 
L 166.073205 341.276043 
L 172.861298 355.013516 
L 179.64939 368.75107 
L 186.437482 382.48864 
L 193.225574 383.178182 
L 200.013666 383.178182 
L 206.801759 383.178182 
L 213.589851 383.178182 
L 220.377943 383.178182 
L 227.166035 383.178182 
L 233.954127 383.178182 
L 240.74222 383.178182 
L 247.530312 383.178182 
L 254.318404 383.178182 
L 261.106496 383.178182 
L 267.894588 383.178182 
L 274.68268 383.178182 
L 281.470773 383.178182 
L 288.258865 383.178182 
L 295.046957 383.178182 
L 301.835049 383.178182 
L 308.623141 383.178182 
L 315.411234 245.941818 
L 322.199326 251.271537 
L 328.987418 264.983299 
L 335.77551 278.708952 
L 342.563602 292.436287 
L 349.351695 306.164358 
L 356.139787 319.893037 
L 362.927879 333.622467 
L 369.715971 347.352976 
L 376.504063 361.083989 
L 383.292155 374.815171 
L 390.080248 383.178182 
L 396.86834 383.178182 
L 403.656432 383.178182 
L 410.444524 328.293315 
L 417.232616 342.003854 
L 424.020709 355.730446 
L 430.808801 369.459811 
L 437.596893 383.178182 
L 444.384985 383.178182 
L 451.173077 383.178182 
L 457.96117 383.178182 
L 464.749262 383.178182 
L 471.537354 383.178182 
L 478.325446 383.178182 
L 485.113538 383.178182 
L 491.901631 383.178182 
L 498.689723 383.178182 
L 505.477815 383.178182 
L 512.265907 383.178182 
L 519.053999 383.178182 
L 525.842091 383.178182 
L 532.630184 383.178182 
L 539.418276 383.178182 
L 546.206368 383.178182 
L 552.99446 383.178182 
" clip-path="url(#pdeed65f44c)" style="fill: none; stroke: #2563eb; stroke-width: 2; stroke-linecap: square"/>
   </g>
   <g id="patch_6">
    <path d="M 46.942188 390.04 
L 46.942188 239.08 
" style="fill: none; stroke: #495057; stroke-width: 0.8; stroke-linejoin: miter; stroke-linecap: square"/>
   </g>
   <g id="patch_7">
    <path d="M 46.942188 390.04 
L 577.092188 390.04 
" style="fill: none; stroke: #495057; stroke-width: 0.8; stroke-linejoin: miter; stroke-linecap: square"/>
   </g>
   <g id="text_33">
    <!-- Global phase: multiplier $\mu$ and squared shortfall $F_G$ -->
    <g style="fill: #212529" transform="translate(188.762188 233.08) scale(0.11 -0.11)">
     <defs>
      <path id="Helvetica-47" d="M 2472 4709 
Q 3119 4709 3591 4459 
Q 4275 4100 4428 3200 
L 3813 3200 
Q 3700 3703 3347 3933 
Q 2994 4163 2456 4163 
Q 1819 4163 1383 3684 
Q 947 3206 947 2259 
Q 947 1441 1306 927 
Q 1666 413 2478 413 
Q 3100 413 3508 773 
Q 3916 1134 3925 1941 
L 2488 1941 
L 2488 2456 
L 4503 2456 
L 4503 0 
L 4103 0 
L 3953 591 
Q 3638 244 3394 109 
Q 2984 -122 2353 -122 
Q 1538 -122 950 406 
Q 309 1069 309 2225 
Q 309 3378 934 4059 
Q 1528 4709 2472 4709 
z
M 2369 4716 
L 2369 4716 
z
" transform="scale(0.015625)"/>
      <path id="Helvetica-62" d="M 369 4606 
L 916 4606 
L 916 2941 
Q 1100 3181 1356 3307 
Q 1613 3434 1913 3434 
Q 2538 3434 2927 3004 
Q 3316 2575 3316 1738 
Q 3316 944 2931 419 
Q 2547 -106 1866 -106 
Q 1484 -106 1222 78 
Q 1066 188 888 428 
L 888 0 
L 369 0 
L 369 4606 
z
M 1831 391 
Q 2288 391 2514 753 
Q 2741 1116 2741 1709 
Q 2741 2238 2514 2584 
Q 2288 2931 1847 2931 
Q 1463 2931 1173 2647 
Q 884 2363 884 1709 
Q 884 1238 1003 944 
Q 1225 391 1831 391 
z
" transform="scale(0.015625)"/>
      <path id="DejaVuSans-Oblique-3bc" d="M -84 -1331 
L 856 3500 
L 1434 3500 
L 1009 1322 
Q 997 1256 987 1175 
Q 978 1094 978 1013 
Q 978 722 1161 565 
Q 1344 409 1684 409 
Q 2147 409 2431 671 
Q 2716 934 2816 1459 
L 3213 3500 
L 3788 3500 
L 3266 809 
Q 3253 750 3248 706 
Q 3244 663 3244 628 
Q 3244 531 3283 486 
Q 3322 441 3406 441 
Q 3438 441 3492 456 
Q 3547 472 3647 513 
L 3559 50 
Q 3422 -19 3297 -55 
Q 3172 -91 3053 -91 
Q 2847 -91 2730 40 
Q 2613 172 2613 403 
Q 2438 153 2195 31 
Q 1953 -91 1625 -91 
Q 1334 -91 1117 43 
Q 900 178 831 397 
L 494 -1331 
L -84 -1331 
z
" transform="scale(0.015625)"/>
      <path id="DejaVuSans-Oblique-47" d="M 3494 697 
L 3738 1919 
L 2700 1919 
L 2797 2438 
L 4453 2438 
L 4050 384 
Q 3634 156 3143 32 
Q 2653 -91 2156 -91 
Q 1278 -91 783 396 
Q 288 884 288 1753 
Q 288 2475 589 3126 
Q 891 3778 1422 4213 
Q 1756 4484 2153 4617 
Q 2550 4750 3034 4750 
Q 3472 4750 3873 4639 
Q 4275 4528 4641 4306 
L 4513 3634 
Q 4231 3928 3853 4083 
Q 3475 4238 3047 4238 
Q 2550 4238 2172 4048 
Q 1794 3859 1497 3463 
Q 1244 3125 1098 2667 
Q 953 2209 953 1734 
Q 953 1081 1287 751 
Q 1622 422 2284 422 
Q 2616 422 2925 492 
Q 3234 563 3494 697 
z
" transform="scale(0.015625)"/>
     </defs>
     <use xlink:href="#Helvetica-47" transform="translate(0 0.3125)"/>
     <use xlink:href="#Helvetica-6c" transform="translate(77.783203 0.3125)"/>
     <use xlink:href="#Helvetica-6f" transform="translate(100 0.3125)"/>
     <use xlink:href="#Helvetica-62" transform="translate(155.615234 0.3125)"/>
     <use xlink:href="#Helvetica-61" transform="translate(211.230469 0.3125)"/>
     <use xlink:href="#Helvetica-6c" transform="translate(266.845703 0.3125)"/>
     <use xlink:href="#Helvetica-20" transform="translate(289.0625 0.3125)"/>
     <use xlink:href="#Helvetica-70" transform="translate(316.845703 0.3125)"/>
     <use xlink:href="#Helvetica-68" transform="translate(372.460938 0.3125)"/>
     <use xlink:href="#Helvetica-61" transform="translate(428.076172 0.3125)"/>
     <use xlink:href="#Helvetica-73" transform="translate(483.691406 0.3125)"/>
     <use xlink:href="#Helvetica-65" transform="translate(533.691406 0.3125)"/>
     <use xlink:href="#Helvetica-3a" transform="translate(589.306641 0.3125)"/>
     <use xlink:href="#Helvetica-20" transform="translate(617.089844 0.3125)"/>
     <use xlink:href="#Helvetica-6d" transform="translate(644.873047 0.3125)"/>
     <use xlink:href="#Helvetica-75" transform="translate(728.173828 0.3125)"/>
     <use xlink:href="#Helvetica-6c" transform="translate(783.789062 0.3125)"/>
     <use xlink:href="#Helvetica-74" transform="translate(806.005859 0.3125)"/>
     <use xlink:href="#Helvetica-69" transform="translate(833.789062 0.3125)"/>
     <use xlink:href="#Helvetica-70" transform="translate(856.005859 0.3125)"/>
     <use xlink:href="#Helvetica-6c" transform="translate(911.621094 0.3125)"/>
     <use xlink:href="#Helvetica-69" transform="translate(933.837891 0.3125)"/>
     <use xlink:href="#Helvetica-65" transform="translate(956.054688 0.3125)"/>
     <use xlink:href="#Helvetica-72" transform="translate(1011.669922 0.3125)"/>
     <use xlink:href="#Helvetica-20" transform="translate(1044.970703 0.3125)"/>
     <use xlink:href="#DejaVuSans-Oblique-3bc" transform="translate(1072.753906 0.3125)"/>
     <use xlink:href="#Helvetica-20" transform="translate(1136.376953 0.3125)"/>
     <use xlink:href="#Helvetica-61" transform="translate(1164.160156 0.3125)"/>
     <use xlink:href="#Helvetica-6e" transform="translate(1219.775391 0.3125)"/>
     <use xlink:href="#Helvetica-64" transform="translate(1275.390625 0.3125)"/>
     <use xlink:href="#Helvetica-20" transform="translate(1331.005859 0.3125)"/>
     <use xlink:href="#Helvetica-73" transform="translate(1358.789062 0.3125)"/>
     <use xlink:href="#Helvetica-71" transform="translate(1408.789062 0.3125)"/>
     <use xlink:href="#Helvetica-75" transform="translate(1464.404297 0.3125)"/>
     <use xlink:href="#Helvetica-61" transform="translate(1520.019531 0.3125)"/>
     <use xlink:href="#Helvetica-72" transform="translate(1575.634766 0.3125)"/>
     <use xlink:href="#Helvetica-65" transform="translate(1608.935547 0.3125)"/>
     <use xlink:href="#Helvetica-64" transform="translate(1664.550781 0.3125)"/>
     <use xlink:href="#Helvetica-20" transform="translate(1720.166016 0.3125)"/>
     <use xlink:href="#Helvetica-73" transform="translate(1747.949219 0.3125)"/>
     <use xlink:href="#Helvetica-68" transform="translate(1797.949219 0.3125)"/>
     <use xlink:href="#Helvetica-6f" transform="translate(1853.564453 0.3125)"/>
     <use xlink:href="#Helvetica-72" transform="translate(1909.179688 0.3125)"/>
     <use xlink:href="#Helvetica-74" transform="translate(1942.480469 0.3125)"/>
     <use xlink:href="#Helvetica-66" transform="translate(1970.263672 0.3125)"/>
     <use xlink:href="#Helvetica-61" transform="translate(1998.046875 0.3125)"/>
     <use xlink:href="#Helvetica-6c" transform="translate(2053.662109 0.3125)"/>
     <use xlink:href="#Helvetica-6c" transform="translate(2075.878906 0.3125)"/>
     <use xlink:href="#Helvetica-20" transform="translate(2098.095703 0.3125)"/>
     <use xlink:href="#DejaVuSans-Oblique-46" transform="translate(2125.878906 0.3125)"/>
     <use xlink:href="#DejaVuSans-Oblique-47" transform="translate(2183.398438 -16.09375) scale(0.7)"/>
    </g>
   </g>
   <g id="legend_2">
    <g id="line2d_57">
     <path d="M 478.779844 250.6 
L 487.779844 250.6 
L 496.779844 250.6 
" style="fill: none; stroke: #2563eb; stroke-width: 2; stroke-linecap: square"/>
    </g>
    <g id="text_34">
     <!-- $\mu$ (dual) -->
     <g style="fill: #212529" transform="translate(503.979844 253.75) scale(0.09 -0.09)">
      <use xlink:href="#DejaVuSans-Oblique-3bc" transform="translate(0 0.09375)"/>
      <use xlink:href="#Helvetica-20" transform="translate(63.623047 0.09375)"/>
      <use xlink:href="#Helvetica-28" transform="translate(91.40625 0.09375)"/>
      <use xlink:href="#Helvetica-64" transform="translate(124.707031 0.09375)"/>
      <use xlink:href="#Helvetica-75" transform="translate(180.322266 0.09375)"/>
      <use xlink:href="#Helvetica-61" transform="translate(235.9375 0.09375)"/>
      <use xlink:href="#Helvetica-6c" transform="translate(291.552734 0.09375)"/>
      <use xlink:href="#Helvetica-29" transform="translate(313.769531 0.09375)"/>
     </g>
    </g>
    <g id="line2d_58">
     <path d="M 478.779844 263.5825 
L 487.779844 263.5825 
L 496.779844 263.5825 
" style="fill: none; stroke: #d97706; stroke-width: 1.5; stroke-linecap: square"/>
    </g>
    <g id="text_35">
     <!-- F_G (constraint) -->
     <g style="fill: #212529" transform="translate(503.979844 266.7325) scale(0.09 -0.09)">
      <use xlink:href="#Helvetica-46"/>
      <use xlink:href="#Helvetica-5f" transform="translate(61.083984 0)"/>
      <use xlink:href="#Helvetica-47" transform="translate(116.699219 0)"/>
      <use xlink:href="#Helvetica-20" transform="translate(194.482422 0)"/>
      <use xlink:href="#Helvetica-28" transform="translate(222.265625 0)"/>
      <use xlink:href="#Helvetica-63" transform="translate(255.566406 0)"/>
      <use xlink:href="#Helvetica-6f" transform="translate(305.566406 0)"/>
      <use xlink:href="#Helvetica-6e" transform="translate(361.181641 0)"/>
      <use xlink:href="#Helvetica-73" transform="translate(416.796875 0)"/>
      <use xlink:href="#Helvetica-74" transform="translate(466.796875 0)"/>
      <use xlink:href="#Helvetica-72" transform="translate(494.580078 0)"/>
      <use xlink:href="#Helvetica-61" transform="translate(527.880859 0)"/>
      <use xlink:href="#Helvetica-69" transform="translate(583.496094 0)"/>
      <use xlink:href="#Helvetica-6e" transform="translate(605.712891 0)"/>
      <use xlink:href="#Helvetica-74" transform="translate(661.328125 0)"/>
      <use xlink:href="#Helvetica-29" transform="translate(689.111328 0)"/>
     </g>
    </g>
   </g>
  </g>
  <g id="axes_3">
   <g id="matplotlib.axis_5">
    <g id="ytick_11">
     <g id="line2d_59">
      <defs>
       <path id="m6f4b840a4a" d="M 0 0 
L 3.5 0 
" style="stroke: #6c757d; stroke-width: 0.8"/>
      </defs>
      <g>
       <use xlink:href="#m6f4b840a4a" x="577.092188" y="190.178182" style="fill: #6c757d; stroke: #6c757d; stroke-width: 0.8"/>
      </g>
     </g>
     <g id="text_36">
      <!-- 0.00000 -->
      <g style="fill: #d97706" transform="translate(584.092188 193.764901) scale(0.1 -0.1)">
       <use xlink:href="#Helvetica-30"/>
       <use xlink:href="#Helvetica-2e" transform="translate(55.615234 0)"/>
       <use xlink:href="#Helvetica-30" transform="translate(83.398438 0)"/>
       <use xlink:href="#Helvetica-30" transform="translate(139.013672 0)"/>
       <use xlink:href="#Helvetica-30" transform="translate(194.628906 0)"/>
       <use xlink:href="#Helvetica-30" transform="translate(250.244141 0)"/>
       <use xlink:href="#Helvetica-30" transform="translate(305.859375 0)"/>
      </g>
     </g>
    </g>
    <g id="ytick_12">
     <g id="line2d_60">
      <g>
       <use xlink:href="#m6f4b840a4a" x="577.092188" y="166.91695" style="fill: #6c757d; stroke: #6c757d; stroke-width: 0.8"/>
      </g>
     </g>
     <g id="text_37">
      <!-- 0.00005 -->
      <g style="fill: #d97706" transform="translate(584.092188 170.503669) scale(0.1 -0.1)">
       <use xlink:href="#Helvetica-30"/>
       <use xlink:href="#Helvetica-2e" transform="translate(55.615234 0)"/>
       <use xlink:href="#Helvetica-30" transform="translate(83.398438 0)"/>
       <use xlink:href="#Helvetica-30" transform="translate(139.013672 0)"/>
       <use xlink:href="#Helvetica-30" transform="translate(194.628906 0)"/>
       <use xlink:href="#Helvetica-30" transform="translate(250.244141 0)"/>
       <use xlink:href="#Helvetica-35" transform="translate(305.859375 0)"/>
      </g>
     </g>
    </g>
    <g id="ytick_13">
     <g id="line2d_61">
      <g>
       <use xlink:href="#m6f4b840a4a" x="577.092188" y="143.655719" style="fill: #6c757d; stroke: #6c757d; stroke-width: 0.8"/>
      </g>
     </g>
     <g id="text_38">
      <!-- 0.00010 -->
      <g style="fill: #d97706" transform="translate(584.092188 147.242437) scale(0.1 -0.1)">
       <use xlink:href="#Helvetica-30"/>
       <use xlink:href="#Helvetica-2e" transform="translate(55.615234 0)"/>
       <use xlink:href="#Helvetica-30" transform="translate(83.398438 0)"/>
       <use xlink:href="#Helvetica-30" transform="translate(139.013672 0)"/>
       <use xlink:href="#Helvetica-30" transform="translate(194.628906 0)"/>
       <use xlink:href="#Helvetica-31" transform="translate(250.244141 0)"/>
       <use xlink:href="#Helvetica-30" transform="translate(305.859375 0)"/>
      </g>
     </g>
    </g>
    <g id="ytick_14">
     <g id="line2d_62">
      <g>
       <use xlink:href="#m6f4b840a4a" x="577.092188" y="120.394487" style="fill: #6c757d; stroke: #6c757d; stroke-width: 0.8"/>
      </g>
     </g>
     <g id="text_39">
      <!-- 0.00015 -->
      <g style="fill: #d97706" transform="translate(584.092188 123.981206) scale(0.1 -0.1)">
       <use xlink:href="#Helvetica-30"/>
       <use xlink:href="#Helvetica-2e" transform="translate(55.615234 0)"/>
       <use xlink:href="#Helvetica-30" transform="translate(83.398438 0)"/>
       <use xlink:href="#Helvetica-30" transform="translate(139.013672 0)"/>
       <use xlink:href="#Helvetica-30" transform="translate(194.628906 0)"/>
       <use xlink:href="#Helvetica-31" transform="translate(250.244141 0)"/>
       <use xlink:href="#Helvetica-35" transform="translate(305.859375 0)"/>
      </g>
     </g>
    </g>
    <g id="ytick_15">
     <g id="line2d_63">
      <g>
       <use xlink:href="#m6f4b840a4a" x="577.092188" y="97.133255" style="fill: #6c757d; stroke: #6c757d; stroke-width: 0.8"/>
      </g>
     </g>
     <g id="text_40">
      <!-- 0.00020 -->
      <g style="fill: #d97706" transform="translate(584.092188 100.719974) scale(0.1 -0.1)">
       <use xlink:href="#Helvetica-30"/>
       <use xlink:href="#Helvetica-2e" transform="translate(55.615234 0)"/>
       <use xlink:href="#Helvetica-30" transform="translate(83.398438 0)"/>
       <use xlink:href="#Helvetica-30" transform="translate(139.013672 0)"/>
       <use xlink:href="#Helvetica-30" transform="translate(194.628906 0)"/>
       <use xlink:href="#Helvetica-32" transform="translate(250.244141 0)"/>
       <use xlink:href="#Helvetica-30" transform="translate(305.859375 0)"/>
      </g>
     </g>
    </g>
    <g id="ytick_16">
     <g id="line2d_64">
      <g>
       <use xlink:href="#m6f4b840a4a" x="577.092188" y="73.872024" style="fill: #6c757d; stroke: #6c757d; stroke-width: 0.8"/>
      </g>
     </g>
     <g id="text_41">
      <!-- 0.00025 -->
      <g style="fill: #d97706" transform="translate(584.092188 77.458742) scale(0.1 -0.1)">
       <use xlink:href="#Helvetica-30"/>
       <use xlink:href="#Helvetica-2e" transform="translate(55.615234 0)"/>
       <use xlink:href="#Helvetica-30" transform="translate(83.398438 0)"/>
       <use xlink:href="#Helvetica-30" transform="translate(139.013672 0)"/>
       <use xlink:href="#Helvetica-30" transform="translate(194.628906 0)"/>
       <use xlink:href="#Helvetica-32" transform="translate(250.244141 0)"/>
       <use xlink:href="#Helvetica-35" transform="translate(305.859375 0)"/>
      </g>
     </g>
    </g>
    <g id="ytick_17">
     <g id="line2d_65">
      <g>
       <use xlink:href="#m6f4b840a4a" x="577.092188" y="50.610792" style="fill: #6c757d; stroke: #6c757d; stroke-width: 0.8"/>
      </g>
     </g>
     <g id="text_42">
      <!-- 0.00030 -->
      <g style="fill: #d97706" transform="translate(584.092188 54.197511) scale(0.1 -0.1)">
       <use xlink:href="#Helvetica-30"/>
       <use xlink:href="#Helvetica-2e" transform="translate(55.615234 0)"/>
       <use xlink:href="#Helvetica-30" transform="translate(83.398438 0)"/>
       <use xlink:href="#Helvetica-30" transform="translate(139.013672 0)"/>
       <use xlink:href="#Helvetica-30" transform="translate(194.628906 0)"/>
       <use xlink:href="#Helvetica-33" transform="translate(250.244141 0)"/>
       <use xlink:href="#Helvetica-30" transform="translate(305.859375 0)"/>
      </g>
     </g>
    </g>
    <g id="text_43">
     <!-- squared shortfall -->
     <g style="fill: #d97706" transform="translate(631.510938 158.5225) rotate(-90) scale(0.1 -0.1)">
      <use xlink:href="#Helvetica-73"/>
      <use xlink:href="#Helvetica-71" transform="translate(50 0)"/>
      <use xlink:href="#Helvetica-75" transform="translate(105.615234 0)"/>
      <use xlink:href="#Helvetica-61" transform="translate(161.230469 0)"/>
      <use xlink:href="#Helvetica-72" transform="translate(216.845703 0)"/>
      <use xlink:href="#Helvetica-65" transform="translate(250.146484 0)"/>
      <use xlink:href="#Helvetica-64" transform="translate(305.761719 0)"/>
      <use xlink:href="#Helvetica-20" transform="translate(361.376953 0)"/>
      <use xlink:href="#Helvetica-73" transform="translate(389.160156 0)"/>
      <use xlink:href="#Helvetica-68" transform="translate(439.160156 0)"/>
      <use xlink:href="#Helvetica-6f" transform="translate(494.775391 0)"/>
      <use xlink:href="#Helvetica-72" transform="translate(550.390625 0)"/>
      <use xlink:href="#Helvetica-74" transform="translate(583.691406 0)"/>
      <use xlink:href="#Helvetica-66" transform="translate(611.474609 0)"/>
      <use xlink:href="#Helvetica-61" transform="translate(639.257812 0)"/>
      <use xlink:href="#Helvetica-6c" transform="translate(694.873047 0)"/>
      <use xlink:href="#Helvetica-6c" transform="translate(717.089844 0)"/>
     </g>
    </g>
   </g>
   <g id="line2d_66">
    <path d="M 71.039915 190.178182 
L 77.828007 188.854089 
L 84.616099 189.593951 
L 91.404191 189.762854 
L 98.192284 189.785998 
L 104.980376 189.79269 
L 111.768468 189.79375 
L 118.55656 189.794103 
L 125.344652 189.793951 
L 132.132744 189.794002 
L 138.920837 189.794002 
L 145.708929 189.794002 
L 152.497021 190.178182 
L 159.285113 126.736305 
L 166.073205 66.325395 
L 172.861298 67.231334 
L 179.64939 67.3404 
L 186.437482 67.352115 
L 193.225574 67.354819 
L 200.013666 67.354819 
L 206.801759 67.35572 
L 213.589851 67.356621 
L 220.377943 67.357522 
L 227.166035 67.359324 
L 233.954127 190.178182 
L 240.74222 190.178182 
L 247.530312 190.178182 
L 254.318404 190.178182 
L 261.106496 190.178182 
L 267.894588 190.178182 
L 274.68268 190.178182 
L 281.470773 190.178182 
L 288.258865 190.178182 
L 295.046957 190.178182 
L 301.835049 190.178182 
L 308.623141 190.178182 
L 315.411234 190.178182 
L 322.199326 189.779379 
L 328.987418 190.009706 
L 335.77551 189.530008 
L 342.563602 188.206109 
L 349.351695 186.889283 
L 356.139787 186.64943 
L 362.927879 186.607767 
L 369.715971 186.571263 
L 376.504063 186.530691 
L 383.292155 186.485362 
L 390.080248 186.4863 
L 396.86834 190.178182 
L 403.656432 140.14636 
L 410.444524 190.161907 
L 417.232616 190.161907 
L 424.020709 190.161907 
L 430.808801 190.161907 
L 437.596893 190.161907 
L 444.384985 190.161907 
L 451.173077 190.161907 
L 457.96117 190.161907 
L 464.749262 190.161907 
L 471.537354 190.161907 
L 478.325446 190.178182 
L 485.113538 112.947734 
L 491.901631 56.00557 
L 498.689723 54.097566 
L 505.477815 53.884089 
L 512.265907 53.647635 
L 519.053999 53.461359 
L 525.842091 53.314928 
L 532.630184 53.196009 
L 539.418276 53.101785 
L 546.206368 53.0161 
L 552.99446 52.941818 
" clip-path="url(#p3d7c065552)" style="fill: none; stroke: #d97706; stroke-width: 1.5; stroke-linecap: square"/>
   </g>
   <g id="patch_8">
    <path d="M 46.942188 197.04 
L 46.942188 46.08 
" style="fill: none; stroke: #495057; stroke-width: 0.8; stroke-linejoin: miter; stroke-linecap: square"/>
   </g>
   <g id="patch_9">
    <path d="M 46.942188 197.04 
L 577.092188 197.04 
" style="fill: none; stroke: #495057; stroke-width: 0.8; stroke-linejoin: miter; stroke-linecap: square"/>
   </g>
  </g>
  <g id="axes_4">
   <g id="matplotlib.axis_6">
    <g id="ytick_18">
     <g id="line2d_67">
      <g>
       <use xlink:href="#m6f4b840a4a" x="577.092188" y="383.178182" style="fill: #6c757d; stroke: #6c757d; stroke-width: 0.8"/>
      </g>
     </g>
     <g id="text_44">
      <!-- 0.0 -->
      <g style="fill: #d97706" transform="translate(584.092188 386.764901) scale(0.1 -0.1)">
       <use xlink:href="#Helvetica-30"/>
       <use xlink:href="#Helvetica-2e" transform="translate(55.615234 0)"/>
       <use xlink:href="#Helvetica-30" transform="translate(83.398438 0)"/>
      </g>
     </g>
    </g>
    <g id="ytick_19">
     <g id="line2d_68">
      <g>
       <use xlink:href="#m6f4b840a4a" x="577.092188" y="348.971106" style="fill: #6c757d; stroke: #6c757d; stroke-width: 0.8"/>
      </g>
     </g>
     <g id="text_45">
      <!-- 0.1 -->
      <g style="fill: #d97706" transform="translate(584.092188 352.557824) scale(0.1 -0.1)">
       <use xlink:href="#Helvetica-30"/>
       <use xlink:href="#Helvetica-2e" transform="translate(55.615234 0)"/>
       <use xlink:href="#Helvetica-31" transform="translate(83.398438 0)"/>
      </g>
     </g>
    </g>
    <g id="ytick_20">
     <g id="line2d_69">
      <g>
       <use xlink:href="#m6f4b840a4a" x="577.092188" y="314.76403" style="fill: #6c757d; stroke: #6c757d; stroke-width: 0.8"/>
      </g>
     </g>
     <g id="text_46">
      <!-- 0.2 -->
      <g style="fill: #d97706" transform="translate(584.092188 318.350748) scale(0.1 -0.1)">
       <use xlink:href="#Helvetica-30"/>
       <use xlink:href="#Helvetica-2e" transform="translate(55.615234 0)"/>
       <use xlink:href="#Helvetica-32" transform="translate(83.398438 0)"/>
      </g>
     </g>
    </g>
    <g id="ytick_21">
     <g id="line2d_70">
      <g>
       <use xlink:href="#m6f4b840a4a" x="577.092188" y="280.556953" style="fill: #6c757d; stroke: #6c757d; stroke-width: 0.8"/>
      </g>
     </g>
     <g id="text_47">
      <!-- 0.3 -->
      <g style="fill: #d97706" transform="translate(584.092188 284.143672) scale(0.1 -0.1)">
       <use xlink:href="#Helvetica-30"/>
       <use xlink:href="#Helvetica-2e" transform="translate(55.615234 0)"/>
       <use xlink:href="#Helvetica-33" transform="translate(83.398438 0)"/>
      </g>
     </g>
    </g>
    <g id="ytick_22">
     <g id="line2d_71">
      <g>
       <use xlink:href="#m6f4b840a4a" x="577.092188" y="246.349877" style="fill: #6c757d; stroke: #6c757d; stroke-width: 0.8"/>
      </g>
     </g>
     <g id="text_48">
      <!-- 0.4 -->
      <g style="fill: #d97706" transform="translate(584.092188 249.936596) scale(0.1 -0.1)">
       <use xlink:href="#Helvetica-30"/>
       <use xlink:href="#Helvetica-2e" transform="translate(55.615234 0)"/>
       <use xlink:href="#Helvetica-34" transform="translate(83.398438 0)"/>
      </g>
     </g>
    </g>
    <g id="text_49">
     <!-- squared shortfall -->
     <g style="fill: #d97706" transform="translate(609.267188 351.5225) rotate(-90) scale(0.1 -0.1)">
      <use xlink:href="#Helvetica-73"/>
      <use xlink:href="#Helvetica-71" transform="translate(50 0)"/>
      <use xlink:href="#Helvetica-75" transform="translate(105.615234 0)"/>
      <use xlink:href="#Helvetica-61" transform="translate(161.230469 0)"/>
      <use xlink:href="#Helvetica-72" transform="translate(216.845703 0)"/>
      <use xlink:href="#Helvetica-65" transform="translate(250.146484 0)"/>
      <use xlink:href="#Helvetica-64" transform="translate(305.761719 0)"/>
      <use xlink:href="#Helvetica-20" transform="translate(361.376953 0)"/>
      <use xlink:href="#Helvetica-73" transform="translate(389.160156 0)"/>
      <use xlink:href="#Helvetica-68" transform="translate(439.160156 0)"/>
      <use xlink:href="#Helvetica-6f" transform="translate(494.775391 0)"/>
      <use xlink:href="#Helvetica-72" transform="translate(550.390625 0)"/>
      <use xlink:href="#Helvetica-74" transform="translate(583.691406 0)"/>
      <use xlink:href="#Helvetica-66" transform="translate(611.474609 0)"/>
      <use xlink:href="#Helvetica-61" transform="translate(639.257812 0)"/>
      <use xlink:href="#Helvetica-6c" transform="translate(694.873047 0)"/>
      <use xlink:href="#Helvetica-6c" transform="translate(717.089844 0)"/>
     </g>
    </g>
   </g>
   <g id="line2d_72">
    <path d="M 71.039915 281.32944 
L 77.828007 383.015429 
L 84.616099 383.178182 
L 91.404191 383.178182 
L 98.192284 383.178182 
L 104.980376 383.178182 
L 111.768468 383.178182 
L 118.55656 383.178182 
L 125.344652 383.178182 
L 132.132744 383.178182 
L 138.920837 383.178182 
L 145.708929 383.178182 
L 152.497021 380.734373 
L 159.285113 383.178174 
L 166.073205 383.178174 
L 172.861298 383.178178 
L 179.64939 383.17818 
L 186.437482 383.17818 
L 193.225574 383.17818 
L 200.013666 383.17818 
L 206.801759 383.17818 
L 213.589851 383.17818 
L 220.377943 383.17818 
L 227.166035 383.17818 
L 233.954127 383.178182 
L 240.74222 383.178182 
L 247.530312 383.178182 
L 254.318404 383.178182 
L 261.106496 383.178182 
L 267.894588 383.178182 
L 274.68268 383.178182 
L 281.470773 383.178182 
L 288.258865 383.178182 
L 295.046957 383.178182 
L 301.835049 383.178182 
L 308.623141 383.178182 
L 315.411234 245.941818 
L 322.199326 383.175996 
L 328.987418 383.177614 
L 335.77551 383.17775 
L 342.563602 383.177788 
L 349.351695 383.177813 
L 356.139787 383.177838 
L 362.927879 383.177877 
L 369.715971 383.177913 
L 376.504063 383.177923 
L 383.292155 383.177927 
L 390.080248 383.177929 
L 396.86834 383.177921 
L 403.656432 382.867276 
L 410.444524 383.171495 
L 417.232616 383.177609 
L 424.020709 383.177827 
L 430.808801 383.177866 
L 437.596893 383.177874 
L 444.384985 383.177875 
L 451.173077 383.177875 
L 457.96117 383.177875 
L 464.749262 383.177875 
L 471.537354 383.177875 
L 478.325446 383.17785 
L 485.113538 383.177855 
L 491.901631 383.177855 
L 498.689723 383.177855 
L 505.477815 383.177855 
L 512.265907 383.177855 
L 519.053999 383.177855 
L 525.842091 383.177855 
L 532.630184 383.177855 
L 539.418276 383.177855 
L 546.206368 383.177855 
L 552.99446 383.177855 
" clip-path="url(#pdeed65f44c)" style="fill: none; stroke: #d97706; stroke-width: 1.5; stroke-linecap: square"/>
   </g>
   <g id="patch_10">
    <path d="M 46.942188 390.04 
L 46.942188 239.08 
" style="fill: none; stroke: #495057; stroke-width: 0.8; stroke-linejoin: miter; stroke-linecap: square"/>
   </g>
   <g id="patch_11">
    <path d="M 46.942188 390.04 
L 577.092188 390.04 
" style="fill: none; stroke: #495057; stroke-width: 0.8; stroke-linejoin: miter; stroke-linecap: square"/>
   </g>
  </g>
  <g id="text_50">
   <!-- Dual dynamics -->
   <g style="fill: #212529" transform="translate(280.995313 15.83625) scale(0.12 -0.12)">
    <defs>
     <path id="Helvetica-44" d="M 2250 531 
Q 2566 531 2769 597 
Q 3131 719 3363 1066 
Q 3547 1344 3628 1778 
Q 3675 2038 3675 2259 
Q 3675 3113 3336 3584 
Q 2997 4056 2244 4056 
L 1141 4056 
L 1141 531 
L 2250 531 
z
M 516 4591 
L 2375 4591 
Q 3322 4591 3844 3919 
Q 4309 3313 4309 2366 
Q 4309 1634 4034 1044 
Q 3550 0 2369 0 
L 516 0 
L 516 4591 
z
" transform="scale(0.015625)"/>
     <path id="Helvetica-79" d="M 2503 3347 
L 3125 3347 
Q 3006 3025 2597 1878 
Q 2291 1016 2084 472 
Q 1597 -809 1397 -1090 
Q 1197 -1372 709 -1372 
Q 591 -1372 527 -1362 
Q 463 -1353 369 -1328 
L 369 -816 
Q 516 -856 581 -865 
Q 647 -875 697 -875 
Q 853 -875 926 -823 
Q 1000 -772 1050 -697 
Q 1066 -672 1162 -440 
Q 1259 -209 1303 -97 
L 66 3347 
L 703 3347 
L 1600 622 
L 2503 3347 
z
M 1597 3428 
L 1597 3428 
z
" transform="scale(0.015625)"/>
    </defs>
    <use xlink:href="#Helvetica-44"/>
    <use xlink:href="#Helvetica-75" transform="translate(72.216797 0)"/>
    <use xlink:href="#Helvetica-61" transform="translate(127.832031 0)"/>
    <use xlink:href="#Helvetica-6c" transform="translate(183.447266 0)"/>
    <use xlink:href="#Helvetica-20" transform="translate(205.664062 0)"/>
    <use xlink:href="#Helvetica-64" transform="translate(233.447266 0)"/>
    <use xlink:href="#Helvetica-79" transform="translate(289.0625 0)"/>
    <use xlink:href="#Helvetica-6e" transform="translate(339.0625 0)"/>
    <use xlink:href="#Helvetica-61" transform="translate(394.677734 0)"/>
    <use xlink:href="#Helvetica-6d" transform="translate(450.292969 0)"/>
    <use xlink:href="#Helvetica-69" transform="translate(533.59375 0)"/>
    <use xlink:href="#Helvetica-63" transform="translate(555.810547 0)"/>
    <use xlink:href="#Helvetica-73" transform="translate(605.810547 0)"/>
   </g>
  </g>
 </g>
 <defs>
  <clipPath id="p3d7c065552">
   <rect x="46.942188" y="46.08" width="530.15" height="150.96"/>
  </clipPath>
  <clipPath id="pdeed65f44c">
   <rect x="46.942188" y="239.08" width="530.15" height="150.96"/>
  </clipPath>
 </defs>
</svg>
