<?xml version="1.0" encoding="utf-8" standalone="no"?>
<!DOCTYPE svg PUBLIC "-//W3C//DTD SVG 1.1//EN"
  "http://www.w3.org/Graphics/SVG/1.1/DTD/svg11.dtd">
<svg xmlns:xlink="http://www.w3.org/1999/xlink" width="567.56875pt" height="308.320937pt" viewBox="0 0 567.56875 308.320937" xmlns="http://www.w3.org/2000/svg" version="1.1">
 <metadata>
  <rdf:RDF xmlns:dc="http://purl.org/dc/elements/1.1/" xmlns:cc="http://creativecommons.org/ns#" xmlns:rdf="http://www.w3.org/1999/02/22-rdf-syntax-ns#">
   <cc:Work>
    <dc:type rdf:resource="http://purl.org/dc/dcmitype/StillImage"/>
    <dc:date>2026-07-09T15:57:55.043667</dc:date>
    <dc:format>image/svg+xml</dc:format>
    <dc:creator>
     <cc:Agent>
      <dc:title>Matplotlib v3.10.1, https://matplotlib.org/</dc:title>
     </cc:Agent>
    </dc:creator>
   </cc:Work>
  </rdf:RDF>
 </metadata>
 <defs>
  <style type="text/css">*{stroke-linejoin: round; stroke-linecap: butt}</style>
 </defs>
 <g id="figure_1">
  <g id="patch_1">
   <path d="M 0 308.320937 
L 567.56875 308.320937 
L 567.56875 0 
L 0 0 
z
" style="fill: #ffffff"/>
  </g>
  <g id="axes_1">
   <g id="patch_2">
    <path d="M 58.16875 271.42875 
L 560.36875 271.42875 
L 560.36875 21.94875 
L 58.16875 21.94875 
z
" style="fill: #ffffff"/>
   </g>
   <g id="line2d_1">
    <path d="M 58.16875 259.190532 
L 560.36875 259.190532 
" clip-path="url(#p4c14db8279)" style="fill: none; stroke-dasharray: 3.7,1.6; stroke-dashoffset: 0; stroke: #adb5bd"/>
   </g>
   <g id="matplotlib.axis_1">
    <g id="xtick_1">
     <g id="line2d_2">
      <path d="M 80.996023 271.42875 
L 80.996023 21.94875 
" clip-path="url(#p4c14db8279)" style="fill: none; stroke: #e9ecef; stroke-width: 0.7; stroke-linecap: square"/>
     </g>
     <g id="line2d_3">
      <defs>
       <path id="m2d7d3cdcf3" d="M 0 0 
L 0 3.5 
" style="stroke: #6c757d; stroke-width: 0.8"/>
      </defs>
      <g>
       <use xlink:href="#m2d7d3cdcf3" x="80.996023" y="271.42875" style="fill: #6c757d; stroke: #6c757d; stroke-width: 0.8"/>
      </g>
     </g>
     <g id="text_1">
      <!-- 0 -->
      <g style="fill: #6c757d" transform="translate(78.215554 285.602187) scale(0.1 -0.1)">
       <defs>
        <path id="Helvetica-30" d="M 1731 4475 
Q 2600 4475 2988 3759 
Q 3288 3206 3288 2244 
Q 3288 1331 3016 734 
Q 2622 -122 1728 -122 
Q 922 -122 528 578 
Q 200 1163 200 2147 
Q 200 2909 397 3456 
Q 766 4475 1731 4475 
z
M 1725 391 
Q 2163 391 2422 778 
Q 2681 1166 2681 2222 
Q 2681 2984 2493 3476 
Q 2306 3969 1766 3969 
Q 1269 3969 1039 3501 
Q 809 3034 809 2125 
Q 809 1441 956 1025 
Q 1181 391 1725 391 
z
" transform="scale(0.015625)"/>
       </defs>
       <use xlink:href="#Helvetica-30"/>
      </g>
     </g>
    </g>
    <g id="xtick_2">
     <g id="line2d_4">
      <path d="M 172.305114 271.42875 
L 172.305114 21.94875 
" clip-path="url(#p4c14db8279)" style="fill: none; stroke: #e9ecef; stroke-width: 0.7; stroke-linecap: square"/>
     </g>
     <g id="line2d_5">
      <g>
       <use xlink:href="#m2d7d3cdcf3" x="172.305114" y="271.42875" style="fill: #6c757d; stroke: #6c757d; stroke-width: 0.8"/>
      </g>
     </g>
     <g id="text_2">
      <!-- 1 -->
      <g style="fill: #6c757d" transform="translate(169.524645 285.602187) scale(0.1 -0.1)">
       <defs>
        <path id="Helvetica-31" d="M 613 3169 
L 613 3600 
Q 1222 3659 1462 3798 
Q 1703 3938 1822 4456 
L 2266 4456 
L 2266 0 
L 1666 0 
L 1666 3169 
L 613 3169 
z
" transform="scale(0.015625)"/>
       </defs>
       <use xlink:href="#Helvetica-31"/>
      </g>
     </g>
    </g>
    <g id="xtick_3">
     <g id="line2d_6">
      <path d="M 263.614205 271.42875 
L 263.614205 21.94875 
" clip-path="url(#p4c14db8279)" style="fill: none; stroke: #e9ecef; stroke-width: 0.7; stroke-linecap: square"/>
     </g>
     <g id="line2d_7">
      <g>
       <use xlink:href="#m2d7d3cdcf3" x="263.614205" y="271.42875" style="fill: #6c757d; stroke: #6c757d; stroke-width: 0.8"/>
      </g>
     </g>
     <g id="text_3">
      <!-- 2 -->
      <g style="fill: #6c757d" transform="translate(260.833736 285.602187) scale(0.1 -0.1)">
       <defs>
        <path id="Helvetica-32" d="M 200 0 
Q 231 578 439 1006 
Q 647 1434 1250 1784 
L 1850 2131 
Q 2253 2366 2416 2531 
Q 2672 2791 2672 3125 
Q 2672 3516 2437 3745 
Q 2203 3975 1813 3975 
Q 1234 3975 1013 3538 
Q 894 3303 881 2888 
L 309 2888 
Q 319 3472 525 3841 
Q 891 4491 1816 4491 
Q 2584 4491 2939 4075 
Q 3294 3659 3294 3150 
Q 3294 2613 2916 2231 
Q 2697 2009 2131 1694 
L 1703 1456 
Q 1397 1288 1222 1134 
Q 909 863 828 531 
L 3272 531 
L 3272 0 
L 200 0 
z
" transform="scale(0.015625)"/>
       </defs>
       <use xlink:href="#Helvetica-32"/>
      </g>
     </g>
    </g>
    <g id="xtick_4">
     <g id="line2d_8">
      <path d="M 354.923295 271.42875 
L 354.923295 21.94875 
" clip-path="url(#p4c14db8279)" style="fill: none; stroke: #e9ecef; stroke-width: 0.7; stroke-linecap: square"/>
     </g>
     <g id="line2d_9">
      <g>
       <use xlink:href="#m2d7d3cdcf3" x="354.923295" y="271.42875" style="fill: #6c757d; stroke: #6c757d; stroke-width: 0.8"/>
      </g>
     </g>
     <g id="text_4">
      <!-- 3 -->
      <g style="fill: #6c757d" transform="translate(352.142827 285.602187) scale(0.1 -0.1)">
       <defs>
        <path id="Helvetica-33" d="M 1663 -122 
Q 869 -122 511 314 
Q 153 750 153 1375 
L 741 1375 
Q 778 941 903 744 
Q 1122 391 1694 391 
Q 2138 391 2406 628 
Q 2675 866 2675 1241 
Q 2675 1703 2392 1887 
Q 2109 2072 1606 2072 
Q 1550 2072 1492 2070 
Q 1434 2069 1375 2066 
L 1375 2563 
Q 1463 2553 1522 2550 
Q 1581 2547 1650 2547 
Q 1966 2547 2169 2647 
Q 2525 2822 2525 3272 
Q 2525 3606 2287 3787 
Q 2050 3969 1734 3969 
Q 1172 3969 956 3594 
Q 838 3388 822 3006 
L 266 3006 
Q 266 3506 466 3856 
Q 809 4481 1675 4481 
Q 2359 4481 2734 4176 
Q 3109 3872 3109 3294 
Q 3109 2881 2888 2625 
Q 2750 2466 2531 2375 
Q 2884 2278 3082 2001 
Q 3281 1725 3281 1325 
Q 3281 684 2859 281 
Q 2438 -122 1663 -122 
z
" transform="scale(0.015625)"/>
       </defs>
       <use xlink:href="#Helvetica-33"/>
      </g>
     </g>
    </g>
    <g id="xtick_5">
     <g id="line2d_10">
      <path d="M 446.232386 271.42875 
L 446.232386 21.94875 
" clip-path="url(#p4c14db8279)" style="fill: none; stroke: #e9ecef; stroke-width: 0.7; stroke-linecap: square"/>
     </g>
     <g id="line2d_11">
      <g>
       <use xlink:href="#m2d7d3cdcf3" x="446.232386" y="271.42875" style="fill: #6c757d; stroke: #6c757d; stroke-width: 0.8"/>
      </g>
     </g>
     <g id="text_5">
      <!-- 4 -->
      <g style="fill: #6c757d" transform="translate(443.451918 285.602187) scale(0.1 -0.1)">
       <defs>
        <path id="Helvetica-34" d="M 2116 1584 
L 2116 3613 
L 681 1584 
L 2116 1584 
z
M 2125 0 
L 2125 1094 
L 163 1094 
L 163 1644 
L 2213 4488 
L 2688 4488 
L 2688 1584 
L 3347 1584 
L 3347 1094 
L 2688 1094 
L 2688 0 
L 2125 0 
z
" transform="scale(0.015625)"/>
       </defs>
       <use xlink:href="#Helvetica-34"/>
      </g>
     </g>
    </g>
    <g id="xtick_6">
     <g id="line2d_12">
      <path d="M 537.541477 271.42875 
L 537.541477 21.94875 
" clip-path="url(#p4c14db8279)" style="fill: none; stroke: #e9ecef; stroke-width: 0.7; stroke-linecap: square"/>
     </g>
     <g id="line2d_13">
      <g>
       <use xlink:href="#m2d7d3cdcf3" x="537.541477" y="271.42875" style="fill: #6c757d; stroke: #6c757d; stroke-width: 0.8"/>
      </g>
     </g>
     <g id="text_6">
      <!-- 5 -->
      <g style="fill: #6c757d" transform="translate(534.761009 285.602187) scale(0.1 -0.1)">
       <defs>
        <path id="Helvetica-35" d="M 791 1141 
Q 847 659 1238 475 
Q 1438 381 1700 381 
Q 2200 381 2440 700 
Q 2681 1019 2681 1406 
Q 2681 1875 2395 2131 
Q 2109 2388 1709 2388 
Q 1419 2388 1211 2275 
Q 1003 2163 856 1963 
L 369 1991 
L 709 4400 
L 3034 4400 
L 3034 3856 
L 1131 3856 
L 941 2613 
Q 1097 2731 1238 2791 
Q 1488 2894 1816 2894 
Q 2431 2894 2859 2497 
Q 3288 2100 3288 1491 
Q 3288 856 2895 371 
Q 2503 -113 1644 -113 
Q 1097 -113 676 195 
Q 256 503 206 1141 
L 791 1141 
z
" transform="scale(0.015625)"/>
       </defs>
       <use xlink:href="#Helvetica-35"/>
      </g>
     </g>
    </g>
    <g id="text_7">
     <!-- Alternation cycle (all tasks concatenated) -->
     <g style="fill: #212529" transform="translate(218.395313 298.977187) scale(0.1 -0.1)">
      <defs>
       <path id="Helvetica-41" d="M 2844 1881 
L 2147 3909 
L 1406 1881 
L 2844 1881 
z
M 1822 4591 
L 2525 4591 
L 4191 0 
L 3509 0 
L 3044 1375 
L 1228 1375 
L 731 0 
L 94 0 
L 1822 4591 
z
" transform="scale(0.015625)"/>
       <path id="Helvetica-6c" d="M 428 4591 
L 991 4591 
L 991 0 
L 428 0 
L 428 4591 
z
" transform="scale(0.015625)"/>
       <path id="Helvetica-74" d="M 525 4281 
L 1094 4281 
L 1094 3347 
L 1628 3347 
L 1628 2888 
L 1094 2888 
L 1094 703 
Q 1094 528 1213 469 
Q 1278 434 1431 434 
Q 1472 434 1519 436 
Q 1566 438 1628 444 
L 1628 0 
Q 1531 -28 1426 -40 
Q 1322 -53 1200 -53 
Q 806 -53 665 148 
Q 525 350 525 672 
L 525 2888 
L 72 2888 
L 72 3347 
L 525 3347 
L 525 4281 
z
" transform="scale(0.015625)"/>
       <path id="Helvetica-65" d="M 1806 3422 
Q 2163 3422 2497 3255 
Q 2831 3088 3006 2822 
Q 3175 2569 3231 2231 
Q 3281 2000 3281 1494 
L 828 1494 
Q 844 984 1069 676 
Q 1294 369 1766 369 
Q 2206 369 2469 659 
Q 2619 828 2681 1050 
L 3234 1050 
Q 3213 866 3089 639 
Q 2966 413 2813 269 
Q 2556 19 2178 -69 
Q 1975 -119 1719 -119 
Q 1094 -119 659 336 
Q 225 791 225 1609 
Q 225 2416 662 2919 
Q 1100 3422 1806 3422 
z
M 2703 1941 
Q 2669 2306 2544 2525 
Q 2313 2931 1772 2931 
Q 1384 2931 1121 2651 
Q 859 2372 844 1941 
L 2703 1941 
z
M 1753 3428 
L 1753 3428 
z
" transform="scale(0.015625)"/>
       <path id="Helvetica-72" d="M 428 3347 
L 963 3347 
L 963 2769 
Q 1028 2938 1284 3180 
Q 1541 3422 1875 3422 
Q 1891 3422 1928 3419 
Q 1966 3416 2056 3406 
L 2056 2813 
Q 2006 2822 1964 2825 
Q 1922 2828 1872 2828 
Q 1447 2828 1219 2554 
Q 991 2281 991 1925 
L 991 0 
L 428 0 
L 428 3347 
z
" transform="scale(0.015625)"/>
       <path id="Helvetica-6e" d="M 413 3347 
L 947 3347 
L 947 2872 
Q 1184 3166 1450 3294 
Q 1716 3422 2041 3422 
Q 2753 3422 3003 2925 
Q 3141 2653 3141 2147 
L 3141 0 
L 2569 0 
L 2569 2109 
Q 2569 2416 2478 2603 
Q 2328 2916 1934 2916 
Q 1734 2916 1606 2875 
Q 1375 2806 1200 2600 
Q 1059 2434 1017 2257 
Q 975 2081 975 1753 
L 975 0 
L 413 0 
L 413 3347 
z
M 1734 3428 
L 1734 3428 
z
" transform="scale(0.015625)"/>
       <path id="Helvetica-61" d="M 844 891 
Q 844 647 1022 506 
Q 1200 366 1444 366 
Q 1741 366 2019 503 
Q 2488 731 2488 1250 
L 2488 1703 
Q 2384 1638 2221 1594 
Q 2059 1550 1903 1531 
L 1563 1488 
Q 1256 1447 1103 1359 
Q 844 1213 844 891 
z
M 2206 2028 
Q 2400 2053 2466 2191 
Q 2503 2266 2503 2406 
Q 2503 2694 2298 2823 
Q 2094 2953 1713 2953 
Q 1272 2953 1088 2716 
Q 984 2584 953 2325 
L 428 2325 
Q 444 2944 830 3186 
Q 1216 3428 1725 3428 
Q 2316 3428 2684 3203 
Q 3050 2978 3050 2503 
L 3050 575 
Q 3050 488 3086 434 
Q 3122 381 3238 381 
Q 3275 381 3322 386 
Q 3369 391 3422 400 
L 3422 -16 
Q 3291 -53 3222 -62 
Q 3153 -72 3034 -72 
Q 2744 -72 2613 134 
Q 2544 244 2516 444 
Q 2344 219 2022 53 
Q 1700 -113 1313 -113 
Q 847 -113 551 170 
Q 256 453 256 878 
Q 256 1344 547 1600 
Q 838 1856 1309 1916 
L 2206 2028 
z
M 1741 3428 
L 1741 3428 
z
" transform="scale(0.015625)"/>
       <path id="Helvetica-69" d="M 413 3331 
L 984 3331 
L 984 0 
L 413 0 
L 413 3331 
z
M 413 4591 
L 984 4591 
L 984 3953 
L 413 3953 
L 413 4591 
z
" transform="scale(0.015625)"/>
       <path id="Helvetica-6f" d="M 1741 363 
Q 2300 363 2508 786 
Q 2716 1209 2716 1728 
Q 2716 2197 2566 2491 
Q 2328 2953 1747 2953 
Q 1231 2953 997 2559 
Q 763 2166 763 1609 
Q 763 1075 997 719 
Q 1231 363 1741 363 
z
M 1763 3444 
Q 2409 3444 2856 3012 
Q 3303 2581 3303 1744 
Q 3303 934 2909 406 
Q 2516 -122 1688 -122 
Q 997 -122 590 345 
Q 184 813 184 1600 
Q 184 2444 612 2944 
Q 1041 3444 1763 3444 
z
M 1744 3428 
L 1744 3428 
z
" transform="scale(0.015625)"/>
       <path id="Helvetica-20" transform="scale(0.015625)"/>
       <path id="Helvetica-63" d="M 1703 3444 
Q 2269 3444 2623 3169 
Q 2978 2894 3050 2222 
L 2503 2222 
Q 2453 2531 2275 2736 
Q 2097 2941 1703 2941 
Q 1166 2941 934 2416 
Q 784 2075 784 1575 
Q 784 1072 996 728 
Q 1209 384 1666 384 
Q 2016 384 2220 598 
Q 2425 813 2503 1184 
L 3050 1184 
Q 2956 519 2581 211 
Q 2206 -97 1622 -97 
Q 966 -97 575 383 
Q 184 863 184 1581 
Q 184 2463 612 2953 
Q 1041 3444 1703 3444 
z
M 1616 3428 
L 1616 3428 
z
" transform="scale(0.015625)"/>
       <path id="Helvetica-79" d="M 2503 3347 
L 3125 3347 
Q 3006 3025 2597 1878 
Q 2291 1016 2084 472 
Q 1597 -809 1397 -1090 
Q 1197 -1372 709 -1372 
Q 591 -1372 527 -1362 
Q 463 -1353 369 -1328 
L 369 -816 
Q 516 -856 581 -865 
Q 647 -875 697 -875 
Q 853 -875 926 -823 
Q 1000 -772 1050 -697 
Q 1066 -672 1162 -440 
Q 1259 -209 1303 -97 
L 66 3347 
L 703 3347 
L 1600 622 
L 2503 3347 
z
M 1597 3428 
L 1597 3428 
z
" transform="scale(0.015625)"/>
       <path id="Helvetica-28" d="M 1894 4666 
Q 1403 3713 1256 3263 
Q 1034 2578 1034 1681 
Q 1034 775 1288 25 
Q 1444 -438 1903 -1306 
L 1525 -1306 
Q 1069 -594 959 -397 
Q 850 -200 722 138 
Q 547 600 478 1125 
Q 444 1397 444 1644 
Q 444 2569 734 3291 
Q 919 3750 1503 4666 
L 1894 4666 
z
" transform="scale(0.015625)"/>
       <path id="Helvetica-73" d="M 747 1050 
Q 772 769 888 619 
Q 1100 347 1625 347 
Q 1938 347 2175 483 
Q 2413 619 2413 903 
Q 2413 1119 2222 1231 
Q 2100 1300 1741 1391 
L 1294 1503 
Q 866 1609 663 1741 
Q 300 1969 300 2372 
Q 300 2847 642 3140 
Q 984 3434 1563 3434 
Q 2319 3434 2653 2991 
Q 2863 2709 2856 2384 
L 2325 2384 
Q 2309 2575 2191 2731 
Q 1997 2953 1519 2953 
Q 1200 2953 1036 2831 
Q 872 2709 872 2509 
Q 872 2291 1088 2159 
Q 1213 2081 1456 2022 
L 1828 1931 
Q 2434 1784 2641 1647 
Q 2969 1431 2969 969 
Q 2969 522 2630 197 
Q 2291 -128 1597 -128 
Q 850 -128 539 211 
Q 228 550 206 1050 
L 747 1050 
z
M 1578 3428 
L 1578 3428 
z
" transform="scale(0.015625)"/>
       <path id="Helvetica-6b" d="M 400 4591 
L 941 4591 
L 941 1925 
L 2384 3347 
L 3103 3347 
L 1822 2094 
L 3175 0 
L 2456 0 
L 1413 1688 
L 941 1256 
L 941 0 
L 400 0 
L 400 4591 
z
" transform="scale(0.015625)"/>
       <path id="Helvetica-64" d="M 769 1634 
Q 769 1097 997 734 
Q 1225 372 1728 372 
Q 2119 372 2370 708 
Q 2622 1044 2622 1672 
Q 2622 2306 2362 2611 
Q 2103 2916 1722 2916 
Q 1297 2916 1033 2591 
Q 769 2266 769 1634 
z
M 1616 3406 
Q 2000 3406 2259 3244 
Q 2409 3150 2600 2916 
L 2600 4606 
L 3141 4606 
L 3141 0 
L 2634 0 
L 2634 466 
Q 2438 156 2169 18 
Q 1900 -119 1553 -119 
Q 994 -119 584 351 
Q 175 822 175 1603 
Q 175 2334 548 2870 
Q 922 3406 1616 3406 
z
" transform="scale(0.015625)"/>
       <path id="Helvetica-29" d="M 222 -1306 
Q 719 -338 863 106 
Q 1081 778 1081 1681 
Q 1081 2584 828 3334 
Q 672 3797 213 4666 
L 591 4666 
Q 1072 3897 1173 3717 
Q 1275 3538 1394 3222 
Q 1544 2831 1608 2450 
Q 1672 2069 1672 1716 
Q 1672 791 1378 66 
Q 1194 -400 613 -1306 
L 222 -1306 
z
" transform="scale(0.015625)"/>
      </defs>
      <use xlink:href="#Helvetica-41"/>
      <use xlink:href="#Helvetica-6c" transform="translate(66.699219 0)"/>
      <use xlink:href="#Helvetica-74" transform="translate(88.916016 0)"/>
      <use xlink:href="#Helvetica-65" transform="translate(116.699219 0)"/>
      <use xlink:href="#Helvetica-72" transform="translate(172.314453 0)"/>
      <use xlink:href="#Helvetica-6e" transform="translate(205.615234 0)"/>
      <use xlink:href="#Helvetica-61" transform="translate(261.230469 0)"/>
      <use xlink:href="#Helvetica-74" transform="translate(316.845703 0)"/>
      <use xlink:href="#Helvetica-69" transform="translate(344.628906 0)"/>
      <use xlink:href="#Helvetica-6f" transform="translate(366.845703 0)"/>
      <use xlink:href="#Helvetica-6e" transform="translate(422.460938 0)"/>
      <use xlink:href="#Helvetica-20" transform="translate(478.076172 0)"/>
      <use xlink:href="#Helvetica-63" transform="translate(505.859375 0)"/>
      <use xlink:href="#Helvetica-79" transform="translate(555.859375 0)"/>
      <use xlink:href="#Helvetica-63" transform="translate(605.859375 0)"/>
      <use xlink:href="#Helvetica-6c" transform="translate(655.859375 0)"/>
      <use xlink:href="#Helvetica-65" transform="translate(678.076172 0)"/>
      <use xlink:href="#Helvetica-20" transform="translate(733.691406 0)"/>
      <use xlink:href="#Helvetica-28" transform="translate(761.474609 0)"/>
      <use xlink:href="#Helvetica-61" transform="translate(794.775391 0)"/>
      <use xlink:href="#Helvetica-6c" transform="translate(850.390625 0)"/>
      <use xlink:href="#Helvetica-6c" transform="translate(872.607422 0)"/>
      <use xlink:href="#Helvetica-20" transform="translate(894.824219 0)"/>
      <use xlink:href="#Helvetica-74" transform="translate(922.607422 0)"/>
      <use xlink:href="#Helvetica-61" transform="translate(950.390625 0)"/>
      <use xlink:href="#Helvetica-73" transform="translate(1006.005859 0)"/>
      <use xlink:href="#Helvetica-6b" transform="translate(1056.005859 0)"/>
      <use xlink:href="#Helvetica-73" transform="translate(1106.005859 0)"/>
      <use xlink:href="#Helvetica-20" transform="translate(1156.005859 0)"/>
      <use xlink:href="#Helvetica-63" transform="translate(1183.789062 0)"/>
      <use xlink:href="#Helvetica-6f" transform="translate(1233.789062 0)"/>
      <use xlink:href="#Helvetica-6e" transform="translate(1289.404297 0)"/>
      <use xlink:href="#Helvetica-63" transform="translate(1345.019531 0)"/>
      <use xlink:href="#Helvetica-61" transform="translate(1395.019531 0)"/>
      <use xlink:href="#Helvetica-74" transform="translate(1450.634766 0)"/>
      <use xlink:href="#Helvetica-65" transform="translate(1478.417969 0)"/>
      <use xlink:href="#Helvetica-6e" transform="translate(1534.033203 0)"/>
      <use xlink:href="#Helvetica-61" transform="translate(1589.648438 0)"/>
      <use xlink:href="#Helvetica-74" transform="translate(1645.263672 0)"/>
      <use xlink:href="#Helvetica-65" transform="translate(1673.046875 0)"/>
      <use xlink:href="#Helvetica-64" transform="translate(1728.662109 0)"/>
      <use xlink:href="#Helvetica-29" transform="translate(1784.277344 0)"/>
     </g>
    </g>
   </g>
   <g id="matplotlib.axis_2">
    <g id="ytick_1">
     <g id="line2d_14">
      <path d="M 58.16875 259.190532 
L 560.36875 259.190532 
" clip-path="url(#p4c14db8279)" style="fill: none; stroke: #e9ecef; stroke-width: 0.7; stroke-linecap: square"/>
     </g>
     <g id="line2d_15">
      <defs>
       <path id="m9b15e5f445" d="M 0 0 
L -3.5 0 
" style="stroke: #6c757d; stroke-width: 0.8"/>
      </defs>
      <g>
       <use xlink:href="#m9b15e5f445" x="58.16875" y="259.190532" style="fill: #6c757d; stroke: #6c757d; stroke-width: 0.8"/>
      </g>
     </g>
     <g id="text_8">
      <!-- 0.0000 -->
      <g style="fill: #6c757d" transform="translate(20.585938 262.777251) scale(0.1 -0.1)">
       <defs>
        <path id="Helvetica-2e" d="M 547 681 
L 1200 681 
L 1200 0 
L 547 0 
L 547 681 
z
" transform="scale(0.015625)"/>
       </defs>
       <use xlink:href="#Helvetica-30"/>
       <use xlink:href="#Helvetica-2e" transform="translate(55.615234 0)"/>
       <use xlink:href="#Helvetica-30" transform="translate(83.398438 0)"/>
       <use xlink:href="#Helvetica-30" transform="translate(139.013672 0)"/>
       <use xlink:href="#Helvetica-30" transform="translate(194.628906 0)"/>
       <use xlink:href="#Helvetica-30" transform="translate(250.244141 0)"/>
      </g>
     </g>
    </g>
    <g id="ytick_2">
     <g id="line2d_16">
      <path d="M 58.16875 226.316199 
L 560.36875 226.316199 
" clip-path="url(#p4c14db8279)" style="fill: none; stroke: #e9ecef; stroke-width: 0.7; stroke-linecap: square"/>
     </g>
     <g id="line2d_17">
      <g>
       <use xlink:href="#m9b15e5f445" x="58.16875" y="226.316199" style="fill: #6c757d; stroke: #6c757d; stroke-width: 0.8"/>
      </g>
     </g>
     <g id="text_9">
      <!-- 0.0025 -->
      <g style="fill: #6c757d" transform="translate(20.585938 229.902918) scale(0.1 -0.1)">
       <use xlink:href="#Helvetica-30"/>
       <use xlink:href="#Helvetica-2e" transform="translate(55.615234 0)"/>
       <use xlink:href="#Helvetica-30" transform="translate(83.398438 0)"/>
       <use xlink:href="#Helvetica-30" transform="translate(139.013672 0)"/>
       <use xlink:href="#Helvetica-32" transform="translate(194.628906 0)"/>
       <use xlink:href="#Helvetica-35" transform="translate(250.244141 0)"/>
      </g>
     </g>
    </g>
    <g id="ytick_3">
     <g id="line2d_18">
      <path d="M 58.16875 193.441865 
L 560.36875 193.441865 
" clip-path="url(#p4c14db8279)" style="fill: none; stroke: #e9ecef; stroke-width: 0.7; stroke-linecap: square"/>
     </g>
     <g id="line2d_19">
      <g>
       <use xlink:href="#m9b15e5f445" x="58.16875" y="193.441865" style="fill: #6c757d; stroke: #6c757d; stroke-width: 0.8"/>
      </g>
     </g>
     <g id="text_10">
      <!-- 0.0050 -->
      <g style="fill: #6c757d" transform="translate(20.585938 197.028584) scale(0.1 -0.1)">
       <use xlink:href="#Helvetica-30"/>
       <use xlink:href="#Helvetica-2e" transform="translate(55.615234 0)"/>
       <use xlink:href="#Helvetica-30" transform="translate(83.398438 0)"/>
       <use xlink:href="#Helvetica-30" transform="translate(139.013672 0)"/>
       <use xlink:href="#Helvetica-35" transform="translate(194.628906 0)"/>
       <use xlink:href="#Helvetica-30" transform="translate(250.244141 0)"/>
      </g>
     </g>
    </g>
    <g id="ytick_4">
     <g id="line2d_20">
      <path d="M 58.16875 160.567532 
L 560.36875 160.567532 
" clip-path="url(#p4c14db8279)" style="fill: none; stroke: #e9ecef; stroke-width: 0.7; stroke-linecap: square"/>
     </g>
     <g id="line2d_21">
      <g>
       <use xlink:href="#m9b15e5f445" x="58.16875" y="160.567532" style="fill: #6c757d; stroke: #6c757d; stroke-width: 0.8"/>
      </g>
     </g>
     <g id="text_11">
      <!-- 0.0075 -->
      <g style="fill: #6c757d" transform="translate(20.585938 164.154251) scale(0.1 -0.1)">
       <defs>
        <path id="Helvetica-37" d="M 3347 4400 
L 3347 3909 
Q 3131 3700 2773 3181 
Q 2416 2663 2141 2063 
Q 1869 1478 1728 997 
Q 1638 688 1494 0 
L 872 0 
Q 1084 1281 1809 2550 
Q 2238 3294 2709 3834 
L 234 3834 
L 234 4400 
L 3347 4400 
z
" transform="scale(0.015625)"/>
       </defs>
       <use xlink:href="#Helvetica-30"/>
       <use xlink:href="#Helvetica-2e" transform="translate(55.615234 0)"/>
       <use xlink:href="#Helvetica-30" transform="translate(83.398438 0)"/>
       <use xlink:href="#Helvetica-30" transform="translate(139.013672 0)"/>
       <use xlink:href="#Helvetica-37" transform="translate(194.628906 0)"/>
       <use xlink:href="#Helvetica-35" transform="translate(250.244141 0)"/>
      </g>
     </g>
    </g>
    <g id="ytick_5">
     <g id="line2d_22">
      <path d="M 58.16875 127.693199 
L 560.36875 127.693199 
" clip-path="url(#p4c14db8279)" style="fill: none; stroke: #e9ecef; stroke-width: 0.7; stroke-linecap: square"/>
     </g>
     <g id="line2d_23">
      <g>
       <use xlink:href="#m9b15e5f445" x="58.16875" y="127.693199" style="fill: #6c757d; stroke: #6c757d; stroke-width: 0.8"/>
      </g>
     </g>
     <g id="text_12">
      <!-- 0.0100 -->
      <g style="fill: #6c757d" transform="translate(20.585938 131.279917) scale(0.1 -0.1)">
       <use xlink:href="#Helvetica-30"/>
       <use xlink:href="#Helvetica-2e" transform="translate(55.615234 0)"/>
       <use xlink:href="#Helvetica-30" transform="translate(83.398438 0)"/>
       <use xlink:href="#Helvetica-31" transform="translate(139.013672 0)"/>
       <use xlink:href="#Helvetica-30" transform="translate(194.628906 0)"/>
       <use xlink:href="#Helvetica-30" transform="translate(250.244141 0)"/>
      </g>
     </g>
    </g>
    <g id="ytick_6">
     <g id="line2d_24">
      <path d="M 58.16875 94.818865 
L 560.36875 94.818865 
" clip-path="url(#p4c14db8279)" style="fill: none; stroke: #e9ecef; stroke-width: 0.7; stroke-linecap: square"/>
     </g>
     <g id="line2d_25">
      <g>
       <use xlink:href="#m9b15e5f445" x="58.16875" y="94.818865" style="fill: #6c757d; stroke: #6c757d; stroke-width: 0.8"/>
      </g>
     </g>
     <g id="text_13">
      <!-- 0.0125 -->
      <g style="fill: #6c757d" transform="translate(20.585938 98.405584) scale(0.1 -0.1)">
       <use xlink:href="#Helvetica-30"/>
       <use xlink:href="#Helvetica-2e" transform="translate(55.615234 0)"/>
       <use xlink:href="#Helvetica-30" transform="translate(83.398438 0)"/>
       <use xlink:href="#Helvetica-31" transform="translate(139.013672 0)"/>
       <use xlink:href="#Helvetica-32" transform="translate(194.628906 0)"/>
       <use xlink:href="#Helvetica-35" transform="translate(250.244141 0)"/>
      </g>
     </g>
    </g>
    <g id="ytick_7">
     <g id="line2d_26">
      <path d="M 58.16875 61.944532 
L 560.36875 61.944532 
" clip-path="url(#p4c14db8279)" style="fill: none; stroke: #e9ecef; stroke-width: 0.7; stroke-linecap: square"/>
     </g>
     <g id="line2d_27">
      <g>
       <use xlink:href="#m9b15e5f445" x="58.16875" y="61.944532" style="fill: #6c757d; stroke: #6c757d; stroke-width: 0.8"/>
      </g>
     </g>
     <g id="text_14">
      <!-- 0.0150 -->
      <g style="fill: #6c757d" transform="translate(20.585938 65.531251) scale(0.1 -0.1)">
       <use xlink:href="#Helvetica-30"/>
       <use xlink:href="#Helvetica-2e" transform="translate(55.615234 0)"/>
       <use xlink:href="#Helvetica-30" transform="translate(83.398438 0)"/>
       <use xlink:href="#Helvetica-31" transform="translate(139.013672 0)"/>
       <use xlink:href="#Helvetica-35" transform="translate(194.628906 0)"/>
       <use xlink:href="#Helvetica-30" transform="translate(250.244141 0)"/>
      </g>
     </g>
    </g>
    <g id="ytick_8">
     <g id="line2d_28">
      <path d="M 58.16875 29.070199 
L 560.36875 29.070199 
" clip-path="url(#p4c14db8279)" style="fill: none; stroke: #e9ecef; stroke-width: 0.7; stroke-linecap: square"/>
     </g>
     <g id="line2d_29">
      <g>
       <use xlink:href="#m9b15e5f445" x="58.16875" y="29.070199" style="fill: #6c757d; stroke: #6c757d; stroke-width: 0.8"/>
      </g>
     </g>
     <g id="text_15">
      <!-- 0.0175 -->
      <g style="fill: #6c757d" transform="translate(20.585938 32.656917) scale(0.1 -0.1)">
       <use xlink:href="#Helvetica-30"/>
       <use xlink:href="#Helvetica-2e" transform="translate(55.615234 0)"/>
       <use xlink:href="#Helvetica-30" transform="translate(83.398438 0)"/>
       <use xlink:href="#Helvetica-31" transform="translate(139.013672 0)"/>
       <use xlink:href="#Helvetica-37" transform="translate(194.628906 0)"/>
       <use xlink:href="#Helvetica-35" transform="translate(250.244141 0)"/>
      </g>
     </g>
    </g>
    <g id="text_16">
     <!-- Value gap -->
     <g style="fill: #212529" transform="translate(14.373438 169.206719) rotate(-90) scale(0.1 -0.1)">
      <defs>
       <path id="Helvetica-56" d="M 850 4591 
L 2169 681 
L 3472 4591 
L 4169 4591 
L 2494 0 
L 1834 0 
L 163 4591 
L 850 4591 
z
" transform="scale(0.015625)"/>
       <path id="Helvetica-75" d="M 975 3347 
L 975 1125 
Q 975 869 1056 706 
Q 1206 406 1616 406 
Q 2203 406 2416 931 
Q 2531 1213 2531 1703 
L 2531 3347 
L 3094 3347 
L 3094 0 
L 2563 0 
L 2569 494 
Q 2459 303 2297 172 
Q 1975 -91 1516 -91 
Q 800 -91 541 388 
Q 400 644 400 1072 
L 400 3347 
L 975 3347 
z
M 1747 3428 
L 1747 3428 
z
" transform="scale(0.015625)"/>
       <path id="Helvetica-67" d="M 1594 3406 
Q 1988 3406 2281 3213 
Q 2441 3103 2606 2894 
L 2606 3316 
L 3125 3316 
L 3125 272 
Q 3125 -366 2938 -734 
Q 2588 -1416 1616 -1416 
Q 1075 -1416 706 -1173 
Q 338 -931 294 -416 
L 866 -416 
Q 906 -641 1028 -763 
Q 1219 -950 1628 -950 
Q 2275 -950 2475 -494 
Q 2594 -225 2584 466 
Q 2416 209 2178 84 
Q 1941 -41 1550 -41 
Q 1006 -41 598 345 
Q 191 731 191 1622 
Q 191 2463 602 2934 
Q 1013 3406 1594 3406 
z
M 2606 1688 
Q 2606 2309 2350 2609 
Q 2094 2909 1697 2909 
Q 1103 2909 884 2353 
Q 769 2056 769 1575 
Q 769 1009 998 714 
Q 1228 419 1616 419 
Q 2222 419 2469 966 
Q 2606 1275 2606 1688 
z
M 1659 3428 
L 1659 3428 
z
" transform="scale(0.015625)"/>
       <path id="Helvetica-70" d="M 1825 378 
Q 2219 378 2480 708 
Q 2741 1038 2741 1694 
Q 2741 2094 2625 2381 
Q 2406 2934 1825 2934 
Q 1241 2934 1025 2350 
Q 909 2038 909 1556 
Q 909 1169 1025 897 
Q 1244 378 1825 378 
z
M 369 3331 
L 916 3331 
L 916 2888 
Q 1084 3116 1284 3241 
Q 1569 3428 1953 3428 
Q 2522 3428 2919 2992 
Q 3316 2556 3316 1747 
Q 3316 653 2744 184 
Q 2381 -113 1900 -113 
Q 1522 -113 1266 53 
Q 1116 147 931 375 
L 931 -1334 
L 369 -1334 
L 369 3331 
z
" transform="scale(0.015625)"/>
      </defs>
      <use xlink:href="#Helvetica-56"/>
      <use xlink:href="#Helvetica-61" transform="translate(66.699219 0)"/>
      <use xlink:href="#Helvetica-6c" transform="translate(122.314453 0)"/>
      <use xlink:href="#Helvetica-75" transform="translate(144.53125 0)"/>
      <use xlink:href="#Helvetica-65" transform="translate(200.146484 0)"/>
      <use xlink:href="#Helvetica-20" transform="translate(255.761719 0)"/>
      <use xlink:href="#Helvetica-67" transform="translate(283.544922 0)"/>
      <use xlink:href="#Helvetica-61" transform="translate(339.160156 0)"/>
      <use xlink:href="#Helvetica-70" transform="translate(394.775391 0)"/>
     </g>
    </g>
   </g>
   <g id="line2d_30">
    <path d="M 80.996023 260.08875 
L 172.305114 258.311909 
L 263.614205 259.761912 
L 354.923295 247.880512 
L 446.232386 246.744023 
L 537.541477 246.335671 
" clip-path="url(#p4c14db8279)" style="fill: none; stroke: #2563eb; stroke-width: 2; stroke-linecap: square"/>
    <defs>
     <path id="m354fcb1747" d="M 0 2 
C 0.530406 2 1.03916 1.789267 1.414214 1.414214 
C 1.789267 1.03916 2 0.530406 2 0 
C 2 -0.530406 1.789267 -1.03916 1.414214 -1.414214 
C 1.03916 -1.789267 0.530406 -2 0 -2 
C -0.530406 -2 -1.03916 -1.789267 -1.414214 -1.414214 
C -1.789267 -1.03916 -2 -0.530406 -2 0 
C -2 0.530406 -1.789267 1.03916 -1.414214 1.414214 
C -1.03916 1.789267 -0.530406 2 0 2 
z
" style="stroke: #2563eb"/>
    </defs>
    <g clip-path="url(#p4c14db8279)">
     <use xlink:href="#m354fcb1747" x="80.996023" y="260.08875" style="fill: #2563eb; stroke: #2563eb"/>
     <use xlink:href="#m354fcb1747" x="172.305114" y="258.311909" style="fill: #2563eb; stroke: #2563eb"/>
     <use xlink:href="#m354fcb1747" x="263.614205" y="259.761912" style="fill: #2563eb; stroke: #2563eb"/>
     <use xlink:href="#m354fcb1747" x="354.923295" y="247.880512" style="fill: #2563eb; stroke: #2563eb"/>
     <use xlink:href="#m354fcb1747" x="446.232386" y="246.744023" style="fill: #2563eb; stroke: #2563eb"/>
     <use xlink:href="#m354fcb1747" x="537.541477" y="246.335671" style="fill: #2563eb; stroke: #2563eb"/>
    </g>
   </g>
   <g id="line2d_31">
    <path d="M 80.996023 245.313615 
L 172.305114 45.522069 
L 263.614205 259.188965 
L 354.923295 259.145856 
L 446.232386 258.238233 
L 537.541477 258.158287 
" clip-path="url(#p4c14db8279)" style="fill: none; stroke: #d97706; stroke-width: 1.6; stroke-linecap: square"/>
    <defs>
     <path id="m84ead8ec39" d="M -1.75 1.75 
L 1.75 1.75 
L 1.75 -1.75 
L -1.75 -1.75 
z
" style="stroke: #d97706; stroke-linejoin: miter"/>
    </defs>
    <g clip-path="url(#p4c14db8279)">
     <use xlink:href="#m84ead8ec39" x="80.996023" y="245.313615" style="fill: #d97706; stroke: #d97706; stroke-linejoin: miter"/>
     <use xlink:href="#m84ead8ec39" x="172.305114" y="45.522069" style="fill: #d97706; stroke: #d97706; stroke-linejoin: miter"/>
     <use xlink:href="#m84ead8ec39" x="263.614205" y="259.188965" style="fill: #d97706; stroke: #d97706; stroke-linejoin: miter"/>
     <use xlink:href="#m84ead8ec39" x="354.923295" y="259.145856" style="fill: #d97706; stroke: #d97706; stroke-linejoin: miter"/>
     <use xlink:href="#m84ead8ec39" x="446.232386" y="258.238233" style="fill: #d97706; stroke: #d97706; stroke-linejoin: miter"/>
     <use xlink:href="#m84ead8ec39" x="537.541477" y="258.158287" style="fill: #d97706; stroke: #d97706; stroke-linejoin: miter"/>
    </g>
   </g>
   <g id="line2d_32">
    <path d="M 354.923295 221.35487 
L 446.232386 256.676933 
L 537.541477 33.28875 
" clip-path="url(#p4c14db8279)" style="fill: none; stroke: #059669; stroke-width: 1.6; stroke-linecap: square"/>
    <defs>
     <path id="m3fc4b39b99" d="M -1.75 1.75 
L 1.75 1.75 
L 1.75 -1.75 
L -1.75 -1.75 
z
" style="stroke: #059669; stroke-linejoin: miter"/>
    </defs>
    <g clip-path="url(#p4c14db8279)">
     <use xlink:href="#m3fc4b39b99" x="354.923295" y="221.35487" style="fill: #059669; stroke: #059669; stroke-linejoin: miter"/>
     <use xlink:href="#m3fc4b39b99" x="446.232386" y="256.676933" style="fill: #059669; stroke: #059669; stroke-linejoin: miter"/>
     <use xlink:href="#m3fc4b39b99" x="537.541477" y="33.28875" style="fill: #059669; stroke: #059669; stroke-linejoin: miter"/>
    </g>
   </g>
   <g id="patch_3">
    <path d="M 58.16875 271.42875 
L 58.16875 21.94875 
" style="fill: none; stroke: #495057; stroke-width: 0.8; stroke-linejoin: miter; stroke-linecap: square"/>
   </g>
   <g id="patch_4">
    <path d="M 58.16875 271.42875 
L 560.36875 271.42875 
" style="fill: none; stroke: #495057; stroke-width: 0.8; stroke-linejoin: miter; stroke-linecap: square"/>
   </g>
   <g id="text_17">
    <!-- Local vs global gap sequences (watch for growing oscillation) -->
    <g style="fill: #212529" transform="translate(146.523438 15.94875) scale(0.12 -0.12)">
     <defs>
      <path id="Helvetica-4c" d="M 488 4591 
L 1109 4591 
L 1109 547 
L 3434 547 
L 3434 0 
L 488 0 
L 488 4591 
z
" transform="scale(0.015625)"/>
      <path id="Helvetica-76" d="M 688 3347 
L 1581 622 
L 2516 3347 
L 3131 3347 
L 1869 0 
L 1269 0 
L 34 3347 
L 688 3347 
z
" transform="scale(0.015625)"/>
      <path id="Helvetica-62" d="M 369 4606 
L 916 4606 
L 916 2941 
Q 1100 3181 1356 3307 
Q 1613 3434 1913 3434 
Q 2538 3434 2927 3004 
Q 3316 2575 3316 1738 
Q 3316 944 2931 419 
Q 2547 -106 1866 -106 
Q 1484 -106 1222 78 
Q 1066 188 888 428 
L 888 0 
L 369 0 
L 369 4606 
z
M 1831 391 
Q 2288 391 2514 753 
Q 2741 1116 2741 1709 
Q 2741 2238 2514 2584 
Q 2288 2931 1847 2931 
Q 1463 2931 1173 2647 
Q 884 2363 884 1709 
Q 884 1238 1003 944 
Q 1225 391 1831 391 
z
" transform="scale(0.015625)"/>
      <path id="Helvetica-71" d="M 775 1628 
Q 775 1194 897 900 
Q 1113 378 1669 378 
Q 2256 378 2478 928 
Q 2600 1231 2600 1703 
Q 2600 2138 2466 2428 
Q 2238 2925 1663 2925 
Q 1297 2925 1036 2608 
Q 775 2291 775 1628 
z
M 1606 3422 
Q 2022 3422 2306 3213 
Q 2463 3100 2606 2881 
L 2606 3347 
L 3141 3347 
L 3141 -1334 
L 2575 -1334 
L 2575 384 
Q 2434 159 2186 26 
Q 1938 -106 1566 -106 
Q 1031 -106 609 312 
Q 188 731 188 1588 
Q 188 2391 583 2906 
Q 978 3422 1606 3422 
z
" transform="scale(0.015625)"/>
      <path id="Helvetica-77" d="M 672 3347 
L 1316 709 
L 1969 3347 
L 2600 3347 
L 3256 725 
L 3941 3347 
L 4503 3347 
L 3531 0 
L 2947 0 
L 2266 2591 
L 1606 0 
L 1022 0 
L 56 3347 
L 672 3347 
z
" transform="scale(0.015625)"/>
      <path id="Helvetica-68" d="M 413 4606 
L 975 4606 
L 975 2894 
Q 1175 3147 1334 3250 
Q 1606 3428 2013 3428 
Q 2741 3428 3000 2919 
Q 3141 2641 3141 2147 
L 3141 0 
L 2563 0 
L 2563 2109 
Q 2563 2478 2469 2650 
Q 2316 2925 1894 2925 
Q 1544 2925 1259 2684 
Q 975 2444 975 1775 
L 975 0 
L 413 0 
L 413 4606 
z
" transform="scale(0.015625)"/>
      <path id="Helvetica-66" d="M 553 3856 
Q 566 4206 675 4369 
Q 872 4656 1434 4656 
Q 1488 4656 1544 4653 
Q 1600 4650 1672 4644 
L 1672 4131 
Q 1584 4138 1545 4139 
Q 1506 4141 1472 4141 
Q 1216 4141 1166 4008 
Q 1116 3875 1116 3331 
L 1672 3331 
L 1672 2888 
L 1109 2888 
L 1109 0 
L 553 0 
L 553 2888 
L 88 2888 
L 88 3331 
L 553 3331 
L 553 3856 
z
" transform="scale(0.015625)"/>
     </defs>
     <use xlink:href="#Helvetica-4c"/>
     <use xlink:href="#Helvetica-6f" transform="translate(55.615234 0)"/>
     <use xlink:href="#Helvetica-63" transform="translate(111.230469 0)"/>
     <use xlink:href="#Helvetica-61" transform="translate(161.230469 0)"/>
     <use xlink:href="#Helvetica-6c" transform="translate(216.845703 0)"/>
     <use xlink:href="#Helvetica-20" transform="translate(239.0625 0)"/>
     <use xlink:href="#Helvetica-76" transform="translate(266.845703 0)"/>
     <use xlink:href="#Helvetica-73" transform="translate(316.845703 0)"/>
     <use xlink:href="#Helvetica-20" transform="translate(366.845703 0)"/>
     <use xlink:href="#Helvetica-67" transform="translate(394.628906 0)"/>
     <use xlink:href="#Helvetica-6c" transform="translate(450.244141 0)"/>
     <use xlink:href="#Helvetica-6f" transform="translate(472.460938 0)"/>
     <use xlink:href="#Helvetica-62" transform="translate(528.076172 0)"/>
     <use xlink:href="#Helvetica-61" transform="translate(583.691406 0)"/>
     <use xlink:href="#Helvetica-6c" transform="translate(639.306641 0)"/>
     <use xlink:href="#Helvetica-20" transform="translate(661.523438 0)"/>
     <use xlink:href="#Helvetica-67" transform="translate(689.306641 0)"/>
     <use xlink:href="#Helvetica-61" transform="translate(744.921875 0)"/>
     <use xlink:href="#Helvetica-70" transform="translate(800.537109 0)"/>
     <use xlink:href="#Helvetica-20" transform="translate(856.152344 0)"/>
     <use xlink:href="#Helvetica-73" transform="translate(883.935547 0)"/>
     <use xlink:href="#Helvetica-65" transform="translate(933.935547 0)"/>
     <use xlink:href="#Helvetica-71" transform="translate(989.550781 0)"/>
     <use xlink:href="#Helvetica-75" transform="translate(1045.166016 0)"/>
     <use xlink:href="#Helvetica-65" transform="translate(1100.78125 0)"/>
     <use xlink:href="#Helvetica-6e" transform="translate(1156.396484 0)"/>
     <use xlink:href="#Helvetica-63" transform="translate(1212.011719 0)"/>
     <use xlink:href="#Helvetica-65" transform="translate(1262.011719 0)"/>
     <use xlink:href="#Helvetica-73" transform="translate(1317.626953 0)"/>
     <use xlink:href="#Helvetica-20" transform="translate(1367.626953 0)"/>
     <use xlink:href="#Helvetica-28" transform="translate(1395.410156 0)"/>
     <use xlink:href="#Helvetica-77" transform="translate(1428.710938 0)"/>
     <use xlink:href="#Helvetica-61" transform="translate(1500.927734 0)"/>
     <use xlink:href="#Helvetica-74" transform="translate(1556.542969 0)"/>
     <use xlink:href="#Helvetica-63" transform="translate(1584.326172 0)"/>
     <use xlink:href="#Helvetica-68" transform="translate(1634.326172 0)"/>
     <use xlink:href="#Helvetica-20" transform="translate(1689.941406 0)"/>
     <use xlink:href="#Helvetica-66" transform="translate(1717.724609 0)"/>
     <use xlink:href="#Helvetica-6f" transform="translate(1745.507812 0)"/>
     <use xlink:href="#Helvetica-72" transform="translate(1801.123047 0)"/>
     <use xlink:href="#Helvetica-20" transform="translate(1834.423828 0)"/>
     <use xlink:href="#Helvetica-67" transform="translate(1862.207031 0)"/>
     <use xlink:href="#Helvetica-72" transform="translate(1917.822266 0)"/>
     <use xlink:href="#Helvetica-6f" transform="translate(1951.123047 0)"/>
     <use xlink:href="#Helvetica-77" transform="translate(2006.738281 0)"/>
     <use xlink:href="#Helvetica-69" transform="translate(2078.955078 0)"/>
     <use xlink:href="#Helvetica-6e" transform="translate(2101.171875 0)"/>
     <use xlink:href="#Helvetica-67" transform="translate(2156.787109 0)"/>
     <use xlink:href="#Helvetica-20" transform="translate(2212.402344 0)"/>
     <use xlink:href="#Helvetica-6f" transform="translate(2240.185547 0)"/>
     <use xlink:href="#Helvetica-73" transform="translate(2295.800781 0)"/>
     <use xlink:href="#Helvetica-63" transform="translate(2345.800781 0)"/>
     <use xlink:href="#Helvetica-69" transform="translate(2395.800781 0)"/>
     <use xlink:href="#Helvetica-6c" transform="translate(2418.017578 0)"/>
     <use xlink:href="#Helvetica-6c" transform="translate(2440.234375 0)"/>
     <use xlink:href="#Helvetica-61" transform="translate(2462.451172 0)"/>
     <use xlink:href="#Helvetica-74" transform="translate(2518.066406 0)"/>
     <use xlink:href="#Helvetica-69" transform="translate(2545.849609 0)"/>
     <use xlink:href="#Helvetica-6f" transform="translate(2568.066406 0)"/>
     <use xlink:href="#Helvetica-6e" transform="translate(2623.681641 0)"/>
     <use xlink:href="#Helvetica-29" transform="translate(2679.296875 0)"/>
    </g>
   </g>
   <g id="legend_1">
    <g id="line2d_33">
     <path d="M 252.88375 35.17875 
L 261.88375 35.17875 
L 270.88375 35.17875 
" style="fill: none; stroke: #2563eb; stroke-width: 2; stroke-linecap: square"/>
     <g>
      <use xlink:href="#m354fcb1747" x="261.88375" y="35.17875" style="fill: #2563eb; stroke: #2563eb"/>
     </g>
    </g>
    <g id="text_18">
     <!-- Current task  $V_k^{L}-V_k^{G}$ -->
     <g style="fill: #212529" transform="translate(278.08375 38.32875) scale(0.09 -0.09)">
      <defs>
       <path id="Helvetica-43" d="M 2422 4716 
Q 3294 4716 3775 4256 
Q 4256 3797 4309 3213 
L 3703 3213 
Q 3600 3656 3292 3915 
Q 2984 4175 2428 4175 
Q 1750 4175 1333 3698 
Q 916 3222 916 2238 
Q 916 1431 1292 929 
Q 1669 428 2416 428 
Q 3103 428 3463 956 
Q 3653 1234 3747 1688 
L 4353 1688 
Q 4272 963 3816 472 
Q 3269 -119 2341 -119 
Q 1541 -119 997 366 
Q 281 1006 281 2344 
Q 281 3359 819 4009 
Q 1400 4716 2422 4716 
z
M 2297 4716 
L 2297 4716 
z
" transform="scale(0.015625)"/>
       <path id="DejaVuSans-Oblique-56" d="M 1319 0 
L 500 4666 
L 1119 4666 
L 1797 653 
L 4063 4666 
L 4750 4666 
L 2053 0 
L 1319 0 
z
" transform="scale(0.015625)"/>
       <path id="DejaVuSans-Oblique-4c" d="M 1075 4666 
L 1709 4666 
L 909 525 
L 3181 525 
L 3078 0 
L 172 0 
L 1075 4666 
z
" transform="scale(0.015625)"/>
       <path id="DejaVuSans-Oblique-6b" d="M 1172 4863 
L 1747 4863 
L 1197 2028 
L 3169 3500 
L 3916 3500 
L 1716 1825 
L 3322 0 
L 2625 0 
L 1131 1709 
L 800 0 
L 225 0 
L 1172 4863 
z
" transform="scale(0.015625)"/>
       <path id="DejaVuSans-2212" d="M 678 2272 
L 4684 2272 
L 4684 1741 
L 678 1741 
L 678 2272 
z
" transform="scale(0.015625)"/>
       <path id="DejaVuSans-Oblique-47" d="M 3494 697 
L 3738 1919 
L 2700 1919 
L 2797 2438 
L 4453 2438 
L 4050 384 
Q 3634 156 3143 32 
Q 2653 -91 2156 -91 
Q 1278 -91 783 396 
Q 288 884 288 1753 
Q 288 2475 589 3126 
Q 891 3778 1422 4213 
Q 1756 4484 2153 4617 
Q 2550 4750 3034 4750 
Q 3472 4750 3873 4639 
Q 4275 4528 4641 4306 
L 4513 3634 
Q 4231 3928 3853 4083 
Q 3475 4238 3047 4238 
Q 2550 4238 2172 4048 
Q 1794 3859 1497 3463 
Q 1244 3125 1098 2667 
Q 953 2209 953 1734 
Q 953 1081 1287 751 
Q 1622 422 2284 422 
Q 2616 422 2925 492 
Q 3234 563 3494 697 
z
" transform="scale(0.015625)"/>
      </defs>
      <use xlink:href="#Helvetica-43" transform="translate(0 0.70625)"/>
      <use xlink:href="#Helvetica-75" transform="translate(72.216797 0.70625)"/>
      <use xlink:href="#Helvetica-72" transform="translate(127.832031 0.70625)"/>
      <use xlink:href="#Helvetica-72" transform="translate(161.132812 0.70625)"/>
      <use xlink:href="#Helvetica-65" transform="translate(194.433594 0.70625)"/>
      <use xlink:href="#Helvetica-6e" transform="translate(250.048828 0.70625)"/>
      <use xlink:href="#Helvetica-74" transform="translate(305.664062 0.70625)"/>
      <use xlink:href="#Helvetica-20" transform="translate(333.447266 0.70625)"/>
      <use xlink:href="#Helvetica-74" transform="translate(361.230469 0.70625)"/>
      <use xlink:href="#Helvetica-61" transform="translate(389.013672 0.70625)"/>
      <use xlink:href="#Helvetica-73" transform="translate(444.628906 0.70625)"/>
      <use xlink:href="#Helvetica-6b" transform="translate(494.628906 0.70625)"/>
      <use xlink:href="#Helvetica-20" transform="translate(544.628906 0.70625)"/>
      <use xlink:href="#Helvetica-20" transform="translate(572.412109 0.70625)"/>
      <use xlink:href="#DejaVuSans-Oblique-56" transform="translate(600.195312 0.70625)"/>
      <use xlink:href="#DejaVuSans-Oblique-4c" transform="translate(675.620286 39.051563) scale(0.7)"/>
      <use xlink:href="#DejaVuSans-Oblique-6b" transform="translate(668.603516 -26.6375) scale(0.7)"/>
      <use xlink:href="#DejaVuSans-2212" transform="translate(736.836107 0.70625)"/>
      <use xlink:href="#DejaVuSans-Oblique-56" transform="translate(840.107591 0.70625)"/>
      <use xlink:href="#DejaVuSans-Oblique-47" transform="translate(915.532565 40.046875) scale(0.7)"/>
      <use xlink:href="#DejaVuSans-Oblique-6b" transform="translate(908.515794 -26.6375) scale(0.7)"/>
     </g>
    </g>
    <g id="line2d_34">
     <path d="M 252.88375 48.692812 
L 261.88375 48.692812 
L 270.88375 48.692812 
" style="fill: none; stroke: #d97706; stroke-width: 1.6; stroke-linecap: square"/>
     <g>
      <use xlink:href="#m84ead8ec39" x="261.88375" y="48.692812" style="fill: #d97706; stroke: #d97706; stroke-linejoin: miter"/>
     </g>
    </g>
    <g id="text_19">
     <!-- Past task 1  $V^{G}-V^{L}$ -->
     <g style="fill: #212529" transform="translate(278.08375 51.842812) scale(0.09 -0.09)">
      <defs>
       <path id="Helvetica-50" d="M 547 4591 
L 2613 4591 
Q 3225 4591 3600 4245 
Q 3975 3900 3975 3275 
Q 3975 2738 3640 2339 
Q 3306 1941 2613 1941 
L 1169 1941 
L 1169 0 
L 547 0 
L 547 4591 
z
M 3347 3272 
Q 3347 3778 2972 3959 
Q 2766 4056 2406 4056 
L 1169 4056 
L 1169 2466 
L 2406 2466 
Q 2825 2466 3086 2644 
Q 3347 2822 3347 3272 
z
" transform="scale(0.015625)"/>
      </defs>
      <use xlink:href="#Helvetica-50" transform="translate(0 0.765625)"/>
      <use xlink:href="#Helvetica-61" transform="translate(66.699219 0.765625)"/>
      <use xlink:href="#Helvetica-73" transform="translate(122.314453 0.765625)"/>
      <use xlink:href="#Helvetica-74" transform="translate(172.314453 0.765625)"/>
      <use xlink:href="#Helvetica-20" transform="translate(200.097656 0.765625)"/>
      <use xlink:href="#Helvetica-74" transform="translate(227.880859 0.765625)"/>
      <use xlink:href="#Helvetica-61" transform="translate(255.664062 0.765625)"/>
      <use xlink:href="#Helvetica-73" transform="translate(311.279297 0.765625)"/>
      <use xlink:href="#Helvetica-6b" transform="translate(361.279297 0.765625)"/>
      <use xlink:href="#Helvetica-20" transform="translate(411.279297 0.765625)"/>
      <use xlink:href="#Helvetica-31" transform="translate(439.0625 0.765625)"/>
      <use xlink:href="#Helvetica-20" transform="translate(494.677734 0.765625)"/>
      <use xlink:href="#Helvetica-20" transform="translate(522.460938 0.765625)"/>
      <use xlink:href="#DejaVuSans-Oblique-56" transform="translate(550.244141 0.765625)"/>
      <use xlink:href="#DejaVuSans-Oblique-47" transform="translate(625.669115 39.046875) scale(0.7)"/>
      <use xlink:href="#DejaVuSans-2212" transform="translate(702.129076 0.765625)"/>
      <use xlink:href="#DejaVuSans-Oblique-56" transform="translate(805.40056 0.765625)"/>
      <use xlink:href="#DejaVuSans-Oblique-4c" transform="translate(880.825534 39.046875) scale(0.7)"/>
     </g>
    </g>
    <g id="line2d_35">
     <path d="M 252.88375 61.562812 
L 261.88375 61.562812 
L 270.88375 61.562812 
" style="fill: none; stroke: #059669; stroke-width: 1.6; stroke-linecap: square"/>
     <g>
      <use xlink:href="#m3fc4b39b99" x="261.88375" y="61.562812" style="fill: #059669; stroke: #059669; stroke-linejoin: miter"/>
     </g>
    </g>
    <g id="text_20">
     <!-- Past task 2  $V^{G}-V^{L}$ -->
     <g style="fill: #212529" transform="translate(278.08375 64.712812) scale(0.09 -0.09)">
      <use xlink:href="#Helvetica-50" transform="translate(0 0.765625)"/>
      <use xlink:href="#Helvetica-61" transform="translate(66.699219 0.765625)"/>
      <use xlink:href="#Helvetica-73" transform="translate(122.314453 0.765625)"/>
      <use xlink:href="#Helvetica-74" transform="translate(172.314453 0.765625)"/>
      <use xlink:href="#Helvetica-20" transform="translate(200.097656 0.765625)"/>
      <use xlink:href="#Helvetica-74" transform="translate(227.880859 0.765625)"/>
      <use xlink:href="#Helvetica-61" transform="translate(255.664062 0.765625)"/>
      <use xlink:href="#Helvetica-73" transform="translate(311.279297 0.765625)"/>
      <use xlink:href="#Helvetica-6b" transform="translate(361.279297 0.765625)"/>
      <use xlink:href="#Helvetica-20" transform="translate(411.279297 0.765625)"/>
      <use xlink:href="#Helvetica-32" transform="translate(439.0625 0.765625)"/>
      <use xlink:href="#Helvetica-20" transform="translate(494.677734 0.765625)"/>
      <use xlink:href="#Helvetica-20" transform="translate(522.460938 0.765625)"/>
      <use xlink:href="#DejaVuSans-Oblique-56" transform="translate(550.244141 0.765625)"/>
      <use xlink:href="#DejaVuSans-Oblique-47" transform="translate(625.669115 39.046875) scale(0.7)"/>
      <use xlink:href="#DejaVuSans-2212" transform="translate(702.129076 0.765625)"/>
      <use xlink:href="#DejaVuSans-Oblique-56" transform="translate(805.40056 0.765625)"/>
      <use xlink:href="#DejaVuSans-Oblique-4c" transform="translate(880.825534 39.046875) scale(0.7)"/>
     </g>
    </g>
   </g>
  </g>
 </g>
 <defs>
  <clipPath id="p4c14db8279">
   <rect x="58.16875" y="21.94875" width="502.2" height="249.48"/>
  </clipPath>
 </defs>
</svg>
