<?xml version="1.0" encoding="utf-8" standalone="no"?>
<!DOCTYPE svg PUBLIC "-//W3C//DTD SVG 1.1//EN"
  "http://www.w3.org/Graphics/SVG/1.1/DTD/svg11.dtd">
<svg xmlns:xlink="http://www.w3.org/1999/xlink" width="620.218125pt" height="355.0275pt" viewBox="0 0 620.218125 355.0275" xmlns="http://www.w3.org/2000/svg" version="1.1">
 <metadata>
  <rdf:RDF xmlns:dc="http://purl.org/dc/elements/1.1/" xmlns:cc="http://creativecommons.org/ns#" xmlns:rdf="http://www.w3.org/1999/02/22-rdf-syntax-ns#">
   <cc:Work>
    <dc:type rdf:resource="http://purl.org/dc/dcmitype/StillImage"/>
    <dc:date>2026-07-09T15:41:46.812693</dc:date>
    <dc:format>image/svg+xml</dc:format>
    <dc:creator>
     <cc:Agent>
      <dc:title>Matplotlib v3.10.1, https://matplotlib.org/</dc:title>
     </cc:Agent>
    </dc:creator>
   </cc:Work>
  </rdf:RDF>
 </metadata>
 <defs>
  <style type="text/css">*{stroke-linejoin: round; stroke-linecap: butt}</style>
 </defs>
 <g id="figure_1">
  <g id="patch_1">
   <path d="M 0 355.0275 
L 620.218125 355.0275 
L 620.218125 0 
L 0 0 
z
" style="fill: #ffffff"/>
  </g>
  <g id="axes_1">
   <g id="patch_2">
    <path d="M 67.109063 299.03625 
L 569.309063 299.03625 
L 569.309063 21.83625 
L 67.109063 21.83625 
z
" style="fill: #ffffff"/>
   </g>
   <g id="line2d_1">
    <path d="M 70.328293 299.03625 
L 70.328293 21.83625 
" clip-path="url(#p9994915a33)" style="fill: none; stroke-dasharray: 3.7,1.6; stroke-dashoffset: 0; stroke: #adb5bd"/>
   </g>
   <g id="line2d_2">
    <path d="M 108.959063 299.03625 
L 108.959063 21.83625 
" clip-path="url(#p9994915a33)" style="fill: none; stroke-dasharray: 3.7,1.6; stroke-dashoffset: 0; stroke: #adb5bd"/>
   </g>
   <g id="line2d_3">
    <path d="M 340.743678 299.03625 
L 340.743678 21.83625 
" clip-path="url(#p9994915a33)" style="fill: none; stroke-dasharray: 3.7,1.6; stroke-dashoffset: 0; stroke: #adb5bd"/>
   </g>
   <g id="matplotlib.axis_1">
    <g id="xtick_1">
     <g id="line2d_4">
      <path d="M 67.109063 299.03625 
L 67.109063 21.83625 
" clip-path="url(#p9994915a33)" style="fill: none; stroke: #e9ecef; stroke-width: 0.7; stroke-linecap: square"/>
     </g>
     <g id="line2d_5">
      <defs>
       <path id="mb0feb78e78" d="M 0 0 
L 0 3.5 
" style="stroke: #6c757d; stroke-width: 0.8"/>
      </defs>
      <g>
       <use xlink:href="#mb0feb78e78" x="67.109063" y="299.03625" style="fill: #6c757d; stroke: #6c757d; stroke-width: 0.8"/>
      </g>
     </g>
     <g id="text_1">
      <!-- 0 -->
      <g style="fill: #6c757d" transform="translate(64.328594 313.209688) scale(0.1 -0.1)">
       <defs>
        <path id="Helvetica-30" d="M 1731 4475 
Q 2600 4475 2988 3759 
Q 3288 3206 3288 2244 
Q 3288 1331 3016 734 
Q 2622 -122 1728 -122 
Q 922 -122 528 578 
Q 200 1163 200 2147 
Q 200 2909 397 3456 
Q 766 4475 1731 4475 
z
M 1725 391 
Q 2163 391 2422 778 
Q 2681 1166 2681 2222 
Q 2681 2984 2493 3476 
Q 2306 3969 1766 3969 
Q 1269 3969 1039 3501 
Q 809 3034 809 2125 
Q 809 1441 956 1025 
Q 1181 391 1725 391 
z
" transform="scale(0.015625)"/>
       </defs>
       <use xlink:href="#Helvetica-30"/>
      </g>
     </g>
    </g>
    <g id="xtick_2">
     <g id="line2d_6">
      <path d="M 131.493678 299.03625 
L 131.493678 21.83625 
" clip-path="url(#p9994915a33)" style="fill: none; stroke: #e9ecef; stroke-width: 0.7; stroke-linecap: square"/>
     </g>
     <g id="line2d_7">
      <g>
       <use xlink:href="#mb0feb78e78" x="131.493678" y="299.03625" style="fill: #6c757d; stroke: #6c757d; stroke-width: 0.8"/>
      </g>
     </g>
     <g id="text_2">
      <!-- 500 -->
      <g style="fill: #6c757d" transform="translate(123.152272 313.209688) scale(0.1 -0.1)">
       <defs>
        <path id="Helvetica-35" d="M 791 1141 
Q 847 659 1238 475 
Q 1438 381 1700 381 
Q 2200 381 2440 700 
Q 2681 1019 2681 1406 
Q 2681 1875 2395 2131 
Q 2109 2388 1709 2388 
Q 1419 2388 1211 2275 
Q 1003 2163 856 1963 
L 369 1991 
L 709 4400 
L 3034 4400 
L 3034 3856 
L 1131 3856 
L 941 2613 
Q 1097 2731 1238 2791 
Q 1488 2894 1816 2894 
Q 2431 2894 2859 2497 
Q 3288 2100 3288 1491 
Q 3288 856 2895 371 
Q 2503 -113 1644 -113 
Q 1097 -113 676 195 
Q 256 503 206 1141 
L 791 1141 
z
" transform="scale(0.015625)"/>
       </defs>
       <use xlink:href="#Helvetica-35"/>
       <use xlink:href="#Helvetica-30" transform="translate(55.615234 0)"/>
       <use xlink:href="#Helvetica-30" transform="translate(111.230469 0)"/>
      </g>
     </g>
    </g>
    <g id="xtick_3">
     <g id="line2d_8">
      <path d="M 195.878293 299.03625 
L 195.878293 21.83625 
" clip-path="url(#p9994915a33)" style="fill: none; stroke: #e9ecef; stroke-width: 0.7; stroke-linecap: square"/>
     </g>
     <g id="line2d_9">
      <g>
       <use xlink:href="#mb0feb78e78" x="195.878293" y="299.03625" style="fill: #6c757d; stroke: #6c757d; stroke-width: 0.8"/>
      </g>
     </g>
     <g id="text_3">
      <!-- 1000 -->
      <g style="fill: #6c757d" transform="translate(184.756418 313.209688) scale(0.1 -0.1)">
       <defs>
        <path id="Helvetica-31" d="M 613 3169 
L 613 3600 
Q 1222 3659 1462 3798 
Q 1703 3938 1822 4456 
L 2266 4456 
L 2266 0 
L 1666 0 
L 1666 3169 
L 613 3169 
z
" transform="scale(0.015625)"/>
       </defs>
       <use xlink:href="#Helvetica-31"/>
       <use xlink:href="#Helvetica-30" transform="translate(55.615234 0)"/>
       <use xlink:href="#Helvetica-30" transform="translate(111.230469 0)"/>
       <use xlink:href="#Helvetica-30" transform="translate(166.845703 0)"/>
      </g>
     </g>
    </g>
    <g id="xtick_4">
     <g id="line2d_10">
      <path d="M 260.262909 299.03625 
L 260.262909 21.83625 
" clip-path="url(#p9994915a33)" style="fill: none; stroke: #e9ecef; stroke-width: 0.7; stroke-linecap: square"/>
     </g>
     <g id="line2d_11">
      <g>
       <use xlink:href="#mb0feb78e78" x="260.262909" y="299.03625" style="fill: #6c757d; stroke: #6c757d; stroke-width: 0.8"/>
      </g>
     </g>
     <g id="text_4">
      <!-- 1500 -->
      <g style="fill: #6c757d" transform="translate(249.141034 313.209688) scale(0.1 -0.1)">
       <use xlink:href="#Helvetica-31"/>
       <use xlink:href="#Helvetica-35" transform="translate(55.615234 0)"/>
       <use xlink:href="#Helvetica-30" transform="translate(111.230469 0)"/>
       <use xlink:href="#Helvetica-30" transform="translate(166.845703 0)"/>
      </g>
     </g>
    </g>
    <g id="xtick_5">
     <g id="line2d_12">
      <path d="M 324.647524 299.03625 
L 324.647524 21.83625 
" clip-path="url(#p9994915a33)" style="fill: none; stroke: #e9ecef; stroke-width: 0.7; stroke-linecap: square"/>
     </g>
     <g id="line2d_13">
      <g>
       <use xlink:href="#mb0feb78e78" x="324.647524" y="299.03625" style="fill: #6c757d; stroke: #6c757d; stroke-width: 0.8"/>
      </g>
     </g>
     <g id="text_5">
      <!-- 2000 -->
      <g style="fill: #6c757d" transform="translate(313.525649 313.209688) scale(0.1 -0.1)">
       <defs>
        <path id="Helvetica-32" d="M 200 0 
Q 231 578 439 1006 
Q 647 1434 1250 1784 
L 1850 2131 
Q 2253 2366 2416 2531 
Q 2672 2791 2672 3125 
Q 2672 3516 2437 3745 
Q 2203 3975 1813 3975 
Q 1234 3975 1013 3538 
Q 894 3303 881 2888 
L 309 2888 
Q 319 3472 525 3841 
Q 891 4491 1816 4491 
Q 2584 4491 2939 4075 
Q 3294 3659 3294 3150 
Q 3294 2613 2916 2231 
Q 2697 2009 2131 1694 
L 1703 1456 
Q 1397 1288 1222 1134 
Q 909 863 828 531 
L 3272 531 
L 3272 0 
L 200 0 
z
" transform="scale(0.015625)"/>
       </defs>
       <use xlink:href="#Helvetica-32"/>
       <use xlink:href="#Helvetica-30" transform="translate(55.615234 0)"/>
       <use xlink:href="#Helvetica-30" transform="translate(111.230469 0)"/>
       <use xlink:href="#Helvetica-30" transform="translate(166.845703 0)"/>
      </g>
     </g>
    </g>
    <g id="xtick_6">
     <g id="line2d_14">
      <path d="M 389.032139 299.03625 
L 389.032139 21.83625 
" clip-path="url(#p9994915a33)" style="fill: none; stroke: #e9ecef; stroke-width: 0.7; stroke-linecap: square"/>
     </g>
     <g id="line2d_15">
      <g>
       <use xlink:href="#mb0feb78e78" x="389.032139" y="299.03625" style="fill: #6c757d; stroke: #6c757d; stroke-width: 0.8"/>
      </g>
     </g>
     <g id="text_6">
      <!-- 2500 -->
      <g style="fill: #6c757d" transform="translate(377.910264 313.209688) scale(0.1 -0.1)">
       <use xlink:href="#Helvetica-32"/>
       <use xlink:href="#Helvetica-35" transform="translate(55.615234 0)"/>
       <use xlink:href="#Helvetica-30" transform="translate(111.230469 0)"/>
       <use xlink:href="#Helvetica-30" transform="translate(166.845703 0)"/>
      </g>
     </g>
    </g>
    <g id="xtick_7">
     <g id="line2d_16">
      <path d="M 453.416755 299.03625 
L 453.416755 21.83625 
" clip-path="url(#p9994915a33)" style="fill: none; stroke: #e9ecef; stroke-width: 0.7; stroke-linecap: square"/>
     </g>
     <g id="line2d_17">
      <g>
       <use xlink:href="#mb0feb78e78" x="453.416755" y="299.03625" style="fill: #6c757d; stroke: #6c757d; stroke-width: 0.8"/>
      </g>
     </g>
     <g id="text_7">
      <!-- 3000 -->
      <g style="fill: #6c757d" transform="translate(442.29488 313.209688) scale(0.1 -0.1)">
       <defs>
        <path id="Helvetica-33" d="M 1663 -122 
Q 869 -122 511 314 
Q 153 750 153 1375 
L 741 1375 
Q 778 941 903 744 
Q 1122 391 1694 391 
Q 2138 391 2406 628 
Q 2675 866 2675 1241 
Q 2675 1703 2392 1887 
Q 2109 2072 1606 2072 
Q 1550 2072 1492 2070 
Q 1434 2069 1375 2066 
L 1375 2563 
Q 1463 2553 1522 2550 
Q 1581 2547 1650 2547 
Q 1966 2547 2169 2647 
Q 2525 2822 2525 3272 
Q 2525 3606 2287 3787 
Q 2050 3969 1734 3969 
Q 1172 3969 956 3594 
Q 838 3388 822 3006 
L 266 3006 
Q 266 3506 466 3856 
Q 809 4481 1675 4481 
Q 2359 4481 2734 4176 
Q 3109 3872 3109 3294 
Q 3109 2881 2888 2625 
Q 2750 2466 2531 2375 
Q 2884 2278 3082 2001 
Q 3281 1725 3281 1325 
Q 3281 684 2859 281 
Q 2438 -122 1663 -122 
z
" transform="scale(0.015625)"/>
       </defs>
       <use xlink:href="#Helvetica-33"/>
       <use xlink:href="#Helvetica-30" transform="translate(55.615234 0)"/>
       <use xlink:href="#Helvetica-30" transform="translate(111.230469 0)"/>
       <use xlink:href="#Helvetica-30" transform="translate(166.845703 0)"/>
      </g>
     </g>
    </g>
    <g id="xtick_8">
     <g id="line2d_18">
      <path d="M 517.80137 299.03625 
L 517.80137 21.83625 
" clip-path="url(#p9994915a33)" style="fill: none; stroke: #e9ecef; stroke-width: 0.7; stroke-linecap: square"/>
     </g>
     <g id="line2d_19">
      <g>
       <use xlink:href="#mb0feb78e78" x="517.80137" y="299.03625" style="fill: #6c757d; stroke: #6c757d; stroke-width: 0.8"/>
      </g>
     </g>
     <g id="text_8">
      <!-- 3500 -->
      <g style="fill: #6c757d" transform="translate(506.679495 313.209688) scale(0.1 -0.1)">
       <use xlink:href="#Helvetica-33"/>
       <use xlink:href="#Helvetica-35" transform="translate(55.615234 0)"/>
       <use xlink:href="#Helvetica-30" transform="translate(111.230469 0)"/>
       <use xlink:href="#Helvetica-30" transform="translate(166.845703 0)"/>
      </g>
     </g>
    </g>
    <g id="text_9">
     <!-- Cumulative primal steps across all phases -->
     <g style="fill: #212529" transform="translate(224.842656 326.662813) scale(0.1 -0.1)">
      <defs>
       <path id="Helvetica-43" d="M 2422 4716 
Q 3294 4716 3775 4256 
Q 4256 3797 4309 3213 
L 3703 3213 
Q 3600 3656 3292 3915 
Q 2984 4175 2428 4175 
Q 1750 4175 1333 3698 
Q 916 3222 916 2238 
Q 916 1431 1292 929 
Q 1669 428 2416 428 
Q 3103 428 3463 956 
Q 3653 1234 3747 1688 
L 4353 1688 
Q 4272 963 3816 472 
Q 3269 -119 2341 -119 
Q 1541 -119 997 366 
Q 281 1006 281 2344 
Q 281 3359 819 4009 
Q 1400 4716 2422 4716 
z
M 2297 4716 
L 2297 4716 
z
" transform="scale(0.015625)"/>
       <path id="Helvetica-75" d="M 975 3347 
L 975 1125 
Q 975 869 1056 706 
Q 1206 406 1616 406 
Q 2203 406 2416 931 
Q 2531 1213 2531 1703 
L 2531 3347 
L 3094 3347 
L 3094 0 
L 2563 0 
L 2569 494 
Q 2459 303 2297 172 
Q 1975 -91 1516 -91 
Q 800 -91 541 388 
Q 400 644 400 1072 
L 400 3347 
L 975 3347 
z
M 1747 3428 
L 1747 3428 
z
" transform="scale(0.015625)"/>
       <path id="Helvetica-6d" d="M 413 3347 
L 969 3347 
L 969 2872 
Q 1169 3119 1331 3231 
Q 1609 3422 1963 3422 
Q 2363 3422 2606 3225 
Q 2744 3113 2856 2894 
Q 3044 3163 3297 3292 
Q 3550 3422 3866 3422 
Q 4541 3422 4784 2934 
Q 4916 2672 4916 2228 
L 4916 0 
L 4331 0 
L 4331 2325 
Q 4331 2659 4164 2784 
Q 3997 2909 3756 2909 
Q 3425 2909 3186 2687 
Q 2947 2466 2947 1947 
L 2947 0 
L 2375 0 
L 2375 2184 
Q 2375 2525 2294 2681 
Q 2166 2916 1816 2916 
Q 1497 2916 1236 2669 
Q 975 2422 975 1775 
L 975 0 
L 413 0 
L 413 3347 
z
" transform="scale(0.015625)"/>
       <path id="Helvetica-6c" d="M 428 4591 
L 991 4591 
L 991 0 
L 428 0 
L 428 4591 
z
" transform="scale(0.015625)"/>
       <path id="Helvetica-61" d="M 844 891 
Q 844 647 1022 506 
Q 1200 366 1444 366 
Q 1741 366 2019 503 
Q 2488 731 2488 1250 
L 2488 1703 
Q 2384 1638 2221 1594 
Q 2059 1550 1903 1531 
L 1563 1488 
Q 1256 1447 1103 1359 
Q 844 1213 844 891 
z
M 2206 2028 
Q 2400 2053 2466 2191 
Q 2503 2266 2503 2406 
Q 2503 2694 2298 2823 
Q 2094 2953 1713 2953 
Q 1272 2953 1088 2716 
Q 984 2584 953 2325 
L 428 2325 
Q 444 2944 830 3186 
Q 1216 3428 1725 3428 
Q 2316 3428 2684 3203 
Q 3050 2978 3050 2503 
L 3050 575 
Q 3050 488 3086 434 
Q 3122 381 3238 381 
Q 3275 381 3322 386 
Q 3369 391 3422 400 
L 3422 -16 
Q 3291 -53 3222 -62 
Q 3153 -72 3034 -72 
Q 2744 -72 2613 134 
Q 2544 244 2516 444 
Q 2344 219 2022 53 
Q 1700 -113 1313 -113 
Q 847 -113 551 170 
Q 256 453 256 878 
Q 256 1344 547 1600 
Q 838 1856 1309 1916 
L 2206 2028 
z
M 1741 3428 
L 1741 3428 
z
" transform="scale(0.015625)"/>
       <path id="Helvetica-74" d="M 525 4281 
L 1094 4281 
L 1094 3347 
L 1628 3347 
L 1628 2888 
L 1094 2888 
L 1094 703 
Q 1094 528 1213 469 
Q 1278 434 1431 434 
Q 1472 434 1519 436 
Q 1566 438 1628 444 
L 1628 0 
Q 1531 -28 1426 -40 
Q 1322 -53 1200 -53 
Q 806 -53 665 148 
Q 525 350 525 672 
L 525 2888 
L 72 2888 
L 72 3347 
L 525 3347 
L 525 4281 
z
" transform="scale(0.015625)"/>
       <path id="Helvetica-69" d="M 413 3331 
L 984 3331 
L 984 0 
L 413 0 
L 413 3331 
z
M 413 4591 
L 984 4591 
L 984 3953 
L 413 3953 
L 413 4591 
z
" transform="scale(0.015625)"/>
       <path id="Helvetica-76" d="M 688 3347 
L 1581 622 
L 2516 3347 
L 3131 3347 
L 1869 0 
L 1269 0 
L 34 3347 
L 688 3347 
z
" transform="scale(0.015625)"/>
       <path id="Helvetica-65" d="M 1806 3422 
Q 2163 3422 2497 3255 
Q 2831 3088 3006 2822 
Q 3175 2569 3231 2231 
Q 3281 2000 3281 1494 
L 828 1494 
Q 844 984 1069 676 
Q 1294 369 1766 369 
Q 2206 369 2469 659 
Q 2619 828 2681 1050 
L 3234 1050 
Q 3213 866 3089 639 
Q 2966 413 2813 269 
Q 2556 19 2178 -69 
Q 1975 -119 1719 -119 
Q 1094 -119 659 336 
Q 225 791 225 1609 
Q 225 2416 662 2919 
Q 1100 3422 1806 3422 
z
M 2703 1941 
Q 2669 2306 2544 2525 
Q 2313 2931 1772 2931 
Q 1384 2931 1121 2651 
Q 859 2372 844 1941 
L 2703 1941 
z
M 1753 3428 
L 1753 3428 
z
" transform="scale(0.015625)"/>
       <path id="Helvetica-20" transform="scale(0.015625)"/>
       <path id="Helvetica-70" d="M 1825 378 
Q 2219 378 2480 708 
Q 2741 1038 2741 1694 
Q 2741 2094 2625 2381 
Q 2406 2934 1825 2934 
Q 1241 2934 1025 2350 
Q 909 2038 909 1556 
Q 909 1169 1025 897 
Q 1244 378 1825 378 
z
M 369 3331 
L 916 3331 
L 916 2888 
Q 1084 3116 1284 3241 
Q 1569 3428 1953 3428 
Q 2522 3428 2919 2992 
Q 3316 2556 3316 1747 
Q 3316 653 2744 184 
Q 2381 -113 1900 -113 
Q 1522 -113 1266 53 
Q 1116 147 931 375 
L 931 -1334 
L 369 -1334 
L 369 3331 
z
" transform="scale(0.015625)"/>
       <path id="Helvetica-72" d="M 428 3347 
L 963 3347 
L 963 2769 
Q 1028 2938 1284 3180 
Q 1541 3422 1875 3422 
Q 1891 3422 1928 3419 
Q 1966 3416 2056 3406 
L 2056 2813 
Q 2006 2822 1964 2825 
Q 1922 2828 1872 2828 
Q 1447 2828 1219 2554 
Q 991 2281 991 1925 
L 991 0 
L 428 0 
L 428 3347 
z
" transform="scale(0.015625)"/>
       <path id="Helvetica-73" d="M 747 1050 
Q 772 769 888 619 
Q 1100 347 1625 347 
Q 1938 347 2175 483 
Q 2413 619 2413 903 
Q 2413 1119 2222 1231 
Q 2100 1300 1741 1391 
L 1294 1503 
Q 866 1609 663 1741 
Q 300 1969 300 2372 
Q 300 2847 642 3140 
Q 984 3434 1563 3434 
Q 2319 3434 2653 2991 
Q 2863 2709 2856 2384 
L 2325 2384 
Q 2309 2575 2191 2731 
Q 1997 2953 1519 2953 
Q 1200 2953 1036 2831 
Q 872 2709 872 2509 
Q 872 2291 1088 2159 
Q 1213 2081 1456 2022 
L 1828 1931 
Q 2434 1784 2641 1647 
Q 2969 1431 2969 969 
Q 2969 522 2630 197 
Q 2291 -128 1597 -128 
Q 850 -128 539 211 
Q 228 550 206 1050 
L 747 1050 
z
M 1578 3428 
L 1578 3428 
z
" transform="scale(0.015625)"/>
       <path id="Helvetica-63" d="M 1703 3444 
Q 2269 3444 2623 3169 
Q 2978 2894 3050 2222 
L 2503 2222 
Q 2453 2531 2275 2736 
Q 2097 2941 1703 2941 
Q 1166 2941 934 2416 
Q 784 2075 784 1575 
Q 784 1072 996 728 
Q 1209 384 1666 384 
Q 2016 384 2220 598 
Q 2425 813 2503 1184 
L 3050 1184 
Q 2956 519 2581 211 
Q 2206 -97 1622 -97 
Q 966 -97 575 383 
Q 184 863 184 1581 
Q 184 2463 612 2953 
Q 1041 3444 1703 3444 
z
M 1616 3428 
L 1616 3428 
z
" transform="scale(0.015625)"/>
       <path id="Helvetica-6f" d="M 1741 363 
Q 2300 363 2508 786 
Q 2716 1209 2716 1728 
Q 2716 2197 2566 2491 
Q 2328 2953 1747 2953 
Q 1231 2953 997 2559 
Q 763 2166 763 1609 
Q 763 1075 997 719 
Q 1231 363 1741 363 
z
M 1763 3444 
Q 2409 3444 2856 3012 
Q 3303 2581 3303 1744 
Q 3303 934 2909 406 
Q 2516 -122 1688 -122 
Q 997 -122 590 345 
Q 184 813 184 1600 
Q 184 2444 612 2944 
Q 1041 3444 1763 3444 
z
M 1744 3428 
L 1744 3428 
z
" transform="scale(0.015625)"/>
       <path id="Helvetica-68" d="M 413 4606 
L 975 4606 
L 975 2894 
Q 1175 3147 1334 3250 
Q 1606 3428 2013 3428 
Q 2741 3428 3000 2919 
Q 3141 2641 3141 2147 
L 3141 0 
L 2563 0 
L 2563 2109 
Q 2563 2478 2469 2650 
Q 2316 2925 1894 2925 
Q 1544 2925 1259 2684 
Q 975 2444 975 1775 
L 975 0 
L 413 0 
L 413 4606 
z
" transform="scale(0.015625)"/>
      </defs>
      <use xlink:href="#Helvetica-43"/>
      <use xlink:href="#Helvetica-75" transform="translate(72.216797 0)"/>
      <use xlink:href="#Helvetica-6d" transform="translate(127.832031 0)"/>
      <use xlink:href="#Helvetica-75" transform="translate(211.132812 0)"/>
      <use xlink:href="#Helvetica-6c" transform="translate(266.748047 0)"/>
      <use xlink:href="#Helvetica-61" transform="translate(288.964844 0)"/>
      <use xlink:href="#Helvetica-74" transform="translate(344.580078 0)"/>
      <use xlink:href="#Helvetica-69" transform="translate(372.363281 0)"/>
      <use xlink:href="#Helvetica-76" transform="translate(394.580078 0)"/>
      <use xlink:href="#Helvetica-65" transform="translate(444.580078 0)"/>
      <use xlink:href="#Helvetica-20" transform="translate(500.195312 0)"/>
      <use xlink:href="#Helvetica-70" transform="translate(527.978516 0)"/>
      <use xlink:href="#Helvetica-72" transform="translate(583.59375 0)"/>
      <use xlink:href="#Helvetica-69" transform="translate(616.894531 0)"/>
      <use xlink:href="#Helvetica-6d" transform="translate(639.111328 0)"/>
      <use xlink:href="#Helvetica-61" transform="translate(722.412109 0)"/>
      <use xlink:href="#Helvetica-6c" transform="translate(778.027344 0)"/>
      <use xlink:href="#Helvetica-20" transform="translate(800.244141 0)"/>
      <use xlink:href="#Helvetica-73" transform="translate(828.027344 0)"/>
      <use xlink:href="#Helvetica-74" transform="translate(878.027344 0)"/>
      <use xlink:href="#Helvetica-65" transform="translate(905.810547 0)"/>
      <use xlink:href="#Helvetica-70" transform="translate(961.425781 0)"/>
      <use xlink:href="#Helvetica-73" transform="translate(1017.041016 0)"/>
      <use xlink:href="#Helvetica-20" transform="translate(1067.041016 0)"/>
      <use xlink:href="#Helvetica-61" transform="translate(1094.824219 0)"/>
      <use xlink:href="#Helvetica-63" transform="translate(1150.439453 0)"/>
      <use xlink:href="#Helvetica-72" transform="translate(1200.439453 0)"/>
      <use xlink:href="#Helvetica-6f" transform="translate(1233.740234 0)"/>
      <use xlink:href="#Helvetica-73" transform="translate(1289.355469 0)"/>
      <use xlink:href="#Helvetica-73" transform="translate(1339.355469 0)"/>
      <use xlink:href="#Helvetica-20" transform="translate(1389.355469 0)"/>
      <use xlink:href="#Helvetica-61" transform="translate(1417.138672 0)"/>
      <use xlink:href="#Helvetica-6c" transform="translate(1472.753906 0)"/>
      <use xlink:href="#Helvetica-6c" transform="translate(1494.970703 0)"/>
      <use xlink:href="#Helvetica-20" transform="translate(1517.1875 0)"/>
      <use xlink:href="#Helvetica-70" transform="translate(1544.970703 0)"/>
      <use xlink:href="#Helvetica-68" transform="translate(1600.585938 0)"/>
      <use xlink:href="#Helvetica-61" transform="translate(1656.201172 0)"/>
      <use xlink:href="#Helvetica-73" transform="translate(1711.816406 0)"/>
      <use xlink:href="#Helvetica-65" transform="translate(1761.816406 0)"/>
      <use xlink:href="#Helvetica-73" transform="translate(1817.431641 0)"/>
     </g>
    </g>
   </g>
   <g id="matplotlib.axis_2">
    <g id="ytick_1">
     <g id="line2d_20">
      <path d="M 67.109063 299.03625 
L 569.309063 299.03625 
" clip-path="url(#p9994915a33)" style="fill: none; stroke: #e9ecef; stroke-width: 0.7; stroke-linecap: square"/>
     </g>
     <g id="line2d_21">
      <defs>
       <path id="m2ff28fac78" d="M 0 0 
L -3.5 0 
" style="stroke: #6c757d; stroke-width: 0.8"/>
      </defs>
      <g>
       <use xlink:href="#m2ff28fac78" x="67.109063" y="299.03625" style="fill: #6c757d; stroke: #6c757d; stroke-width: 0.8"/>
      </g>
     </g>
     <g id="text_10">
      <!-- 0.0 -->
      <g style="fill: #6c757d" transform="translate(46.209063 302.622969) scale(0.1 -0.1)">
       <defs>
        <path id="Helvetica-2e" d="M 547 681 
L 1200 681 
L 1200 0 
L 547 0 
L 547 681 
z
" transform="scale(0.015625)"/>
       </defs>
       <use xlink:href="#Helvetica-30"/>
       <use xlink:href="#Helvetica-2e" transform="translate(55.615234 0)"/>
       <use xlink:href="#Helvetica-30" transform="translate(83.398438 0)"/>
      </g>
     </g>
    </g>
    <g id="ytick_2">
     <g id="line2d_22">
      <path d="M 67.109063 243.59625 
L 569.309063 243.59625 
" clip-path="url(#p9994915a33)" style="fill: none; stroke: #e9ecef; stroke-width: 0.7; stroke-linecap: square"/>
     </g>
     <g id="line2d_23">
      <g>
       <use xlink:href="#m2ff28fac78" x="67.109063" y="243.59625" style="fill: #6c757d; stroke: #6c757d; stroke-width: 0.8"/>
      </g>
     </g>
     <g id="text_11">
      <!-- 0.2 -->
      <g style="fill: #6c757d" transform="translate(46.209063 247.182969) scale(0.1 -0.1)">
       <use xlink:href="#Helvetica-30"/>
       <use xlink:href="#Helvetica-2e" transform="translate(55.615234 0)"/>
       <use xlink:href="#Helvetica-32" transform="translate(83.398438 0)"/>
      </g>
     </g>
    </g>
    <g id="ytick_3">
     <g id="line2d_24">
      <path d="M 67.109063 188.15625 
L 569.309063 188.15625 
" clip-path="url(#p9994915a33)" style="fill: none; stroke: #e9ecef; stroke-width: 0.7; stroke-linecap: square"/>
     </g>
     <g id="line2d_25">
      <g>
       <use xlink:href="#m2ff28fac78" x="67.109063" y="188.15625" style="fill: #6c757d; stroke: #6c757d; stroke-width: 0.8"/>
      </g>
     </g>
     <g id="text_12">
      <!-- 0.4 -->
      <g style="fill: #6c757d" transform="translate(46.209063 191.742969) scale(0.1 -0.1)">
       <defs>
        <path id="Helvetica-34" d="M 2116 1584 
L 2116 3613 
L 681 1584 
L 2116 1584 
z
M 2125 0 
L 2125 1094 
L 163 1094 
L 163 1644 
L 2213 4488 
L 2688 4488 
L 2688 1584 
L 3347 1584 
L 3347 1094 
L 2688 1094 
L 2688 0 
L 2125 0 
z
" transform="scale(0.015625)"/>
       </defs>
       <use xlink:href="#Helvetica-30"/>
       <use xlink:href="#Helvetica-2e" transform="translate(55.615234 0)"/>
       <use xlink:href="#Helvetica-34" transform="translate(83.398438 0)"/>
      </g>
     </g>
    </g>
    <g id="ytick_4">
     <g id="line2d_26">
      <path d="M 67.109063 132.71625 
L 569.309063 132.71625 
" clip-path="url(#p9994915a33)" style="fill: none; stroke: #e9ecef; stroke-width: 0.7; stroke-linecap: square"/>
     </g>
     <g id="line2d_27">
      <g>
       <use xlink:href="#m2ff28fac78" x="67.109063" y="132.71625" style="fill: #6c757d; stroke: #6c757d; stroke-width: 0.8"/>
      </g>
     </g>
     <g id="text_13">
      <!-- 0.6 -->
      <g style="fill: #6c757d" transform="translate(46.209063 136.302969) scale(0.1 -0.1)">
       <defs>
        <path id="Helvetica-36" d="M 1872 4494 
Q 2622 4494 2917 4105 
Q 3213 3716 3213 3303 
L 2656 3303 
Q 2606 3569 2497 3719 
Q 2294 4000 1881 4000 
Q 1409 4000 1131 3564 
Q 853 3128 822 2316 
Q 1016 2600 1309 2741 
Q 1578 2866 1909 2866 
Q 2472 2866 2890 2506 
Q 3309 2147 3309 1434 
Q 3309 825 2912 354 
Q 2516 -116 1781 -116 
Q 1153 -116 697 361 
Q 241 838 241 1966 
Q 241 2800 444 3381 
Q 834 4494 1872 4494 
z
M 1831 384 
Q 2275 384 2495 682 
Q 2716 981 2716 1388 
Q 2716 1731 2519 2042 
Q 2322 2353 1803 2353 
Q 1441 2353 1167 2112 
Q 894 1872 894 1388 
Q 894 963 1142 673 
Q 1391 384 1831 384 
z
" transform="scale(0.015625)"/>
       </defs>
       <use xlink:href="#Helvetica-30"/>
       <use xlink:href="#Helvetica-2e" transform="translate(55.615234 0)"/>
       <use xlink:href="#Helvetica-36" transform="translate(83.398438 0)"/>
      </g>
     </g>
    </g>
    <g id="ytick_5">
     <g id="line2d_28">
      <path d="M 67.109063 77.27625 
L 569.309063 77.27625 
" clip-path="url(#p9994915a33)" style="fill: none; stroke: #e9ecef; stroke-width: 0.7; stroke-linecap: square"/>
     </g>
     <g id="line2d_29">
      <g>
       <use xlink:href="#m2ff28fac78" x="67.109063" y="77.27625" style="fill: #6c757d; stroke: #6c757d; stroke-width: 0.8"/>
      </g>
     </g>
     <g id="text_14">
      <!-- 0.8 -->
      <g style="fill: #6c757d" transform="translate(46.209063 80.862969) scale(0.1 -0.1)">
       <defs>
        <path id="Helvetica-38" d="M 1741 2600 
Q 2113 2600 2322 2808 
Q 2531 3016 2531 3303 
Q 2531 3553 2331 3762 
Q 2131 3972 1722 3972 
Q 1316 3972 1134 3762 
Q 953 3553 953 3272 
Q 953 2956 1187 2778 
Q 1422 2600 1741 2600 
z
M 1775 384 
Q 2166 384 2423 595 
Q 2681 806 2681 1225 
Q 2681 1659 2415 1884 
Q 2150 2109 1734 2109 
Q 1331 2109 1076 1879 
Q 822 1650 822 1244 
Q 822 894 1055 639 
Q 1288 384 1775 384 
z
M 975 2384 
Q 741 2484 609 2619 
Q 363 2869 363 3269 
Q 363 3769 725 4128 
Q 1088 4488 1753 4488 
Q 2397 4488 2762 4148 
Q 3128 3809 3128 3356 
Q 3128 2938 2916 2678 
Q 2797 2531 2547 2391 
Q 2825 2263 2984 2097 
Q 3281 1784 3281 1284 
Q 3281 694 2884 283 
Q 2488 -128 1763 -128 
Q 1109 -128 657 226 
Q 206 581 206 1256 
Q 206 1653 400 1942 
Q 594 2231 975 2384 
z
" transform="scale(0.015625)"/>
       </defs>
       <use xlink:href="#Helvetica-30"/>
       <use xlink:href="#Helvetica-2e" transform="translate(55.615234 0)"/>
       <use xlink:href="#Helvetica-38" transform="translate(83.398438 0)"/>
      </g>
     </g>
    </g>
    <g id="ytick_6">
     <g id="line2d_30">
      <path d="M 67.109063 21.83625 
L 569.309063 21.83625 
" clip-path="url(#p9994915a33)" style="fill: none; stroke: #e9ecef; stroke-width: 0.7; stroke-linecap: square"/>
     </g>
     <g id="line2d_31">
      <g>
       <use xlink:href="#m2ff28fac78" x="67.109063" y="21.83625" style="fill: #6c757d; stroke: #6c757d; stroke-width: 0.8"/>
      </g>
     </g>
     <g id="text_15">
      <!-- 1.0 -->
      <g style="fill: #6c757d" transform="translate(46.209063 25.422969) scale(0.1 -0.1)">
       <use xlink:href="#Helvetica-31"/>
       <use xlink:href="#Helvetica-2e" transform="translate(55.615234 0)"/>
       <use xlink:href="#Helvetica-30" transform="translate(83.398438 0)"/>
      </g>
     </g>
    </g>
    <g id="text_16">
     <!-- Value of deployed (global) policy -->
     <g style="fill: #212529" transform="translate(39.996563 232.699531) rotate(-90) scale(0.1 -0.1)">
      <defs>
       <path id="Helvetica-56" d="M 850 4591 
L 2169 681 
L 3472 4591 
L 4169 4591 
L 2494 0 
L 1834 0 
L 163 4591 
L 850 4591 
z
" transform="scale(0.015625)"/>
       <path id="Helvetica-66" d="M 553 3856 
Q 566 4206 675 4369 
Q 872 4656 1434 4656 
Q 1488 4656 1544 4653 
Q 1600 4650 1672 4644 
L 1672 4131 
Q 1584 4138 1545 4139 
Q 1506 4141 1472 4141 
Q 1216 4141 1166 4008 
Q 1116 3875 1116 3331 
L 1672 3331 
L 1672 2888 
L 1109 2888 
L 1109 0 
L 553 0 
L 553 2888 
L 88 2888 
L 88 3331 
L 553 3331 
L 553 3856 
z
" transform="scale(0.015625)"/>
       <path id="Helvetica-64" d="M 769 1634 
Q 769 1097 997 734 
Q 1225 372 1728 372 
Q 2119 372 2370 708 
Q 2622 1044 2622 1672 
Q 2622 2306 2362 2611 
Q 2103 2916 1722 2916 
Q 1297 2916 1033 2591 
Q 769 2266 769 1634 
z
M 1616 3406 
Q 2000 3406 2259 3244 
Q 2409 3150 2600 2916 
L 2600 4606 
L 3141 4606 
L 3141 0 
L 2634 0 
L 2634 466 
Q 2438 156 2169 18 
Q 1900 -119 1553 -119 
Q 994 -119 584 351 
Q 175 822 175 1603 
Q 175 2334 548 2870 
Q 922 3406 1616 3406 
z
" transform="scale(0.015625)"/>
       <path id="Helvetica-79" d="M 2503 3347 
L 3125 3347 
Q 3006 3025 2597 1878 
Q 2291 1016 2084 472 
Q 1597 -809 1397 -1090 
Q 1197 -1372 709 -1372 
Q 591 -1372 527 -1362 
Q 463 -1353 369 -1328 
L 369 -816 
Q 516 -856 581 -865 
Q 647 -875 697 -875 
Q 853 -875 926 -823 
Q 1000 -772 1050 -697 
Q 1066 -672 1162 -440 
Q 1259 -209 1303 -97 
L 66 3347 
L 703 3347 
L 1600 622 
L 2503 3347 
z
M 1597 3428 
L 1597 3428 
z
" transform="scale(0.015625)"/>
       <path id="Helvetica-28" d="M 1894 4666 
Q 1403 3713 1256 3263 
Q 1034 2578 1034 1681 
Q 1034 775 1288 25 
Q 1444 -438 1903 -1306 
L 1525 -1306 
Q 1069 -594 959 -397 
Q 850 -200 722 138 
Q 547 600 478 1125 
Q 444 1397 444 1644 
Q 444 2569 734 3291 
Q 919 3750 1503 4666 
L 1894 4666 
z
" transform="scale(0.015625)"/>
       <path id="Helvetica-67" d="M 1594 3406 
Q 1988 3406 2281 3213 
Q 2441 3103 2606 2894 
L 2606 3316 
L 3125 3316 
L 3125 272 
Q 3125 -366 2938 -734 
Q 2588 -1416 1616 -1416 
Q 1075 -1416 706 -1173 
Q 338 -931 294 -416 
L 866 -416 
Q 906 -641 1028 -763 
Q 1219 -950 1628 -950 
Q 2275 -950 2475 -494 
Q 2594 -225 2584 466 
Q 2416 209 2178 84 
Q 1941 -41 1550 -41 
Q 1006 -41 598 345 
Q 191 731 191 1622 
Q 191 2463 602 2934 
Q 1013 3406 1594 3406 
z
M 2606 1688 
Q 2606 2309 2350 2609 
Q 2094 2909 1697 2909 
Q 1103 2909 884 2353 
Q 769 2056 769 1575 
Q 769 1009 998 714 
Q 1228 419 1616 419 
Q 2222 419 2469 966 
Q 2606 1275 2606 1688 
z
M 1659 3428 
L 1659 3428 
z
" transform="scale(0.015625)"/>
       <path id="Helvetica-62" d="M 369 4606 
L 916 4606 
L 916 2941 
Q 1100 3181 1356 3307 
Q 1613 3434 1913 3434 
Q 2538 3434 2927 3004 
Q 3316 2575 3316 1738 
Q 3316 944 2931 419 
Q 2547 -106 1866 -106 
Q 1484 -106 1222 78 
Q 1066 188 888 428 
L 888 0 
L 369 0 
L 369 4606 
z
M 1831 391 
Q 2288 391 2514 753 
Q 2741 1116 2741 1709 
Q 2741 2238 2514 2584 
Q 2288 2931 1847 2931 
Q 1463 2931 1173 2647 
Q 884 2363 884 1709 
Q 884 1238 1003 944 
Q 1225 391 1831 391 
z
" transform="scale(0.015625)"/>
       <path id="Helvetica-29" d="M 222 -1306 
Q 719 -338 863 106 
Q 1081 778 1081 1681 
Q 1081 2584 828 3334 
Q 672 3797 213 4666 
L 591 4666 
Q 1072 3897 1173 3717 
Q 1275 3538 1394 3222 
Q 1544 2831 1608 2450 
Q 1672 2069 1672 1716 
Q 1672 791 1378 66 
Q 1194 -400 613 -1306 
L 222 -1306 
z
" transform="scale(0.015625)"/>
      </defs>
      <use xlink:href="#Helvetica-56"/>
      <use xlink:href="#Helvetica-61" transform="translate(66.699219 0)"/>
      <use xlink:href="#Helvetica-6c" transform="translate(122.314453 0)"/>
      <use xlink:href="#Helvetica-75" transform="translate(144.53125 0)"/>
      <use xlink:href="#Helvetica-65" transform="translate(200.146484 0)"/>
      <use xlink:href="#Helvetica-20" transform="translate(255.761719 0)"/>
      <use xlink:href="#Helvetica-6f" transform="translate(283.544922 0)"/>
      <use xlink:href="#Helvetica-66" transform="translate(339.160156 0)"/>
      <use xlink:href="#Helvetica-20" transform="translate(366.943359 0)"/>
      <use xlink:href="#Helvetica-64" transform="translate(394.726562 0)"/>
      <use xlink:href="#Helvetica-65" transform="translate(450.341797 0)"/>
      <use xlink:href="#Helvetica-70" transform="translate(505.957031 0)"/>
      <use xlink:href="#Helvetica-6c" transform="translate(561.572266 0)"/>
      <use xlink:href="#Helvetica-6f" transform="translate(583.789062 0)"/>
      <use xlink:href="#Helvetica-79" transform="translate(639.404297 0)"/>
      <use xlink:href="#Helvetica-65" transform="translate(689.404297 0)"/>
      <use xlink:href="#Helvetica-64" transform="translate(745.019531 0)"/>
      <use xlink:href="#Helvetica-20" transform="translate(800.634766 0)"/>
      <use xlink:href="#Helvetica-28" transform="translate(828.417969 0)"/>
      <use xlink:href="#Helvetica-67" transform="translate(861.71875 0)"/>
      <use xlink:href="#Helvetica-6c" transform="translate(917.333984 0)"/>
      <use xlink:href="#Helvetica-6f" transform="translate(939.550781 0)"/>
      <use xlink:href="#Helvetica-62" transform="translate(995.166016 0)"/>
      <use xlink:href="#Helvetica-61" transform="translate(1050.78125 0)"/>
      <use xlink:href="#Helvetica-6c" transform="translate(1106.396484 0)"/>
      <use xlink:href="#Helvetica-29" transform="translate(1128.613281 0)"/>
      <use xlink:href="#Helvetica-20" transform="translate(1161.914062 0)"/>
      <use xlink:href="#Helvetica-70" transform="translate(1189.697266 0)"/>
      <use xlink:href="#Helvetica-6f" transform="translate(1245.3125 0)"/>
      <use xlink:href="#Helvetica-6c" transform="translate(1300.927734 0)"/>
      <use xlink:href="#Helvetica-69" transform="translate(1323.144531 0)"/>
      <use xlink:href="#Helvetica-63" transform="translate(1345.361328 0)"/>
      <use xlink:href="#Helvetica-79" transform="translate(1395.361328 0)"/>
     </g>
    </g>
   </g>
   <g id="line2d_32">
    <path d="M 70.328293 67.709872 
L 221.632139 67.665889 
L 569.309063 67.645583 
L 569.309063 67.645583 
" clip-path="url(#p9994915a33)" style="fill: none; stroke: #2563eb; stroke-width: 2.2; stroke-linecap: round"/>
   </g>
   <g id="line2d_33">
    <path d="M 70.328293 242.343351 
L 76.766755 242.425087 
L 144.370601 242.422419 
L 147.589832 97.212696 
L 150.809063 91.155201 
L 170.124447 91.145089 
L 221.632139 91.14732 
L 224.85137 67.760183 
L 456.635986 67.716316 
L 569.309063 67.716316 
L 569.309063 67.716316 
" clip-path="url(#p9994915a33)" style="fill: none; stroke: #d97706; stroke-width: 2.2; stroke-linecap: round"/>
   </g>
   <g id="line2d_34">
    <path d="M 70.328293 243.459646 
L 73.547524 243.332655 
L 102.520601 243.331308 
L 147.589832 243.476705 
L 150.809063 243.22352 
L 157.247524 243.210232 
L 166.905216 243.284434 
L 286.016755 243.268556 
L 376.155216 243.257717 
L 379.374447 68.380467 
L 382.593678 68.036867 
L 395.470601 67.957791 
L 424.443678 67.918236 
L 453.416755 67.918236 
L 456.635986 76.033216 
L 459.855216 68.901798 
L 463.074447 68.035049 
L 469.512909 67.942425 
L 569.309063 67.936625 
L 569.309063 67.936625 
" clip-path="url(#p9994915a33)" style="fill: none; stroke: #059669; stroke-width: 2.2; stroke-linecap: round"/>
   </g>
   <g id="patch_3">
    <path d="M 67.109063 299.03625 
L 67.109063 21.83625 
" style="fill: none; stroke: #495057; stroke-width: 0.8; stroke-linejoin: miter; stroke-linecap: square"/>
   </g>
   <g id="patch_4">
    <path d="M 67.109063 299.03625 
L 569.309063 299.03625 
" style="fill: none; stroke: #495057; stroke-width: 0.8; stroke-linejoin: miter; stroke-linecap: square"/>
   </g>
   <g id="text_17">
    <!--  T1 starts -->
    <g style="fill: #6c757d" transform="translate(70.328293 38.663) scale(0.08 -0.08)">
     <defs>
      <path id="Helvetica-54" d="M 3828 4591 
L 3828 4044 
L 2281 4044 
L 2281 0 
L 1650 0 
L 1650 4044 
L 103 4044 
L 103 4591 
L 3828 4591 
z
" transform="scale(0.015625)"/>
     </defs>
     <use xlink:href="#Helvetica-20"/>
     <use xlink:href="#Helvetica-54" transform="translate(27.783203 0)"/>
     <use xlink:href="#Helvetica-31" transform="translate(88.867188 0)"/>
     <use xlink:href="#Helvetica-20" transform="translate(144.482422 0)"/>
     <use xlink:href="#Helvetica-73" transform="translate(172.265625 0)"/>
     <use xlink:href="#Helvetica-74" transform="translate(222.265625 0)"/>
     <use xlink:href="#Helvetica-61" transform="translate(250.048828 0)"/>
     <use xlink:href="#Helvetica-72" transform="translate(305.664062 0)"/>
     <use xlink:href="#Helvetica-74" transform="translate(338.964844 0)"/>
     <use xlink:href="#Helvetica-73" transform="translate(366.748047 0)"/>
    </g>
   </g>
   <g id="text_18">
    <!--  T2 starts -->
    <g style="fill: #6c757d" transform="translate(108.959063 38.663) scale(0.08 -0.08)">
     <use xlink:href="#Helvetica-20"/>
     <use xlink:href="#Helvetica-54" transform="translate(27.783203 0)"/>
     <use xlink:href="#Helvetica-32" transform="translate(88.867188 0)"/>
     <use xlink:href="#Helvetica-20" transform="translate(144.482422 0)"/>
     <use xlink:href="#Helvetica-73" transform="translate(172.265625 0)"/>
     <use xlink:href="#Helvetica-74" transform="translate(222.265625 0)"/>
     <use xlink:href="#Helvetica-61" transform="translate(250.048828 0)"/>
     <use xlink:href="#Helvetica-72" transform="translate(305.664062 0)"/>
     <use xlink:href="#Helvetica-74" transform="translate(338.964844 0)"/>
     <use xlink:href="#Helvetica-73" transform="translate(366.748047 0)"/>
    </g>
   </g>
   <g id="text_19">
    <!--  T3 starts -->
    <g style="fill: #6c757d" transform="translate(340.743678 38.663) scale(0.08 -0.08)">
     <use xlink:href="#Helvetica-20"/>
     <use xlink:href="#Helvetica-54" transform="translate(27.783203 0)"/>
     <use xlink:href="#Helvetica-33" transform="translate(88.867188 0)"/>
     <use xlink:href="#Helvetica-20" transform="translate(144.482422 0)"/>
     <use xlink:href="#Helvetica-73" transform="translate(172.265625 0)"/>
     <use xlink:href="#Helvetica-74" transform="translate(222.265625 0)"/>
     <use xlink:href="#Helvetica-61" transform="translate(250.048828 0)"/>
     <use xlink:href="#Helvetica-72" transform="translate(305.664062 0)"/>
     <use xlink:href="#Helvetica-74" transform="translate(338.964844 0)"/>
     <use xlink:href="#Helvetica-73" transform="translate(366.748047 0)"/>
    </g>
   </g>
   <g id="text_20">
    <!-- Per-task learning and retention -->
    <g style="fill: #212529" transform="translate(236.166563 15.83625) scale(0.12 -0.12)">
     <defs>
      <path id="Helvetica-50" d="M 547 4591 
L 2613 4591 
Q 3225 4591 3600 4245 
Q 3975 3900 3975 3275 
Q 3975 2738 3640 2339 
Q 3306 1941 2613 1941 
L 1169 1941 
L 1169 0 
L 547 0 
L 547 4591 
z
M 3347 3272 
Q 3347 3778 2972 3959 
Q 2766 4056 2406 4056 
L 1169 4056 
L 1169 2466 
L 2406 2466 
Q 2825 2466 3086 2644 
Q 3347 2822 3347 3272 
z
" transform="scale(0.015625)"/>
      <path id="Helvetica-2d" d="M 266 2072 
L 1834 2072 
L 1834 1494 
L 266 1494 
L 266 2072 
z
" transform="scale(0.015625)"/>
      <path id="Helvetica-6b" d="M 400 4591 
L 941 4591 
L 941 1925 
L 2384 3347 
L 3103 3347 
L 1822 2094 
L 3175 0 
L 2456 0 
L 1413 1688 
L 941 1256 
L 941 0 
L 400 0 
L 400 4591 
z
" transform="scale(0.015625)"/>
      <path id="Helvetica-6e" d="M 413 3347 
L 947 3347 
L 947 2872 
Q 1184 3166 1450 3294 
Q 1716 3422 2041 3422 
Q 2753 3422 3003 2925 
Q 3141 2653 3141 2147 
L 3141 0 
L 2569 0 
L 2569 2109 
Q 2569 2416 2478 2603 
Q 2328 2916 1934 2916 
Q 1734 2916 1606 2875 
Q 1375 2806 1200 2600 
Q 1059 2434 1017 2257 
Q 975 2081 975 1753 
L 975 0 
L 413 0 
L 413 3347 
z
M 1734 3428 
L 1734 3428 
z
" transform="scale(0.015625)"/>
     </defs>
     <use xlink:href="#Helvetica-50"/>
     <use xlink:href="#Helvetica-65" transform="translate(66.699219 0)"/>
     <use xlink:href="#Helvetica-72" transform="translate(122.314453 0)"/>
     <use xlink:href="#Helvetica-2d" transform="translate(155.615234 0)"/>
     <use xlink:href="#Helvetica-74" transform="translate(188.916016 0)"/>
     <use xlink:href="#Helvetica-61" transform="translate(216.699219 0)"/>
     <use xlink:href="#Helvetica-73" transform="translate(272.314453 0)"/>
     <use xlink:href="#Helvetica-6b" transform="translate(322.314453 0)"/>
     <use xlink:href="#Helvetica-20" transform="translate(372.314453 0)"/>
     <use xlink:href="#Helvetica-6c" transform="translate(400.097656 0)"/>
     <use xlink:href="#Helvetica-65" transform="translate(422.314453 0)"/>
     <use xlink:href="#Helvetica-61" transform="translate(477.929688 0)"/>
     <use xlink:href="#Helvetica-72" transform="translate(533.544922 0)"/>
     <use xlink:href="#Helvetica-6e" transform="translate(566.845703 0)"/>
     <use xlink:href="#Helvetica-69" transform="translate(622.460938 0)"/>
     <use xlink:href="#Helvetica-6e" transform="translate(644.677734 0)"/>
     <use xlink:href="#Helvetica-67" transform="translate(700.292969 0)"/>
     <use xlink:href="#Helvetica-20" transform="translate(755.908203 0)"/>
     <use xlink:href="#Helvetica-61" transform="translate(783.691406 0)"/>
     <use xlink:href="#Helvetica-6e" transform="translate(839.306641 0)"/>
     <use xlink:href="#Helvetica-64" transform="translate(894.921875 0)"/>
     <use xlink:href="#Helvetica-20" transform="translate(950.537109 0)"/>
     <use xlink:href="#Helvetica-72" transform="translate(978.320312 0)"/>
     <use xlink:href="#Helvetica-65" transform="translate(1011.621094 0)"/>
     <use xlink:href="#Helvetica-74" transform="translate(1067.236328 0)"/>
     <use xlink:href="#Helvetica-65" transform="translate(1095.019531 0)"/>
     <use xlink:href="#Helvetica-6e" transform="translate(1150.634766 0)"/>
     <use xlink:href="#Helvetica-74" transform="translate(1206.25 0)"/>
     <use xlink:href="#Helvetica-69" transform="translate(1234.033203 0)"/>
     <use xlink:href="#Helvetica-6f" transform="translate(1256.25 0)"/>
     <use xlink:href="#Helvetica-6e" transform="translate(1311.865234 0)"/>
    </g>
   </g>
   <g id="legend_1">
    <g id="text_21">
     <!-- Evaluated on -->
     <g style="fill: #212529" transform="translate(501.934063 141.594063) scale(0.1 -0.1)">
      <defs>
       <path id="Helvetica-45" d="M 547 4591 
L 3894 4591 
L 3894 4028 
L 1153 4028 
L 1153 2634 
L 3688 2634 
L 3688 2103 
L 1153 2103 
L 1153 547 
L 3941 547 
L 3941 0 
L 547 0 
L 547 4591 
z
M 2244 4591 
L 2244 4591 
z
" transform="scale(0.015625)"/>
      </defs>
      <use xlink:href="#Helvetica-45"/>
      <use xlink:href="#Helvetica-76" transform="translate(66.699219 0)"/>
      <use xlink:href="#Helvetica-61" transform="translate(116.699219 0)"/>
      <use xlink:href="#Helvetica-6c" transform="translate(172.314453 0)"/>
      <use xlink:href="#Helvetica-75" transform="translate(194.53125 0)"/>
      <use xlink:href="#Helvetica-61" transform="translate(250.146484 0)"/>
      <use xlink:href="#Helvetica-74" transform="translate(305.761719 0)"/>
      <use xlink:href="#Helvetica-65" transform="translate(333.544922 0)"/>
      <use xlink:href="#Helvetica-64" transform="translate(389.160156 0)"/>
      <use xlink:href="#Helvetica-20" transform="translate(444.775391 0)"/>
      <use xlink:href="#Helvetica-6f" transform="translate(472.558594 0)"/>
      <use xlink:href="#Helvetica-6e" transform="translate(528.173828 0)"/>
     </g>
    </g>
    <g id="line2d_35">
     <path d="M 502.117656 152.351875 
L 512.117656 152.351875 
L 522.117656 152.351875 
" style="fill: none; stroke: #2563eb; stroke-width: 2.2; stroke-linecap: round"/>
    </g>
    <g id="text_22">
     <!-- Task 1 -->
     <g style="fill: #212529" transform="translate(530.117656 155.851875) scale(0.1 -0.1)">
      <use xlink:href="#Helvetica-54"/>
      <use xlink:href="#Helvetica-61" transform="translate(61.083984 0)"/>
      <use xlink:href="#Helvetica-73" transform="translate(116.699219 0)"/>
      <use xlink:href="#Helvetica-6b" transform="translate(166.699219 0)"/>
      <use xlink:href="#Helvetica-20" transform="translate(216.699219 0)"/>
      <use xlink:href="#Helvetica-31" transform="translate(244.482422 0)"/>
     </g>
    </g>
    <g id="line2d_36">
     <path d="M 502.117656 166.609688 
L 512.117656 166.609688 
L 522.117656 166.609688 
" style="fill: none; stroke: #d97706; stroke-width: 2.2; stroke-linecap: round"/>
    </g>
    <g id="text_23">
     <!-- Task 2 -->
     <g style="fill: #212529" transform="translate(530.117656 170.109688) scale(0.1 -0.1)">
      <use xlink:href="#Helvetica-54"/>
      <use xlink:href="#Helvetica-61" transform="translate(61.083984 0)"/>
      <use xlink:href="#Helvetica-73" transform="translate(116.699219 0)"/>
      <use xlink:href="#Helvetica-6b" transform="translate(166.699219 0)"/>
      <use xlink:href="#Helvetica-20" transform="translate(216.699219 0)"/>
      <use xlink:href="#Helvetica-32" transform="translate(244.482422 0)"/>
     </g>
    </g>
    <g id="line2d_37">
     <path d="M 502.117656 180.8675 
L 512.117656 180.8675 
L 522.117656 180.8675 
" style="fill: none; stroke: #059669; stroke-width: 2.2; stroke-linecap: round"/>
    </g>
    <g id="text_24">
     <!-- Task 3 -->
     <g style="fill: #212529" transform="translate(530.117656 184.3675) scale(0.1 -0.1)">
      <use xlink:href="#Helvetica-54"/>
      <use xlink:href="#Helvetica-61" transform="translate(61.083984 0)"/>
      <use xlink:href="#Helvetica-73" transform="translate(116.699219 0)"/>
      <use xlink:href="#Helvetica-6b" transform="translate(166.699219 0)"/>
      <use xlink:href="#Helvetica-20" transform="translate(216.699219 0)"/>
      <use xlink:href="#Helvetica-33" transform="translate(244.482422 0)"/>
     </g>
    </g>
   </g>
  </g>
  <g id="text_25">
   <!-- The deployed global policy changes only during task-1 and global phases (flat during local phases). A retained task holds its value after its training ends. -->
   <g style="fill: #6c757d" transform="translate(7.2 345.83625) scale(0.09 -0.09)">
    <defs>
     <path id="Helvetica-41" d="M 2844 1881 
L 2147 3909 
L 1406 1881 
L 2844 1881 
z
M 1822 4591 
L 2525 4591 
L 4191 0 
L 3509 0 
L 3044 1375 
L 1228 1375 
L 731 0 
L 94 0 
L 1822 4591 
z
" transform="scale(0.015625)"/>
    </defs>
    <use xlink:href="#Helvetica-54"/>
    <use xlink:href="#Helvetica-68" transform="translate(61.083984 0)"/>
    <use xlink:href="#Helvetica-65" transform="translate(116.699219 0)"/>
    <use xlink:href="#Helvetica-20" transform="translate(172.314453 0)"/>
    <use xlink:href="#Helvetica-64" transform="translate(200.097656 0)"/>
    <use xlink:href="#Helvetica-65" transform="translate(255.712891 0)"/>
    <use xlink:href="#Helvetica-70" transform="translate(311.328125 0)"/>
    <use xlink:href="#Helvetica-6c" transform="translate(366.943359 0)"/>
    <use xlink:href="#Helvetica-6f" transform="translate(389.160156 0)"/>
    <use xlink:href="#Helvetica-79" transform="translate(444.775391 0)"/>
    <use xlink:href="#Helvetica-65" transform="translate(494.775391 0)"/>
    <use xlink:href="#Helvetica-64" transform="translate(550.390625 0)"/>
    <use xlink:href="#Helvetica-20" transform="translate(606.005859 0)"/>
    <use xlink:href="#Helvetica-67" transform="translate(633.789062 0)"/>
    <use xlink:href="#Helvetica-6c" transform="translate(689.404297 0)"/>
    <use xlink:href="#Helvetica-6f" transform="translate(711.621094 0)"/>
    <use xlink:href="#Helvetica-62" transform="translate(767.236328 0)"/>
    <use xlink:href="#Helvetica-61" transform="translate(822.851562 0)"/>
    <use xlink:href="#Helvetica-6c" transform="translate(878.466797 0)"/>
    <use xlink:href="#Helvetica-20" transform="translate(900.683594 0)"/>
    <use xlink:href="#Helvetica-70" transform="translate(928.466797 0)"/>
    <use xlink:href="#Helvetica-6f" transform="translate(984.082031 0)"/>
    <use xlink:href="#Helvetica-6c" transform="translate(1039.697266 0)"/>
    <use xlink:href="#Helvetica-69" transform="translate(1061.914062 0)"/>
    <use xlink:href="#Helvetica-63" transform="translate(1084.130859 0)"/>
    <use xlink:href="#Helvetica-79" transform="translate(1134.130859 0)"/>
    <use xlink:href="#Helvetica-20" transform="translate(1184.130859 0)"/>
    <use xlink:href="#Helvetica-63" transform="translate(1211.914062 0)"/>
    <use xlink:href="#Helvetica-68" transform="translate(1261.914062 0)"/>
    <use xlink:href="#Helvetica-61" transform="translate(1317.529297 0)"/>
    <use xlink:href="#Helvetica-6e" transform="translate(1373.144531 0)"/>
    <use xlink:href="#Helvetica-67" transform="translate(1428.759766 0)"/>
    <use xlink:href="#Helvetica-65" transform="translate(1484.375 0)"/>
    <use xlink:href="#Helvetica-73" transform="translate(1539.990234 0)"/>
    <use xlink:href="#Helvetica-20" transform="translate(1589.990234 0)"/>
    <use xlink:href="#Helvetica-6f" transform="translate(1617.773438 0)"/>
    <use xlink:href="#Helvetica-6e" transform="translate(1673.388672 0)"/>
    <use xlink:href="#Helvetica-6c" transform="translate(1729.003906 0)"/>
    <use xlink:href="#Helvetica-79" transform="translate(1751.220703 0)"/>
    <use xlink:href="#Helvetica-20" transform="translate(1801.220703 0)"/>
    <use xlink:href="#Helvetica-64" transform="translate(1829.003906 0)"/>
    <use xlink:href="#Helvetica-75" transform="translate(1884.619141 0)"/>
    <use xlink:href="#Helvetica-72" transform="translate(1940.234375 0)"/>
    <use xlink:href="#Helvetica-69" transform="translate(1973.535156 0)"/>
    <use xlink:href="#Helvetica-6e" transform="translate(1995.751953 0)"/>
    <use xlink:href="#Helvetica-67" transform="translate(2051.367188 0)"/>
    <use xlink:href="#Helvetica-20" transform="translate(2106.982422 0)"/>
    <use xlink:href="#Helvetica-74" transform="translate(2134.765625 0)"/>
    <use xlink:href="#Helvetica-61" transform="translate(2162.548828 0)"/>
    <use xlink:href="#Helvetica-73" transform="translate(2218.164062 0)"/>
    <use xlink:href="#Helvetica-6b" transform="translate(2268.164062 0)"/>
    <use xlink:href="#Helvetica-2d" transform="translate(2318.164062 0)"/>
    <use xlink:href="#Helvetica-31" transform="translate(2351.464844 0)"/>
    <use xlink:href="#Helvetica-20" transform="translate(2407.080078 0)"/>
    <use xlink:href="#Helvetica-61" transform="translate(2434.863281 0)"/>
    <use xlink:href="#Helvetica-6e" transform="translate(2490.478516 0)"/>
    <use xlink:href="#Helvetica-64" transform="translate(2546.09375 0)"/>
    <use xlink:href="#Helvetica-20" transform="translate(2601.708984 0)"/>
    <use xlink:href="#Helvetica-67" transform="translate(2629.492188 0)"/>
    <use xlink:href="#Helvetica-6c" transform="translate(2685.107422 0)"/>
    <use xlink:href="#Helvetica-6f" transform="translate(2707.324219 0)"/>
    <use xlink:href="#Helvetica-62" transform="translate(2762.939453 0)"/>
    <use xlink:href="#Helvetica-61" transform="translate(2818.554688 0)"/>
    <use xlink:href="#Helvetica-6c" transform="translate(2874.169922 0)"/>
    <use xlink:href="#Helvetica-20" transform="translate(2896.386719 0)"/>
    <use xlink:href="#Helvetica-70" transform="translate(2924.169922 0)"/>
    <use xlink:href="#Helvetica-68" transform="translate(2979.785156 0)"/>
    <use xlink:href="#Helvetica-61" transform="translate(3035.400391 0)"/>
    <use xlink:href="#Helvetica-73" transform="translate(3091.015625 0)"/>
    <use xlink:href="#Helvetica-65" transform="translate(3141.015625 0)"/>
    <use xlink:href="#Helvetica-73" transform="translate(3196.630859 0)"/>
    <use xlink:href="#Helvetica-20" transform="translate(3246.630859 0)"/>
    <use xlink:href="#Helvetica-28" transform="translate(3274.414062 0)"/>
    <use xlink:href="#Helvetica-66" transform="translate(3307.714844 0)"/>
    <use xlink:href="#Helvetica-6c" transform="translate(3335.498047 0)"/>
    <use xlink:href="#Helvetica-61" transform="translate(3357.714844 0)"/>
    <use xlink:href="#Helvetica-74" transform="translate(3413.330078 0)"/>
    <use xlink:href="#Helvetica-20" transform="translate(3441.113281 0)"/>
    <use xlink:href="#Helvetica-64" transform="translate(3468.896484 0)"/>
    <use xlink:href="#Helvetica-75" transform="translate(3524.511719 0)"/>
    <use xlink:href="#Helvetica-72" transform="translate(3580.126953 0)"/>
    <use xlink:href="#Helvetica-69" transform="translate(3613.427734 0)"/>
    <use xlink:href="#Helvetica-6e" transform="translate(3635.644531 0)"/>
    <use xlink:href="#Helvetica-67" transform="translate(3691.259766 0)"/>
    <use xlink:href="#Helvetica-20" transform="translate(3746.875 0)"/>
    <use xlink:href="#Helvetica-6c" transform="translate(3774.658203 0)"/>
    <use xlink:href="#Helvetica-6f" transform="translate(3796.875 0)"/>
    <use xlink:href="#Helvetica-63" transform="translate(3852.490234 0)"/>
    <use xlink:href="#Helvetica-61" transform="translate(3902.490234 0)"/>
    <use xlink:href="#Helvetica-6c" transform="translate(3958.105469 0)"/>
    <use xlink:href="#Helvetica-20" transform="translate(3980.322266 0)"/>
    <use xlink:href="#Helvetica-70" transform="translate(4008.105469 0)"/>
    <use xlink:href="#Helvetica-68" transform="translate(4063.720703 0)"/>
    <use xlink:href="#Helvetica-61" transform="translate(4119.335938 0)"/>
    <use xlink:href="#Helvetica-73" transform="translate(4174.951172 0)"/>
    <use xlink:href="#Helvetica-65" transform="translate(4224.951172 0)"/>
    <use xlink:href="#Helvetica-73" transform="translate(4280.566406 0)"/>
    <use xlink:href="#Helvetica-29" transform="translate(4330.566406 0)"/>
    <use xlink:href="#Helvetica-2e" transform="translate(4363.867188 0)"/>
    <use xlink:href="#Helvetica-20" transform="translate(4391.650391 0)"/>
    <use xlink:href="#Helvetica-41" transform="translate(4419.433594 0)"/>
    <use xlink:href="#Helvetica-20" transform="translate(4486.132812 0)"/>
    <use xlink:href="#Helvetica-72" transform="translate(4513.916016 0)"/>
    <use xlink:href="#Helvetica-65" transform="translate(4547.216797 0)"/>
    <use xlink:href="#Helvetica-74" transform="translate(4602.832031 0)"/>
    <use xlink:href="#Helvetica-61" transform="translate(4630.615234 0)"/>
    <use xlink:href="#Helvetica-69" transform="translate(4686.230469 0)"/>
    <use xlink:href="#Helvetica-6e" transform="translate(4708.447266 0)"/>
    <use xlink:href="#Helvetica-65" transform="translate(4764.0625 0)"/>
    <use xlink:href="#Helvetica-64" transform="translate(4819.677734 0)"/>
    <use xlink:href="#Helvetica-20" transform="translate(4875.292969 0)"/>
    <use xlink:href="#Helvetica-74" transform="translate(4903.076172 0)"/>
    <use xlink:href="#Helvetica-61" transform="translate(4930.859375 0)"/>
    <use xlink:href="#Helvetica-73" transform="translate(4986.474609 0)"/>
    <use xlink:href="#Helvetica-6b" transform="translate(5036.474609 0)"/>
    <use xlink:href="#Helvetica-20" transform="translate(5086.474609 0)"/>
    <use xlink:href="#Helvetica-68" transform="translate(5114.257812 0)"/>
    <use xlink:href="#Helvetica-6f" transform="translate(5169.873047 0)"/>
    <use xlink:href="#Helvetica-6c" transform="translate(5225.488281 0)"/>
    <use xlink:href="#Helvetica-64" transform="translate(5247.705078 0)"/>
    <use xlink:href="#Helvetica-73" transform="translate(5303.320312 0)"/>
    <use xlink:href="#Helvetica-20" transform="translate(5353.320312 0)"/>
    <use xlink:href="#Helvetica-69" transform="translate(5381.103516 0)"/>
    <use xlink:href="#Helvetica-74" transform="translate(5403.320312 0)"/>
    <use xlink:href="#Helvetica-73" transform="translate(5431.103516 0)"/>
    <use xlink:href="#Helvetica-20" transform="translate(5481.103516 0)"/>
    <use xlink:href="#Helvetica-76" transform="translate(5508.886719 0)"/>
    <use xlink:href="#Helvetica-61" transform="translate(5558.886719 0)"/>
    <use xlink:href="#Helvetica-6c" transform="translate(5614.501953 0)"/>
    <use xlink:href="#Helvetica-75" transform="translate(5636.71875 0)"/>
    <use xlink:href="#Helvetica-65" transform="translate(5692.333984 0)"/>
    <use xlink:href="#Helvetica-20" transform="translate(5747.949219 0)"/>
    <use xlink:href="#Helvetica-61" transform="translate(5775.732422 0)"/>
    <use xlink:href="#Helvetica-66" transform="translate(5831.347656 0)"/>
    <use xlink:href="#Helvetica-74" transform="translate(5859.130859 0)"/>
    <use xlink:href="#Helvetica-65" transform="translate(5886.914062 0)"/>
    <use xlink:href="#Helvetica-72" transform="translate(5942.529297 0)"/>
    <use xlink:href="#Helvetica-20" transform="translate(5975.830078 0)"/>
    <use xlink:href="#Helvetica-69" transform="translate(6003.613281 0)"/>
    <use xlink:href="#Helvetica-74" transform="translate(6025.830078 0)"/>
    <use xlink:href="#Helvetica-73" transform="translate(6053.613281 0)"/>
    <use xlink:href="#Helvetica-20" transform="translate(6103.613281 0)"/>
    <use xlink:href="#Helvetica-74" transform="translate(6131.396484 0)"/>
    <use xlink:href="#Helvetica-72" transform="translate(6159.179688 0)"/>
    <use xlink:href="#Helvetica-61" transform="translate(6192.480469 0)"/>
    <use xlink:href="#Helvetica-69" transform="translate(6248.095703 0)"/>
    <use xlink:href="#Helvetica-6e" transform="translate(6270.3125 0)"/>
    <use xlink:href="#Helvetica-69" transform="translate(6325.927734 0)"/>
    <use xlink:href="#Helvetica-6e" transform="translate(6348.144531 0)"/>
    <use xlink:href="#Helvetica-67" transform="translate(6403.759766 0)"/>
    <use xlink:href="#Helvetica-20" transform="translate(6459.375 0)"/>
    <use xlink:href="#Helvetica-65" transform="translate(6487.158203 0)"/>
    <use xlink:href="#Helvetica-6e" transform="translate(6542.773438 0)"/>
    <use xlink:href="#Helvetica-64" transform="translate(6598.388672 0)"/>
    <use xlink:href="#Helvetica-73" transform="translate(6654.003906 0)"/>
    <use xlink:href="#Helvetica-2e" transform="translate(6704.003906 0)"/>
   </g>
  </g>
 </g>
 <defs>
  <clipPath id="p9994915a33">
   <rect x="67.109063" y="21.83625" width="502.2" height="277.2"/>
  </clipPath>
 </defs>
</svg>
